<?xml version="1.0" encoding="UTF-8"?>
<!--Generator: Apple Native CoreSVG 149-->
<!DOCTYPE svg
PUBLIC "-//W3C//DTD SVG 1.1//EN"
       "http://www.w3.org/Graphics/SVG/1.1/DTD/svg11.dtd">
<svg version="1.1" xmlns="http://www.w3.org/2000/svg" xmlns:xlink="http://www.w3.org/1999/xlink" width="3300" height="2200">
 <!--glyph: "uni1001D2.medium", point size: 100.000000, font version: "Version 16.0d12e3", template writer version: "8"-->
 <g id="Notes">
  <rect height="2200" id="artboard" style="fill:white;opacity:1" width="3300" x="0" y="0"/>
  <line id="" style="fill:none;stroke:black;opacity:1;stroke-width:0.5;" x1="263" x2="3036" y1="292" y2="292"/>
  <text style="stroke:none;fill:black;font-family:-apple-system,&quot;SF Pro Display&quot;,&quot;SF Pro Text&quot;,Helvetica,sans-serif;font-weight:bold;" transform="matrix(1 0 0 1 263 322)">Weight/Scale Variations</text>
  <text style="stroke:none;fill:black;font-family:-apple-system,&quot;SF Pro Display&quot;,&quot;SF Pro Text&quot;,Helvetica,sans-serif;text-anchor:middle;" transform="matrix(1 0 0 1 559.711 322)">Ultralight</text>
  <text style="stroke:none;fill:black;font-family:-apple-system,&quot;SF Pro Display&quot;,&quot;SF Pro Text&quot;,Helvetica,sans-serif;text-anchor:middle;" transform="matrix(1 0 0 1 856.422 322)">Thin</text>
  <text style="stroke:none;fill:black;font-family:-apple-system,&quot;SF Pro Display&quot;,&quot;SF Pro Text&quot;,Helvetica,sans-serif;text-anchor:middle;" transform="matrix(1 0 0 1 1153.13 322)">Light</text>
  <text style="stroke:none;fill:black;font-family:-apple-system,&quot;SF Pro Display&quot;,&quot;SF Pro Text&quot;,Helvetica,sans-serif;text-anchor:middle;" transform="matrix(1 0 0 1 1449.84 322)">Regular</text>
  <text style="stroke:none;fill:black;font-family:-apple-system,&quot;SF Pro Display&quot;,&quot;SF Pro Text&quot;,Helvetica,sans-serif;text-anchor:middle;" transform="matrix(1 0 0 1 1746.56 322)">Medium</text>
  <text style="stroke:none;fill:black;font-family:-apple-system,&quot;SF Pro Display&quot;,&quot;SF Pro Text&quot;,Helvetica,sans-serif;text-anchor:middle;" transform="matrix(1 0 0 1 2043.27 322)">Semibold</text>
  <text style="stroke:none;fill:black;font-family:-apple-system,&quot;SF Pro Display&quot;,&quot;SF Pro Text&quot;,Helvetica,sans-serif;text-anchor:middle;" transform="matrix(1 0 0 1 2339.98 322)">Bold</text>
  <text style="stroke:none;fill:black;font-family:-apple-system,&quot;SF Pro Display&quot;,&quot;SF Pro Text&quot;,Helvetica,sans-serif;text-anchor:middle;" transform="matrix(1 0 0 1 2636.69 322)">Heavy</text>
  <text style="stroke:none;fill:black;font-family:-apple-system,&quot;SF Pro Display&quot;,&quot;SF Pro Text&quot;,Helvetica,sans-serif;text-anchor:middle;" transform="matrix(1 0 0 1 2933.4 322)">Black</text>
  <line id="" style="fill:none;stroke:black;opacity:1;stroke-width:0.5;" x1="263" x2="3036" y1="1903" y2="1903"/>
  <g id="" transform="matrix(1 0 0 1 263 1933)">
   <path d="M9.24805 0.830078C13.5547 0.830078 17.1387-2.74414 17.1387-7.05078C17.1387-11.3574 13.5449-14.9316 9.23828-14.9316C4.94141-14.9316 1.36719-11.3574 1.36719-7.05078C1.36719-2.74414 4.95117 0.830078 9.24805 0.830078ZM9.24805-0.654297C5.70312-0.654297 2.87109-3.49609 2.87109-7.05078C2.87109-10.6055 5.69336-13.4473 9.23828-13.4473C12.793-13.4473 15.6348-10.6055 15.6445-7.05078C15.6543-3.49609 12.8027-0.654297 9.24805-0.654297ZM9.22852-3.62305C9.69727-3.62305 9.9707-3.93555 9.9707-4.45312L9.9707-6.31836L12.002-6.31836C12.5-6.31836 12.832-6.57227 12.832-7.04102C12.832-7.51953 12.5195-7.7832 12.002-7.7832L9.9707-7.7832L9.9707-9.81445C9.9707-10.332 9.69727-10.6543 9.22852-10.6543C8.75977-10.6543 8.50586-10.3125 8.50586-9.81445L8.50586-7.7832L6.49414-7.7832C5.97656-7.7832 5.64453-7.51953 5.64453-7.04102C5.64453-6.57227 5.99609-6.31836 6.49414-6.31836L8.50586-6.31836L8.50586-4.45312C8.50586-3.95508 8.75977-3.62305 9.22852-3.62305Z"/>
  </g>
  <g id="" transform="matrix(1 0 0 1 281.506 1933)">
   <path d="M11.709 2.91016C17.1582 2.91016 21.6699-1.61133 21.6699-7.05078C21.6699-12.5 17.1484-17.0117 11.6992-17.0117C6.25977-17.0117 1.74805-12.5 1.74805-7.05078C1.74805-1.61133 6.26953 2.91016 11.709 2.91016ZM11.709 1.25C7.09961 1.25 3.41797-2.44141 3.41797-7.05078C3.41797-11.6602 7.08984-15.3516 11.6992-15.3516C16.3086-15.3516 20-11.6602 20.0098-7.05078C20.0195-2.44141 16.3184 1.25 11.709 1.25ZM11.6797-2.66602C12.207-2.66602 12.5098-3.01758 12.5098-3.59375L12.5098-6.23047L15.3223-6.23047C15.8691-6.23047 16.25-6.51367 16.25-7.03125C16.25-7.55859 15.8887-7.86133 15.3223-7.86133L12.5098-7.86133L12.5098-10.6836C12.5098-11.25 12.207-11.6113 11.6797-11.6113C11.1621-11.6113 10.8789-11.2305 10.8789-10.6836L10.8789-7.86133L8.07617-7.86133C7.50977-7.86133 7.13867-7.55859 7.13867-7.03125C7.13867-6.51367 7.5293-6.23047 8.07617-6.23047L10.8789-6.23047L10.8789-3.59375C10.8789-3.03711 11.1621-2.66602 11.6797-2.66602Z"/>
  </g>
  <g id="" transform="matrix(1 0 0 1 304.924 1933)">
   <path d="M14.9707 5.66406C21.9336 5.66406 27.6953-0.0976562 27.6953-7.05078C27.6953-14.0137 21.9238-19.7754 14.9609-19.7754C8.00781-19.7754 2.25586-14.0137 2.25586-7.05078C2.25586-0.0976562 8.01758 5.66406 14.9707 5.66406ZM14.9707 3.84766C8.93555 3.84766 4.08203-1.01562 4.08203-7.05078C4.08203-13.0957 8.92578-17.9492 14.9609-17.9492C21.0059-17.9492 25.8594-13.0957 25.8691-7.05078C25.8789-1.01562 21.0156 3.84766 14.9707 3.84766ZM14.9414-1.38672C15.5176-1.38672 15.8594-1.77734 15.8594-2.38281L15.8594-6.13281L19.7754-6.13281C20.3711-6.13281 20.7812-6.46484 20.7812-7.02148C20.7812-7.59766 20.3906-7.93945 19.7754-7.93945L15.8594-7.93945L15.8594-11.8652C15.8594-12.4805 15.5176-12.8711 14.9414-12.8711C14.375-12.8711 14.0527-12.4609 14.0527-11.8652L14.0527-7.93945L10.1465-7.93945C9.53125-7.93945 9.13086-7.59766 9.13086-7.02148C9.13086-6.46484 9.55078-6.13281 10.1465-6.13281L14.0527-6.13281L14.0527-2.38281C14.0527-1.79688 14.375-1.38672 14.9414-1.38672Z"/>
  </g>
  <text style="stroke:none;fill:black;font-family:-apple-system,&quot;SF Pro Display&quot;,&quot;SF Pro Text&quot;,Helvetica,sans-serif;font-weight:bold;" transform="matrix(1 0 0 1 263 1953)">Design Variations</text>
  <text style="stroke:none;fill:black;font-family:-apple-system,&quot;SF Pro Display&quot;,&quot;SF Pro Text&quot;,Helvetica,sans-serif;" transform="matrix(1 0 0 1 263 1971)">Symbols are supported in up to nine weights and three scales.</text>
  <text style="stroke:none;fill:black;font-family:-apple-system,&quot;SF Pro Display&quot;,&quot;SF Pro Text&quot;,Helvetica,sans-serif;" transform="matrix(1 0 0 1 263 1989)">For optimal layout with text and other symbols, vertically align</text>
  <text style="stroke:none;fill:black;font-family:-apple-system,&quot;SF Pro Display&quot;,&quot;SF Pro Text&quot;,Helvetica,sans-serif;" transform="matrix(1 0 0 1 263 2007)">symbols with the adjacent text.</text>
  <line id="" style="fill:none;stroke:#00AEEF;stroke-width:0.5;opacity:1.0;" x1="776" x2="776" y1="1919" y2="1933"/>
  <g id="" transform="matrix(1 0 0 1 776 1933)">
   <path d="M3.31055 0.126953C3.82812 0.126953 4.08203-0.0683594 4.26758-0.605469L5.52734-4.0625L11.2891-4.0625L12.5488-0.605469C12.7344-0.0683594 12.9883 0.126953 13.4961 0.126953C14.0137 0.126953 14.3457-0.185547 14.3457-0.673828C14.3457-0.839844 14.3164-0.986328 14.2383-1.20117L9.6582-13.3887C9.43359-13.9941 9.0332-14.2871 8.4082-14.2871C7.80273-14.2871 7.39258-13.9941 7.17773-13.3984L2.59766-1.19141C2.51953-0.976562 2.49023-0.830078 2.49023-0.664062C2.49023-0.175781 2.80273 0.126953 3.31055 0.126953ZM6.00586-5.53711L8.37891-12.1094L8.42773-12.1094L10.8008-5.53711Z"/>
  </g>
  <line id="" style="fill:none;stroke:#00AEEF;stroke-width:0.5;opacity:1.0;" x1="792.836" x2="792.836" y1="1919" y2="1933"/>
  <text style="stroke:none;fill:black;font-family:-apple-system,&quot;SF Pro Display&quot;,&quot;SF Pro Text&quot;,Helvetica,sans-serif;font-weight:bold;" transform="matrix(1 0 0 1 776 1953)">Margins</text>
  <text style="stroke:none;fill:black;font-family:-apple-system,&quot;SF Pro Display&quot;,&quot;SF Pro Text&quot;,Helvetica,sans-serif;" transform="matrix(1 0 0 1 776 1971)">Leading and trailing margins on the left and right side of each symbol</text>
  <text style="stroke:none;fill:black;font-family:-apple-system,&quot;SF Pro Display&quot;,&quot;SF Pro Text&quot;,Helvetica,sans-serif;" transform="matrix(1 0 0 1 776 1989)">can be adjusted by modifying the x-location of the margin guidelines.</text>
  <text style="stroke:none;fill:black;font-family:-apple-system,&quot;SF Pro Display&quot;,&quot;SF Pro Text&quot;,Helvetica,sans-serif;" transform="matrix(1 0 0 1 776 2007)">Modifications are automatically applied proportionally to all</text>
  <text style="stroke:none;fill:black;font-family:-apple-system,&quot;SF Pro Display&quot;,&quot;SF Pro Text&quot;,Helvetica,sans-serif;" transform="matrix(1 0 0 1 776 2025)">scales and weights.</text>
  <g id="" transform="matrix(1 0 0 1 1289 1933)">
   <path d="M2.8418 1.86523L4.54102 3.57422C5.40039 4.44336 6.38672 4.38477 7.31445 3.35938L17.4902-7.85156C17.7539-7.76367 18.0273-7.7832 18.3398-7.8418L19.4043-8.03711L20.0684-7.36328L20.0293-6.80664C19.9902-6.30859 20.1172-5.92773 20.6055-5.44922L21.3672-4.70703C21.8457-4.22852 22.4609-4.19922 22.9297-4.66797L25.8398-7.58789C26.3086-8.05664 26.2891-8.65234 25.8105-9.13086L25.0391-9.89258C24.5605-10.3711 24.1895-10.5273 23.7109-10.4883L23.1348-10.4395L22.4902-11.0742L22.7344-12.1973C22.8613-12.7637 22.7051-13.2031 22.1191-13.7891L19.9219-15.9766C16.582-19.2969 12.1484-19.2188 9.25781-16.3281C8.83789-15.918 8.80859-15.3418 9.04297-14.9512C9.27734-14.5898 9.73633-14.3555 10.3809-14.5215C11.8457-14.8633 13.3691-14.9219 14.7949-13.9844L14.209-12.5293C14.0137-12.0508 13.9844-11.6504 14.1113-11.2891L3.04688-0.898438C2.06055 0.0195312 1.98242 0.996094 2.8418 1.86523ZM10.752-15.957C13.1836-17.7344 16.4746-17.4316 18.7012-15.2051L21.1328-12.793C21.3672-12.5586 21.4062-12.373 21.3379-12.0312L21.0156-10.5469L22.5195-9.0625L23.5059-9.12109C23.7598-9.13086 23.8379-9.11133 24.0332-8.91602L24.6094-8.33984L22.168-5.89844L21.5918-6.47461C21.3965-6.66992 21.3672-6.74805 21.377-7.01172L21.4453-7.98828L19.9512-9.47266L18.4277-9.21875C18.1055-9.15039 17.959-9.17969 17.7148-9.41406L15.7129-11.416C15.459-11.6504 15.4297-11.8164 15.5859-12.1875L16.4648-14.2773C14.9023-15.7324 12.8711-16.3574 10.8398-15.7617C10.6836-15.7227 10.625-15.8496 10.752-15.957ZM5.27344 2.30469L4.10156 1.14258C3.63281 0.683594 3.74023 0.341797 4.14062-0.0195312L14.9512-10.1953L16.416-8.71094L6.42578 2.27539C6.07422 2.67578 5.74219 2.77344 5.27344 2.30469Z"/>
  </g>
  <text style="stroke:none;fill:black;font-family:-apple-system,&quot;SF Pro Display&quot;,&quot;SF Pro Text&quot;,Helvetica,sans-serif;font-weight:bold;" transform="matrix(1 0 0 1 1289 1953)">Exporting</text>
  <text style="stroke:none;fill:black;font-family:-apple-system,&quot;SF Pro Display&quot;,&quot;SF Pro Text&quot;,Helvetica,sans-serif;" transform="matrix(1 0 0 1 1289 1971)">Symbols should be outlined when exporting to ensure the</text>
  <text style="stroke:none;fill:black;font-family:-apple-system,&quot;SF Pro Display&quot;,&quot;SF Pro Text&quot;,Helvetica,sans-serif;" transform="matrix(1 0 0 1 1289 1989)">design is preserved when submitting to Xcode.</text>
  <text id="template-version" style="stroke:none;fill:black;font-family:-apple-system,&quot;SF Pro Display&quot;,&quot;SF Pro Text&quot;,Helvetica,sans-serif;text-anchor:end;" transform="matrix(1 0 0 1 3036 1933)">Template v.2.0</text>
  <text style="stroke:none;fill:black;font-family:-apple-system,&quot;SF Pro Display&quot;,&quot;SF Pro Text&quot;,Helvetica,sans-serif;text-anchor:end;" transform="matrix(1 0 0 1 3036 1951)">Requires Xcode 12 or greater</text>
  <text style="stroke:none;fill:black;font-family:-apple-system,&quot;SF Pro Display&quot;,&quot;SF Pro Text&quot;,Helvetica,sans-serif;text-anchor:end;" transform="matrix(1 0 0 1 3036 1969)">Generated from cloud.bolt</text>
  <text style="stroke:none;fill:black;font-family:-apple-system,&quot;SF Pro Display&quot;,&quot;SF Pro Text&quot;,Helvetica,sans-serif;text-anchor:end;" transform="matrix(1 0 0 1 3036 1987)">Typeset at 100 points</text>
  <text style="stroke:none;fill:black;font-family:-apple-system,&quot;SF Pro Display&quot;,&quot;SF Pro Text&quot;,Helvetica,sans-serif;" transform="matrix(1 0 0 1 263 726)">Small</text>
  <text style="stroke:none;fill:black;font-family:-apple-system,&quot;SF Pro Display&quot;,&quot;SF Pro Text&quot;,Helvetica,sans-serif;" transform="matrix(1 0 0 1 263 1156)">Medium</text>
  <text style="stroke:none;fill:black;font-family:-apple-system,&quot;SF Pro Display&quot;,&quot;SF Pro Text&quot;,Helvetica,sans-serif;" transform="matrix(1 0 0 1 263 1586)">Large</text>
 </g>
 <g id="Guides">
  <g id="H-reference" style="fill:#27AAE1;stroke:none;" transform="matrix(1 0 0 1 339 696)">
   <path d="M0.976562 0L3.66211 0L12.9883-24.4629L45.752-24.4629L55.127 0L57.7637 0L30.6152-70.459L28.125-70.459ZM29.3457-67.1387L29.4434-67.1387L44.873-26.709L13.8672-26.709Z"/>
  </g>
  <line id="Baseline-S" style="fill:none;stroke:#27AAE1;opacity:1;stroke-width:0.5;" x1="263" x2="3036" y1="696" y2="696"/>
  <line id="Capline-S" style="fill:none;stroke:#27AAE1;opacity:1;stroke-width:0.5;" x1="263" x2="3036" y1="625.541" y2="625.541"/>
  <g id="H-reference" style="fill:#27AAE1;stroke:none;" transform="matrix(1 0 0 1 339 1126)">
   <path d="M0.976562 0L3.66211 0L12.9883-24.4629L45.752-24.4629L55.127 0L57.7637 0L30.6152-70.459L28.125-70.459ZM29.3457-67.1387L29.4434-67.1387L44.873-26.709L13.8672-26.709Z"/>
  </g>
  <line id="Baseline-M" style="fill:none;stroke:#27AAE1;opacity:1;stroke-width:0.5;" x1="263" x2="3036" y1="1126" y2="1126"/>
  <line id="Capline-M" style="fill:none;stroke:#27AAE1;opacity:1;stroke-width:0.5;" x1="263" x2="3036" y1="1055.54" y2="1055.54"/>
  <g id="H-reference" style="fill:#27AAE1;stroke:none;" transform="matrix(1 0 0 1 339 1556)">
   <path d="M0.976562 0L3.66211 0L12.9883-24.4629L45.752-24.4629L55.127 0L57.7637 0L30.6152-70.459L28.125-70.459ZM29.3457-67.1387L29.4434-67.1387L44.873-26.709L13.8672-26.709Z"/>
  </g>
  <line id="Baseline-L" style="fill:none;stroke:#27AAE1;opacity:1;stroke-width:0.5;" x1="263" x2="3036" y1="1556" y2="1556"/>
  <line id="Capline-L" style="fill:none;stroke:#27AAE1;opacity:1;stroke-width:0.5;" x1="263" x2="3036" y1="1485.54" y2="1485.54"/>
  <line id="left-margin" style="fill:none;stroke:#00AEEF;stroke-width:0.5;opacity:1.0;" x1="1385.34" x2="1385.34" y1="1030.79" y2="1150.12"/>
  <line id="right-margin" style="fill:none;stroke:#00AEEF;stroke-width:0.5;opacity:1.0;" x1="1514.35" x2="1514.35" y1="1030.79" y2="1150.12"/>
 </g>
 <g id="Symbols">
  <g id="Black-L" transform="matrix(1 0 0 1 2845.61 1556)">
   <path d="M45.1172-1.17188L124.561-1.17188C147.168-1.17188 164.307-18.4082 164.307-40.2832C164.307-62.4512 147.217-79.5898 124.512-79.5898C117.236-93.6523 103.613-104.785 81.543-104.785C55.8105-104.785 35.9375-86.2793 32.5684-62.5977C20.4102-58.3496 11.2793-47.6074 11.2793-33.0566C11.2793-15.0391 24.7559-1.17188 45.1172-1.17188ZM45.6543-19.1895C34.668-19.1895 29.2969-24.8535 29.2969-32.7148C29.2969-39.7461 33.6426-44.9707 43.5547-47.5586C47.8027-48.6328 48.9258-50.5859 49.5605-54.8828C52.5391-75.7812 65.3809-86.7676 81.543-86.7676C93.6035-86.7676 103.809-79.9316 110.742-66.8457C112.598-63.3301 114.6-62.1094 118.994-62.1094C137.842-62.1094 146.289-52.2949 146.289-39.8926C146.289-28.2227 137.549-19.1895 124.219-19.1895ZM107.52 21.4844L92.627 21.4844L97.8516 11.5234C98.584 10.1562 97.998 9.08203 96.582 9.08203L77.4414 9.08203C75.6348 9.08203 74.9512 9.7168 74.4141 11.084L65.1367 32.1777C64.502 33.7402 65.0391 34.7656 66.748 34.7656L78.9062 34.7656L70.6055 54.834C70.2148 55.7129 70.459 56.3965 70.9961 56.6406C71.582 56.8848 72.2656 56.7383 72.998 56.1035L108.447 24.7559C109.961 23.4863 109.424 21.4844 107.52 21.4844Z"/>
  </g>
  <g id="Heavy-L" transform="matrix(1 0 0 1 2550.04 1556)">
   <path d="M43.9941-2.19727L123.242-2.19727C145.264-2.19727 162.012-19.043 162.012-40.2832C162.012-61.8164 145.117-78.3691 122.803-78.3691C115.332-92.7734 101.562-103.711 80.3711-103.711C55.1758-103.711 35.4492-85.2051 32.373-61.5723C20.3613-57.5684 11.2793-47.0703 11.2793-32.8125C11.2793-15.625 24.1211-2.19727 43.9941-2.19727ZM44.3848-18.0176C32.8125-18.0176 27.0508-24.1699 27.0508-32.4707C27.0508-39.7949 31.5918-45.5078 41.6992-48.1445C45.7031-49.1699 46.8262-50.9766 47.3633-54.9805C49.9512-75.8789 63.5742-87.9395 80.3711-87.9395C93.0664-87.9395 103.564-80.7617 110.498-67.4316C112.207-64.1113 114.16-62.8906 118.311-62.8906C137.109-62.8906 146.191-52.6855 146.191-39.8926C146.191-27.6367 136.816-18.0176 123.047-18.0176ZM104.785 20.8496L90.5762 20.8496L96.0938 10.2539C96.8262 8.88672 96.2891 7.76367 94.8242 7.76367L77.4902 7.76367C75.6836 7.76367 75.0488 8.39844 74.4629 9.76562L65.332 30.5664C64.6973 32.0801 65.2832 33.1055 66.9434 33.1055L78.6621 33.1055L70.3125 53.418C69.9219 54.248 70.1172 54.9805 70.7031 55.2246C71.2891 55.4688 71.9727 55.3223 72.7051 54.6387L105.762 24.1211C107.227 22.7539 106.689 20.8496 104.785 20.8496Z"/>
  </g>
  <g id="Bold-L" transform="matrix(1 0 0 1 2254.63 1556)">
   <path d="M42.7246-3.36914L121.68-3.36914C143.164-3.36914 159.424-19.7266 159.424-40.2344C159.424-61.1816 142.725-77.002 120.85-77.002C113.232-91.8457 99.2676-102.539 79.0039-102.539C54.4434-102.539 34.8145-83.9844 32.1289-60.4492C20.3125-56.6895 11.2793-46.4355 11.2793-32.5195C11.2793-16.2598 23.3398-3.36914 42.7246-3.36914ZM42.9688-16.6992C30.7129-16.6992 24.5605-23.3887 24.5605-32.2266C24.5605-39.8926 29.2969-46.0938 39.6973-48.8281C43.3594-49.7559 44.4824-51.4648 44.9219-55.1758C47.1191-75.9766 61.5723-89.209 79.0039-89.209C92.5293-89.209 103.369-81.6406 110.205-68.1152C111.816-64.9414 113.672-63.8184 117.529-63.8184C136.23-63.8184 146.094-53.1738 146.094-39.9414C146.094-26.9531 135.938-16.6992 121.777-16.6992ZM101.807 20.166L88.2324 20.166L94.1895 8.78906C94.873 7.42188 94.3359 6.29883 92.9199 6.29883L77.5391 6.29883C75.7324 6.29883 75.0977 6.93359 74.5117 8.30078L65.5762 28.7109C64.8926 30.2734 65.5762 31.25 67.2363 31.25L78.418 31.25L69.9707 51.8066C69.5801 52.6855 69.8242 53.3691 70.3613 53.6133C70.9473 53.8574 71.6797 53.7109 72.3633 52.9785L102.783 23.3398C104.199 21.9727 103.662 20.166 101.807 20.166Z"/>
  </g>
  <g id="Semibold-L" transform="matrix(1 0 0 1 1958.82 1556)">
   <path d="M41.8457-4.19922L120.654-4.19922C141.699-4.19922 157.617-20.166 157.617-40.2344C157.617-60.6934 141.113-76.0254 119.482-76.0254C111.768-91.2109 97.7051-101.709 78.0762-101.709C53.9062-101.709 34.4238-83.1543 31.9824-59.668C20.2637-56.0547 11.2793-46.0449 11.2793-32.373C11.2793-16.6992 22.8516-4.19922 41.8457-4.19922ZM41.9922-15.7715C29.2969-15.7715 22.8516-22.8516 22.8516-32.0801C22.8516-39.9414 27.6855-46.4844 38.2812-49.2676C41.748-50.1953 42.8711-51.7578 43.2129-55.2734C45.1172-76.0742 60.1562-90.0879 78.0762-90.0879C92.1387-90.0879 103.223-82.2754 110.059-68.5547C111.572-65.5273 113.33-64.4531 116.992-64.4531C135.645-64.4531 146.045-53.4668 146.045-39.9414C146.045-26.5137 135.352-15.7715 120.898-15.7715ZM99.707 19.6777L86.6211 19.6777L92.8223 7.76367C93.5547 6.39648 93.0176 5.32227 91.6016 5.32227L77.5879 5.32227C75.7812 5.32227 75.1465 5.95703 74.5605 7.27539L65.7227 27.4414C65.0391 29.0039 65.7227 29.9805 67.3828 29.9805L78.2715 29.9805L69.7266 50.6836C69.3848 51.5625 69.5801 52.2949 70.166 52.5391C70.752 52.7832 71.4355 52.5879 72.1191 51.8555L100.732 22.8027C102.1 21.4355 101.562 19.6777 99.707 19.6777Z"/>
  </g>
  <g id="Medium-L" transform="matrix(1 0 0 1 1662.79 1556)">
   <path d="M41.2109-4.78516L119.873-4.78516C140.625-4.78516 156.25-20.5566 156.25-40.1855C156.25-60.3516 139.844-75.3418 118.457-75.3418C110.693-90.7227 96.4844-101.074 77.3438-101.074C53.5156-101.074 34.1309-82.5195 31.8359-59.0332C20.2148-55.6152 11.2793-45.7031 11.2793-32.2266C11.2793-16.9922 22.4609-4.78516 41.2109-4.78516ZM41.2109-15.0879C28.2227-15.0879 21.582-22.4609 21.582-31.9336C21.582-39.9902 26.5137-46.7773 37.207-49.6094C40.5273-50.4883 41.6504-52.002 41.9434-55.3223C43.6523-76.123 59.082-90.7715 77.3438-90.7715C91.8457-90.7715 103.076-82.7148 109.912-68.8965C111.328-65.9668 113.086-64.9414 116.602-64.9414C135.205-64.9414 145.947-53.7109 145.947-39.9414C145.947-26.123 134.912-15.0879 120.215-15.0879ZM98.1445 19.2871L85.4004 19.2871L91.7969 6.98242C92.5293 5.61523 91.9922 4.54102 90.5762 4.54102L77.6367 4.54102C75.8301 4.54102 75.1465 5.17578 74.6094 6.49414L65.8203 26.4648C65.1855 28.0273 65.8691 29.0039 67.5293 29.0039L78.1738 29.0039L69.5801 49.8535C69.1895 50.7324 69.3848 51.4648 69.9707 51.709C70.5566 51.9531 71.2891 51.7578 71.9727 51.0254L99.2188 22.4121C100.488 21.0449 99.9512 19.2871 98.1445 19.2871Z"/>
  </g>
  <g id="Regular-L" transform="matrix(1 0 0 1 1366.96 1556)">
   <path d="M40.3809-5.61523L118.848-5.61523C139.16-5.61523 154.492-20.9961 154.492-40.1855C154.492-59.9121 138.232-74.3652 117.139-74.3652C109.277-90.0879 94.9219-100.244 76.4648-100.244C53.0273-100.244 33.6914-81.6895 31.6895-58.252C20.166-55.0293 11.2793-45.2637 11.2793-32.0312C11.2793-17.4316 21.9238-5.61523 40.3809-5.61523ZM40.2344-14.209C26.8066-14.209 19.873-21.9727 19.873-31.7871C19.873-40.0879 24.9023-47.2168 35.791-50.0977C38.916-50.9277 40.0391-52.3438 40.2832-55.4688C41.6992-76.2207 57.7148-91.6504 76.4648-91.6504C91.4551-91.6504 102.93-83.3496 109.717-69.3359C111.084-66.5527 112.744-65.5762 116.064-65.5762C134.619-65.5762 145.898-54.0039 145.898-39.9414C145.898-25.6836 134.326-14.209 119.336-14.209ZM96.0449 18.7988L83.8379 18.7988L90.4785 6.00586C91.2109 4.63867 90.6738 3.56445 89.2578 3.56445L77.6367 3.56445C75.8301 3.56445 75.1953 4.19922 74.6582 5.51758L66.0156 25.1953C65.332 26.8066 66.0645 27.7344 67.6758 27.7344L77.9785 27.7344L69.3359 48.7793C68.9941 49.6094 69.1895 50.3418 69.7754 50.5859C70.3613 50.8301 71.0449 50.6348 71.7285 49.9023L97.168 21.9238C98.4375 20.5078 97.9004 18.7988 96.0449 18.7988Z"/>
  </g>
  <g id="Light-L" transform="matrix(1 0 0 1 1070.71 1556)">
   <path d="M39.5996-6.73828L118.457-6.73828C138.379-6.73828 153.564-21.7773 153.564-40.5762C153.564-59.8633 137.549-74.0234 116.748-74.0234C108.887-89.9414 94.9219-100.244 76.0742-100.244C53.0273-100.244 34.0332-81.6895 32.0312-58.252C20.4102-55.0781 11.2793-45.6055 11.2793-32.4219C11.2793-18.2617 21.6797-6.73828 39.5996-6.73828ZM39.5508-13.2324C25.3906-13.2324 17.8223-21.7285 17.8223-32.2266C17.8223-41.5039 23.7793-49.0723 34.8633-52.002C37.5-52.6855 38.3789-53.8574 38.5742-56.3477C39.8926-77.3926 56.7383-93.75 76.0742-93.75C92.2852-93.75 104.199-84.668 110.986-70.5566C112.109-68.1641 113.525-67.3828 116.357-67.3828C134.766-67.3828 147.021-55.3223 147.021-40.332C147.021-25.3906 134.717-13.2324 118.75-13.2324ZM92.9199 19.1406L81.5918 19.1406L88.916 5.07812C89.6484 3.71094 89.0625 2.63672 87.6465 2.63672L78.8574 2.63672C77.0508 2.63672 76.3672 3.27148 75.8301 4.58984L67.0898 24.4629C66.4062 26.123 67.2852 27.002 68.8477 27.002L78.2715 27.002L69.5312 48.291C69.1895 49.1699 69.3848 49.9023 70.0195 50.1465C70.6055 50.3906 71.3379 50.1953 71.9727 49.4141L94.1406 22.168C95.2637 20.752 94.7266 19.1406 92.9199 19.1406Z"/>
  </g>
  <g id="Thin-L" transform="matrix(1 0 0 1 774.611 1556)">
   <path d="M38.623-8.20312L117.969-8.20312C137.354-8.20312 152.344-22.8027 152.344-41.0645C152.344-59.7656 136.67-73.5352 116.26-73.5352C108.398-89.7461 94.9219-100.244 75.5859-100.244C53.0273-100.244 34.4727-81.6895 32.5195-58.252C20.752-55.1758 11.2793-45.9961 11.2793-32.9102C11.2793-19.3848 21.3379-8.20312 38.623-8.20312ZM38.623-11.9629C23.5352-11.9629 15.0391-21.4355 15.0391-32.8613C15.0391-43.3594 22.2168-51.5625 33.5938-54.541C35.5957-55.0781 36.2305-55.8594 36.3281-57.5684C37.5488-79.0039 55.4688-96.4844 75.5859-96.4844C93.3594-96.4844 105.811-86.4258 112.646-72.168C113.525-70.3125 114.6-69.7266 116.748-69.7266C134.912-69.7266 148.535-57.0312 148.535-40.918C148.535-25 135.156-11.9629 118.018-11.9629ZM88.7207 19.5312L78.6133 19.5312L86.8164 3.90625C87.5488 2.53906 86.9629 1.41602 85.5469 1.41602L80.4199 1.41602C78.6133 1.41602 77.9785 2.05078 77.3926 3.41797L68.5547 23.5352C67.8711 25.1953 68.8477 26.0742 70.4102 26.0742L78.7109 26.0742L69.8242 47.6562C69.4336 48.584 69.6777 49.3164 70.3125 49.5605C70.9473 49.8047 71.7285 49.5605 72.3145 48.7305L90.1367 22.4609C91.1133 21.0449 90.4785 19.5312 88.7207 19.5312Z"/>
  </g>
  <g id="Ultralight-L" transform="matrix(1 0 0 1 478.217 1556)">
   <path d="M38.1348-8.93555L117.725-8.93555C136.816-8.93555 151.709-23.291 151.709-41.3574C151.709-59.7168 136.182-73.291 116.016-73.291C108.154-89.6484 94.9219-100.244 75.3418-100.244C53.0273-100.244 34.7168-81.6895 32.8125-58.252C20.9473-55.2246 11.2793-46.2402 11.2793-33.1543C11.2793-19.9219 21.1426-8.93555 38.1348-8.93555ZM38.1348-11.3281C22.5586-11.3281 13.6719-21.2891 13.6719-33.1543C13.6719-44.3359 21.4355-52.832 32.9102-55.8594C34.6191-56.2988 35.1074-56.9336 35.1562-58.1543C36.377-79.834 54.7852-97.8516 75.3418-97.8516C93.8965-97.8516 106.641-87.3535 113.525-72.998C114.258-71.4355 115.137-70.8984 116.943-70.8984C135.01-70.8984 149.316-57.9102 149.316-41.2109C149.316-24.8047 135.4-11.3281 117.676-11.3281ZM86.5723 19.7754L77.0996 19.7754L85.7422 3.27148C86.4746 1.9043 85.8887 0.78125 84.4238 0.78125L81.25 0.78125C79.3945 0.78125 78.7598 1.41602 78.1738 2.7832L69.3359 23.0469C68.6035 24.7559 69.6777 25.6348 71.1914 25.6348L78.9062 25.6348L70.0195 47.3145C69.5801 48.291 69.8242 49.0234 70.5078 49.2676C71.1426 49.5117 71.9727 49.2676 72.5098 48.3398L88.0859 22.6074C89.0137 21.1914 88.3301 19.7754 86.5723 19.7754Z"/>
  </g>
  <g id="Black-M" transform="matrix(1 0 0 1 2864.04 1126)">
   <path d="M36.084-8.00781L98.1934-8.00781C116.162-8.00781 129.98-21.7773 129.98-39.4043C129.98-57.0801 116.602-71.0938 98.6816-71.0938C93.2129-81.543 83.0566-90.5762 64.6484-90.5762C44.1406-90.5762 28.7598-76.2695 25.7324-57.8125C16.0645-54.248 8.74023-45.752 8.74023-34.0332C8.74023-19.2871 19.9707-8.00781 36.084-8.00781ZM36.7188-23.877C28.5645-23.877 24.6094-27.9785 24.6094-33.7891C24.6094-39.3555 28.2227-43.0664 35.6934-45.0195C39.0625-45.8984 39.8926-47.3633 40.4297-50.7324C43.2129-67.1387 52.5879-74.7559 64.6484-74.7559C73.6328-74.7559 81.3477-69.5312 86.7676-59.6191C88.2812-56.8848 89.8438-55.8594 93.2617-55.8594C107.91-55.8594 114.111-48.6328 114.111-39.0625C114.111-30.4688 107.812-23.877 97.5098-23.877ZM85.2539 9.76562L73.4375 9.76562L77.2949 2.29492C77.8809 1.2207 77.4414 0.390625 76.3184 0.390625L60.5957 0.390625C59.1797 0.390625 58.6914 0.878906 58.252 1.9043L50.7812 18.8477C50.293 20.0684 50.7324 20.8496 52.0508 20.8496L61.5723 20.8496L55.2246 36.2305C54.9316 36.9141 55.127 37.5 55.5664 37.6953C56.0059 37.8418 56.543 37.7441 57.1289 37.2559L86.0352 12.3047C87.207 11.3281 86.7676 9.76562 85.2539 9.76562Z"/>
  </g>
  <g id="Heavy-M" transform="matrix(1 0 0 1 2568.48 1126)">
   <path d="M35.0586-8.88672L96.7773-8.88672C114.307-8.88672 127.686-22.2168 127.686-39.2578C127.686-56.4453 114.453-69.8242 96.875-69.8242C91.2109-80.6641 80.8105-89.4043 63.4277-89.4043C43.4082-89.4043 28.0762-75.0977 25.3906-56.6895C15.918-53.3691 8.74023-45.0684 8.74023-33.6914C8.74023-19.6777 19.2871-8.88672 35.0586-8.88672ZM35.498-22.8516C26.9531-22.8516 22.7051-27.2949 22.7051-33.4473C22.7051-39.0625 26.2695-43.1641 33.9355-45.166C37.1582-45.9961 37.9883-47.4121 38.4766-50.6348C40.8691-66.9434 50.8789-75.4395 63.4277-75.4395C72.9004-75.4395 80.8105-70.0195 86.2305-59.9121C87.6465-57.2754 89.1602-56.2988 92.4316-56.2988C107.08-56.2988 113.721-48.7305 113.721-38.9648C113.721-29.8828 106.885-22.8516 96.3867-22.8516ZM83.1543 8.98438L71.7285 8.98438L75.8301 1.12305C76.416 0.0488281 75.9766-0.830078 74.8535-0.830078L60.3516-0.830078C58.9355-0.830078 58.3984-0.341797 58.0078 0.732422L50.7324 17.2363C50.2441 18.457 50.6836 19.2383 52.002 19.2383L61.2793 19.2383L54.834 34.8145C54.541 35.498 54.7363 36.0352 55.1758 36.2305C55.6152 36.4258 56.1523 36.2793 56.7383 35.791L83.8867 11.5234C85.0586 10.498 84.6191 8.98438 83.1543 8.98438Z"/>
  </g>
  <g id="Bold-M" transform="matrix(1 0 0 1 2273.06 1126)">
   <path d="M33.8867-9.81445L95.2637-9.81445C112.256-9.81445 125.098-22.7539 125.098-39.1113C125.098-55.7617 112.061-68.457 94.8242-68.457C89.0137-79.6875 78.3203-88.0859 62.0605-88.0859C42.627-88.0859 27.3438-73.7305 25.0488-55.4688C15.7715-52.3926 8.74023-44.2871 8.74023-33.3008C8.74023-20.1172 18.5547-9.81445 33.8867-9.81445ZM34.1309-21.6797C25.0977-21.6797 20.6055-26.5137 20.6055-33.0566C20.6055-38.7695 24.1211-43.2617 31.9824-45.3125C35.0098-46.0938 35.9375-47.5098 36.3281-50.5859C38.2812-66.748 48.9258-76.2695 62.0605-76.2695C72.0215-76.2695 80.2246-70.6543 85.5469-60.3027C86.8652-57.7148 88.3789-56.8359 91.5527-56.8359C106.104-56.8359 113.281-48.8281 113.281-38.8672C113.281-29.248 105.859-21.6797 95.166-21.6797ZM80.7617 8.10547L69.8242 8.10547L74.1699-0.244141C74.7559-1.26953 74.3164-2.14844 73.1934-2.14844L60.0586-2.14844C58.6426-2.14844 58.1543-1.66016 57.7148-0.585938L50.6836 15.4297C50.1465 16.6504 50.6348 17.4316 51.9043 17.4316L60.9375 17.4316L54.4434 33.2031C54.1504 33.8379 54.2969 34.4238 54.7363 34.6191C55.1758 34.8145 55.7129 34.668 56.2988 34.1309L81.543 10.5957C82.6172 9.57031 82.2266 8.10547 80.7617 8.10547Z"/>
  </g>
  <g id="Semibold-M" transform="matrix(1 0 0 1 1977.23 1126)">
   <path d="M33.1055-10.498L94.1895-10.498C110.791-10.498 123.34-23.1445 123.34-39.0137C123.34-55.2734 110.4-67.4805 93.4082-67.4805C87.5-79.0039 76.5625-87.207 61.084-87.207C42.041-87.207 26.8555-72.8027 24.8047-54.5898C15.6738-51.709 8.74023-43.75 8.74023-33.0078C8.74023-20.459 18.0664-10.498 33.1055-10.498ZM33.2031-20.8984C23.8281-20.8984 19.1406-25.9766 19.1406-32.7637C19.1406-38.5742 22.6074-43.3105 30.6641-45.459C33.5449-46.1914 34.4727-47.5098 34.8145-50.4883C36.4746-66.5527 47.6074-76.8066 61.084-76.8066C71.4355-76.8066 79.7852-71.0449 85.1074-60.5469C86.377-58.0566 87.8418-57.1777 90.918-57.1777C105.42-57.1777 112.939-48.9258 112.939-38.7695C112.939-28.7598 105.176-20.8984 94.2871-20.8984ZM79.1016 7.51953L68.5059 7.51953L73.0469-1.17188C73.584-2.19727 73.1445-3.07617 72.0703-3.07617L59.8633-3.07617C58.4473-3.07617 57.959-2.53906 57.5195-1.51367L50.5859 14.209C50.0977 15.3809 50.5859 16.1621 51.9043 16.1621L60.6934 16.1621L54.1504 32.0801C53.8574 32.7637 54.0039 33.3008 54.4434 33.4961C54.8828 33.6914 55.4199 33.5449 55.957 33.0078L79.8828 10.0098C80.957 8.93555 80.5664 7.51953 79.1016 7.51953Z"/>
  </g>
  <g id="Medium-M" transform="matrix(1 0 0 1 1681.17 1126)">
   <path d="M32.4707-10.9863L93.3594-10.9863C109.717-10.9863 122.021-23.4375 122.021-38.9648C122.021-54.8828 109.131-66.748 92.3828-66.748C86.377-78.5156 75.293-86.5234 60.4004-86.5234C41.6504-86.5234 26.4648-72.1191 24.6094-53.9551C15.5762-51.1719 8.74023-43.3594 8.74023-32.8125C8.74023-20.6543 17.6758-10.9863 32.4707-10.9863ZM32.5195-20.2637C22.8516-20.2637 18.0176-25.5859 18.0176-32.5684C18.0176-38.3789 21.4844-43.3594 29.6387-45.5078C32.4707-46.2891 33.3984-47.5586 33.6426-50.4395C35.1074-66.4551 46.582-77.2461 60.4004-77.2461C70.9961-77.2461 79.4922-71.3379 84.7656-60.6934C85.9863-58.252 87.4512-57.4219 90.4297-57.4219C104.932-57.4219 112.744-48.9746 112.744-38.7207C112.744-28.4668 104.639-20.2637 93.6523-20.2637ZM77.8809 7.08008L67.5293 7.08008L72.168-1.85547C72.7539-2.92969 72.3145-3.75977 71.2402-3.75977L59.7168-3.75977C58.3008-3.75977 57.8125-3.27148 57.373-2.24609L50.5859 13.2324C50.0488 14.4531 50.5859 15.1855 51.8555 15.1855L60.498 15.1855L53.9062 31.25C53.6133 31.8848 53.7598 32.4707 54.248 32.666C54.6875 32.8125 55.2246 32.7148 55.7617 32.1777L78.6621 9.52148C79.7363 8.44727 79.2969 7.08008 77.8809 7.08008Z"/>
  </g>
  <g id="Regular-M" transform="matrix(1 0 0 1 1385.34 1126)">
   <path d="M31.6895-11.6211L92.2852-11.6211C108.301-11.6211 120.264-23.7793 120.264-38.8672C120.264-54.3945 107.52-65.7715 90.9668-65.7715C84.8633-77.832 73.5352-85.5957 59.4727-85.5957C41.0645-85.5957 25.9277-71.2402 24.3652-53.0762C15.4785-50.5371 8.74023-42.8223 8.74023-32.5195C8.74023-20.9961 17.1387-11.6211 31.6895-11.6211ZM31.5918-19.4824C21.582-19.4824 16.5527-25.0488 16.5527-32.2754C16.5527-38.1836 19.9707-43.457 28.2715-45.6543C31.0059-46.3379 31.9824-47.6074 32.1777-50.3906C33.3008-66.3086 45.3125-77.7832 59.4727-77.7832C70.4102-77.7832 79.0527-71.7773 84.3262-60.9375C85.498-58.5938 86.9141-57.7637 89.7949-57.7637C104.248-57.7637 112.402-49.0234 112.402-38.623C112.402-27.9785 103.906-19.4824 92.7734-19.4824ZM76.2695 6.49414L66.2109 6.49414L71.0449-2.7832C71.6309-3.80859 71.1914-4.63867 70.1172-4.63867L59.5215-4.63867C58.1055-4.63867 57.6172-4.15039 57.1777-3.125L50.5371 12.0117C50 13.2324 50.5371 13.9648 51.8066 13.9648L60.3027 13.9648L53.6133 30.127C53.3691 30.8105 53.4668 31.3477 53.9551 31.543C54.3945 31.7383 54.9316 31.5918 55.4688 31.0547L77.0508 8.93555C78.0762 7.86133 77.6855 6.49414 76.2695 6.49414Z"/>
  </g>
  <g id="Light-M" transform="matrix(1 0 0 1 1089.05 1126)">
   <path d="M31.0547-12.6465L91.9434-12.6465C107.617-12.6465 119.434-24.4629 119.434-39.209C119.434-54.3457 106.885-65.4297 90.6738-65.4297C84.5703-77.7344 73.5352-85.5957 59.1309-85.5957C41.0645-85.5957 26.2207-71.2402 24.6582-53.0762C15.7227-50.5859 8.74023-43.1152 8.74023-32.8613C8.74023-21.7285 16.9434-12.6465 31.0547-12.6465ZM30.957-18.6035C20.3125-18.6035 14.6973-24.8535 14.6973-32.7148C14.6973-39.4531 18.9453-45.1172 27.4414-47.3633C29.6875-47.9492 30.4688-48.9746 30.6641-51.1719C31.7383-67.3828 44.4336-79.6387 59.1309-79.6387C71.1426-79.6387 80.1758-72.9492 85.4492-62.0605C86.4258-60.0098 87.6465-59.3262 90.0391-59.3262C104.346-59.3262 113.428-50.1953 113.428-39.0137C113.428-27.7344 104.248-18.6035 92.2852-18.6035ZM73.4375 6.73828L64.209 6.73828L69.6289-3.56445C70.166-4.63867 69.7266-5.46875 68.6523-5.46875L60.5957-5.46875C59.1797-5.46875 58.6914-4.98047 58.252-3.95508L51.5137 11.377C50.9766 12.5977 51.6113 13.3301 52.832 13.3301L60.5469 13.3301L53.8086 29.6875C53.5156 30.3711 53.7109 30.957 54.1504 31.1523C54.6387 31.3477 55.1758 31.1523 55.6641 30.5664L74.3164 9.13086C75.2441 8.05664 74.8047 6.73828 73.4375 6.73828Z"/>
  </g>
  <g id="Thin-M" transform="matrix(1 0 0 1 792.897 1126)">
   <path d="M30.1758-13.9648L91.5039-13.9648C106.641-13.9648 118.311-25.3418 118.311-39.6484C118.311-54.248 106.104-64.9902 90.2344-64.9902C84.1309-77.5391 73.5352-85.5957 58.6914-85.5957C41.0645-85.5957 26.6113-71.2402 25.0977-53.0762C16.0156-50.6836 8.74023-43.5059 8.74023-33.3008C8.74023-22.7051 16.6016-13.9648 30.1758-13.9648ZM30.127-17.4805C18.6523-17.4805 12.2559-24.6094 12.2559-33.252C12.2559-41.1133 17.5781-47.3633 26.2695-49.6582C27.9785-50.0977 28.5645-50.7812 28.6133-52.2461C29.5898-68.7988 43.2617-82.0801 58.6914-82.0801C72.1191-82.0801 81.6406-74.5117 86.9629-63.4766C87.6953-61.9629 88.5742-61.4258 90.4297-61.4258C104.541-61.4258 114.795-51.7578 114.795-39.502C114.795-27.3926 104.639-17.4805 91.6504-17.4805ZM69.6777 7.12891L61.5723 7.12891L67.7246-4.63867C68.3105-5.71289 67.8711-6.5918 66.748-6.5918L62.0117-6.5918C60.5957-6.5918 60.0586-6.05469 59.668-5.0293L52.832 10.498C52.2949 11.8164 53.0273 12.5 54.248 12.5L60.8887 12.5L54.0527 29.1504C53.7598 29.8828 53.9551 30.4199 54.4434 30.6152C54.9316 30.8105 55.5176 30.6152 56.0059 29.9805L70.7031 9.42383C71.5332 8.30078 71.0449 7.12891 69.6777 7.12891Z"/>
  </g>
  <g id="Ultralight-M" transform="matrix(1 0 0 1 496.454 1126)">
   <path d="M29.6875-14.5996L91.3086-14.5996C106.152-14.5996 117.773-25.8301 117.773-39.8926C117.773-54.1992 105.664-64.7949 89.9902-64.7949C83.8867-77.4414 73.5352-85.5957 58.4473-85.5957C41.0645-85.5957 26.8066-71.2402 25.3418-53.0762C16.1621-50.7324 8.74023-43.7012 8.74023-33.5449C8.74023-23.1934 16.4551-14.5996 29.6875-14.5996ZM29.6875-16.8945C17.7734-16.8945 10.9863-24.4629 10.9863-33.5449C10.9863-41.9922 16.8457-48.4863 25.6836-50.8301C27.0996-51.1719 27.5391-51.709 27.5879-52.832C28.5156-69.5312 42.6758-83.3496 58.4473-83.3496C72.6074-83.3496 82.4219-75.3418 87.6953-64.2578C88.3301-62.9395 89.0625-62.5 90.5762-62.5C104.59-62.5 115.479-52.5391 115.479-39.7461C115.479-27.1973 104.883-16.8945 91.3086-16.8945ZM67.7734 7.32422L60.2051 7.32422L66.748-5.22461C67.334-6.25 66.8945-7.12891 65.7715-7.12891L62.7441-7.12891C61.2793-7.12891 60.791-6.64062 60.3516-5.56641L53.5156 10.0586C52.9297 11.377 53.7598 12.0605 54.9316 12.0605L61.084 12.0605L54.1992 28.8574C53.9062 29.5898 54.1016 30.1758 54.5898 30.3223C55.0781 30.5176 55.7129 30.3223 56.1523 29.6387L68.8965 9.57031C69.6289 8.44727 69.1406 7.32422 67.7734 7.32422Z"/>
  </g>
  <g id="Black-S" transform="matrix(1 0 0 1 2879.15 696)">
   <path d="M28.1738-13.9648L76.8066-13.9648C90.8691-13.9648 101.66-24.707 101.66-38.4766C101.66-52.2949 91.1621-63.2324 77.1484-63.2324C72.8516-71.4355 64.8926-78.5156 50.5371-78.5156C34.5215-78.5156 22.4609-67.2852 20.1172-52.832C12.5488-50.0488 6.83594-43.4082 6.83594-34.2773C6.83594-22.7539 15.5762-13.9648 28.1738-13.9648ZM28.6621-26.2695C22.2656-26.2695 19.1406-29.4922 19.1406-34.082C19.1406-38.4277 21.9727-41.3574 27.832-42.8711C30.4688-43.5547 31.1035-44.7266 31.543-47.3633C33.6914-60.2051 41.0645-66.2109 50.5371-66.2109C57.6172-66.2109 63.6719-62.1094 67.9199-54.3457C69.0918-52.1973 70.3125-51.416 72.998-51.416C84.4727-51.416 89.3555-45.7031 89.3555-38.2324C89.3555-31.4453 84.375-26.2695 76.3184-26.2695ZM66.6504-0.0488281L57.373-0.0488281L60.4492-5.9082C60.8887-6.73828 60.5469-7.42188 59.668-7.42188L47.4121-7.42188C46.2891-7.42188 45.8984-7.03125 45.5566-6.20117L39.7461 7.03125C39.3555 7.95898 39.6973 8.59375 40.7227 8.59375L48.1934 8.59375L43.2129 20.6543C42.9688 21.1914 43.1152 21.6309 43.457 21.7773C43.7988 21.9238 44.2383 21.8262 44.6777 21.4355L67.2363 1.95312C68.1641 1.17188 67.8223-0.0488281 66.6504-0.0488281Z"/>
  </g>
  <g id="Heavy-S" transform="matrix(1 0 0 1 2583.27 696)">
   <path d="M27.4414-14.502L75.7812-14.502C89.5508-14.502 100-25 100-38.3301C100-51.8066 89.5996-62.3047 75.7812-62.3047C71.3867-70.8008 63.1836-77.6367 49.6582-77.6367C33.9844-77.6367 21.9238-66.3574 19.8242-52.002C12.4023-49.3652 6.83594-42.8711 6.83594-33.9844C6.83594-22.998 15.0879-14.502 27.4414-14.502ZM27.832-25.5859C21.1426-25.5859 17.9199-29.0039 17.9199-33.7402C17.9199-38.0859 20.6055-41.2109 26.6113-42.7734C29.1504-43.457 29.834-44.6289 30.2246-47.2168C32.0801-59.9121 39.8438-66.5527 49.6582-66.5527C56.9336-66.5527 63.1348-62.4023 67.334-54.4434C68.457-52.3438 69.7266-51.5625 72.3633-51.5625C83.7891-51.5625 88.916-45.6543 88.916-38.0859C88.916-31.0547 83.6426-25.5859 75.5371-25.5859ZM65.332-0.683594L56.2988-0.683594L59.4727-6.73828C59.9121-7.56836 59.5703-8.25195 58.6914-8.25195L47.0703-8.25195C45.9961-8.25195 45.6055-7.86133 45.2637-7.03125L39.5996 5.85938C39.209 6.78711 39.5508 7.42188 40.5762 7.42188L47.9004 7.42188L42.9199 19.5801C42.6758 20.1172 42.8223 20.5566 43.1641 20.7031C43.5059 20.8496 43.8965 20.752 44.3359 20.3613L65.918 1.31836C66.8457 0.537109 66.5039-0.683594 65.332-0.683594Z"/>
  </g>
  <g id="Bold-S" transform="matrix(1 0 0 1 2287.49 696)">
   <path d="M26.6602-15.1367L74.6094-15.1367C88.0371-15.1367 98.1445-25.3418 98.1445-38.1836C98.1445-51.2695 87.8418-61.2793 74.2676-61.2793C69.7266-70.0684 61.2793-76.6113 48.6328-76.6113C33.3496-76.6113 21.2891-65.3809 19.5312-51.0254C12.2559-48.6328 6.83594-42.2363 6.83594-33.6426C6.83594-23.2422 14.5508-15.1367 26.6602-15.1367ZM26.8555-24.8047C19.873-24.8047 16.5039-28.418 16.5039-33.3984C16.5039-37.6953 19.043-41.1133 25.1953-42.7246C27.6855-43.3594 28.418-44.4824 28.7598-47.0215C30.2734-59.6191 38.4766-66.9434 48.6328-66.9434C56.2012-66.9434 62.5488-62.6953 66.6992-54.5898C67.8223-52.4902 69.043-51.7578 71.582-51.7578C83.0566-51.7578 88.4766-45.6055 88.4766-37.9883C88.4766-30.5664 82.8125-24.8047 74.6094-24.8047ZM63.8672-1.36719L55.127-1.36719L58.3984-7.66602C58.8379-8.49609 58.4961-9.13086 57.6172-9.13086L46.7285-9.13086C45.6543-9.13086 45.2637-8.74023 44.9219-7.95898L39.4043 4.54102C39.0137 5.51758 39.3555 6.10352 40.3809 6.10352L47.6074 6.10352L42.5293 18.4082C42.334 18.9453 42.4316 19.3848 42.7734 19.5312C43.1152 19.6777 43.5547 19.5801 43.9941 19.1895L64.4531 0.585938C65.332-0.195312 64.9902-1.36719 63.8672-1.36719Z"/>
  </g>
  <g id="Semibold-S" transform="matrix(1 0 0 1 1991.44 696)">
   <path d="M26.123-15.5273L73.8281-15.5273C87.0117-15.5273 96.8262-25.5371 96.8262-38.0859C96.8262-50.9277 86.6211-60.5469 73.2422-60.5469C68.6035-69.5801 59.9121-75.9277 47.9492-75.9277C32.9102-75.9277 20.8984-64.6484 19.2871-50.3906C12.1582-48.0957 6.83594-41.7969 6.83594-33.3984C6.83594-23.3887 14.209-15.5273 26.123-15.5273ZM26.2207-24.2676C19.043-24.2676 15.5273-28.0273 15.5273-33.1543C15.5273-37.4023 18.0176-41.0156 24.2676-42.6758C26.6602-43.3105 27.4414-44.3848 27.7344-46.9238C29.0039-59.4238 37.5488-67.1875 47.9492-67.1875C55.7129-67.1875 62.1094-62.8906 66.2598-54.6875C67.334-52.6367 68.5547-51.9043 71.0938-51.9043C82.5195-51.9043 88.1348-45.5566 88.1348-37.8906C88.1348-30.2734 82.2266-24.2676 74.0234-24.2676ZM62.8418-1.85547L54.2969-1.85547L57.6172-8.30078C58.0566-9.13086 57.7148-9.76562 56.8848-9.76562L46.4844-9.76562C45.4102-9.76562 45.0195-9.375 44.6777-8.59375L39.3066 3.66211C38.916 4.58984 39.2578 5.17578 40.2832 5.17578L47.4121 5.17578L42.2852 17.627C42.0898 18.1152 42.1875 18.5547 42.5293 18.7012C42.8711 18.8477 43.3105 18.75 43.75 18.3594L63.4277 0.0976562C64.3066-0.683594 64.0137-1.85547 62.8418-1.85547Z"/>
  </g>
  <g id="Medium-S" transform="matrix(1 0 0 1 1695.21 696)">
   <path d="M25.6836-15.8691L73.2422-15.8691C86.2305-15.8691 95.8496-25.7324 95.8496-37.9883C95.8496-50.6348 85.7422-60.0098 72.4609-60.0098C67.7734-69.1895 58.9355-75.3906 47.4121-75.3906C32.6172-75.3906 20.5566-64.1113 19.1406-49.8535C12.1094-47.7051 6.83594-41.5039 6.83594-33.2031C6.83594-23.5352 13.916-15.8691 25.6836-15.8691ZM25.6836-23.8281C18.3594-23.8281 14.8438-27.7344 14.8438-32.959C14.8438-37.207 17.1875-40.918 23.5352-42.627C25.8789-43.2617 26.709-44.3359 26.9531-46.8262C28.0762-59.2773 36.8164-67.4316 47.4121-67.4316C55.3223-67.4316 61.8164-63.0859 65.918-54.7852C66.9922-52.6855 68.2129-52.002 70.7031-52.002C82.1289-52.002 87.8906-45.5078 87.8906-37.793C87.8906-30.0293 81.8359-23.8281 73.5352-23.8281ZM62.1094-2.19727L53.6621-2.19727L57.0801-8.78906C57.5195-9.61914 57.1777-10.2539 56.2988-10.2539L46.2891-10.2539C45.2148-10.2539 44.8242-9.86328 44.4824-9.08203L39.209 2.97852C38.8184 3.90625 39.1602 4.49219 40.1855 4.49219L47.2656 4.49219L42.1387 16.9922C41.8945 17.4805 42.041 17.9199 42.3828 18.0664C42.7246 18.2129 43.1152 18.1152 43.5547 17.7246L62.6465-0.244141C63.5254-1.07422 63.2324-2.19727 62.1094-2.19727Z"/>
  </g>
  <g id="Regular-S" transform="matrix(1 0 0 1 1399.14 696)">
   <path d="M25.1465-16.2598L72.4609-16.2598C85.2051-16.2598 94.5801-25.9277 94.5801-37.8906C94.5801-50.293 84.5215-59.3262 71.4355-59.3262C66.6504-68.7012 57.6172-74.707 46.7285-74.707C32.1777-74.707 20.166-63.4277 18.8965-49.2188C12.0117-47.168 6.83594-41.0645 6.83594-32.959C6.83594-23.6816 13.5254-16.2598 25.1465-16.2598ZM25.0488-23.291C17.5293-23.291 13.8672-27.3438 13.8672-32.7148C13.8672-36.9141 16.1621-40.8203 22.5586-42.5293C24.9023-43.1641 25.7324-44.2383 25.9277-46.7285C26.8555-59.0332 35.8887-67.6758 46.7285-67.6758C54.7852-67.6758 61.4258-63.2812 65.5273-54.834C66.5039-52.832 67.7246-52.0996 70.2148-52.0996C81.5918-52.0996 87.5488-45.5078 87.5488-37.6953C87.5488-29.6875 81.25-23.291 72.9004-23.291ZM61.084-2.68555L52.832-2.68555L56.2988-9.42383C56.7383-10.2539 56.3965-10.8887 55.5664-10.8887L46.0449-10.8887C44.9707-10.8887 44.5801-10.498 44.2383-9.7168L39.0625 2.09961C38.6719 3.02734 39.0137 3.61328 40.0391 3.61328L47.0703 3.61328L41.8945 16.2109C41.6992 16.6992 41.7969 17.1387 42.1387 17.2852C42.4805 17.4316 42.8711 17.334 43.3105 16.9434L61.6211-0.732422C62.5-1.5625 62.207-2.68555 61.084-2.68555Z"/>
  </g>
  <g id="Light-S" transform="matrix(1 0 0 1 1102.79 696)">
   <path d="M24.5605-17.1387L72.168-17.1387C84.5703-17.1387 93.8477-26.5137 93.8477-38.1836C93.8477-50.2441 83.9844-59.0332 71.1426-59.0332C66.3574-68.5547 57.6172-74.707 46.4355-74.707C32.1777-74.707 20.4102-63.4277 19.1895-49.2188C12.207-47.2168 6.83594-41.3086 6.83594-33.252C6.83594-24.3652 13.3301-17.1387 24.5605-17.1387ZM24.5117-22.5586C16.4062-22.5586 12.207-27.1973 12.207-33.1055C12.207-38.0371 15.2344-42.334 21.8262-44.0918C23.7305-44.5801 24.4629-45.459 24.6094-47.4121C25.4395-60.0098 35.1074-69.3359 46.4355-69.3359C55.4688-69.3359 62.4023-64.3066 66.5039-55.8105C67.334-54.1016 68.3594-53.5156 70.459-53.5156C81.6895-53.5156 88.4766-46.5332 88.4766-38.0371C88.4766-29.4434 81.543-22.5586 72.4609-22.5586ZM58.5938-2.44141L51.0742-2.44141L55.0781-10.1074C55.5176-10.9375 55.1758-11.6211 54.2969-11.6211L47.0215-11.6211C45.9473-11.6211 45.5566-11.2305 45.2148-10.4004L39.9414 1.51367C39.5508 2.49023 39.9902 3.07617 40.9668 3.07617L47.3145 3.07617L42.041 15.8203C41.8457 16.3574 41.9434 16.7969 42.334 16.9434C42.6758 17.0898 43.1152 16.9434 43.5059 16.5039L59.2285-0.537109C60.0098-1.41602 59.668-2.44141 58.5938-2.44141Z"/>
  </g>
  <g id="Thin-S" transform="matrix(1 0 0 1 806.544 696)">
   <path d="M23.7793-18.3105L71.7773-18.3105C83.7402-18.3105 92.9199-27.3438 92.9199-38.623C92.9199-50.1465 83.252-58.6426 70.752-58.6426C65.9668-68.4082 57.6172-74.707 46.0449-74.707C32.1777-74.707 20.752-63.4277 19.5801-49.2188C12.4512-47.3145 6.83594-41.6504 6.83594-33.6426C6.83594-25.2441 13.0859-18.3105 23.7793-18.3105ZM23.7793-21.5332C14.8926-21.5332 10.0586-26.9531 10.0586-33.5938C10.0586-39.5508 14.0137-44.2871 20.8008-46.0938C22.2656-46.4844 22.7051-47.0703 22.8027-48.3887C23.584-61.2793 34.082-71.4844 46.0449-71.4844C56.2988-71.4844 63.6719-65.7227 67.8223-57.0801C68.457-55.8105 69.1895-55.3711 70.752-55.3711C81.8359-55.3711 89.6484-47.8516 89.6484-38.4766C89.6484-29.1504 81.8848-21.5332 71.9238-21.5332ZM55.2734-2.09961L48.7305-2.09961L53.418-11.084C53.8574-11.9141 53.5156-12.5488 52.6367-12.5488L48.291-12.5488C47.168-12.5488 46.7773-12.1582 46.4355-11.377L41.1133 0.78125C40.6738 1.75781 41.2598 2.34375 42.1875 2.34375L47.6074 2.34375L42.2852 15.332C42.041 15.8691 42.1875 16.3086 42.5781 16.4551C42.9199 16.6016 43.4082 16.4551 43.75 15.9668L56.0547-0.292969C56.7383-1.17188 56.3477-2.09961 55.2734-2.09961Z"/>
  </g>
  <g id="Ultralight-S" transform="matrix(1 0 0 1 510.102 696)">
   <path d="M23.3887-18.8965L71.582-18.8965C83.3008-18.8965 92.3828-27.7344 92.3828-38.8184C92.3828-50.0977 82.9102-58.4473 70.5566-58.4473C65.7715-68.3105 57.6172-74.707 45.8496-74.707C32.1777-74.707 20.9473-63.4277 19.7754-49.2188C12.5977-47.3633 6.83594-41.7969 6.83594-33.8379C6.83594-25.6836 12.9395-18.8965 23.3887-18.8965ZM23.3887-20.9961C14.1602-20.9961 8.93555-26.8555 8.93555-33.8379C8.93555-40.2832 13.3789-45.3125 20.2637-47.1191C21.4844-47.4121 21.8262-47.9004 21.875-48.877C22.6074-61.9141 33.5449-72.6074 45.8496-72.6074C56.7383-72.6074 64.3555-66.4551 68.5059-57.7637C68.9941-56.6895 69.6289-56.3477 70.8984-56.3477C81.9336-56.3477 90.2832-48.584 90.2832-38.7207C90.2832-29.0039 82.0801-20.9961 71.582-20.9961ZM53.5645-1.95312L47.5098-1.95312L52.5391-11.5723C52.9785-12.4023 52.6367-13.0859 51.7578-13.0859L48.9258-13.0859C47.8027-13.0859 47.4121-12.6953 47.0703-11.8652L41.6992 0.390625C41.2598 1.41602 41.8945 1.95312 42.8223 1.95312L47.8027 1.95312L42.3828 15.0391C42.1387 15.625 42.2852 16.0645 42.6758 16.2109C43.0664 16.3574 43.5547 16.2109 43.8965 15.6738L54.4434-0.195312C55.0293-1.07422 54.6387-1.95312 53.5645-1.95312Z"/>
  </g>
 </g>
</svg>
