<?xml version="1.0" encoding="UTF-8"?>
<!--Generator: Apple Native CoreSVG 149-->
<!DOCTYPE svg
PUBLIC "-//W3C//DTD SVG 1.1//EN"
       "http://www.w3.org/Graphics/SVG/1.1/DTD/svg11.dtd">
<svg version="1.1" xmlns="http://www.w3.org/2000/svg" xmlns:xlink="http://www.w3.org/1999/xlink" width="3300" height="2200">
 <!--glyph: "uni100489.medium", point size: 100.000000, font version: "Version 16.0d12e3", template writer version: "8"-->
 <g id="Notes">
  <rect height="2200" id="artboard" style="fill:white;opacity:1" width="3300" x="0" y="0"/>
  <line id="" style="fill:none;stroke:black;opacity:1;stroke-width:0.5;" x1="263" x2="3036" y1="292" y2="292"/>
  <text style="stroke:none;fill:black;font-family:-apple-system,&quot;SF Pro Display&quot;,&quot;SF Pro Text&quot;,Helvetica,sans-serif;font-weight:bold;" transform="matrix(1 0 0 1 263 322)">Weight/Scale Variations</text>
  <text style="stroke:none;fill:black;font-family:-apple-system,&quot;SF Pro Display&quot;,&quot;SF Pro Text&quot;,Helvetica,sans-serif;text-anchor:middle;" transform="matrix(1 0 0 1 559.711 322)">Ultralight</text>
  <text style="stroke:none;fill:black;font-family:-apple-system,&quot;SF Pro Display&quot;,&quot;SF Pro Text&quot;,Helvetica,sans-serif;text-anchor:middle;" transform="matrix(1 0 0 1 856.422 322)">Thin</text>
  <text style="stroke:none;fill:black;font-family:-apple-system,&quot;SF Pro Display&quot;,&quot;SF Pro Text&quot;,Helvetica,sans-serif;text-anchor:middle;" transform="matrix(1 0 0 1 1153.13 322)">Light</text>
  <text style="stroke:none;fill:black;font-family:-apple-system,&quot;SF Pro Display&quot;,&quot;SF Pro Text&quot;,Helvetica,sans-serif;text-anchor:middle;" transform="matrix(1 0 0 1 1449.84 322)">Regular</text>
  <text style="stroke:none;fill:black;font-family:-apple-system,&quot;SF Pro Display&quot;,&quot;SF Pro Text&quot;,Helvetica,sans-serif;text-anchor:middle;" transform="matrix(1 0 0 1 1746.56 322)">Medium</text>
  <text style="stroke:none;fill:black;font-family:-apple-system,&quot;SF Pro Display&quot;,&quot;SF Pro Text&quot;,Helvetica,sans-serif;text-anchor:middle;" transform="matrix(1 0 0 1 2043.27 322)">Semibold</text>
  <text style="stroke:none;fill:black;font-family:-apple-system,&quot;SF Pro Display&quot;,&quot;SF Pro Text&quot;,Helvetica,sans-serif;text-anchor:middle;" transform="matrix(1 0 0 1 2339.98 322)">Bold</text>
  <text style="stroke:none;fill:black;font-family:-apple-system,&quot;SF Pro Display&quot;,&quot;SF Pro Text&quot;,Helvetica,sans-serif;text-anchor:middle;" transform="matrix(1 0 0 1 2636.69 322)">Heavy</text>
  <text style="stroke:none;fill:black;font-family:-apple-system,&quot;SF Pro Display&quot;,&quot;SF Pro Text&quot;,Helvetica,sans-serif;text-anchor:middle;" transform="matrix(1 0 0 1 2933.4 322)">Black</text>
  <line id="" style="fill:none;stroke:black;opacity:1;stroke-width:0.5;" x1="263" x2="3036" y1="1903" y2="1903"/>
  <g id="" transform="matrix(1 0 0 1 263 1933)">
   <path d="M9.24805 0.830078C13.5547 0.830078 17.1387-2.74414 17.1387-7.05078C17.1387-11.3574 13.5449-14.9316 9.23828-14.9316C4.94141-14.9316 1.36719-11.3574 1.36719-7.05078C1.36719-2.74414 4.95117 0.830078 9.24805 0.830078ZM9.24805-0.654297C5.70312-0.654297 2.87109-3.49609 2.87109-7.05078C2.87109-10.6055 5.69336-13.4473 9.23828-13.4473C12.793-13.4473 15.6348-10.6055 15.6445-7.05078C15.6543-3.49609 12.8027-0.654297 9.24805-0.654297ZM9.22852-3.62305C9.69727-3.62305 9.9707-3.93555 9.9707-4.45312L9.9707-6.31836L12.002-6.31836C12.5-6.31836 12.832-6.57227 12.832-7.04102C12.832-7.51953 12.5195-7.7832 12.002-7.7832L9.9707-7.7832L9.9707-9.81445C9.9707-10.332 9.69727-10.6543 9.22852-10.6543C8.75977-10.6543 8.50586-10.3125 8.50586-9.81445L8.50586-7.7832L6.49414-7.7832C5.97656-7.7832 5.64453-7.51953 5.64453-7.04102C5.64453-6.57227 5.99609-6.31836 6.49414-6.31836L8.50586-6.31836L8.50586-4.45312C8.50586-3.95508 8.75977-3.62305 9.22852-3.62305Z"/>
  </g>
  <g id="" transform="matrix(1 0 0 1 281.506 1933)">
   <path d="M11.709 2.91016C17.1582 2.91016 21.6699-1.61133 21.6699-7.05078C21.6699-12.5 17.1484-17.0117 11.6992-17.0117C6.25977-17.0117 1.74805-12.5 1.74805-7.05078C1.74805-1.61133 6.26953 2.91016 11.709 2.91016ZM11.709 1.25C7.09961 1.25 3.41797-2.44141 3.41797-7.05078C3.41797-11.6602 7.08984-15.3516 11.6992-15.3516C16.3086-15.3516 20-11.6602 20.0098-7.05078C20.0195-2.44141 16.3184 1.25 11.709 1.25ZM11.6797-2.66602C12.207-2.66602 12.5098-3.01758 12.5098-3.59375L12.5098-6.23047L15.3223-6.23047C15.8691-6.23047 16.25-6.51367 16.25-7.03125C16.25-7.55859 15.8887-7.86133 15.3223-7.86133L12.5098-7.86133L12.5098-10.6836C12.5098-11.25 12.207-11.6113 11.6797-11.6113C11.1621-11.6113 10.8789-11.2305 10.8789-10.6836L10.8789-7.86133L8.07617-7.86133C7.50977-7.86133 7.13867-7.55859 7.13867-7.03125C7.13867-6.51367 7.5293-6.23047 8.07617-6.23047L10.8789-6.23047L10.8789-3.59375C10.8789-3.03711 11.1621-2.66602 11.6797-2.66602Z"/>
  </g>
  <g id="" transform="matrix(1 0 0 1 304.924 1933)">
   <path d="M14.9707 5.66406C21.9336 5.66406 27.6953-0.0976562 27.6953-7.05078C27.6953-14.0137 21.9238-19.7754 14.9609-19.7754C8.00781-19.7754 2.25586-14.0137 2.25586-7.05078C2.25586-0.0976562 8.01758 5.66406 14.9707 5.66406ZM14.9707 3.84766C8.93555 3.84766 4.08203-1.01562 4.08203-7.05078C4.08203-13.0957 8.92578-17.9492 14.9609-17.9492C21.0059-17.9492 25.8594-13.0957 25.8691-7.05078C25.8789-1.01562 21.0156 3.84766 14.9707 3.84766ZM14.9414-1.38672C15.5176-1.38672 15.8594-1.77734 15.8594-2.38281L15.8594-6.13281L19.7754-6.13281C20.3711-6.13281 20.7812-6.46484 20.7812-7.02148C20.7812-7.59766 20.3906-7.93945 19.7754-7.93945L15.8594-7.93945L15.8594-11.8652C15.8594-12.4805 15.5176-12.8711 14.9414-12.8711C14.375-12.8711 14.0527-12.4609 14.0527-11.8652L14.0527-7.93945L10.1465-7.93945C9.53125-7.93945 9.13086-7.59766 9.13086-7.02148C9.13086-6.46484 9.55078-6.13281 10.1465-6.13281L14.0527-6.13281L14.0527-2.38281C14.0527-1.79688 14.375-1.38672 14.9414-1.38672Z"/>
  </g>
  <text style="stroke:none;fill:black;font-family:-apple-system,&quot;SF Pro Display&quot;,&quot;SF Pro Text&quot;,Helvetica,sans-serif;font-weight:bold;" transform="matrix(1 0 0 1 263 1953)">Design Variations</text>
  <text style="stroke:none;fill:black;font-family:-apple-system,&quot;SF Pro Display&quot;,&quot;SF Pro Text&quot;,Helvetica,sans-serif;" transform="matrix(1 0 0 1 263 1971)">Symbols are supported in up to nine weights and three scales.</text>
  <text style="stroke:none;fill:black;font-family:-apple-system,&quot;SF Pro Display&quot;,&quot;SF Pro Text&quot;,Helvetica,sans-serif;" transform="matrix(1 0 0 1 263 1989)">For optimal layout with text and other symbols, vertically align</text>
  <text style="stroke:none;fill:black;font-family:-apple-system,&quot;SF Pro Display&quot;,&quot;SF Pro Text&quot;,Helvetica,sans-serif;" transform="matrix(1 0 0 1 263 2007)">symbols with the adjacent text.</text>
  <line id="" style="fill:none;stroke:#00AEEF;stroke-width:0.5;opacity:1.0;" x1="776" x2="776" y1="1919" y2="1933"/>
  <g id="" transform="matrix(1 0 0 1 776 1933)">
   <path d="M3.31055 0.126953C3.82812 0.126953 4.08203-0.0683594 4.26758-0.605469L5.52734-4.0625L11.2891-4.0625L12.5488-0.605469C12.7344-0.0683594 12.9883 0.126953 13.4961 0.126953C14.0137 0.126953 14.3457-0.185547 14.3457-0.673828C14.3457-0.839844 14.3164-0.986328 14.2383-1.20117L9.6582-13.3887C9.43359-13.9941 9.0332-14.2871 8.4082-14.2871C7.80273-14.2871 7.39258-13.9941 7.17773-13.3984L2.59766-1.19141C2.51953-0.976562 2.49023-0.830078 2.49023-0.664062C2.49023-0.175781 2.80273 0.126953 3.31055 0.126953ZM6.00586-5.53711L8.37891-12.1094L8.42773-12.1094L10.8008-5.53711Z"/>
  </g>
  <line id="" style="fill:none;stroke:#00AEEF;stroke-width:0.5;opacity:1.0;" x1="792.836" x2="792.836" y1="1919" y2="1933"/>
  <text style="stroke:none;fill:black;font-family:-apple-system,&quot;SF Pro Display&quot;,&quot;SF Pro Text&quot;,Helvetica,sans-serif;font-weight:bold;" transform="matrix(1 0 0 1 776 1953)">Margins</text>
  <text style="stroke:none;fill:black;font-family:-apple-system,&quot;SF Pro Display&quot;,&quot;SF Pro Text&quot;,Helvetica,sans-serif;" transform="matrix(1 0 0 1 776 1971)">Leading and trailing margins on the left and right side of each symbol</text>
  <text style="stroke:none;fill:black;font-family:-apple-system,&quot;SF Pro Display&quot;,&quot;SF Pro Text&quot;,Helvetica,sans-serif;" transform="matrix(1 0 0 1 776 1989)">can be adjusted by modifying the x-location of the margin guidelines.</text>
  <text style="stroke:none;fill:black;font-family:-apple-system,&quot;SF Pro Display&quot;,&quot;SF Pro Text&quot;,Helvetica,sans-serif;" transform="matrix(1 0 0 1 776 2007)">Modifications are automatically applied proportionally to all</text>
  <text style="stroke:none;fill:black;font-family:-apple-system,&quot;SF Pro Display&quot;,&quot;SF Pro Text&quot;,Helvetica,sans-serif;" transform="matrix(1 0 0 1 776 2025)">scales and weights.</text>
  <g id="" transform="matrix(1 0 0 1 1289 1933)">
   <path d="M2.8418 1.86523L4.54102 3.57422C5.40039 4.44336 6.38672 4.38477 7.31445 3.35938L17.4902-7.85156C17.7539-7.76367 18.0273-7.7832 18.3398-7.8418L19.4043-8.03711L20.0684-7.36328L20.0293-6.80664C19.9902-6.30859 20.1172-5.92773 20.6055-5.44922L21.3672-4.70703C21.8457-4.22852 22.4609-4.19922 22.9297-4.66797L25.8398-7.58789C26.3086-8.05664 26.2891-8.65234 25.8105-9.13086L25.0391-9.89258C24.5605-10.3711 24.1895-10.5273 23.7109-10.4883L23.1348-10.4395L22.4902-11.0742L22.7344-12.1973C22.8613-12.7637 22.7051-13.2031 22.1191-13.7891L19.9219-15.9766C16.582-19.2969 12.1484-19.2188 9.25781-16.3281C8.83789-15.918 8.80859-15.3418 9.04297-14.9512C9.27734-14.5898 9.73633-14.3555 10.3809-14.5215C11.8457-14.8633 13.3691-14.9219 14.7949-13.9844L14.209-12.5293C14.0137-12.0508 13.9844-11.6504 14.1113-11.2891L3.04688-0.898438C2.06055 0.0195312 1.98242 0.996094 2.8418 1.86523ZM10.752-15.957C13.1836-17.7344 16.4746-17.4316 18.7012-15.2051L21.1328-12.793C21.3672-12.5586 21.4062-12.373 21.3379-12.0312L21.0156-10.5469L22.5195-9.0625L23.5059-9.12109C23.7598-9.13086 23.8379-9.11133 24.0332-8.91602L24.6094-8.33984L22.168-5.89844L21.5918-6.47461C21.3965-6.66992 21.3672-6.74805 21.377-7.01172L21.4453-7.98828L19.9512-9.47266L18.4277-9.21875C18.1055-9.15039 17.959-9.17969 17.7148-9.41406L15.7129-11.416C15.459-11.6504 15.4297-11.8164 15.5859-12.1875L16.4648-14.2773C14.9023-15.7324 12.8711-16.3574 10.8398-15.7617C10.6836-15.7227 10.625-15.8496 10.752-15.957ZM5.27344 2.30469L4.10156 1.14258C3.63281 0.683594 3.74023 0.341797 4.14062-0.0195312L14.9512-10.1953L16.416-8.71094L6.42578 2.27539C6.07422 2.67578 5.74219 2.77344 5.27344 2.30469Z"/>
  </g>
  <text style="stroke:none;fill:black;font-family:-apple-system,&quot;SF Pro Display&quot;,&quot;SF Pro Text&quot;,Helvetica,sans-serif;font-weight:bold;" transform="matrix(1 0 0 1 1289 1953)">Exporting</text>
  <text style="stroke:none;fill:black;font-family:-apple-system,&quot;SF Pro Display&quot;,&quot;SF Pro Text&quot;,Helvetica,sans-serif;" transform="matrix(1 0 0 1 1289 1971)">Symbols should be outlined when exporting to ensure the</text>
  <text style="stroke:none;fill:black;font-family:-apple-system,&quot;SF Pro Display&quot;,&quot;SF Pro Text&quot;,Helvetica,sans-serif;" transform="matrix(1 0 0 1 1289 1989)">design is preserved when submitting to Xcode.</text>
  <text id="template-version" style="stroke:none;fill:black;font-family:-apple-system,&quot;SF Pro Display&quot;,&quot;SF Pro Text&quot;,Helvetica,sans-serif;text-anchor:end;" transform="matrix(1 0 0 1 3036 1933)">Template v.2.0</text>
  <text style="stroke:none;fill:black;font-family:-apple-system,&quot;SF Pro Display&quot;,&quot;SF Pro Text&quot;,Helvetica,sans-serif;text-anchor:end;" transform="matrix(1 0 0 1 3036 1951)">Requires Xcode 12 or greater</text>
  <text style="stroke:none;fill:black;font-family:-apple-system,&quot;SF Pro Display&quot;,&quot;SF Pro Text&quot;,Helvetica,sans-serif;text-anchor:end;" transform="matrix(1 0 0 1 3036 1969)">Generated from xmark.octagon</text>
  <text style="stroke:none;fill:black;font-family:-apple-system,&quot;SF Pro Display&quot;,&quot;SF Pro Text&quot;,Helvetica,sans-serif;text-anchor:end;" transform="matrix(1 0 0 1 3036 1987)">Typeset at 100 points</text>
  <text style="stroke:none;fill:black;font-family:-apple-system,&quot;SF Pro Display&quot;,&quot;SF Pro Text&quot;,Helvetica,sans-serif;" transform="matrix(1 0 0 1 263 726)">Small</text>
  <text style="stroke:none;fill:black;font-family:-apple-system,&quot;SF Pro Display&quot;,&quot;SF Pro Text&quot;,Helvetica,sans-serif;" transform="matrix(1 0 0 1 263 1156)">Medium</text>
  <text style="stroke:none;fill:black;font-family:-apple-system,&quot;SF Pro Display&quot;,&quot;SF Pro Text&quot;,Helvetica,sans-serif;" transform="matrix(1 0 0 1 263 1586)">Large</text>
 </g>
 <g id="Guides">
  <g id="H-reference" style="fill:#27AAE1;stroke:none;" transform="matrix(1 0 0 1 339 696)">
   <path d="M0.976562 0L3.66211 0L12.9883-24.4629L45.752-24.4629L55.127 0L57.7637 0L30.6152-70.459L28.125-70.459ZM29.3457-67.1387L29.4434-67.1387L44.873-26.709L13.8672-26.709Z"/>
  </g>
  <line id="Baseline-S" style="fill:none;stroke:#27AAE1;opacity:1;stroke-width:0.5;" x1="263" x2="3036" y1="696" y2="696"/>
  <line id="Capline-S" style="fill:none;stroke:#27AAE1;opacity:1;stroke-width:0.5;" x1="263" x2="3036" y1="625.541" y2="625.541"/>
  <g id="H-reference" style="fill:#27AAE1;stroke:none;" transform="matrix(1 0 0 1 339 1126)">
   <path d="M0.976562 0L3.66211 0L12.9883-24.4629L45.752-24.4629L55.127 0L57.7637 0L30.6152-70.459L28.125-70.459ZM29.3457-67.1387L29.4434-67.1387L44.873-26.709L13.8672-26.709Z"/>
  </g>
  <line id="Baseline-M" style="fill:none;stroke:#27AAE1;opacity:1;stroke-width:0.5;" x1="263" x2="3036" y1="1126" y2="1126"/>
  <line id="Capline-M" style="fill:none;stroke:#27AAE1;opacity:1;stroke-width:0.5;" x1="263" x2="3036" y1="1055.54" y2="1055.54"/>
  <g id="H-reference" style="fill:#27AAE1;stroke:none;" transform="matrix(1 0 0 1 339 1556)">
   <path d="M0.976562 0L3.66211 0L12.9883-24.4629L45.752-24.4629L55.127 0L57.7637 0L30.6152-70.459L28.125-70.459ZM29.3457-67.1387L29.4434-67.1387L44.873-26.709L13.8672-26.709Z"/>
  </g>
  <line id="Baseline-L" style="fill:none;stroke:#27AAE1;opacity:1;stroke-width:0.5;" x1="263" x2="3036" y1="1556" y2="1556"/>
  <line id="Capline-L" style="fill:none;stroke:#27AAE1;opacity:1;stroke-width:0.5;" x1="263" x2="3036" y1="1485.54" y2="1485.54"/>
  <line id="left-margin" style="fill:none;stroke:#00AEEF;stroke-width:0.5;opacity:1.0;" x1="1388.2" x2="1388.2" y1="1030.79" y2="1150.12"/>
  <line id="right-margin" style="fill:none;stroke:#00AEEF;stroke-width:0.5;opacity:1.0;" x1="1511.49" x2="1511.49" y1="1030.79" y2="1150.12"/>
 </g>
 <g id="Symbols">
  <g id="Black-L" transform="matrix(1 0 0 1 2848.68 1556)">
   <path d="M64.7461 29.1992L104.688 29.1992C113.184 29.1992 119.629 26.0742 124.609 20.2637L146.924-5.85938C152.002-11.8652 153.369-15.5762 153.369-23.4863L153.369-46.8262C153.369-54.7852 152.002-58.4961 146.924-64.502L124.609-90.5762C119.629-96.4355 113.184-99.5605 104.688-99.5605L64.7461-99.5605C56.25-99.5605 49.8047-96.4355 44.8242-90.5762L22.5098-64.502C17.4316-58.4961 16.0645-54.7852 16.0645-46.8262L16.0645-23.4863C16.0645-15.5762 17.4316-11.8652 22.5098-5.85938L44.8242 20.2637C49.8047 26.0742 56.25 29.1992 64.7461 29.1992ZM66.7969 9.57031C62.0117 9.57031 59.6191 8.1543 57.0801 5.22461L39.7949-14.6973C37.4023-17.4805 36.7676-19.6289 36.7676-24.3164L36.7676-45.9961C36.7676-50.6836 37.4023-52.832 39.7949-55.6152L57.0801-75.5859C59.6191-78.5156 62.0117-79.9316 66.7969-79.9316L102.637-79.9316C107.471-79.9316 109.814-78.5156 112.354-75.5859L129.639-55.6152C132.031-52.832 132.666-50.6836 132.666-45.9961L132.666-24.3164C132.666-19.6289 132.031-17.4805 129.639-14.6973L112.354 5.22461C109.814 8.1543 107.471 9.57031 102.637 9.57031ZM66.748-9.17969C69.1406-9.17969 71.0938-9.91211 72.6562-11.5234L84.7656-23.584L96.9238-11.5234C98.4863-9.96094 100.439-9.17969 102.881-9.17969C107.373-9.17969 110.889-12.6465 110.889-17.2363C110.889-19.2871 110.01-21.2402 108.447-22.7539L96.2402-35.0586L108.496-47.3633C110.01-48.9258 110.889-50.8301 110.889-52.8809C110.889-57.4219 107.422-60.9375 102.881-60.9375C100.488-60.9375 98.6328-60.1562 97.0215-58.5449L84.7656-46.4355L72.6074-58.5449C71.0449-60.1562 69.1406-60.8887 66.748-60.8887C62.207-60.8887 58.7402-57.4219 58.7402-52.832C58.7402-50.8301 59.6191-48.8281 61.1328-47.3633L73.4375-35.0586L61.1328-22.7539C59.6191-21.2402 58.7402-19.2383 58.7402-17.2363C58.7402-12.6465 62.207-9.17969 66.748-9.17969Z"/>
  </g>
  <g id="Heavy-L" transform="matrix(1 0 0 1 2553.36 1556)">
   <path d="M63.7207 28.3691L102.93 28.3691C111.475 28.3691 117.236 25.293 122.07 19.7266L144.482-6.10352C149.316-11.7188 150.586-15.2344 150.586-22.7539L150.586-47.5098C150.586-55.0293 149.316-58.5449 144.482-64.209L122.07-90.0391C117.236-95.6055 111.475-98.6328 102.93-98.6328L63.7207-98.6328C55.2246-98.6328 49.4141-95.6055 44.6289-90.0391L22.168-64.209C17.334-58.5449 16.0645-55.0293 16.0645-47.5098L16.0645-22.7539C16.0645-15.2344 17.334-11.7188 22.168-6.10352L44.6289 19.7266C49.4141 25.293 55.2246 28.3691 63.7207 28.3691ZM65.918 11.3281C60.6445 11.3281 58.3984 9.86328 55.5176 6.64062L37.2559-14.1113C34.8145-16.8945 34.2285-18.9453 34.2285-23.6328L34.2285-46.6797C34.2285-51.3672 34.8145-53.3691 37.2559-56.1523L55.5176-76.9043C58.3984-80.1758 60.6445-81.5918 65.918-81.5918L100.732-81.5918C106.055-81.5918 108.301-80.1758 111.182-76.9043L129.395-56.1523C131.836-53.3691 132.471-51.3672 132.471-46.6797L132.471-23.6328C132.471-18.9453 131.836-16.8945 129.395-14.1113L111.182 6.64062C108.301 9.86328 106.055 11.3281 100.732 11.3281ZM64.4531-9.08203C66.6016-9.08203 68.3105-9.76562 69.7266-11.2305L83.3496-24.8535L97.0703-11.2305C98.4863-9.81445 100.195-9.08203 102.344-9.08203C106.396-9.08203 109.521-12.207 109.521-16.2598C109.521-18.1152 108.74-19.873 107.324-21.2402L93.6035-35.0098L107.373-48.877C108.789-50.293 109.521-52.002 109.521-53.8086C109.521-57.8613 106.396-60.9863 102.393-60.9863C100.293-60.9863 98.6328-60.3027 97.168-58.8379L83.3496-45.166L69.6777-58.8379C68.2617-60.2539 66.6016-60.9375 64.4531-60.9375C60.4004-60.9375 57.3242-57.8613 57.3242-53.7598C57.3242-51.9531 58.1055-50.1953 59.4727-48.8281L73.2422-35.0098L59.4727-21.1914C58.1055-19.873 57.3242-18.1152 57.3242-16.2598C57.3242-12.207 60.4004-9.08203 64.4531-9.08203Z"/>
  </g>
  <g id="Bold-L" transform="matrix(1 0 0 1 2258.19 1556)">
   <path d="M62.5977 27.3926L100.977 27.3926C109.57 27.3926 114.551 24.4141 119.238 19.1406L141.748-6.34766C146.289-11.5723 147.51-14.8438 147.51-21.9238L147.51-48.291C147.51-55.3711 146.289-58.6426 141.748-63.8672L119.238-89.3555C114.551-94.6289 109.57-97.6074 100.977-97.6074L62.5977-97.6074C54.0039-97.6074 49.0234-94.6289 44.3359-89.3555L21.8262-63.8672C17.2363-58.6426 16.0645-55.3711 16.0645-48.291L16.0645-21.9238C16.0645-14.8438 17.2363-11.5723 21.8262-6.34766L44.3359 19.1406C49.0234 24.4141 54.0039 27.3926 62.5977 27.3926ZM64.9902 13.2812C59.082 13.2812 56.9824 11.7676 53.7598 8.20312L34.4238-13.4277C31.9336-16.2109 31.3477-18.1152 31.3477-22.8027L31.3477-47.4121C31.3477-52.0996 31.9336-54.0039 34.4238-56.7871L53.7598-78.418C56.9824-82.0312 59.082-83.4961 64.9902-83.4961L98.584-83.4961C104.492-83.4961 106.592-82.0312 109.814-78.418L129.15-56.7871C131.641-54.0039 132.227-52.0996 132.227-47.4121L132.227-22.8027C132.227-18.1152 131.641-16.2109 129.15-13.4277L109.814 8.20312C106.592 11.7676 104.492 13.2812 98.584 13.2812ZM61.9141-8.98438C63.7207-8.98438 65.2344-9.61914 66.4551-10.8398L81.8359-26.2207L97.2656-10.8398C98.4863-9.61914 99.9512-8.98438 101.807-8.98438C105.273-8.98438 107.959-11.7188 107.959-15.2344C107.959-16.8457 107.324-18.3105 106.104-19.5312L90.6738-35.0098L106.152-50.5859C107.373-51.8066 108.008-53.2715 108.008-54.8828C108.008-58.3496 105.322-61.0352 101.807-61.0352C100.049-61.0352 98.6328-60.4492 97.3633-59.1797L81.8359-43.75L66.4062-59.1309C65.1855-60.4004 63.7207-60.9863 61.9141-60.9863C58.4473-60.9863 55.7129-58.3008 55.7129-54.834C55.7129-53.2227 56.3965-51.709 57.6172-50.5371L73.0957-35.0098L57.6172-19.4824C56.3965-18.3105 55.7129-16.8457 55.7129-15.2344C55.7129-11.7188 58.4473-8.98438 61.9141-8.98438Z"/>
  </g>
  <g id="Semibold-L" transform="matrix(1 0 0 1 1962.55 1556)">
   <path d="M61.8164 26.7578L99.6094 26.7578C108.203 26.7578 112.744 23.7793 117.236 18.75L139.893-6.54297C144.238-11.4746 145.361-14.5996 145.361-21.3379L145.361-48.8281C145.361-55.5664 144.238-58.6914 139.893-63.623L117.236-88.916C112.744-93.9941 108.203-96.9238 99.6094-96.9238L61.8164-96.9238C53.2227-96.9238 48.6816-93.9941 44.1895-88.916L21.5332-63.623C17.1875-58.6914 16.0645-55.5664 16.0645-48.8281L16.0645-21.3379C16.0645-14.5996 17.1875-11.4746 21.5332-6.54297L44.1895 18.75C48.6816 23.7793 53.2227 26.7578 61.8164 26.7578ZM64.3066 14.6484C58.0078 14.6484 56.0547 13.0859 52.5391 9.27734L32.4219-12.9883C29.9316-15.7715 29.3457-17.5781 29.3457-22.2656L29.3457-47.9004C29.3457-52.5879 29.9316-54.3945 32.4219-57.1777L52.5391-79.4434C56.0547-83.3008 58.0078-84.8145 64.3066-84.8145L97.1191-84.8145C103.418-84.8145 105.42-83.3008 108.887-79.4434L129.004-57.1777C131.494-54.3945 132.08-52.5879 132.08-47.9004L132.08-22.2656C132.08-17.5781 131.494-15.7715 129.004-12.9883L108.887 9.27734C105.42 13.0859 103.418 14.6484 97.1191 14.6484ZM60.1562-8.93555C61.7676-8.93555 63.1348-9.47266 64.209-10.5957L80.7617-27.1973L97.3633-10.5957C98.4375-9.52148 99.7559-8.93555 101.416-8.93555C104.492-8.93555 106.934-11.377 106.934-14.4531C106.934-15.9668 106.348-17.2852 105.225-18.3594L88.623-35.0098L105.273-51.7578C106.396-52.8809 106.982-54.1016 106.982-55.5664C106.982-58.6914 104.541-61.084 101.465-61.084C99.9023-61.084 98.6328-60.5957 97.4609-59.4238L80.7617-42.7734L64.1113-59.375C63.0371-60.498 61.7676-60.9863 60.1562-60.9863C57.0801-60.9863 54.6387-58.6426 54.6387-55.5664C54.6387-54.1016 55.2246-52.7344 56.2988-51.709L72.9492-35.0098L56.2988-18.3105C55.2246-17.2852 54.6387-15.918 54.6387-14.4531C54.6387-11.377 57.0801-8.93555 60.1562-8.93555Z"/>
  </g>
  <g id="Medium-L" transform="matrix(1 0 0 1 1666.65 1556)">
   <path d="M61.2305 26.2695L98.584 26.2695C107.227 26.2695 111.328 23.3398 115.771 18.457L138.477-6.68945C142.676-11.377 143.75-14.4043 143.75-20.8984L143.75-49.2188C143.75-55.7129 142.676-58.7402 138.477-63.4277L115.771-88.5742C111.328-93.457 107.227-96.3867 98.584-96.3867L61.2305-96.3867C52.5879-96.3867 48.4863-93.457 44.043-88.5742L21.3379-63.4277C17.1387-58.7402 16.0645-55.7129 16.0645-49.2188L16.0645-20.8984C16.0645-14.4043 17.1387-11.377 21.3379-6.68945L44.043 18.457C48.4863 23.3398 52.5879 26.2695 61.2305 26.2695ZM63.8184 15.6738C57.2266 15.6738 55.3223 14.1113 51.6113 10.1074L30.957-12.6465C28.418-15.4297 27.8809-17.1875 27.8809-21.8262L27.8809-48.291C27.8809-52.9785 28.418-54.7363 30.957-57.5195L51.6113-80.2246C55.3223-84.2285 57.2266-85.791 63.8184-85.791L95.9961-85.791C102.588-85.791 104.492-84.2285 108.203-80.2246L128.857-57.5195C131.396-54.7363 131.934-52.9785 131.934-48.291L131.934-21.8262C131.934-17.1875 131.396-15.4297 128.857-12.6465L108.203 10.1074C104.492 14.1113 102.588 15.6738 95.9961 15.6738ZM58.8379-8.88672C60.3027-8.88672 61.5234-9.375 62.5-10.4492L79.9316-27.9297L97.4609-10.4492C98.4375-9.42383 99.6582-8.88672 101.123-8.88672C103.906-8.88672 106.104-11.1328 106.104-13.916C106.104-15.2832 105.615-16.4551 104.59-17.4805L87.0605-35.0098L104.639-52.6367C105.664-53.6621 106.152-54.7852 106.152-56.1523C106.152-58.9355 103.955-61.1328 101.172-61.1328C99.7559-61.1328 98.6328-60.6445 97.5586-59.5703L79.9316-42.041L62.4023-59.5215C61.4258-60.5469 60.3027-61.0352 58.8379-61.0352C56.0059-61.0352 53.8086-58.8867 53.8086-56.1035C53.8086-54.7363 54.3457-53.5156 55.3223-52.5879L72.8516-35.0098L55.3223-17.4316C54.3457-16.4551 53.8086-15.2832 53.8086-13.916C53.8086-11.1328 56.0059-8.88672 58.8379-8.88672Z"/>
  </g>
  <g id="Regular-L" transform="matrix(1 0 0 1 1370.99 1556)">
   <path d="M60.498 25.5859L97.2168 25.5859C105.908 25.5859 109.521 22.7051 113.818 18.0664L136.621-6.88477C140.625-11.2793 141.65-14.1602 141.65-20.3613L141.65-49.7559C141.65-55.957 140.625-58.7891 136.621-63.2324L113.818-88.1348C109.521-92.8223 105.908-95.7031 97.2168-95.7031L60.498-95.7031C51.8066-95.7031 48.1934-92.8223 43.8477-88.1348L21.0938-63.2324C17.0898-58.7891 16.0645-55.957 16.0645-49.7559L16.0645-20.3613C16.0645-14.1602 17.0898-11.2793 21.0938-6.88477L43.8477 18.0664C48.1934 22.7051 51.8066 25.5859 60.498 25.5859ZM63.1348 16.9922C56.2012 16.9922 54.3457 15.4297 50.3906 11.1816L29.0039-12.1582C26.4648-14.9414 25.8789-16.6504 25.8789-21.2891L25.8789-48.8281C25.8789-53.4668 26.4648-55.127 29.0039-57.9102L50.3906-81.25C54.3457-85.498 56.2012-87.1094 63.1348-87.1094L94.5312-87.1094C101.514-87.1094 103.369-85.498 107.275-81.25L128.711-57.9102C131.25-55.127 131.787-53.4668 131.787-48.8281L131.787-21.2891C131.787-16.6504 131.25-14.9414 128.711-12.1582L107.275 11.1816C103.369 15.4297 101.514 16.9922 94.5312 16.9922ZM57.0801-8.83789C58.3496-8.83789 59.375-9.27734 60.2539-10.2051L78.9062-28.8574L97.5586-10.2051C98.4375-9.32617 99.4629-8.83789 100.732-8.83789C103.125-8.83789 105.078-10.791 105.078-13.1836C105.078-14.4531 104.639-15.4297 103.76-16.3086L85.0586-35.0098L103.809-53.7598C104.736-54.6875 105.127-55.6641 105.127-56.8359C105.127-59.2773 103.174-61.1816 100.781-61.1816C99.6094-61.1816 98.6816-60.7422 97.7051-59.8145L78.9062-41.0645L60.1562-59.7656C59.2773-60.6445 58.3496-61.084 57.0801-61.084C54.6875-61.084 52.7344-59.1797 52.7344-56.7871C52.7344-55.6152 53.1738-54.541 54.0527-53.7109L72.7539-35.0098L54.0527-16.2598C53.1738-15.4297 52.7344-14.4043 52.7344-13.1836C52.7344-10.791 54.6875-8.83789 57.0801-8.83789Z"/>
  </g>
  <g id="Light-L" transform="matrix(1 0 0 1 1075.2 1556)">
   <path d="M60.5957 24.9512L95.2637 24.9512C104.932 24.9512 108.203 21.7285 112.842 16.8457L135.01-7.12891C138.818-11.2305 139.795-13.916 139.795-20.0195L139.795-50.2441C139.795-56.3477 138.818-59.0332 135.01-63.1348L112.842-87.0605C108.203-91.9922 104.932-95.2148 95.2637-95.2148L60.5957-95.2148C50.9277-95.2148 47.6562-91.9922 43.0176-87.0605L20.8496-63.1348C17.041-59.0332 16.0645-56.3477 16.0645-50.2441L16.0645-20.0195C16.0645-13.916 17.041-11.2305 20.8496-7.12891L43.0176 16.8457C47.6562 21.7285 50.9277 24.9512 60.5957 24.9512ZM62.2559 18.457C54.3457 18.457 52.4902 16.5039 47.9492 11.7188L26.6113-11.2305C23.9746-14.0625 23.4375-15.8691 23.4375-20.6055L23.4375-49.6582C23.4375-54.3945 23.9746-56.2012 26.6113-59.0332L47.9492-81.9824C52.4902-86.7676 54.3457-88.7207 62.2559-88.7207L93.6035-88.7207C101.514-88.7207 103.369-86.7676 107.861-81.9824L129.248-59.0332C131.885-56.2012 132.422-54.3945 132.422-49.6582L132.422-20.6055C132.422-15.8691 131.885-14.0625 129.248-11.2305L107.861 11.7188C103.369 16.5039 101.514 18.457 93.6035 18.457ZM55.7617-9.47266C56.7871-9.47266 57.5684-9.81445 58.3008-10.5957L77.9785-30.2734L97.6562-10.5957C98.3887-9.81445 99.2188-9.47266 100.195-9.47266C102.1-9.47266 103.613-10.9375 103.613-12.793C103.613-13.8184 103.271-14.5996 102.539-15.2832L82.8125-35.0586L102.588-54.8828C103.32-55.6641 103.662-56.3965 103.662-57.373C103.662-59.2285 102.148-60.6934 100.244-60.6934C99.3164-60.6934 98.5352-60.3516 97.7539-59.5703L77.9785-39.8438L58.252-59.5215C57.4707-60.3027 56.7871-60.6445 55.7617-60.6445C53.8574-60.6445 52.3438-59.1797 52.3438-57.3242C52.3438-56.3477 52.6855-55.5664 53.418-54.834L73.1445-35.0586L53.418-15.2832C52.6855-14.5996 52.3438-13.7695 52.3438-12.793C52.3438-10.9375 53.8574-9.47266 55.7617-9.47266Z"/>
  </g>
  <g id="Thin-L" transform="matrix(1 0 0 1 779.713 1556)">
   <path d="M60.7422 24.1211L92.6758 24.1211C103.613 24.1211 106.494 20.4102 111.475 15.1855L132.91-7.42188C136.426-11.1816 137.354-13.623 137.354-19.6289L137.354-50.8789C137.354-56.8359 136.426-59.3262 132.91-63.0371L111.475-85.6445C106.494-90.8691 103.613-94.6289 92.6758-94.6289L60.7422-94.6289C49.8047-94.6289 46.875-90.8691 41.9434-85.6445L20.5078-63.0371C16.9922-59.3262 16.0645-56.8359 16.0645-50.8789L16.0645-19.6289C16.0645-13.623 16.9922-11.1816 20.5078-7.42188L41.9434 15.1855C46.875 20.4102 49.8047 24.1211 60.7422 24.1211ZM61.084 20.3613C51.9531 20.3613 50 17.9688 44.7266 12.4512L23.4375-10.0098C20.7031-12.8906 20.166-14.8438 20.166-19.7266L20.166-50.7324C20.166-55.6152 20.7031-57.5684 23.4375-60.4492L44.7266-82.959C50-88.4766 51.9531-90.8203 61.084-90.8203L92.334-90.8203C101.465-90.8203 103.418-88.4766 108.643-82.959L129.98-60.4492C132.715-57.5684 133.252-55.6152 133.252-50.7324L133.252-19.7266C133.252-14.8438 132.715-12.8906 129.98-10.0098L108.643 12.4512C103.418 17.9688 101.465 20.3613 92.334 20.3613ZM53.9551-10.3027C54.6875-10.3027 55.127-10.498 55.7129-11.084L76.7578-32.1289L97.7539-11.084C98.3887-10.498 98.877-10.3027 99.5117-10.3027C100.732-10.3027 101.709-11.1816 101.709-12.3047C101.709-12.9883 101.514-13.4277 100.977-13.9648L79.7852-35.1562L100.977-56.3477C101.514-56.8848 101.709-57.373 101.709-58.0078C101.709-59.1797 100.732-60.0586 99.5117-60.0586C98.877-60.0586 98.3887-59.8633 97.8027-59.2285L76.7578-38.1836L55.7129-59.2285C55.0781-59.8633 54.6875-60.0098 53.9551-60.0098C52.7344-60.0098 51.8066-59.1797 51.8066-58.0078C51.8066-57.373 52.002-56.8848 52.5391-56.3477L73.6816-35.1562L52.5391-13.9648C52.002-13.4277 51.8066-12.9883 51.8066-12.3047C51.8066-11.1816 52.7344-10.3027 53.9551-10.3027Z"/>
  </g>
  <g id="Ultralight-L" transform="matrix(1 0 0 1 483.637 1556)">
   <path d="M60.791 23.7305L91.3574 23.7305C102.93 23.7305 105.615 19.7266 110.791 14.3555L131.836-7.61719C135.205-11.1328 136.084-13.4766 136.084-19.3848L136.084-51.1719C136.084-57.1289 135.205-59.4727 131.836-62.9883L110.791-84.9609C105.615-90.332 102.93-94.2871 91.3574-94.2871L60.791-94.2871C49.2188-94.2871 46.5332-90.332 41.3574-84.9609L20.3125-62.9883C16.9434-59.4727 16.0645-57.1289 16.0645-51.1719L16.0645-19.3848C16.0645-13.4766 16.9434-11.1328 20.3125-7.61719L41.3574 14.3555C46.5332 19.7266 49.2188 23.7305 60.791 23.7305ZM60.498 21.3379C50.6836 21.3379 48.7305 18.75 43.1152 12.8418L21.7773-9.375C19.043-12.3047 18.457-14.3555 18.457-19.2871L18.457-51.3184C18.457-56.25 19.043-58.3008 21.7773-61.1816L43.1152-83.4473C48.7305-89.3066 50.6836-91.9434 60.498-91.9434L91.6504-91.9434C101.465-91.9434 103.418-89.3066 109.082-83.4473L130.371-61.1816C133.105-58.3008 133.691-56.25 133.691-51.3184L133.691-19.2871C133.691-14.3555 133.105-12.3047 130.371-9.375L109.082 12.8418C103.418 18.75 101.465 21.3379 91.6504 21.3379ZM53.0762-10.6934C53.6133-10.6934 53.8574-10.8398 54.3945-11.3281L76.123-33.0566L97.8516-11.3281C98.3398-10.8398 98.6816-10.6934 99.1699-10.6934C100.049-10.6934 100.684-11.2793 100.684-12.0605C100.684-12.5488 100.586-12.8906 100.146-13.3301L78.2227-35.2051L100.146-57.0801C100.586-57.5195 100.684-57.8613 100.684-58.3496C100.684-59.1309 100.049-59.7168 99.1699-59.7168C98.6816-59.7168 98.3398-59.5703 97.8027-59.082L76.123-37.3535L54.3945-59.082C53.8574-59.6191 53.6133-59.7168 53.0762-59.7168C52.1973-59.7168 51.5137-59.1309 51.5137-58.3496C51.5137-57.8613 51.6602-57.5684 52.0508-57.1289L73.9746-35.2051L52.0508-13.3301C51.6602-12.8906 51.5137-12.5488 51.5137-12.0605C51.5137-11.2793 52.1973-10.6934 53.0762-10.6934Z"/>
  </g>
  <g id="Black-M" transform="matrix(1 0 0 1 2866.36 1126)">
   <path d="M51.5625 15.5273L82.4707 15.5273C89.502 15.5273 95.2148 12.8418 99.4629 7.8125L116.309-12.2559C120.508-17.2852 121.631-20.3125 121.631-27.002L121.631-43.5547C121.631-50.1953 120.508-53.2715 116.309-58.3008L99.4629-78.3203C95.2148-83.3496 89.502-86.084 82.4707-86.084L51.5625-86.084C44.5801-86.084 38.8184-83.3496 34.6191-78.3203L17.7734-58.3008C13.5742-53.2715 12.4512-50.1953 12.4512-43.5547L12.4512-27.002C12.4512-20.3125 13.5742-17.2852 17.7734-12.2559L34.6191 7.8125C38.8184 12.8418 44.5801 15.5273 51.5625 15.5273ZM52.4414-2.09961C48.9258-2.09961 46.9238-3.32031 45.0684-5.46875L33.0078-19.6289C31.1523-21.8262 30.6152-23.7305 30.6152-27.3926L30.6152-43.1152C30.6152-46.8262 31.1523-48.7305 33.0078-50.8789L45.0684-65.0391C46.9238-67.2363 48.9258-68.4082 52.4414-68.4082L81.5918-68.4082C85.1562-68.4082 87.1582-67.2363 89.0137-65.0391L101.074-50.8789C102.93-48.7305 103.418-46.8262 103.418-43.1152L103.418-27.3926C103.418-23.7305 102.93-21.8262 101.074-19.6289L89.0137-5.46875C87.1582-3.32031 85.1562-2.09961 81.5918-2.09961ZM54.0527-15.4785C56.2012-15.4785 57.8125-16.1133 59.2285-17.4805L67.0898-25.293L75-17.4805C76.3672-16.1133 77.9785-15.4785 80.127-15.4785C84.0332-15.4785 86.9629-18.4082 86.9629-22.3633C86.9629-24.0723 86.2305-25.7812 84.9121-27.0996L76.9531-35.1562L84.9121-43.1641C86.2305-44.4824 86.9629-46.1914 86.9629-47.9004C86.9629-51.8555 84.0332-54.7852 80.127-54.7852C77.9785-54.7852 76.3672-54.1992 75-52.7832L67.0898-44.9219L59.2285-52.7832C57.8125-54.1992 56.2012-54.7852 54.0527-54.7852C50.1465-54.7852 47.2168-51.8555 47.2168-47.9004C47.2168-46.1914 47.9492-44.4824 49.2676-43.1641L57.3242-35.1562L49.2676-27.0996C47.9492-25.7812 47.2168-24.0723 47.2168-22.3633C47.2168-18.4082 50.1465-15.4785 54.0527-15.4785Z"/>
  </g>
  <g id="Heavy-M" transform="matrix(1 0 0 1 2570.92 1126)">
   <path d="M50.4395 14.7461L81.0547 14.7461C87.8906 14.7461 92.9688 12.207 96.9238 7.56836L114.062-12.4512C118.018-17.1387 119.092-20.0195 119.092-26.2695L119.092-44.1895C119.092-50.3906 118.018-53.3203 114.062-57.959L96.9238-77.9785C92.9688-82.666 87.8906-85.2051 81.0547-85.2051L50.4395-85.2051C43.6523-85.2051 38.5742-82.666 34.5703-77.9785L17.4805-57.959C13.5254-53.3203 12.4512-50.3906 12.4512-44.1895L12.4512-26.2695C12.4512-20.0195 13.5254-17.1387 17.4805-12.4512L34.5703 7.56836C38.5742 12.207 43.6523 14.7461 50.4395 14.7461ZM51.7578-0.585938C47.9004-0.585938 46.0449-1.70898 43.9453-4.10156L30.8594-19.2383C28.9551-21.3867 28.4668-23.1445 28.4668-26.8066L28.4668-43.6523C28.4668-47.3145 28.9551-49.0234 30.8594-51.2207L43.9453-66.3574C46.0449-68.7012 47.9004-69.873 51.7578-69.873L79.7852-69.873C83.6426-69.873 85.498-68.7012 87.5488-66.3574L100.684-51.2207C102.539-49.0234 103.027-47.3145 103.027-43.6523L103.027-26.8066C103.027-23.1445 102.539-21.3867 100.684-19.2383L87.5488-4.10156C85.498-1.70898 83.6426-0.585938 79.7852-0.585938ZM51.9043-15.2344C53.8086-15.2344 55.2734-15.8203 56.543-17.041L65.7715-26.2695L75.0977-17.041C76.3672-15.8203 77.832-15.2344 79.7363-15.2344C83.2031-15.2344 85.8887-17.9199 85.8887-21.4355C85.8887-22.998 85.2051-24.5117 84.0332-25.6836L74.6582-35.1074L84.0332-44.5312C85.2051-45.752 85.8887-47.2656 85.8887-48.7793C85.8887-52.3438 83.2031-54.9805 79.7363-54.9805C77.832-54.9805 76.416-54.4434 75.1465-53.1738L65.7715-43.8965L56.4941-53.1738C55.2734-54.3945 53.8086-54.9805 51.9043-54.9805C48.4375-54.9805 45.752-52.2949 45.752-48.7793C45.752-47.2168 46.4355-45.7031 47.6562-44.5312L57.0312-35.1074L47.6562-25.6836C46.4355-24.5117 45.752-22.998 45.752-21.4355C45.752-17.9199 48.4375-15.2344 51.9043-15.2344Z"/>
  </g>
  <g id="Bold-M" transform="matrix(1 0 0 1 2275.65 1126)">
   <path d="M49.2188 13.916L79.4922 13.916C86.084 13.916 90.4297 11.5234 94.1406 7.27539L111.523-12.6953C115.234-16.9922 116.211-19.6777 116.211-25.4395L116.211-44.873C116.211-50.6348 115.234-53.3203 111.523-57.6172L94.1406-77.5879C90.4297-81.8359 86.084-84.2285 79.4922-84.2285L49.2188-84.2285C42.5781-84.2285 38.2324-81.8359 34.5703-77.5879L17.1387-57.6172C13.4277-53.3203 12.4512-50.6348 12.4512-44.873L12.4512-25.4395C12.4512-19.6777 13.4277-16.9922 17.1387-12.6953L34.5703 7.27539C38.2324 11.5234 42.5781 13.916 49.2188 13.916ZM50.9277 1.17188C46.7285 1.17188 45.0684 0.0488281 42.7734-2.53906L28.418-18.75C26.5137-20.9473 26.0742-22.4609 26.0742-26.123L26.0742-44.1895C26.0742-47.8516 26.5137-49.3652 28.418-51.5625L42.7734-67.7734C45.0684-70.3613 46.7285-71.4844 50.9277-71.4844L77.7344-71.4844C81.9336-71.4844 83.6426-70.3613 85.9375-67.7734L100.244-51.5625C102.148-49.3652 102.588-47.8516 102.588-44.1895L102.588-26.123C102.588-22.4609 102.148-20.9473 100.244-18.75L85.9375-2.53906C83.6426 0.0488281 81.9336 1.17188 77.7344 1.17188ZM49.5605-14.9414C51.1719-14.9414 52.4414-15.4785 53.5156-16.5527L64.3555-27.3926L75.293-16.5527C76.3184-15.4785 77.6367-14.9414 79.248-14.9414C82.2754-14.9414 84.6191-17.2852 84.6191-20.3613C84.6191-21.7773 84.0332-23.0957 83.0078-24.1211L72.0703-35.0586L83.0078-46.0938C84.082-47.1191 84.668-48.4375 84.668-49.8047C84.668-52.8809 82.3242-55.2246 79.248-55.2246C77.6855-55.2246 76.4648-54.6875 75.3418-53.6133L64.3555-42.7246L53.4668-53.5645C52.3926-54.6387 51.1719-55.1758 49.5605-55.1758C46.4844-55.1758 44.1406-52.832 44.1406-49.7559C44.1406-48.3887 44.7266-47.0703 45.8008-46.0449L56.7383-35.0586L45.8008-24.0723C44.7266-23.0957 44.1406-21.7285 44.1406-20.3613C44.1406-17.2852 46.4844-14.9414 49.5605-14.9414Z"/>
  </g>
  <g id="Semibold-M" transform="matrix(1 0 0 1 1979.91 1126)">
   <path d="M48.3398 13.3301L78.3691 13.3301C84.8145 13.3301 88.6719 11.084 92.1875 7.08008L109.814-12.8418C113.33-16.8945 114.258-19.4336 114.258-24.8535L114.258-45.3613C114.258-50.7812 113.33-53.3203 109.814-57.373L92.1875-77.3438C88.6719-81.2988 84.8145-83.5449 78.3691-83.5449L48.3398-83.5449C41.8945-83.5449 38.0371-81.2988 34.5215-77.3438L16.8945-57.373C13.3789-53.3203 12.4512-50.7812 12.4512-45.3613L12.4512-24.8535C12.4512-19.4336 13.3789-16.8945 16.8945-12.8418L34.5215 7.08008C38.0371 11.084 41.8945 13.3301 48.3398 13.3301ZM50.3906 2.34375C45.9473 2.34375 44.3848 1.26953 41.8945-1.46484L26.7578-18.457C24.8535-20.6055 24.4141-22.0215 24.4141-25.6348L24.4141-44.5801C24.4141-48.1934 24.8535-49.6094 26.7578-51.8066L41.8945-68.75C44.3848-71.4844 45.9473-72.5586 50.3906-72.5586L76.3184-72.5586C80.7617-72.5586 82.3242-71.4844 84.7656-68.75L99.9512-51.8066C101.855-49.6094 102.295-48.1934 102.295-44.5801L102.295-25.6348C102.295-22.0215 101.855-20.6055 99.9512-18.457L84.7656-1.46484C82.3242 1.26953 80.7617 2.34375 76.3184 2.34375ZM47.9004-14.7461C49.3164-14.7461 50.4883-15.2344 51.4648-16.2109L63.3789-28.1738L75.3906-16.2109C76.3184-15.2832 77.4902-14.7461 78.9062-14.7461C81.6406-14.7461 83.7891-16.8945 83.7891-19.6289C83.7891-20.9473 83.252-22.0703 82.3242-23.0469L70.3125-35.0586L82.3242-47.1191C83.3008-48.0957 83.7891-49.2188 83.7891-50.4883C83.7891-53.2227 81.6895-55.3711 78.9551-55.3711C77.5879-55.3711 76.4648-54.8828 75.4883-53.9062L63.3789-41.8945L51.3672-53.8574C50.4395-54.834 49.3164-55.2734 47.9004-55.2734C45.166-55.2734 43.0664-53.1738 43.0664-50.4395C43.0664-49.1699 43.5547-47.998 44.5312-47.1191L56.543-35.0586L44.5312-22.998C43.5547-22.0703 43.0664-20.8984 43.0664-19.6289C43.0664-16.8945 45.166-14.7461 47.9004-14.7461Z"/>
  </g>
  <g id="Medium-M" transform="matrix(1 0 0 1 1683.96 1126)">
   <path d="M47.6562 12.8418L77.5391 12.8418C83.8867 12.8418 87.3535 10.7422 90.7227 6.98242L108.496-12.9883C111.865-16.7969 112.744-19.2383 112.744-24.4141L112.744-45.752C112.744-50.9277 111.865-53.3691 108.496-57.1777L90.7227-77.1484C87.3535-80.8594 83.8867-83.0078 77.5391-83.0078L47.6562-83.0078C41.3086-83.0078 37.8906-80.8594 34.4727-77.1484L16.748-57.1777C13.3301-53.3691 12.4512-50.9277 12.4512-45.752L12.4512-24.4141C12.4512-19.2383 13.3301-16.7969 16.748-12.9883L34.4727 6.98242C37.8906 10.7422 41.3086 12.8418 47.6562 12.8418ZM50 3.27148C45.3613 3.27148 43.8477 2.19727 41.2598-0.634766L25.4883-18.2129C23.584-20.3613 23.1445-21.6797 23.1445-25.293L23.1445-44.873C23.1445-48.4863 23.584-49.8047 25.4883-51.9531L41.2598-69.5312C43.8477-72.3633 45.3613-73.4375 50-73.4375L75.2441-73.4375C79.834-73.4375 81.3477-72.3633 83.9355-69.5312L99.707-51.9531C101.611-49.8047 102.1-48.4863 102.1-44.873L102.1-25.293C102.1-21.6797 101.611-20.3613 99.707-18.2129L83.9355-0.634766C81.3477 2.19727 79.834 3.27148 75.2441 3.27148ZM46.6309-14.5996C47.9492-14.5996 49.0234-15.0391 49.8535-15.918L62.6465-28.7598L75.4395-15.918C76.3184-15.0879 77.3926-14.5996 78.6621-14.5996C81.1523-14.5996 83.1055-16.6016 83.1055-19.0918C83.1055-20.3125 82.666-21.3379 81.7871-22.2168L68.9941-35.0098L81.8359-47.9492C82.7148-48.8281 83.1543-49.8535 83.1543-51.0254C83.1543-53.5156 81.2012-55.4688 78.7109-55.4688C77.4902-55.4688 76.5137-55.0293 75.5859-54.1016L62.6465-41.2598L49.8047-54.0527C48.9258-54.9805 47.9492-55.3711 46.6309-55.3711C44.1895-55.3711 42.1875-53.4668 42.1875-50.9766C42.1875-49.8047 42.6758-48.7305 43.5547-47.9004L56.3477-35.0098L43.5547-22.168C42.6758-21.3379 42.1875-20.2637 42.1875-19.0918C42.1875-16.6016 44.1895-14.5996 46.6309-14.5996Z"/>
  </g>
  <g id="Regular-M" transform="matrix(1 0 0 1 1388.2 1126)">
   <path d="M46.8262 12.2559L76.4648 12.2559C82.666 12.2559 85.5957 10.2539 88.8184 6.78711L106.787-13.1348C110.01-16.6992 110.84-19.043 110.84-23.877L110.84-46.1914C110.84-51.0742 110.01-53.3691 106.787-56.9336L88.8184-76.8555C85.5957-80.3223 82.666-82.373 76.4648-82.373L46.8262-82.373C40.625-82.373 37.6465-80.3223 34.4727-76.8555L16.5039-56.9336C13.2812-53.3691 12.4512-51.0742 12.4512-46.1914L12.4512-23.877C12.4512-19.043 13.2812-16.6992 16.5039-13.1348L34.4727 6.78711C37.6465 10.2539 40.625 12.2559 46.8262 12.2559ZM49.4629 4.44336C44.5801 4.44336 43.1641 3.36914 40.4785 0.439453L23.8281-17.8711C21.9238-20.0195 21.4844-21.2402 21.4844-24.8047L21.4844-45.2637C21.4844-48.8281 21.9238-50.0488 23.8281-52.1973L40.4785-70.5078C43.1641-73.4863 44.5801-74.5117 49.4629-74.5117L73.8281-74.5117C78.7109-74.5117 80.0781-73.4863 82.8125-70.5078L99.4141-52.1973C101.367-50.0488 101.807-48.8281 101.807-45.2637L101.807-24.8047C101.807-21.2402 101.367-20.0195 99.4141-17.8711L82.8125 0.439453C80.0781 3.36914 78.7109 4.44336 73.8281 4.44336ZM45.0195-14.4043C46.0938-14.4043 47.0703-14.8438 47.8027-15.625L61.6699-29.4922L75.5371-15.625C76.2695-14.8926 77.2461-14.4043 78.3691-14.4043C80.5176-14.4043 82.2754-16.1621 82.2754-18.3594C82.2754-19.4824 81.8359-20.3613 81.1035-21.1426L67.2363-35.0098L81.1523-48.9746C81.9336-49.8047 82.3242-50.6348 82.3242-51.709C82.3242-53.8574 80.5664-55.6152 78.418-55.6152C77.3926-55.6152 76.5137-55.2246 75.6836-54.3945L61.6699-40.4785L47.7051-54.3457C46.9727-55.127 46.0938-55.5176 45.0195-55.5176C42.8711-55.5176 41.1133-53.8086 41.1133-51.6602C41.1133-50.5859 41.5039-49.6582 42.2852-48.9258L56.1523-35.0098L42.2852-21.0938C41.5039-20.3613 41.1133-19.4336 41.1133-18.3594C41.1133-16.1621 42.8711-14.4043 45.0195-14.4043Z"/>
  </g>
  <g id="Light-M" transform="matrix(1 0 0 1 1092.32 1126)">
   <path d="M46.9238 11.7188L74.707 11.7188C81.7383 11.7188 84.4238 9.375 87.8906 5.66406L105.322-13.3301C108.398-16.6504 109.18-18.7988 109.18-23.584L109.18-46.6309C109.18-51.416 108.398-53.5645 105.322-56.8848L87.8906-75.8789C84.4238-79.5898 81.7383-81.9336 74.707-81.9336L46.9238-81.9336C39.8438-81.9336 37.1582-79.5898 33.7402-75.8789L16.2598-56.8848C13.2324-53.5645 12.4512-51.416 12.4512-46.6309L12.4512-23.584C12.4512-18.7988 13.2324-16.6504 16.2598-13.3301L33.7402 5.66406C37.1582 9.375 39.8438 11.7188 46.9238 11.7188ZM48.6328 5.71289C42.9199 5.71289 41.5039 4.39453 38.2812 0.927734L21.6797-17.041C19.6777-19.2383 19.2871-20.5566 19.2871-24.2188L19.2871-46.0449C19.2871-49.6582 19.6777-50.9766 21.6797-53.1738L38.2812-71.1426C41.5039-74.6094 42.9199-75.9766 48.6328-75.9766L72.9492-75.9766C78.6621-75.9766 80.127-74.6094 83.3496-71.1426L99.9023-53.1738C101.904-50.9766 102.344-49.6582 102.344-46.0449L102.344-24.2188C102.344-20.5566 101.904-19.2383 99.9023-17.041L83.3496 0.927734C80.127 4.39453 78.6621 5.71289 72.9492 5.71289ZM43.7988-14.9902C44.6777-14.9902 45.4102-15.2832 46.0449-15.9668L60.8398-30.7617L75.6348-15.9668C76.2695-15.332 77.002-14.9902 77.8809-14.9902C79.5898-14.9902 80.957-16.3574 80.957-18.0176C80.957-18.8965 80.6641-19.5801 80.0293-20.2148L65.1855-35.0586L80.0293-49.9512C80.7129-50.6348 81.0059-51.3184 81.0059-52.1484C81.0059-53.8574 79.6387-55.1758 77.9297-55.1758C77.0996-55.1758 76.416-54.8828 75.7324-54.1992L60.8398-39.3555L45.9961-54.1504C45.3613-54.834 44.6777-55.127 43.7988-55.127C42.0898-55.127 40.7227-53.8086 40.7227-52.0996C40.7227-51.2695 41.0645-50.5371 41.6992-49.9512L56.543-35.0586L41.6992-20.2148C41.0645-19.5801 40.7227-18.8965 40.7227-18.0176C40.7227-16.3574 42.0898-14.9902 43.7988-14.9902Z"/>
  </g>
  <g id="Thin-M" transform="matrix(1 0 0 1 796.705 1126)">
   <path d="M47.0215 10.9375L72.3633 10.9375C80.5664 10.9375 82.9102 8.1543 86.6699 4.19922L103.467-13.623C106.25-16.6016 106.982-18.5547 106.982-23.2422L106.982-47.2168C106.982-51.8555 106.25-53.8574 103.467-56.7871L86.6699-74.6094C82.9102-78.6133 80.5664-81.3965 72.3633-81.3965L47.0215-81.3965C38.8672-81.3965 36.5234-78.6133 32.7148-74.6094L15.9668-56.7871C13.1836-53.8574 12.4512-51.8555 12.4512-47.2168L12.4512-23.2422C12.4512-18.5547 13.1836-16.6016 15.9668-13.623L32.7148 4.19922C36.5234 8.1543 38.8672 10.9375 47.0215 10.9375ZM47.6074 7.42188C40.7715 7.42188 39.3066 5.71289 35.4004 1.5625L18.8477-15.9668C16.748-18.1641 16.3086-19.6777 16.3086-23.4375L16.3086-47.0215C16.3086-50.7812 16.748-52.2461 18.8477-54.4922L35.4004-72.0215C39.3066-76.123 40.7715-77.8809 47.6074-77.8809L71.8262-77.8809C78.6621-77.8809 80.127-76.123 84.0332-72.0215L100.586-54.4922C102.637-52.2461 103.076-50.7812 103.076-47.0215L103.076-23.4375C103.076-19.6777 102.637-18.1641 100.586-15.9668L84.0332 1.5625C80.127 5.71289 78.6621 7.42188 71.8262 7.42188ZM42.2363-15.7227C42.8223-15.7227 43.2617-15.918 43.75-16.4062L59.7656-32.4219L75.7324-16.4062C76.2695-15.918 76.709-15.7227 77.2949-15.7227C78.3691-15.7227 79.248-16.5527 79.248-17.5781C79.248-18.1641 79.0527-18.6035 78.6133-19.043L62.5-35.1562L78.6133-51.2695C79.0527-51.7578 79.248-52.1973 79.248-52.7344C79.248-53.8086 78.3691-54.5898 77.2949-54.5898C76.709-54.5898 76.3184-54.4434 75.7812-53.9062L59.7656-37.8906L43.7012-53.9062C43.2129-54.3945 42.8223-54.5898 42.2363-54.5898C41.1133-54.5898 40.2344-53.7598 40.2344-52.7344C40.2344-52.1484 40.4297-51.709 40.918-51.2695L56.9824-35.1562L40.918-19.043C40.4297-18.6035 40.2344-18.1641 40.2344-17.5781C40.2344-16.5527 41.1133-15.7227 42.2363-15.7227Z"/>
  </g>
  <g id="Ultralight-M" transform="matrix(1 0 0 1 500.556 1126)">
   <path d="M47.1191 10.5957L71.1914 10.5957C79.9805 10.5957 82.1289 7.56836 86.084 3.4668L102.49-13.7695C105.176-16.5527 105.859-18.4082 105.859-23.0469L105.859-47.5098C105.859-52.0996 105.176-53.9551 102.49-56.7383L86.084-73.9746C82.1289-78.0762 79.9805-81.1035 71.1914-81.1035L47.1191-81.1035C38.3301-81.1035 36.1816-78.0762 32.2266-73.9746L15.8203-56.7383C13.1348-53.9551 12.4512-52.0996 12.4512-47.5098L12.4512-23.0469C12.4512-18.4082 13.1348-16.5527 15.8203-13.7695L32.2266 3.4668C36.1816 7.56836 38.3301 10.5957 47.1191 10.5957ZM47.0703 8.30078C39.6484 8.30078 38.1836 6.34766 33.8867 1.9043L17.3828-15.3809C15.2344-17.627 14.8438-19.1895 14.8438-22.998L14.8438-47.5098C14.8438-51.3184 15.2344-52.8809 17.3828-55.127L33.8867-72.4609C38.1836-76.9043 39.6484-78.8574 47.0703-78.8574L71.2402-78.8574C78.6621-78.8574 80.127-76.9043 84.4238-72.4609L100.928-55.127C103.027-52.8809 103.467-51.3184 103.467-47.5098L103.467-22.998C103.467-19.1895 103.027-17.627 100.928-15.3809L84.4238 1.9043C80.127 6.34766 78.6621 8.30078 71.2402 8.30078ZM41.4062-16.1133C41.8945-16.1133 42.1387-16.2109 42.5293-16.6504L59.1797-33.252L75.8301-16.6504C76.2207-16.2109 76.5625-16.1133 76.9531-16.1133C77.7344-16.1133 78.3691-16.6504 78.3691-17.334C78.3691-17.7734 78.2227-18.0664 77.8809-18.457L61.084-35.2051L77.8809-51.9531C78.2227-52.3438 78.3691-52.6367 78.3691-53.0273C78.3691-53.7598 77.7344-54.2969 76.9531-54.2969C76.5137-54.2969 76.2207-54.1992 75.7812-53.7598L59.1797-37.1094L42.5293-53.7598C42.1387-54.1992 41.8945-54.2969 41.4062-54.2969C40.625-54.2969 39.9902-53.7598 39.9902-53.0273C39.9902-52.6367 40.1367-52.3438 40.4785-51.9531L57.2754-35.2051L40.4785-18.457C40.1367-18.0664 39.9902-17.7734 39.9902-17.334C39.9902-16.6504 40.625-16.1133 41.4062-16.1133Z"/>
  </g>
  <g id="Black-S" transform="matrix(1 0 0 1 2880.96 696)">
   <path d="M40.332 4.49219L64.5508 4.49219C70.0195 4.49219 74.4629 2.39258 77.7344-1.51367L90.9668-17.2363C94.2383-21.1426 95.1172-23.5352 95.1172-28.7109L95.1172-41.7969C95.1172-46.9727 94.2383-49.3652 90.9668-53.2715L77.7344-68.9941C74.4629-72.9004 70.0195-75 64.5508-75L40.332-75C34.8633-75 30.4199-72.9004 27.1484-68.9941L13.916-53.2715C10.6445-49.3652 9.76562-46.9727 9.76562-41.7969L9.76562-28.7109C9.76562-23.5352 10.6445-21.1426 13.916-17.2363L27.1484-1.51367C30.4199 2.39258 34.8633 4.49219 40.332 4.49219ZM41.0645-9.17969C38.2812-9.17969 36.7188-10.1074 35.2539-11.8164L25.7324-22.998C24.2676-24.707 23.877-26.1719 23.877-29.0527L23.877-41.4551C23.877-44.3359 24.2676-45.8008 25.7324-47.5098L35.2539-58.6914C36.7188-60.4004 38.2812-61.3281 41.0645-61.3281L63.8184-61.3281C66.6016-61.3281 68.1641-60.4004 69.6289-58.6914L79.1504-47.5098C80.6152-45.8008 81.0059-44.3359 81.0059-41.4551L81.0059-29.0527C81.0059-26.1719 80.6152-24.707 79.1504-22.998L69.6289-11.8164C68.1641-10.1074 66.6016-9.17969 63.8184-9.17969ZM42.1875-19.7266C43.8477-19.7266 45.1172-20.2148 46.1914-21.2891L52.4414-27.4902L58.7402-21.2891C59.8145-20.2148 61.084-19.7266 62.7441-19.7266C65.7715-19.7266 68.0664-22.0215 68.0664-25.0977C68.0664-26.416 67.4805-27.7344 66.4551-28.7598L60.1074-35.1562L66.4551-41.5527C67.4805-42.5781 68.0664-43.8965 68.0664-45.2148C68.0664-48.291 65.7715-50.5859 62.7441-50.5859C61.084-50.5859 59.8145-50.0977 58.7402-49.0234L52.4414-42.7734L46.1914-49.0234C45.1172-50.0977 43.8477-50.5859 42.1875-50.5859C39.1602-50.5859 36.8652-48.291 36.8652-45.2148C36.8652-43.8965 37.4512-42.5781 38.4766-41.5527L44.873-35.1562L38.4766-28.7598C37.4512-27.7344 36.8652-26.416 36.8652-25.0977C36.8652-22.0215 39.1602-19.7266 42.1875-19.7266Z"/>
  </g>
  <g id="Heavy-S" transform="matrix(1 0 0 1 2585.13 696)">
   <path d="M39.4531 3.95508L63.6719 3.95508C68.8965 3.95508 72.8516 2.00195 75.9277-1.5625L89.4043-17.3828C92.5293-21.0449 93.3594-23.3398 93.3594-28.1738L93.3594-42.2363C93.3594-47.0703 92.5293-49.3652 89.4043-53.0273L75.9277-68.8477C72.8516-72.4121 68.8965-74.3652 63.6719-74.3652L39.4531-74.3652C34.2285-74.3652 30.2734-72.4121 27.1973-68.8477L13.7207-53.0273C10.5957-49.3652 9.76562-47.0703 9.76562-42.2363L9.76562-28.1738C9.76562-23.3398 10.5957-21.0449 13.7207-17.3828L27.1973-1.5625C30.2734 2.00195 34.2285 3.95508 39.4531 3.95508ZM40.625-8.1543C37.6953-8.1543 36.2305-9.0332 34.668-10.791L24.3164-22.7539C22.8516-24.4629 22.4609-25.7812 22.4609-28.6621L22.4609-41.748C22.4609-44.6289 22.8516-45.9473 24.3164-47.6562L34.668-59.6191C36.2305-61.377 37.6953-62.2559 40.625-62.2559L62.5-62.2559C65.4297-62.2559 66.8945-61.377 68.457-59.6191L78.8086-47.6562C80.2734-45.9473 80.6641-44.6289 80.6641-41.748L80.6641-28.6621C80.6641-25.7812 80.2734-24.4629 78.8086-22.7539L68.457-10.791C66.8945-9.0332 65.4297-8.1543 62.5-8.1543ZM40.6738-19.4824C42.1875-19.4824 43.3594-19.9219 44.3359-20.8984L51.5625-28.125L58.8379-20.8984C59.8145-19.9219 60.9863-19.4824 62.4512-19.4824C65.2344-19.4824 67.3828-21.582 67.3828-24.4141C67.3828-25.6348 66.8457-26.8555 65.8691-27.7832L58.5938-35.1074L65.918-42.4805C66.8457-43.457 67.3828-44.6289 67.3828-45.8496C67.3828-48.6816 65.2344-50.7812 62.5-50.7812C60.9863-50.7812 59.8633-50.3418 58.8867-49.3164L51.5625-42.0898L44.2871-49.3164C43.3594-50.293 42.1875-50.7324 40.6738-50.7324C37.9395-50.7324 35.791-48.6328 35.791-45.8496C35.791-44.6289 36.3281-43.4082 37.2559-42.4805L44.6289-35.1074L37.2559-27.7832C36.3281-26.8555 35.791-25.6348 35.791-24.4141C35.791-21.582 37.9395-19.4824 40.6738-19.4824Z"/>
  </g>
  <g id="Bold-S" transform="matrix(1 0 0 1 2289.42 696)">
   <path d="M38.4766 3.36914L62.6465 3.36914C67.627 3.36914 71.0449 1.61133 73.877-1.66016L87.6465-17.5293C90.5762-20.9473 91.3574-23.0957 91.3574-27.5879L91.3574-42.7246C91.3574-47.2168 90.5762-49.3652 87.6465-52.7832L73.877-68.6523C71.0449-71.9238 67.627-73.6816 62.6465-73.6816L38.4766-73.6816C33.5449-73.6816 30.0781-71.9238 27.2461-68.6523L13.4766-52.7832C10.5469-49.3652 9.76562-47.2168 9.76562-42.7246L9.76562-27.5879C9.76562-23.0957 10.5469-20.9473 13.4766-17.5293L27.2461-1.66016C30.0781 1.61133 33.5449 3.36914 38.4766 3.36914ZM40.0879-6.98242C37.0117-6.98242 35.6934-7.76367 34.0332-9.66797L22.7539-22.5098C21.2402-24.2188 20.8984-25.3906 20.8984-28.2227L20.8984-42.0898C20.8984-44.9219 21.2402-46.0938 22.7539-47.8027L34.0332-60.6445C35.6934-62.5 37.0117-63.3301 40.0879-63.3301L61.0352-63.3301C64.1113-63.3301 65.4785-62.5 67.1387-60.6445L78.418-47.8027C79.8828-46.0938 80.2246-44.9219 80.2246-42.0898L80.2246-28.2227C80.2246-25.3906 79.8828-24.2188 78.418-22.5098L67.1387-9.66797C65.4785-7.76367 64.1113-6.98242 61.0352-6.98242ZM39.0137-19.1895C40.332-19.1895 41.4062-19.6289 42.2363-20.5078L50.5859-28.8086L58.9355-20.5078C59.7656-19.6289 60.8398-19.1895 62.1582-19.1895C64.6484-19.1895 66.5527-21.1426 66.5527-23.6328C66.5527-24.8047 66.1133-25.8301 65.2344-26.709L56.8848-35.1074L65.2832-43.5547C66.1621-44.3848 66.6016-45.459 66.6016-46.582C66.6016-49.0723 64.6973-50.9766 62.207-50.9766C60.9375-50.9766 59.9121-50.5859 59.0332-49.707L50.5859-41.3086L42.1875-49.6582C41.3574-50.5371 40.332-50.9277 39.0137-50.9277C36.5234-50.9277 34.6191-49.0234 34.6191-46.5332C34.6191-45.4102 35.1074-44.3359 35.9375-43.5059L44.3359-35.1074L35.9375-26.6602C35.1074-25.8301 34.6191-24.7559 34.6191-23.6328C34.6191-21.1426 36.5234-19.1895 39.0137-19.1895Z"/>
  </g>
  <g id="Semibold-S" transform="matrix(1 0 0 1 1993.39 696)">
   <path d="M37.793 2.97852L61.9629 2.97852C66.748 2.97852 69.8242 1.31836 72.4609-1.70898L86.4746-17.627C89.2578-20.8496 89.9902-22.9004 89.9902-27.1973L89.9902-43.0176C89.9902-47.3145 89.2578-49.3652 86.4746-52.5879L72.4609-68.5059C69.8242-71.5332 66.748-73.1934 61.9629-73.1934L37.793-73.1934C33.0566-73.1934 29.9805-71.5332 27.2949-68.5059L13.3301-52.5879C10.498-49.3652 9.76562-47.3145 9.76562-43.0176L9.76562-27.1973C9.76562-22.9004 10.498-20.8496 13.3301-17.627L27.2949-1.70898C29.9805 1.31836 33.0566 2.97852 37.793 2.97852ZM39.7461-6.20117C36.5234-6.20117 35.3027-6.93359 33.5449-8.88672L21.6309-22.3633C20.166-24.0234 19.8242-25.0977 19.8242-27.8809L19.8242-42.334C19.8242-45.1172 20.166-46.1914 21.6309-47.9004L33.5449-61.3281C35.3027-63.2812 36.5234-64.0625 39.7461-64.0625L60.0098-64.0625C63.2324-64.0625 64.4531-63.2812 66.2109-61.3281L78.125-47.9004C79.5898-46.1914 79.9805-45.1172 79.9805-42.334L79.9805-27.8809C79.9805-25.0977 79.5898-24.0234 78.125-22.3633L66.2109-8.88672C64.4531-6.93359 63.2324-6.20117 60.0098-6.20117ZM37.8418-18.9941C39.0137-18.9941 40.0391-19.3848 40.8203-20.2148L49.9023-29.2969L59.0332-20.2148C59.7656-19.4336 60.7422-18.9941 61.9629-18.9941C64.2578-18.9941 66.0156-20.8008 66.0156-23.0957C66.0156-24.1699 65.5762-25.1465 64.7949-25.9277L55.7129-35.0586L64.8438-44.2383C65.6738-45.0684 66.0645-45.9961 66.0645-47.0703C66.0645-49.3652 64.2578-51.123 62.0117-51.123C60.8398-51.123 59.9609-50.7812 59.1309-49.9512L49.9023-40.7715L40.7715-49.9023C39.9902-50.6836 39.0137-51.0742 37.8418-51.0742C35.5957-51.0742 33.7891-49.3164 33.7891-47.0215C33.7891-45.9473 34.2285-44.9707 35.0098-44.2383L44.1406-35.0586L35.0098-25.8789C34.2285-25.1465 33.7891-24.1699 33.7891-23.0957C33.7891-20.8008 35.5957-18.9941 37.8418-18.9941Z"/>
  </g>
  <g id="Medium-S" transform="matrix(1 0 0 1 1697.19 696)">
   <path d="M37.3047 2.63672L61.4258 2.63672C66.0645 2.63672 68.8477 1.12305 71.4355-1.75781L85.5469-17.7246C88.2812-20.8008 88.9648-22.8027 88.9648-26.8555L88.9648-43.3105C88.9648-47.3633 88.2812-49.3652 85.5469-52.4414L71.4355-68.4082C68.8477-71.2891 66.0645-72.8027 61.4258-72.8027L37.3047-72.8027C32.666-72.8027 29.8828-71.2891 27.3438-68.4082L13.1836-52.4414C10.498-49.3652 9.76562-47.3633 9.76562-43.3105L9.76562-26.8555C9.76562-22.8027 10.498-20.8008 13.1836-17.7246L27.3438-1.75781C29.8828 1.12305 32.666 2.63672 37.3047 2.63672ZM39.502-5.56641C36.1816-5.56641 35.0098-6.29883 33.2031-8.30078L20.8008-22.2168C19.3359-23.877 18.9941-24.9023 18.9941-27.6367L18.9941-42.5293C18.9941-45.2637 19.3359-46.2891 20.8008-47.9492L33.2031-61.8652C35.0098-63.8672 36.1816-64.5996 39.502-64.5996L59.2773-64.5996C62.5488-64.5996 63.7207-63.8672 65.5273-61.8652L77.9297-47.9492C79.3945-46.2891 79.7363-45.2637 79.7363-42.5293L79.7363-27.6367C79.7363-24.9023 79.3945-23.877 77.9297-22.2168L65.5273-8.30078C63.7207-6.29883 62.5488-5.56641 59.2773-5.56641ZM37.0117-18.8477C38.0859-18.8477 39.0137-19.2383 39.7461-19.9707L49.3652-29.6387L59.082-19.9707C59.7656-19.2871 60.6934-18.8477 61.8164-18.8477C63.916-18.8477 65.625-20.5566 65.625-22.7051C65.625-23.7305 65.1855-24.6582 64.4531-25.3418L54.7852-35.0586L64.502-44.8242C65.2832-45.5566 65.6738-46.4355 65.6738-47.4121C65.6738-49.5605 63.9648-51.2695 61.8652-51.2695C60.791-51.2695 59.9609-50.8789 59.1797-50.0977L49.3652-40.3809L39.6484-50.0977C38.9648-50.8301 38.0859-51.1719 37.0117-51.1719C34.8633-51.1719 33.1543-49.5117 33.1543-47.4121C33.1543-46.3867 33.5938-45.459 34.3262-44.7754L43.9941-35.0586L34.3262-25.3418C33.5938-24.6582 33.1543-23.6816 33.1543-22.7051C33.1543-20.5566 34.8633-18.8477 37.0117-18.8477Z"/>
  </g>
  <g id="Regular-S" transform="matrix(1 0 0 1 1401.14 696)">
   <path d="M36.6211 2.24609L60.7422 2.24609C65.1855 2.24609 67.627 0.830078 70.0195-1.80664L84.3262-17.8223C86.9629-20.752 87.6465-22.6074 87.6465-26.4648L87.6465-43.6035C87.6465-47.4609 86.9629-49.3652 84.3262-52.2949L70.0195-68.3105C67.627-70.9473 65.1855-72.3633 60.7422-72.3633L36.6211-72.3633C32.2266-72.3633 29.7363-70.9473 27.3926-68.3105L13.0371-52.2949C10.4492-49.3652 9.76562-47.4609 9.76562-43.6035L9.76562-26.4648C9.76562-22.6074 10.4492-20.752 13.0371-17.8223L27.3926-1.80664C29.7363 0.830078 32.2266 2.24609 36.6211 2.24609ZM39.1113-4.78516C35.7422-4.78516 34.668-5.46875 32.7637-7.51953L19.7266-22.0215C18.2617-23.6816 17.9199-24.6094 17.9199-27.3438L17.9199-42.7246C17.9199-45.5078 18.2617-46.3867 19.7266-48.0469L32.7637-62.5488C34.668-64.6484 35.7422-65.332 39.1113-65.332L58.252-65.332C61.6699-65.332 62.7441-64.6484 64.6484-62.5488L77.6855-48.0469C79.1504-46.3867 79.4922-45.5078 79.4922-42.7246L79.4922-27.3438C79.4922-24.6094 79.1504-23.6816 77.6855-22.0215L64.6484-7.51953C62.7441-5.46875 61.6699-4.78516 58.252-4.78516ZM35.8398-18.6523C36.8164-18.6523 37.6953-18.9941 38.2812-19.6777L48.6816-30.127L59.1309-19.6777C59.7656-19.043 60.5957-18.6523 61.6211-18.6523C63.5254-18.6523 65.0879-20.2148 65.0879-22.168C65.0879-23.1445 64.6973-23.9746 64.0625-24.6094L53.6621-35.0098L64.1113-45.5078C64.7949-46.2402 65.1367-46.9727 65.1367-47.9004C65.1367-49.8535 63.5742-51.416 61.6211-51.416C60.7422-51.416 60.0098-51.0742 59.2773-50.3418L48.6816-39.8438L38.2324-50.293C37.5977-50.9766 36.8164-51.3184 35.8398-51.3184C33.9355-51.3184 32.373-49.8047 32.373-47.8516C32.373-46.9238 32.7637-46.0938 33.3984-45.459L43.7988-35.0098L33.3984-24.5605C32.7637-23.9746 32.373-23.0957 32.373-22.168C32.373-20.2148 33.9355-18.6523 35.8398-18.6523Z"/>
  </g>
  <g id="Light-S" transform="matrix(1 0 0 1 1105.16 696)">
   <path d="M36.7188 1.75781L59.2285 1.75781C64.4043 1.75781 66.6016 0.0488281 69.2383-2.7832L83.1055-18.0176C85.5469-20.7031 86.1816-22.4609 86.1816-26.2207L86.1816-43.9941C86.1816-47.7539 85.5469-49.5117 83.1055-52.2461L69.2383-67.4805C66.6016-70.2637 64.4043-71.9727 59.2285-71.9727L36.7188-71.9727C31.543-71.9727 29.2969-70.2637 26.709-67.4805L12.8418-52.2461C10.4004-49.5117 9.76562-47.7539 9.76562-43.9941L9.76562-26.2207C9.76562-22.4609 10.4004-20.7031 12.8418-18.0176L26.709-2.7832C29.2969 0.0488281 31.543 1.75781 36.7188 1.75781ZM38.4277-3.61328C34.2773-3.61328 33.1543-4.58984 30.8105-7.08008L17.8223-21.2891C16.3086-22.998 15.9668-24.0234 15.9668-26.8066L15.9668-43.4082C15.9668-46.2402 16.3086-47.2168 17.8223-48.9258L30.8105-63.1348C33.1543-65.625 34.2773-66.6016 38.4277-66.6016L57.5195-66.6016C61.6699-66.6016 62.7441-65.625 65.0879-63.1348L78.125-48.9258C79.6387-47.2168 79.9805-46.2402 79.9805-43.4082L79.9805-26.8066C79.9805-24.0234 79.6387-22.998 78.125-21.2891L65.0879-7.08008C62.7441-4.58984 61.6699-3.61328 57.5195-3.61328ZM34.7656-19.1406C35.5469-19.1406 36.2305-19.4336 36.7676-19.9707L47.9492-31.25L59.2285-19.9707C59.7656-19.4824 60.4004-19.1406 61.1816-19.1406C62.6953-19.1406 63.916-20.3613 63.916-21.875C63.916-22.6562 63.623-23.291 63.0859-23.8281L51.8555-35.0586L63.1348-46.3867C63.7207-46.9727 63.9648-47.5586 63.9648-48.3398C63.9648-49.8047 62.7441-51.0254 61.2305-51.0254C60.498-51.0254 59.9121-50.7812 59.3262-50.1465L47.9492-38.8672L36.6699-50.1465C36.1328-50.6836 35.5469-50.9766 34.7656-50.9766C33.252-50.9766 32.0312-49.8047 32.0312-48.291C32.0312-47.5098 32.3242-46.875 32.8613-46.3867L44.1406-35.0586L32.8613-23.7793C32.3242-23.291 32.0312-22.6074 32.0312-21.875C32.0312-20.3613 33.252-19.1406 34.7656-19.1406Z"/>
  </g>
  <g id="Thin-S" transform="matrix(1 0 0 1 809.425 696)">
   <path d="M36.8164 1.12305L57.1777 1.12305C63.3789 1.12305 65.2832-0.976562 68.1641-4.05273L81.4453-18.2617C83.6426-20.6543 84.2285-22.2168 84.2285-25.8789L84.2285-44.4824C84.2285-48.1934 83.6426-49.7559 81.4453-52.1484L68.1641-66.3574C65.2832-69.3848 63.3789-71.4844 57.1777-71.4844L36.8164-71.4844C30.6641-71.4844 28.7598-69.3848 25.8301-66.3574L12.5977-52.1484C10.3516-49.7559 9.76562-48.1934 9.76562-44.4824L9.76562-25.8789C9.76562-22.2168 10.3516-20.6543 12.5977-18.2617L25.8301-4.05273C28.7598-0.976562 30.6641 1.12305 36.8164 1.12305ZM37.5-2.14844C32.373-2.14844 31.2012-3.41797 28.2715-6.54297L15.332-20.3613C13.7207-22.0703 13.3789-23.1934 13.3789-26.123L13.3789-44.2871C13.3789-47.168 13.7207-48.3398 15.332-50.0488L28.2715-63.8672C31.2012-66.9922 32.373-68.2617 37.5-68.2617L56.4941-68.2617C61.6211-68.2617 62.793-66.9922 65.7227-63.8672L78.6621-50.0488C80.2734-48.3398 80.6152-47.168 80.6152-44.2871L80.6152-26.123C80.6152-23.1934 80.2734-22.0703 78.6621-20.3613L65.7227-6.54297C62.793-3.41797 61.6211-2.14844 56.4941-2.14844ZM33.3496-19.7754C33.8867-19.7754 34.2773-19.9707 34.7168-20.4102L47.0215-32.7148L59.3262-20.4102C59.7168-19.9707 60.1562-19.7754 60.6445-19.7754C61.6211-19.7754 62.4023-20.5566 62.4023-21.4844C62.4023-22.0215 62.207-22.4121 61.8164-22.8027L49.4629-35.1562L61.8652-47.5586C62.2559-47.9492 62.4023-48.3398 62.4023-48.8281C62.4023-49.8047 61.6211-50.5371 60.6445-50.5371C60.1562-50.5371 59.8145-50.3418 59.3262-49.9023L47.0215-37.5977L34.668-49.9023C34.2773-50.3418 33.8867-50.4883 33.3496-50.4883C32.373-50.4883 31.6406-49.7559 31.6406-48.8281C31.6406-48.3398 31.7871-47.9004 32.1777-47.5586L44.5312-35.1562L32.1777-22.7539C31.7871-22.4121 31.6406-21.9727 31.6406-21.4844C31.6406-20.5566 32.373-19.7754 33.3496-19.7754Z"/>
  </g>
  <g id="Ultralight-S" transform="matrix(1 0 0 1 513.202 696)">
   <path d="M36.9141 0.78125L56.1035 0.78125C62.8418 0.78125 64.5508-1.51367 67.627-4.73633L80.5664-18.3594C82.7148-20.6055 83.252-22.1191 83.252-25.7324L83.252-44.7754C83.252-48.3887 82.7148-49.8535 80.5664-52.0996L67.627-65.7715C64.5508-68.9453 62.8418-71.2402 56.1035-71.2402L36.9141-71.2402C30.1758-71.2402 28.418-68.9453 25.3906-65.7715L12.4512-52.0996C10.3027-49.8535 9.76562-48.3887 9.76562-44.7754L9.76562-25.7324C9.76562-22.1191 10.3027-20.6055 12.4512-18.3594L25.3906-4.73633C28.418-1.51367 30.1758 0.78125 36.9141 0.78125ZM37.0117-1.36719C31.3965-1.36719 30.2246-2.83203 26.9531-6.20117L14.0137-19.8242C12.3535-21.582 12.0117-22.8027 12.0117-25.7812L12.0117-44.7266C12.0117-47.7051 12.3535-48.877 14.0137-50.6348L26.9531-64.2578C30.2246-67.6758 31.3965-69.1406 37.0117-69.1406L55.957-69.1406C61.6211-69.1406 62.793-67.6758 66.0645-64.2578L79.0039-50.6348C80.6152-48.877 80.957-47.7051 80.957-44.7266L80.957-25.7812C80.957-22.8027 80.6152-21.582 79.0039-19.8242L66.0645-6.20117C62.793-2.83203 61.6211-1.36719 55.957-1.36719ZM32.6172-20.1172C33.0566-20.1172 33.3008-20.2637 33.6426-20.6055L46.4844-33.4473L59.375-20.6055C59.7168-20.2637 60.0098-20.1172 60.3516-20.1172C61.084-20.1172 61.6211-20.6543 61.6211-21.2891C61.6211-21.6797 61.4746-21.9238 61.1816-22.2656L48.2422-35.2051L61.1816-48.1445C61.5234-48.4863 61.6211-48.7305 61.6211-49.1211C61.6211-49.7559 61.084-50.2441 60.3516-50.2441C60.0098-50.2441 59.7168-50.1465 59.375-49.8047L46.4844-36.9141L33.6426-49.8047C33.3008-50.1465 33.0566-50.2441 32.6172-50.2441C31.9336-50.2441 31.3965-49.7559 31.3965-49.1211C31.3965-48.7305 31.4941-48.4375 31.8359-48.1445L44.7754-35.2051L31.8359-22.2168C31.4941-21.9238 31.3965-21.6797 31.3965-21.2891C31.3965-20.6543 31.9336-20.1172 32.6172-20.1172Z"/>
  </g>
 </g>
</svg>
