<?xml version="1.0" encoding="UTF-8"?>
<!--Generator: Apple Native CoreSVG 149-->
<!DOCTYPE svg
PUBLIC "-//W3C//DTD SVG 1.1//EN"
       "http://www.w3.org/Graphics/SVG/1.1/DTD/svg11.dtd">
<svg version="1.1" xmlns="http://www.w3.org/2000/svg" xmlns:xlink="http://www.w3.org/1999/xlink" width="3300" height="2200">
 <!--glyph: "uni1001C4.medium", point size: 100.000000, font version: "Version 16.0d12e3", template writer version: "8"-->
 <g id="Notes">
  <rect height="2200" id="artboard" style="fill:white;opacity:1" width="3300" x="0" y="0"/>
  <line id="" style="fill:none;stroke:black;opacity:1;stroke-width:0.5;" x1="263" x2="3036" y1="292" y2="292"/>
  <text style="stroke:none;fill:black;font-family:-apple-system,&quot;SF Pro Display&quot;,&quot;SF Pro Text&quot;,Helvetica,sans-serif;font-weight:bold;" transform="matrix(1 0 0 1 263 322)">Weight/Scale Variations</text>
  <text style="stroke:none;fill:black;font-family:-apple-system,&quot;SF Pro Display&quot;,&quot;SF Pro Text&quot;,Helvetica,sans-serif;text-anchor:middle;" transform="matrix(1 0 0 1 559.711 322)">Ultralight</text>
  <text style="stroke:none;fill:black;font-family:-apple-system,&quot;SF Pro Display&quot;,&quot;SF Pro Text&quot;,Helvetica,sans-serif;text-anchor:middle;" transform="matrix(1 0 0 1 856.422 322)">Thin</text>
  <text style="stroke:none;fill:black;font-family:-apple-system,&quot;SF Pro Display&quot;,&quot;SF Pro Text&quot;,Helvetica,sans-serif;text-anchor:middle;" transform="matrix(1 0 0 1 1153.13 322)">Light</text>
  <text style="stroke:none;fill:black;font-family:-apple-system,&quot;SF Pro Display&quot;,&quot;SF Pro Text&quot;,Helvetica,sans-serif;text-anchor:middle;" transform="matrix(1 0 0 1 1449.84 322)">Regular</text>
  <text style="stroke:none;fill:black;font-family:-apple-system,&quot;SF Pro Display&quot;,&quot;SF Pro Text&quot;,Helvetica,sans-serif;text-anchor:middle;" transform="matrix(1 0 0 1 1746.56 322)">Medium</text>
  <text style="stroke:none;fill:black;font-family:-apple-system,&quot;SF Pro Display&quot;,&quot;SF Pro Text&quot;,Helvetica,sans-serif;text-anchor:middle;" transform="matrix(1 0 0 1 2043.27 322)">Semibold</text>
  <text style="stroke:none;fill:black;font-family:-apple-system,&quot;SF Pro Display&quot;,&quot;SF Pro Text&quot;,Helvetica,sans-serif;text-anchor:middle;" transform="matrix(1 0 0 1 2339.98 322)">Bold</text>
  <text style="stroke:none;fill:black;font-family:-apple-system,&quot;SF Pro Display&quot;,&quot;SF Pro Text&quot;,Helvetica,sans-serif;text-anchor:middle;" transform="matrix(1 0 0 1 2636.69 322)">Heavy</text>
  <text style="stroke:none;fill:black;font-family:-apple-system,&quot;SF Pro Display&quot;,&quot;SF Pro Text&quot;,Helvetica,sans-serif;text-anchor:middle;" transform="matrix(1 0 0 1 2933.4 322)">Black</text>
  <line id="" style="fill:none;stroke:black;opacity:1;stroke-width:0.5;" x1="263" x2="3036" y1="1903" y2="1903"/>
  <g id="" transform="matrix(1 0 0 1 263 1933)">
   <path d="M9.24805 0.830078C13.5547 0.830078 17.1387-2.74414 17.1387-7.05078C17.1387-11.3574 13.5449-14.9316 9.23828-14.9316C4.94141-14.9316 1.36719-11.3574 1.36719-7.05078C1.36719-2.74414 4.95117 0.830078 9.24805 0.830078ZM9.24805-0.654297C5.70312-0.654297 2.87109-3.49609 2.87109-7.05078C2.87109-10.6055 5.69336-13.4473 9.23828-13.4473C12.793-13.4473 15.6348-10.6055 15.6445-7.05078C15.6543-3.49609 12.8027-0.654297 9.24805-0.654297ZM9.22852-3.62305C9.69727-3.62305 9.9707-3.93555 9.9707-4.45312L9.9707-6.31836L12.002-6.31836C12.5-6.31836 12.832-6.57227 12.832-7.04102C12.832-7.51953 12.5195-7.7832 12.002-7.7832L9.9707-7.7832L9.9707-9.81445C9.9707-10.332 9.69727-10.6543 9.22852-10.6543C8.75977-10.6543 8.50586-10.3125 8.50586-9.81445L8.50586-7.7832L6.49414-7.7832C5.97656-7.7832 5.64453-7.51953 5.64453-7.04102C5.64453-6.57227 5.99609-6.31836 6.49414-6.31836L8.50586-6.31836L8.50586-4.45312C8.50586-3.95508 8.75977-3.62305 9.22852-3.62305Z"/>
  </g>
  <g id="" transform="matrix(1 0 0 1 281.506 1933)">
   <path d="M11.709 2.91016C17.1582 2.91016 21.6699-1.61133 21.6699-7.05078C21.6699-12.5 17.1484-17.0117 11.6992-17.0117C6.25977-17.0117 1.74805-12.5 1.74805-7.05078C1.74805-1.61133 6.26953 2.91016 11.709 2.91016ZM11.709 1.25C7.09961 1.25 3.41797-2.44141 3.41797-7.05078C3.41797-11.6602 7.08984-15.3516 11.6992-15.3516C16.3086-15.3516 20-11.6602 20.0098-7.05078C20.0195-2.44141 16.3184 1.25 11.709 1.25ZM11.6797-2.66602C12.207-2.66602 12.5098-3.01758 12.5098-3.59375L12.5098-6.23047L15.3223-6.23047C15.8691-6.23047 16.25-6.51367 16.25-7.03125C16.25-7.55859 15.8887-7.86133 15.3223-7.86133L12.5098-7.86133L12.5098-10.6836C12.5098-11.25 12.207-11.6113 11.6797-11.6113C11.1621-11.6113 10.8789-11.2305 10.8789-10.6836L10.8789-7.86133L8.07617-7.86133C7.50977-7.86133 7.13867-7.55859 7.13867-7.03125C7.13867-6.51367 7.5293-6.23047 8.07617-6.23047L10.8789-6.23047L10.8789-3.59375C10.8789-3.03711 11.1621-2.66602 11.6797-2.66602Z"/>
  </g>
  <g id="" transform="matrix(1 0 0 1 304.924 1933)">
   <path d="M14.9707 5.66406C21.9336 5.66406 27.6953-0.0976562 27.6953-7.05078C27.6953-14.0137 21.9238-19.7754 14.9609-19.7754C8.00781-19.7754 2.25586-14.0137 2.25586-7.05078C2.25586-0.0976562 8.01758 5.66406 14.9707 5.66406ZM14.9707 3.84766C8.93555 3.84766 4.08203-1.01562 4.08203-7.05078C4.08203-13.0957 8.92578-17.9492 14.9609-17.9492C21.0059-17.9492 25.8594-13.0957 25.8691-7.05078C25.8789-1.01562 21.0156 3.84766 14.9707 3.84766ZM14.9414-1.38672C15.5176-1.38672 15.8594-1.77734 15.8594-2.38281L15.8594-6.13281L19.7754-6.13281C20.3711-6.13281 20.7812-6.46484 20.7812-7.02148C20.7812-7.59766 20.3906-7.93945 19.7754-7.93945L15.8594-7.93945L15.8594-11.8652C15.8594-12.4805 15.5176-12.8711 14.9414-12.8711C14.375-12.8711 14.0527-12.4609 14.0527-11.8652L14.0527-7.93945L10.1465-7.93945C9.53125-7.93945 9.13086-7.59766 9.13086-7.02148C9.13086-6.46484 9.55078-6.13281 10.1465-6.13281L14.0527-6.13281L14.0527-2.38281C14.0527-1.79688 14.375-1.38672 14.9414-1.38672Z"/>
  </g>
  <text style="stroke:none;fill:black;font-family:-apple-system,&quot;SF Pro Display&quot;,&quot;SF Pro Text&quot;,Helvetica,sans-serif;font-weight:bold;" transform="matrix(1 0 0 1 263 1953)">Design Variations</text>
  <text style="stroke:none;fill:black;font-family:-apple-system,&quot;SF Pro Display&quot;,&quot;SF Pro Text&quot;,Helvetica,sans-serif;" transform="matrix(1 0 0 1 263 1971)">Symbols are supported in up to nine weights and three scales.</text>
  <text style="stroke:none;fill:black;font-family:-apple-system,&quot;SF Pro Display&quot;,&quot;SF Pro Text&quot;,Helvetica,sans-serif;" transform="matrix(1 0 0 1 263 1989)">For optimal layout with text and other symbols, vertically align</text>
  <text style="stroke:none;fill:black;font-family:-apple-system,&quot;SF Pro Display&quot;,&quot;SF Pro Text&quot;,Helvetica,sans-serif;" transform="matrix(1 0 0 1 263 2007)">symbols with the adjacent text.</text>
  <line id="" style="fill:none;stroke:#00AEEF;stroke-width:0.5;opacity:1.0;" x1="776" x2="776" y1="1919" y2="1933"/>
  <g id="" transform="matrix(1 0 0 1 776 1933)">
   <path d="M3.31055 0.126953C3.82812 0.126953 4.08203-0.0683594 4.26758-0.605469L5.52734-4.0625L11.2891-4.0625L12.5488-0.605469C12.7344-0.0683594 12.9883 0.126953 13.4961 0.126953C14.0137 0.126953 14.3457-0.185547 14.3457-0.673828C14.3457-0.839844 14.3164-0.986328 14.2383-1.20117L9.6582-13.3887C9.43359-13.9941 9.0332-14.2871 8.4082-14.2871C7.80273-14.2871 7.39258-13.9941 7.17773-13.3984L2.59766-1.19141C2.51953-0.976562 2.49023-0.830078 2.49023-0.664062C2.49023-0.175781 2.80273 0.126953 3.31055 0.126953ZM6.00586-5.53711L8.37891-12.1094L8.42773-12.1094L10.8008-5.53711Z"/>
  </g>
  <line id="" style="fill:none;stroke:#00AEEF;stroke-width:0.5;opacity:1.0;" x1="792.836" x2="792.836" y1="1919" y2="1933"/>
  <text style="stroke:none;fill:black;font-family:-apple-system,&quot;SF Pro Display&quot;,&quot;SF Pro Text&quot;,Helvetica,sans-serif;font-weight:bold;" transform="matrix(1 0 0 1 776 1953)">Margins</text>
  <text style="stroke:none;fill:black;font-family:-apple-system,&quot;SF Pro Display&quot;,&quot;SF Pro Text&quot;,Helvetica,sans-serif;" transform="matrix(1 0 0 1 776 1971)">Leading and trailing margins on the left and right side of each symbol</text>
  <text style="stroke:none;fill:black;font-family:-apple-system,&quot;SF Pro Display&quot;,&quot;SF Pro Text&quot;,Helvetica,sans-serif;" transform="matrix(1 0 0 1 776 1989)">can be adjusted by modifying the x-location of the margin guidelines.</text>
  <text style="stroke:none;fill:black;font-family:-apple-system,&quot;SF Pro Display&quot;,&quot;SF Pro Text&quot;,Helvetica,sans-serif;" transform="matrix(1 0 0 1 776 2007)">Modifications are automatically applied proportionally to all</text>
  <text style="stroke:none;fill:black;font-family:-apple-system,&quot;SF Pro Display&quot;,&quot;SF Pro Text&quot;,Helvetica,sans-serif;" transform="matrix(1 0 0 1 776 2025)">scales and weights.</text>
  <g id="" transform="matrix(1 0 0 1 1289 1933)">
   <path d="M2.8418 1.86523L4.54102 3.57422C5.40039 4.44336 6.38672 4.38477 7.31445 3.35938L17.4902-7.85156C17.7539-7.76367 18.0273-7.7832 18.3398-7.8418L19.4043-8.03711L20.0684-7.36328L20.0293-6.80664C19.9902-6.30859 20.1172-5.92773 20.6055-5.44922L21.3672-4.70703C21.8457-4.22852 22.4609-4.19922 22.9297-4.66797L25.8398-7.58789C26.3086-8.05664 26.2891-8.65234 25.8105-9.13086L25.0391-9.89258C24.5605-10.3711 24.1895-10.5273 23.7109-10.4883L23.1348-10.4395L22.4902-11.0742L22.7344-12.1973C22.8613-12.7637 22.7051-13.2031 22.1191-13.7891L19.9219-15.9766C16.582-19.2969 12.1484-19.2188 9.25781-16.3281C8.83789-15.918 8.80859-15.3418 9.04297-14.9512C9.27734-14.5898 9.73633-14.3555 10.3809-14.5215C11.8457-14.8633 13.3691-14.9219 14.7949-13.9844L14.209-12.5293C14.0137-12.0508 13.9844-11.6504 14.1113-11.2891L3.04688-0.898438C2.06055 0.0195312 1.98242 0.996094 2.8418 1.86523ZM10.752-15.957C13.1836-17.7344 16.4746-17.4316 18.7012-15.2051L21.1328-12.793C21.3672-12.5586 21.4062-12.373 21.3379-12.0312L21.0156-10.5469L22.5195-9.0625L23.5059-9.12109C23.7598-9.13086 23.8379-9.11133 24.0332-8.91602L24.6094-8.33984L22.168-5.89844L21.5918-6.47461C21.3965-6.66992 21.3672-6.74805 21.377-7.01172L21.4453-7.98828L19.9512-9.47266L18.4277-9.21875C18.1055-9.15039 17.959-9.17969 17.7148-9.41406L15.7129-11.416C15.459-11.6504 15.4297-11.8164 15.5859-12.1875L16.4648-14.2773C14.9023-15.7324 12.8711-16.3574 10.8398-15.7617C10.6836-15.7227 10.625-15.8496 10.752-15.957ZM5.27344 2.30469L4.10156 1.14258C3.63281 0.683594 3.74023 0.341797 4.14062-0.0195312L14.9512-10.1953L16.416-8.71094L6.42578 2.27539C6.07422 2.67578 5.74219 2.77344 5.27344 2.30469Z"/>
  </g>
  <text style="stroke:none;fill:black;font-family:-apple-system,&quot;SF Pro Display&quot;,&quot;SF Pro Text&quot;,Helvetica,sans-serif;font-weight:bold;" transform="matrix(1 0 0 1 1289 1953)">Exporting</text>
  <text style="stroke:none;fill:black;font-family:-apple-system,&quot;SF Pro Display&quot;,&quot;SF Pro Text&quot;,Helvetica,sans-serif;" transform="matrix(1 0 0 1 1289 1971)">Symbols should be outlined when exporting to ensure the</text>
  <text style="stroke:none;fill:black;font-family:-apple-system,&quot;SF Pro Display&quot;,&quot;SF Pro Text&quot;,Helvetica,sans-serif;" transform="matrix(1 0 0 1 1289 1989)">design is preserved when submitting to Xcode.</text>
  <text id="template-version" style="stroke:none;fill:black;font-family:-apple-system,&quot;SF Pro Display&quot;,&quot;SF Pro Text&quot;,Helvetica,sans-serif;text-anchor:end;" transform="matrix(1 0 0 1 3036 1933)">Template v.2.0</text>
  <text style="stroke:none;fill:black;font-family:-apple-system,&quot;SF Pro Display&quot;,&quot;SF Pro Text&quot;,Helvetica,sans-serif;text-anchor:end;" transform="matrix(1 0 0 1 3036 1951)">Requires Xcode 12 or greater</text>
  <text style="stroke:none;fill:black;font-family:-apple-system,&quot;SF Pro Display&quot;,&quot;SF Pro Text&quot;,Helvetica,sans-serif;text-anchor:end;" transform="matrix(1 0 0 1 3036 1969)">Generated from cloud.drizzle</text>
  <text style="stroke:none;fill:black;font-family:-apple-system,&quot;SF Pro Display&quot;,&quot;SF Pro Text&quot;,Helvetica,sans-serif;text-anchor:end;" transform="matrix(1 0 0 1 3036 1987)">Typeset at 100 points</text>
  <text style="stroke:none;fill:black;font-family:-apple-system,&quot;SF Pro Display&quot;,&quot;SF Pro Text&quot;,Helvetica,sans-serif;" transform="matrix(1 0 0 1 263 726)">Small</text>
  <text style="stroke:none;fill:black;font-family:-apple-system,&quot;SF Pro Display&quot;,&quot;SF Pro Text&quot;,Helvetica,sans-serif;" transform="matrix(1 0 0 1 263 1156)">Medium</text>
  <text style="stroke:none;fill:black;font-family:-apple-system,&quot;SF Pro Display&quot;,&quot;SF Pro Text&quot;,Helvetica,sans-serif;" transform="matrix(1 0 0 1 263 1586)">Large</text>
 </g>
 <g id="Guides">
  <g id="H-reference" style="fill:#27AAE1;stroke:none;" transform="matrix(1 0 0 1 339 696)">
   <path d="M0.976562 0L3.66211 0L12.9883-24.4629L45.752-24.4629L55.127 0L57.7637 0L30.6152-70.459L28.125-70.459ZM29.3457-67.1387L29.4434-67.1387L44.873-26.709L13.8672-26.709Z"/>
  </g>
  <line id="Baseline-S" style="fill:none;stroke:#27AAE1;opacity:1;stroke-width:0.5;" x1="263" x2="3036" y1="696" y2="696"/>
  <line id="Capline-S" style="fill:none;stroke:#27AAE1;opacity:1;stroke-width:0.5;" x1="263" x2="3036" y1="625.541" y2="625.541"/>
  <g id="H-reference" style="fill:#27AAE1;stroke:none;" transform="matrix(1 0 0 1 339 1126)">
   <path d="M0.976562 0L3.66211 0L12.9883-24.4629L45.752-24.4629L55.127 0L57.7637 0L30.6152-70.459L28.125-70.459ZM29.3457-67.1387L29.4434-67.1387L44.873-26.709L13.8672-26.709Z"/>
  </g>
  <line id="Baseline-M" style="fill:none;stroke:#27AAE1;opacity:1;stroke-width:0.5;" x1="263" x2="3036" y1="1126" y2="1126"/>
  <line id="Capline-M" style="fill:none;stroke:#27AAE1;opacity:1;stroke-width:0.5;" x1="263" x2="3036" y1="1055.54" y2="1055.54"/>
  <g id="H-reference" style="fill:#27AAE1;stroke:none;" transform="matrix(1 0 0 1 339 1556)">
   <path d="M0.976562 0L3.66211 0L12.9883-24.4629L45.752-24.4629L55.127 0L57.7637 0L30.6152-70.459L28.125-70.459ZM29.3457-67.1387L29.4434-67.1387L44.873-26.709L13.8672-26.709Z"/>
  </g>
  <line id="Baseline-L" style="fill:none;stroke:#27AAE1;opacity:1;stroke-width:0.5;" x1="263" x2="3036" y1="1556" y2="1556"/>
  <line id="Capline-L" style="fill:none;stroke:#27AAE1;opacity:1;stroke-width:0.5;" x1="263" x2="3036" y1="1485.54" y2="1485.54"/>
  <line id="left-margin" style="fill:none;stroke:#00AEEF;stroke-width:0.5;opacity:1.0;" x1="1385.34" x2="1385.34" y1="1030.79" y2="1150.12"/>
  <line id="right-margin" style="fill:none;stroke:#00AEEF;stroke-width:0.5;opacity:1.0;" x1="1514.35" x2="1514.35" y1="1030.79" y2="1150.12"/>
 </g>
 <g id="Symbols">
  <g id="Black-L" transform="matrix(1 0 0 1 2845.61 1556)">
   <path d="M45.1172-1.17188L124.561-1.17188C147.168-1.17188 164.307-18.4082 164.307-40.2832C164.307-62.4512 147.217-79.5898 124.512-79.5898C117.236-93.6523 103.613-104.785 81.543-104.785C55.8105-104.785 35.9375-86.2793 32.5684-62.5977C20.4102-58.3496 11.2793-47.6074 11.2793-33.0566C11.2793-15.0391 24.7559-1.17188 45.1172-1.17188ZM45.6543-19.1895C34.668-19.1895 29.2969-24.8535 29.2969-32.7148C29.2969-39.7461 33.6426-44.9707 43.5547-47.5586C47.8027-48.6328 48.9258-50.5859 49.5605-54.8828C52.5391-75.7812 65.3809-86.7676 81.543-86.7676C93.6035-86.7676 103.809-79.9316 110.742-66.8457C112.598-63.3301 114.6-62.1094 118.994-62.1094C137.842-62.1094 146.289-52.2949 146.289-39.8926C146.289-28.2227 137.549-19.1895 124.219-19.1895ZM98.3398 32.1289L106.104 18.75C107.52 16.2109 106.885 12.9883 104.248 11.4746C101.562 9.96094 98.6816 10.8887 97.1191 13.623L89.3066 27.0508C87.8906 29.541 88.4766 32.666 91.1133 34.1797C93.75 35.6934 96.875 34.6191 98.3398 32.1289ZM48.1445 32.1289L55.9082 18.75C57.373 16.2109 56.7383 13.0371 54.0527 11.4746C51.416 9.96094 48.5352 10.9375 46.9238 13.623L39.1602 27.0508C37.6953 29.541 38.2812 32.7148 40.9668 34.2285C43.6035 35.6934 46.7285 34.6191 48.1445 32.1289ZM118.213 49.7559L125.977 36.377C127.441 33.8867 126.807 30.6641 124.17 29.1504C121.484 27.5879 118.604 28.5645 116.992 31.25L109.229 44.6777C107.812 47.168 108.398 50.3418 111.035 51.8555C113.672 53.3691 116.797 52.2949 118.213 49.7559ZM68.0664 49.8047L75.8301 36.4258C77.2949 33.8867 76.6113 30.6641 73.9746 29.1504C71.3379 27.6367 68.4082 28.6133 66.8457 31.2988L59.082 44.7266C57.6172 47.2168 58.2031 50.3418 60.8887 51.8555C63.5254 53.3691 66.6504 52.2949 68.0664 49.8047Z"/>
  </g>
  <g id="Heavy-L" transform="matrix(1 0 0 1 2550.04 1556)">
   <path d="M43.9941-2.19727L123.242-2.19727C145.264-2.19727 162.012-19.043 162.012-40.2832C162.012-61.8164 145.117-78.3691 122.803-78.3691C115.332-92.7734 101.562-103.711 80.3711-103.711C55.1758-103.711 35.4492-85.2051 32.373-61.5723C20.3613-57.5684 11.2793-47.0703 11.2793-32.8125C11.2793-15.625 24.1211-2.19727 43.9941-2.19727ZM44.3848-18.0176C32.8125-18.0176 27.0508-24.1699 27.0508-32.4707C27.0508-39.7949 31.5918-45.5078 41.6992-48.1445C45.7031-49.1699 46.8262-50.9766 47.3633-54.9805C49.9512-75.8789 63.5742-87.9395 80.3711-87.9395C93.0664-87.9395 103.564-80.7617 110.498-67.4316C112.207-64.1113 114.16-62.8906 118.311-62.8906C137.109-62.8906 146.191-52.6855 146.191-39.8926C146.191-27.6367 136.816-18.0176 123.047-18.0176ZM96.7285 30.2246L104.688 16.4551C106.055 14.1602 105.371 11.2305 102.979 9.81445C100.586 8.44727 97.9004 9.32617 96.4355 11.7676L88.4766 25.5859C87.1582 27.8809 87.6953 30.7129 90.1367 32.1289C92.5293 33.4961 95.3613 32.5195 96.7285 30.2246ZM46.5332 30.2734L54.4922 16.5039C55.8594 14.1602 55.2246 11.2793 52.832 9.86328C50.3906 8.49609 47.7539 9.32617 46.2891 11.8164L38.3301 25.6348C36.9629 27.8809 37.5488 30.7617 39.9902 32.1777C42.3828 33.5449 45.2148 32.5684 46.5332 30.2734ZM116.602 47.9004L124.561 34.1309C125.928 31.7871 125.293 28.9062 122.852 27.4902C120.459 26.123 117.773 27.002 116.357 29.4434L108.35 43.2617C107.031 45.5566 107.568 48.3887 110.01 49.8047C112.402 51.1719 115.283 50.1953 116.602 47.9004ZM66.4551 47.9492L74.4141 34.1797C75.7812 31.8359 75.1465 28.9062 72.7051 27.5391C70.3125 26.1719 67.627 27.002 66.1621 29.4922L58.2031 43.3105C56.8848 45.5566 57.4219 48.4375 59.8633 49.8047C62.2559 51.1719 65.0879 50.2441 66.4551 47.9492Z"/>
  </g>
  <g id="Bold-L" transform="matrix(1 0 0 1 2254.63 1556)">
   <path d="M42.7246-3.36914L121.68-3.36914C143.164-3.36914 159.424-19.7266 159.424-40.2344C159.424-61.1816 142.725-77.002 120.85-77.002C113.232-91.8457 99.2676-102.539 79.0039-102.539C54.4434-102.539 34.8145-83.9844 32.1289-60.4492C20.3125-56.6895 11.2793-46.4355 11.2793-32.5195C11.2793-16.2598 23.3398-3.36914 42.7246-3.36914ZM42.9688-16.6992C30.7129-16.6992 24.5605-23.3887 24.5605-32.2266C24.5605-39.8926 29.2969-46.0938 39.6973-48.8281C43.3594-49.7559 44.4824-51.4648 44.9219-55.1758C47.1191-75.9766 61.5723-89.209 79.0039-89.209C92.5293-89.209 103.369-81.6406 110.205-68.1152C111.816-64.9414 113.672-63.8184 117.529-63.8184C136.23-63.8184 146.094-53.1738 146.094-39.9414C146.094-26.9531 135.938-16.6992 121.777-16.6992ZM94.873 28.125L103.076 13.9648C104.346 11.8164 103.76 9.22852 101.611 8.00781C99.4141 6.78711 97.0703 7.51953 95.752 9.7168L87.5 23.9746C86.3281 26.0254 86.8164 28.5645 89.0137 29.834C91.1621 31.0059 93.7012 30.2246 94.873 28.125ZM44.7266 28.1738L52.9297 13.9648C54.1992 11.8652 53.6133 9.27734 51.4648 8.05664C49.2676 6.78711 46.9238 7.56836 45.6055 9.76562L37.3535 24.0234C36.1816 26.0742 36.6699 28.6133 38.8672 29.834C41.0156 31.0547 43.5547 30.2246 44.7266 28.1738ZM114.746 45.8008L122.949 31.6406C124.17 29.4922 123.584 26.9531 121.436 25.6836C119.287 24.4629 116.895 25.1953 115.576 27.3926L107.373 41.6504C106.152 43.7012 106.689 46.2402 108.838 47.5098C110.986 48.7305 113.525 47.9004 114.746 45.8008ZM64.5996 45.8496L72.8027 31.6895C74.0234 29.541 73.4375 26.9531 71.2891 25.7324C69.1406 24.5117 66.748 25.2441 65.4297 27.4414L57.2266 41.6992C56.0059 43.75 56.543 46.2891 58.6914 47.5586C60.8398 48.7305 63.3789 47.9492 64.5996 45.8496Z"/>
  </g>
  <g id="Semibold-L" transform="matrix(1 0 0 1 1958.82 1556)">
   <path d="M41.8457-4.19922L120.654-4.19922C141.699-4.19922 157.617-20.166 157.617-40.2344C157.617-60.6934 141.113-76.0254 119.482-76.0254C111.768-91.2109 97.7051-101.709 78.0762-101.709C53.9062-101.709 34.4238-83.1543 31.9824-59.668C20.2637-56.0547 11.2793-46.0449 11.2793-32.373C11.2793-16.6992 22.8516-4.19922 41.8457-4.19922ZM41.9922-15.7715C29.2969-15.7715 22.8516-22.8516 22.8516-32.0801C22.8516-39.9414 27.6855-46.4844 38.2812-49.2676C41.748-50.1953 42.8711-51.7578 43.2129-55.2734C45.1172-76.0742 60.1562-90.0879 78.0762-90.0879C92.1387-90.0879 103.223-82.2754 110.059-68.5547C111.572-65.5273 113.33-64.4531 116.992-64.4531C135.645-64.4531 146.045-53.4668 146.045-39.9414C146.045-26.5137 135.352-15.7715 120.898-15.7715ZM93.6523 26.6602L102.002 12.207C103.174 10.2051 102.588 7.91016 100.635 6.73828C98.6816 5.61523 96.4355 6.29883 95.2637 8.30078L86.8652 22.8516C85.7422 24.7559 86.2305 27.0508 88.2324 28.2227C90.1855 29.3457 92.5293 28.6133 93.6523 26.6602ZM43.5059 26.709L51.8555 12.2559C53.0273 10.2539 52.4414 7.91016 50.4883 6.78711C48.5352 5.66406 46.3379 6.29883 45.1172 8.34961L36.7188 22.9004C35.5957 24.8047 36.084 27.0996 38.0859 28.2715C40.0391 29.3945 42.3828 28.6621 43.5059 26.709ZM113.477 44.3359L121.826 29.8828C122.998 27.9297 122.412 25.5859 120.459 24.4141C118.457 23.291 116.26 23.9746 115.088 26.0254L106.689 40.5273C105.566 42.4316 106.055 44.7754 108.057 45.8984C110.01 47.0215 112.354 46.2891 113.477 44.3359ZM63.3301 44.3848L71.6797 29.9316C72.8516 27.9785 72.2656 25.6348 70.3125 24.4629C68.3594 23.3398 66.1133 24.0234 64.9414 26.0742L56.543 40.5762C55.4199 42.4805 55.9082 44.8242 57.9102 45.9473C59.8633 47.0703 62.207 46.3379 63.3301 44.3848Z"/>
  </g>
  <g id="Medium-L" transform="matrix(1 0 0 1 1662.79 1556)">
   <path d="M41.2109-4.78516L119.873-4.78516C140.625-4.78516 156.25-20.5566 156.25-40.1855C156.25-60.3516 139.844-75.3418 118.457-75.3418C110.693-90.7227 96.4844-101.074 77.3438-101.074C53.5156-101.074 34.1309-82.5195 31.8359-59.0332C20.2148-55.6152 11.2793-45.7031 11.2793-32.2266C11.2793-16.9922 22.4609-4.78516 41.2109-4.78516ZM41.2109-15.0879C28.2227-15.0879 21.582-22.4609 21.582-31.9336C21.582-39.9902 26.5137-46.7773 37.207-49.6094C40.5273-50.4883 41.6504-52.002 41.9434-55.3223C43.6523-76.123 59.082-90.7715 77.3438-90.7715C91.8457-90.7715 103.076-82.7148 109.912-68.8965C111.328-65.9668 113.086-64.9414 116.602-64.9414C135.205-64.9414 145.947-53.7109 145.947-39.9414C145.947-26.123 134.912-15.0879 120.215-15.0879ZM92.7246 25.5371L101.172 10.8887C102.295 8.98438 101.709 6.83594 99.9023 5.76172C98.0469 4.73633 95.9961 5.32227 94.873 7.27539L86.377 22.0215C85.3027 23.7793 85.791 25.9277 87.6465 27.002C89.502 28.0273 91.6504 27.3926 92.7246 25.5371ZM42.5781 25.5859L51.0254 10.9375C52.1484 9.0332 51.6113 6.88477 49.7559 5.81055C47.9492 4.78516 45.8496 5.37109 44.7266 7.27539L36.2305 22.0703C35.1562 23.8281 35.6445 25.9766 37.5 27.0508C39.3555 28.0762 41.5039 27.4414 42.5781 25.5859ZM112.5 43.2617L120.996 28.5645C122.119 26.709 121.533 24.5605 119.727 23.4863C117.871 22.4121 115.82 23.0469 114.697 24.9512L106.152 39.6973C105.127 41.5039 105.615 43.6523 107.471 44.7266C109.277 45.752 111.475 45.0684 112.5 43.2617ZM62.3535 43.3105L70.8496 28.6133C71.9727 26.7578 71.3867 24.6094 69.5801 23.5352C67.7246 22.4609 65.6738 23.0957 64.5508 25L56.0059 39.7461C54.9805 41.5527 55.4688 43.7012 57.3242 44.7754C59.1309 45.8008 61.3281 45.1172 62.3535 43.3105Z"/>
  </g>
  <g id="Regular-L" transform="matrix(1 0 0 1 1366.96 1556)">
   <path d="M40.3809-5.61523L118.848-5.61523C139.16-5.61523 154.492-20.9961 154.492-40.1855C154.492-59.9121 138.232-74.3652 117.139-74.3652C109.277-90.0879 94.9219-100.244 76.4648-100.244C53.0273-100.244 33.6914-81.6895 31.6895-58.252C20.166-55.0293 11.2793-45.2637 11.2793-32.0312C11.2793-17.4316 21.9238-5.61523 40.3809-5.61523ZM40.2344-14.209C26.8066-14.209 19.873-21.9727 19.873-31.7871C19.873-40.0879 24.9023-47.2168 35.791-50.0977C38.916-50.9277 40.0391-52.3438 40.2832-55.4688C41.6992-76.2207 57.7148-91.6504 76.4648-91.6504C91.4551-91.6504 102.93-83.3496 109.717-69.3359C111.084-66.5527 112.744-65.5762 116.064-65.5762C134.619-65.5762 145.898-54.0039 145.898-39.9414C145.898-25.6836 134.326-14.209 119.336-14.209ZM91.4551 24.1211L100.098 9.17969C101.123 7.42188 100.586 5.51758 98.9746 4.54102C97.3145 3.56445 95.4102 4.10156 94.3848 5.85938L85.6934 20.8984C84.7656 22.5586 85.2051 24.4629 86.9141 25.4395C88.5254 26.3672 90.5273 25.7812 91.4551 24.1211ZM41.3574 24.1699L49.9512 9.22852C51.0254 7.4707 50.4883 5.56641 48.8281 4.58984C47.168 3.61328 45.3125 4.15039 44.2383 5.9082L35.5469 20.9473C34.6191 22.6074 35.0586 24.5117 36.7676 25.4883C38.4277 26.416 40.3809 25.8301 41.3574 24.1699ZM111.23 41.7969L119.873 26.8555C120.898 25.1465 120.361 23.1934 118.75 22.2168C117.09 21.2891 115.186 21.8262 114.16 23.584L105.469 38.623C104.541 40.2344 104.98 42.1875 106.689 43.1641C108.301 44.0918 110.303 43.5059 111.23 41.7969ZM61.1328 41.8457L69.7266 26.9043C70.8008 25.1953 70.2637 23.2422 68.6035 22.2656C66.9434 21.3379 65.0879 21.875 64.0137 23.6328L55.3711 38.6719C54.3945 40.2832 54.834 42.2363 56.543 43.2129C58.2031 44.1406 60.1562 43.5547 61.1328 41.8457Z"/>
  </g>
  <g id="Light-L" transform="matrix(1 0 0 1 1070.71 1556)">
   <path d="M39.5996-6.73828L118.457-6.73828C138.379-6.73828 153.564-21.7773 153.564-40.5762C153.564-59.8633 137.549-74.0234 116.748-74.0234C108.887-89.9414 94.9219-100.244 76.0742-100.244C53.0273-100.244 34.0332-81.6895 32.0312-58.252C20.4102-55.0781 11.2793-45.6055 11.2793-32.4219C11.2793-18.2617 21.6797-6.73828 39.5996-6.73828ZM39.5508-13.2324C25.3906-13.2324 17.8223-21.7285 17.8223-32.2266C17.8223-41.5039 23.7793-49.0723 34.8633-52.002C37.5-52.6855 38.3789-53.8574 38.5742-56.3477C39.8926-77.3926 56.7383-93.75 76.0742-93.75C92.2852-93.75 104.199-84.668 110.986-70.5566C112.109-68.1641 113.525-67.3828 116.357-67.3828C134.766-67.3828 147.021-55.3223 147.021-40.332C147.021-25.3906 134.717-13.2324 118.75-13.2324ZM89.7949 23.3887L99.0234 7.4707C99.9023 6.00586 99.4629 4.44336 98.1445 3.66211C96.8262 2.92969 95.3125 3.32031 94.4336 4.83398L85.2051 20.8496C84.375 22.2656 84.7168 23.7793 86.084 24.5605C87.4023 25.3418 88.9648 24.8535 89.7949 23.3887ZM39.6484 23.4375L48.877 7.4707C49.7559 6.00586 49.3164 4.49219 47.998 3.71094C46.6797 2.92969 45.166 3.36914 44.2871 4.83398L35.0586 20.8496C34.2285 22.2656 34.5703 23.8281 35.9375 24.6094C37.2559 25.3418 38.8184 24.9023 39.6484 23.4375ZM109.668 41.0645L118.896 25.1465C119.775 23.6816 119.336 22.1191 118.018 21.3379C116.699 20.6055 115.186 20.9961 114.307 22.5098L105.078 38.4766C104.248 39.8926 104.59 41.4551 105.957 42.2363C107.275 43.0176 108.838 42.5293 109.668 41.0645ZM59.5215 41.1133L68.75 25.1465C69.6289 23.6816 69.1895 22.168 67.8711 21.3867C66.5527 20.6055 65.0391 21.0449 64.1602 22.5098L54.8828 38.5254C54.1016 39.9414 54.4434 41.5039 55.8105 42.2852C57.1289 43.0176 58.6914 42.5781 59.5215 41.1133Z"/>
  </g>
  <g id="Thin-L" transform="matrix(1 0 0 1 774.611 1556)">
   <path d="M38.623-8.20312L117.969-8.20312C137.354-8.20312 152.344-22.8027 152.344-41.0645C152.344-59.7656 136.67-73.5352 116.26-73.5352C108.398-89.7461 94.9219-100.244 75.5859-100.244C53.0273-100.244 34.4727-81.6895 32.5195-58.252C20.752-55.1758 11.2793-45.9961 11.2793-32.9102C11.2793-19.3848 21.3379-8.20312 38.623-8.20312ZM38.623-11.9629C23.5352-11.9629 15.0391-21.4355 15.0391-32.8613C15.0391-43.3594 22.2168-51.5625 33.5938-54.541C35.5957-55.0781 36.2305-55.8594 36.3281-57.5684C37.5488-79.0039 55.4688-96.4844 75.5859-96.4844C93.3594-96.4844 105.811-86.4258 112.646-72.168C113.525-70.3125 114.6-69.7266 116.748-69.7266C134.912-69.7266 148.535-57.0312 148.535-40.918C148.535-25 135.156-11.9629 118.018-11.9629ZM87.5488 22.4609L97.5586 5.22461C98.2422 4.10156 97.998 3.07617 97.0703 2.49023C96.2402 2.05078 95.2148 2.29492 94.5312 3.4668L84.5215 20.752C83.8867 21.875 84.082 22.8516 85.0098 23.4375C85.9375 23.9746 86.9629 23.584 87.5488 22.4609ZM37.4023 22.4609L47.4121 5.22461C48.0957 4.10156 47.8027 3.07617 46.875 2.53906C46.0449 2.05078 45.0195 2.34375 44.3359 3.4668L34.3262 20.752C33.6914 21.875 33.8867 22.9004 34.8145 23.4375C35.7422 23.9746 36.7676 23.6328 37.4023 22.4609ZM107.568 40.0879L117.578 22.8516C118.262 21.6797 117.969 20.7031 117.041 20.1172C116.211 19.6777 115.186 19.9219 114.502 21.0938L104.492 38.3301C103.857 39.4531 104.102 40.4785 104.98 41.0645C105.908 41.6016 106.934 41.2109 107.568 40.0879ZM57.373 40.0879L67.3828 22.8516C68.0664 21.7285 67.8223 20.7031 66.8945 20.166C66.0645 19.6777 65.0391 19.9707 64.3066 21.0938L54.2969 38.3789C53.7109 39.502 53.9062 40.5273 54.834 41.0645C55.7617 41.6016 56.7871 41.2598 57.373 40.0879Z"/>
  </g>
  <g id="Ultralight-L" transform="matrix(1 0 0 1 478.217 1556)">
   <path d="M38.1348-8.93555L117.725-8.93555C136.816-8.93555 151.709-23.291 151.709-41.3574C151.709-59.7168 136.182-73.291 116.016-73.291C108.154-89.6484 94.9219-100.244 75.3418-100.244C53.0273-100.244 34.7168-81.6895 32.8125-58.252C20.9473-55.2246 11.2793-46.2402 11.2793-33.1543C11.2793-19.9219 21.1426-8.93555 38.1348-8.93555ZM38.1348-11.3281C22.5586-11.3281 13.6719-21.2891 13.6719-33.1543C13.6719-44.3359 21.4355-52.832 32.9102-55.8594C34.6191-56.2988 35.1074-56.9336 35.1562-58.1543C36.377-79.834 54.7852-97.8516 75.3418-97.8516C93.8965-97.8516 106.641-87.3535 113.525-72.998C114.258-71.4355 115.137-70.8984 116.943-70.8984C135.01-70.8984 149.316-57.9102 149.316-41.2109C149.316-24.8047 135.4-11.3281 117.676-11.3281ZM36.2305 21.9727L46.6309 4.05273C47.2168 3.07617 47.0215 2.34375 46.3379 1.9043C45.7031 1.5625 44.9707 1.80664 44.3848 2.73438L33.9844 20.6543C33.4473 21.6309 33.5938 22.4121 34.2773 22.8027C34.9609 23.2422 35.7422 22.9492 36.2305 21.9727ZM86.4258 22.0215L96.8262 4.05273C97.4121 3.125 97.2168 2.34375 96.5332 1.9043C95.8984 1.5625 95.166 1.80664 94.5312 2.73438L84.1309 20.6543C83.6426 21.6309 83.7402 22.4121 84.4727 22.8516C85.1562 23.2422 85.8887 22.9492 86.4258 22.0215ZM56.2988 39.5996L66.6992 21.6797C67.2852 20.7031 67.0898 19.9219 66.4062 19.5312C65.7715 19.1895 64.9902 19.3848 64.4043 20.3613L54.0039 38.2812C53.5156 39.2578 53.6133 39.9902 54.3457 40.4297C55.0293 40.8691 55.7617 40.5762 56.2988 39.5996ZM106.494 39.5996L116.895 21.6797C117.48 20.7031 117.285 19.9219 116.553 19.5312C115.967 19.1895 115.186 19.3848 114.6 20.3613L104.199 38.2812C103.711 39.2578 103.809 39.9902 104.492 40.4297C105.225 40.8691 105.957 40.5762 106.494 39.5996Z"/>
  </g>
  <g id="Black-M" transform="matrix(1 0 0 1 2864.04 1126)">
   <path d="M36.084-8.00781L98.1934-8.00781C116.162-8.00781 129.98-21.7773 129.98-39.4043C129.98-57.0801 116.602-71.0938 98.6816-71.0938C93.2129-81.543 83.0566-90.5762 64.6484-90.5762C44.1406-90.5762 28.7598-76.2695 25.7324-57.8125C16.0645-54.248 8.74023-45.752 8.74023-34.0332C8.74023-19.2871 19.9707-8.00781 36.084-8.00781ZM36.7188-23.877C28.5645-23.877 24.6094-27.9785 24.6094-33.7891C24.6094-39.3555 28.2227-43.0664 35.6934-45.0195C39.0625-45.8984 39.8926-47.3633 40.4297-50.7324C43.2129-67.1387 52.5879-74.7559 64.6484-74.7559C73.6328-74.7559 81.3477-69.5312 86.7676-59.6191C88.2812-56.8848 89.8438-55.8594 93.2617-55.8594C107.91-55.8594 114.111-48.6328 114.111-39.0625C114.111-30.4688 107.812-23.877 97.5098-23.877ZM38.5742 19.1406L44.6289 8.74023C45.8496 6.64062 45.3125 3.95508 43.1641 2.73438C40.9668 1.46484 38.5742 2.29492 37.2559 4.54102L31.2012 14.9414C30.0293 16.9922 30.4688 19.6289 32.666 20.8984C34.8145 22.168 37.4023 21.1914 38.5742 19.1406ZM77.4902 19.1406L83.5449 8.74023C84.7168 6.64062 84.2285 3.95508 82.0312 2.73438C79.834 1.46484 77.4414 2.29492 76.123 4.54102L70.1172 14.9414C68.8965 16.9922 69.3359 19.6289 71.5332 20.8984C73.7305 22.168 76.3184 21.1914 77.4902 19.1406ZM54.1016 32.7637L60.1562 22.3633C61.377 20.3125 60.8398 17.627 58.6914 16.3574C56.4941 15.0879 54.1016 15.918 52.7832 18.1641L46.7285 28.5645C45.5566 30.6641 45.9961 33.3008 48.1934 34.5215C50.3418 35.791 52.9297 34.8633 54.1016 32.7637ZM93.0176 32.7637L99.0723 22.3633C100.244 20.3125 99.7559 17.627 97.5586 16.3574C95.3613 15.0879 92.9688 15.918 91.6504 18.1641L85.6445 28.5645C84.4238 30.6641 84.8633 33.3008 87.0605 34.5215C89.2578 35.791 91.8457 34.8633 93.0176 32.7637Z"/>
  </g>
  <g id="Heavy-M" transform="matrix(1 0 0 1 2568.48 1126)">
   <path d="M35.0586-8.88672L96.7773-8.88672C114.307-8.88672 127.686-22.2168 127.686-39.2578C127.686-56.4453 114.453-69.8242 96.875-69.8242C91.2109-80.6641 80.8105-89.4043 63.4277-89.4043C43.4082-89.4043 28.0762-75.0977 25.3906-56.6895C15.918-53.3691 8.74023-45.0684 8.74023-33.6914C8.74023-19.6777 19.2871-8.88672 35.0586-8.88672ZM35.498-22.8516C26.9531-22.8516 22.7051-27.2949 22.7051-33.4473C22.7051-39.0625 26.2695-43.1641 33.9355-45.166C37.1582-45.9961 37.9883-47.4121 38.4766-50.6348C40.8691-66.9434 50.8789-75.4395 63.4277-75.4395C72.9004-75.4395 80.8105-70.0195 86.2305-59.9121C87.6465-57.2754 89.1602-56.2988 92.4316-56.2988C107.08-56.2988 113.721-48.7305 113.721-38.9648C113.721-29.8828 106.885-22.8516 96.3867-22.8516ZM76.1719 17.2363L82.2754 6.68945C83.3984 4.78516 82.9102 2.29492 80.9082 1.12305C78.8574 0 76.6602 0.732422 75.4395 2.7832L69.2871 13.3789C68.2129 15.2832 68.6523 17.7246 70.6543 18.8477C72.6562 20.0195 75.0488 19.1895 76.1719 17.2363ZM37.2559 17.2852L43.4082 6.68945C44.5312 4.78516 44.043 2.29492 41.9922 1.17188C39.9902 0 37.793 0.732422 36.5723 2.83203L30.4199 13.3789C29.2969 15.2832 29.7363 17.7246 31.7871 18.8965C33.7891 20.0195 36.1816 19.1895 37.2559 17.2852ZM91.6016 30.9082L97.7539 20.3613C98.877 18.457 98.3887 15.9668 96.3379 14.7949C94.3359 13.6719 92.1387 14.4043 90.918 16.4551L84.7656 27.0508C83.6426 28.9551 84.082 31.3965 86.1328 32.5195C88.1348 33.6914 90.5273 32.8613 91.6016 30.9082ZM52.7344 30.957L58.8867 20.3613C59.9609 18.457 59.4727 15.9668 57.4707 14.8438C55.4688 13.6719 53.2227 14.4043 52.002 16.5039L45.8984 27.0508C44.7754 28.9551 45.2148 31.3965 47.2656 32.5195C49.2676 33.6914 51.6602 32.8613 52.7344 30.957Z"/>
  </g>
  <g id="Bold-M" transform="matrix(1 0 0 1 2273.06 1126)">
   <path d="M33.8867-9.81445L95.2637-9.81445C112.256-9.81445 125.098-22.7539 125.098-39.1113C125.098-55.7617 112.061-68.457 94.8242-68.457C89.0137-79.6875 78.3203-88.0859 62.0605-88.0859C42.627-88.0859 27.3438-73.7305 25.0488-55.4688C15.7715-52.3926 8.74023-44.2871 8.74023-33.3008C8.74023-20.1172 18.5547-9.81445 33.8867-9.81445ZM34.1309-21.6797C25.0977-21.6797 20.6055-26.5137 20.6055-33.0566C20.6055-38.7695 24.1211-43.2617 31.9824-45.3125C35.0098-46.0938 35.9375-47.5098 36.3281-50.5859C38.2812-66.748 48.9258-76.2695 62.0605-76.2695C72.0215-76.2695 80.2246-70.6543 85.5469-60.3027C86.8652-57.7148 88.3789-56.8359 91.5527-56.8359C106.104-56.8359 113.281-48.8281 113.281-38.8672C113.281-29.248 105.859-21.6797 95.166-21.6797ZM74.6582 15.1367L80.8594 4.44336C81.9336 2.63672 81.4453 0.439453 79.5898-0.585938C77.7344-1.66016 75.7324-1.02539 74.6582 0.878906L68.4082 11.6211C67.3828 13.3789 67.8223 15.5273 69.6777 16.6016C71.4844 17.627 73.6816 16.8945 74.6582 15.1367ZM35.791 15.1855L41.9922 4.44336C43.0664 2.68555 42.5781 0.488281 40.7227-0.585938C38.8672-1.61133 36.8652-0.976562 35.791 0.878906L29.541 11.6699C28.5156 13.3789 28.9551 15.5762 30.8105 16.6016C32.6172 17.627 34.8145 16.9434 35.791 15.1855ZM90.0879 28.8574L96.2891 18.1152C97.3145 16.3574 96.8262 14.1602 95.0195 13.0859C93.1641 12.0605 91.1621 12.6953 90.0391 14.5508L83.7891 25.3418C82.8125 27.0508 83.252 29.248 85.0586 30.2734C86.9141 31.2988 89.0625 30.6152 90.0879 28.8574ZM51.2207 28.8574L57.4219 18.1641C58.4473 16.3574 57.959 14.1602 56.1523 13.1348C54.2969 12.0605 52.2949 12.6953 51.1719 14.5996L44.9219 25.3418C43.9453 27.0996 44.3848 29.248 46.1914 30.3223C48.0469 31.3477 50.1953 30.6152 51.2207 28.8574Z"/>
  </g>
  <g id="Semibold-M" transform="matrix(1 0 0 1 1977.23 1126)">
   <path d="M33.1055-10.498L94.1895-10.498C110.791-10.498 123.34-23.1445 123.34-39.0137C123.34-55.2734 110.4-67.4805 93.4082-67.4805C87.5-79.0039 76.5625-87.207 61.084-87.207C42.041-87.207 26.8555-72.8027 24.8047-54.5898C15.6738-51.709 8.74023-43.75 8.74023-33.0078C8.74023-20.459 18.0664-10.498 33.1055-10.498ZM33.2031-20.8984C23.8281-20.8984 19.1406-25.9766 19.1406-32.7637C19.1406-38.5742 22.6074-43.3105 30.6641-45.459C33.5449-46.1914 34.4727-47.5098 34.8145-50.4883C36.4746-66.5527 47.6074-76.8066 61.084-76.8066C71.4355-76.8066 79.7852-71.0449 85.1074-60.5469C86.377-58.0566 87.8418-57.1777 90.918-57.1777C105.42-57.1777 112.939-48.9258 112.939-38.7695C112.939-28.7598 105.176-20.8984 94.2871-20.8984ZM73.6328 13.6719L79.8828 2.88086C80.9082 1.2207 80.4199-0.830078 78.7109-1.80664C77.002-2.7832 75.0977-2.19727 74.0723-0.488281L67.7734 10.4004C66.8457 12.0117 67.2852 14.0137 68.9941 15.0391C70.7031 15.9668 72.7051 15.332 73.6328 13.6719ZM34.7656 13.7207L41.0645 2.88086C42.041 1.2207 41.5527-0.78125 39.8438-1.75781C38.1348-2.73438 36.2305-2.14844 35.2051-0.439453L28.9551 10.4492C27.9785 12.0605 28.418 14.0625 30.127 15.0391C31.8359 16.0156 33.8379 15.3809 34.7656 13.7207ZM89.0137 27.3926L95.2637 16.6016C96.2402 14.8926 95.752 12.8906 94.043 11.9141C92.334 10.9375 90.4785 11.5234 89.4531 13.2324L83.1543 24.1211C82.2266 25.7324 82.6172 27.7344 84.375 28.7109C86.0352 29.6875 88.0371 29.0527 89.0137 27.3926ZM50.1465 27.4414L56.3965 16.6016C57.373 14.9414 56.8848 12.9395 55.2246 11.9141C53.5156 10.9375 51.6113 11.5234 50.5859 13.2812L44.2871 24.1699C43.3594 25.7812 43.75 27.7832 45.5078 28.7598C47.168 29.7363 49.2188 29.1016 50.1465 27.4414Z"/>
  </g>
  <g id="Medium-M" transform="matrix(1 0 0 1 1681.17 1126)">
   <path d="M32.4707-10.9863L93.3594-10.9863C109.717-10.9863 122.021-23.4375 122.021-38.9648C122.021-54.8828 109.131-66.748 92.3828-66.748C86.377-78.5156 75.293-86.5234 60.4004-86.5234C41.6504-86.5234 26.4648-72.1191 24.6094-53.9551C15.5762-51.1719 8.74023-43.3594 8.74023-32.8125C8.74023-20.6543 17.6758-10.9863 32.4707-10.9863ZM32.5195-20.2637C22.8516-20.2637 18.0176-25.5859 18.0176-32.5684C18.0176-38.3789 21.4844-43.3594 29.6387-45.5078C32.4707-46.2891 33.3984-47.5586 33.6426-50.4395C35.1074-66.4551 46.582-77.2461 60.4004-77.2461C70.9961-77.2461 79.4922-71.3379 84.7656-60.6934C85.9863-58.252 87.4512-57.4219 90.4297-57.4219C104.932-57.4219 112.744-48.9746 112.744-38.7207C112.744-28.4668 104.639-20.2637 93.6523-20.2637ZM72.8516 12.5977L79.1504 1.70898C80.127 0.0976562 79.6387-1.80664 78.0273-2.73438C76.416-3.66211 74.6094-3.125 73.6816-1.46484L67.334 9.52148C66.4551 11.0352 66.8457 12.8906 68.5059 13.8184C70.0684 14.7461 71.9727 14.1602 72.8516 12.5977ZM34.0332 12.6465L40.332 1.70898C41.2598 0.146484 40.7715-1.75781 39.209-2.68555C37.5977-3.61328 35.791-3.07617 34.8145-1.41602L28.4668 9.52148C27.5879 11.084 28.0273 12.9395 29.6387 13.8672C31.2012 14.7461 33.1055 14.209 34.0332 12.6465ZM88.1836 26.3184L94.4824 15.4297C95.4102 13.8184 94.9219 11.9141 93.3594 10.9863C91.748 10.0586 89.9414 10.5957 88.9648 12.2559L82.666 23.2422C81.7383 24.7559 82.1777 26.6113 83.7891 27.5391C85.4004 28.4668 87.3047 27.8809 88.1836 26.3184ZM49.3164 26.3672L55.6152 15.4785C56.5918 13.8672 56.1035 11.9629 54.4922 11.0352C52.8809 10.1074 51.123 10.6445 50.1465 12.3047L43.7988 23.291C42.9199 24.8047 43.3105 26.6602 44.9707 27.5879C46.5332 28.5156 48.4375 27.9297 49.3164 26.3672Z"/>
  </g>
  <g id="Regular-M" transform="matrix(1 0 0 1 1385.34 1126)">
   <path d="M31.6895-11.6211L92.2852-11.6211C108.301-11.6211 120.264-23.7793 120.264-38.8672C120.264-54.3945 107.52-65.7715 90.9668-65.7715C84.8633-77.832 73.5352-85.5957 59.4727-85.5957C41.0645-85.5957 25.9277-71.2402 24.3652-53.0762C15.4785-50.5371 8.74023-42.8223 8.74023-32.5195C8.74023-20.9961 17.1387-11.6211 31.6895-11.6211ZM31.5918-19.4824C21.582-19.4824 16.5527-25.0488 16.5527-32.2754C16.5527-38.1836 19.9707-43.457 28.2715-45.6543C31.0059-46.3379 31.9824-47.6074 32.1777-50.3906C33.3008-66.3086 45.3125-77.7832 59.4727-77.7832C70.4102-77.7832 79.0527-71.7773 84.3262-60.9375C85.498-58.5938 86.9141-57.7637 89.7949-57.7637C104.248-57.7637 112.402-49.0234 112.402-38.623C112.402-27.9785 103.906-19.4824 92.7734-19.4824ZM71.875 11.1328L78.2227 0.146484C79.1016-1.36719 78.6133-3.07617 77.1484-3.90625C75.6836-4.78516 74.0234-4.29688 73.1445-2.7832L66.6992 8.30078C65.918 9.7168 66.3086 11.4258 67.8223 12.3047C69.2871 13.0859 71.0449 12.5977 71.875 11.1328ZM33.0078 11.1816L39.3555 0.195312C40.2344-1.31836 39.7949-3.02734 38.3301-3.85742C36.8164-4.73633 35.1562-4.24805 34.2773-2.73438L27.8809 8.34961C27.0508 9.76562 27.4902 11.4746 28.9551 12.3047C30.4199 13.1348 32.1777 12.6465 33.0078 11.1816ZM87.1094 24.9023L93.457 13.8672C94.3848 12.4023 93.8965 10.6934 92.4316 9.81445C90.9668 8.98438 89.3066 9.47266 88.3789 10.9375L81.9824 22.0703C81.1523 23.4375 81.5918 25.1465 83.1055 26.0254C84.5215 26.8555 86.2793 26.3672 87.1094 24.9023ZM48.291 24.9512L54.6387 13.916C55.5176 12.4512 55.0293 10.7422 53.6133 9.86328C52.0996 9.0332 50.4395 9.52148 49.5605 10.9863L43.1641 22.1191C42.334 23.4863 42.7246 25.1953 44.2383 26.0742C45.7031 26.9043 47.4609 26.416 48.291 24.9512Z"/>
  </g>
  <g id="Light-M" transform="matrix(1 0 0 1 1089.05 1126)">
   <path d="M31.0547-12.6465L91.9434-12.6465C107.617-12.6465 119.434-24.4629 119.434-39.209C119.434-54.3457 106.885-65.4297 90.6738-65.4297C84.5703-77.7344 73.5352-85.5957 59.1309-85.5957C41.0645-85.5957 26.2207-71.2402 24.6582-53.0762C15.7227-50.5859 8.74023-43.1152 8.74023-32.8613C8.74023-21.7285 16.9434-12.6465 31.0547-12.6465ZM30.957-18.6035C20.3125-18.6035 14.6973-24.8535 14.6973-32.7148C14.6973-39.4531 18.9453-45.1172 27.4414-47.3633C29.6875-47.9492 30.4688-48.9746 30.6641-51.1719C31.7383-67.3828 44.4336-79.6387 59.1309-79.6387C71.1426-79.6387 80.1758-72.9492 85.4492-62.0605C86.4258-60.0098 87.6465-59.3262 90.0391-59.3262C104.346-59.3262 113.428-50.1953 113.428-39.0137C113.428-27.7344 104.248-18.6035 92.2852-18.6035ZM70.3613 10.5469L77.2461-1.36719C77.9785-2.63672 77.5879-4.00391 76.416-4.6875C75.2441-5.37109 73.9258-4.98047 73.1934-3.71094L66.2598 8.25195C65.5762 9.42383 65.8691 10.791 67.0898 11.5234C68.2617 12.1582 69.6289 11.7676 70.3613 10.5469ZM31.4941 10.5469L38.3789-1.36719C39.1113-2.58789 38.7695-3.95508 37.5977-4.6875C36.377-5.32227 35.0586-4.98047 34.3262-3.71094L27.3926 8.30078C26.709 9.47266 27.002 10.8398 28.2227 11.5234C29.3945 12.207 30.8105 11.7676 31.4941 10.5469ZM85.6934 24.2188L92.5781 12.3535C93.3594 11.084 92.9688 9.7168 91.7969 9.0332C90.625 8.34961 89.3066 8.74023 88.5254 10.0098L81.5918 21.9727C80.9082 23.1445 81.25 24.5117 82.4219 25.1953C83.5938 25.8789 85.0098 25.4883 85.6934 24.2188ZM46.8262 24.2676L53.7109 12.3535C54.4922 11.084 54.1016 9.7168 52.9297 9.0332C51.7578 8.39844 50.4395 8.74023 49.6582 10.0098L42.7734 21.9727C42.041 23.1934 42.3828 24.5605 43.6035 25.2441C44.7754 25.9277 46.1426 25.4883 46.8262 24.2676Z"/>
  </g>
  <g id="Thin-M" transform="matrix(1 0 0 1 792.897 1126)">
   <path d="M30.1758-13.9648L91.5039-13.9648C106.641-13.9648 118.311-25.3418 118.311-39.6484C118.311-54.248 106.104-64.9902 90.2344-64.9902C84.1309-77.5391 73.5352-85.5957 58.6914-85.5957C41.0645-85.5957 26.6113-71.2402 25.0977-53.0762C16.0156-50.6836 8.74023-43.5059 8.74023-33.3008C8.74023-22.7051 16.6016-13.9648 30.1758-13.9648ZM30.127-17.4805C18.6523-17.4805 12.2559-24.6094 12.2559-33.252C12.2559-41.1133 17.5781-47.3633 26.2695-49.6582C27.9785-50.0977 28.5645-50.7812 28.6133-52.2461C29.5898-68.7988 43.2617-82.0801 58.6914-82.0801C72.1191-82.0801 81.6406-74.5117 86.9629-63.4766C87.6953-61.9629 88.5742-61.4258 90.4297-61.4258C104.541-61.4258 114.795-51.7578 114.795-39.502C114.795-27.3926 104.639-17.4805 91.6504-17.4805ZM68.3594 9.7168L75.9277-3.41797C76.5137-4.3457 76.2695-5.27344 75.4883-5.71289C74.707-6.15234 73.8281-5.9082 73.2422-4.93164L65.625 8.1543C65.1367 9.08203 65.332 10.0098 66.1133 10.4492C66.8945 10.9375 67.8223 10.6445 68.3594 9.7168ZM29.4922 9.7168L37.0605-3.36914C37.6465-4.3457 37.4023-5.22461 36.5723-5.71289C35.8398-6.15234 34.9609-5.9082 34.375-4.93164L26.7578 8.1543C26.2207 9.08203 26.416 10.0098 27.2461 10.498C28.0273 10.9375 28.9551 10.6445 29.4922 9.7168ZM83.8379 23.3398L91.4062 10.2539C91.9922 9.32617 91.748 8.39844 90.918 7.95898C90.1855 7.51953 89.3066 7.76367 88.7207 8.69141L81.1035 21.8262C80.6152 22.7539 80.7617 23.6816 81.5918 24.1211C82.373 24.6094 83.3008 24.3164 83.8379 23.3398ZM44.9219 23.3887L52.5391 10.3027C53.125 9.32617 52.832 8.44727 52.0508 7.95898C51.3184 7.51953 50.3906 7.76367 49.8047 8.74023L42.2363 21.8262C41.6992 22.7539 41.8945 23.6816 42.7246 24.1699C43.5059 24.6094 44.4336 24.3164 44.9219 23.3887Z"/>
  </g>
  <g id="Ultralight-M" transform="matrix(1 0 0 1 496.454 1126)">
   <path d="M29.6875-14.5996L91.3086-14.5996C106.152-14.5996 117.773-25.8301 117.773-39.8926C117.773-54.1992 105.664-64.7949 89.9902-64.7949C83.8867-77.4414 73.5352-85.5957 58.4473-85.5957C41.0645-85.5957 26.8066-71.2402 25.3418-53.0762C16.1621-50.7324 8.74023-43.7012 8.74023-33.5449C8.74023-23.1934 16.4551-14.5996 29.6875-14.5996ZM29.6875-16.8945C17.7734-16.8945 10.9863-24.4629 10.9863-33.5449C10.9863-41.9922 16.8457-48.4863 25.6836-50.8301C27.0996-51.1719 27.5391-51.709 27.5879-52.832C28.5156-69.5312 42.6758-83.3496 58.4473-83.3496C72.6074-83.3496 82.4219-75.3418 87.6953-64.2578C88.3301-62.9395 89.0625-62.5 90.5762-62.5C104.59-62.5 115.479-52.5391 115.479-39.7461C115.479-27.1973 104.883-16.8945 91.3086-16.8945ZM28.418 9.27734L36.377-4.44336C36.8652-5.22461 36.6699-5.9082 36.084-6.25C35.5469-6.54297 34.8633-6.39648 34.375-5.56641L26.416 8.10547C26.0254 8.93555 26.123 9.57031 26.7578 9.96094C27.3438 10.3027 28.0273 10.0586 28.418 9.27734ZM67.334 9.27734L75.293-4.44336C75.7812-5.22461 75.5859-5.9082 74.9512-6.25C74.4141-6.54297 73.7793-6.39648 73.291-5.56641L65.332 8.10547C64.8926 8.93555 65.0391 9.57031 65.625 9.96094C66.2109 10.3027 66.8945 10.0586 67.334 9.27734ZM43.9453 22.9004L51.9043 9.22852C52.3926 8.39844 52.1973 7.76367 51.6113 7.37305C51.0742 7.08008 50.3906 7.27539 49.9023 8.05664L41.9434 21.7773C41.5527 22.5586 41.6504 23.2422 42.2363 23.584C42.8711 23.9746 43.5547 23.7305 43.9453 22.9004ZM82.8613 22.9004L90.7715 9.22852C91.3086 8.39844 91.1133 7.76367 90.4785 7.37305C89.9414 7.08008 89.3066 7.27539 88.8184 8.05664L80.8594 21.7773C80.4199 22.5586 80.5664 23.2422 81.1523 23.584C81.7383 23.9746 82.4219 23.7305 82.8613 22.9004Z"/>
  </g>
  <g id="Black-S" transform="matrix(1 0 0 1 2879.15 696)">
   <path d="M28.1738-13.9648L76.8066-13.9648C90.8691-13.9648 101.66-24.707 101.66-38.4766C101.66-52.2949 91.1621-63.2324 77.1484-63.2324C72.8516-71.4355 64.8926-78.5156 50.5371-78.5156C34.5215-78.5156 22.4609-67.2852 20.1172-52.832C12.5488-50.0488 6.83594-43.4082 6.83594-34.2773C6.83594-22.7539 15.5762-13.9648 28.1738-13.9648ZM28.6621-26.2695C22.2656-26.2695 19.1406-29.4922 19.1406-34.082C19.1406-38.4277 21.9727-41.3574 27.832-42.8711C30.4688-43.5547 31.1035-44.7266 31.543-47.3633C33.6914-60.2051 41.0645-66.2109 50.5371-66.2109C57.6172-66.2109 63.6719-62.1094 67.9199-54.3457C69.0918-52.1973 70.3125-51.416 72.998-51.416C84.4727-51.416 89.3555-45.7031 89.3555-38.2324C89.3555-31.4453 84.375-26.2695 76.3184-26.2695ZM30.127 7.22656L34.8633-0.927734C35.791-2.53906 35.4004-4.63867 33.6914-5.61523C31.9824-6.5918 30.127-5.95703 29.1016-4.19922L24.3652 3.95508C23.4375 5.56641 23.7793 7.61719 25.4883 8.59375C27.1973 9.57031 29.1992 8.83789 30.127 7.22656ZM60.5957 7.22656L65.332-0.927734C66.2598-2.53906 65.8691-4.63867 64.1602-5.61523C62.4512-6.5918 60.5957-5.95703 59.5703-4.19922L54.834 3.95508C53.9062 5.56641 54.248 7.61719 55.957 8.59375C57.666 9.57031 59.668 8.83789 60.5957 7.22656ZM42.2852 17.9199L47.0215 9.76562C47.9492 8.1543 47.5586 6.05469 45.8496 5.07812C44.1406 4.10156 42.2852 4.73633 41.2598 6.49414L36.5234 14.6484C35.5957 16.2598 35.9375 18.3105 37.6465 19.2871C39.3555 20.2637 41.3574 19.5312 42.2852 17.9199ZM72.7539 17.9199L77.4902 9.76562C78.418 8.1543 78.0273 6.05469 76.3184 5.07812C74.6094 4.10156 72.7539 4.73633 71.7285 6.49414L66.9922 14.6484C66.0645 16.2598 66.4062 18.3105 68.1152 19.2871C69.8242 20.2637 71.8262 19.5312 72.7539 17.9199Z"/>
  </g>
  <g id="Heavy-S" transform="matrix(1 0 0 1 2583.27 696)">
   <path d="M27.4414-14.502L75.7812-14.502C89.5508-14.502 100-25 100-38.3301C100-51.8066 89.5996-62.3047 75.7812-62.3047C71.3867-70.8008 63.1836-77.6367 49.6582-77.6367C33.9844-77.6367 21.9238-66.3574 19.8242-52.002C12.4023-49.3652 6.83594-42.8711 6.83594-33.9844C6.83594-22.998 15.0879-14.502 27.4414-14.502ZM27.832-25.5859C21.1426-25.5859 17.9199-29.0039 17.9199-33.7402C17.9199-38.0859 20.6055-41.2109 26.6113-42.7734C29.1504-43.457 29.834-44.6289 30.2246-47.2168C32.0801-59.9121 39.8438-66.5527 49.6582-66.5527C56.9336-66.5527 63.1348-62.4023 67.334-54.4434C68.457-52.3438 69.7266-51.5625 72.3633-51.5625C83.7891-51.5625 88.916-45.6543 88.916-38.0859C88.916-31.0547 83.6426-25.5859 75.5371-25.5859ZM59.7656 5.85938L64.502-2.29492C65.3809-3.85742 64.9902-5.81055 63.3789-6.73828C61.7676-7.66602 59.9609-7.08008 59.0332-5.41992L54.2969 2.7832C53.418 4.29688 53.7598 6.20117 55.3711 7.12891C56.9824 8.05664 58.8867 7.37305 59.7656 5.85938ZM29.2969 5.85938L34.0332-2.29492C34.9121-3.80859 34.5215-5.81055 32.9102-6.73828C31.2988-7.61719 29.541-7.03125 28.5645-5.41992L23.8281 2.7832C22.9492 4.29688 23.291 6.20117 24.9023 7.12891C26.5137 8.05664 28.418 7.37305 29.2969 5.85938ZM71.8262 16.5527L76.5625 8.39844C77.4902 6.88477 77.0508 4.93164 75.4883 4.00391C73.8281 3.07617 72.0703 3.66211 71.1426 5.27344L66.3574 13.4766C65.4785 14.9902 65.8691 16.8945 67.4805 17.8223C69.0918 18.75 70.9961 18.1152 71.8262 16.5527ZM41.4062 16.6016L46.1426 8.39844C47.0215 6.88477 46.6309 4.93164 45.0195 4.00391C43.4082 3.07617 41.6504 3.66211 40.6738 5.32227L35.9375 13.4766C35.0586 14.9902 35.4004 16.9434 37.0117 17.8711C38.623 18.75 40.5273 18.1152 41.4062 16.6016Z"/>
  </g>
  <g id="Bold-S" transform="matrix(1 0 0 1 2287.49 696)">
   <path d="M26.6602-15.1367L74.6094-15.1367C88.0371-15.1367 98.1445-25.3418 98.1445-38.1836C98.1445-51.2695 87.8418-61.2793 74.2676-61.2793C69.7266-70.0684 61.2793-76.6113 48.6328-76.6113C33.3496-76.6113 21.2891-65.3809 19.5312-51.0254C12.2559-48.6328 6.83594-42.2363 6.83594-33.6426C6.83594-23.2422 14.5508-15.1367 26.6602-15.1367ZM26.8555-24.8047C19.873-24.8047 16.5039-28.418 16.5039-33.3984C16.5039-37.6953 19.043-41.1133 25.1953-42.7246C27.6855-43.3594 28.418-44.4824 28.7598-47.0215C30.2734-59.6191 38.4766-66.9434 48.6328-66.9434C56.2012-66.9434 62.5488-62.6953 66.6992-54.5898C67.8223-52.4902 69.043-51.7578 71.582-51.7578C83.0566-51.7578 88.4766-45.6055 88.4766-37.9883C88.4766-30.5664 82.8125-24.8047 74.6094-24.8047ZM58.7891 4.3457L63.5254-3.85742C64.3555-5.32227 63.9648-7.12891 62.4512-7.95898C60.9375-8.83789 59.2773-8.30078 58.3984-6.78711L53.6621 1.41602C52.832 2.83203 53.1738 4.63867 54.6875 5.46875C56.2012 6.34766 57.959 5.76172 58.7891 4.3457ZM28.3691 4.3457L33.0566-3.80859C33.9355-5.27344 33.4961-7.08008 32.0312-7.95898C30.5176-8.78906 28.8574-8.30078 27.9785-6.78711L23.1934 1.46484C22.3633 2.88086 22.7539 4.63867 24.2676 5.51758C25.7324 6.34766 27.5391 5.76172 28.3691 4.3457ZM70.8496 15.0391L75.5859 6.88477C76.416 5.41992 76.0254 3.61328 74.5117 2.7832C72.998 1.9043 71.3379 2.44141 70.459 3.95508L65.6738 12.1582C64.8926 13.5742 65.2344 15.332 66.748 16.2109C68.2617 17.041 70.0195 16.5039 70.8496 15.0391ZM40.3809 15.0879L45.1172 6.88477C45.9473 5.46875 45.5566 3.66211 44.043 2.7832C42.5293 1.9043 40.8691 2.44141 39.9902 3.95508L35.2539 12.207C34.4238 13.5742 34.7656 15.3809 36.2793 16.2598C37.793 17.0898 39.5508 16.5039 40.3809 15.0879Z"/>
  </g>
  <g id="Semibold-S" transform="matrix(1 0 0 1 1991.44 696)">
   <path d="M26.123-15.5273L73.8281-15.5273C87.0117-15.5273 96.8262-25.5371 96.8262-38.0859C96.8262-50.9277 86.6211-60.5469 73.2422-60.5469C68.6035-69.5801 59.9121-75.9277 47.9492-75.9277C32.9102-75.9277 20.8984-64.6484 19.2871-50.3906C12.1582-48.0957 6.83594-41.7969 6.83594-33.3984C6.83594-23.3887 14.209-15.5273 26.123-15.5273ZM26.2207-24.2676C19.043-24.2676 15.5273-28.0273 15.5273-33.1543C15.5273-37.4023 18.0176-41.0156 24.2676-42.6758C26.6602-43.3105 27.4414-44.3848 27.7344-46.9238C29.0039-59.4238 37.5488-67.1875 47.9492-67.1875C55.7129-67.1875 62.1094-62.8906 66.2598-54.6875C67.334-52.6367 68.5547-51.9043 71.0938-51.9043C82.5195-51.9043 88.1348-45.5566 88.1348-37.8906C88.1348-30.2734 82.2266-24.2676 74.0234-24.2676ZM58.1543 3.27148L62.8418-4.93164C63.6719-6.29883 63.2812-8.00781 61.8652-8.83789C60.4004-9.66797 58.8379-9.17969 57.959-7.71484L53.2227 0.537109C52.4414 1.85547 52.7832 3.51562 54.248 4.3457C55.6641 5.12695 57.373 4.63867 58.1543 3.27148ZM27.6855 3.27148L32.4219-4.88281C33.252-6.25 32.8125-7.95898 31.3965-8.78906C29.9805-9.61914 28.3691-9.13086 27.5391-7.71484L22.8027 0.537109C22.0215 1.85547 22.3633 3.56445 23.8281 4.39453C25.2441 5.17578 26.9043 4.63867 27.6855 3.27148ZM70.1172 14.0137L74.8535 5.85938C75.6836 4.44336 75.2441 2.73438 73.8281 1.9043C72.4121 1.12305 70.8008 1.61133 69.9707 3.02734L65.2344 11.2793C64.4531 12.5977 64.7949 14.2578 66.2598 15.0879C67.6758 15.918 69.3359 15.3809 70.1172 14.0137ZM39.6973 14.0625L44.4336 5.85938C45.2637 4.49219 44.8242 2.7832 43.4082 1.95312C41.9922 1.12305 40.3809 1.61133 39.5508 3.07617L34.7656 11.3281C33.9844 12.6465 34.375 14.3066 35.791 15.1367C37.207 15.918 38.916 15.4297 39.6973 14.0625Z"/>
  </g>
  <g id="Medium-S" transform="matrix(1 0 0 1 1695.21 696)">
   <path d="M25.6836-15.8691L73.2422-15.8691C86.2305-15.8691 95.8496-25.7324 95.8496-37.9883C95.8496-50.6348 85.7422-60.0098 72.4609-60.0098C67.7734-69.1895 58.9355-75.3906 47.4121-75.3906C32.6172-75.3906 20.5566-64.1113 19.1406-49.8535C12.1094-47.7051 6.83594-41.5039 6.83594-33.2031C6.83594-23.5352 13.916-15.8691 25.6836-15.8691ZM25.6836-23.8281C18.3594-23.8281 14.8438-27.7344 14.8438-32.959C14.8438-37.207 17.1875-40.918 23.5352-42.627C25.8789-43.2617 26.709-44.3359 26.9531-46.8262C28.0762-59.2773 36.8164-67.4316 47.4121-67.4316C55.3223-67.4316 61.8164-63.0859 65.918-54.7852C66.9922-52.6855 68.2129-52.002 70.7031-52.002C82.1289-52.002 87.8906-45.5078 87.8906-37.793C87.8906-30.0293 81.8359-23.8281 73.5352-23.8281ZM57.6172 2.44141L62.3535-5.71289C63.1348-7.08008 62.7441-8.69141 61.377-9.47266C60.0098-10.2539 58.4473-9.81445 57.666-8.44727L52.8809-0.195312C52.1484 1.07422 52.4902 2.68555 53.9062 3.4668C55.2734 4.24805 56.8848 3.75977 57.6172 2.44141ZM27.1973 2.49023L31.9336-5.66406C32.7148-7.03125 32.3242-8.64258 30.957-9.42383C29.541-10.2539 28.0273-9.76562 27.2461-8.39844L22.4609-0.146484C21.7285 1.12305 22.0703 2.73438 23.4863 3.51562C24.8047 4.29688 26.4648 3.80859 27.1973 2.49023ZM69.6289 13.2324L74.3164 5.0293C75.1465 3.71094 74.707 2.09961 73.3398 1.26953C71.9727 0.488281 70.4102 0.976562 69.6289 2.34375L64.8438 10.5957C64.1113 11.8652 64.502 13.4766 65.8691 14.2578C67.2363 15.0391 68.8477 14.5508 69.6289 13.2324ZM39.1602 13.2812L43.8965 5.07812C44.6777 3.75977 44.2871 2.14844 42.9199 1.31836C41.5527 0.537109 39.9902 0.976562 39.209 2.34375L34.4238 10.6445C33.6914 11.9141 34.0332 13.5254 35.4492 14.3066C36.8164 15.0391 38.4277 14.5508 39.1602 13.2812Z"/>
  </g>
  <g id="Regular-S" transform="matrix(1 0 0 1 1399.14 696)">
   <path d="M25.1465-16.2598L72.4609-16.2598C85.2051-16.2598 94.5801-25.9277 94.5801-37.8906C94.5801-50.293 84.5215-59.3262 71.4355-59.3262C66.6504-68.7012 57.6172-74.707 46.7285-74.707C32.1777-74.707 20.166-63.4277 18.8965-49.2188C12.0117-47.168 6.83594-41.0645 6.83594-32.959C6.83594-23.6816 13.5254-16.2598 25.1465-16.2598ZM25.0488-23.291C17.5293-23.291 13.8672-27.3438 13.8672-32.7148C13.8672-36.9141 16.1621-40.8203 22.5586-42.5293C24.9023-43.1641 25.7324-44.2383 25.9277-46.7285C26.8555-59.0332 35.8887-67.6758 46.7285-67.6758C54.7852-67.6758 61.4258-63.2812 65.5273-54.834C66.5039-52.832 67.7246-52.0996 70.2148-52.0996C81.5918-52.0996 87.5488-45.5078 87.5488-37.6953C87.5488-29.6875 81.25-23.291 72.9004-23.291ZM56.9824 1.41602L61.7188-6.78711C62.4512-8.05664 62.0605-9.57031 60.791-10.3027C59.4727-11.084 58.0078-10.6445 57.2266-9.375L52.4902-1.07422C51.7578 0.0976562 52.1484 1.61133 53.4668 2.39258C54.7363 3.07617 56.2988 2.63672 56.9824 1.41602ZM26.5625 1.46484L31.2988-6.73828C32.0312-8.00781 31.6406-9.52148 30.3711-10.3027C29.0527-11.0352 27.5879-10.5957 26.8066-9.32617L22.0215-1.02539C21.3379 0.146484 21.7285 1.66016 23.0469 2.39258C24.3164 3.125 25.8789 2.68555 26.5625 1.46484ZM68.8965 12.207L73.6328 4.00391C74.4141 2.73438 73.9746 1.2207 72.7051 0.439453C71.3867-0.292969 69.9219 0.146484 69.1406 1.41602L64.4043 9.7168C63.6719 10.8887 64.0625 12.4023 65.3809 13.1348C66.6504 13.8672 68.2129 13.4277 68.8965 12.207ZM38.4766 12.2559L43.2129 4.05273C43.9941 2.7832 43.5547 1.26953 42.2852 0.488281C40.9668-0.244141 39.502 0.195312 38.7207 1.46484L33.9844 9.76562C33.252 10.9375 33.6426 12.4512 34.9609 13.1836C36.2305 13.916 37.793 13.4766 38.4766 12.2559Z"/>
  </g>
  <g id="Light-S" transform="matrix(1 0 0 1 1102.79 696)">
   <path d="M24.5605-17.1387L72.168-17.1387C84.5703-17.1387 93.8477-26.5137 93.8477-38.1836C93.8477-50.2441 83.9844-59.0332 71.1426-59.0332C66.3574-68.5547 57.6172-74.707 46.4355-74.707C32.1777-74.707 20.4102-63.4277 19.1895-49.2188C12.207-47.2168 6.83594-41.3086 6.83594-33.252C6.83594-24.3652 13.3301-17.1387 24.5605-17.1387ZM24.5117-22.5586C16.4062-22.5586 12.207-27.1973 12.207-33.1055C12.207-38.0371 15.2344-42.334 21.8262-44.0918C23.7305-44.5801 24.4629-45.459 24.6094-47.4121C25.4395-60.0098 35.1074-69.3359 46.4355-69.3359C55.4688-69.3359 62.4023-64.3066 66.5039-55.8105C67.334-54.1016 68.3594-53.5156 70.459-53.5156C81.6895-53.5156 88.4766-46.5332 88.4766-38.0371C88.4766-29.4434 81.543-22.5586 72.4609-22.5586ZM55.6641 0.878906L60.8398-8.10547C61.4746-9.22852 61.1328-10.4004 60.1074-11.0352C59.082-11.6211 57.9102-11.2793 57.2754-10.2051L52.0508-1.12305C51.4648-0.146484 51.7578 1.07422 52.7832 1.66016C53.8086 2.24609 55.0781 1.9043 55.6641 0.878906ZM25.2441 0.878906L30.4199-8.10547C31.0547-9.17969 30.7129-10.3516 29.6875-10.9863C28.6621-11.5723 27.4902-11.2305 26.8555-10.1562L21.6309-1.12305C21.0449-0.0976562 21.2891 1.12305 22.3633 1.70898C23.3887 2.29492 24.6094 1.95312 25.2441 0.878906ZM67.6758 11.6211L72.8516 2.63672C73.4863 1.5625 73.1445 0.341797 72.1191-0.244141C71.0938-0.830078 69.9219-0.537109 69.2871 0.585938L64.0625 9.61914C63.4766 10.6445 63.7695 11.8164 64.7949 12.4512C65.8203 13.0371 67.041 12.6465 67.6758 11.6211ZM37.207 11.6699L42.4316 2.63672C43.0664 1.5625 42.7246 0.390625 41.6992-0.244141C40.6738-0.830078 39.502-0.488281 38.8184 0.585938L33.6426 9.66797C33.0078 10.6445 33.3008 11.8652 34.375 12.4512C35.4004 13.0371 36.6211 12.6953 37.207 11.6699Z"/>
  </g>
  <g id="Thin-S" transform="matrix(1 0 0 1 806.544 696)">
   <path d="M23.7793-18.3105L71.7773-18.3105C83.7402-18.3105 92.9199-27.3438 92.9199-38.623C92.9199-50.1465 83.252-58.6426 70.752-58.6426C65.9668-68.4082 57.6172-74.707 46.0449-74.707C32.1777-74.707 20.752-63.4277 19.5801-49.2188C12.4512-47.3145 6.83594-41.6504 6.83594-33.6426C6.83594-25.2441 13.0859-18.3105 23.7793-18.3105ZM23.7793-21.5332C14.8926-21.5332 10.0586-26.9531 10.0586-33.5938C10.0586-39.5508 14.0137-44.2871 20.8008-46.0938C22.2656-46.4844 22.7051-47.0703 22.8027-48.3887C23.584-61.2793 34.082-71.4844 46.0449-71.4844C56.2988-71.4844 63.6719-65.7227 67.8223-57.0801C68.457-55.8105 69.1895-55.3711 70.752-55.3711C81.8359-55.3711 89.6484-47.8516 89.6484-38.4766C89.6484-29.1504 81.8848-21.5332 71.9238-21.5332ZM53.9062 0.146484L59.7168-9.91211C60.2051-10.6934 59.9609-11.5234 59.2773-11.9141C58.5938-12.3047 57.8125-12.0605 57.3242-11.2793L51.5137-1.2207C51.0742-0.439453 51.2695 0.341797 51.9531 0.78125C52.6367 1.17188 53.4668 0.927734 53.9062 0.146484ZM23.4375 0.146484L29.248-9.91211C29.7363-10.6934 29.541-11.4746 28.8086-11.9141C28.1738-12.3047 27.3926-12.0605 26.8555-11.2793L21.0449-1.2207C20.6055-0.439453 20.8008 0.390625 21.4844 0.78125C22.2168 1.17188 22.998 0.927734 23.4375 0.146484ZM66.0156 10.8398L71.8262 0.830078C72.3145 0 72.0703-0.78125 71.3867-1.2207C70.7031-1.5625 69.9219-1.36719 69.4336-0.537109L63.623 9.52148C63.1836 10.3027 63.3301 11.084 64.0625 11.4746C64.7461 11.9141 65.5762 11.6211 66.0156 10.8398ZM35.5469 10.8398L41.3574 0.830078C41.8457 0 41.6016-0.78125 40.918-1.17188C40.2344-1.5625 39.4531-1.36719 38.9648-0.537109L33.1543 9.52148C32.7148 10.3027 32.9102 11.084 33.5938 11.5234C34.2773 11.9141 35.1074 11.6699 35.5469 10.8398Z"/>
  </g>
  <g id="Ultralight-S" transform="matrix(1 0 0 1 510.102 696)">
   <path d="M23.3887-18.8965L71.582-18.8965C83.3008-18.8965 92.3828-27.7344 92.3828-38.8184C92.3828-50.0977 82.9102-58.4473 70.5566-58.4473C65.7715-68.3105 57.6172-74.707 45.8496-74.707C32.1777-74.707 20.9473-63.4277 19.7754-49.2188C12.5977-47.3633 6.83594-41.7969 6.83594-33.8379C6.83594-25.6836 12.9395-18.8965 23.3887-18.8965ZM23.3887-20.9961C14.1602-20.9961 8.93555-26.8555 8.93555-33.8379C8.93555-40.2832 13.3789-45.3125 20.2637-47.1191C21.4844-47.4121 21.8262-47.9004 21.875-48.877C22.6074-61.9141 33.5449-72.6074 45.8496-72.6074C56.7383-72.6074 64.3555-66.4551 68.5059-57.7637C68.9941-56.6895 69.6289-56.3477 70.8984-56.3477C81.9336-56.3477 90.2832-48.584 90.2832-38.7207C90.2832-29.0039 82.0801-20.9961 71.582-20.9961ZM52.9785-0.244141L59.1309-10.8398C59.5215-11.4746 59.375-12.0605 58.8379-12.4023C58.3496-12.6465 57.7637-12.5 57.373-11.8164L51.2207-1.26953C50.8789-0.585938 50.9766 0 51.5137 0.292969C52.0508 0.634766 52.6367 0.390625 52.9785-0.244141ZM22.5098-0.244141L28.6621-10.8398C29.0527-11.4746 28.9062-12.0605 28.3691-12.4023C27.8809-12.6465 27.2949-12.5 26.9043-11.8164L20.752-1.26953C20.4102-0.585938 20.5078 0 21.0449 0.292969C21.582 0.634766 22.168 0.390625 22.5098-0.244141ZM65.1367 10.4492L71.2891-0.146484C71.6797-0.78125 71.5332-1.36719 70.9961-1.70898C70.5078-1.95312 69.9219-1.80664 69.5312-1.12305L63.3789 9.42383C63.0371 10.1074 63.1348 10.6934 63.6719 10.9863C64.209 11.3281 64.7949 11.084 65.1367 10.4492ZM34.668 10.4492L40.8203-0.146484C41.2109-0.78125 41.0645-1.36719 40.5273-1.70898C40.0391-1.95312 39.4531-1.80664 39.0625-1.12305L32.9102 9.42383C32.5684 10.1074 32.666 10.6934 33.2031 10.9863C33.7402 11.3281 34.3262 11.1328 34.668 10.4492Z"/>
  </g>
 </g>
</svg>
