<?xml version="1.0" encoding="UTF-8"?>
<!--Generator: Apple Native CoreSVG 149-->
<!DOCTYPE svg
PUBLIC "-//W3C//DTD SVG 1.1//EN"
       "http://www.w3.org/Graphics/SVG/1.1/DTD/svg11.dtd">
<svg version="1.1" xmlns="http://www.w3.org/2000/svg" xmlns:xlink="http://www.w3.org/1999/xlink" width="3300" height="2200">
 <!--glyph: "uni1001E7.medium", point size: 100.000000, font version: "Version 16.0d12e3", template writer version: "8"-->
 <g id="Notes">
  <rect height="2200" id="artboard" style="fill:white;opacity:1" width="3300" x="0" y="0"/>
  <line id="" style="fill:none;stroke:black;opacity:1;stroke-width:0.5;" x1="263" x2="3036" y1="292" y2="292"/>
  <text style="stroke:none;fill:black;font-family:-apple-system,&quot;SF Pro Display&quot;,&quot;SF Pro Text&quot;,Helvetica,sans-serif;font-weight:bold;" transform="matrix(1 0 0 1 263 322)">Weight/Scale Variations</text>
  <text style="stroke:none;fill:black;font-family:-apple-system,&quot;SF Pro Display&quot;,&quot;SF Pro Text&quot;,Helvetica,sans-serif;text-anchor:middle;" transform="matrix(1 0 0 1 559.711 322)">Ultralight</text>
  <text style="stroke:none;fill:black;font-family:-apple-system,&quot;SF Pro Display&quot;,&quot;SF Pro Text&quot;,Helvetica,sans-serif;text-anchor:middle;" transform="matrix(1 0 0 1 856.422 322)">Thin</text>
  <text style="stroke:none;fill:black;font-family:-apple-system,&quot;SF Pro Display&quot;,&quot;SF Pro Text&quot;,Helvetica,sans-serif;text-anchor:middle;" transform="matrix(1 0 0 1 1153.13 322)">Light</text>
  <text style="stroke:none;fill:black;font-family:-apple-system,&quot;SF Pro Display&quot;,&quot;SF Pro Text&quot;,Helvetica,sans-serif;text-anchor:middle;" transform="matrix(1 0 0 1 1449.84 322)">Regular</text>
  <text style="stroke:none;fill:black;font-family:-apple-system,&quot;SF Pro Display&quot;,&quot;SF Pro Text&quot;,Helvetica,sans-serif;text-anchor:middle;" transform="matrix(1 0 0 1 1746.56 322)">Medium</text>
  <text style="stroke:none;fill:black;font-family:-apple-system,&quot;SF Pro Display&quot;,&quot;SF Pro Text&quot;,Helvetica,sans-serif;text-anchor:middle;" transform="matrix(1 0 0 1 2043.27 322)">Semibold</text>
  <text style="stroke:none;fill:black;font-family:-apple-system,&quot;SF Pro Display&quot;,&quot;SF Pro Text&quot;,Helvetica,sans-serif;text-anchor:middle;" transform="matrix(1 0 0 1 2339.98 322)">Bold</text>
  <text style="stroke:none;fill:black;font-family:-apple-system,&quot;SF Pro Display&quot;,&quot;SF Pro Text&quot;,Helvetica,sans-serif;text-anchor:middle;" transform="matrix(1 0 0 1 2636.69 322)">Heavy</text>
  <text style="stroke:none;fill:black;font-family:-apple-system,&quot;SF Pro Display&quot;,&quot;SF Pro Text&quot;,Helvetica,sans-serif;text-anchor:middle;" transform="matrix(1 0 0 1 2933.4 322)">Black</text>
  <line id="" style="fill:none;stroke:black;opacity:1;stroke-width:0.5;" x1="263" x2="3036" y1="1903" y2="1903"/>
  <g id="" transform="matrix(1 0 0 1 263 1933)">
   <path d="M9.24805 0.830078C13.5547 0.830078 17.1387-2.74414 17.1387-7.05078C17.1387-11.3574 13.5449-14.9316 9.23828-14.9316C4.94141-14.9316 1.36719-11.3574 1.36719-7.05078C1.36719-2.74414 4.95117 0.830078 9.24805 0.830078ZM9.24805-0.654297C5.70312-0.654297 2.87109-3.49609 2.87109-7.05078C2.87109-10.6055 5.69336-13.4473 9.23828-13.4473C12.793-13.4473 15.6348-10.6055 15.6445-7.05078C15.6543-3.49609 12.8027-0.654297 9.24805-0.654297ZM9.22852-3.62305C9.69727-3.62305 9.9707-3.93555 9.9707-4.45312L9.9707-6.31836L12.002-6.31836C12.5-6.31836 12.832-6.57227 12.832-7.04102C12.832-7.51953 12.5195-7.7832 12.002-7.7832L9.9707-7.7832L9.9707-9.81445C9.9707-10.332 9.69727-10.6543 9.22852-10.6543C8.75977-10.6543 8.50586-10.3125 8.50586-9.81445L8.50586-7.7832L6.49414-7.7832C5.97656-7.7832 5.64453-7.51953 5.64453-7.04102C5.64453-6.57227 5.99609-6.31836 6.49414-6.31836L8.50586-6.31836L8.50586-4.45312C8.50586-3.95508 8.75977-3.62305 9.22852-3.62305Z"/>
  </g>
  <g id="" transform="matrix(1 0 0 1 281.506 1933)">
   <path d="M11.709 2.91016C17.1582 2.91016 21.6699-1.61133 21.6699-7.05078C21.6699-12.5 17.1484-17.0117 11.6992-17.0117C6.25977-17.0117 1.74805-12.5 1.74805-7.05078C1.74805-1.61133 6.26953 2.91016 11.709 2.91016ZM11.709 1.25C7.09961 1.25 3.41797-2.44141 3.41797-7.05078C3.41797-11.6602 7.08984-15.3516 11.6992-15.3516C16.3086-15.3516 20-11.6602 20.0098-7.05078C20.0195-2.44141 16.3184 1.25 11.709 1.25ZM11.6797-2.66602C12.207-2.66602 12.5098-3.01758 12.5098-3.59375L12.5098-6.23047L15.3223-6.23047C15.8691-6.23047 16.25-6.51367 16.25-7.03125C16.25-7.55859 15.8887-7.86133 15.3223-7.86133L12.5098-7.86133L12.5098-10.6836C12.5098-11.25 12.207-11.6113 11.6797-11.6113C11.1621-11.6113 10.8789-11.2305 10.8789-10.6836L10.8789-7.86133L8.07617-7.86133C7.50977-7.86133 7.13867-7.55859 7.13867-7.03125C7.13867-6.51367 7.5293-6.23047 8.07617-6.23047L10.8789-6.23047L10.8789-3.59375C10.8789-3.03711 11.1621-2.66602 11.6797-2.66602Z"/>
  </g>
  <g id="" transform="matrix(1 0 0 1 304.924 1933)">
   <path d="M14.9707 5.66406C21.9336 5.66406 27.6953-0.0976562 27.6953-7.05078C27.6953-14.0137 21.9238-19.7754 14.9609-19.7754C8.00781-19.7754 2.25586-14.0137 2.25586-7.05078C2.25586-0.0976562 8.01758 5.66406 14.9707 5.66406ZM14.9707 3.84766C8.93555 3.84766 4.08203-1.01562 4.08203-7.05078C4.08203-13.0957 8.92578-17.9492 14.9609-17.9492C21.0059-17.9492 25.8594-13.0957 25.8691-7.05078C25.8789-1.01562 21.0156 3.84766 14.9707 3.84766ZM14.9414-1.38672C15.5176-1.38672 15.8594-1.77734 15.8594-2.38281L15.8594-6.13281L19.7754-6.13281C20.3711-6.13281 20.7812-6.46484 20.7812-7.02148C20.7812-7.59766 20.3906-7.93945 19.7754-7.93945L15.8594-7.93945L15.8594-11.8652C15.8594-12.4805 15.5176-12.8711 14.9414-12.8711C14.375-12.8711 14.0527-12.4609 14.0527-11.8652L14.0527-7.93945L10.1465-7.93945C9.53125-7.93945 9.13086-7.59766 9.13086-7.02148C9.13086-6.46484 9.55078-6.13281 10.1465-6.13281L14.0527-6.13281L14.0527-2.38281C14.0527-1.79688 14.375-1.38672 14.9414-1.38672Z"/>
  </g>
  <text style="stroke:none;fill:black;font-family:-apple-system,&quot;SF Pro Display&quot;,&quot;SF Pro Text&quot;,Helvetica,sans-serif;font-weight:bold;" transform="matrix(1 0 0 1 263 1953)">Design Variations</text>
  <text style="stroke:none;fill:black;font-family:-apple-system,&quot;SF Pro Display&quot;,&quot;SF Pro Text&quot;,Helvetica,sans-serif;" transform="matrix(1 0 0 1 263 1971)">Symbols are supported in up to nine weights and three scales.</text>
  <text style="stroke:none;fill:black;font-family:-apple-system,&quot;SF Pro Display&quot;,&quot;SF Pro Text&quot;,Helvetica,sans-serif;" transform="matrix(1 0 0 1 263 1989)">For optimal layout with text and other symbols, vertically align</text>
  <text style="stroke:none;fill:black;font-family:-apple-system,&quot;SF Pro Display&quot;,&quot;SF Pro Text&quot;,Helvetica,sans-serif;" transform="matrix(1 0 0 1 263 2007)">symbols with the adjacent text.</text>
  <line id="" style="fill:none;stroke:#00AEEF;stroke-width:0.5;opacity:1.0;" x1="776" x2="776" y1="1919" y2="1933"/>
  <g id="" transform="matrix(1 0 0 1 776 1933)">
   <path d="M3.31055 0.126953C3.82812 0.126953 4.08203-0.0683594 4.26758-0.605469L5.52734-4.0625L11.2891-4.0625L12.5488-0.605469C12.7344-0.0683594 12.9883 0.126953 13.4961 0.126953C14.0137 0.126953 14.3457-0.185547 14.3457-0.673828C14.3457-0.839844 14.3164-0.986328 14.2383-1.20117L9.6582-13.3887C9.43359-13.9941 9.0332-14.2871 8.4082-14.2871C7.80273-14.2871 7.39258-13.9941 7.17773-13.3984L2.59766-1.19141C2.51953-0.976562 2.49023-0.830078 2.49023-0.664062C2.49023-0.175781 2.80273 0.126953 3.31055 0.126953ZM6.00586-5.53711L8.37891-12.1094L8.42773-12.1094L10.8008-5.53711Z"/>
  </g>
  <line id="" style="fill:none;stroke:#00AEEF;stroke-width:0.5;opacity:1.0;" x1="792.836" x2="792.836" y1="1919" y2="1933"/>
  <text style="stroke:none;fill:black;font-family:-apple-system,&quot;SF Pro Display&quot;,&quot;SF Pro Text&quot;,Helvetica,sans-serif;font-weight:bold;" transform="matrix(1 0 0 1 776 1953)">Margins</text>
  <text style="stroke:none;fill:black;font-family:-apple-system,&quot;SF Pro Display&quot;,&quot;SF Pro Text&quot;,Helvetica,sans-serif;" transform="matrix(1 0 0 1 776 1971)">Leading and trailing margins on the left and right side of each symbol</text>
  <text style="stroke:none;fill:black;font-family:-apple-system,&quot;SF Pro Display&quot;,&quot;SF Pro Text&quot;,Helvetica,sans-serif;" transform="matrix(1 0 0 1 776 1989)">can be adjusted by modifying the x-location of the margin guidelines.</text>
  <text style="stroke:none;fill:black;font-family:-apple-system,&quot;SF Pro Display&quot;,&quot;SF Pro Text&quot;,Helvetica,sans-serif;" transform="matrix(1 0 0 1 776 2007)">Modifications are automatically applied proportionally to all</text>
  <text style="stroke:none;fill:black;font-family:-apple-system,&quot;SF Pro Display&quot;,&quot;SF Pro Text&quot;,Helvetica,sans-serif;" transform="matrix(1 0 0 1 776 2025)">scales and weights.</text>
  <g id="" transform="matrix(1 0 0 1 1289 1933)">
   <path d="M2.8418 1.86523L4.54102 3.57422C5.40039 4.44336 6.38672 4.38477 7.31445 3.35938L17.4902-7.85156C17.7539-7.76367 18.0273-7.7832 18.3398-7.8418L19.4043-8.03711L20.0684-7.36328L20.0293-6.80664C19.9902-6.30859 20.1172-5.92773 20.6055-5.44922L21.3672-4.70703C21.8457-4.22852 22.4609-4.19922 22.9297-4.66797L25.8398-7.58789C26.3086-8.05664 26.2891-8.65234 25.8105-9.13086L25.0391-9.89258C24.5605-10.3711 24.1895-10.5273 23.7109-10.4883L23.1348-10.4395L22.4902-11.0742L22.7344-12.1973C22.8613-12.7637 22.7051-13.2031 22.1191-13.7891L19.9219-15.9766C16.582-19.2969 12.1484-19.2188 9.25781-16.3281C8.83789-15.918 8.80859-15.3418 9.04297-14.9512C9.27734-14.5898 9.73633-14.3555 10.3809-14.5215C11.8457-14.8633 13.3691-14.9219 14.7949-13.9844L14.209-12.5293C14.0137-12.0508 13.9844-11.6504 14.1113-11.2891L3.04688-0.898438C2.06055 0.0195312 1.98242 0.996094 2.8418 1.86523ZM10.752-15.957C13.1836-17.7344 16.4746-17.4316 18.7012-15.2051L21.1328-12.793C21.3672-12.5586 21.4062-12.373 21.3379-12.0312L21.0156-10.5469L22.5195-9.0625L23.5059-9.12109C23.7598-9.13086 23.8379-9.11133 24.0332-8.91602L24.6094-8.33984L22.168-5.89844L21.5918-6.47461C21.3965-6.66992 21.3672-6.74805 21.377-7.01172L21.4453-7.98828L19.9512-9.47266L18.4277-9.21875C18.1055-9.15039 17.959-9.17969 17.7148-9.41406L15.7129-11.416C15.459-11.6504 15.4297-11.8164 15.5859-12.1875L16.4648-14.2773C14.9023-15.7324 12.8711-16.3574 10.8398-15.7617C10.6836-15.7227 10.625-15.8496 10.752-15.957ZM5.27344 2.30469L4.10156 1.14258C3.63281 0.683594 3.74023 0.341797 4.14062-0.0195312L14.9512-10.1953L16.416-8.71094L6.42578 2.27539C6.07422 2.67578 5.74219 2.77344 5.27344 2.30469Z"/>
  </g>
  <text style="stroke:none;fill:black;font-family:-apple-system,&quot;SF Pro Display&quot;,&quot;SF Pro Text&quot;,Helvetica,sans-serif;font-weight:bold;" transform="matrix(1 0 0 1 1289 1953)">Exporting</text>
  <text style="stroke:none;fill:black;font-family:-apple-system,&quot;SF Pro Display&quot;,&quot;SF Pro Text&quot;,Helvetica,sans-serif;" transform="matrix(1 0 0 1 1289 1971)">Symbols should be outlined when exporting to ensure the</text>
  <text style="stroke:none;fill:black;font-family:-apple-system,&quot;SF Pro Display&quot;,&quot;SF Pro Text&quot;,Helvetica,sans-serif;" transform="matrix(1 0 0 1 1289 1989)">design is preserved when submitting to Xcode.</text>
  <text id="template-version" style="stroke:none;fill:black;font-family:-apple-system,&quot;SF Pro Display&quot;,&quot;SF Pro Text&quot;,Helvetica,sans-serif;text-anchor:end;" transform="matrix(1 0 0 1 3036 1933)">Template v.2.0</text>
  <text style="stroke:none;fill:black;font-family:-apple-system,&quot;SF Pro Display&quot;,&quot;SF Pro Text&quot;,Helvetica,sans-serif;text-anchor:end;" transform="matrix(1 0 0 1 3036 1951)">Requires Xcode 12 or greater</text>
  <text style="stroke:none;fill:black;font-family:-apple-system,&quot;SF Pro Display&quot;,&quot;SF Pro Text&quot;,Helvetica,sans-serif;text-anchor:end;" transform="matrix(1 0 0 1 3036 1969)">Generated from tornado</text>
  <text style="stroke:none;fill:black;font-family:-apple-system,&quot;SF Pro Display&quot;,&quot;SF Pro Text&quot;,Helvetica,sans-serif;text-anchor:end;" transform="matrix(1 0 0 1 3036 1987)">Typeset at 100 points</text>
  <text style="stroke:none;fill:black;font-family:-apple-system,&quot;SF Pro Display&quot;,&quot;SF Pro Text&quot;,Helvetica,sans-serif;" transform="matrix(1 0 0 1 263 726)">Small</text>
  <text style="stroke:none;fill:black;font-family:-apple-system,&quot;SF Pro Display&quot;,&quot;SF Pro Text&quot;,Helvetica,sans-serif;" transform="matrix(1 0 0 1 263 1156)">Medium</text>
  <text style="stroke:none;fill:black;font-family:-apple-system,&quot;SF Pro Display&quot;,&quot;SF Pro Text&quot;,Helvetica,sans-serif;" transform="matrix(1 0 0 1 263 1586)">Large</text>
 </g>
 <g id="Guides">
  <g id="H-reference" style="fill:#27AAE1;stroke:none;" transform="matrix(1 0 0 1 339 696)">
   <path d="M0.976562 0L3.66211 0L12.9883-24.4629L45.752-24.4629L55.127 0L57.7637 0L30.6152-70.459L28.125-70.459ZM29.3457-67.1387L29.4434-67.1387L44.873-26.709L13.8672-26.709Z"/>
  </g>
  <line id="Baseline-S" style="fill:none;stroke:#27AAE1;opacity:1;stroke-width:0.5;" x1="263" x2="3036" y1="696" y2="696"/>
  <line id="Capline-S" style="fill:none;stroke:#27AAE1;opacity:1;stroke-width:0.5;" x1="263" x2="3036" y1="625.541" y2="625.541"/>
  <g id="H-reference" style="fill:#27AAE1;stroke:none;" transform="matrix(1 0 0 1 339 1126)">
   <path d="M0.976562 0L3.66211 0L12.9883-24.4629L45.752-24.4629L55.127 0L57.7637 0L30.6152-70.459L28.125-70.459ZM29.3457-67.1387L29.4434-67.1387L44.873-26.709L13.8672-26.709Z"/>
  </g>
  <line id="Baseline-M" style="fill:none;stroke:#27AAE1;opacity:1;stroke-width:0.5;" x1="263" x2="3036" y1="1126" y2="1126"/>
  <line id="Capline-M" style="fill:none;stroke:#27AAE1;opacity:1;stroke-width:0.5;" x1="263" x2="3036" y1="1055.54" y2="1055.54"/>
  <g id="H-reference" style="fill:#27AAE1;stroke:none;" transform="matrix(1 0 0 1 339 1556)">
   <path d="M0.976562 0L3.66211 0L12.9883-24.4629L45.752-24.4629L55.127 0L57.7637 0L30.6152-70.459L28.125-70.459ZM29.3457-67.1387L29.4434-67.1387L44.873-26.709L13.8672-26.709Z"/>
  </g>
  <line id="Baseline-L" style="fill:none;stroke:#27AAE1;opacity:1;stroke-width:0.5;" x1="263" x2="3036" y1="1556" y2="1556"/>
  <line id="Capline-L" style="fill:none;stroke:#27AAE1;opacity:1;stroke-width:0.5;" x1="263" x2="3036" y1="1485.54" y2="1485.54"/>
  <line id="left-margin" style="fill:none;stroke:#00AEEF;stroke-width:0.5;opacity:1.0;" x1="1394.77" x2="1394.77" y1="1030.79" y2="1150.12"/>
  <line id="right-margin" style="fill:none;stroke:#00AEEF;stroke-width:0.5;opacity:1.0;" x1="1504.92" x2="1504.92" y1="1030.79" y2="1150.12"/>
 </g>
 <g id="Symbols">
  <g id="Black-L" transform="matrix(1 0 0 1 2855.81 1556)">
   <path d="M76.7578-50.9277C118.799-50.9277 143.896-61.084 143.896-76.6602C143.896-90.6738 125.977-98.9746 96.2402-98.9746C76.709-98.9746 60.498-96.1914 47.4609-91.2109C42.7734-89.4043 41.748-84.6191 43.1641-81.2988C44.7754-77.4902 48.8281-76.0254 53.8086-77.6367C64.4531-81.1523 77.2949-84.6191 95.459-84.6191C113.428-84.6191 127.588-81.2988 127.588-76.709C127.588-70.8008 102.93-65.6738 76.0742-65.6738C43.6035-65.6738 27.5879-71.7285 27.5879-83.1543C27.5879-91.3086 35.3027-97.6074 51.6602-102.246C56.6406-103.613 58.3984-107.666 57.1289-111.719C55.8105-115.771 52.0508-117.432 46.6309-116.064C22.8027-110.107 11.2793-96.6309 11.2793-82.8125C11.2793-62.4512 34.2285-50.9277 76.7578-50.9277ZM78.6133-27.3438C99.8535-27.3438 119.629-30.6641 133.252-35.7422C137.402-37.3047 138.916-41.3574 137.256-44.873C135.645-48.2422 131.885-49.1699 127.588-47.7051C115.186-43.5059 97.1191-40.5273 78.6133-40.5273C64.3066-40.5273 48.3398-42.1875 35.2051-46.0938C30.957-47.3633 27.3438-45.9473 26.2695-42.2363C25.1953-38.4277 27.4414-34.8145 31.8848-33.4961C46.1914-29.2969 63.4277-27.3438 78.6133-27.3438ZM83.6426-4.10156C101.074-4.24805 117.188-6.68945 132.764-11.377C137.305-12.7441 139.014-16.748 137.598-20.4102C136.328-23.7305 133.154-25.2441 128.613-23.9258C113.623-19.4824 99.1211-17.2852 83.0566-17.2852C76.5137-17.2852 69.3359-17.6758 64.209-18.4082C59.668-19.043 56.7383-16.7969 56.0547-13.4277C55.3711-9.7168 57.4219-6.00586 62.207-5.32227C67.6758-4.58984 74.6582-4.00391 83.6426-4.10156ZM76.6113 17.9688C88.8672 19.3359 105.42 18.6035 117.041 15.7715C121.387 14.6973 123.242 10.9863 122.266 7.32422C121.24 3.56445 117.627 2.00195 113.281 2.92969C103.223 5.12695 90.1367 5.9082 78.418 5.0293C73.7793 4.6875 70.752 7.08008 70.3125 10.5957C69.9707 13.8184 71.7285 17.4805 76.6113 17.9688ZM72.2168 40.625C76.8555 41.1133 81.4941 41.1133 86.6699 40.5762C90.625 40.1367 93.1152 37.5 92.8223 33.5938C92.4805 29.9805 89.5996 27.4414 85.2051 27.9785C81.2012 28.418 77.0508 28.418 73.584 28.0273C69.2871 27.4902 66.3086 30.0781 66.0156 33.6914C65.6738 37.5 68.1641 40.2344 72.2168 40.625Z"/>
  </g>
  <g id="Heavy-L" transform="matrix(1 0 0 1 2560.83 1556)">
   <path d="M74.9512-50.3418C115.918-50.3418 140.43-60.3027 140.43-75.2441C140.43-88.7695 122.705-96.8262 94.0918-96.8262C74.8047-96.8262 58.9355-93.8477 46.3379-88.7695C42.1387-87.1094 41.2109-82.8613 42.4805-79.8828C43.9941-76.5137 47.7051-75.2441 52.0996-76.6602C62.5977-80.3711 75.4395-83.9844 93.4082-83.9844C112.158-83.9844 126.025-80.2734 126.025-75.3418C126.025-69.1406 102.393-63.5254 74.3652-63.5254C42.041-63.5254 25.7324-69.6777 25.7324-81.25C25.7324-89.2578 33.252-95.8984 50-100.781C54.4434-102.002 56.0547-105.566 54.8828-109.229C53.7598-112.842 50.3906-114.307 45.5566-113.086C22.5098-107.08 11.2793-94.1895 11.2793-80.957C11.2793-61.3281 33.5449-50.3418 74.9512-50.3418ZM76.8555-27.4902C97.7051-27.4902 117.09-30.7617 130.518-35.9375C134.18-37.3047 135.547-40.918 134.033-44.0918C132.617-47.0703 129.248-47.8516 125.391-46.5332C113.086-42.2363 95.2637-39.209 76.8555-39.209C62.6953-39.209 46.7773-40.918 33.9355-44.7266C30.0781-45.8496 26.8555-44.5801 25.9277-41.3086C24.9512-37.8906 26.9043-34.668 30.9082-33.4961C44.8242-29.3945 61.9141-27.4902 76.8555-27.4902ZM81.7383-4.98047C99.0234-5.12695 114.941-7.56836 130.127-12.2559C134.277-13.5254 135.693-17.1387 134.424-20.3125C133.301-23.3398 130.371-24.6094 126.27-23.3887C111.621-18.9453 97.168-16.6992 81.2988-16.6992C74.7559-16.6992 67.6758-17.1387 62.5488-17.8223C58.4473-18.4082 55.8105-16.4551 55.2246-13.4277C54.5898-10.1074 56.3965-6.83594 60.7422-6.20117C66.0645-5.41992 73.0469-4.88281 81.7383-4.98047ZM75 16.4062C87.0605 17.7734 102.93 17.1387 114.6 14.1602C118.506 13.2324 120.117 9.86328 119.238 6.64062C118.311 3.27148 115.088 1.9043 111.133 2.7832C101.074 5.12695 88.1836 5.9082 76.6602 4.88281C72.5098 4.54102 69.7754 6.64062 69.3848 9.86328C68.9941 12.7441 70.6055 15.9668 75 16.4062ZM70.6055 38.3789C75.0488 38.8672 79.7852 38.8184 84.668 38.2812C88.2812 37.9395 90.4297 35.5469 90.1855 32.0801C89.8926 28.8574 87.3047 26.6113 83.3496 27.0996C79.4434 27.5879 75.293 27.5879 71.8262 27.1484C67.9199 26.709 65.332 28.9551 65.0391 32.1289C64.6973 35.498 66.8945 37.9883 70.6055 38.3789Z"/>
  </g>
  <g id="Bold-L" transform="matrix(1 0 0 1 2266.03 1556)">
   <path d="M72.998-49.6582C112.695-49.6582 136.621-59.4238 136.621-73.7305C136.621-86.6211 118.994-94.4336 91.6992-94.4336C72.7051-94.4336 57.2266-91.2109 45.1172-86.084C41.4062-84.5703 40.5762-80.9082 41.7969-78.3203C43.1152-75.3418 46.4844-74.3652 50.1465-75.6348C60.4492-79.541 73.3398-83.3008 91.0645-83.3008C110.742-83.3008 124.268-79.1016 124.268-73.7793C124.268-67.2852 101.807-61.084 72.4609-61.084C40.2832-61.084 23.6328-67.334 23.6328-79.1504C23.6328-86.9141 31.0059-93.9453 48.1934-99.1211C52.002-100.195 53.4668-103.271 52.4414-106.396C51.416-109.57 48.5352-110.791 44.3359-109.668C22.2168-103.662 11.2793-91.5039 11.2793-78.8574C11.2793-60.0586 32.7637-49.6582 72.998-49.6582ZM74.8535-27.6367C95.3125-27.6367 114.209-30.9082 127.441-36.1328C130.566-37.3535 131.836-40.4297 130.469-43.1641C129.199-45.8008 126.318-46.3867 122.949-45.2148C110.791-40.7715 93.2129-37.793 74.8535-37.793C60.8887-37.793 44.9707-39.502 32.5195-43.1641C29.1504-44.1406 26.3184-43.1152 25.4883-40.2344C24.6582-37.2559 26.3184-34.5215 29.7852-33.4961C43.3105-29.541 60.2051-27.6367 74.8535-27.6367ZM79.5898-5.95703C96.6309-6.05469 112.402-8.54492 127.148-13.2324C130.811-14.4043 131.934-17.5293 130.908-20.2148C129.883-22.8516 127.295-23.877 123.633-22.8027C109.326-18.3594 94.9219-16.0645 79.2969-16.0645C72.8027-16.0645 65.8691-16.4551 60.6445-17.1875C57.0801-17.7246 54.7852-16.0645 54.248-13.3789C53.7109-10.5469 55.2734-7.76367 59.082-7.17773C64.2578-6.39648 71.2402-5.85938 79.5898-5.95703ZM73.1934 14.6484C84.9609 16.0156 100.195 15.5273 111.865 12.4023C115.234 11.5723 116.65 8.59375 115.869 5.81055C114.99 2.92969 112.256 1.80664 108.74 2.58789C98.584 5.07812 86.0352 5.9082 74.6582 4.73633C71.0449 4.39453 68.6523 6.20117 68.3105 8.98438C67.9688 11.5723 69.3848 14.2578 73.1934 14.6484ZM68.7988 35.8398C73.0469 36.377 77.8809 36.3281 82.4219 35.791C85.6445 35.4492 87.5 33.3008 87.2559 30.3223C86.9629 27.6367 84.7656 25.6836 81.25 26.123C77.4902 26.6113 73.3398 26.6113 69.8242 26.2207C66.4551 25.7812 64.209 27.6855 63.916 30.3711C63.623 33.252 65.4785 35.4492 68.7988 35.8398Z"/>
  </g>
  <g id="Semibold-L" transform="matrix(1 0 0 1 1970.66 1556)">
   <path d="M71.582-49.1699C110.498-49.1699 133.936-58.8379 133.936-72.6562C133.936-85.1562 116.504-92.7734 90.0391-92.7734C71.2402-92.7734 56.0547-89.4043 44.2383-84.2285C40.918-82.8125 40.1855-79.541 41.2598-77.1973C42.5293-74.5605 45.6543-73.7305 48.7793-74.9023C59.0332-78.9551 71.875-82.8613 89.4531-82.8613C109.766-82.8613 123.047-78.2715 123.047-72.7051C123.047-66.0156 101.416-59.4238 71.1426-59.4238C39.1113-59.4238 22.168-65.7227 22.168-77.6855C22.168-85.3516 29.4434-92.5781 46.9238-97.9492C50.293-98.9746 51.6602-101.709 50.7324-104.492C49.8047-107.324 47.2656-108.398 43.5059-107.373C21.9727-101.27 11.2793-89.6484 11.2793-77.4414C11.2793-59.2285 32.2266-49.1699 71.582-49.1699ZM73.5352-27.7832C93.6523-27.7832 112.256-30.957 125.293-36.2793C128.076-37.3535 129.248-40.0879 128.027-42.5293C126.855-44.873 124.268-45.3613 121.24-44.2871C109.18-39.7461 91.8457-36.8164 73.5352-36.8164C59.6191-36.8164 43.75-38.5254 31.543-42.1387C28.5156-43.0176 25.9766-42.041 25.2441-39.4531C24.4629-36.8652 25.8789-34.4238 29.0527-33.4961C42.2363-29.6387 59.0332-27.7832 73.5352-27.7832ZM78.125-6.5918C95.0195-6.73828 110.693-9.22852 125.098-13.916C128.467-14.9902 129.346-17.8223 128.418-20.166C127.49-22.5098 125.146-23.3887 121.826-22.3633C107.764-17.9199 93.4082-15.625 77.9297-15.625C71.4355-15.625 64.5996-16.0156 59.3262-16.748C56.1035-17.2363 54.0527-15.7715 53.6133-13.3789C53.125-10.8887 54.4922-8.44727 57.959-7.86133C63.0371-7.08008 69.9707-6.54297 78.125-6.5918ZM71.9238 13.4766C83.5449 14.7949 98.291 14.4043 110.01 11.1816C113.037 10.4004 114.258 7.76367 113.525 5.27344C112.744 2.68555 110.254 1.70898 107.129 2.49023C96.9238 5.0293 84.5215 5.9082 73.291 4.63867C70.0684 4.29688 67.8711 5.85938 67.5293 8.34961C67.2363 10.7422 68.5059 13.0859 71.9238 13.4766ZM67.5781 34.082C71.6797 34.6191 76.5625 34.5703 80.9082 34.0332C83.8379 33.6914 85.4492 31.7871 85.2051 29.1504C84.9609 26.7578 83.0566 25.0977 79.834 25.4883C76.1719 25.9766 72.0215 25.9766 68.5059 25.5371C65.4297 25.1465 63.4277 26.8555 63.1348 29.1992C62.8906 31.6895 64.4531 33.7402 67.5781 34.082Z"/>
  </g>
  <g id="Medium-L" transform="matrix(1 0 0 1 1674.95 1556)">
   <path d="M70.5566-48.8281C108.789-48.8281 131.934-58.3984 131.934-71.875C131.934-84.0332 114.551-91.5039 88.7695-91.5039C70.166-91.5039 55.1758-88.0371 43.6035-82.8125C40.5273-81.4941 39.8438-78.5156 40.918-76.3672C42.0898-73.9746 45.0195-73.291 47.7539-74.3652C57.9102-78.5156 70.8008-82.4707 88.2324-82.4707C109.033-82.4707 122.119-77.6855 122.119-71.9238C122.119-65.0391 101.123-58.1543 70.166-58.1543C38.1836-58.1543 21.0938-64.502 21.0938-76.5625C21.0938-84.1309 28.2227-91.5527 45.9961-97.1191C49.0234-98.0469 50.293-100.488 49.4629-103.027C48.584-105.615 46.2891-106.592 42.8711-105.615C21.8262-99.5117 11.2793-88.1836 11.2793-76.3672C11.2793-58.5449 31.8359-48.8281 70.5566-48.8281ZM72.5098-27.832C92.4316-27.832 110.791-31.0547 123.682-36.377C126.172-37.3535 127.295-39.8438 126.172-42.041C125.049-44.1895 122.754-44.6289 119.971-43.6035C107.959-38.9648 90.7715-36.0352 72.5098-36.0352C58.6426-36.0352 42.8223-37.793 30.8105-41.3086C28.0273-42.1387 25.6836-41.2598 25-38.916C24.3164-36.5234 25.5859-34.3262 28.4668-33.4961C41.4551-29.7363 58.1543-27.832 72.5098-27.832ZM77.002-7.12891C93.7988-7.22656 109.375-9.7168 123.535-14.4043C126.66-15.4785 127.393-18.0176 126.562-20.1172C125.732-22.2656 123.535-23.0469 120.459-22.0703C106.592-17.5781 92.2852-15.2832 76.9043-15.2832C70.4102-15.2832 63.623-15.7227 58.3496-16.4551C55.3711-16.8457 53.5156-15.5762 53.0762-13.3789C52.6855-11.084 53.9062-8.93555 57.0801-8.39844C62.0605-7.56836 69.043-7.03125 77.002-7.12891ZM70.9961 12.5488C82.4707 13.8672 96.875 13.5254 108.545 10.3027C111.328 9.52148 112.451 7.08008 111.768 4.88281C111.035 2.53906 108.789 1.66016 105.859 2.39258C95.6543 5.0293 83.3496 5.9082 72.2656 4.54102C69.3359 4.24805 67.2852 5.66406 66.9922 7.91016C66.6992 10.1562 67.8711 12.207 70.9961 12.5488ZM66.6504 32.8125C70.6055 33.3008 75.5371 33.252 79.7363 32.7148C82.4707 32.4219 83.8867 30.6152 83.6914 28.2227C83.4473 26.123 81.7383 24.6094 78.7109 24.9512C75.1465 25.4395 70.9961 25.4883 67.4805 25.0488C64.6484 24.6582 62.8418 26.2207 62.5977 28.2715C62.3047 30.5176 63.7207 32.4219 66.6504 32.8125Z"/>
  </g>
  <g id="Regular-L" transform="matrix(1 0 0 1 1379.56 1556)">
   <path d="M69.1895-48.3887C106.592-48.3887 129.297-57.7637 129.297-70.8008C129.297-82.5684 112.061-89.8926 87.1094-89.8926C68.7012-89.8926 54.0039-86.2305 42.7246-81.0059C40.0391-79.7363 39.4531-77.1484 40.4297-75.293C41.5039-73.1934 44.1406-72.7051 46.4355-73.6328C56.4941-77.9297 69.3848-82.0312 86.6699-82.0312C108.105-82.0312 120.947-76.9043 120.947-70.8496C120.947-63.8184 100.732-56.4941 68.8477-56.4941C37.0117-56.4941 19.6777-62.9395 19.6777-75.1465C19.6777-82.5195 26.709-90.2344 44.7754-95.9961C47.3633-96.8262 48.4863-98.9258 47.7539-101.123C46.9727-103.369 44.9707-104.199 42.041-103.32C21.582-97.168 11.2793-86.377 11.2793-74.9512C11.2793-57.666 31.2988-48.3887 69.1895-48.3887ZM71.1426-27.9785C90.7715-27.9785 108.838-31.1035 121.582-36.4746C123.73-37.3535 124.756-39.502 123.73-41.4062C122.754-43.3105 120.752-43.6035 118.262-42.7246C106.348-37.9883 89.3555-35.0586 71.1426-35.0586C57.4219-35.0586 41.6504-36.8164 29.834-40.2832C27.3926-40.9668 25.3418-40.2344 24.7559-38.1836C24.1211-36.1328 25.1953-34.2285 27.6855-33.4961C40.4297-29.834 56.9824-27.9785 71.1426-27.9785ZM75.5371-7.76367C92.1875-7.86133 107.666-10.4004 121.484-15.0879C124.365-16.0645 124.805-18.3105 124.17-20.0684C123.389-21.9727 121.436-22.5586 118.652-21.6797C105.078-17.1875 90.7715-14.8438 75.5371-14.8438C69.043-14.8438 62.3535-15.2832 57.0801-16.0156C54.4434-16.3574 52.7832-15.332 52.4414-13.3789C52.0996-11.4258 53.125-9.57031 55.957-9.0332C60.8398-8.25195 67.7734-7.71484 75.5371-7.76367ZM69.7266 11.3281C81.0547 12.6953 95.0195 12.4512 106.689 9.08203C109.131 8.39844 110.059 6.25 109.424 4.29688C108.789 2.29492 106.836 1.61133 104.248 2.24609C93.9453 4.98047 81.8848 5.9082 70.8984 4.44336C68.3594 4.15039 66.5039 5.32227 66.2598 7.32422C65.9668 9.32617 66.9922 11.0352 69.7266 11.3281ZM65.4297 31.0547C69.2383 31.5918 74.2188 31.543 78.2227 31.0059C80.7129 30.7129 81.8848 29.1016 81.6895 27.0508C81.4453 25.293 79.9805 23.9746 77.2949 24.3164C73.8281 24.8047 69.6777 24.8535 66.1133 24.3652C63.623 24.0723 62.1094 25.3418 61.8164 27.0996C61.5723 28.9551 62.7441 30.7129 65.4297 31.0547Z"/>
  </g>
  <g id="Light-L" transform="matrix(1 0 0 1 1083.87 1556)">
   <path d="M68.0176-48.1934C103.809-48.1934 127.246-57.0801 127.246-69.6777C127.246-80.7617 110.498-87.8418 85.8887-87.8418C68.2129-87.8418 53.4668-84.2773 42.0898-79.0527C39.8926-78.0762 39.3555-76.0254 40.1367-74.5605C40.9668-72.9004 43.0664-72.5586 44.9707-73.3887C55.0293-77.6855 68.1152-81.7871 85.6445-81.7871C107.324-81.7871 120.85-76.5625 120.85-69.7266C120.85-61.8164 99.2188-54.3945 67.8223-54.3945C35.5957-54.3945 17.6758-61.1816 17.6758-73.7793C17.6758-81.7871 25.5371-89.8926 43.3594-95.459C45.2637-96.0449 46.1914-97.6562 45.6543-99.3652C45.0195-101.123 43.4082-101.709 41.3086-101.025C21.7285-95.2148 11.2793-84.7168 11.2793-73.6816C11.2793-57.2266 31.0059-48.1934 68.0176-48.1934ZM70.0195-28.2715C89.5508-28.2715 107.52-31.2988 120.117-36.7676C121.826-37.5 122.656-39.1602 121.875-40.6738C121.143-42.1875 119.482-42.4316 117.529-41.6504C105.273-36.6211 88.1836-33.8379 70.0195-33.8379C56.0059-33.8379 39.7949-35.7422 28.418-39.0137C26.4648-39.5996 24.8535-39.0625 24.3652-37.4023C23.877-35.791 24.707-34.3262 26.709-33.7402C39.0625-30.0781 55.8105-28.2715 70.0195-28.2715ZM74.6094-8.49609C91.5039-8.54492 106.934-11.3281 120.264-15.8203C122.412-16.5527 122.9-18.2617 122.363-19.6777C121.777-21.2402 120.215-21.6797 118.066-20.9961C104.98-16.5527 90.2344-14.0137 74.6094-14.0137C67.9199-14.0137 61.1328-14.4043 55.7129-15.1855C53.6621-15.4785 52.3438-14.6973 52.0508-13.1836C51.7578-11.6211 52.5879-10.1562 54.834-9.76562C59.8145-8.98438 66.9434-8.44727 74.6094-8.49609ZM68.7012 10.2539C79.8828 11.6699 93.9453 11.4258 105.42 7.95898C107.324 7.42188 108.057 5.71289 107.568 4.19922C107.031 2.58789 105.469 2.09961 103.418 2.63672C93.0664 5.46875 80.5176 6.39648 69.6289 4.88281C67.627 4.63867 66.1621 5.51758 65.918 7.08008C65.7227 8.64258 66.5039 10.0098 68.7012 10.2539ZM64.4043 29.6387C67.9199 30.2246 73.3887 30.0781 77.2461 29.541C79.1992 29.2969 80.127 27.9785 79.9316 26.416C79.7363 25 78.5645 23.9746 76.3184 24.2676C72.8516 24.8047 68.6035 24.8535 64.9902 24.3652C63.0859 24.1211 61.8164 25.0488 61.5723 26.4648C61.3281 27.9297 62.2559 29.3457 64.4043 29.6387Z"/>
  </g>
  <g id="Thin-L" transform="matrix(1 0 0 1 788.527 1556)">
   <path d="M66.4551-47.9492C100.098-47.9492 124.512-56.1035 124.512-68.2129C124.512-78.418 108.398-85.2051 84.3262-85.2051C67.5293-85.2051 52.7832-81.6406 41.2109-76.4648C39.6973-75.8301 39.209-74.5605 39.7461-73.584C40.332-72.5098 41.6016-72.4121 43.0176-72.998C53.0762-77.3926 66.4062-81.4941 84.2773-81.4941C106.299-81.4941 120.752-76.0742 120.752-68.2129C120.752-59.1797 97.2656-51.6602 66.4062-51.6602C33.7402-51.6602 15.0391-58.7891 15.0391-72.0215C15.0391-80.7617 23.9746-89.4531 41.4551-94.7266C42.4805-95.0684 43.1152-95.9473 42.8223-97.0215C42.4316-98.1934 41.3574-98.3887 40.2832-98.0469C21.875-92.5781 11.2793-82.5195 11.2793-71.9727C11.2793-56.6406 30.6152-47.9492 66.4551-47.9492ZM68.5547-28.6621C87.9395-28.6621 105.762-31.4941 118.164-37.1582C119.385-37.6953 119.922-38.6719 119.434-39.6973C118.945-40.7227 117.871-40.8203 116.553-40.2832C103.809-34.8633 86.5723-32.2266 68.5547-32.2266C54.1504-32.2266 37.3535-34.2773 26.5625-37.4023C25.2441-37.7441 24.2188-37.4512 23.877-36.4258C23.5352-35.3027 24.1211-34.4238 25.3906-34.082C37.2559-30.4199 54.2969-28.6621 68.5547-28.6621ZM73.3887-9.42383C90.5762-9.47266 105.908-12.5 118.652-16.748C119.873-17.1875 120.361-18.2129 119.971-19.2383C119.629-20.2637 118.604-20.5566 117.236-20.0684C104.834-15.7227 89.502-12.9395 73.3887-12.9395C66.4551-12.9395 59.4727-13.2812 53.9062-14.1602C52.6367-14.3555 51.709-13.8672 51.5625-12.8906C51.3672-11.8652 51.9043-10.9375 53.3203-10.7422C58.4473-10.0098 65.8691-9.42383 73.3887-9.42383ZM67.2852 8.83789C78.2715 10.3027 92.5293 10.1074 103.711 6.44531C104.883 6.10352 105.42 5.0293 105.078 4.00391C104.688 2.97852 103.662 2.73438 102.344 3.125C91.8457 6.05469 78.7598 7.08008 67.8711 5.41992C66.6504 5.27344 65.6738 5.76172 65.5273 6.73828C65.332 7.76367 65.8691 8.69141 67.2852 8.83789ZM63.0371 27.7344C66.1621 28.3691 72.2656 28.125 75.9766 27.5879C77.1973 27.3926 77.7832 26.5625 77.5879 25.5371C77.4414 24.6094 76.6113 23.9258 75.0488 24.1699C71.5332 24.8047 67.2363 24.8535 63.5254 24.3164C62.3047 24.1699 61.4258 24.6582 61.2305 25.5859C61.0352 26.6113 61.6211 27.4902 63.0371 27.7344Z"/>
  </g>
  <g id="Ultralight-L" transform="matrix(1 0 0 1 492.524 1556)">
   <path d="M65.6738-47.8516C98.1934-47.8516 123.096-55.6152 123.096-67.4805C123.096-77.2461 107.373-83.8379 83.4961-83.8379C67.1387-83.8379 52.4414-80.3223 40.7227-75.1465C39.5996-74.707 39.1602-73.8281 39.5996-73.0469C39.9902-72.3145 40.8203-72.3145 41.9922-72.8027C52.0508-77.2461 65.5273-81.3477 83.5449-81.3477C105.762-81.3477 120.703-75.8301 120.703-67.4805C120.703-57.8613 96.2891-50.293 65.7227-50.293C32.7637-50.293 13.6719-57.6172 13.6719-71.0938C13.6719-80.2246 23.1934-89.209 40.4785-94.3848C41.0645-94.5312 41.5527-95.0684 41.4062-95.8008C41.1133-96.7285 40.2832-96.6797 39.7461-96.5332C21.9238-91.2598 11.2793-81.3477 11.2793-71.1426C11.2793-56.3477 30.4199-47.8516 65.6738-47.8516ZM67.7734-28.8574C87.1094-28.8574 104.834-31.6406 117.188-37.3535C118.115-37.793 118.506-38.4277 118.213-39.209C117.871-39.9902 117.041-40.0391 116.064-39.5996C103.076-33.9355 85.7422-31.3965 67.7734-31.3965C53.2227-31.3965 36.084-33.5449 25.6348-36.5723C24.6582-36.8164 23.9258-36.6699 23.6328-35.8887C23.3398-35.0586 23.8281-34.4727 24.707-34.2285C36.3281-30.6152 53.5156-28.8574 67.7734-28.8574ZM72.7539-9.91211C90.0879-9.91211 105.371-13.1348 117.822-17.2363C118.555-17.4805 119.043-18.2129 118.799-18.9941C118.506-19.7266 117.773-19.9707 116.846-19.6289C104.785-15.2832 89.1113-12.4023 72.7539-12.4023C65.6738-12.4023 58.6426-12.6953 52.9785-13.623C52.0996-13.7695 51.416-13.4277 51.2695-12.7441C51.123-12.0117 51.5625-11.3281 52.5879-11.2305C57.7637-10.498 65.2832-9.96094 72.7539-9.91211ZM66.6016 8.10547C77.4902 9.57031 91.8457 9.42383 102.881 5.71289C103.662 5.41992 104.053 4.6875 103.809 3.95508C103.516 3.17383 102.734 3.07617 101.807 3.36914C91.2598 6.39648 77.832 7.42188 66.9922 5.71289C66.1133 5.56641 65.4297 5.9082 65.2832 6.54297C65.1367 7.27539 65.5762 8.00781 66.6016 8.10547ZM62.3535 26.7578C65.2832 27.3926 71.7285 27.1484 75.293 26.5625C76.1719 26.416 76.5625 25.8301 76.416 25.0488C76.2695 24.3652 75.6348 23.9258 74.4141 24.1211C70.8496 24.8047 66.5039 24.9023 62.793 24.3164C61.9141 24.1699 61.1816 24.4629 61.0352 25.1465C60.8887 25.9277 61.3281 26.5137 62.3535 26.7578Z"/>
  </g>
  <g id="Black-M" transform="matrix(1 0 0 1 2871.51 1126)">
   <path d="M61.2305-48.0957C94.4336-48.0957 115.039-55.957 115.039-68.6035C115.039-79.834 101.221-86.4746 76.8555-86.4746C61.7188-86.4746 48.6328-84.6191 37.9395-80.8105C33.9355-79.3945 33.0566-75.293 34.1797-72.4609C35.498-69.1895 38.7207-67.8223 43.2617-69.1895C51.709-71.7285 61.7188-74.2188 76.2207-74.2188C89.1602-74.2188 100.977-72.1191 100.977-68.6523C100.977-63.9648 79.6387-60.6445 60.6934-60.6445C35.1562-60.6445 22.8027-65.3809 22.8027-74.1699C22.8027-81.0547 29.4922-85.7422 41.4551-88.8672C45.7031-89.9902 47.168-93.457 46.0938-96.9238C45.0195-100.439 41.748-101.807 37.207-100.732C18.1152-96.3379 8.74023-85.2051 8.74023-73.9258C8.74023-57.6172 27.2949-48.0957 61.2305-48.0957ZM62.6465-29.1016C79.5898-29.1016 95.4102-31.6406 106.201-35.5469C109.863-36.8652 111.035-40.3809 109.668-43.4082C108.35-46.2891 105.078-47.1191 101.416-45.9473C91.5039-42.7246 77.0508-40.3809 62.6465-40.3809C51.3184-40.3809 38.623-41.7969 28.2715-44.8242C24.6094-45.8984 21.5332-44.7266 20.6543-41.5527C19.7266-38.2324 21.7285-35.1562 25.4883-34.0332C36.8652-30.5664 50.6348-29.1016 62.6465-29.1016ZM66.8945-10.3516C80.8105-10.4492 93.4082-12.4023 105.811-15.918C109.521-16.9922 111.23-20.3613 109.961-23.6816C108.936-26.4648 106.299-27.8809 102.539-26.8066C90.7227-23.4375 79.1504-21.6309 66.2109-21.6309C61.0352-21.6309 55.3223-21.9727 51.3184-22.5098C47.4609-23.0957 44.9707-21.0449 44.3848-18.2617C43.7988-15.0391 45.6055-11.7676 49.6094-11.2793C54.0527-10.6934 59.6191-10.2539 66.8945-10.3516ZM60.9863 7.56836C70.7031 8.64258 84.4238 7.91016 93.3594 5.81055C96.9727 4.93164 98.6328 1.80664 97.8027-1.36719C96.9727-4.58984 93.8477-6.00586 90.2344-5.27344C82.4707-3.66211 71.7773-3.07617 62.5-3.61328C58.5449-3.85742 56.0059-1.80664 55.6152 1.2207C55.3223 3.85742 56.8359 7.12891 60.9863 7.56836ZM57.5684 25.8301C61.2793 26.1719 65.0391 26.1719 69.2871 25.7324C72.5586 25.4395 74.7559 23.2422 74.5117 19.873C74.2676 16.6504 71.6797 14.4531 68.0664 14.8926C64.7461 15.2344 61.4746 15.2344 58.7891 14.9414C55.1758 14.502 52.5879 16.6992 52.3438 19.9219C52.0996 23.3398 54.2969 25.4883 57.5684 25.8301Z"/>
  </g>
  <g id="Heavy-M" transform="matrix(1 0 0 1 2576.41 1126)">
   <path d="M59.6191-47.5098C92.041-47.5098 111.816-55.2734 111.816-67.3828C111.816-78.2227 98.0469-84.6191 74.8047-84.6191C59.7656-84.6191 47.1191-82.5684 36.9141-78.6621C33.252-77.3438 32.4707-73.6328 33.5449-71.0938C34.7656-68.1641 37.793-66.9922 41.748-68.2617C50.0488-70.9473 60.0098-73.584 74.2188-73.584C87.9883-73.584 99.2676-71.0938 99.2676-67.4316C99.2676-62.6953 79.4922-58.8379 59.082-58.8379C33.7891-58.8379 21.2891-63.5742 21.2891-72.4609C21.2891-79.0039 27.5391-83.9355 40.0391-87.4023C43.8965-88.4277 45.2148-91.5527 44.2383-94.6289C43.2617-97.8027 40.332-99.0234 36.1816-98.0469C17.7734-93.5059 8.74023-82.959 8.74023-72.2168C8.74023-56.4941 26.6113-47.5098 59.6191-47.5098ZM61.0352-29.1504C77.5879-29.1504 92.9688-31.7383 103.564-35.6934C106.787-36.8652 107.91-39.9902 106.641-42.7246C105.469-45.3125 102.539-45.9961 99.2188-44.9219C89.502-41.6016 75.3906-39.3066 61.0352-39.3066C49.9023-39.3066 37.3535-40.6738 27.2461-43.6523C23.9258-44.6289 21.1426-43.5547 20.3613-40.7227C19.5312-37.7441 21.2891-34.9609 24.707-33.9844C35.7422-30.6641 49.2188-29.1504 61.0352-29.1504ZM65.0391-11.084C78.7109-11.1816 91.1621-13.1348 103.223-16.6992C106.689-17.7246 108.057-20.8008 106.982-23.6816C106.006-26.2207 103.564-27.3926 100.098-26.416C88.5254-22.998 77.1484-21.2402 64.5508-21.2402C59.4238-21.2402 53.8086-21.5332 49.8047-22.1191C46.3379-22.6074 44.0918-20.8496 43.5547-18.2617C43.0176-15.4297 44.6289-12.5488 48.291-12.0117C52.5879-11.4746 58.0566-11.0352 65.0391-11.084ZM59.4727 6.10352C68.9941 7.17773 82.0312 6.5918 91.0156 4.39453C94.2871 3.56445 95.752 0.732422 94.9707-2.09961C94.2383-5.0293 91.4062-6.25 88.0859-5.51758C80.3223-3.80859 70.0195-3.22266 60.8887-3.90625C57.3242-4.15039 55.0293-2.29492 54.6875 0.439453C54.3945 2.88086 55.7617 5.71289 59.4727 6.10352ZM56.0547 23.7305C59.668 24.1211 63.3789 24.1211 67.3828 23.6816C70.4102 23.3887 72.3145 21.3379 72.1191 18.3105C71.875 15.5273 69.5801 13.5254 66.2598 13.9648C63.0859 14.3066 59.8633 14.3066 57.1777 14.0137C53.8574 13.623 51.5625 15.5762 51.3184 18.4082C51.0742 21.3867 53.0273 23.4375 56.0547 23.7305Z"/>
  </g>
  <g id="Bold-M" transform="matrix(1 0 0 1 2281.51 1126)">
   <path d="M57.7637-46.8262C89.3066-46.8262 108.203-54.541 108.203-66.0156C108.203-76.3672 94.4824-82.5684 72.5098-82.5684C57.6172-82.5684 45.4102-80.2246 35.6934-76.3184C32.5195-75.0488 31.8359-71.8262 32.8125-69.5801C33.9355-67.041 36.7676-66.0645 40.0391-67.1875C48.1445-70.0684 58.1055-72.9004 71.9727-72.9004C86.7188-72.9004 97.3633-69.9219 97.3633-66.0645C97.3633-61.2305 79.2969-56.7871 57.3242-56.7871C32.3242-56.7871 19.5801-61.5723 19.5801-70.5566C19.5801-76.709 25.4395-81.8848 38.4766-85.7422C41.7969-86.6699 43.0176-89.4043 42.1387-92.0898C41.2598-94.873 38.7695-95.9473 35.1074-95.0195C17.3828-90.332 8.74023-80.5176 8.74023-70.3125C8.74023-55.2734 25.8789-46.8262 57.7637-46.8262ZM59.2285-29.248C75.3418-29.248 90.2344-31.7871 100.635-35.791C103.418-36.8652 104.443-39.5508 103.32-41.9434C102.197-44.1895 99.6582-44.7754 96.7773-43.7988C87.2559-40.4297 73.4863-38.0859 59.2285-38.0859C48.291-38.0859 35.9863-39.4043 26.0742-42.334C23.1934-43.2129 20.752-42.2363 20.0195-39.7461C19.2871-37.1582 20.752-34.7656 23.7793-33.8867C34.4727-30.7617 47.7051-29.248 59.2285-29.248ZM62.9883-11.9141C76.3184-12.0605 88.6719-13.916 100.342-17.5781C103.467-18.5547 104.541-21.2891 103.613-23.6816C102.734-25.9277 100.537-26.9043 97.4121-25.9766C86.084-22.5098 74.9023-20.752 62.6465-20.752C57.6172-20.752 52.1484-21.0938 48.1445-21.6309C45.0684-22.0703 43.0664-20.6055 42.627-18.3105C42.1387-15.8203 43.5059-13.3789 46.8262-12.8906C50.8789-12.3047 56.2988-11.8652 62.9883-11.9141ZM57.8125 4.49219C67.1387 5.56641 79.3457 5.07812 88.3789 2.7832C91.3086 2.05078 92.5293-0.488281 91.8457-2.92969C91.1621-5.46875 88.7207-6.49414 85.7422-5.81055C77.9297-4.00391 68.0176-3.36914 59.082-4.19922C55.957-4.44336 53.8574-2.83203 53.5645-0.439453C53.3203 1.75781 54.541 4.15039 57.8125 4.49219ZM54.4434 21.3867C57.8613 21.7773 61.5234 21.7773 65.2344 21.3379C67.9688 21.0449 69.6289 19.2383 69.3848 16.6504C69.1895 14.2578 67.2363 12.5488 64.2578 12.8906C61.2305 13.2812 58.0566 13.2812 55.3223 12.9395C52.3926 12.5977 50.4395 14.3066 50.1953 16.6992C49.9512 19.1895 51.6113 21.0938 54.4434 21.3867Z"/>
  </g>
  <g id="Semibold-M" transform="matrix(1 0 0 1 1986.04 1126)">
   <path d="M56.4941-46.3379C87.4512-46.3379 105.713-54.0039 105.713-65.0879C105.713-75.0977 92.041-81.2012 70.9473-81.2012C56.1523-81.2012 44.1895-78.6621 34.9121-74.6582C32.0312-73.4375 31.3965-70.5566 32.3242-68.5059C33.3984-66.2109 36.084-65.4297 38.8672-66.4551C46.875-69.4824 56.7871-72.4609 70.459-72.4609C85.791-72.4609 96.0449-69.1406 96.0449-65.1367C96.0449-60.2539 79.1504-55.3711 56.1035-55.3711C31.25-55.3711 18.4082-60.1562 18.4082-69.2383C18.4082-75.0977 23.9258-80.5176 37.4023-84.6191C40.3809-85.498 41.5039-87.8906 40.7227-90.3809C39.9414-92.8223 37.6465-93.7988 34.375-92.9199C17.1387-88.1836 8.74023-78.8086 8.74023-69.043C8.74023-54.3945 25.3418-46.3379 56.4941-46.3379ZM57.959-29.3457C73.7793-29.3457 88.3789-31.8359 98.584-35.8887C101.025-36.8164 102.051-39.2578 100.977-41.4062C99.9512-43.457 97.7051-43.8965 95.0684-42.9688C85.7422-39.5996 72.2168-37.2559 57.959-37.2559C47.2168-37.2559 35.0098-38.5742 25.293-41.4062C22.6562-42.1875 20.459-41.3574 19.7754-39.1113C19.1406-36.8164 20.4102-34.6191 23.1445-33.8379C33.6426-30.8105 46.6309-29.3457 57.959-29.3457ZM61.5723-12.5C74.707-12.6465 86.9141-14.502 98.3398-18.1641C101.27-19.0918 102.1-21.582 101.27-23.6816C100.488-25.7324 98.4375-26.5137 95.5566-25.6348C84.4238-22.168 73.3887-20.459 61.377-20.459C56.3477-20.459 51.0254-20.8008 47.0215-21.3379C44.1895-21.7285 42.3828-20.459 41.9922-18.3594C41.5527-16.1133 42.7734-13.9648 45.8008-13.4766C49.7559-12.8906 55.127-12.4512 61.5723-12.5ZM56.6406 3.41797C65.8203 4.44336 77.4902 4.05273 86.5723 1.66016C89.209 0.976562 90.2832-1.31836 89.6973-3.51562C89.0137-5.76172 86.8652-6.64062 84.082-6.00586C76.2207-4.10156 66.6016-3.4668 57.8613-4.39453C55.0293-4.63867 53.0762-3.22266 52.832-1.07422C52.5879 1.02539 53.6621 3.07617 56.6406 3.41797ZM53.2715 19.7754C56.5918 20.166 60.2539 20.166 63.7695 19.7266C66.3086 19.4824 67.7246 17.7734 67.5293 15.4785C67.334 13.3789 65.625 11.8652 62.8906 12.207C59.9609 12.5488 56.7871 12.5488 54.0527 12.2559C51.416 11.9141 49.6582 13.4277 49.4141 15.4785C49.1699 17.7246 50.6348 19.4824 53.2715 19.7754Z"/>
  </g>
  <g id="Medium-M" transform="matrix(1 0 0 1 1690.26 1126)">
   <path d="M55.5664-45.9961C86.0352-45.9961 103.857-53.6133 103.857-64.3555C103.857-74.1699 90.1855-80.127 69.7754-80.127C55.0293-80.127 43.3105-77.4414 34.2773-73.4375C31.6406-72.2656 31.0547-69.5801 31.9336-67.7246C32.959-65.625 35.5469-64.9414 37.9883-65.8691C45.8984-69.043 55.8105-72.0703 69.2871-72.0703C85.1074-72.0703 95.0684-68.5059 95.0684-64.4043C95.0684-59.4727 79.0527-54.2969 55.1758-54.2969C30.4688-54.2969 17.5293-59.082 17.5293-68.2129C17.5293-73.9258 22.8027-79.4434 36.5723-83.7402C39.3066-84.5703 40.3809-86.7676 39.6484-89.0625C38.8672-91.3086 36.8652-92.1875 33.7891-91.3574C16.9434-86.5234 8.74023-77.4902 8.74023-68.0176C8.74023-53.7598 24.9512-45.9961 55.5664-45.9961ZM57.0312-29.3457C72.6074-29.3457 86.9629-31.8848 97.0703-35.9375C99.2676-36.8164 100.244-39.0625 99.2188-40.9668C98.2422-42.8711 96.2402-43.2617 93.75-42.3828C84.5703-38.9648 71.2402-36.6211 57.0312-36.6211C46.3867-36.6211 34.2773-37.9395 24.707-40.7227C22.2656-41.4551 20.2148-40.6738 19.6289-38.5742C18.9941-36.5234 20.1172-34.5215 22.6562-33.7891C32.959-30.8594 45.8496-29.3457 57.0312-29.3457ZM60.498-12.9395C73.4863-13.0859 85.5957-14.9414 96.8262-18.6035C99.6094-19.5312 100.244-21.8262 99.5117-23.6816C98.7793-25.5859 96.875-26.2695 94.1406-25.3906C83.1543-21.9238 72.168-20.2148 60.4004-20.2148C55.4199-20.2148 50.1465-20.5566 46.1426-21.0938C43.5059-21.4355 41.8457-20.3125 41.5039-18.3594C41.1133-16.3574 42.1875-14.4043 45.0195-13.9648C48.877-13.3301 54.1992-12.8906 60.498-12.9395ZM55.8105 2.58789C64.7949 3.61328 76.0742 3.27148 85.2051 0.830078C87.6465 0.195312 88.623-1.95312 88.0371-3.95508C87.4023-6.00586 85.4492-6.78711 82.8613-6.20117C75-4.19922 65.5762-3.56445 56.9336-4.54102C54.2969-4.78516 52.4902-3.51562 52.2461-1.51367C52.002 0.439453 53.0273 2.24609 55.8105 2.58789ZM52.4414 18.5547C55.6641 18.9453 59.2773 18.9453 62.6465 18.5059C65.0391 18.2617 66.3086 16.6992 66.1133 14.5996C65.9668 12.6953 64.4043 11.3281 61.8164 11.6699C59.0332 12.0117 55.8105 12.0117 53.125 11.6699C50.6348 11.377 49.0723 12.7441 48.8281 14.5996C48.584 16.6016 49.8535 18.2617 52.4414 18.5547Z"/>
  </g>
  <g id="Regular-M" transform="matrix(1 0 0 1 1394.77 1126)">
   <path d="M54.2969-45.5566C84.2285-45.5566 101.416-53.125 101.416-63.4277C101.416-72.9004 87.7441-78.7109 68.2129-78.7109C53.5645-78.7109 42.1387-75.8789 33.4961-71.7773C31.1523-70.6543 30.6152-68.3594 31.4941-66.6992C32.4219-64.8438 34.8633-64.3555 36.8164-65.1367C44.6289-68.457 54.4922-71.6309 67.7734-71.6309C84.2285-71.6309 93.75-67.7246 93.75-63.4766C93.75-58.4961 78.9062-52.8809 53.9551-52.8809C29.4434-52.8809 16.3574-57.7148 16.3574-66.9434C16.3574-72.3145 21.3379-78.0762 35.498-82.6172C37.8906-83.3984 38.916-85.3027 38.2324-87.3047C37.5488-89.3066 35.7422-90.0879 33.0566-89.2578C16.6504-84.375 8.74023-75.7812 8.74023-66.748C8.74023-52.8809 24.4141-45.5566 54.2969-45.5566ZM55.7617-29.4434C71.0449-29.4434 85.1074-31.9336 95.0684-36.0352C96.9238-36.8164 97.8516-38.7207 96.9238-40.4297C96.0449-42.1387 94.2871-42.4316 92.0898-41.6016C83.0566-38.1348 69.9219-35.791 55.7617-35.791C45.3125-35.791 33.3008-37.0605 23.9258-39.8438C21.7285-40.4785 19.9219-39.7949 19.3848-37.9395C18.8477-36.1328 19.7754-34.375 22.0215-33.7402C32.1289-30.9082 44.7754-29.4434 55.7617-29.4434ZM59.082-13.5254C71.875-13.623 83.8867-15.4785 94.873-19.1895C97.4609-20.1172 97.8516-22.168 97.2168-23.6816C96.5332-25.3906 94.7754-25.8789 92.2852-25.0977C81.4453-21.582 70.6543-19.873 59.082-19.873C54.1504-19.873 49.0234-20.2637 45.0195-20.8008C42.627-21.0938 41.1621-20.166 40.8691-18.4082C40.5273-16.6504 41.4551-14.9902 43.9941-14.5508C47.7539-13.8672 53.0273-13.4766 59.082-13.5254ZM54.6387 1.46484C63.5254 2.49023 74.2188 2.29492 83.3984-0.244141C85.5957-0.830078 86.4258-2.7832 85.8887-4.49219C85.3027-6.29883 83.5938-6.98242 81.25-6.39648C73.3398-4.3457 64.209-3.66211 55.7129-4.73633C53.3691-4.98047 51.7578-3.90625 51.5137-2.09961C51.2695-0.292969 52.1973 1.2207 54.6387 1.46484ZM51.3184 16.9922C54.3945 17.3828 58.0078 17.334 61.1816 16.9434C63.4277 16.6504 64.4531 15.2344 64.3066 13.4277C64.1113 11.8164 62.8418 10.6445 60.4492 10.9375C57.7637 11.2793 54.5898 11.3281 51.8555 10.9863C49.6582 10.6934 48.291 11.8652 48.0469 13.4277C47.8516 15.0879 48.877 16.6992 51.3184 16.9922Z"/>
  </g>
  <g id="Light-M" transform="matrix(1 0 0 1 1098.98 1126)">
   <path d="M53.2227-45.3613C81.6895-45.3613 99.5605-52.4902 99.5605-62.4512C99.5605-71.3379 86.3281-76.9043 67.0898-76.9043C53.0762-76.9043 41.6992-74.1211 32.9102-70.0684C31.0059-69.1895 30.5176-67.3828 31.2012-66.0156C31.9824-64.5508 33.8379-64.209 35.498-64.8926C43.3105-68.2617 53.3203-71.4355 66.8457-71.4355C83.4961-71.4355 93.7012-67.4316 93.7012-62.4512C93.7012-56.7383 77.5879-51.0254 53.0273-51.0254C28.2227-51.0254 14.5996-56.1035 14.5996-65.7227C14.5996-71.6309 20.3125-77.7344 34.2285-82.1289C35.9863-82.7148 36.8164-84.1797 36.3281-85.7422C35.791-87.3047 34.375-87.8418 32.3242-87.2559C16.7969-82.5684 8.74023-74.3164 8.74023-65.5762C8.74023-52.4902 24.1699-45.3613 53.2227-45.3613ZM54.7852-29.6875C69.9707-29.6875 83.9355-32.0801 93.75-36.2793C95.2637-36.9141 95.9961-38.4277 95.3125-39.7949C94.5801-41.1133 93.1641-41.3574 91.4062-40.6738C82.0801-36.9141 68.8477-34.7168 54.7852-34.7168C44.043-34.7168 31.6406-36.084 22.6562-38.7207C20.8984-39.2578 19.4824-38.7207 19.043-37.2559C18.6035-35.791 19.3848-34.4727 21.1426-33.9844C30.8594-31.1523 43.75-29.6875 54.7852-29.6875ZM58.252-14.209C71.2402-14.2578 83.2031-16.3086 93.75-19.873C95.752-20.5078 96.0938-22.1191 95.6543-23.3398C95.0684-24.707 93.7012-25.0977 91.748-24.4629C81.3965-21.0449 70.166-19.1895 58.252-19.1895C53.125-19.1895 47.9004-19.4824 43.7988-20.0684C41.9434-20.3125 40.7715-19.5801 40.5273-18.2129C40.2832-16.8457 41.0156-15.5273 42.9688-15.1855C46.8262-14.5508 52.2461-14.1602 58.252-14.209ZM53.7109 0.537109C62.4512 1.5625 73.291 1.36719 82.2754-1.26953C83.9844-1.75781 84.6191-3.27148 84.1797-4.63867C83.7402-6.05469 82.373-6.54297 80.5176-6.05469C72.5098-3.90625 62.9883-3.17383 54.541-4.3457C52.7344-4.54102 51.416-3.71094 51.2207-2.34375C51.0254-0.927734 51.7578 0.292969 53.7109 0.537109ZM50.3906 15.6738C53.2227 16.1133 57.2266 16.0156 60.3027 15.625C62.0605 15.3809 62.8906 14.2578 62.7441 12.8418C62.5488 11.5723 61.5234 10.6445 59.5703 10.8887C56.8848 11.2793 53.6621 11.3281 50.8789 10.9375C49.1211 10.7422 47.998 11.6211 47.8516 12.8418C47.6562 14.209 48.4863 15.4297 50.3906 15.6738Z"/>
  </g>
  <g id="Thin-M" transform="matrix(1 0 0 1 803.517 1126)">
   <path d="M51.8555-45.166C78.3691-45.166 97.0703-51.6113 97.0703-61.1328C97.0703-69.2383 84.4727-74.5117 65.6738-74.5117C52.4902-74.5117 41.0645-71.7773 32.1289-67.7734C30.8105-67.1875 30.4199-66.0645 30.9082-65.1367C31.3965-64.209 32.5195-64.0625 33.7402-64.5996C41.5527-67.9688 51.8555-71.1426 65.5762-71.1426C82.5684-71.1426 93.6035-66.9922 93.6035-61.1328C93.6035-54.3945 75.8301-48.584 51.7578-48.584C26.5625-48.584 12.207-54.0039 12.207-64.1113C12.207-70.7031 18.9453-77.3438 32.5195-81.4941C33.5449-81.7871 34.082-82.666 33.7891-83.5938C33.4473-84.668 32.4707-84.9121 31.4453-84.5703C16.8945-80.2246 8.74023-72.3145 8.74023-64.0625C8.74023-51.9531 23.7793-45.166 51.8555-45.166ZM53.418-30.0293C68.5059-30.0293 82.3242-32.3242 91.9922-36.6699C93.0664-37.1094 93.5547-37.9883 93.1152-38.916C92.6758-39.7949 91.6992-39.9414 90.5273-39.4531C80.7617-35.3516 67.4316-33.252 53.418-33.252C42.3828-33.252 29.4434-34.8145 20.9961-37.2559C19.8242-37.5977 18.8965-37.3047 18.6035-36.377C18.3105-35.4004 18.8477-34.5703 19.9707-34.2773C29.248-31.4453 42.4316-30.0293 53.418-30.0293ZM57.1289-15.0391C70.4102-15.0391 82.2754-17.3828 92.334-20.7031C93.457-21.0938 93.8477-22.0703 93.5059-22.9492C93.1641-23.8281 92.2363-24.0723 91.0156-23.6816C81.2988-20.2637 69.4824-18.2129 57.1289-18.2129C51.8066-18.2129 46.4355-18.457 42.1387-19.1406C41.0156-19.2871 40.2344-18.8477 40.0391-17.9688C39.8926-17.0898 40.3809-16.2109 41.6504-16.0156C45.6055-15.4785 51.2695-15.0391 57.1289-15.0391ZM52.4414-0.78125C61.0352 0.341797 72.0215 0.195312 80.7617-2.58789C81.7871-2.92969 82.2754-3.85742 81.9824-4.78516C81.6406-5.71289 80.7617-5.95703 79.541-5.61523C71.4355-3.36914 61.4258-2.58789 52.9785-3.85742C51.8555-4.00391 51.0254-3.51562 50.8789-2.63672C50.7324-1.70898 51.2207-0.927734 52.4414-0.78125ZM49.1211 13.9648C51.6602 14.4531 56.25 14.3066 59.1309 13.8672C60.2539 13.7207 60.791 12.9395 60.6445 12.0605C60.498 11.2305 59.7656 10.6445 58.4473 10.8398C55.7129 11.2793 52.3926 11.3281 49.5605 10.9375C48.4375 10.791 47.6562 11.2793 47.5098 12.1094C47.3633 12.9883 47.9004 13.7695 49.1211 13.9648Z"/>
  </g>
  <g id="Ultralight-M" transform="matrix(1 0 0 1 507.416 1126)">
   <path d="M51.123-45.0195C76.6602-45.0195 95.8496-51.1719 95.8496-60.4492C95.8496-68.1641 83.4961-73.291 64.9414-73.291C52.1484-73.291 40.7715-70.5566 31.6895-66.5527C30.7129-66.1621 30.3711-65.3809 30.7129-64.6973C31.1035-64.0625 31.8848-63.9648 32.8613-64.4043C40.625-67.8223 51.0742-71.0449 64.9902-71.0449C82.1289-71.0449 93.5547-66.7969 93.5547-60.4492C93.5547-53.1738 74.9023-47.3145 51.123-47.3145C25.6836-47.3145 10.9863-52.9297 10.9863-63.2812C10.9863-70.2637 18.2129-77.1484 31.6895-81.1523C32.2754-81.3477 32.666-81.8848 32.5195-82.5195C32.2754-83.3496 31.543-83.3984 30.957-83.2031C16.9922-79.0527 8.74023-71.3379 8.74023-63.3301C8.74023-51.709 23.6328-45.0195 51.123-45.0195ZM52.7344-30.2246C67.7734-30.2246 81.543-32.4219 91.1133-36.8164C91.8945-37.207 92.2852-37.793 91.9922-38.4766C91.6992-39.1113 90.9668-39.209 90.0879-38.8184C80.127-34.5215 66.6992-32.5195 52.7344-32.5195C41.5039-32.5195 28.3203-34.1309 20.1172-36.5234C19.2871-36.7676 18.6035-36.5723 18.3594-35.8887C18.1152-35.2051 18.5547-34.6191 19.3359-34.4238C28.418-31.5918 41.6992-30.2246 52.7344-30.2246ZM56.543-15.4785C69.9707-15.4785 81.7871-17.9199 91.5527-21.1426C92.2852-21.3867 92.6758-22.0703 92.4316-22.7051C92.1875-23.3887 91.5039-23.584 90.6738-23.2422C81.2012-19.9219 69.1895-17.7246 56.543-17.7246C51.123-17.7246 45.7031-17.9688 41.3086-18.6523C40.5273-18.75 39.9414-18.457 39.8438-17.8711C39.6973-17.1875 40.0879-16.6016 40.9668-16.4551C44.9707-15.918 50.7812-15.4785 56.543-15.4785ZM51.8066-1.41602C60.3027-0.292969 71.3867-0.390625 79.9805-3.27148C80.7129-3.51562 81.0547-4.19922 80.8105-4.83398C80.5664-5.51758 79.9316-5.61523 79.0527-5.37109C70.8984-3.07617 60.5957-2.24609 52.1973-3.56445C51.416-3.71094 50.7812-3.41797 50.6836-2.7832C50.5371-2.14844 50.9277-1.51367 51.8066-1.41602ZM48.5352 13.0859C50.8789 13.5742 55.7617 13.4277 58.5449 12.9883C59.3262 12.8418 59.7168 12.3047 59.5703 11.6211C59.4727 11.0352 58.8867 10.5957 57.8613 10.791C55.127 11.2793 51.7578 11.377 48.877 10.9375C48.0957 10.791 47.5098 11.084 47.3633 11.7188C47.2656 12.3535 47.6074 12.8906 48.5352 13.0859Z"/>
  </g>
  <g id="Black-S" transform="matrix(1 0 0 1 2885.04 696)">
   <path d="M47.8516-45.2637C73.8281-45.2637 89.8926-51.416 89.8926-61.2793C89.8926-70.0684 79.0527-75.2441 60.0586-75.2441C48.1934-75.2441 37.9883-73.7793 29.6387-70.8008C26.5137-69.6777 25.8301-66.5039 26.709-64.3066C27.7344-61.7676 30.2734-60.6934 33.7891-61.7676C40.3809-63.7695 48.2422-65.7227 59.5703-65.7227C69.7754-65.7227 78.9551-64.0625 78.9551-61.3281C78.9551-57.666 62.4023-55.0293 47.4121-55.0293C27.4414-55.0293 17.7734-58.7402 17.7734-65.625C17.7734-70.9961 22.9492-74.6582 32.373-77.1484C35.6934-78.0273 36.8164-80.7129 35.9863-83.3984C35.1562-86.1328 32.6172-87.207 29.0527-86.377C14.1602-82.9102 6.83594-74.2188 6.83594-65.4297C6.83594-52.6855 21.3379-45.2637 47.8516-45.2637ZM48.9746-30.4199C62.207-30.4199 74.5605-32.4219 83.0078-35.498C85.8398-36.5234 86.7676-39.2578 85.6934-41.6016C84.668-43.8477 82.1289-44.4824 79.2969-43.5547C71.5332-41.0156 60.2539-39.209 48.9746-39.209C40.0879-39.209 30.1758-40.2832 22.0703-42.6758C19.2383-43.5059 16.8457-42.5781 16.1621-40.1367C15.4297-37.5488 16.9922-35.1562 19.9219-34.2773C28.8086-31.5918 39.5508-30.4199 48.9746-30.4199ZM52.2461-15.7715C63.1348-15.8691 72.998-17.3828 82.7148-20.166C85.5957-20.9961 86.9141-23.6328 85.9375-26.1719C85.1074-28.3691 83.0566-29.4434 80.127-28.6133C70.8984-25.9766 61.8652-24.5605 51.7578-24.5605C47.7051-24.5605 43.2129-24.8047 40.0879-25.2441C37.1094-25.6836 35.1562-24.1211 34.7168-21.9238C34.2285-19.4336 35.6445-16.8945 38.7695-16.5039C42.2363-16.0645 46.582-15.7227 52.2461-15.7715ZM47.6562-1.80664C55.2734-0.976562 65.9668-1.51367 72.9492-3.17383C75.7812-3.85742 77.0508-6.29883 76.416-8.74023C75.7812-11.2793 73.3398-12.3535 70.5078-11.7676C64.4531-10.498 56.1035-10.0586 48.8281-10.498C45.752-10.6934 43.7988-9.08203 43.5059-6.73828C43.2617-4.6875 44.4336-2.14844 47.6562-1.80664ZM44.9707 12.4512C47.9004 12.7441 50.8301 12.7441 54.1504 12.4023C56.6895 12.1582 58.3984 10.4492 58.2031 7.8125C58.0078 5.32227 56.0059 3.61328 53.1738 3.95508C50.5859 4.24805 48.0469 4.24805 45.9473 4.00391C43.1152 3.66211 41.1133 5.37109 40.918 7.86133C40.7227 10.498 42.4316 12.207 44.9707 12.4512Z"/>
  </g>
  <g id="Heavy-S" transform="matrix(1 0 0 1 2589.45 696)">
   <path d="M46.7285-44.8242C72.2656-44.8242 87.6465-50.9766 87.6465-60.4492C87.6465-68.9941 76.7578-74.0723 58.5938-74.0723C46.7773-74.0723 36.8652-72.4121 28.9062-69.3848C26.0254-68.2617 25.3906-65.3809 26.2695-63.3301C27.2461-60.9863 29.6875-60.0586 32.7637-61.084C39.2578-63.1836 47.0703-65.2832 58.1543-65.2832C68.9453-65.2832 77.6855-63.2812 77.6855-60.498C77.6855-56.8848 62.4023-53.8086 46.2891-53.8086C26.5625-53.8086 16.7969-57.5195 16.7969-64.4531C16.7969-69.4824 21.582-73.291 31.4453-76.0742C34.4727-76.9043 35.5469-79.3457 34.7656-81.8359C33.9844-84.3262 31.6895-85.3516 28.3691-84.5215C13.8672-80.957 6.83594-72.7051 6.83594-64.2578C6.83594-51.8555 20.8496-44.8242 46.7285-44.8242ZM47.8516-30.4688C60.791-30.4688 72.8516-32.4707 81.1523-35.5469C83.6914-36.4746 84.5703-39.0137 83.5938-41.1621C82.6172-43.2129 80.3223-43.75 77.6855-42.8711C70.1172-40.332 59.082-38.4766 47.8516-38.4766C39.1602-38.4766 29.3945-39.5508 21.4355-41.8945C18.7988-42.6758 16.6016-41.7969 15.9668-39.5508C15.2832-37.207 16.6992-35.0098 19.3848-34.2285C28.0762-31.6406 38.623-30.4688 47.8516-30.4688ZM50.9277-16.2598C61.5723-16.3574 71.3379-17.8711 80.8594-20.7031C83.5938-21.4844 84.668-23.9746 83.8379-26.2207C83.0566-28.2227 81.1035-29.1504 78.3203-28.3691C69.2383-25.6836 60.4004-24.3164 50.5859-24.3164C46.582-24.3164 42.1875-24.5605 39.0625-25C36.3281-25.3906 34.5215-24.0234 34.1309-21.9727C33.6914-19.7266 34.9609-17.4316 37.8906-17.041C41.2109-16.5527 45.459-16.2109 50.9277-16.2598ZM46.6309-2.7832C54.1016-2.00195 64.209-2.44141 71.2891-4.15039C73.9258-4.78516 75.0488-7.08008 74.4629-9.27734C73.8281-11.6211 71.6309-12.5977 68.9941-12.0117C62.8906-10.6445 54.8828-10.2051 47.7539-10.7422C44.9219-10.9375 43.0664-9.47266 42.7734-7.32422C42.5781-5.37109 43.6523-3.125 46.6309-2.7832ZM43.9453 10.9863C46.7773 11.2793 49.6582 11.2793 52.7832 10.9375C55.1758 10.6934 56.7383 9.13086 56.543 6.73828C56.3477 4.49219 54.541 2.92969 51.9043 3.27148C49.4141 3.51562 46.9238 3.51562 44.8242 3.27148C42.1875 2.97852 40.3809 4.54102 40.1855 6.73828C39.9902 9.13086 41.5039 10.7422 43.9453 10.9863Z"/>
  </g>
  <g id="Bold-S" transform="matrix(1 0 0 1 2294.01 696)">
   <path d="M45.459-44.3359C70.5078-44.3359 85.1074-50.4883 85.1074-59.5215C85.1074-67.7734 74.2188-72.7051 56.9824-72.7051C45.166-72.7051 35.5957-70.8496 28.0762-67.7734C25.4883-66.6992 24.9023-64.0625 25.7324-62.2559C26.6602-60.1562 29.0039-59.375 31.6406-60.3027C37.9883-62.5488 45.752-64.7949 56.543-64.7949C68.0176-64.7949 76.2207-62.4512 76.2207-59.5703C76.2207-56.0059 62.4023-52.4902 45.0684-52.4902C25.5859-52.4902 15.7227-56.1523 15.7227-63.1348C15.7227-67.8223 20.0684-71.8262 30.3711-74.8535C33.1543-75.6348 34.1309-77.8809 33.3984-80.0781C32.7148-82.3242 30.6641-83.252 27.6367-82.4707C13.5742-78.7598 6.83594-70.9961 6.83594-62.9395C6.83594-50.9766 20.3125-44.3359 45.459-44.3359ZM46.582-30.4688C59.1797-30.4688 70.8984-32.5195 79.0527-35.5957C81.2988-36.4746 82.1777-38.7207 81.2012-40.625C80.3223-42.4805 78.2715-42.9199 75.8789-42.1387C68.5059-39.5508 57.7637-37.6953 46.582-37.6953C38.0859-37.6953 28.5156-38.7207 20.7031-41.0156C18.3105-41.748 16.3086-40.9668 15.7227-38.916C15.1367-36.8164 16.3086-34.8633 18.7988-34.1309C27.2949-31.6406 37.5488-30.4688 46.582-30.4688ZM49.4629-16.8457C59.8633-16.9434 69.5312-18.3594 78.7598-21.2891C81.3965-22.0703 82.1777-24.3164 81.4453-26.2695C80.7129-28.0762 78.9062-28.8574 76.3672-28.125C67.3828-25.3906 58.7402-24.0723 49.2188-24.0723C45.3125-24.0723 41.0645-24.3164 37.9883-24.7559C35.4004-25.0977 33.7891-23.9258 33.4473-22.0215C33.0566-20.0195 34.1797-18.0176 36.8652-17.627C40.0391-17.1387 44.2383-16.7969 49.4629-16.8457ZM45.459-3.90625C52.7832-3.07617 62.3047-3.4668 69.4336-5.27344C71.8262-5.85938 72.8027-7.95898 72.2656-9.91211C71.6797-12.0117 69.7266-12.8418 67.2363-12.2559C61.1328-10.8398 53.5156-10.4004 46.5332-10.9863C43.9453-11.2305 42.2363-9.91211 41.9922-7.95898C41.7969-6.10352 42.7734-4.19922 45.459-3.90625ZM42.8223 9.375C45.5566 9.66797 48.291 9.66797 51.2695 9.32617C53.5156 9.08203 54.834 7.61719 54.6875 5.51758C54.4922 3.56445 52.9297 2.14844 50.4883 2.44141C48.1445 2.73438 45.6543 2.73438 43.5059 2.49023C41.1133 2.19727 39.5508 3.61328 39.3555 5.51758C39.1602 7.56836 40.4785 9.13086 42.8223 9.375Z"/>
  </g>
  <g id="Semibold-S" transform="matrix(1 0 0 1 1998.17 696)">
   <path d="M44.5801-43.9941C69.2871-43.9941 83.3496-50.1465 83.3496-58.8867C83.3496-66.9922 72.4609-71.7773 55.8594-71.7773C44.0918-71.7773 34.7656-69.7754 27.4902-66.6504C25.0977-65.625 24.6094-63.1836 25.3906-61.5234C26.2695-59.5703 28.5645-58.9355 30.8594-59.7656C37.1094-62.1094 44.8242-64.4531 55.4199-64.4531C67.3828-64.4531 75.1953-61.8652 75.1953-58.9355C75.1953-55.3711 62.4512-51.5625 44.2383-51.5625C24.8535-51.5625 14.9902-55.2246 14.9902-62.2559C14.9902-66.6504 19.043-70.752 29.6875-74.0234C32.1777-74.8047 33.1543-76.8066 32.4707-78.9062C31.7871-80.957 29.9316-81.7871 27.0996-81.0547C13.3789-77.2461 6.83594-69.7754 6.83594-62.0605C6.83594-50.3418 19.9219-43.9941 44.5801-43.9941ZM45.7031-30.5176C58.1055-30.5176 69.5801-32.5195 77.5879-35.6445C79.6387-36.4258 80.4688-38.4766 79.5898-40.2832C78.7109-41.9922 76.8555-42.3828 74.6094-41.6016C67.4316-39.0137 56.8848-37.1582 45.7031-37.1582C37.3535-37.1582 27.9297-38.1348 20.2148-40.4297C17.9688-41.0645 16.1133-40.3809 15.5762-38.4766C15.0391-36.5723 16.0645-34.7168 18.4082-34.082C26.709-31.6895 36.8652-30.5176 45.7031-30.5176ZM48.4375-17.2363C58.6914-17.334 68.2617-18.75 77.3438-21.6797C79.834-22.4609 80.4688-24.5605 79.7852-26.2695C79.1016-27.9785 77.3926-28.6621 74.9512-27.9297C66.1133-25.1953 57.5684-23.877 48.291-23.877C44.4336-23.877 40.2832-24.1699 37.207-24.5605C34.8145-24.9023 33.3008-23.8281 32.959-22.0703C32.6172-20.2148 33.6426-18.4082 36.1816-18.0176C39.2578-17.4805 43.3594-17.1875 48.4375-17.2363ZM44.6777-4.6875C51.8555-3.85742 60.9375-4.15039 68.1152-6.00586C70.3613-6.5918 71.2891-8.54492 70.752-10.3516C70.166-12.2559 68.3594-12.9883 66.0645-12.4512C59.9609-10.9863 52.5391-10.498 45.6543-11.1816C43.2617-11.4258 41.6504-10.2539 41.4551-8.39844C41.2598-6.64062 42.1387-4.93164 44.6777-4.6875ZM41.9922 8.25195C44.6777 8.54492 47.4121 8.54492 50.1953 8.25195C52.3438 8.00781 53.5156 6.5918 53.3691 4.63867C53.2227 2.88086 51.8066 1.66016 49.4629 1.9043C47.2168 2.19727 44.7266 2.19727 42.627 1.95312C40.3809 1.66016 38.9648 2.92969 38.7695 4.6875C38.5742 6.49414 39.7461 8.00781 41.9922 8.25195Z"/>
  </g>
  <g id="Medium-S" transform="matrix(1 0 0 1 1702.12 696)">
   <path d="M43.8965-43.7012C68.3594-43.7012 82.0312-49.9023 82.0312-58.4473C82.0312-66.3574 71.1426-71.0938 55.0293-71.0938C43.2617-71.0938 34.082-68.9941 27.0996-65.8203C24.8047-64.7949 24.3164-62.5488 25.0977-60.9375C25.9766-59.1309 28.2227-58.5449 30.2734-59.3262C36.4258-61.7676 44.1406-64.1602 54.5898-64.1602C66.9434-64.1602 74.4629-61.4258 74.4629-58.4961C74.4629-54.9316 62.4512-50.8789 43.5547-50.8789C24.3652-50.8789 14.4043-54.541 14.4043-61.5234C14.4043-65.7715 18.2617-69.9707 29.1504-73.3887C31.4941-74.1211 32.4219-76.0254 31.7871-77.9785C31.1523-79.9316 29.3945-80.7129 26.709-79.9316C13.2324-76.0742 6.83594-68.8965 6.83594-61.377C6.83594-49.8535 19.6289-43.7012 43.8965-43.7012ZM45.0195-30.5176C57.2754-30.5176 68.5547-32.5684 76.5137-35.6934C78.3691-36.4258 79.1992-38.3301 78.3691-39.9902C77.5391-41.6016 75.7812-41.9434 73.6816-41.2109C66.6016-38.623 56.2012-36.7676 45.0195-36.7676C36.8164-36.7676 27.4902-37.6953 19.8242-39.9902C17.7246-40.5762 15.9668-39.9414 15.4785-38.1348C14.9414-36.3281 15.918-34.668 18.0664-34.0332C26.2695-31.6895 36.2793-30.5176 45.0195-30.5176ZM47.7051-17.5293C57.7637-17.627 67.2852-18.9941 76.2695-21.9727C78.7109-22.7539 79.1504-24.7559 78.5645-26.2695C77.9297-27.9297 76.2695-28.5156 73.9258-27.7832C65.1367-25 56.7383-23.7305 47.6074-23.7305C43.75-23.7305 39.6973-24.0234 36.6211-24.4141C34.3262-24.7559 32.959-23.7793 32.6172-22.1191C32.3242-20.3613 33.2031-18.7012 35.6445-18.3105C38.623-17.7734 42.7246-17.4805 47.7051-17.5293ZM44.043-5.27344C51.1719-4.44336 59.9121-4.6875 67.1387-6.5918C69.2871-7.12891 70.1172-8.98438 69.5801-10.6934C69.043-12.4512 67.3828-13.1348 65.1855-12.5977C59.0332-11.084 51.8066-10.5957 45.0195-11.3281C42.7734-11.5723 41.2598-10.4492 41.0156-8.74023C40.8203-7.03125 41.6992-5.51758 44.043-5.27344ZM41.4062 7.42188C44.043 7.71484 46.6797 7.71484 49.4141 7.37305C51.4648 7.12891 52.5391 5.81055 52.3926 4.00391C52.2461 2.39258 50.9766 1.26953 48.7305 1.51367C46.5332 1.75781 44.0918 1.75781 41.9922 1.51367C39.8438 1.26953 38.5254 2.44141 38.3301 4.00391C38.1348 5.71289 39.209 7.17773 41.4062 7.42188Z"/>
  </g>
  <g id="Regular-S" transform="matrix(1 0 0 1 1406.27 696)">
   <path d="M43.0664-43.3594C67.1875-43.3594 80.3223-49.5605 80.3223-57.8125C80.3223-65.5273 69.4336-70.166 53.9551-70.166C42.1875-70.166 33.252-67.9199 26.5137-64.6973C24.4629-63.7207 24.0234-61.6699 24.7559-60.2051C25.6348-58.5449 27.7832-58.1055 29.4922-58.7891C35.5957-61.3281 43.2129-63.8184 53.5156-63.8184C66.3086-63.8184 73.4863-60.8398 73.4863-57.8613C73.4863-54.2969 62.4512-49.9512 42.7246-49.9512C23.6816-49.9512 13.6719-53.6133 13.6719-60.6445C13.6719-64.6484 17.2363-68.9453 28.418-72.5586C30.5664-73.291 31.4453-75 30.8594-76.8066C30.2246-78.5645 28.7109-79.2969 26.2207-78.5645C12.9883-74.5605 6.83594-67.7246 6.83594-60.4492C6.83594-49.2676 19.2383-43.3594 43.0664-43.3594ZM44.1895-30.5664C56.2012-30.5664 67.2363-32.5684 75.0977-35.7422C76.7578-36.377 77.5391-38.1348 76.7578-39.6484C75.9277-41.1133 74.3652-41.4062 72.4609-40.6738C65.5273-38.0859 55.3223-36.2305 44.1895-36.2305C36.084-36.2305 26.9043-37.1582 19.3359-39.3555C17.3828-39.9414 15.8203-39.3555 15.332-37.6953C14.8438-36.084 15.6738-34.5215 17.6758-33.9844C25.7324-31.7383 35.5957-30.5664 44.1895-30.5664ZM46.6797-17.9199C56.5918-18.0176 66.0645-19.3848 74.8535-22.3633C77.1973-23.1445 77.4902-25 76.9531-26.3184C76.3184-27.832 74.8047-28.3203 72.5586-27.5879C63.8672-24.8047 55.5664-23.584 46.6797-23.584C42.9199-23.584 38.916-23.877 35.8398-24.2676C33.7402-24.5605 32.4707-23.6816 32.1777-22.1191C31.8848-20.6055 32.7148-19.1406 34.9609-18.7012C37.8418-18.1641 41.8945-17.8711 46.6797-17.9199ZM43.2617-6.00586C50.293-5.22461 58.5938-5.41992 65.8691-7.32422C67.8711-7.86133 68.5547-9.57031 68.1152-11.084C67.5781-12.6953 66.0645-13.3301 64.0137-12.793C57.8125-11.2305 50.8789-10.7422 44.1895-11.5234C42.1387-11.7676 40.6738-10.7422 40.4785-9.17969C40.2832-7.56836 41.1133-6.25 43.2617-6.00586ZM40.625 6.29883C43.1641 6.5918 45.8008 6.5918 48.3398 6.29883C50.3418 6.05469 51.2695 4.78516 51.123 3.17383C50.9766 1.75781 49.8535 0.732422 47.7539 0.976562C45.6543 1.2207 43.2129 1.2207 41.1133 0.976562C39.1113 0.732422 37.9395 1.80664 37.7441 3.17383C37.5488 4.63867 38.5254 6.05469 40.625 6.29883Z"/>
  </g>
  <g id="Light-S" transform="matrix(1 0 0 1 1110.38 696)">
   <path d="M42.0898-43.2129C64.9414-43.2129 78.6621-48.9746 78.6621-56.9336C78.6621-64.1113 68.1641-68.6035 52.9785-68.6035C41.748-68.6035 32.8125-66.3574 25.9766-63.1836C24.3164-62.4023 23.9258-60.791 24.5605-59.6191C25.1953-58.3008 26.9043-58.0078 28.3203-58.5938C34.4238-61.1816 42.2363-63.6719 52.6855-63.6719C65.6738-63.6719 73.4375-60.5469 73.4375-56.9336C73.4375-52.7344 61.2793-48.291 41.8945-48.291C22.5586-48.291 12.1094-52.1973 12.1094-59.5703C12.1094-64.0137 16.3086-68.6523 27.2949-72.168C28.9062-72.7051 29.6387-74.0234 29.1504-75.3906C28.7109-76.8066 27.4414-77.2949 25.5859-76.7578C13.0859-72.998 6.83594-66.4062 6.83594-59.4727C6.83594-48.9258 18.9941-43.2129 42.0898-43.2129ZM43.2617-30.8105C55.2246-30.8105 66.2109-32.7148 73.9258-35.9863C75.2441-36.5234 75.8789-37.8418 75.293-39.0625C74.6582-40.2344 73.3887-40.4297 71.875-39.8438C64.6484-37.0117 54.3457-35.2539 43.2617-35.2539C34.9609-35.2539 25.4395-36.2793 18.2129-38.3789C16.6992-38.8672 15.4297-38.3789 15.0391-37.1094C14.6484-35.791 15.332-34.6191 16.8945-34.1797C24.6582-31.9336 34.668-30.8105 43.2617-30.8105ZM45.9473-18.5059C56.0547-18.5547 65.4297-20.0684 73.877-22.9492C75.6348-23.5352 75.9277-24.9512 75.5371-26.0254C75.0488-27.2461 73.8281-27.5879 72.0703-27.0508C63.7695-24.3164 55.127-22.9004 45.9473-22.9004C41.9922-22.9004 37.9395-23.1934 34.7656-23.6328C33.1055-23.8281 32.0801-23.1934 31.8848-21.9727C31.6406-20.752 32.2754-19.5801 34.0332-19.2871C37.0117-18.75 41.2109-18.457 45.9473-18.5059ZM42.4316-6.83594C49.3164-6.05469 57.7637-6.20117 64.8926-8.25195C66.4062-8.64258 66.9922-10.0098 66.6016-11.1816C66.1621-12.4512 64.9902-12.8906 63.3301-12.5C57.1289-10.8398 49.8047-10.3027 43.1641-11.1816C41.5527-11.377 40.3809-10.5957 40.2344-9.375C40.0879-8.10547 40.7227-7.03125 42.4316-6.83594ZM39.7949 5.12695C42.1387 5.46875 45.1172 5.41992 47.5586 5.12695C49.1211 4.93164 49.8535 3.90625 49.707 2.63672C49.6094 1.51367 48.6816 0.732422 47.0215 0.927734C44.873 1.2207 42.3828 1.2207 40.2344 0.976562C38.6719 0.78125 37.6953 1.5625 37.5488 2.68555C37.4023 3.85742 38.1348 4.93164 39.7949 5.12695Z"/>
  </g>
  <g id="Thin-S" transform="matrix(1 0 0 1 814.747 696)">
   <path d="M40.8691-43.0664C62.0117-43.0664 76.5137-48.2422 76.5137-55.7617C76.5137-62.2559 66.5039-66.4551 51.709-66.4551C41.2109-66.4551 32.2754-64.3066 25.293-61.1328C24.1699-60.6445 23.8281-59.6191 24.2676-58.8379C24.707-58.0078 25.7324-57.8613 26.7578-58.3008C32.8613-60.9375 40.8691-63.4277 51.6113-63.4277C64.8926-63.4277 73.3398-60.2051 73.3398-55.7617C73.3398-50.6836 59.7168-46.1426 40.7715-46.1426C21.0938-46.1426 10.0098-50.3418 10.0098-58.1543C10.0098-63.2324 15.0879-68.3105 25.7812-71.582C26.709-71.875 27.1973-72.6562 26.9531-73.5352C26.6602-74.4629 25.7812-74.707 24.8047-74.4141C13.1836-70.9473 6.83594-64.6973 6.83594-58.1055C6.83594-48.4375 18.7012-43.0664 40.8691-43.0664ZM42.0898-31.1035C53.9551-31.1035 64.7949-32.9102 72.4121-36.2793C73.291-36.6699 73.7305-37.5 73.3398-38.2812C72.9492-39.0625 72.1191-39.1602 71.0938-38.7695C63.5254-35.5957 53.0762-33.9844 42.0898-33.9844C33.4961-33.9844 23.4863-35.1562 16.748-37.1094C15.7227-37.4023 14.9414-37.1094 14.6484-36.2793C14.4043-35.4492 14.8438-34.7168 15.8691-34.4238C23.2422-32.1777 33.4961-31.1035 42.0898-31.1035ZM44.9707-19.2383C55.3223-19.2871 64.6484-21.0449 72.6074-23.6816C73.6328-24.0234 73.9258-24.9512 73.6328-25.6836C73.3398-26.4648 72.5586-26.709 71.4355-26.3184C63.6719-23.6816 54.5898-22.0703 44.9707-22.0703C40.8203-22.0703 36.6699-22.3145 33.3496-22.8027C32.3242-22.9492 31.5918-22.5586 31.4453-21.7773C31.2988-20.9473 31.7383-20.2148 32.8613-20.0195C35.9375-19.5801 40.332-19.2383 44.9707-19.2383ZM41.3086-7.95898C48.0469-7.12891 56.6406-7.22656 63.5254-9.42383C64.502-9.66797 64.8926-10.5469 64.6484-11.3281C64.3555-12.1582 63.5742-12.4023 62.5-12.1094C56.1523-10.3516 48.3887-9.76562 41.7969-10.7422C40.7715-10.8887 40.0391-10.4492 39.8926-9.61914C39.7949-8.83789 40.2344-8.10547 41.3086-7.95898ZM38.7207 3.66211C40.7715 4.00391 44.2383 3.90625 46.5332 3.56445C47.5586 3.41797 47.998 2.7832 47.9004 1.95312C47.8027 1.2207 47.168 0.683594 45.9961 0.878906C43.8477 1.2207 41.2598 1.26953 39.0625 0.927734C38.0859 0.78125 37.4023 1.26953 37.3047 2.00195C37.1582 2.7832 37.6465 3.4668 38.7207 3.66211Z"/>
  </g>
  <g id="Ultralight-S" transform="matrix(1 0 0 1 518.598 696)">
   <path d="M40.2344-42.9199C60.498-42.9199 75.3906-47.8516 75.3906-55.1758C75.3906-61.2793 65.6738-65.3809 51.0742-65.3809C40.918-65.3809 31.9824-63.2324 24.9512-60.1074C24.0723-59.7168 23.7793-59.0332 24.1211-58.4473C24.4141-57.8613 25.1465-57.7637 25.9766-58.1543C32.0801-60.8398 40.1855-63.3301 51.0742-63.3301C64.4531-63.3301 73.291-60.0098 73.291-55.1758C73.291-49.6094 58.9355-45.0195 40.2344-45.0195C20.3613-45.0195 8.93555-49.3652 8.93555-57.4219C8.93555-62.793 14.4531-68.1152 25.0488-71.2891C25.5859-71.4844 25.9766-71.9727 25.7812-72.5586C25.5859-73.291 24.9512-73.3398 24.3652-73.1934C13.2812-69.873 6.83594-63.7695 6.83594-57.4219C6.83594-48.1934 18.5547-42.9199 40.2344-42.9199ZM41.5039-31.25C53.2715-31.25 64.0625-33.0078 71.6309-36.4258C72.3145-36.7676 72.6074-37.3047 72.3633-37.8906C72.0703-38.4766 71.4355-38.5254 70.7031-38.2324C62.9395-34.8633 52.4414-33.3008 41.5039-33.3008C32.7637-33.3008 22.5098-34.5703 16.0156-36.4258C15.2344-36.6699 14.6484-36.4746 14.4531-35.8887C14.2578-35.2539 14.5996-34.7656 15.332-34.5215C22.4609-32.3242 32.8613-31.25 41.5039-31.25ZM44.4336-19.6289C54.9316-19.6289 64.209-21.5332 71.9238-24.0723C72.6074-24.3164 72.9004-24.9023 72.7051-25.4883C72.4609-26.0742 71.875-26.2207 71.1426-25.9766C63.623-23.3398 54.248-21.6309 44.4336-21.6309C40.2344-21.6309 35.9863-21.8262 32.5684-22.3633C31.8848-22.4609 31.3477-22.2168 31.25-21.6797C31.1523-21.0449 31.4453-20.5566 32.2754-20.4102C35.4004-19.9707 39.8926-19.6289 44.4336-19.6289ZM40.7715-8.54492C47.4121-7.66602 56.1035-7.76367 62.8418-10.0098C63.5254-10.2051 63.8184-10.8398 63.623-11.4258C63.3789-12.0117 62.793-12.1094 62.0605-11.9141C55.6641-10.1074 47.6562-9.47266 41.0645-10.498C40.3809-10.5957 39.8438-10.3027 39.7461-9.76562C39.6484-9.17969 39.9414-8.64258 40.7715-8.54492ZM38.1836 2.88086C40.0391 3.27148 43.7988 3.125 45.9961 2.7832C46.7285 2.68555 47.0215 2.19727 46.9238 1.61133C46.8262 1.07422 46.3867 0.683594 45.459 0.830078C43.3105 1.2207 40.7227 1.26953 38.4766 0.927734C37.7441 0.830078 37.2559 1.12305 37.1582 1.66016C37.0605 2.24609 37.3535 2.73438 38.1836 2.88086Z"/>
  </g>
 </g>
</svg>
