<?xml version="1.0" encoding="UTF-8"?>
<!--Generator: Apple Native CoreSVG 149-->
<!DOCTYPE svg
PUBLIC "-//W3C//DTD SVG 1.1//EN"
       "http://www.w3.org/Graphics/SVG/1.1/DTD/svg11.dtd">
<svg version="1.1" xmlns="http://www.w3.org/2000/svg" xmlns:xlink="http://www.w3.org/1999/xlink" width="3300" height="2200">
 <!--glyph: "uni1001E0.medium", point size: 100.000000, font version: "Version 16.0d12e3", template writer version: "8"-->
 <g id="Notes">
  <rect height="2200" id="artboard" style="fill:white;opacity:1" width="3300" x="0" y="0"/>
  <line id="" style="fill:none;stroke:black;opacity:1;stroke-width:0.5;" x1="263" x2="3036" y1="292" y2="292"/>
  <text style="stroke:none;fill:black;font-family:-apple-system,&quot;SF Pro Display&quot;,&quot;SF Pro Text&quot;,Helvetica,sans-serif;font-weight:bold;" transform="matrix(1 0 0 1 263 322)">Weight/Scale Variations</text>
  <text style="stroke:none;fill:black;font-family:-apple-system,&quot;SF Pro Display&quot;,&quot;SF Pro Text&quot;,Helvetica,sans-serif;text-anchor:middle;" transform="matrix(1 0 0 1 559.711 322)">Ultralight</text>
  <text style="stroke:none;fill:black;font-family:-apple-system,&quot;SF Pro Display&quot;,&quot;SF Pro Text&quot;,Helvetica,sans-serif;text-anchor:middle;" transform="matrix(1 0 0 1 856.422 322)">Thin</text>
  <text style="stroke:none;fill:black;font-family:-apple-system,&quot;SF Pro Display&quot;,&quot;SF Pro Text&quot;,Helvetica,sans-serif;text-anchor:middle;" transform="matrix(1 0 0 1 1153.13 322)">Light</text>
  <text style="stroke:none;fill:black;font-family:-apple-system,&quot;SF Pro Display&quot;,&quot;SF Pro Text&quot;,Helvetica,sans-serif;text-anchor:middle;" transform="matrix(1 0 0 1 1449.84 322)">Regular</text>
  <text style="stroke:none;fill:black;font-family:-apple-system,&quot;SF Pro Display&quot;,&quot;SF Pro Text&quot;,Helvetica,sans-serif;text-anchor:middle;" transform="matrix(1 0 0 1 1746.56 322)">Medium</text>
  <text style="stroke:none;fill:black;font-family:-apple-system,&quot;SF Pro Display&quot;,&quot;SF Pro Text&quot;,Helvetica,sans-serif;text-anchor:middle;" transform="matrix(1 0 0 1 2043.27 322)">Semibold</text>
  <text style="stroke:none;fill:black;font-family:-apple-system,&quot;SF Pro Display&quot;,&quot;SF Pro Text&quot;,Helvetica,sans-serif;text-anchor:middle;" transform="matrix(1 0 0 1 2339.98 322)">Bold</text>
  <text style="stroke:none;fill:black;font-family:-apple-system,&quot;SF Pro Display&quot;,&quot;SF Pro Text&quot;,Helvetica,sans-serif;text-anchor:middle;" transform="matrix(1 0 0 1 2636.69 322)">Heavy</text>
  <text style="stroke:none;fill:black;font-family:-apple-system,&quot;SF Pro Display&quot;,&quot;SF Pro Text&quot;,Helvetica,sans-serif;text-anchor:middle;" transform="matrix(1 0 0 1 2933.4 322)">Black</text>
  <line id="" style="fill:none;stroke:black;opacity:1;stroke-width:0.5;" x1="263" x2="3036" y1="1903" y2="1903"/>
  <g id="" transform="matrix(1 0 0 1 263 1933)">
   <path d="M9.24805 0.830078C13.5547 0.830078 17.1387-2.74414 17.1387-7.05078C17.1387-11.3574 13.5449-14.9316 9.23828-14.9316C4.94141-14.9316 1.36719-11.3574 1.36719-7.05078C1.36719-2.74414 4.95117 0.830078 9.24805 0.830078ZM9.24805-0.654297C5.70312-0.654297 2.87109-3.49609 2.87109-7.05078C2.87109-10.6055 5.69336-13.4473 9.23828-13.4473C12.793-13.4473 15.6348-10.6055 15.6445-7.05078C15.6543-3.49609 12.8027-0.654297 9.24805-0.654297ZM9.22852-3.62305C9.69727-3.62305 9.9707-3.93555 9.9707-4.45312L9.9707-6.31836L12.002-6.31836C12.5-6.31836 12.832-6.57227 12.832-7.04102C12.832-7.51953 12.5195-7.7832 12.002-7.7832L9.9707-7.7832L9.9707-9.81445C9.9707-10.332 9.69727-10.6543 9.22852-10.6543C8.75977-10.6543 8.50586-10.3125 8.50586-9.81445L8.50586-7.7832L6.49414-7.7832C5.97656-7.7832 5.64453-7.51953 5.64453-7.04102C5.64453-6.57227 5.99609-6.31836 6.49414-6.31836L8.50586-6.31836L8.50586-4.45312C8.50586-3.95508 8.75977-3.62305 9.22852-3.62305Z"/>
  </g>
  <g id="" transform="matrix(1 0 0 1 281.506 1933)">
   <path d="M11.709 2.91016C17.1582 2.91016 21.6699-1.61133 21.6699-7.05078C21.6699-12.5 17.1484-17.0117 11.6992-17.0117C6.25977-17.0117 1.74805-12.5 1.74805-7.05078C1.74805-1.61133 6.26953 2.91016 11.709 2.91016ZM11.709 1.25C7.09961 1.25 3.41797-2.44141 3.41797-7.05078C3.41797-11.6602 7.08984-15.3516 11.6992-15.3516C16.3086-15.3516 20-11.6602 20.0098-7.05078C20.0195-2.44141 16.3184 1.25 11.709 1.25ZM11.6797-2.66602C12.207-2.66602 12.5098-3.01758 12.5098-3.59375L12.5098-6.23047L15.3223-6.23047C15.8691-6.23047 16.25-6.51367 16.25-7.03125C16.25-7.55859 15.8887-7.86133 15.3223-7.86133L12.5098-7.86133L12.5098-10.6836C12.5098-11.25 12.207-11.6113 11.6797-11.6113C11.1621-11.6113 10.8789-11.2305 10.8789-10.6836L10.8789-7.86133L8.07617-7.86133C7.50977-7.86133 7.13867-7.55859 7.13867-7.03125C7.13867-6.51367 7.5293-6.23047 8.07617-6.23047L10.8789-6.23047L10.8789-3.59375C10.8789-3.03711 11.1621-2.66602 11.6797-2.66602Z"/>
  </g>
  <g id="" transform="matrix(1 0 0 1 304.924 1933)">
   <path d="M14.9707 5.66406C21.9336 5.66406 27.6953-0.0976562 27.6953-7.05078C27.6953-14.0137 21.9238-19.7754 14.9609-19.7754C8.00781-19.7754 2.25586-14.0137 2.25586-7.05078C2.25586-0.0976562 8.01758 5.66406 14.9707 5.66406ZM14.9707 3.84766C8.93555 3.84766 4.08203-1.01562 4.08203-7.05078C4.08203-13.0957 8.92578-17.9492 14.9609-17.9492C21.0059-17.9492 25.8594-13.0957 25.8691-7.05078C25.8789-1.01562 21.0156 3.84766 14.9707 3.84766ZM14.9414-1.38672C15.5176-1.38672 15.8594-1.77734 15.8594-2.38281L15.8594-6.13281L19.7754-6.13281C20.3711-6.13281 20.7812-6.46484 20.7812-7.02148C20.7812-7.59766 20.3906-7.93945 19.7754-7.93945L15.8594-7.93945L15.8594-11.8652C15.8594-12.4805 15.5176-12.8711 14.9414-12.8711C14.375-12.8711 14.0527-12.4609 14.0527-11.8652L14.0527-7.93945L10.1465-7.93945C9.53125-7.93945 9.13086-7.59766 9.13086-7.02148C9.13086-6.46484 9.55078-6.13281 10.1465-6.13281L14.0527-6.13281L14.0527-2.38281C14.0527-1.79688 14.375-1.38672 14.9414-1.38672Z"/>
  </g>
  <text style="stroke:none;fill:black;font-family:-apple-system,&quot;SF Pro Display&quot;,&quot;SF Pro Text&quot;,Helvetica,sans-serif;font-weight:bold;" transform="matrix(1 0 0 1 263 1953)">Design Variations</text>
  <text style="stroke:none;fill:black;font-family:-apple-system,&quot;SF Pro Display&quot;,&quot;SF Pro Text&quot;,Helvetica,sans-serif;" transform="matrix(1 0 0 1 263 1971)">Symbols are supported in up to nine weights and three scales.</text>
  <text style="stroke:none;fill:black;font-family:-apple-system,&quot;SF Pro Display&quot;,&quot;SF Pro Text&quot;,Helvetica,sans-serif;" transform="matrix(1 0 0 1 263 1989)">For optimal layout with text and other symbols, vertically align</text>
  <text style="stroke:none;fill:black;font-family:-apple-system,&quot;SF Pro Display&quot;,&quot;SF Pro Text&quot;,Helvetica,sans-serif;" transform="matrix(1 0 0 1 263 2007)">symbols with the adjacent text.</text>
  <line id="" style="fill:none;stroke:#00AEEF;stroke-width:0.5;opacity:1.0;" x1="776" x2="776" y1="1919" y2="1933"/>
  <g id="" transform="matrix(1 0 0 1 776 1933)">
   <path d="M3.31055 0.126953C3.82812 0.126953 4.08203-0.0683594 4.26758-0.605469L5.52734-4.0625L11.2891-4.0625L12.5488-0.605469C12.7344-0.0683594 12.9883 0.126953 13.4961 0.126953C14.0137 0.126953 14.3457-0.185547 14.3457-0.673828C14.3457-0.839844 14.3164-0.986328 14.2383-1.20117L9.6582-13.3887C9.43359-13.9941 9.0332-14.2871 8.4082-14.2871C7.80273-14.2871 7.39258-13.9941 7.17773-13.3984L2.59766-1.19141C2.51953-0.976562 2.49023-0.830078 2.49023-0.664062C2.49023-0.175781 2.80273 0.126953 3.31055 0.126953ZM6.00586-5.53711L8.37891-12.1094L8.42773-12.1094L10.8008-5.53711Z"/>
  </g>
  <line id="" style="fill:none;stroke:#00AEEF;stroke-width:0.5;opacity:1.0;" x1="792.836" x2="792.836" y1="1919" y2="1933"/>
  <text style="stroke:none;fill:black;font-family:-apple-system,&quot;SF Pro Display&quot;,&quot;SF Pro Text&quot;,Helvetica,sans-serif;font-weight:bold;" transform="matrix(1 0 0 1 776 1953)">Margins</text>
  <text style="stroke:none;fill:black;font-family:-apple-system,&quot;SF Pro Display&quot;,&quot;SF Pro Text&quot;,Helvetica,sans-serif;" transform="matrix(1 0 0 1 776 1971)">Leading and trailing margins on the left and right side of each symbol</text>
  <text style="stroke:none;fill:black;font-family:-apple-system,&quot;SF Pro Display&quot;,&quot;SF Pro Text&quot;,Helvetica,sans-serif;" transform="matrix(1 0 0 1 776 1989)">can be adjusted by modifying the x-location of the margin guidelines.</text>
  <text style="stroke:none;fill:black;font-family:-apple-system,&quot;SF Pro Display&quot;,&quot;SF Pro Text&quot;,Helvetica,sans-serif;" transform="matrix(1 0 0 1 776 2007)">Modifications are automatically applied proportionally to all</text>
  <text style="stroke:none;fill:black;font-family:-apple-system,&quot;SF Pro Display&quot;,&quot;SF Pro Text&quot;,Helvetica,sans-serif;" transform="matrix(1 0 0 1 776 2025)">scales and weights.</text>
  <g id="" transform="matrix(1 0 0 1 1289 1933)">
   <path d="M2.8418 1.86523L4.54102 3.57422C5.40039 4.44336 6.38672 4.38477 7.31445 3.35938L17.4902-7.85156C17.7539-7.76367 18.0273-7.7832 18.3398-7.8418L19.4043-8.03711L20.0684-7.36328L20.0293-6.80664C19.9902-6.30859 20.1172-5.92773 20.6055-5.44922L21.3672-4.70703C21.8457-4.22852 22.4609-4.19922 22.9297-4.66797L25.8398-7.58789C26.3086-8.05664 26.2891-8.65234 25.8105-9.13086L25.0391-9.89258C24.5605-10.3711 24.1895-10.5273 23.7109-10.4883L23.1348-10.4395L22.4902-11.0742L22.7344-12.1973C22.8613-12.7637 22.7051-13.2031 22.1191-13.7891L19.9219-15.9766C16.582-19.2969 12.1484-19.2188 9.25781-16.3281C8.83789-15.918 8.80859-15.3418 9.04297-14.9512C9.27734-14.5898 9.73633-14.3555 10.3809-14.5215C11.8457-14.8633 13.3691-14.9219 14.7949-13.9844L14.209-12.5293C14.0137-12.0508 13.9844-11.6504 14.1113-11.2891L3.04688-0.898438C2.06055 0.0195312 1.98242 0.996094 2.8418 1.86523ZM10.752-15.957C13.1836-17.7344 16.4746-17.4316 18.7012-15.2051L21.1328-12.793C21.3672-12.5586 21.4062-12.373 21.3379-12.0312L21.0156-10.5469L22.5195-9.0625L23.5059-9.12109C23.7598-9.13086 23.8379-9.11133 24.0332-8.91602L24.6094-8.33984L22.168-5.89844L21.5918-6.47461C21.3965-6.66992 21.3672-6.74805 21.377-7.01172L21.4453-7.98828L19.9512-9.47266L18.4277-9.21875C18.1055-9.15039 17.959-9.17969 17.7148-9.41406L15.7129-11.416C15.459-11.6504 15.4297-11.8164 15.5859-12.1875L16.4648-14.2773C14.9023-15.7324 12.8711-16.3574 10.8398-15.7617C10.6836-15.7227 10.625-15.8496 10.752-15.957ZM5.27344 2.30469L4.10156 1.14258C3.63281 0.683594 3.74023 0.341797 4.14062-0.0195312L14.9512-10.1953L16.416-8.71094L6.42578 2.27539C6.07422 2.67578 5.74219 2.77344 5.27344 2.30469Z"/>
  </g>
  <text style="stroke:none;fill:black;font-family:-apple-system,&quot;SF Pro Display&quot;,&quot;SF Pro Text&quot;,Helvetica,sans-serif;font-weight:bold;" transform="matrix(1 0 0 1 1289 1953)">Exporting</text>
  <text style="stroke:none;fill:black;font-family:-apple-system,&quot;SF Pro Display&quot;,&quot;SF Pro Text&quot;,Helvetica,sans-serif;" transform="matrix(1 0 0 1 1289 1971)">Symbols should be outlined when exporting to ensure the</text>
  <text style="stroke:none;fill:black;font-family:-apple-system,&quot;SF Pro Display&quot;,&quot;SF Pro Text&quot;,Helvetica,sans-serif;" transform="matrix(1 0 0 1 1289 1989)">design is preserved when submitting to Xcode.</text>
  <text id="template-version" style="stroke:none;fill:black;font-family:-apple-system,&quot;SF Pro Display&quot;,&quot;SF Pro Text&quot;,Helvetica,sans-serif;text-anchor:end;" transform="matrix(1 0 0 1 3036 1933)">Template v.2.0</text>
  <text style="stroke:none;fill:black;font-family:-apple-system,&quot;SF Pro Display&quot;,&quot;SF Pro Text&quot;,Helvetica,sans-serif;text-anchor:end;" transform="matrix(1 0 0 1 3036 1951)">Requires Xcode 12 or greater</text>
  <text style="stroke:none;fill:black;font-family:-apple-system,&quot;SF Pro Display&quot;,&quot;SF Pro Text&quot;,Helvetica,sans-serif;text-anchor:end;" transform="matrix(1 0 0 1 3036 1969)">Generated from cloud.moon.bolt</text>
  <text style="stroke:none;fill:black;font-family:-apple-system,&quot;SF Pro Display&quot;,&quot;SF Pro Text&quot;,Helvetica,sans-serif;text-anchor:end;" transform="matrix(1 0 0 1 3036 1987)">Typeset at 100 points</text>
  <text style="stroke:none;fill:black;font-family:-apple-system,&quot;SF Pro Display&quot;,&quot;SF Pro Text&quot;,Helvetica,sans-serif;" transform="matrix(1 0 0 1 263 726)">Small</text>
  <text style="stroke:none;fill:black;font-family:-apple-system,&quot;SF Pro Display&quot;,&quot;SF Pro Text&quot;,Helvetica,sans-serif;" transform="matrix(1 0 0 1 263 1156)">Medium</text>
  <text style="stroke:none;fill:black;font-family:-apple-system,&quot;SF Pro Display&quot;,&quot;SF Pro Text&quot;,Helvetica,sans-serif;" transform="matrix(1 0 0 1 263 1586)">Large</text>
 </g>
 <g id="Guides">
  <g id="H-reference" style="fill:#27AAE1;stroke:none;" transform="matrix(1 0 0 1 339 696)">
   <path d="M0.976562 0L3.66211 0L12.9883-24.4629L45.752-24.4629L55.127 0L57.7637 0L30.6152-70.459L28.125-70.459ZM29.3457-67.1387L29.4434-67.1387L44.873-26.709L13.8672-26.709Z"/>
  </g>
  <line id="Baseline-S" style="fill:none;stroke:#27AAE1;opacity:1;stroke-width:0.5;" x1="263" x2="3036" y1="696" y2="696"/>
  <line id="Capline-S" style="fill:none;stroke:#27AAE1;opacity:1;stroke-width:0.5;" x1="263" x2="3036" y1="625.541" y2="625.541"/>
  <g id="H-reference" style="fill:#27AAE1;stroke:none;" transform="matrix(1 0 0 1 339 1126)">
   <path d="M0.976562 0L3.66211 0L12.9883-24.4629L45.752-24.4629L55.127 0L57.7637 0L30.6152-70.459L28.125-70.459ZM29.3457-67.1387L29.4434-67.1387L44.873-26.709L13.8672-26.709Z"/>
  </g>
  <line id="Baseline-M" style="fill:none;stroke:#27AAE1;opacity:1;stroke-width:0.5;" x1="263" x2="3036" y1="1126" y2="1126"/>
  <line id="Capline-M" style="fill:none;stroke:#27AAE1;opacity:1;stroke-width:0.5;" x1="263" x2="3036" y1="1055.54" y2="1055.54"/>
  <g id="H-reference" style="fill:#27AAE1;stroke:none;" transform="matrix(1 0 0 1 339 1556)">
   <path d="M0.976562 0L3.66211 0L12.9883-24.4629L45.752-24.4629L55.127 0L57.7637 0L30.6152-70.459L28.125-70.459ZM29.3457-67.1387L29.4434-67.1387L44.873-26.709L13.8672-26.709Z"/>
  </g>
  <line id="Baseline-L" style="fill:none;stroke:#27AAE1;opacity:1;stroke-width:0.5;" x1="263" x2="3036" y1="1556" y2="1556"/>
  <line id="Capline-L" style="fill:none;stroke:#27AAE1;opacity:1;stroke-width:0.5;" x1="263" x2="3036" y1="1485.54" y2="1485.54"/>
  <line id="left-margin" style="fill:none;stroke:#00AEEF;stroke-width:0.5;opacity:1.0;" x1="1382.24" x2="1382.24" y1="1030.79" y2="1150.12"/>
  <line id="right-margin" style="fill:none;stroke:#FF3B30;stroke-width:0.5;opacity:1.0;" x1="1517.45" x2="1517.45" y1="1030.79" y2="1150.12"/>
 </g>
 <g id="Symbols">
  <g id="Black-L" transform="matrix(1 0 0 1 2841.6 1556)">
   <path d="M42.2852 8.59375L111.621 8.59375C131.934 8.59375 147.705-6.93359 147.705-26.9531C147.705-27.2949 147.705-27.6855 147.705-28.0273C167.725-27.7832 183.691-38.8672 189.941-56.0547C192.578-63.3789 189.307-69.5312 182.275-69.5312C177.148-69.5312 173.389-67.4805 166.553-67.4805C152.539-67.4805 145.752-74.9512 145.752-89.3555C145.752-97.0215 148.096-102.1 148.096-105.664C148.096-112.549 141.846-115.918 135.059-113.574C118.506-107.91 106.445-91.4062 106.445-73.4375C106.445-72.7051 106.445-71.9727 106.494-71.2402C98.5352-80.0293 87.4023-84.7168 74.0234-84.7168C51.9043-84.7168 33.5938-68.9941 30.0293-47.0703C18.5547-43.3105 11.2793-33.1543 11.2793-20.6055C11.2793-3.66211 24.3164 8.59375 42.2852 8.59375ZM120.703-73.5352C120.703-83.4473 125.586-92.7246 133.447-98.0469L134.229-97.5586C133.301-94.4336 132.373-90.1855 132.373-85.2539C132.373-67.1875 144.775-54.1016 163.281-54.1016C168.213-54.1016 171.533-55.0293 174.121-55.9082L174.658-55.3223C169.824-47.3145 159.131-41.748 144.189-42.8223C140.039-51.5137 132.422-58.0566 122.998-61.0352C121.436-64.8926 120.703-69.0918 120.703-73.5352ZM42.7246-8.74023C33.3008-8.74023 28.6133-13.5742 28.6133-20.4102C28.6133-26.4648 32.4219-31.1035 41.0156-33.3008C44.7266-34.2773 45.7031-35.9375 46.2891-39.6973C48.9746-57.8613 60.0098-67.4805 74.0234-67.4805C84.5215-67.4805 93.3105-61.4258 99.3652-50.1953C101.025-47.1191 102.734-45.9961 106.494-45.9961C122.998-45.9961 130.42-37.5 130.42-26.709C130.42-16.5527 122.754-8.74023 111.133-8.74023ZM97.8027 29.7363L83.1055 29.7363L88.2324 19.873C88.9648 18.5059 88.3789 17.4316 86.9629 17.4316L68.6035 17.4316C66.7969 17.4316 66.1621 18.0664 65.625 19.3848L56.8848 39.2578C56.25 40.7715 56.7871 41.7969 58.4473 41.7969L70.459 41.7969L61.8164 62.7441C61.4258 63.5742 61.6699 64.3066 62.207 64.5508C62.793 64.7461 63.4766 64.5996 64.1602 63.9648L98.7305 32.959C100.195 31.6895 99.707 29.7363 97.8027 29.7363Z"/>
  </g>
  <g id="Heavy-L" transform="matrix(1 0 0 1 2546.04 1556)">
   <path d="M41.1133 7.27539L110.254 7.27539C129.98 7.27539 145.361-7.76367 145.361-27.1973C145.361-27.4902 145.361-27.832 145.361-28.1738C165.674-28.125 180.811-39.6973 186.426-55.4688C188.867-62.0605 185.84-67.6758 179.443-67.6758C174.707-67.6758 170.996-65.6738 164.16-65.6738C149.609-65.6738 142.383-73.584 142.383-87.9883C142.383-95.6543 144.727-100.391 144.727-103.955C144.727-110.303 139.014-113.33 132.715-111.182C117.139-106.006 104.98-90.2344 104.98-72.2168C104.98-71.4355 104.98-70.6543 105.029-69.873C97.168-78.9062 86.084-83.8379 72.8516-83.8379C51.0254-83.8379 33.0078-68.0176 29.7852-46.3867C18.5547-42.7734 11.2793-32.9102 11.2793-20.6543C11.2793-4.44336 23.6816 7.27539 41.1133 7.27539ZM117.725-72.3145C117.725-83.1543 123.584-92.4316 131.543-97.4121L132.275-96.9238C131.299-93.7988 130.322-89.502 130.322-84.5215C130.322-66.5527 142.822-53.6133 161.279-53.6133C166.113-53.6133 169.678-54.541 172.412-55.4688L172.9-54.9316C168.457-47.1191 157.959-40.5273 142.432-41.3086C138.33-50.6836 130.127-57.666 119.824-60.4492C118.457-64.1113 117.725-68.1152 117.725-72.3145ZM41.4062-7.95898C31.543-7.95898 26.5625-13.2324 26.5625-20.459C26.5625-26.7578 30.5176-31.7383 39.3066-34.082C42.7734-34.9609 43.75-36.5234 44.2383-40.0391C46.6309-58.1543 58.3008-68.6035 72.8516-68.6035C83.8867-68.6035 92.9199-62.3047 98.9258-50.9277C100.488-47.998 102.148-46.9727 105.713-46.9727C122.119-46.9727 130.078-38.0371 130.078-26.9043C130.078-16.2598 121.875-7.95898 109.912-7.95898ZM95.5078 28.8086L81.4453 28.8086L86.8164 18.6035C87.5488 17.2363 86.9629 16.1621 85.5469 16.1621L68.8965 16.1621C67.0898 16.1621 66.4551 16.7969 65.918 18.1152L57.373 37.5977C56.7383 39.1113 57.3242 40.0879 58.9844 40.0879L70.5078 40.0879L62.0117 60.5957C61.6211 61.4746 61.8652 62.1582 62.4023 62.4023C62.9883 62.6465 63.6719 62.5 64.3555 61.8164L96.4844 31.9824C97.9004 30.7129 97.4121 28.8086 95.5078 28.8086Z"/>
  </g>
  <g id="Bold-L" transform="matrix(1 0 0 1 2250.62 1556)">
   <path d="M39.7949 5.81055L108.691 5.81055C127.832 5.81055 142.676-8.74023 142.676-27.3926C142.676-27.7344 142.676-28.0273 142.676-28.3203C163.379-28.5156 177.588-40.5762 182.568-54.7852C184.717-60.5957 181.885-65.5762 176.318-65.5762C171.973-65.5762 168.359-63.623 161.475-63.623C146.387-63.623 138.574-72.0215 138.574-86.5234C138.574-94.1895 140.967-98.5352 140.967-102.002C140.967-107.715 135.889-110.498 130.078-108.545C115.625-103.857 103.369-88.916 103.369-70.8496C103.369-70.0195 103.369-69.1895 103.418-68.3594C95.6543-77.5879 84.6191-82.8613 71.4844-82.8613C50.0977-82.8613 32.373-66.8945 29.541-45.6543C18.6035-42.1875 11.2793-32.666 11.2793-20.6543C11.2793-5.32227 22.9492 5.81055 39.7949 5.81055ZM114.453-70.9961C114.453-82.7637 121.338-92.0898 129.395-96.6797L130.078-96.1914C129.004-93.1152 128.027-88.7695 128.027-83.7402C128.027-65.8203 140.625-53.125 158.984-53.125C163.721-53.125 167.627-54.0039 170.459-54.9805L170.947-54.4922C166.943-46.875 156.592-39.1602 140.43-39.6484C136.426-49.7559 127.588-57.1777 116.357-59.7168C115.088-63.2324 114.453-67.041 114.453-70.9961ZM39.9414-7.12891C29.5898-7.12891 24.2188-12.8418 24.2188-20.459C24.2188-27.0996 28.3691-32.5195 37.3535-34.9121C40.5762-35.7422 41.5527-37.1582 41.9434-40.4297C43.9941-58.4961 56.3477-69.9219 71.4844-69.9219C83.2031-69.9219 92.5293-63.2324 98.4863-51.709C99.9023-48.9746 101.465-47.998 104.785-47.998C121.143-47.998 129.736-38.6719 129.736-27.1484C129.736-15.9668 120.898-7.12891 108.545-7.12891ZM92.9688 27.7832L79.6387 27.7832L85.2539 17.1875C85.9863 15.8203 85.4004 14.7461 83.9844 14.7461L69.1895 14.7461C67.4316 14.7461 66.7969 15.3809 66.2598 16.6992L57.9102 35.6934C57.2754 37.207 57.9102 38.1836 59.5703 38.1836L70.5566 38.1836L62.207 58.252C61.8652 59.1309 62.0605 59.8145 62.6465 60.0586C63.2324 60.3027 63.916 60.1074 64.5996 59.4238L93.9941 30.9082C95.3125 29.5898 94.8242 27.7832 92.9688 27.7832Z"/>
  </g>
  <g id="Semibold-L" transform="matrix(1 0 0 1 1954.81 1556)">
   <path d="M38.916 4.83398L107.666 4.83398C126.318 4.83398 140.869-9.375 140.869-27.5879C140.869-27.8809 140.869-28.1738 140.869-28.4668C161.816-28.8086 175.342-41.2109 179.883-54.3457C181.836-59.6191 179.199-64.1602 174.121-64.1602C170.068-64.1602 166.553-62.2559 159.619-62.2559C144.141-62.2559 135.938-70.8984 135.938-85.498C135.938-93.1641 138.33-97.2168 138.33-100.684C138.33-105.957 133.74-108.496 128.271-106.689C114.6-102.393 102.246-87.9883 102.246-69.9219C102.246-69.043 102.295-68.1641 102.344-67.2852C94.6289-76.709 83.5938-82.1777 70.5078-82.1777C49.4141-82.1777 31.8848-66.1621 29.3945-45.1172C18.6035-41.748 11.2793-32.5195 11.2793-20.7031C11.2793-5.95703 22.4609 4.83398 38.916 4.83398ZM112.158-70.0684C112.158-82.5195 119.775-91.8945 127.881-96.1914L128.516-95.7031C127.441-92.6758 126.416-88.2812 126.416-83.1543C126.416-65.2832 139.111-52.7832 157.422-52.7832C162.061-52.7832 166.162-53.6133 169.141-54.6387L169.58-54.1992C165.869-46.6797 155.615-38.2324 138.965-38.5254C135.156-49.0723 125.879-56.8359 113.965-59.1309C112.793-62.5488 112.158-66.2598 112.158-70.0684ZM38.916-6.54297C28.2715-6.54297 22.6074-12.5977 22.6074-20.5078C22.6074-27.3438 26.8555-33.0078 36.0352-35.498C39.0625-36.2793 40.0391-37.6465 40.3809-40.7227C42.1875-58.6914 55.0293-70.8496 70.5078-70.8496C82.7148-70.8496 92.2363-63.916 98.1445-52.2949C99.5117-49.6582 101.025-48.7305 104.199-48.7305C120.459-48.7305 129.492-39.1113 129.492-27.3438C129.492-15.7227 120.215-6.54297 107.617-6.54297ZM91.2109 27.0996L78.418 27.0996L84.1797 16.2109C84.9121 14.8438 84.3262 13.7695 82.9102 13.7695L69.4336 13.7695C67.6758 13.7695 67.041 14.4531 66.5039 15.7227L58.3008 34.375C57.666 35.8887 58.3496 36.8652 59.9609 36.8652L70.5566 36.8652L62.3535 56.6406C62.0117 57.5195 62.207 58.1543 62.793 58.3984C63.3789 58.6426 64.1113 58.4961 64.7461 57.7637L92.2363 30.1758C93.5547 28.8574 93.0176 27.0996 91.2109 27.0996Z"/>
  </g>
  <g id="Medium-L" transform="matrix(1 0 0 1 1658.79 1556)">
   <path d="M38.2324 4.05273L106.836 4.05273C125.195 4.05273 139.453-9.86328 139.453-27.6855C139.453-27.9785 139.453-28.2715 139.453-28.5645C160.596-29.0039 173.633-41.6992 177.832-54.0039C179.639-58.8379 177.148-63.0371 172.461-63.0371C168.652-63.0371 165.137-61.1816 158.203-61.1816C142.48-61.1816 133.984-70.1172 133.984-84.7168C133.984-92.3828 136.377-96.2402 136.377-99.6582C136.377-104.639 132.08-107.031 126.855-105.322C113.818-101.27 101.416-87.3047 101.416-69.1895C101.416-68.2617 101.416-67.3828 101.514-66.4551C93.8477-76.0254 82.8613-81.6406 69.8242-81.6406C48.9258-81.6406 31.543-65.5762 29.248-44.7266C18.6035-41.4551 11.2793-32.373 11.2793-20.7031C11.2793-6.44531 22.0703 4.05273 38.2324 4.05273ZM110.449-69.3848C110.449-82.3242 118.604-91.6992 126.758-95.8008L127.393-95.3613C126.27-92.2852 125.195-87.8906 125.195-82.7637C125.195-64.9414 137.988-52.4902 156.25-52.4902C160.84-52.4902 165.088-53.3203 168.164-54.3945L168.555-53.9551C165.088-46.5332 154.883-37.5 137.891-37.6465C134.229-48.584 124.561-56.5918 112.158-58.6914C111.035-62.0605 110.449-65.6738 110.449-69.3848ZM38.1836-6.10352C27.2461-6.10352 21.3867-12.4023 21.3867-20.5078C21.3867-27.5391 25.7324-33.3984 35.0098-35.9375C37.9395-36.6699 38.916-37.9883 39.209-40.918C40.8203-58.8867 54.0039-71.5332 69.8242-71.5332C82.373-71.5332 91.9922-64.4043 97.9004-52.7344C99.2188-50.1953 100.684-49.3164 103.711-49.3164C119.922-49.3164 129.346-39.4531 129.346-27.4414C129.346-15.5762 119.678-6.10352 106.885-6.10352ZM89.8926 26.5625L77.4414 26.5625L83.3496 15.4785C84.082 14.1113 83.4961 13.0371 82.0801 13.0371L69.5801 13.0371C67.8223 13.0371 67.2363 13.6719 66.6504 14.9902L58.5938 33.3496C57.959 34.9121 58.6426 35.8398 60.2539 35.8398L70.6055 35.8398L62.5 55.4199C62.1094 56.25 62.3047 56.9336 62.9395 57.1777C63.5254 57.4219 64.209 57.2266 64.8438 56.543L90.918 29.5898C92.1875 28.2715 91.6992 26.5625 89.8926 26.5625Z"/>
  </g>
  <g id="Regular-L" transform="matrix(1 0 0 1 1362.95 1556)">
   <path d="M37.3535 3.07617L105.811 3.07617C123.73 3.07617 137.646-10.498 137.646-27.8809C137.646-28.125 137.646-28.418 137.646-28.6621C159.033-29.248 171.436-42.334 175.195-53.5645C176.807-57.8613 174.512-61.6211 170.312-61.6211C166.797-61.6211 163.33-59.8145 156.396-59.8145C140.234-59.8145 131.348-69.043 131.348-83.6914C131.348-91.3574 133.838-94.9707 133.838-98.3398C133.838-102.881 129.98-105.078 125.098-103.516C112.793-99.8047 100.293-86.4258 100.293-68.2617C100.293-67.2852 100.342-66.3574 100.391-65.3809C92.8223-75.1465 81.8359-80.957 68.8965-80.957C48.291-80.957 31.1035-64.8438 29.1016-44.1895C18.6523-41.0645 11.2793-32.1777 11.2793-20.7031C11.2793-7.03125 21.582 3.07617 37.3535 3.07617ZM108.203-68.5059C108.203-82.0801 117.041-91.5039 125.293-95.3125L125.879-94.873C124.707-91.8457 123.633-87.4023 123.633-82.2266C123.633-64.4043 136.475-52.1484 154.688-52.1484C159.229-52.1484 163.672-52.9785 166.846-54.0527L167.236-53.6621C164.014-46.3379 153.906-36.5723 136.426-36.5234C133.008-47.9492 122.9-56.25 109.863-58.0566C108.74-61.3281 108.203-64.8438 108.203-68.5059ZM37.1582-5.51758C25.8789-5.51758 19.8242-12.1094 19.8242-20.5078C19.8242-27.7832 24.2676-33.8867 33.6914-36.4746C36.4258-37.207 37.4023-38.4277 37.6465-41.2109C39.0625-59.082 52.6855-72.4121 68.8965-72.4121C81.8848-72.4121 91.6992-65.0391 97.6074-53.2715C98.8281-50.8301 100.195-50.0488 103.076-50.0488C119.287-50.0488 129.102-39.8926 129.102-27.6367C129.102-15.3809 119.043-5.51758 105.957-5.51758ZM88.1836 25.8789L76.2207 25.8789L82.2754 14.502C83.0078 13.1348 82.4219 12.1094 81.0547 12.1094L69.8242 12.1094C68.0664 12.1094 67.4805 12.7441 66.8945 14.0137L58.9844 32.0801C58.3008 33.5938 59.082 34.5703 60.6445 34.5703L70.6543 34.5703L62.6465 53.8086C62.3047 54.6387 62.5 55.3223 63.0859 55.5664C63.6719 55.8105 64.3555 55.6152 64.9902 54.8828L89.209 28.8574C90.4297 27.5391 89.9414 25.8789 88.1836 25.8789Z"/>
  </g>
  <g id="Light-L" transform="matrix(1 0 0 1 1066.71 1556)">
   <path d="M36.5234 3.02734L105.322 3.02734C122.852 3.02734 136.475-10.2051 136.475-27.0508C136.475-27.4414 136.475-27.832 136.475-28.1738C159.424-28.5645 171.436-43.9453 173.828-53.8086C174.854-57.0801 173.047-59.8145 169.873-59.8145C166.748-59.8145 162.793-57.7148 155.42-57.7148C139.209-57.7148 129.834-67.334 129.834-82.0801C129.834-90.4785 132.568-93.7012 132.568-96.9238C132.568-100.488 129.59-102.197 125.635-101.074C114.697-98.3398 100.684-86.1328 100.684-66.9922C100.684-65.3809 100.781-63.7695 100.977-62.1582C93.457-72.9492 82.2754-79.6387 68.4082-79.6387C48.1445-79.6387 31.3477-63.5254 29.4434-42.9199C18.9941-39.9414 11.2793-31.4453 11.2793-19.9219C11.2793-6.93359 21.0449 3.02734 36.5234 3.02734ZM106.787-67.1875C106.787-82.7637 117.822-92.041 126.025-94.8242L126.416-94.4824C125.098-91.4551 123.877-86.8164 123.877-81.1523C123.877-63.7695 136.23-51.7578 154.395-51.7578C158.936-51.7578 163.818-52.6367 167.383-53.9062L167.725-53.6133C165.43-46.4355 155.176-34.2285 135.596-34.2773C132.568-46.1914 122.119-54.8828 108.496-56.543C107.324-59.8633 106.787-63.4766 106.787-67.1875ZM36.4258-3.41797C24.3652-3.41797 17.7246-10.6934 17.7246-19.7754C17.7246-27.8809 22.998-34.2773 32.5684-37.0117C34.9121-37.6465 35.6934-38.623 35.8398-40.8203C37.207-59.0332 51.6113-73.1445 68.4082-73.1445C82.4707-73.1445 92.7246-64.9902 98.6328-53.1738C99.6582-51.123 100.83-50.4395 103.271-50.4395C119.336-50.4395 130.029-39.8926 130.029-26.8555C130.029-13.916 119.287-3.41797 105.371-3.41797ZM85.4492 26.6113L74.3164 26.6113L80.7129 14.5996C81.4453 13.2324 80.9082 12.207 79.4922 12.207L70.9473 12.207C69.1406 12.207 68.5059 12.8418 67.9688 14.1113L60.2051 31.8359C59.5215 33.4473 60.3516 34.375 61.9141 34.375L71.1914 34.375L63.2812 53.2227C62.9395 54.1504 63.1348 54.834 63.7695 55.0781C64.3555 55.3223 65.0879 55.127 65.7227 54.2969L86.6699 29.5898C87.7441 28.1738 87.207 26.6113 85.4492 26.6113Z"/>
  </g>
  <g id="Thin-L" transform="matrix(1 0 0 1 770.607 1556)">
   <path d="M35.4492 3.02734L104.639 3.02734C121.68 3.02734 134.961-9.81445 134.961-25.9766C134.961-26.5137 134.912-27.0508 134.912-27.5391C160.059-27.4414 171.582-46.2402 172.07-54.1504C172.314-56.0547 171.094-57.373 169.287-57.373C166.65-57.373 162.012-54.8828 154.199-54.8828C137.891-54.8828 127.832-65.1367 127.832-79.9316C127.832-89.3066 130.908-91.9922 130.908-94.9707C130.908-97.3633 129.053-98.3398 126.318-97.9004C117.236-96.4355 101.221-85.791 101.221-65.332C101.221-62.5 101.514-59.668 102.148-56.8848C94.7754-69.5801 83.252-77.8809 67.7246-77.8809C47.998-77.8809 31.6895-61.7188 29.8828-41.2109C19.4824-38.4766 11.2793-30.3711 11.2793-18.8477C11.2793-6.83594 20.3613 3.02734 35.4492 3.02734ZM104.883-65.4785C104.883-83.6914 118.848-92.7246 126.953-94.2383L127.197-93.9453C125.635-90.9668 124.17-85.9863 124.17-79.7363C124.17-62.9395 135.938-51.2695 153.955-51.2695C158.594-51.2695 164.014-52.1973 168.115-53.6621L168.408-53.5645C167.383-46.582 157.031-30.9082 134.473-31.25C132.031-43.8965 121.045-53.1738 106.592-54.4434C105.469-57.959 104.883-61.6699 104.883-65.4785ZM35.4004-0.683594C22.3145-0.683594 14.9902-8.83789 14.9902-18.7988C14.9902-27.9785 21.2891-34.8145 31.1035-37.7441C32.8613-38.2324 33.3984-38.916 33.4961-40.3809C34.7656-58.9844 50.1465-74.1699 67.7246-74.1699C83.252-74.1699 94.043-64.8926 100-53.0762C100.781-51.5137 101.66-50.9766 103.516-50.9766C119.385-50.9766 131.25-39.8438 131.25-25.8301C131.25-11.9629 119.58-0.683594 104.639-0.683594ZM81.8359 27.5879L71.8262 27.5879L78.7109 14.7949C79.4434 13.4277 78.8574 12.3047 77.4414 12.3047L72.4121 12.3047C70.5566 12.3047 69.9219 12.9395 69.3359 14.3066L61.8164 31.543C61.084 33.2031 62.1094 34.1309 63.623 34.1309L71.875 34.1309L64.1602 52.4902C63.7695 53.4668 64.0137 54.1504 64.6484 54.3945C65.2832 54.6387 66.0645 54.4434 66.6504 53.5645L83.252 30.5176C84.2285 29.0527 83.6426 27.5879 81.8359 27.5879Z"/>
  </g>
  <g id="Ultralight-L" transform="matrix(1 0 0 1 474.213 1556)">
   <path d="M34.8633 3.02734L104.297 3.02734C121.045 3.02734 134.18-9.61914 134.18-25.4395C134.18-26.0254 134.131-26.6113 134.082-27.1973C160.352-26.6602 171.68-47.4121 171.191-54.3457C170.996-55.5176 170.117-56.1523 168.994-56.1523C166.602-56.1523 161.621-53.4668 153.516-53.4668C137.207-53.4668 126.807-64.0137 126.807-78.8086C126.807-88.7207 130.029-91.1621 130.029-93.9941C130.029-95.752 128.809-96.3867 126.66-96.2402C118.506-95.4102 101.465-85.5957 101.465-64.4531C101.465-60.7422 102.051-57.0312 103.076-53.4668L102.979-53.4668C95.752-67.4805 84.0332-76.9531 67.3828-76.9531C47.9004-76.9531 31.8359-60.791 30.127-40.332C19.7266-37.7441 11.2793-29.8828 11.2793-18.2617C11.2793-6.78711 20.0195 3.02734 34.8633 3.02734ZM103.906-64.5996C103.906-84.1309 119.336-93.1152 127.441-93.8965L127.588-93.7012C125.928-90.7227 124.316-85.5957 124.316-79.0039C124.316-62.5 135.742-50.9766 153.76-50.9766C158.447-50.9766 164.111-51.9531 168.506-53.5645L168.701-53.5156C168.408-46.6797 157.959-29.1504 133.838-29.6875C131.787-42.7246 120.459-52.2949 105.566-53.3691C104.443-56.9824 103.906-60.7422 103.906-64.5996ZM34.9121 0.732422C21.2891 0.732422 13.5742-7.86133 13.5742-18.3105C13.5742-28.0762 20.4102-35.0586 30.3711-38.0859C31.8359-38.5742 32.2266-39.0137 32.3242-40.1367C33.4961-58.9844 49.4141-74.6582 67.3828-74.6582C83.6914-74.6582 94.7266-64.8438 100.684-53.0273C101.367-51.709 102.1-51.2695 103.662-51.2695C119.434-51.2695 131.885-39.8438 131.885-25.293C131.885-10.9863 119.727 0.732422 104.297 0.732422ZM80.0293 28.125L70.5078 28.125L77.6855 14.8926C78.3691 13.5254 77.832 12.3535 76.3672 12.3535L73.1445 12.3535C71.2891 12.3535 70.6543 12.9883 70.0684 14.4043L62.6465 31.3965C61.9141 33.1055 62.9883 33.9844 64.502 33.9844L72.2168 33.9844L64.6484 52.1484C64.209 53.125 64.4531 53.8574 65.1367 54.0527C65.7715 54.2969 66.6016 54.0527 67.1387 53.1738L81.4941 31.0059C82.4219 29.541 81.7871 28.125 80.0293 28.125Z"/>
  </g>
  <g id="Black-M" transform="matrix(1 0 0 1 2860.94 1126)">
   <path d="M33.8867 0.488281L88.0859 0.488281C104.395 0.488281 117.09-12.0117 117.09-28.0762C117.09-28.4668 117.041-28.8574 117.041-29.1992C132.715-28.6621 146.191-37.6465 151.123-52.2949C153.174-58.3496 150.635-63.3789 144.775-63.3789C140.527-63.3789 137.207-61.5234 131.738-61.5234C121.533-61.5234 116.699-66.9922 116.699-78.0762C116.699-84.4238 118.555-88.623 118.555-91.3574C118.555-96.9727 113.428-99.6582 108.057-97.8516C94.6289-93.3594 84.6191-80.1758 84.6191-65.8203C84.6191-65.0391 84.6191-64.3066 84.668-63.5254C78.418-70.459 69.6289-74.0723 58.7402-74.0723C41.3086-74.0723 26.9531-61.9629 23.7305-44.6289C14.5508-41.6504 8.74023-33.4961 8.74023-23.4375C8.74023-9.61914 19.4336 0.488281 33.8867 0.488281ZM113.77-41.9922L113.77-41.8945C110.645-47.998 105.371-52.6855 98.877-55.1758C97.4121-58.3984 96.7285-62.0117 96.7285-65.8203C96.7285-73.3887 100.439-80.4199 106.348-84.5703L106.982-84.1797C106.201-81.7383 105.469-78.3691 105.469-74.3652C105.469-60.5469 114.648-50.2441 129.053-50.2441C133.057-50.2441 135.498-51.0742 137.5-51.7578L137.939-51.3184C134.131-44.9219 125.537-40.8203 113.77-41.9922ZM34.4727-14.6484C27.3438-14.6484 23.877-18.1641 23.877-23.3398C23.877-28.0762 27.002-31.3477 33.5449-33.0078C36.4746-33.7891 37.1582-35.0586 37.6465-37.9883C40.1367-52.3438 48.2422-59.0332 58.7402-59.0332C66.6504-59.0332 73.3887-54.3457 78.125-45.752C79.4434-43.4082 80.7617-42.5293 83.7402-42.5293C96.5332-42.5293 101.953-36.1816 101.953-27.9297C101.953-20.3125 96.4844-14.6484 87.5-14.6484ZM77.3926 16.748L65.5762 16.748L69.4336 9.27734C70.0195 8.20312 69.5801 7.32422 68.457 7.32422L53.3691 7.32422C51.9531 7.32422 51.416 7.8125 50.9766 8.88672L44.043 24.707C43.5547 25.8789 43.9941 26.6602 45.3125 26.6602L54.834 26.6602L47.998 43.2129C47.7051 43.8965 47.8516 44.4824 48.291 44.6777C48.7305 44.873 49.3164 44.7266 49.8535 44.2383L78.1738 19.2871C79.3457 18.3105 78.9062 16.748 77.3926 16.748Z"/>
  </g>
  <g id="Heavy-M" transform="matrix(1 0 0 1 2565.38 1126)">
   <path d="M32.8125-0.927734L86.7188-0.927734C102.49-0.927734 114.795-13.0371 114.795-28.5645C114.795-28.8574 114.746-29.1992 114.746-29.4922C130.518-29.1992 143.066-38.2324 147.656-51.5625C149.609-57.1289 147.168-61.8164 141.846-61.8164C137.891-61.8164 134.766-60.1074 129.395-60.1074C118.652-60.1074 113.379-65.918 113.379-77.0508C113.379-83.2031 115.234-87.1094 115.234-89.8438C115.234-95.1172 110.498-97.6074 105.371-95.8984C92.6758-91.6504 82.9102-79.0039 82.9102-64.7949C82.9102-64.1113 82.959-63.4277 82.959-62.793C76.8066-69.7266 68.1152-73.4375 57.5684-73.4375C40.3809-73.4375 26.2207-61.2793 23.3887-44.2383C14.4531-41.3086 8.74023-33.4473 8.74023-23.6816C8.74023-10.498 18.8477-0.927734 32.8125-0.927734ZM93.8477-64.8438C93.8477-72.9004 98.0469-79.9805 104.053-83.9355L104.688-83.5938C103.906-81.1523 103.174-77.832 103.174-73.877C103.174-60.0098 112.598-49.8535 126.953-49.8535C130.811-49.8535 133.447-50.6348 135.498-51.3184L135.889-50.8789C132.324-44.6777 123.926-39.9902 112.012-40.918C108.789-47.6074 102.979-52.6855 95.752-54.9805C94.4824-58.0078 93.8477-61.3281 93.8477-64.8438ZM33.2031-14.3066C25.8301-14.3066 22.168-18.1641 22.168-23.5352C22.168-28.3691 25.2441-31.9824 31.9336-33.6914C34.7656-34.4238 35.4492-35.6934 35.8887-38.4766C38.0371-52.6855 46.6309-60.1074 57.5684-60.1074C65.8203-60.1074 72.7051-55.3223 77.3926-46.582C78.6621-44.2871 79.9316-43.457 82.8125-43.457C95.5566-43.457 101.416-36.8164 101.416-28.3691C101.416-20.4102 95.4102-14.3066 86.2793-14.3066ZM75.6348 15.5273L64.3066 15.5273L68.3105 7.8125C68.8965 6.78711 68.457 5.9082 67.334 5.9082L53.3691 5.9082C52.002 5.9082 51.5137 6.44531 51.0742 7.4707L44.2871 22.9004C43.7988 24.0723 44.2383 24.8535 45.5566 24.8535L54.7363 24.8535L48.0469 41.0645C47.7539 41.748 47.9004 42.2852 48.3398 42.4805C48.7793 42.6758 49.3652 42.5293 49.9023 42.041L76.3672 18.0664C77.5391 17.041 77.0996 15.5273 75.6348 15.5273Z"/>
  </g>
  <g id="Bold-M" transform="matrix(1 0 0 1 2269.96 1126)">
   <path d="M31.6406-2.53906L85.1562-2.53906C100.391-2.53906 112.207-14.1113 112.207-29.0527C112.207-29.2969 112.207-29.541 112.207-29.7852C127.979-29.834 139.551-38.8184 143.848-50.7812C145.654-55.7617 143.359-60.0586 138.525-60.0586C134.912-60.0586 132.08-58.4961 126.758-58.4961C115.381-58.4961 109.668-64.6973 109.668-75.8789C109.668-81.8359 111.523-85.4492 111.523-88.1836C111.523-92.9688 107.178-95.3125 102.344-93.7012C90.4785-89.7461 81.0547-77.6367 81.0547-63.6719C81.0547-63.0859 81.0547-62.5 81.1035-61.9141C75.0488-68.8965 66.4551-72.7539 56.2012-72.7539C39.4043-72.7539 25.4395-60.4492 23.0469-43.75C14.4043-41.0156 8.74023-33.3984 8.74023-23.9258C8.74023-11.5234 18.2129-2.53906 31.6406-2.53906ZM90.6738-63.7695C90.6738-72.2656 95.3613-79.4922 101.514-83.3008L102.1-82.9102C101.318-80.5176 100.586-77.1973 100.586-73.291C100.586-59.375 110.303-49.4141 124.561-49.4141C128.32-49.4141 131.104-50.0977 133.252-50.8301L133.643-50.4395C130.273-44.3848 122.119-39.1602 110.059-39.6973C106.885-47.0703 100.439-52.5879 92.2852-54.6875C91.2109-57.4707 90.6738-60.5469 90.6738-63.7695ZM31.8359-14.0137C24.1699-14.0137 20.2148-18.1641 20.2148-23.7793C20.2148-28.7109 23.291-32.666 30.127-34.4727C32.8125-35.1562 33.5449-36.3281 33.9355-39.0137C35.6934-53.0762 44.873-61.3281 56.2012-61.3281C64.8926-61.3281 71.9238-56.3965 76.5625-47.5098C77.7832-45.3125 79.0039-44.4824 81.7383-44.4824C94.4824-44.4824 100.732-37.5488 100.732-28.8574C100.732-20.5078 94.2871-14.0137 84.9609-14.0137ZM73.6328 14.209L62.8418 14.209L67.041 6.25C67.627 5.17578 67.1875 4.3457 66.0645 4.3457L53.418 4.3457C52.0508 4.3457 51.5625 4.83398 51.123 5.85938L44.5312 20.8496C44.043 22.0215 44.5312 22.8027 45.8008 22.8027L54.6387 22.8027L48.0957 38.6719C47.8027 39.3066 47.9492 39.8438 48.3887 40.0391C48.8281 40.2344 49.3652 40.0879 49.9023 39.5996L74.3652 16.6504C75.4883 15.6738 75.0977 14.209 73.6328 14.209Z"/>
  </g>
  <g id="Semibold-M" transform="matrix(1 0 0 1 1974.13 1126)">
   <path d="M30.8594-3.61328L84.1309-3.61328C98.9258-3.61328 110.449-14.8926 110.449-29.3945C110.449-29.5898 110.449-29.834 110.449-30.0293C126.221-30.2246 137.109-39.209 141.162-50.2441C142.92-54.834 140.674-58.8379 136.23-58.8379C132.861-58.8379 130.176-57.4219 124.902-57.4219C113.184-57.4219 107.129-63.8672 107.129-75.0977C107.129-80.8594 108.936-84.2773 108.936-87.0117C108.936-91.5527 104.932-93.75 100.293-92.1875C88.9648-88.4277 79.7852-76.709 79.7852-62.9395C79.7852-62.3535 79.7852-61.8164 79.7852-61.2793C73.7793-68.3105 65.2832-72.2656 55.2734-72.2656C38.6719-72.2656 24.9023-59.9121 22.8027-43.457C14.3066-40.7715 8.74023-33.3984 8.74023-24.1211C8.74023-12.207 17.7734-3.61328 30.8594-3.61328ZM88.4766-63.0371C88.4766-71.875 93.5059-79.1504 99.7559-82.8613L100.342-82.4707C99.5605-80.0781 98.7793-76.7578 98.7793-72.9004C98.7793-58.9844 108.691-49.1211 122.949-49.1211C126.562-49.1211 129.541-49.7559 131.689-50.4883L132.08-50.0977C128.857-44.1895 120.85-38.5742 108.643-38.8672C105.566-46.7285 98.6816-52.4902 89.9414-54.3945C88.9648-57.0801 88.4766-60.0098 88.4766-63.0371ZM30.9082-13.7695C22.998-13.7695 18.8965-18.1641 18.8965-23.9746C18.8965-29.0039 21.9238-33.1543 28.9062-35.0098C31.4453-35.6445 32.2754-36.8164 32.5684-39.4043C34.1309-53.3203 43.6035-62.1582 55.2734-62.1582C64.2578-62.1582 71.3867-57.1289 76.0254-48.1445C77.1484-45.9961 78.418-45.2148 81.0547-45.2148C93.7012-45.2148 100.293-38.0371 100.293-29.1992C100.293-20.5566 93.5059-13.7695 84.0332-13.7695ZM72.2656 13.3301L61.8652 13.3301L66.1621 5.12695C66.748 4.10156 66.3086 3.27148 65.1855 3.27148L53.418 3.27148C52.0508 3.27148 51.6113 3.75977 51.1719 4.78516L44.7266 19.4824C44.1895 20.6543 44.6777 21.3867 45.9473 21.3867L54.541 21.3867L48.0957 36.9629C47.8516 37.6465 47.998 38.1836 48.4375 38.3789C48.877 38.5254 49.4141 38.4277 49.9023 37.8906L72.998 15.7227C74.0723 14.6973 73.6816 13.3301 72.2656 13.3301Z"/>
  </g>
  <g id="Medium-M" transform="matrix(1 0 0 1 1678.07 1126)">
   <path d="M30.2246-4.44336L83.3008-4.44336C97.8516-4.44336 109.082-15.4785 109.082-29.6387C109.082-29.834 109.082-30.0293 109.082-30.1758C124.902-30.5176 135.303-39.502 139.16-49.8047C140.869-54.1504 138.672-57.9102 134.521-57.9102C131.299-57.9102 128.76-56.543 123.535-56.543C111.475-56.543 105.225-63.2324 105.225-74.5117C105.225-80.1758 106.982-83.3984 106.982-86.1328C106.982-90.4297 103.174-92.5293 98.6816-91.0156C87.793-87.4023 78.8086-75.9766 78.8086-62.3047C78.8086-61.8164 78.8086-61.3281 78.8086-60.8398C72.8516-67.8711 64.4043-71.9238 54.5898-71.9238C38.1836-71.9238 24.5117-59.5215 22.6074-43.2129C14.3066-40.5762 8.74023-33.3496 8.74023-24.2676C8.74023-12.7441 17.4316-4.44336 30.2246-4.44336ZM86.8164-62.4512C86.8164-71.582 92.0898-78.8574 98.4375-82.4707L98.9746-82.1289C98.1934-79.7363 97.4609-76.416 97.4609-72.6074C97.4609-58.6426 107.471-48.877 121.68-48.877C125.244-48.877 128.32-49.5117 130.518-50.2441L130.859-49.8535C127.734-44.043 119.873-38.1348 107.568-38.2812C104.59-46.4355 97.3633-52.3926 88.1836-54.1504C87.3047-56.7383 86.8164-59.5703 86.8164-62.4512ZM30.1758-13.5742C22.1191-13.5742 17.8711-18.1641 17.8711-24.0723C17.8711-29.1504 20.8984-33.4961 27.9785-35.4004C30.4199-36.0352 31.25-37.1582 31.543-39.6973C32.9102-53.5156 42.6758-62.793 54.5898-62.793C63.7695-62.793 70.9961-57.666 75.5859-48.6328C76.709-46.4844 77.9297-45.752 80.5176-45.752C93.1641-45.752 99.9512-38.3789 99.9512-29.4434C99.9512-20.6055 92.8711-13.5742 83.3496-13.5742ZM71.2402 12.5977L61.1328 12.5977L65.4785 4.29688C66.0645 3.27148 65.625 2.44141 64.5508 2.44141L53.4668 2.44141C52.0996 2.44141 51.6602 2.97852 51.2207 3.95508L44.8242 18.4082C44.3359 19.5801 44.8242 20.3613 46.0938 20.3613L54.4922 20.3613L48.1445 35.7422C47.8516 36.377 47.998 36.9141 48.4375 37.1094C48.9258 37.2559 49.4141 37.1582 49.9512 36.6211L71.9727 14.9902C72.998 13.9648 72.6074 12.5977 71.2402 12.5977Z"/>
  </g>
  <g id="Regular-M" transform="matrix(1 0 0 1 1382.24 1126)">
   <path d="M29.4434-5.56641L82.2754-5.56641C96.3867-5.56641 107.324-16.2109 107.324-29.9805C107.324-30.127 107.324-30.2734 107.324-30.4199C123.096-30.957 132.91-39.8926 136.523-49.2676C138.135-53.2227 136.084-56.7383 132.275-56.7383C129.297-56.7383 126.904-55.4688 121.729-55.4688C109.277-55.4688 102.686-62.4023 102.686-73.7305C102.686-79.248 104.443-82.2754 104.443-85.0098C104.443-89.0137 100.928-90.9668 96.6309-89.502C86.3281-86.084 77.5391-75.0488 77.5391-61.5723C77.5391-61.1328 77.5391-60.6934 77.5391-60.2539C71.6309-67.2852 63.2324-71.4355 53.6621-71.4355C37.5-71.4355 23.9746-58.9355 22.3633-42.9199C14.209-40.3809 8.74023-33.3008 8.74023-24.4629C8.74023-13.4277 16.9922-5.56641 29.4434-5.56641ZM84.668-61.7188C84.668-71.1426 90.2832-78.5156 96.7285-82.0312L97.2168-81.6406C96.4355-79.2969 95.6543-76.0254 95.6543-72.2656C95.6543-58.2031 105.908-48.584 120.068-48.584C123.535-48.584 126.758-49.1699 129.004-49.9023L129.346-49.5605C126.318-43.8477 118.555-37.5488 106.152-37.5C103.32-46.0938 95.7031-52.2949 85.8887-53.8086C85.0586-56.2988 84.668-58.9844 84.668-61.7188ZM29.248-13.3789C20.9473-13.3789 16.5527-18.1152 16.5527-24.2676C16.5527-29.3945 19.5801-33.9844 26.7578-35.8887C29.1016-36.5234 29.9805-37.5977 30.1758-40.0391C31.2988-53.7598 41.4551-63.623 53.6621-63.623C63.1348-63.623 70.5078-58.3984 75.0488-49.2676C76.0742-47.168 77.2949-46.4844 79.7852-46.4844C92.3828-46.4844 99.5117-38.8672 99.5117-29.7852C99.5117-20.6543 92.0898-13.3789 82.4219-13.3789ZM69.873 11.7188L60.1562 11.7188L64.6484 3.22266C65.1855 2.14844 64.7461 1.36719 63.6719 1.36719L53.4668 1.36719C52.1484 1.36719 51.709 1.9043 51.2695 2.83203L45.0195 17.041C44.4824 18.2129 45.0195 18.9453 46.2402 18.9453L54.4434 18.9453L48.1445 34.082C47.9004 34.7168 48.0469 35.2539 48.4863 35.4004C48.9258 35.5957 49.4629 35.4492 49.9512 34.9121L70.6055 14.0625C71.582 13.0371 71.2402 11.7188 69.873 11.7188Z"/>
  </g>
  <g id="Light-M" transform="matrix(1 0 0 1 1085.95 1126)">
   <path d="M28.6621-5.56641L81.8359-5.56641C95.6055-5.56641 106.299-15.9668 106.299-29.248C106.299-29.4922 106.299-29.7363 106.299-29.9805C123.389-30.4199 132.861-41.2598 135.303-49.5117C136.377-52.4902 134.717-55.0781 131.836-55.0781C129.248-55.0781 126.416-53.5645 120.85-53.5645C108.35-53.5645 101.318-60.8887 101.318-72.2656C101.318-78.418 103.271-81.1035 103.271-83.6914C103.271-86.8652 100.586-88.3789 97.1191-87.3535C88.0371-84.8145 77.832-74.8047 77.832-60.4004C77.832-59.4727 77.8809-58.5449 77.9785-57.5684C72.1191-65.4785 63.5254-70.2148 53.2227-70.2148C37.3535-70.2148 24.2188-57.7637 22.6562-41.748C14.5508-39.3555 8.74023-32.6172 8.74023-23.7305C8.74023-13.3789 16.5527-5.56641 28.6621-5.56641ZM83.3984-60.5957C83.3984-71.7773 90.9668-79.0039 97.3633-81.6406L97.7051-81.2988C96.7773-78.9551 95.8984-75.4395 95.8984-71.2891C95.8984-57.6172 105.664-48.1934 119.775-48.1934C123.291-48.1934 126.904-48.877 129.492-49.7559L129.785-49.5117C127.588-43.8965 119.678-35.498 105.469-35.498C102.93-44.5312 94.9707-51.0742 84.668-52.4414C83.7891-54.9805 83.3984-57.7148 83.3984-60.5957ZM28.5645-11.5234C19.5801-11.5234 14.6973-16.8457 14.6973-23.584C14.6973-29.4922 18.4082-34.3262 25.7324-36.377C27.7344-36.9141 28.418-37.793 28.5645-39.7461C29.6387-53.7109 40.4785-64.3066 53.2227-64.3066C63.6719-64.3066 71.3867-58.3008 75.9766-49.2188C76.8555-47.4121 77.8809-46.8262 79.9316-46.8262C92.4316-46.8262 100.342-38.8672 100.342-29.0527C100.342-19.3359 92.334-11.5234 81.9336-11.5234ZM67.4316 12.3535L58.4473 12.3535L63.2324 3.32031C63.8184 2.29492 63.3789 1.46484 62.3047 1.46484L54.4922 1.46484C53.125 1.46484 52.6367 1.95312 52.1973 2.97852L46.0938 16.8457C45.6055 18.0664 46.1914 18.7988 47.4121 18.7988L54.9316 18.7988L48.7793 33.5938C48.4863 34.2773 48.6328 34.7656 49.1211 34.9609C49.5605 35.1562 50.1465 35.0098 50.5859 34.4238L68.3105 14.6973C69.1895 13.623 68.7988 12.3535 67.4316 12.3535Z"/>
  </g>
  <g id="Thin-M" transform="matrix(1 0 0 1 789.796 1126)">
   <path d="M27.6855-5.56641L81.25-5.56641C94.5312-5.56641 104.932-15.625 104.932-28.3203C104.932-28.6621 104.932-29.0527 104.883-29.3945C123.877-29.4922 132.91-43.2617 133.74-49.8047C134.082-51.5625 133.008-52.9297 131.299-52.9297C129.15-52.9297 125.684-51.0742 119.727-51.0742C107.129-51.0742 99.4629-58.8867 99.4629-70.3125C99.4629-77.3926 101.758-79.5898 101.758-81.9336C101.758-84.082 100.098-84.9609 97.7051-84.4727C90.2832-83.0566 78.2715-74.5117 78.2715-58.8867C78.2715-57.0312 78.4668-55.1758 78.8086-53.3691C73.0957-62.6953 64.2578-68.6523 52.6367-68.6523C37.207-68.6523 24.4629-56.1523 23.0469-40.2344C14.9902-38.0371 8.74023-31.6895 8.74023-22.7539C8.74023-13.2324 15.918-5.56641 27.6855-5.56641ZM81.6895-59.0332C81.6895-72.6074 91.8457-79.6387 98.1934-81.0547L98.3887-80.8594C97.2168-78.5156 96.1426-74.7559 96.1426-70.0195C96.1426-56.8848 105.371-47.7539 119.385-47.7539C122.949-47.7539 127.051-48.4863 130.127-49.5605L130.322-49.4629C129.297-43.9941 121.289-32.6172 104.443-32.8125C102.441-42.4316 94.043-49.5117 83.0078-50.5859C82.1289-53.2715 81.6895-56.1035 81.6895-59.0332ZM27.6367-9.0332C17.7246-9.0332 12.207-15.1855 12.207-22.7051C12.207-29.5898 16.8457-34.8145 24.4141-37.0117C25.9277-37.4512 26.3672-38.0371 26.4648-39.3066C27.4414-53.6621 39.209-65.1855 52.6367-65.1855C64.3555-65.1855 72.6074-58.252 77.1973-49.0723C77.8809-47.7539 78.6133-47.3145 80.1758-47.3145C92.5293-47.3145 101.465-38.8184 101.465-28.1738C101.465-17.627 92.627-9.0332 81.25-9.0332ZM64.209 13.2324L56.2012 13.2324L61.4258 3.51562C62.0117 2.44141 61.5723 1.5625 60.4492 1.5625L55.7617 1.5625C54.3945 1.5625 53.9062 2.09961 53.4668 3.125L47.5586 16.6016C47.0215 17.8711 47.7539 18.5547 48.9746 18.5547L55.5664 18.5547L49.5605 32.9102C49.2676 33.6426 49.4141 34.1797 49.9023 34.375C50.3906 34.5703 51.0254 34.375 51.4648 33.7402L65.2344 15.5273C66.0645 14.4043 65.5762 13.2324 64.209 13.2324Z"/>
  </g>
  <g id="Ultralight-M" transform="matrix(1 0 0 1 493.354 1126)">
   <path d="M27.1973-5.61523L80.957-5.61523C93.9941-5.61523 104.199-15.4297 104.199-27.7832C104.199-28.2227 104.199-28.6621 104.15-29.1016C124.219-28.9062 132.959-44.3359 132.91-50C132.861-51.123 132.08-51.8066 131.006-51.8066C129.102-51.8066 125.342-49.8047 119.141-49.8047C106.494-49.8047 98.5352-57.8613 98.5352-69.3359C98.5352-76.8555 100.977-78.8086 100.977-81.0547C100.977-82.6172 99.8535-83.252 98.0469-83.0078C91.4551-82.1777 78.5156-74.3164 78.5156-58.1543C78.5156-55.5176 78.9062-52.9297 79.541-50.3906C73.9258-60.8887 64.8926-67.8711 52.3438-67.8711C37.1582-67.8711 24.6094-55.3223 23.2422-39.4531C15.2344-37.4023 8.74023-31.25 8.74023-22.2656C8.74023-13.1836 15.625-5.61523 27.1973-5.61523ZM80.8105-58.252C80.8105-72.998 92.334-79.9805 98.584-80.8105L98.7305-80.6152C97.4609-78.3203 96.2891-74.3652 96.2891-69.3848C96.2891-56.4941 105.225-47.5098 119.189-47.5098C122.803-47.5098 127.1-48.291 130.42-49.4629L130.615-49.4141C130.176-44.0918 122.119-31.0547 103.906-31.3965C102.197-41.4062 93.5059-48.7305 82.1289-49.6094C81.2012-52.3926 80.8105-55.2734 80.8105-58.252ZM27.1973-7.8125C16.7969-7.8125 10.9375-14.3066 10.9375-22.2656C10.9375-29.6387 16.0645-35.0098 23.7305-37.3535C25-37.6953 25.3418-38.1348 25.3906-39.1113C26.3184-53.6621 38.5254-65.6738 52.3438-65.6738C64.7461-65.6738 73.2422-58.2031 77.832-49.0234C78.3691-47.9492 79.0039-47.5586 80.2734-47.5586C92.5781-47.5586 102.002-38.8184 102.002-27.6855C102.002-16.748 92.7734-7.8125 80.9082-7.8125ZM62.5488 13.7207L55.0293 13.7207L60.498 3.56445C61.084 2.49023 60.6445 1.66016 59.5215 1.66016L56.4453 1.66016C55.0293 1.66016 54.541 2.14844 54.1016 3.22266L48.291 16.4551C47.7539 17.7734 48.5352 18.457 49.7559 18.457L55.8594 18.457L49.9512 32.5684C49.6582 33.3496 49.8535 33.8867 50.3418 34.082C50.8301 34.2773 51.4648 34.082 51.9043 33.3984L63.6719 15.918C64.4531 14.7949 63.916 13.7207 62.5488 13.7207Z"/>
  </g>
  <g id="Black-S" transform="matrix(1 0 0 1 2876.71 696)">
   <path d="M26.4648-7.37305L68.8965-7.37305C81.6406-7.37305 91.5527-17.1387 91.5527-29.6875C91.5527-29.9805 91.5527-30.2734 91.5527-30.5664C103.809-30.127 114.307-37.1582 118.164-48.5352C119.775-53.2715 117.773-57.1777 113.232-57.1777C109.912-57.1777 107.324-55.7617 103.076-55.7617C95.0195-55.7617 91.2109-60.0586 91.2109-68.75C91.2109-73.6816 92.6758-76.9531 92.6758-79.1016C92.6758-83.4961 88.6719-85.5957 84.4727-84.1797C73.9746-80.6641 66.1621-70.3613 66.1621-59.1309C66.1621-58.5449 66.1621-57.959 66.2109-57.373C61.3281-62.793 54.4434-65.625 45.9473-65.625C32.2754-65.625 21.0449-56.1523 18.5547-42.5781C11.377-40.2344 6.83594-33.8867 6.83594-26.0254C6.83594-15.2344 15.1855-7.37305 26.4648-7.37305ZM75.5859-59.1309C75.5859-65.0879 78.5156-70.6055 83.1543-73.8281L83.6426-73.5352C83.0566-71.6309 82.4707-68.9941 82.4707-65.8691C82.4707-55.0293 89.6973-46.9727 100.977-46.9727C104.102-46.9727 106.006-47.6074 107.568-48.1445L107.91-47.8027C104.932-42.7734 98.1934-39.5508 88.9648-40.4785C86.4746-45.2637 82.373-48.9258 77.2461-50.8301C76.123-53.3691 75.5859-56.1523 75.5859-59.1309ZM26.9043-19.0918C21.3379-19.0918 18.6035-21.875 18.6035-25.9277C18.6035-29.6387 21.0449-32.2266 26.1719-33.5449C28.4668-34.1309 29.0039-35.1562 29.3945-37.4512C31.2988-48.6816 37.6953-53.9551 45.9473-53.9551C52.1484-53.9551 57.4219-50.293 61.1328-43.5547C62.1582-41.6992 63.1836-41.0156 65.5273-41.0156C75.5371-41.0156 79.834-36.0352 79.834-29.541C79.834-23.584 75.4883-19.0918 68.457-19.0918ZM60.5469 5.37109L51.2695 5.37109L54.3457-0.488281C54.7852-1.31836 54.4434-2.00195 53.5645-2.00195L41.7969-2.00195C40.6738-2.00195 40.2832-1.61133 39.9414-0.78125L34.5215 11.5723C34.1309 12.5 34.4727 13.1348 35.498 13.1348L42.9199 13.1348L37.5977 26.0742C37.3535 26.6113 37.5 27.0508 37.8418 27.1973C38.1836 27.3438 38.623 27.2461 39.0625 26.8555L61.1328 7.37305C62.0605 6.5918 61.7188 5.37109 60.5469 5.37109Z"/>
  </g>
  <g id="Heavy-S" transform="matrix(1 0 0 1 2580.83 696)">
   <path d="M25.7324-8.44727L67.9199-8.44727C80.2734-8.44727 89.8926-17.9199 89.8926-30.127C89.8926-30.3223 89.8926-30.5664 89.8926-30.8105C102.1-30.6152 111.914-37.4512 115.674-47.9492C117.236-52.3926 115.283-56.1523 110.986-56.1523C107.861-56.1523 105.518-54.8828 101.367-54.8828C92.9199-54.8828 88.8184-59.375 88.8184-68.1152C88.8184-72.8516 90.2344-75.9277 90.2344-78.0762C90.2344-82.2754 86.4258-84.3262 82.3242-82.9102C72.2656-79.4922 64.8438-69.4824 64.8438-58.4961C64.8438-58.0078 64.8438-57.5195 64.8926-57.0312C60.0586-62.4023 53.2715-65.2832 45.0684-65.2832C31.5918-65.2832 20.5078-55.7617 18.2617-42.3828C11.2793-40.1367 6.83594-33.9355 6.83594-26.2695C6.83594-15.918 14.7949-8.44727 25.7324-8.44727ZM73.5352-58.5449C73.5352-64.5996 76.6113-70.2148 81.3477-73.4375L81.8359-73.0957C81.25-71.2402 80.6641-68.6523 80.6641-65.5762C80.6641-54.6875 88.1348-46.7285 99.3652-46.7285C102.393-46.7285 104.395-47.3145 105.957-47.8516L106.299-47.5098C103.418-42.5781 96.875-39.1602 87.7441-39.8438C85.2051-45.0684 80.6641-49.0234 75-50.8789C74.0234-53.2227 73.5352-55.8105 73.5352-58.5449ZM26.0254-19.0918C20.3125-19.0918 17.4805-22.0215 17.4805-26.1719C17.4805-29.8828 19.8242-32.666 25.0488-34.0332C27.2949-34.5703 27.8809-35.5957 28.2227-37.8418C29.8828-48.9258 36.5723-54.6875 45.0684-54.6875C51.4648-54.6875 56.7871-51.0254 60.498-44.1895C61.4746-42.334 62.5-41.6992 64.7949-41.6992C74.8047-41.6992 79.2969-36.5234 79.2969-29.9316C79.2969-23.7793 74.6582-19.0918 67.5781-19.0918ZM59.4727 4.39453L50.4883 4.39453L53.6133-1.61133C54.0527-2.44141 53.7109-3.07617 52.8809-3.07617L41.6992-3.07617C40.625-3.07617 40.2344-2.68555 39.8926-1.9043L34.5703 10.2051C34.1797 11.1328 34.5215 11.7676 35.5469 11.7676L42.8223 11.7676L37.5488 24.4629C37.3047 25 37.4512 25.4395 37.793 25.5859C38.1348 25.7324 38.5742 25.6348 39.0137 25.2441L60.0098 6.34766C60.9375 5.56641 60.5957 4.39453 59.4727 4.39453Z"/>
  </g>
  <g id="Bold-S" transform="matrix(1 0 0 1 2285.05 696)">
   <path d="M24.9512-9.66797L66.7969-9.66797C78.7598-9.66797 88.0859-18.7988 88.0859-30.5664C88.0859-30.7617 88.0859-30.9082 88.0859-31.1035C100.146-31.1523 109.229-37.7441 112.842-47.3145C114.404-51.4648 112.5-55.0293 108.496-55.0293C105.615-55.0293 103.516-53.9062 99.4141-53.9062C90.5273-53.9062 86.1328-58.6426 86.1328-67.4316C86.1328-71.875 87.5-74.8047 87.5-76.9531C87.5-80.957 83.9355-82.8613 79.9805-81.4941C70.3613-78.1738 63.3789-68.457 63.3789-57.7637C63.3789-57.4219 63.3789-57.0801 63.3789-56.6895C58.5938-62.0117 51.9531-64.8926 44.0918-64.8926C30.8594-64.8926 19.873-55.2734 17.9688-42.1875C11.1816-39.9902 6.83594-33.9844 6.83594-26.5625C6.83594-16.6992 14.3555-9.66797 24.9512-9.66797ZM71.2402-57.8613C71.2402-64.0625 74.4629-69.7754 79.2969-72.9492L79.7852-72.6562C79.1992-70.752 78.6621-68.2129 78.6621-65.2832C78.6621-54.2969 86.377-46.3867 97.6074-46.3867C100.488-46.3867 102.637-46.9727 104.199-47.4609L104.492-47.1191C101.66-42.3828 95.3613-38.7695 86.2793-39.209C83.7891-44.873 78.7598-49.1211 72.4609-50.7812C71.6797-52.9785 71.2402-55.3711 71.2402-57.8613ZM25.0488-19.043C19.1895-19.043 16.2598-22.168 16.2598-26.416C16.2598-30.127 18.457-33.1543 23.7793-34.5215C25.9766-35.1074 26.6113-36.084 26.9043-38.3301C28.3203-49.2188 35.3027-55.5664 44.0918-55.5664C50.6836-55.5664 56.1035-51.8555 59.7168-44.9219C60.6934-43.0664 61.7188-42.4316 63.9648-42.4316C73.9746-42.4316 78.7109-37.0605 78.7109-30.4199C78.7109-24.0234 73.7793-19.043 66.6504-19.043ZM58.252 3.32031L49.6094 3.32031L52.832-2.83203C53.2715-3.66211 52.9297-4.29688 52.0508-4.29688L41.6016-4.29688C40.5273-4.29688 40.1855-3.90625 39.8438-3.125L34.6191 8.69141C34.2285 9.61914 34.5703 10.2051 35.5957 10.2051L42.6758 10.2051L37.5 22.7051C37.3047 23.1934 37.4023 23.6328 37.7441 23.7793C38.1348 23.9258 38.5254 23.8281 38.9648 23.4375L58.7891 5.22461C59.668 4.44336 59.375 3.32031 58.252 3.32031Z"/>
  </g>
  <g id="Semibold-S" transform="matrix(1 0 0 1 1988.99 696)">
   <path d="M24.3652-10.498L66.0156-10.498C77.7344-10.498 86.8164-19.3848 86.8164-30.9082C86.8164-31.0547 86.8164-31.1523 86.8164-31.2988C98.7793-31.4941 107.373-37.9395 110.889-46.875C112.451-50.7812 110.596-54.248 106.787-54.248C104.053-54.248 102.1-53.1738 98.0957-53.1738C88.916-53.1738 84.3262-58.1543 84.3262-66.9434C84.3262-71.2402 85.6445-74.0234 85.6445-76.2207C85.6445-80.0293 82.2266-81.8848 78.3203-80.5176C69.043-77.2949 62.3535-67.7734 62.3535-57.2754C62.3535-56.9824 62.3535-56.7383 62.3535-56.4453C57.6172-61.7188 51.0254-64.6484 43.457-64.6484C30.3223-64.6484 19.4336-54.9805 17.7734-42.041C11.1328-39.8926 6.83594-34.0332 6.83594-26.7578C6.83594-17.2363 14.0625-10.498 24.3652-10.498ZM69.6777-57.373C69.6777-63.7207 72.9492-69.4336 77.8809-72.6562L78.3691-72.3145C77.7832-70.459 77.2461-67.9199 77.2461-65.0879C77.2461-54.0039 85.1562-46.1914 96.3379-46.1914C99.1699-46.1914 101.367-46.7285 102.979-47.2168L103.271-46.875C100.488-42.2363 94.2871-38.4766 85.3027-38.7207C82.8125-44.7266 77.4902-49.1699 70.8008-50.6836C70.0684-52.7832 69.6777-55.0293 69.6777-57.373ZM24.4141-19.043C18.4082-19.043 15.3809-22.2656 15.3809-26.6113C15.3809-30.3223 17.5293-33.4961 22.9492-34.9121C25.0488-35.4492 25.7324-36.4258 25.9766-38.623C27.2461-49.4141 34.4727-56.1035 43.457-56.1035C50.1465-56.1035 55.6152-52.4414 59.2285-45.4102C60.1562-43.6035 61.2305-42.9688 63.4277-42.9688C73.3887-42.9688 78.2715-37.4512 78.2715-30.7129C78.2715-24.1699 73.1445-19.043 65.9668-19.043ZM57.373 2.53906L49.0234 2.53906L52.2461-3.66211C52.6855-4.49219 52.3438-5.12695 51.5137-5.12695L41.5527-5.12695C40.4785-5.12695 40.1367-4.73633 39.7949-3.95508L34.668 7.66602C34.2773 8.54492 34.6191 9.13086 35.6445 9.13086L42.5781 9.13086L37.5 21.4355C37.3047 21.9727 37.4023 22.3633 37.7441 22.5098C38.0859 22.6562 38.4766 22.5586 38.916 22.168L57.9102 4.44336C58.7891 3.66211 58.4961 2.53906 57.373 2.53906Z"/>
  </g>
  <g id="Medium-S" transform="matrix(1 0 0 1 1692.77 696)">
   <path d="M23.9746-11.1328L65.4297-11.1328C76.9531-11.1328 85.8398-19.873 85.8398-31.1523C85.8398-31.25 85.8398-31.3477 85.8398-31.4453C97.7539-31.7383 105.957-38.0859 109.424-46.582C110.986-50.293 109.131-53.6621 105.518-53.6621C102.881-53.6621 101.074-52.6855 97.0703-52.6855C87.6465-52.6855 82.9102-57.7637 82.9102-66.5527C82.9102-70.752 84.2285-73.3887 84.2285-75.6348C84.2285-79.2969 80.957-81.1523 77.0996-79.7852C68.0664-76.6113 61.5723-67.2363 61.5723-56.8848C61.5723-56.6895 61.5723-56.4941 61.5723-56.25C56.8848-61.4746 50.3418-64.4531 42.9199-64.4531C29.9316-64.4531 19.0918-54.7363 17.5781-41.9434C11.0352-39.8438 6.83594-34.0332 6.83594-26.9531C6.83594-17.6758 13.8672-11.1328 23.9746-11.1328ZM68.5059-57.0312C68.5059-63.4277 71.8262-69.2383 76.8066-72.4121L77.2949-72.0703C76.7578-70.2148 76.2207-67.7246 76.2207-64.8926C76.2207-53.8086 84.2773-46.0449 95.4102-46.0449C98.1934-46.0449 100.439-46.5332 102.002-47.0215L102.344-46.7285C99.5605-42.1387 93.457-38.2324 84.5215-38.4277C82.0801-44.6289 76.5625-49.1699 69.4824-50.5859C68.8477-52.6367 68.5059-54.7852 68.5059-57.0312ZM23.877-18.9941C17.8223-18.9941 14.7461-22.3633 14.7461-26.7578C14.7461-30.4688 16.7969-33.7402 22.2656-35.1562C24.3652-35.6934 25.0977-36.6699 25.293-38.8672C26.416-49.5605 33.7891-56.543 42.9199-56.543C49.7559-56.543 55.2734-52.832 58.8379-45.8008C59.7656-43.9941 60.791-43.3594 62.9883-43.3594C72.9492-43.3594 77.9785-37.6953 77.9785-30.957C77.9785-24.3164 72.6562-18.9941 65.4785-18.9941ZM56.7383 1.95312L48.5352 1.95312L51.8555-4.29688C52.2949-5.12695 51.9531-5.76172 51.123-5.76172L41.5039-5.76172C40.4297-5.76172 40.0879-5.37109 39.7461-4.58984L34.7168 6.88477C34.3262 7.76367 34.668 8.34961 35.6445 8.34961L42.5293 8.34961L37.4512 20.5078C37.2559 21.0449 37.3535 21.4355 37.6953 21.582C38.0859 21.7285 38.4766 21.6309 38.8672 21.2402L57.2754 3.85742C58.1055 3.07617 57.8613 1.95312 56.7383 1.95312Z"/>
  </g>
  <g id="Regular-S" transform="matrix(1 0 0 1 1396.7 696)">
   <path d="M23.4375-11.9629L64.6973-11.9629C75.8789-11.9629 84.6191-20.459 84.6191-31.4941L84.6191-31.6406C96.3379-32.0801 104.15-38.2324 107.52-46.1426C109.033-49.6582 107.227-52.8809 103.809-52.8809C101.318-52.8809 99.6582-52.002 95.752-52.002C86.0352-52.002 81.1035-57.2266 81.1035-66.0645C81.1035-70.0684 82.3242-72.6074 82.3242-74.8535C82.3242-78.3691 79.248-80.1758 75.4883-78.8086C66.748-75.7324 60.5469-66.5527 60.5469-56.3965C60.5469-56.2988 60.5469-56.1523 60.5469-56.0059C55.9082-61.1816 49.4141-64.1602 42.2852-64.1602C29.4434-64.1602 18.7012-54.3945 17.3828-41.7969C10.9863-39.7461 6.83594-34.082 6.83594-27.1484C6.83594-18.2129 13.5742-11.9629 23.4375-11.9629ZM66.9434-56.543C66.9434-63.0859 70.3613-68.9453 75.4395-72.1191L75.9277-71.7773C75.3418-69.9219 74.8535-67.4316 74.8535-64.6973C74.8535-53.5156 83.0566-45.8496 94.1895-45.8496C96.875-45.8496 99.2188-46.2891 100.83-46.8262L101.074-46.4844C98.3887-41.9434 92.3828-37.9883 83.4961-37.9883C81.1523-44.4824 75.293-49.2188 67.8711-50.4883C67.2363-52.3926 66.9434-54.4434 66.9434-56.543ZM23.2422-18.9941C17.0898-18.9941 13.8672-22.4609 13.8672-26.9531C13.8672-30.6152 15.8691-34.082 21.4355-35.5469C23.4863-36.0352 24.2188-37.0117 24.4141-39.1602C25.3418-49.7559 32.959-57.1289 42.2852-57.1289C49.2188-57.1289 54.7852-53.418 58.3496-46.2891C59.2285-44.4824 60.3027-43.8477 62.4512-43.8477C72.3633-43.8477 77.5879-38.0859 77.5879-31.2988C77.5879-24.4629 72.0703-18.9941 64.7949-18.9941ZM55.9082 1.2207L47.9492 1.2207L51.3184-5.17578C51.7578-6.00586 51.416-6.5918 50.5859-6.5918L41.4062-6.5918C40.3809-6.5918 40.0391-6.20117 39.6973-5.46875L34.7168 5.81055C34.3262 6.73828 34.7168 7.27539 35.6934 7.27539L42.4316 7.27539L37.4512 19.2871C37.2559 19.8242 37.3535 20.2148 37.6953 20.3613C38.0371 20.5078 38.4277 20.4102 38.8184 19.9707L56.4453 3.07617C57.2266 2.29492 56.9824 1.2207 55.9082 1.2207Z"/>
  </g>
  <g id="Light-S" transform="matrix(1 0 0 1 1100.35 696)">
   <path d="M22.7539-11.9629L64.2578-11.9629C75.1953-11.9629 83.6914-20.2148 83.6914-30.8105C83.6914-31.0059 83.6914-31.1523 83.6914-31.2988C96.5332-31.6895 104.102-39.4043 106.494-46.3379C107.52-49.0234 106.055-51.416 103.467-51.416C101.27-51.416 99.2188-50.3418 95.0195-50.3418C85.2539-50.3418 79.8828-55.9082 79.8828-64.7949C79.8828-69.3848 81.3477-71.6309 81.3477-73.6816C81.3477-76.5137 78.9551-77.8809 75.8789-76.9043C68.3105-74.5605 60.8398-66.3574 60.8398-55.4199C60.8398-54.8828 60.8887-54.3457 60.8887-53.8086C56.2988-59.6191 49.6582-63.1348 41.8457-63.1348C29.3457-63.1348 18.8965-53.3203 17.627-40.7715C11.2793-38.8672 6.83594-33.4473 6.83594-26.4648C6.83594-18.1152 13.1348-11.9629 22.7539-11.9629ZM65.8203-55.5176C65.8203-63.623 70.9961-69.3359 76.0254-71.7285L76.3672-71.4844C75.6836-69.6289 75.0488-66.9434 75.0488-63.8672C75.0488-53.0273 82.8613-45.5566 93.9453-45.5566C96.6797-45.5566 99.3652-46.0449 101.27-46.6797L101.514-46.4355C99.4629-41.9922 93.3105-36.2305 82.9102-36.2305C80.8105-43.1152 74.6582-48.0957 66.7969-49.2188C66.1621-51.2207 65.8203-53.3203 65.8203-55.5176ZM22.6562-17.334C15.8691-17.334 12.207-21.3379 12.207-26.3672C12.207-30.7129 14.8438-34.375 20.5566-35.9375C22.2656-36.377 22.8516-37.1582 22.998-38.8672C23.877-49.707 32.0801-57.7148 41.8457-57.7148C49.6582-57.7148 55.5664-53.3691 59.1797-46.1914C59.9121-44.6777 60.791-44.1895 62.5977-44.1895C72.4121-44.1895 78.3203-38.0859 78.3203-30.6641C78.3203-23.291 72.2656-17.334 64.3555-17.334ZM53.7598 1.80664L46.4355 1.80664L50.0977-5.07812C50.5371-5.9082 50.1953-6.49414 49.3164-6.49414L42.2852-6.49414C41.2109-6.49414 40.8691-6.10352 40.5273-5.37109L35.6934 5.66406C35.3027 6.5918 35.7422 7.12891 36.7188 7.12891L42.8223 7.12891L37.9883 18.8477C37.7441 19.3848 37.8906 19.7754 38.2324 19.9219C38.5742 20.0684 39.0137 19.9707 39.4043 19.5312L54.3945 3.61328C55.127 2.83203 54.834 1.80664 53.7598 1.80664Z"/>
  </g>
  <g id="Thin-S" transform="matrix(1 0 0 1 804.103 696)">
   <path d="M21.875-12.0117L63.7695-12.0117C74.2676-12.0117 82.4707-19.9219 82.4707-29.9805C82.4707-30.2734 82.4707-30.5176 82.4219-30.7617C96.9727-30.9082 104.102-41.1133 105.078-46.582C105.469-48.2422 104.541-49.5117 102.979-49.5117C101.221-49.5117 98.6328-48.1445 94.043-48.1445C84.1797-48.1445 78.3203-54.1504 78.3203-63.0859C78.3203-68.457 80.0293-70.2637 80.0293-72.168C80.0293-74.0234 78.5156-74.8535 76.4648-74.3652C70.3125-73.0469 61.2793-66.0645 61.2793-54.0527C61.2793-52.7832 61.377-51.5625 61.5723-50.293C57.0312-57.2754 50.1465-61.7188 41.3574-61.7188C29.1992-61.7188 19.1406-51.9043 17.9688-39.4531C11.6699-37.6953 6.83594-32.666 6.83594-25.6348C6.83594-18.0176 12.5977-12.0117 21.875-12.0117ZM64.3066-54.1992C64.3066-64.3555 71.7773-69.9219 76.7578-71.2402L76.9531-71.0449C76.0742-69.2383 75.293-66.3086 75.293-62.7441C75.293-52.3438 82.6172-45.1172 93.6035-45.1172C96.4355-45.1172 99.5117-45.7031 101.807-46.4844L102.002-46.3867C100.977-42.0898 94.7266-33.7402 82.0312-33.8379C80.3711-41.2598 73.8281-46.6797 65.3809-47.6074C64.6484-49.6582 64.3066-51.9043 64.3066-54.1992ZM21.8262-15.1855C14.2578-15.1855 10.0098-19.8242 10.0098-25.5859C10.0098-30.8105 13.5254-34.8145 19.3848-36.5234C20.6543-36.8652 21.0449-37.3535 21.1426-38.5254C21.9238-49.707 30.957-58.5449 41.3574-58.5449C50.293-58.5449 56.6406-53.2715 60.2539-46.0938C60.791-44.9707 61.4258-44.5801 62.7441-44.5801C72.4609-44.5801 79.248-38.0371 79.248-29.8828C79.248-21.7773 72.5098-15.1855 63.8184-15.1855ZM50.9277 2.58789L44.4336 2.58789L48.4863-4.93164C48.9258-5.76172 48.584-6.39648 47.7051-6.39648L43.457-6.39648C42.334-6.39648 41.9922-6.00586 41.6504-5.22461L36.9629 5.41992C36.5723 6.39648 37.1094 6.98242 38.0371 6.98242L43.4082 6.98242L38.6719 18.3105C38.4277 18.8477 38.5742 19.2871 38.9648 19.4336C39.3066 19.5801 39.7949 19.4336 40.1367 18.9453L51.709 4.3457C52.3438 3.51562 52.002 2.58789 50.9277 2.58789Z"/>
  </g>
  <g id="Ultralight-S" transform="matrix(1 0 0 1 507.66 696)">
   <path d="M21.4355-12.0117L63.4766-12.0117C73.7793-12.0117 81.8359-19.7754 81.8359-29.541C81.8359-29.8828 81.8359-30.2246 81.7871-30.5176C97.2168-30.4199 104.199-42.041 104.346-46.7285C104.443-47.8027 103.76-48.5352 102.734-48.5352C101.172-48.5352 98.291-46.9727 93.5059-46.9727C83.6426-46.9727 77.4902-53.2227 77.4902-62.207C77.4902-67.9688 79.3457-69.5801 79.3457-71.3867C79.3457-72.7539 78.3203-73.291 76.7578-73.0469C71.3379-72.2656 61.4746-65.918 61.4746-53.3691C61.4746-51.5625 61.7188-49.707 62.1094-47.9492C57.666-55.8105 50.6348-60.9863 41.0645-60.9863C29.1016-60.9863 19.2383-51.1719 18.1641-38.7207C11.8652-37.1094 6.83594-32.2266 6.83594-25.1953C6.83594-17.9688 12.3047-12.0117 21.4355-12.0117ZM63.5742-53.4668C63.5742-64.6973 72.2168-70.2148 77.1484-70.9961L77.2949-70.8496C76.3184-69.043 75.3906-66.0156 75.3906-62.1582C75.3906-52.002 82.5195-44.9219 93.457-44.9219C96.2891-44.9219 99.6094-45.5078 102.148-46.3867L102.295-46.3379C101.758-42.1387 95.459-32.373 81.543-32.6172C80.127-40.332 73.3887-45.9961 64.5996-46.7285C63.8672-48.9258 63.5742-51.1719 63.5742-53.4668ZM21.4355-14.0625C13.4277-14.0625 8.88672-19.0918 8.88672-25.1953C8.88672-30.8594 12.793-35.0098 18.7988-36.8164C19.8242-37.1094 20.1172-37.4512 20.166-38.3301C20.9473-49.6582 30.3711-58.9355 41.0645-58.9355C50.6348-58.9355 57.1777-53.2227 60.791-46.0449C61.2793-45.1172 61.7676-44.8242 62.8906-44.8242C72.5098-44.8242 79.7852-38.0371 79.7852-29.4434C79.7852-20.9961 72.6074-14.0625 63.4766-14.0625ZM49.4629 2.97852L43.457 2.97852L47.6562-4.83398C48.0957-5.66406 47.7539-6.34766 46.875-6.34766L44.043-6.34766C42.9199-6.34766 42.5293-5.95703 42.1875-5.12695L37.6465 5.32227C37.207 6.29883 37.8418 6.83594 38.7695 6.83594L43.7012 6.83594L39.0137 17.9688C38.7695 18.5547 38.916 18.9941 39.3066 19.1406C39.6973 19.2871 40.1855 19.1406 40.5273 18.6035L50.293 4.73633C50.9277 3.85742 50.5371 2.97852 49.4629 2.97852Z"/>
  </g>
 </g>
</svg>
