<?xml version="1.0" encoding="UTF-8"?>
<!--Generator: Apple Native CoreSVG 149-->
<!DOCTYPE svg
PUBLIC "-//W3C//DTD SVG 1.1//EN"
       "http://www.w3.org/Graphics/SVG/1.1/DTD/svg11.dtd">
<svg version="1.1" xmlns="http://www.w3.org/2000/svg" xmlns:xlink="http://www.w3.org/1999/xlink" width="3300" height="2200">
 <!--glyph: "uni1001DA.medium", point size: 100.000000, font version: "Version 16.0d12e3", template writer version: "8"-->
 <g id="Notes">
  <rect height="2200" id="artboard" style="fill:white;opacity:1" width="3300" x="0" y="0"/>
  <line id="" style="fill:none;stroke:black;opacity:1;stroke-width:0.5;" x1="263" x2="3036" y1="292" y2="292"/>
  <text style="stroke:none;fill:black;font-family:-apple-system,&quot;SF Pro Display&quot;,&quot;SF Pro Text&quot;,Helvetica,sans-serif;font-weight:bold;" transform="matrix(1 0 0 1 263 322)">Weight/Scale Variations</text>
  <text style="stroke:none;fill:black;font-family:-apple-system,&quot;SF Pro Display&quot;,&quot;SF Pro Text&quot;,Helvetica,sans-serif;text-anchor:middle;" transform="matrix(1 0 0 1 559.711 322)">Ultralight</text>
  <text style="stroke:none;fill:black;font-family:-apple-system,&quot;SF Pro Display&quot;,&quot;SF Pro Text&quot;,Helvetica,sans-serif;text-anchor:middle;" transform="matrix(1 0 0 1 856.422 322)">Thin</text>
  <text style="stroke:none;fill:black;font-family:-apple-system,&quot;SF Pro Display&quot;,&quot;SF Pro Text&quot;,Helvetica,sans-serif;text-anchor:middle;" transform="matrix(1 0 0 1 1153.13 322)">Light</text>
  <text style="stroke:none;fill:black;font-family:-apple-system,&quot;SF Pro Display&quot;,&quot;SF Pro Text&quot;,Helvetica,sans-serif;text-anchor:middle;" transform="matrix(1 0 0 1 1449.84 322)">Regular</text>
  <text style="stroke:none;fill:black;font-family:-apple-system,&quot;SF Pro Display&quot;,&quot;SF Pro Text&quot;,Helvetica,sans-serif;text-anchor:middle;" transform="matrix(1 0 0 1 1746.56 322)">Medium</text>
  <text style="stroke:none;fill:black;font-family:-apple-system,&quot;SF Pro Display&quot;,&quot;SF Pro Text&quot;,Helvetica,sans-serif;text-anchor:middle;" transform="matrix(1 0 0 1 2043.27 322)">Semibold</text>
  <text style="stroke:none;fill:black;font-family:-apple-system,&quot;SF Pro Display&quot;,&quot;SF Pro Text&quot;,Helvetica,sans-serif;text-anchor:middle;" transform="matrix(1 0 0 1 2339.98 322)">Bold</text>
  <text style="stroke:none;fill:black;font-family:-apple-system,&quot;SF Pro Display&quot;,&quot;SF Pro Text&quot;,Helvetica,sans-serif;text-anchor:middle;" transform="matrix(1 0 0 1 2636.69 322)">Heavy</text>
  <text style="stroke:none;fill:black;font-family:-apple-system,&quot;SF Pro Display&quot;,&quot;SF Pro Text&quot;,Helvetica,sans-serif;text-anchor:middle;" transform="matrix(1 0 0 1 2933.4 322)">Black</text>
  <line id="" style="fill:none;stroke:black;opacity:1;stroke-width:0.5;" x1="263" x2="3036" y1="1903" y2="1903"/>
  <g id="" transform="matrix(1 0 0 1 263 1933)">
   <path d="M9.24805 0.830078C13.5547 0.830078 17.1387-2.74414 17.1387-7.05078C17.1387-11.3574 13.5449-14.9316 9.23828-14.9316C4.94141-14.9316 1.36719-11.3574 1.36719-7.05078C1.36719-2.74414 4.95117 0.830078 9.24805 0.830078ZM9.24805-0.654297C5.70312-0.654297 2.87109-3.49609 2.87109-7.05078C2.87109-10.6055 5.69336-13.4473 9.23828-13.4473C12.793-13.4473 15.6348-10.6055 15.6445-7.05078C15.6543-3.49609 12.8027-0.654297 9.24805-0.654297ZM9.22852-3.62305C9.69727-3.62305 9.9707-3.93555 9.9707-4.45312L9.9707-6.31836L12.002-6.31836C12.5-6.31836 12.832-6.57227 12.832-7.04102C12.832-7.51953 12.5195-7.7832 12.002-7.7832L9.9707-7.7832L9.9707-9.81445C9.9707-10.332 9.69727-10.6543 9.22852-10.6543C8.75977-10.6543 8.50586-10.3125 8.50586-9.81445L8.50586-7.7832L6.49414-7.7832C5.97656-7.7832 5.64453-7.51953 5.64453-7.04102C5.64453-6.57227 5.99609-6.31836 6.49414-6.31836L8.50586-6.31836L8.50586-4.45312C8.50586-3.95508 8.75977-3.62305 9.22852-3.62305Z"/>
  </g>
  <g id="" transform="matrix(1 0 0 1 281.506 1933)">
   <path d="M11.709 2.91016C17.1582 2.91016 21.6699-1.61133 21.6699-7.05078C21.6699-12.5 17.1484-17.0117 11.6992-17.0117C6.25977-17.0117 1.74805-12.5 1.74805-7.05078C1.74805-1.61133 6.26953 2.91016 11.709 2.91016ZM11.709 1.25C7.09961 1.25 3.41797-2.44141 3.41797-7.05078C3.41797-11.6602 7.08984-15.3516 11.6992-15.3516C16.3086-15.3516 20-11.6602 20.0098-7.05078C20.0195-2.44141 16.3184 1.25 11.709 1.25ZM11.6797-2.66602C12.207-2.66602 12.5098-3.01758 12.5098-3.59375L12.5098-6.23047L15.3223-6.23047C15.8691-6.23047 16.25-6.51367 16.25-7.03125C16.25-7.55859 15.8887-7.86133 15.3223-7.86133L12.5098-7.86133L12.5098-10.6836C12.5098-11.25 12.207-11.6113 11.6797-11.6113C11.1621-11.6113 10.8789-11.2305 10.8789-10.6836L10.8789-7.86133L8.07617-7.86133C7.50977-7.86133 7.13867-7.55859 7.13867-7.03125C7.13867-6.51367 7.5293-6.23047 8.07617-6.23047L10.8789-6.23047L10.8789-3.59375C10.8789-3.03711 11.1621-2.66602 11.6797-2.66602Z"/>
  </g>
  <g id="" transform="matrix(1 0 0 1 304.924 1933)">
   <path d="M14.9707 5.66406C21.9336 5.66406 27.6953-0.0976562 27.6953-7.05078C27.6953-14.0137 21.9238-19.7754 14.9609-19.7754C8.00781-19.7754 2.25586-14.0137 2.25586-7.05078C2.25586-0.0976562 8.01758 5.66406 14.9707 5.66406ZM14.9707 3.84766C8.93555 3.84766 4.08203-1.01562 4.08203-7.05078C4.08203-13.0957 8.92578-17.9492 14.9609-17.9492C21.0059-17.9492 25.8594-13.0957 25.8691-7.05078C25.8789-1.01562 21.0156 3.84766 14.9707 3.84766ZM14.9414-1.38672C15.5176-1.38672 15.8594-1.77734 15.8594-2.38281L15.8594-6.13281L19.7754-6.13281C20.3711-6.13281 20.7812-6.46484 20.7812-7.02148C20.7812-7.59766 20.3906-7.93945 19.7754-7.93945L15.8594-7.93945L15.8594-11.8652C15.8594-12.4805 15.5176-12.8711 14.9414-12.8711C14.375-12.8711 14.0527-12.4609 14.0527-11.8652L14.0527-7.93945L10.1465-7.93945C9.53125-7.93945 9.13086-7.59766 9.13086-7.02148C9.13086-6.46484 9.55078-6.13281 10.1465-6.13281L14.0527-6.13281L14.0527-2.38281C14.0527-1.79688 14.375-1.38672 14.9414-1.38672Z"/>
  </g>
  <text style="stroke:none;fill:black;font-family:-apple-system,&quot;SF Pro Display&quot;,&quot;SF Pro Text&quot;,Helvetica,sans-serif;font-weight:bold;" transform="matrix(1 0 0 1 263 1953)">Design Variations</text>
  <text style="stroke:none;fill:black;font-family:-apple-system,&quot;SF Pro Display&quot;,&quot;SF Pro Text&quot;,Helvetica,sans-serif;" transform="matrix(1 0 0 1 263 1971)">Symbols are supported in up to nine weights and three scales.</text>
  <text style="stroke:none;fill:black;font-family:-apple-system,&quot;SF Pro Display&quot;,&quot;SF Pro Text&quot;,Helvetica,sans-serif;" transform="matrix(1 0 0 1 263 1989)">For optimal layout with text and other symbols, vertically align</text>
  <text style="stroke:none;fill:black;font-family:-apple-system,&quot;SF Pro Display&quot;,&quot;SF Pro Text&quot;,Helvetica,sans-serif;" transform="matrix(1 0 0 1 263 2007)">symbols with the adjacent text.</text>
  <line id="" style="fill:none;stroke:#00AEEF;stroke-width:0.5;opacity:1.0;" x1="776" x2="776" y1="1919" y2="1933"/>
  <g id="" transform="matrix(1 0 0 1 776 1933)">
   <path d="M3.31055 0.126953C3.82812 0.126953 4.08203-0.0683594 4.26758-0.605469L5.52734-4.0625L11.2891-4.0625L12.5488-0.605469C12.7344-0.0683594 12.9883 0.126953 13.4961 0.126953C14.0137 0.126953 14.3457-0.185547 14.3457-0.673828C14.3457-0.839844 14.3164-0.986328 14.2383-1.20117L9.6582-13.3887C9.43359-13.9941 9.0332-14.2871 8.4082-14.2871C7.80273-14.2871 7.39258-13.9941 7.17773-13.3984L2.59766-1.19141C2.51953-0.976562 2.49023-0.830078 2.49023-0.664062C2.49023-0.175781 2.80273 0.126953 3.31055 0.126953ZM6.00586-5.53711L8.37891-12.1094L8.42773-12.1094L10.8008-5.53711Z"/>
  </g>
  <line id="" style="fill:none;stroke:#00AEEF;stroke-width:0.5;opacity:1.0;" x1="792.836" x2="792.836" y1="1919" y2="1933"/>
  <text style="stroke:none;fill:black;font-family:-apple-system,&quot;SF Pro Display&quot;,&quot;SF Pro Text&quot;,Helvetica,sans-serif;font-weight:bold;" transform="matrix(1 0 0 1 776 1953)">Margins</text>
  <text style="stroke:none;fill:black;font-family:-apple-system,&quot;SF Pro Display&quot;,&quot;SF Pro Text&quot;,Helvetica,sans-serif;" transform="matrix(1 0 0 1 776 1971)">Leading and trailing margins on the left and right side of each symbol</text>
  <text style="stroke:none;fill:black;font-family:-apple-system,&quot;SF Pro Display&quot;,&quot;SF Pro Text&quot;,Helvetica,sans-serif;" transform="matrix(1 0 0 1 776 1989)">can be adjusted by modifying the x-location of the margin guidelines.</text>
  <text style="stroke:none;fill:black;font-family:-apple-system,&quot;SF Pro Display&quot;,&quot;SF Pro Text&quot;,Helvetica,sans-serif;" transform="matrix(1 0 0 1 776 2007)">Modifications are automatically applied proportionally to all</text>
  <text style="stroke:none;fill:black;font-family:-apple-system,&quot;SF Pro Display&quot;,&quot;SF Pro Text&quot;,Helvetica,sans-serif;" transform="matrix(1 0 0 1 776 2025)">scales and weights.</text>
  <g id="" transform="matrix(1 0 0 1 1289 1933)">
   <path d="M2.8418 1.86523L4.54102 3.57422C5.40039 4.44336 6.38672 4.38477 7.31445 3.35938L17.4902-7.85156C17.7539-7.76367 18.0273-7.7832 18.3398-7.8418L19.4043-8.03711L20.0684-7.36328L20.0293-6.80664C19.9902-6.30859 20.1172-5.92773 20.6055-5.44922L21.3672-4.70703C21.8457-4.22852 22.4609-4.19922 22.9297-4.66797L25.8398-7.58789C26.3086-8.05664 26.2891-8.65234 25.8105-9.13086L25.0391-9.89258C24.5605-10.3711 24.1895-10.5273 23.7109-10.4883L23.1348-10.4395L22.4902-11.0742L22.7344-12.1973C22.8613-12.7637 22.7051-13.2031 22.1191-13.7891L19.9219-15.9766C16.582-19.2969 12.1484-19.2188 9.25781-16.3281C8.83789-15.918 8.80859-15.3418 9.04297-14.9512C9.27734-14.5898 9.73633-14.3555 10.3809-14.5215C11.8457-14.8633 13.3691-14.9219 14.7949-13.9844L14.209-12.5293C14.0137-12.0508 13.9844-11.6504 14.1113-11.2891L3.04688-0.898438C2.06055 0.0195312 1.98242 0.996094 2.8418 1.86523ZM10.752-15.957C13.1836-17.7344 16.4746-17.4316 18.7012-15.2051L21.1328-12.793C21.3672-12.5586 21.4062-12.373 21.3379-12.0312L21.0156-10.5469L22.5195-9.0625L23.5059-9.12109C23.7598-9.13086 23.8379-9.11133 24.0332-8.91602L24.6094-8.33984L22.168-5.89844L21.5918-6.47461C21.3965-6.66992 21.3672-6.74805 21.377-7.01172L21.4453-7.98828L19.9512-9.47266L18.4277-9.21875C18.1055-9.15039 17.959-9.17969 17.7148-9.41406L15.7129-11.416C15.459-11.6504 15.4297-11.8164 15.5859-12.1875L16.4648-14.2773C14.9023-15.7324 12.8711-16.3574 10.8398-15.7617C10.6836-15.7227 10.625-15.8496 10.752-15.957ZM5.27344 2.30469L4.10156 1.14258C3.63281 0.683594 3.74023 0.341797 4.14062-0.0195312L14.9512-10.1953L16.416-8.71094L6.42578 2.27539C6.07422 2.67578 5.74219 2.77344 5.27344 2.30469Z"/>
  </g>
  <text style="stroke:none;fill:black;font-family:-apple-system,&quot;SF Pro Display&quot;,&quot;SF Pro Text&quot;,Helvetica,sans-serif;font-weight:bold;" transform="matrix(1 0 0 1 1289 1953)">Exporting</text>
  <text style="stroke:none;fill:black;font-family:-apple-system,&quot;SF Pro Display&quot;,&quot;SF Pro Text&quot;,Helvetica,sans-serif;" transform="matrix(1 0 0 1 1289 1971)">Symbols should be outlined when exporting to ensure the</text>
  <text style="stroke:none;fill:black;font-family:-apple-system,&quot;SF Pro Display&quot;,&quot;SF Pro Text&quot;,Helvetica,sans-serif;" transform="matrix(1 0 0 1 1289 1989)">design is preserved when submitting to Xcode.</text>
  <text id="template-version" style="stroke:none;fill:black;font-family:-apple-system,&quot;SF Pro Display&quot;,&quot;SF Pro Text&quot;,Helvetica,sans-serif;text-anchor:end;" transform="matrix(1 0 0 1 3036 1933)">Template v.2.0</text>
  <text style="stroke:none;fill:black;font-family:-apple-system,&quot;SF Pro Display&quot;,&quot;SF Pro Text&quot;,Helvetica,sans-serif;text-anchor:end;" transform="matrix(1 0 0 1 3036 1951)">Requires Xcode 12 or greater</text>
  <text style="stroke:none;fill:black;font-family:-apple-system,&quot;SF Pro Display&quot;,&quot;SF Pro Text&quot;,Helvetica,sans-serif;text-anchor:end;" transform="matrix(1 0 0 1 3036 1969)">Generated from cloud.moon</text>
  <text style="stroke:none;fill:black;font-family:-apple-system,&quot;SF Pro Display&quot;,&quot;SF Pro Text&quot;,Helvetica,sans-serif;text-anchor:end;" transform="matrix(1 0 0 1 3036 1987)">Typeset at 100 points</text>
  <text style="stroke:none;fill:black;font-family:-apple-system,&quot;SF Pro Display&quot;,&quot;SF Pro Text&quot;,Helvetica,sans-serif;" transform="matrix(1 0 0 1 263 726)">Small</text>
  <text style="stroke:none;fill:black;font-family:-apple-system,&quot;SF Pro Display&quot;,&quot;SF Pro Text&quot;,Helvetica,sans-serif;" transform="matrix(1 0 0 1 263 1156)">Medium</text>
  <text style="stroke:none;fill:black;font-family:-apple-system,&quot;SF Pro Display&quot;,&quot;SF Pro Text&quot;,Helvetica,sans-serif;" transform="matrix(1 0 0 1 263 1586)">Large</text>
 </g>
 <g id="Guides">
  <g id="H-reference" style="fill:#27AAE1;stroke:none;" transform="matrix(1 0 0 1 339 696)">
   <path d="M0.976562 0L3.66211 0L12.9883-24.4629L45.752-24.4629L55.127 0L57.7637 0L30.6152-70.459L28.125-70.459ZM29.3457-67.1387L29.4434-67.1387L44.873-26.709L13.8672-26.709Z"/>
  </g>
  <line id="Baseline-S" style="fill:none;stroke:#27AAE1;opacity:1;stroke-width:0.5;" x1="263" x2="3036" y1="696" y2="696"/>
  <line id="Capline-S" style="fill:none;stroke:#27AAE1;opacity:1;stroke-width:0.5;" x1="263" x2="3036" y1="625.541" y2="625.541"/>
  <g id="H-reference" style="fill:#27AAE1;stroke:none;" transform="matrix(1 0 0 1 339 1126)">
   <path d="M0.976562 0L3.66211 0L12.9883-24.4629L45.752-24.4629L55.127 0L57.7637 0L30.6152-70.459L28.125-70.459ZM29.3457-67.1387L29.4434-67.1387L44.873-26.709L13.8672-26.709Z"/>
  </g>
  <line id="Baseline-M" style="fill:none;stroke:#27AAE1;opacity:1;stroke-width:0.5;" x1="263" x2="3036" y1="1126" y2="1126"/>
  <line id="Capline-M" style="fill:none;stroke:#27AAE1;opacity:1;stroke-width:0.5;" x1="263" x2="3036" y1="1055.54" y2="1055.54"/>
  <g id="H-reference" style="fill:#27AAE1;stroke:none;" transform="matrix(1 0 0 1 339 1556)">
   <path d="M0.976562 0L3.66211 0L12.9883-24.4629L45.752-24.4629L55.127 0L57.7637 0L30.6152-70.459L28.125-70.459ZM29.3457-67.1387L29.4434-67.1387L44.873-26.709L13.8672-26.709Z"/>
  </g>
  <line id="Baseline-L" style="fill:none;stroke:#27AAE1;opacity:1;stroke-width:0.5;" x1="263" x2="3036" y1="1556" y2="1556"/>
  <line id="Capline-L" style="fill:none;stroke:#27AAE1;opacity:1;stroke-width:0.5;" x1="263" x2="3036" y1="1485.54" y2="1485.54"/>
  <line id="left-margin" style="fill:none;stroke:#00AEEF;stroke-width:0.5;opacity:1.0;" x1="1382.24" x2="1382.24" y1="1030.79" y2="1150.12"/>
  <line id="right-margin" style="fill:none;stroke:#FF3B30;stroke-width:0.5;opacity:1.0;" x1="1517.45" x2="1517.45" y1="1030.79" y2="1150.12"/>
 </g>
 <g id="Symbols">
  <g id="Black-L" transform="matrix(1 0 0 1 2841.6 1556)">
   <path d="M42.2852 14.4531L111.621 14.4531C131.934 14.4531 147.705-1.12305 147.705-21.0938C147.705-21.4844 147.705-21.8262 147.705-22.168C167.725-21.9238 183.691-33.0078 189.941-50.1953C192.578-57.5195 189.307-63.7207 182.275-63.7207C177.148-63.7207 173.389-61.6211 166.553-61.6211C152.539-61.6211 145.752-69.0918 145.752-83.4961C145.752-91.1621 148.096-96.2402 148.096-99.8047C148.096-106.738 141.846-110.059 135.059-107.715C118.506-102.1 106.445-85.5469 106.445-67.5781C106.445-66.8457 106.445-66.1133 106.494-65.3809C98.5352-74.1699 87.4023-78.8574 74.0234-78.8574C51.9043-78.8574 33.5938-63.1348 30.0293-41.2109C18.5547-37.4512 11.2793-27.2949 11.2793-14.7949C11.2793 2.19727 24.3164 14.4531 42.2852 14.4531ZM120.703-67.6758C120.703-77.5879 125.586-86.8652 133.447-92.1875L134.229-91.6992C133.301-88.5742 132.373-84.3262 132.373-79.3945C132.373-61.377 144.775-48.2422 163.281-48.2422C168.213-48.2422 171.533-49.2188 174.121-50.0488L174.658-49.5117C169.824-41.4551 159.131-35.8887 144.189-36.9629C140.039-45.6543 132.422-52.2461 122.998-55.1758C121.436-59.0332 120.703-63.2324 120.703-67.6758ZM42.7246-2.88086C33.3008-2.88086 28.6133-7.71484 28.6133-14.5508C28.6133-20.6055 32.4219-25.2441 41.0156-27.4414C44.7266-28.418 45.7031-30.0781 46.2891-33.8379C48.9746-52.002 60.0098-61.6211 74.0234-61.6211C84.5215-61.6211 93.3105-55.6152 99.3652-44.3359C101.025-41.2598 102.734-40.1855 106.494-40.1855C122.998-40.1855 130.42-31.6406 130.42-20.8496C130.42-10.6934 122.754-2.88086 111.133-2.88086Z"/>
  </g>
  <g id="Heavy-L" transform="matrix(1 0 0 1 2546.04 1556)">
   <path d="M41.1133 13.8184L110.254 13.8184C129.98 13.8184 145.361-1.2207 145.361-20.6055C145.361-20.9473 145.361-21.2891 145.361-21.582C165.674-21.582 180.811-33.1055 186.426-48.877C188.867-55.4688 185.84-61.1328 179.443-61.1328C174.707-61.1328 170.996-59.082 164.16-59.082C149.609-59.082 142.383-66.9922 142.383-81.4453C142.383-89.1113 144.727-93.8477 144.727-97.3633C144.727-103.711 139.014-106.787 132.715-104.639C117.139-99.4629 104.98-83.6426 104.98-65.6738C104.98-64.8926 104.98-64.1113 105.029-63.3301C97.168-72.3145 86.084-77.2949 72.8516-77.2949C51.0254-77.2949 33.0078-61.4258 29.7852-39.8438C18.5547-36.2305 11.2793-26.3672 11.2793-14.0625C11.2793 2.09961 23.6816 13.8184 41.1133 13.8184ZM117.725-65.7715C117.725-76.5625 123.584-85.8398 131.543-90.8203L132.275-90.332C131.299-87.2559 130.322-82.959 130.322-77.9297C130.322-59.9609 142.822-47.0703 161.279-47.0703C166.113-47.0703 169.678-47.998 172.412-48.877L172.9-48.3887C168.457-40.5273 157.959-33.9355 142.432-34.7656C138.33-44.1406 130.127-51.123 119.824-53.9062C118.457-57.5684 117.725-61.5723 117.725-65.7715ZM41.4062-1.41602C31.543-1.41602 26.5625-6.68945 26.5625-13.8672C26.5625-20.2148 30.5176-25.1953 39.3066-27.4902C42.7734-28.418 43.75-29.9316 44.2383-33.4961C46.6309-51.6113 58.3008-62.0605 72.8516-62.0605C83.8867-62.0605 92.9199-55.7617 98.9258-44.3359C100.488-41.4551 102.148-40.3809 105.713-40.3809C122.119-40.3809 130.078-31.4941 130.078-20.3613C130.078-9.7168 121.875-1.41602 109.912-1.41602Z"/>
  </g>
  <g id="Bold-L" transform="matrix(1 0 0 1 2250.62 1556)">
   <path d="M39.7949 13.1836L108.691 13.1836C127.832 13.1836 142.676-1.36719 142.676-20.0684C142.676-20.3613 142.676-20.6543 142.676-20.9473C163.379-21.1426 177.588-33.2031 182.568-47.4121C184.717-53.2227 181.885-58.2031 176.318-58.2031C171.973-58.2031 168.359-56.25 161.475-56.25C146.387-56.25 138.574-64.6484 138.574-79.1504C138.574-86.8164 140.967-91.1621 140.967-94.6289C140.967-100.342 135.889-103.125 130.078-101.172C115.625-96.4844 103.369-81.543 103.369-63.4766C103.369-62.6465 103.369-61.8164 103.418-60.9863C95.6543-70.2637 84.6191-75.4883 71.4844-75.4883C50.0977-75.4883 32.373-59.5703 29.541-38.2812C18.6035-34.8145 11.2793-25.293 11.2793-13.3301C11.2793 2.00195 22.9492 13.1836 39.7949 13.1836ZM114.453-63.623C114.453-75.3906 121.338-84.7168 129.395-89.3066L130.078-88.8184C129.004-85.7422 128.027-81.3965 128.027-76.3672C128.027-58.4473 140.625-45.752 158.984-45.752C163.721-45.752 167.627-46.6309 170.459-47.6074L170.947-47.1191C166.943-39.502 156.592-31.7871 140.43-32.2754C136.475-42.3828 127.588-49.8535 116.357-52.3438C115.088-55.8594 114.453-59.668 114.453-63.623ZM39.9414 0.244141C29.5898 0.244141 24.2188-5.51758 24.2188-13.0859C24.2188-19.7754 28.3691-25.1465 37.3535-27.5391C40.5762-28.3691 41.5527-29.834 41.9434-33.0566C43.9941-51.123 56.3477-62.5977 71.4844-62.5977C83.2031-62.5977 92.5293-55.9082 98.4863-44.3848C99.9023-41.6504 101.465-40.6738 104.785-40.6738C121.143-40.6738 129.736-31.3477 129.736-19.7754C129.736-8.59375 120.898 0.244141 108.545 0.244141Z"/>
  </g>
  <g id="Semibold-L" transform="matrix(1 0 0 1 1954.81 1556)">
   <path d="M38.916 12.7441L107.666 12.7441C126.318 12.7441 140.869-1.46484 140.869-19.6777C140.869-19.9707 140.869-20.2637 140.869-20.5566C161.816-20.8496 175.342-33.3008 179.883-46.4355C181.836-51.6602 179.199-56.2012 174.121-56.2012C170.068-56.2012 166.553-54.2969 159.619-54.2969C144.141-54.2969 135.938-62.9883 135.938-77.5391C135.938-85.2051 138.33-89.3066 138.33-92.7734C138.33-98.0469 133.74-100.586 128.271-98.7793C114.6-94.4824 102.246-80.0781 102.246-62.0117C102.246-61.1328 102.295-60.2539 102.344-59.375C94.6289-68.7988 83.5938-74.2676 70.5078-74.2676C49.4141-74.2676 31.8848-58.252 29.3945-37.207C18.6035-33.8867 11.2793-24.6094 11.2793-12.793C11.2793 1.95312 22.4609 12.7441 38.916 12.7441ZM112.158-62.1582C112.158-74.6094 119.775-83.9355 127.881-88.2324L128.516-87.793C127.441-84.7168 126.416-80.3711 126.416-75.2441C126.416-57.373 139.111-44.8242 157.422-44.8242C162.061-44.8242 166.162-45.7031 169.141-46.7285L169.58-46.2891C165.869-38.7695 155.615-30.2734 139.014-30.5664C135.205-41.1621 125.879-48.9746 113.965-51.2207C112.793-54.6387 112.158-58.3496 112.158-62.1582ZM38.916 1.36719C28.2715 1.36719 22.6074-4.6875 22.6074-12.5977C22.6074-19.4336 26.8555-25.0977 36.0352-27.5879C39.0625-28.3691 40.0391-29.7363 40.3809-32.8125C42.1875-50.7812 55.0293-62.9395 70.5078-62.9395C82.7148-62.9395 92.2363-56.0059 98.1445-44.3848C99.5117-41.748 101.025-40.8203 104.199-40.8203C120.459-40.8203 129.492-31.25 129.492-19.4336C129.492-7.8125 120.215 1.36719 107.617 1.36719Z"/>
  </g>
  <g id="Medium-L" transform="matrix(1 0 0 1 1658.79 1556)">
   <path d="M38.2324 12.3535L106.836 12.3535C125.195 12.3535 139.453-1.51367 139.453-19.3848C139.453-19.6777 139.453-19.9219 139.453-20.2148C160.596-20.6543 173.633-33.3496 177.832-45.6543C179.639-50.4883 177.148-54.6875 172.461-54.6875C168.652-54.6875 165.137-52.832 158.203-52.832C142.48-52.832 133.984-61.7676 133.984-76.3672C133.984-84.0332 136.377-87.8906 136.377-91.3086C136.377-96.2891 132.08-98.6816 126.855-96.9727C113.818-92.9199 101.416-78.9551 101.416-60.8398C101.416-59.9609 101.416-59.0332 101.514-58.1543C93.8477-67.7246 82.8125-73.3398 69.8242-73.3398C48.9258-73.3398 31.543-57.2754 29.248-36.377C18.6035-33.1543 11.2793-24.0234 11.2793-12.3535C11.2793 1.9043 22.0703 12.3535 38.2324 12.3535ZM110.449-61.0352C110.449-73.9746 118.604-83.3496 126.758-87.4512L127.393-87.0117C126.27-83.9355 125.195-79.541 125.195-74.4141C125.195-56.5918 137.988-44.1406 156.25-44.1406C160.84-44.1406 165.088-44.9707 168.164-46.0449L168.555-45.6055C165.088-38.1836 154.883-29.1504 137.891-29.2969C134.229-40.2832 124.561-48.291 112.158-50.3906C111.035-53.7109 110.449-57.3242 110.449-61.0352ZM38.1836 2.24609C27.2461 2.24609 21.3867-4.05273 21.3867-12.1582C21.3867-19.2383 25.7324-25.0977 35.0098-27.5879C37.9395-28.3691 38.916-29.6387 39.209-32.6172C40.8203-50.5371 54.0039-63.1836 69.8242-63.1836C82.373-63.1836 91.9922-56.1035 97.9004-44.3848C99.2188-41.8457 100.684-40.9668 103.711-40.9668C119.922-40.9668 129.346-31.1523 129.346-19.1406C129.346-7.27539 119.678 2.24609 106.885 2.24609Z"/>
  </g>
  <g id="Regular-L" transform="matrix(1 0 0 1 1362.95 1556)">
   <path d="M37.3535 11.9141L105.811 11.9141C123.73 11.9141 137.646-1.61133 137.646-18.9941C137.646-19.2871 137.646-19.5312 137.646-19.7754C159.033-20.3613 171.436-33.4473 175.195-44.6777C176.807-48.9746 174.512-52.7344 170.312-52.7344C166.797-52.7344 163.33-50.9277 156.396-50.9277C140.234-50.9277 131.348-60.1562 131.348-74.8047C131.348-82.4707 133.838-86.084 133.838-89.4531C133.838-93.9941 129.98-96.1426 125.098-94.6289C112.793-90.918 100.293-77.5391 100.293-59.375C100.293-58.3984 100.342-57.4707 100.391-56.4941C92.8223-66.2598 81.8359-72.1191 68.8965-72.1191C48.291-72.1191 31.1035-56.0059 29.1016-35.3516C18.6523-32.1777 11.2793-23.3398 11.2793-11.8652C11.2793 1.80664 21.582 11.9141 37.3535 11.9141ZM108.203-59.5703C108.203-73.1934 117.041-82.6172 125.293-86.377L125.879-85.9375C124.707-82.9102 123.633-78.5156 123.633-73.291C123.633-55.5176 136.475-43.2617 154.688-43.2617C159.229-43.2617 163.672-44.0918 166.846-45.166L167.236-44.7754C164.014-37.4512 153.906-27.6855 136.426-27.6367C133.008-39.0625 122.9-47.4121 109.814-49.2188C108.74-52.4902 108.203-55.957 108.203-59.5703ZM37.1582 3.36914C25.8789 3.36914 19.8242-3.27148 19.8242-11.6699C19.8242-18.8965 24.2676-25.0488 33.6914-27.6367C36.4258-28.3691 37.4023-29.541 37.6465-32.3242C39.0625-50.2441 52.6855-63.5254 68.8965-63.5254C81.8848-63.5254 91.6992-56.2012 97.6074-44.4336C98.8281-41.9922 100.195-41.1621 103.076-41.1621C119.287-41.1621 129.102-31.0547 129.102-18.75C129.102-6.49414 119.043 3.36914 105.957 3.36914Z"/>
  </g>
  <g id="Light-L" transform="matrix(1 0 0 1 1066.71 1556)">
   <path d="M36.5234 10.8398L105.322 10.8398C122.852 10.8398 136.475-2.39258 136.475-19.2871C136.475-19.6289 136.475-20.0195 136.475-20.3613C159.424-20.752 171.436-36.1328 173.828-45.9961C174.854-49.2676 173.047-52.002 169.873-52.002C166.748-52.002 162.793-49.8535 155.42-49.8535C139.209-49.8535 129.834-59.5215 129.834-74.2188C129.834-82.666 132.568-85.8887 132.568-89.0625C132.568-92.6758 129.59-94.3359 125.635-93.2617C114.697-90.5273 100.684-78.3203 100.684-59.1797C100.684-57.5684 100.781-55.957 100.977-54.3945C93.457-65.1855 82.2754-71.875 68.4082-71.875C48.1445-71.875 31.3477-55.7129 29.4434-35.1074C18.9941-32.1777 11.2793-23.6328 11.2793-12.1094C11.2793 0.830078 21.0449 10.8398 36.5234 10.8398ZM106.787-59.375C106.787-74.9512 117.822-84.2285 126.025-87.0117L126.416-86.6211C125.098-83.6426 123.877-78.9551 123.877-73.291C123.877-55.957 136.23-43.9453 154.395-43.9453C158.936-43.9453 163.818-44.8242 167.383-46.0449L167.725-45.8008C165.43-38.623 155.225-26.416 135.596-26.416C132.617-38.3789 122.119-47.1191 108.496-48.7305C107.324-52.0996 106.787-55.6641 106.787-59.375ZM36.4258 4.3457C24.3652 4.3457 17.7246-2.92969 17.7246-12.0117C17.7246-20.1172 22.998-26.5137 32.5684-29.248C34.9121-29.8828 35.6934-30.8594 35.8398-33.0566C37.207-51.2695 51.6113-65.3809 68.4082-65.3809C82.4707-65.3809 92.7246-57.2266 98.6328-45.4102C99.6582-43.3594 100.83-42.6758 103.271-42.6758C119.336-42.6758 130.029-32.1289 130.029-19.043C130.029-6.15234 119.287 4.3457 105.371 4.3457Z"/>
  </g>
  <g id="Thin-L" transform="matrix(1 0 0 1 770.607 1556)">
   <path d="M35.4492 9.32617L104.639 9.32617C121.68 9.32617 134.961-3.4668 134.961-19.6289C134.961-20.166 134.961-20.6543 134.912-21.1426C160.059-21.0449 171.582-39.7949 172.07-47.7539C172.314-49.6582 171.094-50.9766 169.287-50.9766C166.65-50.9766 162.012-48.4863 154.199-48.4863C137.891-48.4863 127.832-58.7402 127.832-73.4863C127.832-82.9102 130.908-85.5957 130.908-88.5742C130.908-90.9668 129.053-91.9434 126.318-91.4551C117.236-89.9902 101.221-79.3945 101.221-58.8867C101.221-56.1035 101.514-53.3203 102.1-50.5859C94.7754-63.2812 83.252-71.5332 67.7246-71.5332C47.998-71.5332 31.6895-55.3711 29.8828-34.8633C19.4824-32.1289 11.2793-24.0723 11.2793-12.5C11.2793-0.488281 20.3613 9.32617 35.4492 9.32617ZM104.883-59.082C104.883-77.2949 118.848-86.3281 126.953-87.793L127.197-87.5488C125.635-84.5703 124.17-79.5898 124.17-73.291C124.17-56.4941 135.938-44.8242 153.955-44.8242C158.594-44.8242 164.014-45.8008 168.115-47.2656L168.408-47.1191C167.383-40.1855 157.031-24.5117 134.473-24.8047C132.08-37.5 121.045-46.8262 106.592-48.0957C105.42-51.6113 104.883-55.2734 104.883-59.082ZM35.4004 5.66406C22.3145 5.66406 14.9902-2.49023 14.9902-12.4512C14.9902-21.6797 21.2891-28.4668 31.1035-31.3965C32.8613-31.9336 33.3984-32.5684 33.4961-34.0332C34.7656-52.6855 50.1465-67.8223 67.7246-67.8223C83.252-67.8223 94.043-58.5449 100-46.7285C100.781-45.166 101.66-44.6289 103.516-44.6289C119.385-44.6289 131.25-33.5449 131.25-19.4824C131.25-5.66406 119.58 5.66406 104.639 5.66406Z"/>
  </g>
  <g id="Ultralight-L" transform="matrix(1 0 0 1 474.213 1556)">
   <path d="M34.8633 8.59375L104.297 8.59375C121.045 8.59375 134.18-4.00391 134.18-19.8242C134.18-20.4102 134.131-20.9961 134.131-21.5332C160.352-20.9961 171.68-41.6992 171.191-48.6328C170.996-49.8535 170.117-50.4395 168.994-50.4395C166.602-50.4395 161.621-47.8027 153.516-47.8027C137.207-47.8027 126.807-58.3008 126.807-73.1445C126.807-83.0078 130.029-85.4492 130.029-88.2812C130.029-90.0879 128.809-90.7227 126.66-90.5762C118.506-89.7461 101.465-79.9316 101.465-58.7891C101.465-55.0781 102.051-51.416 103.076-47.8516L102.979-47.8516C95.752-61.8652 84.0332-71.3867 67.3828-71.3867C47.9004-71.3867 31.8359-55.2246 30.127-34.7168C19.7266-32.1289 11.2793-24.2676 11.2793-12.6953C11.2793-1.17188 20.0195 8.59375 34.8633 8.59375ZM103.906-58.9355C103.906-78.4668 119.336-87.4023 127.441-88.2324L127.588-87.9883C125.928-85.0586 124.316-79.8828 124.316-73.291C124.316-56.7871 135.742-45.3125 153.76-45.3125C158.447-45.3125 164.111-46.2891 168.506-47.8516L168.701-47.8027C168.408-41.0156 157.959-23.4375 133.838-24.0234C131.836-37.0605 120.459-46.7285 105.566-47.7539C104.443-51.3672 103.906-55.0781 103.906-58.9355ZM34.9121 6.29883C21.2891 6.29883 13.5742-2.24609 13.5742-12.6953C13.5742-22.4609 20.4102-29.4922 30.3711-32.5195C31.8359-32.959 32.2266-33.4473 32.3242-34.5703C33.4961-53.3691 49.4141-69.0918 67.3828-69.0918C83.6914-69.0918 94.7266-59.2285 100.684-47.4121C101.367-46.0938 102.1-45.6543 103.662-45.6543C119.434-45.6543 131.885-34.2773 131.885-19.6777C131.885-5.37109 119.727 6.29883 104.297 6.29883Z"/>
  </g>
  <g id="Black-M" transform="matrix(1 0 0 1 2860.94 1126)">
   <path d="M33.8867 3.4668L88.0859 3.4668C104.395 3.4668 117.09-9.0332 117.09-25.0977C117.09-25.4883 117.041-25.8789 117.041-26.2207C132.715-25.6836 146.191-34.668 151.123-49.3164C153.174-55.3711 150.635-60.4004 144.775-60.4004C140.527-60.4004 137.207-58.5449 131.738-58.5449C121.533-58.5449 116.699-64.0137 116.699-75.0977C116.699-81.4453 118.555-85.6445 118.555-88.3789C118.555-93.9941 113.428-96.6797 108.057-94.873C94.6289-90.3809 84.6191-77.1973 84.6191-62.8418C84.6191-62.0605 84.6191-61.2793 84.668-60.5469C78.418-67.4805 69.6289-71.0938 58.7402-71.0938C41.3086-71.0938 26.9531-58.9844 23.7305-41.6504C14.5508-38.623 8.74023-30.5176 8.74023-20.459C8.74023-6.64062 19.4336 3.4668 33.8867 3.4668ZM113.77-39.0137L113.77-38.8672C110.645-45.0195 105.371-49.707 98.877-52.1973C97.4121-55.4199 96.7285-58.9844 96.7285-62.8418C96.7285-70.4102 100.439-77.4414 106.348-81.543L106.982-81.2012C106.201-78.7598 105.469-75.3906 105.469-71.3867C105.469-57.5684 114.648-47.2656 129.053-47.2656C133.057-47.2656 135.498-48.0957 137.5-48.7793L137.939-48.3398C134.131-41.8945 125.537-37.8418 113.77-39.0137ZM34.4727-11.6211C27.3438-11.6211 23.877-15.1855 23.877-20.3125C23.877-25.0488 27.002-28.3691 33.5449-30.0293C36.4746-30.7617 37.1582-32.0801 37.6465-35.0098C40.1367-49.3652 48.2422-56.0547 58.7402-56.0547C66.6504-56.0547 73.3887-51.3672 78.125-42.7734C79.4434-40.4297 80.7617-39.5508 83.7402-39.5508C96.5332-39.5508 101.953-33.2031 101.953-24.9023C101.953-17.334 96.4844-11.6211 87.5-11.6211Z"/>
  </g>
  <g id="Heavy-M" transform="matrix(1 0 0 1 2565.38 1126)">
   <path d="M32.8125 3.125L86.7188 3.125C102.49 3.125 114.795-8.98438 114.795-24.5117C114.795-24.8047 114.746-25.1465 114.746-25.4395C130.518-25.1465 143.066-34.1797 147.656-47.5098C149.609-53.0762 147.168-57.7637 141.846-57.7637C137.891-57.7637 134.766-56.0547 129.395-56.0547C118.652-56.0547 113.379-61.8652 113.379-72.998C113.379-79.1504 115.234-83.0566 115.234-85.791C115.234-91.0645 110.498-93.5547 105.371-91.8457C92.6758-87.5977 82.9102-74.9023 82.9102-60.7422C82.9102-60.0586 82.959-59.375 82.959-58.7402C76.8066-65.6738 68.1152-69.3848 57.5684-69.3848C40.3809-69.3848 26.2207-57.2266 23.3887-40.1855C14.4531-37.2559 8.74023-29.3945 8.74023-19.6289C8.74023-6.44531 18.8477 3.125 32.8125 3.125ZM93.8477-60.791C93.8477-68.7988 98.0469-75.9277 104.053-79.8828L104.688-79.541C103.906-77.0996 103.174-73.7793 103.174-69.8242C103.174-55.957 112.598-45.8008 126.953-45.8008C130.811-45.8008 133.447-46.582 135.498-47.2656L135.889-46.8262C132.324-40.625 123.926-35.9375 112.012-36.8652C108.789-43.5547 102.979-48.6328 95.7031-50.9277C94.4824-53.9551 93.8477-57.2754 93.8477-60.791ZM33.2031-10.2539C25.8301-10.2539 22.168-14.1113 22.168-19.4824C22.168-24.3164 25.2441-27.9297 31.9336-29.6387C34.7656-30.3711 35.4492-31.6406 35.8887-34.4238C38.0371-48.6328 46.6309-56.0547 57.5684-56.0547C65.8203-56.0547 72.7051-51.2695 77.3926-42.5293C78.6621-40.2344 79.9316-39.4043 82.8125-39.4043C95.5566-39.4043 101.416-32.7637 101.416-24.3164C101.416-16.3574 95.4102-10.2539 86.2793-10.2539Z"/>
  </g>
  <g id="Bold-M" transform="matrix(1 0 0 1 2269.96 1126)">
   <path d="M31.6406 2.68555L85.1562 2.68555C100.391 2.68555 112.207-8.88672 112.207-23.7793C112.207-24.0723 112.207-24.3164 112.207-24.5605C127.979-24.5605 139.551-33.5449 143.848-45.5566C145.654-50.5371 143.359-54.7852 138.525-54.7852C134.912-54.7852 132.08-53.2715 126.758-53.2715C115.381-53.2715 109.668-59.4238 109.668-70.6543C109.668-76.5625 111.523-80.1758 111.523-82.9102C111.523-87.7441 107.178-90.0879 102.344-88.4277C90.4785-84.4727 81.0547-72.3633 81.0547-58.4473C81.0547-57.8613 81.0547-57.2266 81.1035-56.6406C75.0488-63.6719 66.4551-67.5293 56.2012-67.5293C39.4043-67.5293 25.4395-55.2246 23.0469-38.5254C14.4043-35.7422 8.74023-28.1738 8.74023-18.7012C8.74023-6.29883 18.2129 2.68555 31.6406 2.68555ZM90.6738-58.5449C90.6738-67.041 95.3613-74.2188 101.514-78.0273L102.1-77.6855C101.318-75.293 100.586-71.9238 100.586-68.0664C100.586-54.1504 110.303-44.1406 124.561-44.1406C128.32-44.1406 131.104-44.873 133.252-45.6055L133.643-45.166C130.273-39.1602 122.119-33.8867 110.059-34.4727C106.885-41.8457 100.439-47.3145 92.2852-49.4629C91.2109-52.2461 90.6738-55.3223 90.6738-58.5449ZM31.8359-8.74023C24.1699-8.74023 20.2148-12.8906 20.2148-18.5547C20.2148-23.4863 23.291-27.4414 30.127-29.1992C32.8125-29.8828 33.5449-31.1035 33.9355-33.7891C35.6934-47.8027 44.873-56.1035 56.2012-56.1035C64.8926-56.1035 71.9238-51.123 76.5625-42.2852C77.7832-40.0391 79.0039-39.2578 81.7383-39.2578C94.4824-39.2578 100.732-32.2754 100.732-23.584C100.732-15.2832 94.2871-8.74023 84.9609-8.74023Z"/>
  </g>
  <g id="Semibold-M" transform="matrix(1 0 0 1 1974.13 1126)">
   <path d="M30.8594 2.44141L84.1309 2.44141C98.9258 2.44141 110.449-8.83789 110.449-23.3398C110.449-23.5352 110.449-23.7305 110.449-23.9258C126.221-24.1699 137.109-33.1543 141.162-44.1895C142.92-48.7793 140.674-52.7832 136.23-52.7832C132.861-52.7832 130.176-51.3184 124.902-51.3184C113.184-51.3184 107.129-57.7637 107.129-69.043C107.129-74.8047 108.936-78.2227 108.936-80.957C108.936-85.4492 104.932-87.6953 100.293-86.084C88.9648-82.3242 79.7852-70.6055 79.7852-56.8359C79.7852-56.2988 79.7852-55.7617 79.7852-55.2246C73.7793-62.2559 65.2832-66.2109 55.2734-66.2109C38.6719-66.2109 24.9023-53.8574 22.8027-37.4023C14.3066-34.7168 8.74023-27.3438 8.74023-18.0664C8.74023-6.15234 17.7734 2.44141 30.8594 2.44141ZM88.4766-56.9824C88.4766-65.8203 93.5059-73.0469 99.7559-76.7578L100.342-76.3672C99.5605-74.0234 98.7793-70.7031 98.7793-66.8457C98.7793-52.8809 108.691-43.0176 122.949-43.0176C126.562-43.0176 129.541-43.7012 131.689-44.4336L132.08-44.043C128.857-38.1348 120.85-32.4707 108.643-32.8125C105.566-40.6738 98.6816-46.4355 89.9414-48.3398C88.9648-51.0254 88.4766-53.9551 88.4766-56.9824ZM30.9082-7.71484C22.998-7.71484 18.8965-12.1094 18.8965-17.8711C18.8965-22.9004 21.9238-27.0996 28.9062-28.9062C31.4453-29.5898 32.2754-30.7129 32.5684-33.3496C34.1309-47.2656 43.6035-56.1035 55.2734-56.1035C64.2578-56.1035 71.3867-51.0254 76.0254-42.0898C77.1484-39.9414 78.418-39.1602 81.0547-39.1602C93.7012-39.1602 100.293-31.9336 100.293-23.0957C100.293-14.502 93.5059-7.71484 84.0332-7.71484Z"/>
  </g>
  <g id="Medium-M" transform="matrix(1 0 0 1 1678.07 1126)">
   <path d="M30.2246 2.19727L83.3008 2.19727C97.8516 2.19727 109.082-8.78906 109.082-22.9492C109.082-23.1445 109.082-23.3398 109.082-23.4863C124.902-23.8281 135.303-32.8125 139.16-43.1152C140.869-47.4609 138.672-51.2207 134.521-51.2207C131.299-51.2207 128.76-49.8535 123.535-49.8535C111.475-49.8535 105.225-56.543 105.225-67.8223C105.225-73.4863 106.982-76.709 106.982-79.4434C106.982-83.7402 103.174-85.8398 98.6816-84.3262C87.793-80.7129 78.8086-69.2871 78.8086-55.6152C78.8086-55.127 78.8086-54.6387 78.8086-54.1504C72.8516-61.1816 64.4043-65.2344 54.5898-65.2344C38.1836-65.2344 24.5117-52.832 22.6074-36.5234C14.3066-33.9355 8.74023-26.6602 8.74023-17.5781C8.74023-6.05469 17.4316 2.19727 30.2246 2.19727ZM86.8164-55.7617C86.8164-64.8926 92.0898-72.168 98.4375-75.7812L98.9746-75.4395C98.1934-73.0469 97.4609-69.7266 97.4609-65.918C97.4609-51.9531 107.471-42.1875 121.68-42.1875C125.244-42.1875 128.32-42.8223 130.518-43.5547L130.859-43.1641C127.734-37.3535 119.873-31.4453 107.568-31.5918C104.59-39.7461 97.3633-45.752 88.1836-47.4609C87.2559-50.0977 86.8164-52.8809 86.8164-55.7617ZM30.1758-6.93359C22.1191-6.93359 17.8711-11.4746 17.8711-17.3828C17.8711-22.4609 20.8984-26.8066 27.9785-28.7109C30.4199-29.3457 31.25-30.4688 31.543-33.0078C32.9102-46.8262 42.6758-56.1035 54.5898-56.1035C63.7695-56.1035 70.9961-50.9766 75.5859-41.9434C76.709-39.8438 77.9297-39.0625 80.5176-39.0625C93.1641-39.0625 99.9512-31.6895 99.9512-22.7539C99.9512-13.916 92.8711-6.93359 83.3496-6.93359Z"/>
  </g>
  <g id="Regular-M" transform="matrix(1 0 0 1 1382.24 1126)">
   <path d="M29.4434 1.95312L82.2754 1.95312C96.3867 1.95312 107.324-8.74023 107.324-22.5098C107.324-22.6562 107.324-22.8027 107.324-22.9004C123.096-23.4375 132.91-32.373 136.523-41.7969C138.135-45.7031 136.084-49.2188 132.275-49.2188C129.297-49.2188 126.904-47.9492 121.729-47.9492C109.277-47.9492 102.686-54.8828 102.686-66.2109C102.686-71.7285 104.443-74.7559 104.443-77.4902C104.443-81.4941 100.928-83.4961 96.6309-82.0312C86.3281-78.6133 77.5391-67.5781 77.5391-54.0527C77.5391-53.6133 77.5391-53.1738 77.5391-52.7344C71.6309-59.8145 63.2324-63.9648 53.6621-63.9648C37.5-63.9648 23.9746-51.4648 22.3633-35.4004C14.209-32.8613 8.74023-25.8301 8.74023-16.9434C8.74023-5.95703 16.9922 1.95312 29.4434 1.95312ZM84.668-54.248C84.668-63.6719 90.2832-71.0449 96.7285-74.5117L97.2168-74.1699C96.4355-71.7773 95.6543-68.5059 95.6543-64.7461C95.6543-50.7324 105.908-41.0645 120.068-41.0645C123.535-41.0645 126.758-41.6504 129.004-42.3828L129.346-42.041C126.318-36.3281 118.555-30.0293 106.152-29.9805C103.32-38.5742 95.7031-44.8242 85.8887-46.3379C85.0586-48.8281 84.668-51.4648 84.668-54.248ZM29.248-5.85938C20.9473-5.85938 16.5527-10.6445 16.5527-16.748C16.5527-21.9238 19.5801-26.5137 26.7578-28.418C29.1016-29.0527 29.9805-30.0781 30.1758-32.5684C31.2988-46.2402 41.4551-56.1035 53.6621-56.1035C63.1348-56.1035 70.5078-50.8789 75.0488-41.7969C76.0742-39.6973 77.2949-38.9648 79.7852-38.9648C92.3828-38.9648 99.5117-31.3477 99.5117-22.2656C99.5117-13.1836 92.0898-5.85938 82.4219-5.85938Z"/>
  </g>
  <g id="Light-M" transform="matrix(1 0 0 1 1085.95 1126)">
   <path d="M28.6621 0.927734L81.8359 0.927734C95.6055 0.927734 106.299-9.42383 106.299-22.7539C106.299-22.998 106.299-23.2422 106.299-23.4375C123.389-23.877 132.861-34.7168 135.303-42.9688C136.377-45.9473 134.717-48.5352 131.836-48.5352C129.248-48.5352 126.416-47.0215 120.85-47.0215C108.35-47.0215 101.318-54.3457 101.318-65.7227C101.318-71.875 103.271-74.5605 103.271-77.1484C103.271-80.3223 100.586-81.8359 97.1191-80.8105C88.0371-78.2715 77.832-68.2617 77.832-53.8574C77.832-52.9297 77.8809-52.002 77.9785-51.0742C72.1191-58.9355 63.5254-63.7207 53.2227-63.7207C37.3535-63.7207 24.2188-51.2207 22.6562-35.2539C14.5508-32.8613 8.74023-26.123 8.74023-17.1875C8.74023-6.83594 16.5527 0.927734 28.6621 0.927734ZM83.3984-54.0527C83.3984-65.2344 90.9668-72.4609 97.3633-75.0977L97.7051-74.7559C96.7773-72.4121 95.8984-68.8965 95.8984-64.7461C95.8984-51.0742 105.664-41.6504 119.775-41.6504C123.291-41.6504 126.904-42.334 129.492-43.2129L129.785-42.9688C127.588-37.3535 119.678-28.9551 105.469-28.9551C102.93-37.9883 94.9707-44.5801 84.668-45.8984C83.7891-48.4863 83.3984-51.2207 83.3984-54.0527ZM28.5645-4.98047C19.5801-4.98047 14.6973-10.3516 14.6973-17.0898C14.6973-22.998 18.4082-27.832 25.7324-29.8828C27.7344-30.4199 28.418-31.25 28.5645-33.2031C29.6387-47.2168 40.4785-57.7637 53.2227-57.7637C63.6719-57.7637 71.3867-51.8066 75.9766-42.6758C76.8555-40.918 77.8809-40.332 79.9316-40.332C92.4316-40.332 100.342-32.3242 100.342-22.5586C100.342-12.8418 92.334-4.98047 81.9336-4.98047Z"/>
  </g>
  <g id="Thin-M" transform="matrix(1 0 0 1 789.796 1126)">
   <path d="M27.6855-0.341797L81.25-0.341797C94.5312-0.341797 104.932-10.4004 104.932-23.0957C104.932-23.4375 104.932-23.7793 104.883-24.1211C123.877-24.2188 132.91-37.9883 133.74-44.5312C134.082-46.3379 133.008-47.6562 131.299-47.6562C129.15-47.6562 125.684-45.8008 119.727-45.8008C107.129-45.8008 99.4629-53.6133 99.4629-65.0391C99.4629-72.1191 101.758-74.3164 101.758-76.6602C101.758-78.8086 100.098-79.6875 97.7051-79.1992C90.2832-77.7832 78.2715-69.2383 78.2715-53.6133C78.2715-51.8066 78.4668-49.9512 78.8086-48.1445C73.0469-57.4707 64.209-63.4277 52.6367-63.4277C37.207-63.4277 24.4629-50.9277 23.0469-35.0098C14.9902-32.8613 8.74023-26.4648 8.74023-17.5293C8.74023-8.00781 15.918-0.341797 27.6855-0.341797ZM81.6895-53.7598C81.6895-67.334 91.8457-74.3652 98.1934-75.7812L98.3887-75.5859C97.2168-73.2422 96.1426-69.4824 96.1426-64.7461C96.1426-51.6113 105.371-42.4805 119.385-42.4805C122.949-42.4805 127.051-43.2129 130.127-44.2871L130.322-44.1895C129.297-38.7207 121.289-27.3438 104.492-27.5391C102.49-37.207 94.043-44.2871 83.0078-45.3613C82.1289-47.998 81.6895-50.8301 81.6895-53.7598ZM27.6367-3.85742C17.7246-3.85742 12.207-9.96094 12.207-17.4805C12.207-24.3652 16.8457-29.5898 24.4141-31.7871C25.9277-32.2266 26.3672-32.8125 26.4648-34.082C27.4414-48.4375 39.209-59.9609 52.6367-59.9609C64.3555-59.9609 72.6074-53.0273 77.1973-43.8477C77.8809-42.5293 78.6133-42.0898 80.1758-42.0898C92.5293-42.0898 101.465-33.5938 101.465-22.9492C101.465-12.4023 92.627-3.85742 81.25-3.85742Z"/>
  </g>
  <g id="Ultralight-M" transform="matrix(1 0 0 1 493.354 1126)">
   <path d="M27.1973-1.02539L80.957-1.02539C93.9941-1.02539 104.199-10.8887 104.199-23.2422C104.199-23.6816 104.199-24.0723 104.199-24.5117C124.219-24.3164 132.959-39.6973 132.91-45.3613C132.861-46.4844 132.08-47.168 131.006-47.168C129.102-47.168 125.342-45.166 119.141-45.166C106.494-45.166 98.5352-53.2227 98.5352-64.6973C98.5352-72.2168 100.977-74.2188 100.977-76.416C100.977-78.0273 99.8535-78.6133 98.0469-78.3691C91.4551-77.5391 78.5156-69.7266 78.5156-53.5156C78.5156-50.9766 78.9062-48.3887 79.541-45.8984C73.877-56.3477 64.8926-63.2812 52.3438-63.2812C37.1582-63.2812 24.6094-50.7812 23.2422-34.8633C15.2344-32.8125 8.74023-26.6602 8.74023-17.6758C8.74023-8.64258 15.625-1.02539 27.1973-1.02539ZM80.8105-53.6133C80.8105-68.3594 92.334-75.3418 98.584-76.1719L98.7305-75.9766C97.4609-73.6816 96.2891-69.7266 96.2891-64.7461C96.2891-51.8555 105.225-42.9199 119.189-42.9199C122.803-42.9199 127.1-43.6523 130.42-44.8242L130.615-44.7754C130.176-39.4531 122.119-26.416 103.906-26.7578C102.246-36.8164 93.5059-44.1895 82.0801-45.0684C81.2012-47.8027 80.8105-50.6836 80.8105-53.6133ZM27.1973-3.22266C16.7969-3.22266 10.9375-9.76562 10.9375-17.7246C10.9375-25.0977 16.0645-30.4688 23.7305-32.7637C25-33.1543 25.3418-33.5938 25.3906-34.5703C26.3184-49.0723 38.5254-61.084 52.3438-61.084C64.7461-61.084 73.2422-53.6133 77.832-44.4824C78.3691-43.3594 79.0039-43.0176 80.2734-43.0176C92.5781-43.0176 102.002-34.2773 102.002-23.1445C102.002-12.1582 92.7734-3.22266 80.9082-3.22266Z"/>
  </g>
  <g id="Black-S" transform="matrix(1 0 0 1 2876.71 696)">
   <path d="M26.4648-4.93164L68.8965-4.93164C81.6406-4.93164 91.5527-14.6973 91.5527-27.2461C91.5527-27.5391 91.5527-27.832 91.5527-28.125C103.809-27.6855 114.307-34.7168 118.164-46.0938C119.775-50.8301 117.773-54.7363 113.232-54.7363C109.912-54.7363 107.324-53.3203 103.076-53.3203C95.0195-53.3203 91.2109-57.6172 91.2109-66.3086C91.2109-71.2402 92.6758-74.5117 92.6758-76.6602C92.6758-81.0547 88.6719-83.1543 84.4727-81.7383C73.9746-78.2227 66.1621-67.9199 66.1621-56.6895C66.1621-56.1035 66.1621-55.5176 66.2109-54.9316C61.3281-60.3516 54.4434-63.1836 45.9473-63.1836C32.2754-63.1836 21.0449-53.7109 18.5547-40.1367C11.377-37.793 6.83594-31.4453 6.83594-23.584C6.83594-12.793 15.1855-4.93164 26.4648-4.93164ZM75.5859-56.6895C75.5859-62.6465 78.5156-68.1641 83.1543-71.3867L83.6426-71.0938C83.0566-69.1895 82.4707-66.5527 82.4707-63.4277C82.4707-52.5879 89.6973-44.5312 100.977-44.5312C104.102-44.5312 106.006-45.166 107.568-45.7031L107.91-45.3613C104.932-40.332 98.1934-37.1094 88.9648-38.0371C86.4746-42.8223 82.373-46.4844 77.2461-48.3887C76.123-50.9277 75.5859-53.7109 75.5859-56.6895ZM26.9043-16.6504C21.3379-16.6504 18.6035-19.4336 18.6035-23.4863C18.6035-27.1973 21.0449-29.7852 26.1719-31.1035C28.4668-31.6895 29.0039-32.7148 29.3945-35.0098C31.2988-46.2402 37.6953-51.5137 45.9473-51.5137C52.1484-51.5137 57.4219-47.8516 61.1328-41.1133C62.1582-39.2578 63.1836-38.5742 65.5273-38.5742C75.5371-38.5742 79.834-33.5938 79.834-27.0996C79.834-21.1426 75.4883-16.6504 68.457-16.6504Z"/>
  </g>
  <g id="Heavy-S" transform="matrix(1 0 0 1 2580.83 696)">
   <path d="M25.7324-5.07812L67.9199-5.07812C80.2734-5.07812 89.8926-14.5508 89.8926-26.7578C89.8926-27.002 89.8926-27.1973 89.8926-27.4414C102.1-27.2461 111.914-34.082 115.674-44.6289C117.236-49.0723 115.283-52.7832 110.986-52.7832C107.861-52.7832 105.518-51.5137 101.367-51.5137C92.9199-51.5137 88.8184-56.0059 88.8184-64.7461C88.8184-69.4824 90.2344-72.5586 90.2344-74.7559C90.2344-78.9062 86.4258-80.957 82.3242-79.541C72.2656-76.123 64.8438-66.1133 64.8438-55.127C64.8438-54.6387 64.8438-54.1504 64.8926-53.7109C60.0586-59.082 53.2715-61.9141 45.0684-61.9141C31.5918-61.9141 20.5078-52.3926 18.2617-39.0137C11.2793-36.7676 6.83594-30.5664 6.83594-22.9004C6.83594-12.5488 14.7949-5.07812 25.7324-5.07812ZM73.5352-55.1758C73.5352-61.2305 76.6113-66.8457 81.3477-70.0684L81.8359-69.7754C81.25-67.8711 80.6641-65.2832 80.6641-62.207C80.6641-51.3184 88.1348-43.3594 99.3652-43.3594C102.393-43.3594 104.395-43.9453 105.957-44.4824L106.299-44.1406C103.418-39.2578 96.875-35.791 87.7441-36.4746C85.2051-41.6992 80.6641-45.7031 75-47.5098C74.0234-49.8535 73.5352-52.4414 73.5352-55.1758ZM26.0254-15.7227C20.3125-15.7227 17.4805-18.6523 17.4805-22.8027C17.4805-26.5137 19.8242-29.2969 25.0488-30.6641C27.2949-31.2012 27.8809-32.2266 28.2227-34.4727C29.8828-45.5566 36.5723-51.3672 45.0684-51.3672C51.4648-51.3672 56.7871-47.6562 60.498-40.8203C61.4746-39.0137 62.5-38.3301 64.7949-38.3301C74.8047-38.3301 79.2969-33.1543 79.2969-26.6113C79.2969-20.4102 74.6582-15.7227 67.5781-15.7227Z"/>
  </g>
  <g id="Bold-S" transform="matrix(1 0 0 1 2285.05 696)">
   <path d="M24.9512-5.27344L66.7969-5.27344C78.7598-5.27344 88.0859-14.4043 88.0859-26.1719C88.0859-26.3672 88.0859-26.5137 88.0859-26.709C100.146-26.7578 109.229-33.3496 112.842-42.9199C114.404-47.0703 112.5-50.6348 108.496-50.6348C105.615-50.6348 103.516-49.5117 99.4141-49.5117C90.5273-49.5117 86.1328-54.248 86.1328-63.0371C86.1328-67.4805 87.5-70.4102 87.5-72.5586C87.5-76.5625 83.9355-78.4668 79.9805-77.0996C70.3613-73.7793 63.3789-64.0625 63.3789-53.3691C63.3789-53.0273 63.3789-52.6855 63.3789-52.2949C58.5938-57.6172 51.9531-60.498 44.0918-60.498C30.8594-60.498 19.873-50.8789 17.9688-37.793C11.1816-35.5957 6.83594-29.5898 6.83594-22.168C6.83594-12.3047 14.3555-5.27344 24.9512-5.27344ZM71.2402-53.4668C71.2402-59.7168 74.4629-65.3809 79.2969-68.5547L79.7852-68.2617C79.1992-66.4062 78.6621-63.8184 78.6621-60.8887C78.6621-49.9023 86.377-41.9922 97.6074-41.9922C100.488-41.9922 102.637-42.5781 104.199-43.0664L104.492-42.7246C101.66-37.9883 95.3613-34.375 86.2793-34.8145C83.7891-40.4785 78.7598-44.7266 72.4609-46.3867C71.6797-48.584 71.2402-50.9766 71.2402-53.4668ZM25.0488-14.6484C19.1895-14.6484 16.2598-17.7734 16.2598-22.0703C16.2598-25.7324 18.457-28.7598 23.7793-30.127C25.9766-30.7129 26.6113-31.6895 26.9043-33.9355C28.3203-44.8242 35.3027-51.1719 44.0918-51.1719C50.6836-51.1719 56.1035-47.4609 59.7168-40.5273C60.6934-38.6719 61.7188-38.0371 63.9648-38.0371C73.9746-38.0371 78.7109-32.666 78.7109-26.0254C78.7109-19.6289 73.7793-14.6484 66.6504-14.6484Z"/>
  </g>
  <g id="Semibold-S" transform="matrix(1 0 0 1 1988.99 696)">
   <path d="M24.3652-5.41992L66.0156-5.41992C77.7344-5.41992 86.8164-14.3066 86.8164-25.8301C86.8164-25.9277 86.8164-26.0742 86.8164-26.1719C98.7793-26.3672 107.373-32.8125 110.889-41.7969C112.451-45.7031 110.596-49.1211 106.787-49.1211C104.053-49.1211 102.1-48.0957 98.0957-48.0957C88.916-48.0957 84.3262-53.0273 84.3262-61.8164C84.3262-66.1133 85.6445-68.8965 85.6445-71.0938C85.6445-74.9023 82.2266-76.8066 78.3203-75.4395C69.043-72.168 62.3535-62.6465 62.3535-52.1973C62.3535-51.9043 62.3535-51.6113 62.3535-51.3672C57.6172-56.5918 51.0254-59.5215 43.457-59.5215C30.3223-59.5215 19.4336-49.8535 17.7734-36.9629C11.1328-34.8145 6.83594-28.9062 6.83594-21.6797C6.83594-12.1582 14.0625-5.41992 24.3652-5.41992ZM69.6777-52.2949C69.6777-58.5938 72.9492-64.3555 77.8809-67.5293L78.3691-67.2363C77.7832-65.3809 77.2461-62.8418 77.2461-59.9609C77.2461-48.877 85.1562-41.1133 96.3379-41.1133C99.1699-41.1133 101.367-41.6016 102.979-42.1387L103.271-41.7969C100.488-37.1094 94.2871-33.3496 85.3027-33.6426C82.8125-39.6484 77.4902-44.043 70.8008-45.6055C70.0684-47.6562 69.6777-49.9512 69.6777-52.2949ZM24.4141-13.916C18.4082-13.916 15.3809-17.1875 15.3809-21.5332C15.3809-25.1953 17.5293-28.3691 22.9492-29.7852C25.0488-30.3223 25.7324-31.2988 25.9766-33.4961C27.2461-44.2871 34.4727-51.0254 43.457-51.0254C50.1465-51.0254 55.6152-47.3145 59.2285-40.332C60.1562-38.4766 61.2305-37.8418 63.4277-37.8418C73.3887-37.8418 78.2715-32.3242 78.2715-25.6348C78.2715-19.0918 73.1445-13.916 65.9668-13.916Z"/>
  </g>
  <g id="Medium-S" transform="matrix(1 0 0 1 1692.77 696)">
   <path d="M23.9746-5.51758L65.4297-5.51758C76.9531-5.51758 85.8398-14.209 85.8398-25.5371C85.8398-25.6348 85.8398-25.7324 85.8398-25.7812C97.7539-26.123 105.957-32.4219 109.424-40.918C110.986-44.6777 109.131-47.998 105.518-47.998C102.881-47.998 101.074-47.0215 97.0703-47.0215C87.6465-47.0215 82.9102-52.0996 82.9102-60.9375C82.9102-65.0879 84.2285-67.7734 84.2285-69.9707C84.2285-73.6816 80.957-75.4883 77.0996-74.1211C68.0664-70.9473 61.5723-61.6211 61.5723-51.2695C61.5723-51.0254 61.5723-50.8301 61.5723-50.6348C56.8848-55.8594 50.3418-58.7891 42.9199-58.7891C29.9316-58.7891 19.0918-49.0723 17.5781-36.3281C11.0352-34.1797 6.83594-28.418 6.83594-21.2891C6.83594-12.0117 13.8672-5.51758 23.9746-5.51758ZM68.5059-51.3672C68.5059-57.8125 71.8262-63.5742 76.8066-66.748L77.2949-66.4551C76.7578-64.5996 76.2207-62.0605 76.2207-59.2773C76.2207-48.1445 84.2773-40.3809 95.4102-40.3809C98.1934-40.3809 100.439-40.8691 102.002-41.4062L102.344-41.0645C99.5605-36.4746 93.457-32.6172 84.5215-32.7637C82.0801-38.9648 76.5625-43.5547 69.4824-44.9707C68.8477-46.9727 68.5059-49.1211 68.5059-51.3672ZM23.877-13.3789C17.8223-13.3789 14.7461-16.6992 14.7461-21.1426C14.7461-24.8047 16.7969-28.125 22.2656-29.541C24.3652-30.0781 25.0977-31.0059 25.293-33.2031C26.416-43.8965 33.7891-50.9277 42.9199-50.9277C49.7559-50.9277 55.2734-47.2168 58.8379-40.1367C59.7656-38.3301 60.791-37.6953 62.9883-37.6953C72.9492-37.6953 77.9785-32.0801 77.9785-25.3418C77.9785-18.6523 72.6562-13.3789 65.4785-13.3789Z"/>
  </g>
  <g id="Regular-S" transform="matrix(1 0 0 1 1396.7 696)">
   <path d="M23.4375-5.61523L64.6973-5.61523C75.8789-5.61523 84.6191-14.1113 84.6191-25.1465L84.6191-25.293C96.3379-25.7324 104.15-31.8848 107.52-39.7949C109.033-43.3105 107.227-46.5332 103.809-46.5332C101.318-46.5332 99.6582-45.6543 95.752-45.6543C86.0352-45.6543 81.1035-50.8789 81.1035-59.7168C81.1035-63.7695 82.3242-66.2598 82.3242-68.5059C82.3242-72.0215 79.248-73.8281 75.4883-72.4609C66.748-69.3848 60.5469-60.2051 60.5469-50.0488C60.5469-49.9512 60.5469-49.8047 60.5469-49.707C55.9082-54.8828 49.4141-57.8125 42.2852-57.8125C29.4434-57.8125 18.7012-48.0469 17.3828-35.4492C10.9863-33.3984 6.83594-27.7344 6.83594-20.8008C6.83594-11.8652 13.5742-5.61523 23.4375-5.61523ZM66.9434-50.1953C66.9434-56.7383 70.3613-62.5977 75.4395-65.7715L75.9277-65.4297C75.3418-63.5742 74.8535-61.084 74.8535-58.3496C74.8535-47.168 83.0566-39.502 94.1895-39.502C96.875-39.502 99.2188-39.9414 100.83-40.4785L101.074-40.1367C98.3887-35.5957 92.3828-31.6406 83.4961-31.6406C81.1523-38.1348 75.293-42.8711 67.8711-44.1406C67.2363-46.0449 66.9434-48.0957 66.9434-50.1953ZM23.2422-12.6465C17.0898-12.6465 13.8672-16.1133 13.8672-20.6055C13.8672-24.2676 15.8691-27.7344 21.4355-29.1992C23.4863-29.6875 24.2188-30.6641 24.4141-32.8125C25.3418-43.4082 32.959-50.7812 42.2852-50.7812C49.2188-50.7812 54.7852-47.0703 58.3496-39.9414C59.2285-38.1348 60.3027-37.5 62.4512-37.5C72.3633-37.5 77.5879-31.7383 77.5879-24.9512C77.5879-18.1152 72.0703-12.6465 64.7949-12.6465Z"/>
  </g>
  <g id="Light-S" transform="matrix(1 0 0 1 1100.35 696)">
   <path d="M22.7539-6.49414L64.2578-6.49414C75.1953-6.49414 83.6914-14.7461 83.6914-25.3418C83.6914-25.4883 83.6914-25.6836 83.6914-25.7812C96.5332-26.1719 104.102-33.9355 106.494-40.8203C107.52-43.5547 106.055-45.9473 103.467-45.9473C101.27-45.9473 99.2188-44.8242 95.0195-44.8242C85.2539-44.8242 79.8828-50.3906 79.8828-59.2773C79.8828-63.916 81.3477-66.1133 81.3477-68.2129C81.3477-70.9961 78.9551-72.3633 75.8789-71.3867C68.3105-69.0918 60.8398-60.8398 60.8398-49.9023C60.8398-49.3652 60.8887-48.8281 60.8887-48.3398C56.2988-54.1504 49.6582-57.6172 41.8457-57.6172C29.3457-57.6172 18.8965-47.8516 17.627-35.3027C11.2793-33.3984 6.83594-27.9785 6.83594-20.9961C6.83594-12.6465 13.1348-6.49414 22.7539-6.49414ZM65.8203-50.0488C65.8203-58.1543 70.9961-63.8672 76.0254-66.2598L76.3672-65.9668C75.6836-64.1113 75.0488-61.4746 75.0488-58.3496C75.0488-47.5098 82.8613-40.0391 93.9453-40.0391C96.6797-40.0391 99.3652-40.5273 101.27-41.1621L101.514-40.918C99.4629-36.4746 93.3105-30.7617 82.9102-30.7129C80.8105-37.5977 74.707-42.627 66.7969-43.75C66.1621-45.752 65.8203-47.8516 65.8203-50.0488ZM22.6562-11.8652C15.8691-11.8652 12.207-15.8691 12.207-20.8984C12.207-25.2441 14.8438-28.9062 20.5566-30.4688C22.2656-30.9082 22.8516-31.6895 22.998-33.3984C23.877-44.2383 32.0801-52.2461 41.8457-52.2461C49.6582-52.2461 55.5664-47.8516 59.1797-40.7227C59.9121-39.209 60.791-38.7207 62.5977-38.7207C72.4121-38.7207 78.3203-32.5684 78.3203-25.1953C78.3203-17.8223 72.2656-11.8652 64.3555-11.8652Z"/>
  </g>
  <g id="Thin-S" transform="matrix(1 0 0 1 804.103 696)">
   <path d="M21.875-7.66602L63.7695-7.66602C74.2676-7.66602 82.4707-15.5762 82.4707-25.6348C82.4707-25.9277 82.4707-26.1719 82.4219-26.416C96.9727-26.5137 104.102-36.7676 105.078-42.2363C105.469-43.8477 104.541-45.1172 102.979-45.1172C101.221-45.1172 98.6328-43.75 94.043-43.75C84.1797-43.75 78.3203-49.7559 78.3203-58.7402C78.3203-64.0625 80.0293-65.918 80.0293-67.7734C80.0293-69.6777 78.5156-70.5078 76.4648-69.9707C70.3125-68.6523 61.2793-61.6699 61.2793-49.707C61.2793-48.4375 61.377-47.2168 61.5723-45.9961C57.0312-52.9785 50.1465-57.373 41.3574-57.373C29.1992-57.373 19.1406-47.6074 17.9688-35.1074C11.6699-33.3496 6.83594-28.3203 6.83594-21.2891C6.83594-13.6719 12.5977-7.66602 21.875-7.66602ZM64.3066-49.8047C64.3066-59.9609 71.7773-65.5273 76.7578-66.8945L76.9531-66.6992C76.0742-64.8438 75.293-61.9629 75.293-58.3496C75.293-47.9492 82.6172-40.7715 93.6035-40.7715C96.4355-40.7715 99.5117-41.3086 101.807-42.1387L102.002-41.9922C100.977-37.6953 94.7266-29.3945 82.0312-29.4434C80.3711-36.9141 73.877-42.3828 65.3809-43.2617C64.6484-45.3125 64.3066-47.5098 64.3066-49.8047ZM21.8262-10.8398C14.2578-10.8398 10.0098-15.5273 10.0098-21.2402C10.0098-26.4648 13.5254-30.4688 19.3848-32.1777C20.6543-32.5195 21.0449-33.0078 21.1426-34.1797C21.9238-45.3613 30.957-54.1992 41.3574-54.1992C50.293-54.1992 56.6406-48.9258 60.2539-41.748C60.791-40.625 61.4258-40.2832 62.7441-40.2832C72.4609-40.2832 79.248-33.6914 79.248-25.5371C79.248-17.4316 72.5098-10.8398 63.8184-10.8398Z"/>
  </g>
  <g id="Ultralight-S" transform="matrix(1 0 0 1 507.66 696)">
   <path d="M21.4355-8.25195L63.4766-8.25195C73.7793-8.25195 81.8359-16.0156 81.8359-25.7812C81.8359-26.123 81.8359-26.416 81.7871-26.709C97.2168-26.6113 104.199-38.2812 104.346-42.9688C104.443-43.9941 103.76-44.7266 102.734-44.7266C101.172-44.7266 98.291-43.2129 93.5059-43.2129C83.6426-43.2129 77.4902-49.4629 77.4902-58.3984C77.4902-64.209 79.3457-65.8203 79.3457-67.5781C79.3457-68.9453 78.3203-69.5312 76.7578-69.2383C71.3379-68.457 61.4746-62.1094 61.4746-49.6094C61.4746-47.8027 61.7188-45.9961 62.1094-44.2383C57.666-52.0996 50.6348-57.2754 41.0645-57.2754C29.1016-57.2754 19.2383-47.4609 18.1641-35.0098C11.8652-33.3496 6.83594-28.4668 6.83594-21.4355C6.83594-14.209 12.3047-8.25195 21.4355-8.25195ZM63.5742-49.707C63.5742-60.9375 72.2168-66.4062 77.1484-67.1875L77.2949-67.041C76.3184-65.2344 75.3906-62.207 75.3906-58.3496C75.3906-48.1934 82.5195-41.1133 93.457-41.1133C96.2891-41.1133 99.6094-41.6992 102.148-42.627L102.295-42.5293C101.758-38.3301 95.459-28.5645 81.543-28.8086C80.1758-36.5723 73.4375-42.2852 64.5996-43.0176C63.8672-45.1172 63.5742-47.3633 63.5742-49.707ZM21.4355-10.3027C13.4277-10.3027 8.88672-15.332 8.88672-21.4355C8.88672-27.0996 12.793-31.25 18.7988-33.0566C19.8242-33.3496 20.1172-33.7402 20.166-34.5703C20.9473-45.8984 30.3711-55.1758 41.0645-55.1758C50.6348-55.1758 57.1777-49.4629 60.791-42.2852C61.2793-41.4062 61.7676-41.0645 62.8906-41.0645C72.5098-41.0645 79.7852-34.2773 79.7852-25.6836C79.7852-17.2363 72.6074-10.3027 63.4766-10.3027Z"/>
  </g>
 </g>
</svg>
