<?xml version="1.0" encoding="UTF-8"?>
<!--Generator: Apple Native CoreSVG 149-->
<!DOCTYPE svg
PUBLIC "-//W3C//DTD SVG 1.1//EN"
       "http://www.w3.org/Graphics/SVG/1.1/DTD/svg11.dtd">
<svg version="1.1" xmlns="http://www.w3.org/2000/svg" xmlns:xlink="http://www.w3.org/1999/xlink" width="3300" height="2200">
 <!--glyph: "uni10010F.medium", point size: 100.000000, font version: "Version 16.0d12e3", template writer version: "8"-->
 <g id="Notes">
  <rect height="2200" id="artboard" style="fill:white;opacity:1" width="3300" x="0" y="0"/>
  <line id="" style="fill:none;stroke:black;opacity:1;stroke-width:0.5;" x1="263" x2="3036" y1="292" y2="292"/>
  <text style="stroke:none;fill:black;font-family:-apple-system,&quot;SF Pro Display&quot;,&quot;SF Pro Text&quot;,Helvetica,sans-serif;font-weight:bold;" transform="matrix(1 0 0 1 263 322)">Weight/Scale Variations</text>
  <text style="stroke:none;fill:black;font-family:-apple-system,&quot;SF Pro Display&quot;,&quot;SF Pro Text&quot;,Helvetica,sans-serif;text-anchor:middle;" transform="matrix(1 0 0 1 559.711 322)">Ultralight</text>
  <text style="stroke:none;fill:black;font-family:-apple-system,&quot;SF Pro Display&quot;,&quot;SF Pro Text&quot;,Helvetica,sans-serif;text-anchor:middle;" transform="matrix(1 0 0 1 856.422 322)">Thin</text>
  <text style="stroke:none;fill:black;font-family:-apple-system,&quot;SF Pro Display&quot;,&quot;SF Pro Text&quot;,Helvetica,sans-serif;text-anchor:middle;" transform="matrix(1 0 0 1 1153.13 322)">Light</text>
  <text style="stroke:none;fill:black;font-family:-apple-system,&quot;SF Pro Display&quot;,&quot;SF Pro Text&quot;,Helvetica,sans-serif;text-anchor:middle;" transform="matrix(1 0 0 1 1449.84 322)">Regular</text>
  <text style="stroke:none;fill:black;font-family:-apple-system,&quot;SF Pro Display&quot;,&quot;SF Pro Text&quot;,Helvetica,sans-serif;text-anchor:middle;" transform="matrix(1 0 0 1 1746.56 322)">Medium</text>
  <text style="stroke:none;fill:black;font-family:-apple-system,&quot;SF Pro Display&quot;,&quot;SF Pro Text&quot;,Helvetica,sans-serif;text-anchor:middle;" transform="matrix(1 0 0 1 2043.27 322)">Semibold</text>
  <text style="stroke:none;fill:black;font-family:-apple-system,&quot;SF Pro Display&quot;,&quot;SF Pro Text&quot;,Helvetica,sans-serif;text-anchor:middle;" transform="matrix(1 0 0 1 2339.98 322)">Bold</text>
  <text style="stroke:none;fill:black;font-family:-apple-system,&quot;SF Pro Display&quot;,&quot;SF Pro Text&quot;,Helvetica,sans-serif;text-anchor:middle;" transform="matrix(1 0 0 1 2636.69 322)">Heavy</text>
  <text style="stroke:none;fill:black;font-family:-apple-system,&quot;SF Pro Display&quot;,&quot;SF Pro Text&quot;,Helvetica,sans-serif;text-anchor:middle;" transform="matrix(1 0 0 1 2933.4 322)">Black</text>
  <line id="" style="fill:none;stroke:black;opacity:1;stroke-width:0.5;" x1="263" x2="3036" y1="1903" y2="1903"/>
  <g id="" transform="matrix(1 0 0 1 263 1933)">
   <path d="M9.24805 0.830078C13.5547 0.830078 17.1387-2.74414 17.1387-7.05078C17.1387-11.3574 13.5449-14.9316 9.23828-14.9316C4.94141-14.9316 1.36719-11.3574 1.36719-7.05078C1.36719-2.74414 4.95117 0.830078 9.24805 0.830078ZM9.24805-0.654297C5.70312-0.654297 2.87109-3.49609 2.87109-7.05078C2.87109-10.6055 5.69336-13.4473 9.23828-13.4473C12.793-13.4473 15.6348-10.6055 15.6445-7.05078C15.6543-3.49609 12.8027-0.654297 9.24805-0.654297ZM9.22852-3.62305C9.69727-3.62305 9.9707-3.93555 9.9707-4.45312L9.9707-6.31836L12.002-6.31836C12.5-6.31836 12.832-6.57227 12.832-7.04102C12.832-7.51953 12.5195-7.7832 12.002-7.7832L9.9707-7.7832L9.9707-9.81445C9.9707-10.332 9.69727-10.6543 9.22852-10.6543C8.75977-10.6543 8.50586-10.3125 8.50586-9.81445L8.50586-7.7832L6.49414-7.7832C5.97656-7.7832 5.64453-7.51953 5.64453-7.04102C5.64453-6.57227 5.99609-6.31836 6.49414-6.31836L8.50586-6.31836L8.50586-4.45312C8.50586-3.95508 8.75977-3.62305 9.22852-3.62305Z"/>
  </g>
  <g id="" transform="matrix(1 0 0 1 281.506 1933)">
   <path d="M11.709 2.91016C17.1582 2.91016 21.6699-1.61133 21.6699-7.05078C21.6699-12.5 17.1484-17.0117 11.6992-17.0117C6.25977-17.0117 1.74805-12.5 1.74805-7.05078C1.74805-1.61133 6.26953 2.91016 11.709 2.91016ZM11.709 1.25C7.09961 1.25 3.41797-2.44141 3.41797-7.05078C3.41797-11.6602 7.08984-15.3516 11.6992-15.3516C16.3086-15.3516 20-11.6602 20.0098-7.05078C20.0195-2.44141 16.3184 1.25 11.709 1.25ZM11.6797-2.66602C12.207-2.66602 12.5098-3.01758 12.5098-3.59375L12.5098-6.23047L15.3223-6.23047C15.8691-6.23047 16.25-6.51367 16.25-7.03125C16.25-7.55859 15.8887-7.86133 15.3223-7.86133L12.5098-7.86133L12.5098-10.6836C12.5098-11.25 12.207-11.6113 11.6797-11.6113C11.1621-11.6113 10.8789-11.2305 10.8789-10.6836L10.8789-7.86133L8.07617-7.86133C7.50977-7.86133 7.13867-7.55859 7.13867-7.03125C7.13867-6.51367 7.5293-6.23047 8.07617-6.23047L10.8789-6.23047L10.8789-3.59375C10.8789-3.03711 11.1621-2.66602 11.6797-2.66602Z"/>
  </g>
  <g id="" transform="matrix(1 0 0 1 304.924 1933)">
   <path d="M14.9707 5.66406C21.9336 5.66406 27.6953-0.0976562 27.6953-7.05078C27.6953-14.0137 21.9238-19.7754 14.9609-19.7754C8.00781-19.7754 2.25586-14.0137 2.25586-7.05078C2.25586-0.0976562 8.01758 5.66406 14.9707 5.66406ZM14.9707 3.84766C8.93555 3.84766 4.08203-1.01562 4.08203-7.05078C4.08203-13.0957 8.92578-17.9492 14.9609-17.9492C21.0059-17.9492 25.8594-13.0957 25.8691-7.05078C25.8789-1.01562 21.0156 3.84766 14.9707 3.84766ZM14.9414-1.38672C15.5176-1.38672 15.8594-1.77734 15.8594-2.38281L15.8594-6.13281L19.7754-6.13281C20.3711-6.13281 20.7812-6.46484 20.7812-7.02148C20.7812-7.59766 20.3906-7.93945 19.7754-7.93945L15.8594-7.93945L15.8594-11.8652C15.8594-12.4805 15.5176-12.8711 14.9414-12.8711C14.375-12.8711 14.0527-12.4609 14.0527-11.8652L14.0527-7.93945L10.1465-7.93945C9.53125-7.93945 9.13086-7.59766 9.13086-7.02148C9.13086-6.46484 9.55078-6.13281 10.1465-6.13281L14.0527-6.13281L14.0527-2.38281C14.0527-1.79688 14.375-1.38672 14.9414-1.38672Z"/>
  </g>
  <text style="stroke:none;fill:black;font-family:-apple-system,&quot;SF Pro Display&quot;,&quot;SF Pro Text&quot;,Helvetica,sans-serif;font-weight:bold;" transform="matrix(1 0 0 1 263 1953)">Design Variations</text>
  <text style="stroke:none;fill:black;font-family:-apple-system,&quot;SF Pro Display&quot;,&quot;SF Pro Text&quot;,Helvetica,sans-serif;" transform="matrix(1 0 0 1 263 1971)">Symbols are supported in up to nine weights and three scales.</text>
  <text style="stroke:none;fill:black;font-family:-apple-system,&quot;SF Pro Display&quot;,&quot;SF Pro Text&quot;,Helvetica,sans-serif;" transform="matrix(1 0 0 1 263 1989)">For optimal layout with text and other symbols, vertically align</text>
  <text style="stroke:none;fill:black;font-family:-apple-system,&quot;SF Pro Display&quot;,&quot;SF Pro Text&quot;,Helvetica,sans-serif;" transform="matrix(1 0 0 1 263 2007)">symbols with the adjacent text.</text>
  <line id="" style="fill:none;stroke:#00AEEF;stroke-width:0.5;opacity:1.0;" x1="776" x2="776" y1="1919" y2="1933"/>
  <g id="" transform="matrix(1 0 0 1 776 1933)">
   <path d="M3.31055 0.126953C3.82812 0.126953 4.08203-0.0683594 4.26758-0.605469L5.52734-4.0625L11.2891-4.0625L12.5488-0.605469C12.7344-0.0683594 12.9883 0.126953 13.4961 0.126953C14.0137 0.126953 14.3457-0.185547 14.3457-0.673828C14.3457-0.839844 14.3164-0.986328 14.2383-1.20117L9.6582-13.3887C9.43359-13.9941 9.0332-14.2871 8.4082-14.2871C7.80273-14.2871 7.39258-13.9941 7.17773-13.3984L2.59766-1.19141C2.51953-0.976562 2.49023-0.830078 2.49023-0.664062C2.49023-0.175781 2.80273 0.126953 3.31055 0.126953ZM6.00586-5.53711L8.37891-12.1094L8.42773-12.1094L10.8008-5.53711Z"/>
  </g>
  <line id="" style="fill:none;stroke:#00AEEF;stroke-width:0.5;opacity:1.0;" x1="792.836" x2="792.836" y1="1919" y2="1933"/>
  <text style="stroke:none;fill:black;font-family:-apple-system,&quot;SF Pro Display&quot;,&quot;SF Pro Text&quot;,Helvetica,sans-serif;font-weight:bold;" transform="matrix(1 0 0 1 776 1953)">Margins</text>
  <text style="stroke:none;fill:black;font-family:-apple-system,&quot;SF Pro Display&quot;,&quot;SF Pro Text&quot;,Helvetica,sans-serif;" transform="matrix(1 0 0 1 776 1971)">Leading and trailing margins on the left and right side of each symbol</text>
  <text style="stroke:none;fill:black;font-family:-apple-system,&quot;SF Pro Display&quot;,&quot;SF Pro Text&quot;,Helvetica,sans-serif;" transform="matrix(1 0 0 1 776 1989)">can be adjusted by modifying the x-location of the margin guidelines.</text>
  <text style="stroke:none;fill:black;font-family:-apple-system,&quot;SF Pro Display&quot;,&quot;SF Pro Text&quot;,Helvetica,sans-serif;" transform="matrix(1 0 0 1 776 2007)">Modifications are automatically applied proportionally to all</text>
  <text style="stroke:none;fill:black;font-family:-apple-system,&quot;SF Pro Display&quot;,&quot;SF Pro Text&quot;,Helvetica,sans-serif;" transform="matrix(1 0 0 1 776 2025)">scales and weights.</text>
  <g id="" transform="matrix(1 0 0 1 1289 1933)">
   <path d="M2.8418 1.86523L4.54102 3.57422C5.40039 4.44336 6.38672 4.38477 7.31445 3.35938L17.4902-7.85156C17.7539-7.76367 18.0273-7.7832 18.3398-7.8418L19.4043-8.03711L20.0684-7.36328L20.0293-6.80664C19.9902-6.30859 20.1172-5.92773 20.6055-5.44922L21.3672-4.70703C21.8457-4.22852 22.4609-4.19922 22.9297-4.66797L25.8398-7.58789C26.3086-8.05664 26.2891-8.65234 25.8105-9.13086L25.0391-9.89258C24.5605-10.3711 24.1895-10.5273 23.7109-10.4883L23.1348-10.4395L22.4902-11.0742L22.7344-12.1973C22.8613-12.7637 22.7051-13.2031 22.1191-13.7891L19.9219-15.9766C16.582-19.2969 12.1484-19.2188 9.25781-16.3281C8.83789-15.918 8.80859-15.3418 9.04297-14.9512C9.27734-14.5898 9.73633-14.3555 10.3809-14.5215C11.8457-14.8633 13.3691-14.9219 14.7949-13.9844L14.209-12.5293C14.0137-12.0508 13.9844-11.6504 14.1113-11.2891L3.04688-0.898438C2.06055 0.0195312 1.98242 0.996094 2.8418 1.86523ZM10.752-15.957C13.1836-17.7344 16.4746-17.4316 18.7012-15.2051L21.1328-12.793C21.3672-12.5586 21.4062-12.373 21.3379-12.0312L21.0156-10.5469L22.5195-9.0625L23.5059-9.12109C23.7598-9.13086 23.8379-9.11133 24.0332-8.91602L24.6094-8.33984L22.168-5.89844L21.5918-6.47461C21.3965-6.66992 21.3672-6.74805 21.377-7.01172L21.4453-7.98828L19.9512-9.47266L18.4277-9.21875C18.1055-9.15039 17.959-9.17969 17.7148-9.41406L15.7129-11.416C15.459-11.6504 15.4297-11.8164 15.5859-12.1875L16.4648-14.2773C14.9023-15.7324 12.8711-16.3574 10.8398-15.7617C10.6836-15.7227 10.625-15.8496 10.752-15.957ZM5.27344 2.30469L4.10156 1.14258C3.63281 0.683594 3.74023 0.341797 4.14062-0.0195312L14.9512-10.1953L16.416-8.71094L6.42578 2.27539C6.07422 2.67578 5.74219 2.77344 5.27344 2.30469Z"/>
  </g>
  <text style="stroke:none;fill:black;font-family:-apple-system,&quot;SF Pro Display&quot;,&quot;SF Pro Text&quot;,Helvetica,sans-serif;font-weight:bold;" transform="matrix(1 0 0 1 1289 1953)">Exporting</text>
  <text style="stroke:none;fill:black;font-family:-apple-system,&quot;SF Pro Display&quot;,&quot;SF Pro Text&quot;,Helvetica,sans-serif;" transform="matrix(1 0 0 1 1289 1971)">Symbols should be outlined when exporting to ensure the</text>
  <text style="stroke:none;fill:black;font-family:-apple-system,&quot;SF Pro Display&quot;,&quot;SF Pro Text&quot;,Helvetica,sans-serif;" transform="matrix(1 0 0 1 1289 1989)">design is preserved when submitting to Xcode.</text>
  <text id="template-version" style="stroke:none;fill:black;font-family:-apple-system,&quot;SF Pro Display&quot;,&quot;SF Pro Text&quot;,Helvetica,sans-serif;text-anchor:end;" transform="matrix(1 0 0 1 3036 1933)">Template v.2.0</text>
  <text style="stroke:none;fill:black;font-family:-apple-system,&quot;SF Pro Display&quot;,&quot;SF Pro Text&quot;,Helvetica,sans-serif;text-anchor:end;" transform="matrix(1 0 0 1 3036 1951)">Requires Xcode 12 or greater</text>
  <text style="stroke:none;fill:black;font-family:-apple-system,&quot;SF Pro Display&quot;,&quot;SF Pro Text&quot;,Helvetica,sans-serif;text-anchor:end;" transform="matrix(1 0 0 1 3036 1969)">Generated from arrow.up.arrow.down.square.fill</text>
  <text style="stroke:none;fill:black;font-family:-apple-system,&quot;SF Pro Display&quot;,&quot;SF Pro Text&quot;,Helvetica,sans-serif;text-anchor:end;" transform="matrix(1 0 0 1 3036 1987)">Typeset at 100 points</text>
  <text style="stroke:none;fill:black;font-family:-apple-system,&quot;SF Pro Display&quot;,&quot;SF Pro Text&quot;,Helvetica,sans-serif;" transform="matrix(1 0 0 1 263 726)">Small</text>
  <text style="stroke:none;fill:black;font-family:-apple-system,&quot;SF Pro Display&quot;,&quot;SF Pro Text&quot;,Helvetica,sans-serif;" transform="matrix(1 0 0 1 263 1156)">Medium</text>
  <text style="stroke:none;fill:black;font-family:-apple-system,&quot;SF Pro Display&quot;,&quot;SF Pro Text&quot;,Helvetica,sans-serif;" transform="matrix(1 0 0 1 263 1586)">Large</text>
 </g>
 <g id="Guides">
  <g id="H-reference" style="fill:#27AAE1;stroke:none;" transform="matrix(1 0 0 1 339 696)">
   <path d="M0.976562 0L3.66211 0L12.9883-24.4629L45.752-24.4629L55.127 0L57.7637 0L30.6152-70.459L28.125-70.459ZM29.3457-67.1387L29.4434-67.1387L44.873-26.709L13.8672-26.709Z"/>
  </g>
  <line id="Baseline-S" style="fill:none;stroke:#27AAE1;opacity:1;stroke-width:0.5;" x1="263" x2="3036" y1="696" y2="696"/>
  <line id="Capline-S" style="fill:none;stroke:#27AAE1;opacity:1;stroke-width:0.5;" x1="263" x2="3036" y1="625.541" y2="625.541"/>
  <g id="H-reference" style="fill:#27AAE1;stroke:none;" transform="matrix(1 0 0 1 339 1126)">
   <path d="M0.976562 0L3.66211 0L12.9883-24.4629L45.752-24.4629L55.127 0L57.7637 0L30.6152-70.459L28.125-70.459ZM29.3457-67.1387L29.4434-67.1387L44.873-26.709L13.8672-26.709Z"/>
  </g>
  <line id="Baseline-M" style="fill:none;stroke:#27AAE1;opacity:1;stroke-width:0.5;" x1="263" x2="3036" y1="1126" y2="1126"/>
  <line id="Capline-M" style="fill:none;stroke:#27AAE1;opacity:1;stroke-width:0.5;" x1="263" x2="3036" y1="1055.54" y2="1055.54"/>
  <g id="H-reference" style="fill:#27AAE1;stroke:none;" transform="matrix(1 0 0 1 339 1556)">
   <path d="M0.976562 0L3.66211 0L12.9883-24.4629L45.752-24.4629L55.127 0L57.7637 0L30.6152-70.459L28.125-70.459ZM29.3457-67.1387L29.4434-67.1387L44.873-26.709L13.8672-26.709Z"/>
  </g>
  <line id="Baseline-L" style="fill:none;stroke:#27AAE1;opacity:1;stroke-width:0.5;" x1="263" x2="3036" y1="1556" y2="1556"/>
  <line id="Capline-L" style="fill:none;stroke:#27AAE1;opacity:1;stroke-width:0.5;" x1="263" x2="3036" y1="1485.54" y2="1485.54"/>
  <line id="left-margin" style="fill:none;stroke:#00AEEF;stroke-width:0.5;opacity:1.0;" x1="1392.45" x2="1392.45" y1="1030.79" y2="1150.12"/>
  <line id="right-margin" style="fill:none;stroke:#00AEEF;stroke-width:0.5;opacity:1.0;" x1="1507.24" x2="1507.24" y1="1030.79" y2="1150.12"/>
 </g>
 <g id="Symbols">
  <g id="Black-L" transform="matrix(1 0 0 1 2855.62 1556)">
   <path d="M39.9902 26.5137L115.576 26.5137C130.811 26.5137 139.502 17.8711 139.502 2.68555L139.502-73.0957C139.502-88.2812 130.811-96.875 115.576-96.875L39.9902-96.875C24.7559-96.875 16.0645-88.2812 16.0645-73.0957L16.0645 2.68555C16.0645 17.8711 24.7559 26.5137 39.9902 26.5137ZM101.367-5.0293C99.0723-2.68555 95.4102-2.73438 93.2129-5.0293L77.7344-21.0449C76.7578-22.0703 76.0742-23.4863 76.0742-24.9023C76.0742-28.125 78.2715-30.3711 81.4453-30.3711C82.959-30.3711 84.3262-29.8828 85.3516-28.7598L91.4062-22.4609L91.748-21.9727L91.748-61.8652C91.748-64.9414 94.0918-67.334 97.2656-67.334C100.391-67.334 102.832-64.9414 102.832-61.8652L102.832-25.4883L102.783-22.0215L103.174-22.4609L109.229-28.7598C110.254-29.834 111.572-30.3711 113.037-30.3711C116.211-30.3711 118.457-28.125 118.457-24.9023C118.457-23.4863 117.822-22.0703 116.846-21.0449ZM55.4199-65.4785C57.7148-67.9688 61.3281-67.8223 63.5742-65.4785L79.0039-49.5117C80.0293-48.4863 80.7617-47.0703 80.7617-45.6055C80.7617-42.4316 78.4668-40.1855 75.293-40.1855C73.8281-40.1855 72.4609-40.6738 71.4355-41.748L65.3809-48.0957L64.9902-48.584L65.0391-45.0684L65.0391-8.69141C65.0391-5.61523 62.7441-3.22266 59.5215-3.22266C56.3965-3.22266 53.9551-5.61523 53.9551-8.69141L53.9551-45.0684L54.0039-48.584L53.6133-48.0957L47.5586-41.748C46.5332-40.6738 45.2148-40.1855 43.75-40.1855C40.5762-40.1855 38.3301-42.4316 38.3301-45.6055C38.3301-47.0215 38.9648-48.4375 39.9414-49.5117Z"/>
  </g>
  <g id="Heavy-L" transform="matrix(1 0 0 1 2559.93 1556)">
   <path d="M38.8184 25.4883L114.697 25.4883C129.346 25.4883 137.451 17.4316 137.451 2.88086L137.451-73.2422C137.451-87.793 129.346-95.8496 114.697-95.8496L38.8184-95.8496C24.2188-95.8496 16.0645-87.793 16.0645-73.2422L16.0645 2.88086C16.0645 17.4316 24.2188 25.4883 38.8184 25.4883ZM100.146-4.93164C97.998-2.7832 94.6289-2.83203 92.5781-4.93164L76.9043-21.0938C75.9766-22.0703 75.3418-23.3887 75.3418-24.707C75.3418-27.6367 77.3926-29.7363 80.3223-29.7363C81.6895-29.7363 82.959-29.248 83.9355-28.2715L90.2832-21.6797L91.3086-20.5078L91.2598-24.0234L91.2598-62.207C91.2598-65.0391 93.4082-67.2363 96.3379-67.2363C99.2188-67.2363 101.465-65.0391 101.465-62.207L101.465-24.0234L101.416-20.5078L102.441-21.6797L108.789-28.2715C109.717-29.248 110.986-29.7363 112.305-29.7363C115.283-29.7363 117.334-27.6367 117.334-24.707C117.334-23.3887 116.699-22.0703 115.82-21.0938ZM54.3457-65.5762C56.4941-67.8223 59.7656-67.6758 61.8652-65.5762L77.5391-49.4141C78.4668-48.4863 79.1504-47.1191 79.1504-45.8008C79.1504-42.8711 77.0508-40.7715 74.1211-40.7715C72.7539-40.7715 71.4844-41.2598 70.5566-42.2363L64.209-48.877L63.1348-50.0488L63.2324-46.4844L63.2324-8.30078C63.2324-5.46875 61.084-3.27148 58.1055-3.27148C55.2734-3.27148 53.0273-5.46875 53.0273-8.30078L53.0273-46.4844L53.0762-50.0488L52.002-48.877L45.6543-42.2852C44.7266-41.2598 43.5059-40.7715 42.1387-40.7715C39.209-40.7715 37.1094-42.8711 37.1094-45.8008C37.1094-47.0703 37.7441-48.4375 38.6719-49.4141Z"/>
  </g>
  <g id="Bold-L" transform="matrix(1 0 0 1 2264.37 1556)">
   <path d="M37.5 24.3652L113.721 24.3652C127.637 24.3652 135.156 16.8945 135.156 3.07617L135.156-73.3887C135.156-87.207 127.637-94.7266 113.721-94.7266L37.5-94.7266C23.6328-94.7266 16.0645-87.2559 16.0645-73.3887L16.0645 3.07617C16.0645 16.8945 23.6328 24.3652 37.5 24.3652ZM98.7305-4.83398C96.8262-2.92969 93.75-2.97852 91.9434-4.83398L75.9766-21.1914C75.0977-22.1191 74.6094-23.291 74.6094-24.4629C74.6094-27.1484 76.416-29.0039 79.0527-29.0039C80.3223-29.0039 81.4941-28.5645 82.3242-27.6855L88.9648-20.8008L90.8203-18.8477L90.7227-22.4121L90.7227-62.5488C90.7227-65.1367 92.6758-67.1387 95.3125-67.1387C97.9004-67.1387 99.9023-65.1855 99.9023-62.5488L99.9023-22.4121L99.8535-18.8477L101.66-20.8008L108.35-27.6855C109.18-28.5156 110.303-29.0039 111.523-29.0039C114.209-29.0039 116.064-27.0996 116.064-24.4629C116.064-23.291 115.479-22.0703 114.697-21.1914ZM53.1738-65.625C55.127-67.6758 58.0566-67.5293 59.9121-65.625L75.8789-49.2676C76.709-48.4375 77.3438-47.2168 77.3438-45.9961C77.3438-43.3594 75.3906-41.4551 72.8027-41.4551C71.582-41.4551 70.4102-41.8945 69.5312-42.7734L62.8906-49.707L61.084-51.709L61.1816-48.0957L61.1816-7.91016C61.1816-5.37109 59.2285-3.36914 56.543-3.36914C53.9551-3.36914 51.9531-5.32227 51.9531-7.91016L51.9531-48.0469L52.002-51.709L50.1953-49.707L43.5547-42.8711C42.6758-41.9434 41.5527-41.4551 40.332-41.4551C37.6953-41.4551 35.791-43.4082 35.791-45.9961C35.791-47.168 36.377-48.3887 37.207-49.2676Z"/>
  </g>
  <g id="Semibold-L" transform="matrix(1 0 0 1 1968.44 1556)">
   <path d="M36.6211 23.584L113.037 23.584C126.514 23.584 133.594 16.5039 133.594 3.17383L133.594-73.5352C133.594-86.8164 126.514-93.9453 113.037-93.9453L36.6211-93.9453C23.1934-93.9453 16.0645-86.8652 16.0645-73.5352L16.0645 3.17383C16.0645 16.5527 23.1934 23.584 36.6211 23.584ZM97.8027-4.78516C96.0449-3.02734 93.1641-3.07617 91.4551-4.78516L75.3418-21.2402C74.5117-22.1191 74.0723-23.2422 74.0723-24.3164C74.0723-26.8066 75.7324-28.5156 78.1738-28.5156C79.3457-28.5156 80.4199-28.125 81.25-27.2461L88.0859-20.2148L90.4297-17.6758L90.332-21.2891L90.332-62.8418C90.332-65.2344 92.1387-67.041 94.6289-67.041C97.0215-67.041 98.877-65.2344 98.877-62.8418L98.877-21.3379L98.7793-17.7246L101.123-20.2148L108.008-27.2461C108.789-28.0762 109.863-28.5156 110.986-28.5156C113.477-28.5156 115.234-26.7578 115.234-24.3164C115.234-23.1934 114.648-22.0703 113.867-21.2402ZM52.3438-65.6738C54.1504-67.5293 56.8848-67.3828 58.5938-65.6738L74.7559-49.2188C75.5371-48.3887 76.0742-47.2656 76.0742-46.1426C76.0742-43.7012 74.3164-41.9434 71.9238-41.9434C70.752-41.9434 69.6777-42.3828 68.8477-43.1641L61.9629-50.293L59.668-52.832L59.7656-49.1699L59.7656-7.61719C59.7656-5.27344 58.0078-3.4668 55.4688-3.4668C53.0762-3.4668 51.2207-5.27344 51.2207-7.61719L51.2207-49.1211L51.3184-52.832L48.9746-50.293L42.0898-43.2617C41.3086-42.3828 40.2344-41.9434 39.1113-41.9434C36.6699-41.9434 34.8633-43.75 34.8633-46.1426C34.8633-47.2168 35.4492-48.3398 36.1816-49.2188Z"/>
  </g>
  <g id="Medium-L" transform="matrix(1 0 0 1 1672.31 1556)">
   <path d="M35.9375 22.998L112.5 22.998C125.635 22.998 132.422 16.2109 132.422 3.27148L132.422-73.6328C132.422-86.5234 125.635-93.3105 112.5-93.3105L35.9375-93.3105C22.9004-93.3105 16.0645-86.5723 16.0645-73.6328L16.0645 3.27148C16.0645 16.2598 22.9004 22.998 35.9375 22.998ZM97.0703-4.73633C95.4102-3.125 92.6758-3.125 91.1133-4.73633L74.8535-21.2891C74.0723-22.1191 73.6328-23.1934 73.6328-24.2188C73.6328-26.5137 75.2441-28.125 77.5391-28.125C78.6621-28.125 79.6387-27.7832 80.4199-26.9531L87.4512-19.7754L90.1855-16.7969L90.0391-20.4102L90.0391-63.0371C90.0391-65.2832 91.748-66.9922 94.0918-66.9922C96.3379-66.9922 98.0957-65.2832 98.0957-63.0371L98.0957-20.459L97.998-16.8457L100.732-19.7754L107.764-26.9531C108.496-27.6855 109.521-28.125 110.596-28.125C112.891-28.125 114.551-26.5137 114.551-24.2188C114.551-23.1445 114.014-22.0703 113.281-21.2891ZM51.709-65.7227C53.418-67.4316 55.957-67.334 57.5684-65.7227L73.877-49.1699C74.6094-48.3887 75.0977-47.3145 75.0977-46.2402C75.0977-43.9453 73.4375-42.2852 71.1914-42.2852C70.1172-42.2852 69.0918-42.7246 68.3594-43.457L61.2793-50.7324L58.5449-53.6621L58.6914-50L58.6914-7.42188C58.6914-5.22461 57.0312-3.51562 54.6875-3.51562C52.3926-3.51562 50.6836-5.17578 50.6836-7.42188L50.6836-49.9512L50.7812-53.6621L47.998-50.7324L40.9668-43.5547C40.2344-42.7734 39.209-42.2852 38.1836-42.2852C35.8887-42.2852 34.1797-43.9941 34.1797-46.2402C34.1797-47.2168 34.7168-48.291 35.4492-49.1699Z"/>
  </g>
  <g id="Regular-L" transform="matrix(1 0 0 1 1376.38 1556)">
   <path d="M35.0586 22.2168L111.816 22.2168C124.463 22.2168 130.859 15.8691 130.859 3.41797L130.859-73.7305C130.859-86.1816 124.463-92.5293 111.816-92.5293L35.0586-92.5293C22.4609-92.5293 16.0645-86.2305 16.0645-73.7305L16.0645 3.41797C16.0645 15.918 22.4609 22.2168 35.0586 22.2168ZM96.0938-4.63867C94.6289-3.22266 92.0898-3.22266 90.6738-4.63867L74.1699-21.3379C73.4863-22.168 73.0957-23.0957 73.0957-24.0723C73.0957-26.1719 74.5605-27.6367 76.6602-27.6367C77.6855-27.6367 78.6133-27.2949 79.3457-26.5625L86.5723-19.1895L89.8438-15.6738L89.6973-19.3359L89.6973-63.2812C89.6973-65.332 91.2598-66.8945 93.3594-66.8945C95.459-66.8945 97.0215-65.3809 97.0215-63.2812L97.0215-19.3848L96.9238-15.7227L100.195-19.1895L107.422-26.5625C108.154-27.1973 109.082-27.6367 110.059-27.6367C112.207-27.6367 113.721-26.123 113.721-24.0723C113.721-23.0957 113.184-22.1191 112.5-21.3379ZM50.9277-65.7715C52.4902-67.334 54.7852-67.2363 56.2988-65.7715L72.7539-49.0723C73.4375-48.3887 73.877-47.3633 73.877-46.3867C73.877-44.2871 72.3633-42.7734 70.3125-42.7734C69.3359-42.7734 68.3594-43.1641 67.6758-43.8477L60.4004-51.3184L57.1289-54.7852L57.3242-51.0742L57.3242-7.12891C57.3242-5.12695 55.7617-3.56445 53.6133-3.56445C51.5137-3.56445 49.9512-5.07812 49.9512-7.12891L49.9512-51.0254L50.0488-54.7852L46.7773-51.3184L39.5508-43.9453C38.8184-43.2129 37.8906-42.7734 36.9141-42.7734C34.8633-42.7734 33.3008-44.3359 33.3008-46.3867C33.3008-47.2656 33.7891-48.291 34.4238-49.0723Z"/>
  </g>
  <g id="Light-L" transform="matrix(1 0 0 1 1080.5 1556)">
   <path d="M34.0332 21.4355L111.23 21.4355C123.096 21.4355 129.199 15.2344 129.199 3.56445L129.199-73.8281C129.199-85.5469 123.096-91.6992 111.23-91.6992L34.0332-91.6992C22.168-91.6992 16.0645-85.6445 16.0645-73.8281L16.0645 3.56445C16.0645 15.3809 22.168 21.4355 34.0332 21.4355ZM51.0254-66.0645C52.2461-67.2852 54.0527-67.1875 55.2246-66.0645L72.3633-48.8281C72.9492-48.2422 73.2422-47.4609 73.2422-46.6309C73.2422-45.0195 72.0215-43.7988 70.459-43.7988C69.6777-43.7988 68.8965-44.1406 68.2617-44.7266L60.2539-52.8809L55.8594-57.4219L56.0059-52.9297L56.0059-6.44531C56.0059-4.83398 54.834-3.61328 53.125-3.61328C51.5137-3.61328 50.1953-4.78516 50.1953-6.44531L50.1953-52.8809L50.3418-57.4219L45.9473-52.8809L37.9395-44.7754C37.3535-44.1406 36.5234-43.7988 35.791-43.7988C34.1797-43.7988 32.9102-45.0195 32.9102-46.6309C32.9102-47.4121 33.3008-48.1445 33.8867-48.8281ZM94.3359-4.44336C93.1641-3.32031 91.2109-3.32031 90.0879-4.44336L72.9004-21.6797C72.3145-22.3145 72.0703-23.0469 72.0703-23.877C72.0703-25.5371 73.1934-26.709 74.8535-26.709C75.6836-26.709 76.4648-26.416 77.0508-25.8301L85.0586-17.6758L89.4531-13.0859L89.3066-17.5781L89.3066-64.0625C89.3066-65.6738 90.5273-66.9434 92.1875-66.9434C93.7988-66.9434 95.1172-65.7227 95.1172-64.0625L95.1172-17.627L94.9707-13.1348L99.3652-17.6758L107.373-25.8301C107.959-26.3672 108.74-26.709 109.521-26.709C111.182-26.709 112.402-25.4883 112.402-23.877C112.402-23.0957 112.012-22.3145 111.426-21.6797Z"/>
  </g>
  <g id="Thin-L" transform="matrix(1 0 0 1 784.889 1556)">
   <path d="M32.666 20.3613L110.352 20.3613C121.24 20.3613 127.002 14.4531 127.002 3.75977L127.002-73.9746C127.002-84.7168 121.24-90.5762 110.352-90.5762L32.666-90.5762C21.7773-90.5762 16.0645-84.8633 16.0645-73.9746L16.0645 3.75977C16.0645 14.6484 21.7773 20.3613 32.666 20.3613ZM51.123-66.4551C51.9043-67.2363 53.0273-67.1387 53.8086-66.4551L71.875-48.4863C72.3145-48.0469 72.4609-47.6074 72.4609-46.9238C72.4609-45.9473 71.6309-45.1172 70.6543-45.1172C70.166-45.1172 69.5801-45.4102 69.1406-45.8496L60.0586-54.9316L54.1992-60.8887L54.3457-55.3223L54.3457-5.51758C54.3457-4.49219 53.5645-3.66211 52.5391-3.66211C51.5137-3.66211 50.5859-4.39453 50.5859-5.51758L50.5859-55.2734L50.7324-60.8887L44.873-54.9316L35.791-45.8496C35.3516-45.4102 34.7656-45.1172 34.2773-45.1172C33.3008-45.1172 32.4707-45.9473 32.4707-46.9238C32.4707-47.5586 32.666-47.998 33.1055-48.4863ZM91.9922-4.15039C91.2598-3.4668 90.0879-3.4668 89.3066-4.15039L71.2402-22.1191C70.8008-22.5586 70.6543-22.998 70.6543-23.6816C70.6543-24.707 71.4355-25.4883 72.4609-25.4883C72.998-25.4883 73.5352-25.293 74.0234-24.8535L83.0566-15.6738L88.916-9.7168L88.7695-15.2832L88.7695-65.0879C88.7695-66.1133 89.5508-66.9434 90.5762-66.9434C91.6504-66.9434 92.5293-66.2109 92.5293-65.0879L92.5293-15.2832L92.3828-9.7168L98.2422-15.6738L107.324-24.8535C107.764-25.1953 108.301-25.4883 108.838-25.4883C109.814-25.4883 110.645-24.6582 110.645-23.6816C110.645-23.0469 110.449-22.5586 110.01-22.1191Z"/>
  </g>
  <g id="Ultralight-L" transform="matrix(1 0 0 1 488.739 1556)">
   <path d="M31.9824 19.7754L109.961 19.7754C120.312 19.7754 125.879 14.0625 125.879 3.85742L125.879-74.0723C125.879-84.2773 120.312-89.9902 109.961-89.9902L31.9824-89.9902C21.582-89.9902 16.0645-84.4727 16.0645-74.0723L16.0645 3.85742C16.0645 14.2578 21.582 19.7754 31.9824 19.7754ZM51.1719-66.6504C51.709-67.1875 52.5391-67.0898 53.0762-66.6504L71.6309-48.291C71.9727-47.9492 72.0215-47.7051 72.0215-47.0703C72.0215-46.4355 71.3867-45.8008 70.752-45.8008C70.4102-45.8008 69.9219-46.0449 69.5312-46.3867L59.9609-55.957L53.3203-62.6465L53.4668-56.543L53.4668-5.0293C53.4668-4.29688 52.9297-3.66211 52.1973-3.66211C51.4648-3.66211 50.7812-4.19922 50.7812-5.0293L50.7812-56.543L50.9277-62.6465L44.2871-55.957L34.7168-46.3867C34.3262-46.0449 33.8379-45.8008 33.4961-45.8008C32.8613-45.8008 32.2266-46.4355 32.2266-47.0703C32.2266-47.6074 32.3242-47.9492 32.7148-48.291ZM90.7715-4.00391C90.2344-3.56445 89.502-3.56445 88.916-4.00391L70.3613-22.3633C70.0195-22.7051 69.9707-22.9492 69.9707-23.5352C69.9707-24.2676 70.5078-24.8047 71.2402-24.8047C71.6309-24.8047 72.0703-24.707 72.4609-24.3164L82.0312-14.6973L88.6719-7.95898L88.5254-14.1113L88.5254-65.625C88.5254-66.3574 89.0625-66.9434 89.7949-66.9434C90.5273-66.9434 91.2109-66.4062 91.2109-65.625L91.2109-14.1113L91.0645-7.95898L97.7051-14.6973L107.275-24.3164C107.666-24.6094 108.057-24.8047 108.496-24.8047C109.131-24.8047 109.766-24.2188 109.766-23.5352C109.766-23.0469 109.619-22.7051 109.277-22.3633Z"/>
  </g>
  <g id="Black-M" transform="matrix(1 0 0 1 2872.19 1126)">
   <path d="M31.9824 13.5742L90.4297 13.5742C102.686 13.5742 109.961 6.29883 109.961-5.95703L109.961-64.4043C109.961-76.6602 102.686-83.9355 90.4297-83.9355L31.9824-83.9355C19.7266-83.9355 12.4512-76.6602 12.4512-64.4043L12.4512-5.95703C12.4512 6.29883 19.7266 13.5742 31.9824 13.5742ZM79.2969-11.8164C77.3926-9.86328 74.5605-9.96094 72.7051-11.8164L60.6934-24.3164C59.8633-25.0977 59.3262-26.2207 59.3262-27.4414C59.3262-29.9805 61.1328-31.7871 63.7207-31.7871C64.8926-31.7871 66.0156-31.4453 66.8457-30.5664L71.582-25.5371L71.5332-25.5859L71.5332-55.8105C71.5332-58.3008 73.4375-60.2539 75.9766-60.2539C78.4668-60.2539 80.4688-58.3008 80.4688-55.8105L80.4688-25.5371L85.2051-30.5664C85.9863-31.4453 87.0605-31.7871 88.2812-31.7871C90.8203-31.7871 92.627-29.9805 92.627-27.4414C92.627-26.2207 92.1387-25.0977 91.4062-24.3164ZM44.4336-58.7402C46.2402-60.7422 49.2188-60.6445 51.0254-58.7402L63.0371-46.2891C63.8672-45.459 64.502-44.3359 64.502-43.1641C64.502-40.625 62.5977-38.7695 60.0586-38.7695C58.8379-38.7695 57.7148-39.1602 56.9336-40.0391L52.1973-45.0195L52.1973-14.7461C52.1973-12.2559 50.3418-10.3027 47.7539-10.3027C45.2637-10.3027 43.2617-12.2559 43.2617-14.7461L43.2617-45.0195L43.3105-45.0195L38.5254-40.0391C37.7441-39.1602 36.6699-38.7695 35.498-38.7695C32.9102-38.7695 31.1035-40.625 31.1035-43.1641C31.1035-44.3359 31.5918-45.459 32.4219-46.2891Z"/>
  </g>
  <g id="Heavy-M" transform="matrix(1 0 0 1 2576.39 1126)">
   <path d="M31.0059 12.6465L89.6484 12.6465C101.416 12.6465 108.154 5.9082 108.154-5.81055L108.154-64.5508C108.154-76.2695 101.416-83.0566 89.6484-83.0566L31.0059-83.0566C19.2383-83.0566 12.4512-76.3184 12.4512-64.5508L12.4512-5.81055C12.4512 5.9082 19.2383 12.6465 31.0059 12.6465ZM78.418-11.7676C76.6602-10.0098 73.9258-10.0586 72.2168-11.7676L60.1074-24.3164C59.3262-25.0977 58.8379-26.123 58.8379-27.2461C58.8379-29.6387 60.5469-31.3477 62.9395-31.3477C64.0625-31.3477 65.0879-31.0059 65.8691-30.1758L70.7031-25.0977L71.1426-24.6582L71.0938-27.5391L71.0938-56.0059C71.0938-58.3496 72.9004-60.1562 75.293-60.1562C77.6367-60.1562 79.4922-58.3496 79.4922-56.0059L79.4922-24.6582L79.8828-25.0977L84.7656-30.1758C85.498-30.957 86.5234-31.3477 87.6465-31.3477C90.0391-31.3477 91.748-29.6387 91.748-27.2461C91.748-26.123 91.2598-25.0488 90.5273-24.3164ZM43.2617-58.7402C44.9707-60.5957 47.7051-60.498 49.4141-58.7402L61.5234-46.2402C62.3047-45.459 62.8418-44.3848 62.8418-43.3105C62.8418-40.918 61.1328-39.209 58.7402-39.209C57.6172-39.209 56.543-39.5508 55.7617-40.3809L50.9277-45.459L50.4883-45.8984L50.5371-43.0176L50.5371-14.5508C50.5371-12.207 48.7793-10.4004 46.3379-10.4004C43.9941-10.4004 42.1387-12.207 42.1387-14.5508L42.1387-42.9688L42.1875-45.8984L41.748-45.459L36.9141-40.3809C36.1328-39.5508 35.1074-39.209 34.0332-39.209C31.5918-39.209 29.8828-40.918 29.8828-43.3105C29.8828-44.3848 30.3711-45.459 31.1523-46.2402Z"/>
  </g>
  <g id="Bold-M" transform="matrix(1 0 0 1 2280.68 1126)">
   <path d="M29.8828 11.6699L88.7207 11.6699C99.9512 11.6699 106.152 5.46875 106.152-5.66406L106.152-64.6973C106.152-75.8789 99.9512-82.0312 88.7207-82.0312L29.8828-82.0312C18.6523-82.0312 12.4512-75.8789 12.4512-64.6973L12.4512-5.66406C12.4512 5.51758 18.6523 11.6699 29.8828 11.6699ZM77.3926-11.7676C75.7812-10.1074 73.1934-10.1562 71.6797-11.7676L59.4727-24.2676C58.7402-25.0488 58.3008-26.0742 58.3008-27.0508C58.3008-29.2969 59.8633-30.8594 62.0605-30.8594C63.1348-30.8594 64.1113-30.5176 64.7949-29.7363L69.7754-24.6094L70.7031-23.584L70.6543-26.2695L70.6543-56.1523C70.6543-58.3496 72.2656-60.0098 74.5117-60.0098C76.709-60.0098 78.418-58.3496 78.418-56.1523L78.418-26.3184L78.3691-23.584L79.2969-24.6094L84.2285-29.7363C84.9609-30.4688 85.8887-30.8594 86.9141-30.8594C89.1602-30.8594 90.7715-29.248 90.7715-27.0508C90.7715-26.0254 90.2832-25 89.5996-24.2676ZM41.9434-58.7402C43.5547-60.4492 46.0449-60.3516 47.6074-58.7402L59.8145-46.1914C60.5469-45.5078 61.0352-44.4824 61.0352-43.457C61.0352-41.2109 59.4238-39.6484 57.2266-39.6484C56.2012-39.6484 55.2246-39.9902 54.4922-40.7227L49.5605-45.8984L48.6328-46.9238L48.6816-44.1895L48.6816-14.3066C48.6816-12.1582 47.0703-10.498 44.7754-10.498C42.627-10.498 40.918-12.1582 40.918-14.3066L40.918-44.1895L40.9668-46.9238L39.9902-45.8984L35.0586-40.7715C34.3262-40.0391 33.3984-39.6484 32.373-39.6484C30.1758-39.6484 28.5645-41.2598 28.5645-43.457C28.5645-44.4336 29.0527-45.459 29.7363-46.1914Z"/>
  </g>
  <g id="Semibold-M" transform="matrix(1 0 0 1 1984.65 1126)">
   <path d="M29.1016 10.9863L88.0859 10.9863C98.9746 10.9863 104.785 5.17578 104.785-5.56641L104.785-64.8438C104.785-75.5859 98.9746-81.3477 88.0859-81.3477L29.1016-81.3477C18.2617-81.3477 12.4512-75.5859 12.4512-64.8438L12.4512-5.56641C12.4512 5.22461 18.2617 10.9863 29.1016 10.9863ZM76.709-11.7188C75.1953-10.2051 72.7051-10.2051 71.2891-11.7188L59.0332-24.2676C58.3496-25.0488 57.9102-25.9766 57.9102-26.9043C57.9102-29.0039 59.375-30.5176 61.4746-30.5176C62.5-30.5176 63.3789-30.1758 64.0625-29.4434L69.0918-24.2676L70.3613-22.8516L70.3125-25.3906L70.3125-56.2988C70.3125-58.3496 71.875-59.9121 73.9746-59.9121C76.0254-59.9121 77.6367-58.3496 77.6367-56.2988L77.6367-25.4395L77.5879-22.8516L78.8574-24.2676L83.8867-29.4434C84.5703-30.127 85.4492-30.5176 86.4258-30.5176C88.5742-30.5176 90.0879-29.0039 90.0879-26.9043C90.0879-25.9766 89.5996-25 88.916-24.2676ZM41.0156-58.7402C42.5781-60.3516 44.9219-60.2539 46.3867-58.7402L58.6426-46.1426C59.3262-45.5078 59.7656-44.4824 59.7656-43.5547C59.7656-41.4551 58.252-39.9414 56.2012-39.9414C55.2246-39.9414 54.2969-40.2832 53.6133-40.9668L48.584-46.2402L47.3145-47.6562L47.4121-45.0195L47.4121-14.1602C47.4121-12.1094 45.8496-10.5469 43.7012-10.5469C41.6504-10.5469 40.0391-12.1094 40.0391-14.1602L40.0391-45.0195L40.0879-47.6562L38.8184-46.2402L33.7891-41.0645C33.1055-40.332 32.2266-39.9414 31.25-39.9414C29.1504-39.9414 27.6367-41.4551 27.6367-43.5547C27.6367-44.4336 28.0762-45.4102 28.7598-46.1426Z"/>
  </g>
  <g id="Medium-M" transform="matrix(1 0 0 1 1688.47 1126)">
   <path d="M28.5156 10.4492L87.6465 10.4492C98.2422 10.4492 103.711 4.98047 103.711-5.46875L103.711-64.8926C103.711-75.3418 98.2422-80.8105 87.6465-80.8105L28.5156-80.8105C17.9688-80.8105 12.4512-75.3906 12.4512-64.8926L12.4512-5.46875C12.4512 4.98047 17.9688 10.4492 28.5156 10.4492ZM76.1719-11.6699C74.7559-10.2539 72.3633-10.2539 70.9473-11.6699L58.6914-24.2676C58.0078-25 57.6172-25.9277 57.6172-26.8066C57.6172-28.8086 59.0332-30.2246 61.0352-30.2246C62.0117-30.2246 62.8906-29.9316 63.5254-29.1992L68.6035-23.9746L70.166-22.2656L70.0684-24.7559L70.0684-56.3965C70.0684-58.3496 71.5332-59.8633 73.584-59.8633C75.5371-59.8633 77.0508-58.3984 77.0508-56.3965L77.0508-24.8047L77.002-22.3145L78.5645-23.9746L83.6426-29.1992C84.2773-29.8828 85.1562-30.2246 86.084-30.2246C88.1348-30.2246 89.5508-28.8086 89.5508-26.8066C89.5508-25.9277 89.0625-24.9512 88.4277-24.2676ZM40.332-58.7402C41.7969-60.2539 44.043-60.1562 45.459-58.7402L57.7637-46.1426C58.3984-45.5078 58.8379-44.5312 58.8379-43.6035C58.8379-41.6016 57.4219-40.1855 55.4199-40.1855C54.4922-40.1855 53.6133-40.5273 52.9297-41.1621L47.8516-46.4844L46.2891-48.1934L46.4355-45.6543L46.4355-14.0137C46.4355-12.1094 44.9707-10.5957 42.8711-10.5957C40.918-10.5957 39.4043-12.1094 39.4043-14.0137L39.4043-45.6543L39.4531-48.1934L37.9395-46.4844L32.8125-41.2598C32.1777-40.5762 31.2988-40.1855 30.4199-40.1855C28.3691-40.1855 26.9043-41.6504 26.9043-43.6035C26.9043-44.4824 27.3926-45.4102 27.9785-46.1426Z"/>
  </g>
  <g id="Regular-M" transform="matrix(1 0 0 1 1392.45 1126)">
   <path d="M27.7832 9.76562L87.0117 9.76562C97.2656 9.76562 102.344 4.6875 102.344-5.37109L102.344-64.9902C102.344-75.0488 97.2656-80.127 87.0117-80.127L27.7832-80.127C17.5781-80.127 12.4512-75.0977 12.4512-64.9902L12.4512-5.37109C12.4512 4.73633 17.5781 9.76562 27.7832 9.76562ZM75.4883-11.6699C74.1699-10.3516 71.875-10.3516 70.6055-11.6699L58.252-24.2676C57.6172-25 57.2754-25.8789 57.2754-26.6602C57.2754-28.5645 58.5449-29.8828 60.4492-29.8828C61.377-29.8828 62.1582-29.5898 62.793-28.9062L67.9688-23.6328L69.8242-21.5332L69.7266-23.877L69.7266-56.543C69.7266-58.3984 71.1426-59.7656 73.0469-59.7656C74.9023-59.7656 76.3184-58.3984 76.3184-56.543L76.3184-23.9258L76.2207-21.582L78.125-23.6328L83.3008-28.9062C83.8867-29.4922 84.7168-29.8828 85.5957-29.8828C87.5488-29.8828 88.8672-28.5645 88.8672-26.6602C88.8672-25.8301 88.3789-24.9512 87.793-24.2676ZM39.4043-58.7402C40.8203-60.1562 42.9199-60.0586 44.2383-58.7402L56.5918-46.0938C57.1777-45.5078 57.6172-44.5801 57.6172-43.75C57.6172-41.8457 56.25-40.4785 54.3945-40.4785C53.5156-40.4785 52.6855-40.8203 52.0996-41.4062L46.9238-46.8262L45.0195-48.877L45.166-46.4844L45.166-13.8672C45.166-12.0605 43.75-10.6934 41.7969-10.6934C39.9414-10.6934 38.5742-12.0605 38.5742-13.8672L38.5742-46.4355L38.623-48.877L36.7188-46.8262L31.543-41.5039C30.957-40.8691 30.127-40.4785 29.2969-40.4785C27.3926-40.4785 25.9766-41.8945 25.9766-43.75C25.9766-44.4824 26.4648-45.4102 27.002-46.0938Z"/>
  </g>
  <g id="Light-M" transform="matrix(1 0 0 1 1096.47 1126)">
   <path d="M26.8555 9.0332L86.4746 9.0332C95.9961 9.0332 100.879 4.15039 100.879-5.22461L100.879-65.0879C100.879-74.5117 95.9961-79.3945 86.4746-79.3945L26.8555-79.3945C17.334-79.3945 12.4512-74.5605 12.4512-65.0879L12.4512-5.22461C12.4512 4.19922 17.334 9.0332 26.8555 9.0332ZM39.502-58.9844C40.625-60.1074 42.2363-60.0098 43.2617-58.9844L56.25-45.8496C56.7383-45.3613 57.0312-44.6777 57.0312-43.9453C57.0312-42.4805 55.957-41.4062 54.541-41.4062C53.8574-41.4062 53.1738-41.6992 52.6367-42.1875L46.7773-48.1934L43.8965-51.2695L43.9941-48.0957L43.9941-13.2324C43.9941-11.8164 42.9199-10.6934 41.4062-10.6934C39.9414-10.6934 38.8184-11.7676 38.8184-13.2324L38.8184-48.0957L38.8672-51.2695L35.9863-48.1934L30.127-42.2363C29.6387-41.6992 28.9062-41.4062 28.2715-41.4062C26.8066-41.4062 25.6836-42.5293 25.6836-43.9453C25.6836-44.5801 26.0254-45.3125 26.5137-45.8496ZM73.9258-11.4746C72.8516-10.4492 71.0938-10.4492 70.0684-11.4746L57.0801-24.5605C56.5918-25.1465 56.3477-25.8301 56.3477-26.5137C56.3477-28.0273 57.3242-29.0527 58.8379-29.0527C59.5703-29.0527 60.2051-28.8086 60.7422-28.2715L66.6016-22.3145L69.4824-19.2383L69.3848-22.3145L69.3848-57.2266C69.3848-58.6914 70.5078-59.7656 71.9727-59.7656C73.4375-59.7656 74.5605-58.6914 74.5605-57.2266L74.5605-22.3633L74.4629-19.2871L77.3926-22.3145L83.252-28.2715C83.7402-28.7598 84.4238-29.0527 85.1074-29.0527C86.6211-29.0527 87.6953-27.9785 87.6953-26.5137C87.6953-25.8301 87.3535-25.0977 86.8164-24.5605Z"/>
  </g>
  <g id="Thin-M" transform="matrix(1 0 0 1 800.758 1126)">
   <path d="M25.6348 8.05664L85.7422 8.05664C94.3848 8.05664 98.877 3.4668 98.877-5.0293L98.877-65.2344C98.877-73.7305 94.3848-78.3691 85.7422-78.3691L25.6348-78.3691C16.9922-78.3691 12.4512-73.877 12.4512-65.2344L12.4512-5.0293C12.4512 3.56445 16.9922 8.05664 25.6348 8.05664ZM39.5996-59.3262C40.2832-60.0586 41.3086-59.9609 41.9922-59.3262L55.8105-45.5566C56.2012-45.166 56.3477-44.7754 56.3477-44.2383C56.3477-43.3105 55.6152-42.627 54.7363-42.627C54.2969-42.627 53.7598-42.8223 53.3691-43.2129L46.582-50.0488L42.3828-54.3457L42.4805-50.2441L42.4805-12.4023C42.4805-11.4746 41.7969-10.7422 40.8691-10.7422C39.8926-10.7422 39.1113-11.4258 39.1113-12.4023L39.1113-50.2441L39.2578-54.3457L35.0098-50.0488L28.2227-43.2129C27.832-42.8223 27.3438-42.627 26.9043-42.627C26.0254-42.627 25.2441-43.3594 25.2441-44.2383C25.2441-44.7266 25.4883-45.166 25.8301-45.5566ZM71.8262-11.1816C71.1426-10.5957 70.0684-10.5957 69.3848-11.1816L55.5664-25C55.2246-25.3906 55.0781-25.7324 55.0781-26.3184C55.0781-27.2461 55.7617-27.9297 56.6895-27.9297C57.1777-27.9297 57.6172-27.7832 58.0078-27.3926L64.7949-20.5078L69.043-16.2109L68.8965-20.2637L68.8965-58.1543C68.8965-59.082 69.6289-59.8145 70.5566-59.8145C71.4844-59.8145 72.2656-59.1309 72.2656-58.1543L72.2656-20.2637L72.168-16.2109L76.416-20.5078L83.2031-27.3926C83.5449-27.6855 84.0332-27.9297 84.5215-27.9297C85.4004-27.9297 86.1328-27.1973 86.1328-26.3184C86.1328-25.7812 85.9375-25.3418 85.5469-25Z"/>
  </g>
  <g id="Ultralight-M" transform="matrix(1 0 0 1 504.535 1126)">
   <path d="M25 7.56836L85.3516 7.56836C93.5059 7.56836 97.9004 3.125 97.9004-4.98047L97.9004-65.2832C97.9004-73.3887 93.5059-77.832 85.3516-77.832L25-77.832C16.7969-77.832 12.4512-73.4863 12.4512-65.2832L12.4512-4.98047C12.4512 3.22266 16.7969 7.56836 25 7.56836ZM39.6484-59.5215C40.1367-60.0098 40.8691-59.9609 41.3574-59.5215L55.6152-45.4102C55.9082-45.1172 55.957-44.873 55.957-44.3848C55.957-43.75 55.4199-43.2129 54.7852-43.2129C54.4922-43.2129 54.1016-43.4082 53.7598-43.7012L46.4844-50.9766L41.6016-55.957L41.6992-51.3672L41.6992-11.9629C41.6992-11.3281 41.2109-10.791 40.5762-10.791C39.8926-10.791 39.3066-11.2305 39.3066-11.9629L39.3066-51.3672L39.4043-55.957L34.5215-50.9766L27.2461-43.7012C26.9531-43.4082 26.5137-43.2129 26.2207-43.2129C25.5859-43.2129 25.0488-43.75 25.0488-44.3848C25.0488-44.8242 25.1953-45.1172 25.4883-45.4102ZM70.752-11.084C70.2637-10.6445 69.5312-10.6445 69.043-11.084L54.7852-25.1953C54.4922-25.4883 54.4434-25.7324 54.4434-26.2207C54.4434-26.8555 54.9316-27.3438 55.5664-27.3438C55.957-27.3438 56.2988-27.2461 56.6406-26.9531L63.8672-19.6289L68.7988-14.6484L68.7012-19.2383L68.7012-58.5938C68.7012-59.2773 69.1406-59.8145 69.8242-59.8145C70.5078-59.8145 71.0938-59.3262 71.0938-58.5938L71.0938-19.2383L70.9473-14.6484L75.8789-19.6289L83.1543-26.9531C83.4473-27.1973 83.8379-27.3438 84.1797-27.3438C84.8145-27.3438 85.3516-26.8066 85.3516-26.2207C85.3516-25.7812 85.2051-25.4883 84.9121-25.1953Z"/>
  </g>
  <g id="Black-S" transform="matrix(1 0 0 1 2885.5 696)">
   <path d="M25 2.92969L70.8008 2.92969C80.3711 2.92969 86.0352-2.73438 86.0352-12.3047L86.0352-58.1055C86.0352-67.6758 80.3711-73.3398 70.8008-73.3398L25-73.3398C15.4297-73.3398 9.76562-67.6758 9.76562-58.1055L9.76562-12.3047C9.76562-2.73438 15.4297 2.92969 25 2.92969ZM62.0605-16.8945C60.5957-15.3809 58.3496-15.4297 56.9336-16.8945L47.5098-26.6602C46.875-27.2949 46.4355-28.1738 46.4355-29.1016C46.4355-31.1035 47.8516-32.5195 49.8535-32.5195C50.7812-32.5195 51.6602-32.2266 52.2949-31.543L56.0059-27.6367L56.0059-51.3672C56.0059-53.3203 57.4707-54.834 59.4727-54.834C61.4258-54.834 62.9883-53.3203 62.9883-51.3672L62.9883-27.6367L66.6992-31.543C67.334-32.2266 68.1641-32.5195 69.0918-32.5195C71.0938-32.5195 72.5098-31.1035 72.5098-29.1016C72.5098-28.1738 72.1191-27.2949 71.5332-26.6602ZM34.7168-53.6621C36.1328-55.2246 38.4277-55.127 39.8438-53.6621L49.2676-43.8965C49.9023-43.2617 50.3906-42.3828 50.3906-41.4551C50.3906-39.4531 48.9258-38.0371 46.9238-38.0371C45.9961-38.0371 45.1172-38.3301 44.4824-39.0137L40.7715-42.9199L40.7715-19.1895C40.7715-17.2363 39.3066-15.7227 37.3047-15.7227C35.3516-15.7227 33.7891-17.2363 33.7891-19.1895L33.7891-42.9199L30.0781-39.0137C29.4434-38.3301 28.6133-38.0371 27.6855-38.0371C25.6836-38.0371 24.2676-39.4531 24.2676-41.4551C24.2676-42.3828 24.6582-43.2617 25.293-43.8965Z"/>
  </g>
  <g id="Heavy-S" transform="matrix(1 0 0 1 2589.4 696)">
   <path d="M24.3652 2.34375L70.2637 2.34375C79.541 2.34375 84.8145-2.97852 84.8145-12.207L84.8145-58.2031C84.8145-67.4316 79.541-72.7539 70.2637-72.7539L24.3652-72.7539C15.0879-72.7539 9.76562-67.4316 9.76562-58.2031L9.76562-12.207C9.76562-2.97852 15.0879 2.34375 24.3652 2.34375ZM61.5723-16.8945C60.1562-15.4297 57.959-15.4785 56.5918-16.8945L47.168-26.6113C46.582-27.2461 46.1914-28.125 46.1914-29.0039C46.1914-30.9082 47.5098-32.2754 49.4629-32.2754C50.3418-32.2754 51.1719-31.9824 51.8066-31.2988L55.5176-27.4414L55.7617-27.1484L55.7129-29.3457L55.7129-51.416C55.7129-53.3203 57.1289-54.7363 59.082-54.7363C60.9375-54.7363 62.4512-53.3203 62.4512-51.416L62.4512-29.3457L62.4023-27.1484L62.6465-27.4414L66.3574-31.2988C66.9922-31.9824 67.7734-32.2754 68.6523-32.2754C70.6055-32.2754 71.9727-30.9082 71.9727-29.0039C71.9727-28.125 71.582-27.2461 70.9961-26.6113ZM33.7891-53.6133C35.1562-55.127 37.3535-55.0293 38.7207-53.6133L48.1445-43.8965C48.7305-43.2617 49.2188-42.4316 49.2188-41.5527C49.2188-39.5996 47.8027-38.2324 45.8984-38.2324C44.9707-38.2324 44.1406-38.5254 43.5547-39.1602L39.8438-43.0664L39.5996-43.3594L39.5996-19.0918C39.5996-17.2363 38.2324-15.7715 36.2793-15.7715C34.375-15.7715 32.9102-17.2363 32.9102-19.0918L32.9102-43.3594L32.666-43.0664L28.9551-39.209C28.3691-38.5254 27.5879-38.2324 26.6602-38.2324C24.7559-38.2324 23.3887-39.5996 23.3887-41.5527C23.3887-42.3828 23.7793-43.2617 24.3652-43.8965Z"/>
  </g>
  <g id="Bold-S" transform="matrix(1 0 0 1 2293.35 696)">
   <path d="M23.6328 1.66016L69.6289 1.66016C78.6133 1.66016 83.4961-3.22266 83.4961-12.1094L83.4961-58.3008C83.4961-67.1875 78.6133-72.0703 69.6289-72.0703L23.6328-72.0703C14.6973-72.0703 9.76562-67.1875 9.76562-58.3008L9.76562-12.1094C9.76562-3.22266 14.6973 1.66016 23.6328 1.66016ZM60.9863-16.8945C59.668-15.5273 57.5195-15.5762 56.25-16.8945L46.8262-26.5625C46.2402-27.1973 45.8984-28.0273 45.8984-28.8574C45.8984-30.7129 47.168-31.9824 48.9746-31.9824C49.8535-31.9824 50.6348-31.6895 51.2207-31.0547L54.9316-27.1973L55.4199-26.6113L55.3711-28.5645L55.3711-51.4648C55.3711-53.2715 56.7383-54.6387 58.5938-54.6387C60.4004-54.6387 61.8164-53.2715 61.8164-51.4648L61.8164-28.6133L61.7676-26.6602L62.2559-27.1973L65.9668-31.0547C66.5527-31.6895 67.334-31.9824 68.1641-31.9824C70.0684-31.9824 71.3379-30.7129 71.3379-28.8574C71.3379-28.0273 70.9473-27.1973 70.3613-26.5625ZM32.7637-53.5645C34.1309-54.9805 36.1816-54.8828 37.4512-53.5645L46.875-43.8965C47.4609-43.3105 47.9004-42.4316 47.9004-41.6016C47.9004-39.7949 46.582-38.4766 44.7266-38.4766C43.8965-38.4766 43.0664-38.7695 42.4805-39.3555L38.7695-43.2617L38.2812-43.8477L38.3301-41.8945L38.3301-18.9941C38.3301-17.2363 37.0117-15.8691 35.1074-15.8691C33.3008-15.8691 31.9336-17.2363 31.9336-18.9941L31.9336-43.8477L31.4453-43.2617L27.7344-39.4043C27.1484-38.7695 26.416-38.4766 25.5371-38.4766C23.7305-38.4766 22.4121-39.7949 22.4121-41.6016C22.4121-42.4316 22.8027-43.2617 23.3398-43.8965Z"/>
  </g>
  <g id="Semibold-S" transform="matrix(1 0 0 1 1997.1 696)">
   <path d="M23.0957 1.17188L69.1895 1.17188C77.9297 1.17188 82.5684-3.36914 82.5684-12.0117L82.5684-58.3984C82.5684-67.041 77.9297-71.582 69.1895-71.582L23.0957-71.582C14.4043-71.582 9.76562-67.041 9.76562-58.3984L9.76562-12.0117C9.76562-3.36914 14.4043 1.17188 23.0957 1.17188ZM60.5957-16.8945C59.3262-15.5762 57.1777-15.625 55.957-16.8945L46.582-26.5625C46.0449-27.1973 45.6543-27.9785 45.6543-28.7598C45.6543-30.5664 46.875-31.7871 48.6816-31.7871C49.5117-31.7871 50.293-31.4941 50.8301-30.9082L54.541-27.0508L55.2246-26.2695L55.1758-28.0273L55.1758-51.5137C55.1758-53.2715 56.4941-54.5898 58.3008-54.5898C60.0586-54.5898 61.377-53.2715 61.377-51.5137L61.377-28.0762L61.3281-26.2695L62.0117-27.0508L65.7227-30.9082C66.3086-31.4941 67.041-31.7871 67.8223-31.7871C69.6777-31.7871 70.8984-30.5664 70.8984-28.7598C70.8984-27.9785 70.5078-27.1484 69.9707-26.5625ZM32.0801-53.5645C33.3984-54.9316 35.3516-54.834 36.6211-53.5645L45.9961-43.8477C46.582-43.3105 46.9727-42.4805 46.9727-41.6992C46.9727-39.8926 45.7031-38.623 43.9453-38.623C43.1152-38.623 42.334-38.916 41.7969-39.502L38.0371-43.4082L37.4023-44.1895L37.4512-42.3828L37.4512-18.9453C37.4512-17.1875 36.1328-15.8691 34.3262-15.8691C32.5684-15.8691 31.25-17.1875 31.25-18.9453L31.25-42.3828L31.2988-44.1895L30.6152-43.4082L26.9043-39.5508C26.3184-38.9648 25.5859-38.623 24.7559-38.623C22.998-38.623 21.6797-39.9414 21.6797-41.6992C21.6797-42.4316 22.1191-43.2617 22.6562-43.8477Z"/>
  </g>
  <g id="Medium-S" transform="matrix(1 0 0 1 1700.75 696)">
   <path d="M22.7051 0.830078L68.8965 0.830078C77.4414 0.830078 81.8359-3.51562 81.8359-11.9629L81.8359-58.4473C81.8359-66.8945 77.4414-71.2402 68.8965-71.2402L22.7051-71.2402C14.209-71.2402 9.76562-66.8945 9.76562-58.4473L9.76562-11.9629C9.76562-3.51562 14.209 0.830078 22.7051 0.830078ZM60.3027-16.8457C59.082-15.625 56.9824-15.625 55.8105-16.8457L46.3867-26.5137C45.8496-27.1484 45.5078-27.9785 45.5078-28.6621C45.5078-30.4199 46.6797-31.6406 48.4375-31.6406C49.2676-31.6406 50-31.3477 50.5371-30.7617L54.248-26.9531L55.0781-25.9766L54.9805-27.6367L54.9805-51.5137C54.9805-53.2227 56.2988-54.4922 58.0566-54.4922C59.7656-54.4922 61.0352-53.2227 61.0352-51.5137L61.0352-27.6855L60.9863-26.0254L61.8164-26.9531L65.5273-30.7617C66.0645-31.3477 66.7969-31.6406 67.5781-31.6406C69.3848-31.6406 70.6055-30.4199 70.6055-28.6621C70.6055-27.9297 70.166-27.0996 69.6289-26.5137ZM31.543-53.5156C32.8125-54.834 34.7168-54.7852 35.9375-53.5156L45.3613-43.8477C45.8984-43.3105 46.2891-42.4805 46.2891-41.6992C46.2891-39.9902 45.0684-38.7695 43.3594-38.7695C42.5293-38.7695 41.7969-39.0625 41.2109-39.5996L37.5-43.5059L36.7188-44.4824L36.7676-42.7734L36.7676-18.8477C36.7676-17.1875 35.498-15.918 33.7402-15.918C32.0312-15.918 30.7617-17.1875 30.7617-18.8477L30.7617-44.4824L29.9805-43.5059L26.2695-39.6484C25.7324-39.0625 25-38.7695 24.1699-38.7695C22.4609-38.7695 21.1914-39.9902 21.1914-41.6992C21.1914-42.4316 21.582-43.2617 22.1191-43.8477Z"/>
  </g>
  <g id="Regular-S" transform="matrix(1 0 0 1 1404.51 696)">
   <path d="M22.2168 0.390625L68.457 0.390625C76.8066 0.390625 80.9082-3.71094 80.9082-11.9141L80.9082-58.4961C80.9082-66.6992 76.8066-70.8008 68.457-70.8008L22.2168-70.8008C13.916-70.8008 9.76562-66.6992 9.76562-58.4961L9.76562-11.9141C9.76562-3.71094 13.916 0.390625 22.2168 0.390625ZM59.9121-16.8457C58.7402-15.6738 56.6895-15.6738 55.5176-16.8457L46.1426-26.5137C45.6543-27.1484 45.3125-27.9297 45.3125-28.6133C45.3125-30.2734 46.4355-31.4453 48.1445-31.4453C48.9258-31.4453 49.6582-31.2012 50.1465-30.6152L53.9062-26.8066L54.8828-25.6348L54.7852-27.0996L54.7852-51.5625C54.7852-53.2227 56.0547-54.4434 57.7637-54.4434C59.375-54.4434 60.5957-53.2227 60.5957-51.5625L60.5957-27.1484L60.5469-25.6836L61.5723-26.8066L65.2832-30.6152C65.8203-31.1523 66.5039-31.4453 67.2852-31.4453C68.9941-31.4453 70.166-30.2734 70.166-28.6133C70.166-27.8809 69.7754-27.0996 69.2383-26.5137ZM30.8105-53.5156C32.0801-54.7852 33.9355-54.6875 35.1074-53.5156L44.4824-43.8477C45.0195-43.3594 45.3613-42.4805 45.3613-41.7969C45.3613-40.0879 44.1895-38.916 42.5293-38.916C41.748-38.916 41.0156-39.209 40.5273-39.6973L36.8164-43.6035L35.791-44.7754L35.8887-43.2617L35.8887-18.7988C35.8887-17.1875 34.668-15.9668 32.959-15.9668C31.2988-15.9668 30.0781-17.1875 30.0781-18.7988L30.0781-43.2129L30.127-44.7754L29.1504-43.6035L25.3906-39.7949C24.9023-39.2578 24.1699-38.916 23.4375-38.916C21.7285-38.916 20.5078-40.1367 20.5078-41.7969C20.5078-42.4316 20.9473-43.2617 21.3867-43.8477Z"/>
  </g>
  <g id="Light-S" transform="matrix(1 0 0 1 1108.46 696)">
   <path d="M21.3867-0.292969L67.9688-0.292969C75.7324-0.292969 79.5898-4.15039 79.5898-11.7676L79.5898-58.5938C79.5898-66.2109 75.7324-70.1172 67.9688-70.1172L21.3867-70.1172C13.6719-70.1172 9.76562-66.2598 9.76562-58.5938L9.76562-11.7676C9.76562-4.15039 13.6719-0.292969 21.3867-0.292969ZM58.4961-16.6992C57.5684-15.7715 55.957-15.7715 55.0781-16.6992L45.166-26.7578C44.7266-27.2949 44.4824-27.8809 44.4824-28.4668C44.4824-29.7852 45.3613-30.7129 46.6797-30.7129C47.3633-30.7129 47.9004-30.4688 48.3398-30.0293L52.6855-25.5859L54.5898-23.584L54.4922-25.7324L54.4922-52.1973C54.4922-53.4668 55.4688-54.4434 56.7871-54.4434C58.1055-54.4434 59.082-53.5156 59.082-52.1973L59.082-25.7324L59.0332-23.6328L60.8887-25.5859L65.2344-30.0293C65.6738-30.4199 66.2598-30.7129 66.8457-30.7129C68.2129-30.7129 69.1406-29.7852 69.1406-28.4668C69.1406-27.8809 68.7988-27.2461 68.4082-26.7578ZM30.9082-53.7598C31.8848-54.7363 33.3496-54.6387 34.2773-53.7598L44.1895-43.6523C44.6289-43.2129 44.873-42.5781 44.873-41.9922C44.873-40.6738 43.9453-39.6973 42.6758-39.6973C42.041-39.6973 41.4551-39.9414 41.0156-40.3809L36.6699-44.873L34.8145-46.875L34.9121-44.7266L34.9121-18.2617C34.9121-16.9922 33.9355-16.0156 32.5684-16.0156C31.2988-16.0156 30.2734-16.9434 30.2734-18.2617L30.2734-44.6777L30.3711-46.875L28.4668-44.873L24.1211-40.4785C23.6816-39.9902 23.0957-39.6973 22.5098-39.6973C21.1914-39.6973 20.2148-40.6738 20.2148-41.9922C20.2148-42.5293 20.5566-43.1641 20.9473-43.6523Z"/>
  </g>
  <g id="Thin-S" transform="matrix(1 0 0 1 812.599 696)">
   <path d="M20.3125-1.12305L67.334-1.12305C74.2676-1.12305 77.8809-4.78516 77.8809-11.6211L77.8809-58.6914C77.8809-65.5762 74.2676-69.2383 67.334-69.2383L20.3125-69.2383C13.3789-69.2383 9.76562-65.625 9.76562-58.6914L9.76562-11.6211C9.76562-4.6875 13.3789-1.12305 20.3125-1.12305ZM31.0059-54.0527C31.6406-54.6875 32.5195-54.6387 33.1543-54.0527L43.7988-43.4082C44.1406-43.0664 44.2383-42.6758 44.2383-42.2363C44.2383-41.4062 43.6035-40.7715 42.8223-40.7715C42.4316-40.7715 41.9922-40.9668 41.6504-41.2598L36.5234-46.4844L33.4473-49.6094L33.5449-46.582L33.5449-17.5293C33.5449-16.6992 32.959-16.0156 32.0801-16.0156C31.25-16.0156 30.5664-16.6504 30.5664-17.5293L30.5664-46.582L30.6641-49.6094L27.5879-46.4844L22.4609-41.3086C22.1191-40.9668 21.6797-40.7715 21.3379-40.7715C20.5078-40.7715 19.873-41.4062 19.873-42.2363C19.873-42.627 20.0684-43.0664 20.3613-43.4082ZM56.6406-16.4551C56.0547-15.8691 55.0781-15.8691 54.4922-16.4551L43.7988-27.0996C43.5059-27.4414 43.3594-27.832 43.3594-28.2715C43.3594-29.1504 43.9453-29.7363 44.8242-29.7363C45.2148-29.7363 45.6543-29.5898 45.9473-29.248L51.123-24.0234L54.1504-20.8984L54.0527-23.9258L54.0527-52.9785C54.0527-53.8086 54.6875-54.4922 55.5176-54.4922C56.3477-54.4922 57.0312-53.8574 57.0312-52.9785L57.0312-23.9258L56.9824-20.8984L60.0098-24.0234L65.1855-29.248C65.4785-29.541 65.918-29.7363 66.3086-29.7363C67.1387-29.7363 67.7734-29.1016 67.7734-28.2715C67.7734-27.832 67.5781-27.4414 67.2852-27.0996Z"/>
  </g>
  <g id="Ultralight-S" transform="matrix(1 0 0 1 516.352 696)">
   <path d="M19.7754-1.5625L66.9922-1.5625C73.5352-1.5625 76.9531-5.12695 76.9531-11.5234L76.9531-58.7891C76.9531-65.2344 73.5352-68.75 66.9922-68.75L19.7754-68.75C13.2324-68.75 9.76562-65.2832 9.76562-58.7891L9.76562-11.5234C9.76562-5.0293 13.2324-1.5625 19.7754-1.5625ZM31.0547-54.1992C31.4941-54.6387 32.1289-54.5898 32.5684-54.1992L43.6035-43.2617C43.8477-42.9688 43.9453-42.7734 43.9453-42.334C43.9453-41.7969 43.457-41.3086 42.9199-41.3086C42.627-41.3086 42.2852-41.5039 41.9922-41.748L36.4258-47.3145L32.7637-51.0254L32.8613-47.5586L32.8613-17.1387C32.8613-16.5527 32.4219-16.0645 31.8359-16.0645C31.25-16.0645 30.7129-16.5039 30.7129-17.1387L30.7129-47.5586L30.8105-51.0254L27.1484-47.3145L21.582-41.748C21.3379-41.5039 20.9473-41.3086 20.7031-41.3086C20.166-41.3086 19.6777-41.7969 19.6777-42.334C19.6777-42.7246 19.7754-42.9688 20.0195-43.2617ZM55.6641-16.3574C55.2734-15.9668 54.5898-15.9668 54.1504-16.3574L43.1152-27.2949C42.8711-27.5879 42.8223-27.7832 42.8223-28.1738C42.8223-28.8086 43.2129-29.1992 43.8477-29.1992C44.1406-29.1992 44.4824-29.1016 44.7266-28.8574L50.293-23.2422L53.9551-19.4824L53.8574-22.9492L53.8574-53.418C53.8574-54.0039 54.2969-54.4922 54.8828-54.4922C55.4688-54.4922 56.0059-54.0527 56.0059-53.418L56.0059-22.9492L55.9082-19.5312L59.5703-23.2422L65.1367-28.8574C65.3809-29.0527 65.7227-29.1992 66.0156-29.1992C66.6016-29.1992 67.041-28.7598 67.041-28.1738C67.041-27.832 66.9434-27.5391 66.6992-27.2949Z"/>
  </g>
 </g>
</svg>
