<?xml version="1.0" encoding="UTF-8"?>
<!--Generator: Apple Native CoreSVG 149-->
<!DOCTYPE svg
PUBLIC "-//W3C//DTD SVG 1.1//EN"
       "http://www.w3.org/Graphics/SVG/1.1/DTD/svg11.dtd">
<svg version="1.1" xmlns="http://www.w3.org/2000/svg" xmlns:xlink="http://www.w3.org/1999/xlink" width="3300" height="2200">
 <!--glyph: "uni10025D.medium", point size: 100.000000, font version: "Version 16.0d12e3", template writer version: "8"-->
 <g id="Notes">
  <rect height="2200" id="artboard" style="fill:white;opacity:1" width="3300" x="0" y="0"/>
  <line id="" style="fill:none;stroke:black;opacity:1;stroke-width:0.5;" x1="263" x2="3036" y1="292" y2="292"/>
  <text style="stroke:none;fill:black;font-family:-apple-system,&quot;SF Pro Display&quot;,&quot;SF Pro Text&quot;,Helvetica,sans-serif;font-weight:bold;" transform="matrix(1 0 0 1 263 322)">Weight/Scale Variations</text>
  <text style="stroke:none;fill:black;font-family:-apple-system,&quot;SF Pro Display&quot;,&quot;SF Pro Text&quot;,Helvetica,sans-serif;text-anchor:middle;" transform="matrix(1 0 0 1 559.711 322)">Ultralight</text>
  <text style="stroke:none;fill:black;font-family:-apple-system,&quot;SF Pro Display&quot;,&quot;SF Pro Text&quot;,Helvetica,sans-serif;text-anchor:middle;" transform="matrix(1 0 0 1 856.422 322)">Thin</text>
  <text style="stroke:none;fill:black;font-family:-apple-system,&quot;SF Pro Display&quot;,&quot;SF Pro Text&quot;,Helvetica,sans-serif;text-anchor:middle;" transform="matrix(1 0 0 1 1153.13 322)">Light</text>
  <text style="stroke:none;fill:black;font-family:-apple-system,&quot;SF Pro Display&quot;,&quot;SF Pro Text&quot;,Helvetica,sans-serif;text-anchor:middle;" transform="matrix(1 0 0 1 1449.84 322)">Regular</text>
  <text style="stroke:none;fill:black;font-family:-apple-system,&quot;SF Pro Display&quot;,&quot;SF Pro Text&quot;,Helvetica,sans-serif;text-anchor:middle;" transform="matrix(1 0 0 1 1746.56 322)">Medium</text>
  <text style="stroke:none;fill:black;font-family:-apple-system,&quot;SF Pro Display&quot;,&quot;SF Pro Text&quot;,Helvetica,sans-serif;text-anchor:middle;" transform="matrix(1 0 0 1 2043.27 322)">Semibold</text>
  <text style="stroke:none;fill:black;font-family:-apple-system,&quot;SF Pro Display&quot;,&quot;SF Pro Text&quot;,Helvetica,sans-serif;text-anchor:middle;" transform="matrix(1 0 0 1 2339.98 322)">Bold</text>
  <text style="stroke:none;fill:black;font-family:-apple-system,&quot;SF Pro Display&quot;,&quot;SF Pro Text&quot;,Helvetica,sans-serif;text-anchor:middle;" transform="matrix(1 0 0 1 2636.69 322)">Heavy</text>
  <text style="stroke:none;fill:black;font-family:-apple-system,&quot;SF Pro Display&quot;,&quot;SF Pro Text&quot;,Helvetica,sans-serif;text-anchor:middle;" transform="matrix(1 0 0 1 2933.4 322)">Black</text>
  <line id="" style="fill:none;stroke:black;opacity:1;stroke-width:0.5;" x1="263" x2="3036" y1="1903" y2="1903"/>
  <g id="" transform="matrix(1 0 0 1 263 1933)">
   <path d="M9.24805 0.830078C13.5547 0.830078 17.1387-2.74414 17.1387-7.05078C17.1387-11.3574 13.5449-14.9316 9.23828-14.9316C4.94141-14.9316 1.36719-11.3574 1.36719-7.05078C1.36719-2.74414 4.95117 0.830078 9.24805 0.830078ZM9.24805-0.654297C5.70312-0.654297 2.87109-3.49609 2.87109-7.05078C2.87109-10.6055 5.69336-13.4473 9.23828-13.4473C12.793-13.4473 15.6348-10.6055 15.6445-7.05078C15.6543-3.49609 12.8027-0.654297 9.24805-0.654297ZM9.22852-3.62305C9.69727-3.62305 9.9707-3.93555 9.9707-4.45312L9.9707-6.31836L12.002-6.31836C12.5-6.31836 12.832-6.57227 12.832-7.04102C12.832-7.51953 12.5195-7.7832 12.002-7.7832L9.9707-7.7832L9.9707-9.81445C9.9707-10.332 9.69727-10.6543 9.22852-10.6543C8.75977-10.6543 8.50586-10.3125 8.50586-9.81445L8.50586-7.7832L6.49414-7.7832C5.97656-7.7832 5.64453-7.51953 5.64453-7.04102C5.64453-6.57227 5.99609-6.31836 6.49414-6.31836L8.50586-6.31836L8.50586-4.45312C8.50586-3.95508 8.75977-3.62305 9.22852-3.62305Z"/>
  </g>
  <g id="" transform="matrix(1 0 0 1 281.506 1933)">
   <path d="M11.709 2.91016C17.1582 2.91016 21.6699-1.61133 21.6699-7.05078C21.6699-12.5 17.1484-17.0117 11.6992-17.0117C6.25977-17.0117 1.74805-12.5 1.74805-7.05078C1.74805-1.61133 6.26953 2.91016 11.709 2.91016ZM11.709 1.25C7.09961 1.25 3.41797-2.44141 3.41797-7.05078C3.41797-11.6602 7.08984-15.3516 11.6992-15.3516C16.3086-15.3516 20-11.6602 20.0098-7.05078C20.0195-2.44141 16.3184 1.25 11.709 1.25ZM11.6797-2.66602C12.207-2.66602 12.5098-3.01758 12.5098-3.59375L12.5098-6.23047L15.3223-6.23047C15.8691-6.23047 16.25-6.51367 16.25-7.03125C16.25-7.55859 15.8887-7.86133 15.3223-7.86133L12.5098-7.86133L12.5098-10.6836C12.5098-11.25 12.207-11.6113 11.6797-11.6113C11.1621-11.6113 10.8789-11.2305 10.8789-10.6836L10.8789-7.86133L8.07617-7.86133C7.50977-7.86133 7.13867-7.55859 7.13867-7.03125C7.13867-6.51367 7.5293-6.23047 8.07617-6.23047L10.8789-6.23047L10.8789-3.59375C10.8789-3.03711 11.1621-2.66602 11.6797-2.66602Z"/>
  </g>
  <g id="" transform="matrix(1 0 0 1 304.924 1933)">
   <path d="M14.9707 5.66406C21.9336 5.66406 27.6953-0.0976562 27.6953-7.05078C27.6953-14.0137 21.9238-19.7754 14.9609-19.7754C8.00781-19.7754 2.25586-14.0137 2.25586-7.05078C2.25586-0.0976562 8.01758 5.66406 14.9707 5.66406ZM14.9707 3.84766C8.93555 3.84766 4.08203-1.01562 4.08203-7.05078C4.08203-13.0957 8.92578-17.9492 14.9609-17.9492C21.0059-17.9492 25.8594-13.0957 25.8691-7.05078C25.8789-1.01562 21.0156 3.84766 14.9707 3.84766ZM14.9414-1.38672C15.5176-1.38672 15.8594-1.77734 15.8594-2.38281L15.8594-6.13281L19.7754-6.13281C20.3711-6.13281 20.7812-6.46484 20.7812-7.02148C20.7812-7.59766 20.3906-7.93945 19.7754-7.93945L15.8594-7.93945L15.8594-11.8652C15.8594-12.4805 15.5176-12.8711 14.9414-12.8711C14.375-12.8711 14.0527-12.4609 14.0527-11.8652L14.0527-7.93945L10.1465-7.93945C9.53125-7.93945 9.13086-7.59766 9.13086-7.02148C9.13086-6.46484 9.55078-6.13281 10.1465-6.13281L14.0527-6.13281L14.0527-2.38281C14.0527-1.79688 14.375-1.38672 14.9414-1.38672Z"/>
  </g>
  <text style="stroke:none;fill:black;font-family:-apple-system,&quot;SF Pro Display&quot;,&quot;SF Pro Text&quot;,Helvetica,sans-serif;font-weight:bold;" transform="matrix(1 0 0 1 263 1953)">Design Variations</text>
  <text style="stroke:none;fill:black;font-family:-apple-system,&quot;SF Pro Display&quot;,&quot;SF Pro Text&quot;,Helvetica,sans-serif;" transform="matrix(1 0 0 1 263 1971)">Symbols are supported in up to nine weights and three scales.</text>
  <text style="stroke:none;fill:black;font-family:-apple-system,&quot;SF Pro Display&quot;,&quot;SF Pro Text&quot;,Helvetica,sans-serif;" transform="matrix(1 0 0 1 263 1989)">For optimal layout with text and other symbols, vertically align</text>
  <text style="stroke:none;fill:black;font-family:-apple-system,&quot;SF Pro Display&quot;,&quot;SF Pro Text&quot;,Helvetica,sans-serif;" transform="matrix(1 0 0 1 263 2007)">symbols with the adjacent text.</text>
  <line id="" style="fill:none;stroke:#00AEEF;stroke-width:0.5;opacity:1.0;" x1="776" x2="776" y1="1919" y2="1933"/>
  <g id="" transform="matrix(1 0 0 1 776 1933)">
   <path d="M3.31055 0.126953C3.82812 0.126953 4.08203-0.0683594 4.26758-0.605469L5.52734-4.0625L11.2891-4.0625L12.5488-0.605469C12.7344-0.0683594 12.9883 0.126953 13.4961 0.126953C14.0137 0.126953 14.3457-0.185547 14.3457-0.673828C14.3457-0.839844 14.3164-0.986328 14.2383-1.20117L9.6582-13.3887C9.43359-13.9941 9.0332-14.2871 8.4082-14.2871C7.80273-14.2871 7.39258-13.9941 7.17773-13.3984L2.59766-1.19141C2.51953-0.976562 2.49023-0.830078 2.49023-0.664062C2.49023-0.175781 2.80273 0.126953 3.31055 0.126953ZM6.00586-5.53711L8.37891-12.1094L8.42773-12.1094L10.8008-5.53711Z"/>
  </g>
  <line id="" style="fill:none;stroke:#00AEEF;stroke-width:0.5;opacity:1.0;" x1="792.836" x2="792.836" y1="1919" y2="1933"/>
  <text style="stroke:none;fill:black;font-family:-apple-system,&quot;SF Pro Display&quot;,&quot;SF Pro Text&quot;,Helvetica,sans-serif;font-weight:bold;" transform="matrix(1 0 0 1 776 1953)">Margins</text>
  <text style="stroke:none;fill:black;font-family:-apple-system,&quot;SF Pro Display&quot;,&quot;SF Pro Text&quot;,Helvetica,sans-serif;" transform="matrix(1 0 0 1 776 1971)">Leading and trailing margins on the left and right side of each symbol</text>
  <text style="stroke:none;fill:black;font-family:-apple-system,&quot;SF Pro Display&quot;,&quot;SF Pro Text&quot;,Helvetica,sans-serif;" transform="matrix(1 0 0 1 776 1989)">can be adjusted by modifying the x-location of the margin guidelines.</text>
  <text style="stroke:none;fill:black;font-family:-apple-system,&quot;SF Pro Display&quot;,&quot;SF Pro Text&quot;,Helvetica,sans-serif;" transform="matrix(1 0 0 1 776 2007)">Modifications are automatically applied proportionally to all</text>
  <text style="stroke:none;fill:black;font-family:-apple-system,&quot;SF Pro Display&quot;,&quot;SF Pro Text&quot;,Helvetica,sans-serif;" transform="matrix(1 0 0 1 776 2025)">scales and weights.</text>
  <g id="" transform="matrix(1 0 0 1 1289 1933)">
   <path d="M2.8418 1.86523L4.54102 3.57422C5.40039 4.44336 6.38672 4.38477 7.31445 3.35938L17.4902-7.85156C17.7539-7.76367 18.0273-7.7832 18.3398-7.8418L19.4043-8.03711L20.0684-7.36328L20.0293-6.80664C19.9902-6.30859 20.1172-5.92773 20.6055-5.44922L21.3672-4.70703C21.8457-4.22852 22.4609-4.19922 22.9297-4.66797L25.8398-7.58789C26.3086-8.05664 26.2891-8.65234 25.8105-9.13086L25.0391-9.89258C24.5605-10.3711 24.1895-10.5273 23.7109-10.4883L23.1348-10.4395L22.4902-11.0742L22.7344-12.1973C22.8613-12.7637 22.7051-13.2031 22.1191-13.7891L19.9219-15.9766C16.582-19.2969 12.1484-19.2188 9.25781-16.3281C8.83789-15.918 8.80859-15.3418 9.04297-14.9512C9.27734-14.5898 9.73633-14.3555 10.3809-14.5215C11.8457-14.8633 13.3691-14.9219 14.7949-13.9844L14.209-12.5293C14.0137-12.0508 13.9844-11.6504 14.1113-11.2891L3.04688-0.898438C2.06055 0.0195312 1.98242 0.996094 2.8418 1.86523ZM10.752-15.957C13.1836-17.7344 16.4746-17.4316 18.7012-15.2051L21.1328-12.793C21.3672-12.5586 21.4062-12.373 21.3379-12.0312L21.0156-10.5469L22.5195-9.0625L23.5059-9.12109C23.7598-9.13086 23.8379-9.11133 24.0332-8.91602L24.6094-8.33984L22.168-5.89844L21.5918-6.47461C21.3965-6.66992 21.3672-6.74805 21.377-7.01172L21.4453-7.98828L19.9512-9.47266L18.4277-9.21875C18.1055-9.15039 17.959-9.17969 17.7148-9.41406L15.7129-11.416C15.459-11.6504 15.4297-11.8164 15.5859-12.1875L16.4648-14.2773C14.9023-15.7324 12.8711-16.3574 10.8398-15.7617C10.6836-15.7227 10.625-15.8496 10.752-15.957ZM5.27344 2.30469L4.10156 1.14258C3.63281 0.683594 3.74023 0.341797 4.14062-0.0195312L14.9512-10.1953L16.416-8.71094L6.42578 2.27539C6.07422 2.67578 5.74219 2.77344 5.27344 2.30469Z"/>
  </g>
  <text style="stroke:none;fill:black;font-family:-apple-system,&quot;SF Pro Display&quot;,&quot;SF Pro Text&quot;,Helvetica,sans-serif;font-weight:bold;" transform="matrix(1 0 0 1 1289 1953)">Exporting</text>
  <text style="stroke:none;fill:black;font-family:-apple-system,&quot;SF Pro Display&quot;,&quot;SF Pro Text&quot;,Helvetica,sans-serif;" transform="matrix(1 0 0 1 1289 1971)">Symbols should be outlined when exporting to ensure the</text>
  <text style="stroke:none;fill:black;font-family:-apple-system,&quot;SF Pro Display&quot;,&quot;SF Pro Text&quot;,Helvetica,sans-serif;" transform="matrix(1 0 0 1 1289 1989)">design is preserved when submitting to Xcode.</text>
  <text id="template-version" style="stroke:none;fill:black;font-family:-apple-system,&quot;SF Pro Display&quot;,&quot;SF Pro Text&quot;,Helvetica,sans-serif;text-anchor:end;" transform="matrix(1 0 0 1 3036 1933)">Template v.2.0</text>
  <text style="stroke:none;fill:black;font-family:-apple-system,&quot;SF Pro Display&quot;,&quot;SF Pro Text&quot;,Helvetica,sans-serif;text-anchor:end;" transform="matrix(1 0 0 1 3036 1951)">Requires Xcode 12 or greater</text>
  <text style="stroke:none;fill:black;font-family:-apple-system,&quot;SF Pro Display&quot;,&quot;SF Pro Text&quot;,Helvetica,sans-serif;text-anchor:end;" transform="matrix(1 0 0 1 3036 1969)">Generated from book.circle.fill</text>
  <text style="stroke:none;fill:black;font-family:-apple-system,&quot;SF Pro Display&quot;,&quot;SF Pro Text&quot;,Helvetica,sans-serif;text-anchor:end;" transform="matrix(1 0 0 1 3036 1987)">Typeset at 100 points</text>
  <text style="stroke:none;fill:black;font-family:-apple-system,&quot;SF Pro Display&quot;,&quot;SF Pro Text&quot;,Helvetica,sans-serif;" transform="matrix(1 0 0 1 263 726)">Small</text>
  <text style="stroke:none;fill:black;font-family:-apple-system,&quot;SF Pro Display&quot;,&quot;SF Pro Text&quot;,Helvetica,sans-serif;" transform="matrix(1 0 0 1 263 1156)">Medium</text>
  <text style="stroke:none;fill:black;font-family:-apple-system,&quot;SF Pro Display&quot;,&quot;SF Pro Text&quot;,Helvetica,sans-serif;" transform="matrix(1 0 0 1 263 1586)">Large</text>
 </g>
 <g id="Guides">
  <g id="H-reference" style="fill:#27AAE1;stroke:none;" transform="matrix(1 0 0 1 339 696)">
   <path d="M0.976562 0L3.66211 0L12.9883-24.4629L45.752-24.4629L55.127 0L57.7637 0L30.6152-70.459L28.125-70.459ZM29.3457-67.1387L29.4434-67.1387L44.873-26.709L13.8672-26.709Z"/>
  </g>
  <line id="Baseline-S" style="fill:none;stroke:#27AAE1;opacity:1;stroke-width:0.5;" x1="263" x2="3036" y1="696" y2="696"/>
  <line id="Capline-S" style="fill:none;stroke:#27AAE1;opacity:1;stroke-width:0.5;" x1="263" x2="3036" y1="625.541" y2="625.541"/>
  <g id="H-reference" style="fill:#27AAE1;stroke:none;" transform="matrix(1 0 0 1 339 1126)">
   <path d="M0.976562 0L3.66211 0L12.9883-24.4629L45.752-24.4629L55.127 0L57.7637 0L30.6152-70.459L28.125-70.459ZM29.3457-67.1387L29.4434-67.1387L44.873-26.709L13.8672-26.709Z"/>
  </g>
  <line id="Baseline-M" style="fill:none;stroke:#27AAE1;opacity:1;stroke-width:0.5;" x1="263" x2="3036" y1="1126" y2="1126"/>
  <line id="Capline-M" style="fill:none;stroke:#27AAE1;opacity:1;stroke-width:0.5;" x1="263" x2="3036" y1="1055.54" y2="1055.54"/>
  <g id="H-reference" style="fill:#27AAE1;stroke:none;" transform="matrix(1 0 0 1 339 1556)">
   <path d="M0.976562 0L3.66211 0L12.9883-24.4629L45.752-24.4629L55.127 0L57.7637 0L30.6152-70.459L28.125-70.459ZM29.3457-67.1387L29.4434-67.1387L44.873-26.709L13.8672-26.709Z"/>
  </g>
  <line id="Baseline-L" style="fill:none;stroke:#27AAE1;opacity:1;stroke-width:0.5;" x1="263" x2="3036" y1="1556" y2="1556"/>
  <line id="Capline-L" style="fill:none;stroke:#27AAE1;opacity:1;stroke-width:0.5;" x1="263" x2="3036" y1="1485.54" y2="1485.54"/>
  <line id="left-margin" style="fill:none;stroke:#00AEEF;stroke-width:0.5;opacity:1.0;" x1="1391.3" x2="1391.3" y1="1030.79" y2="1150.12"/>
  <line id="right-margin" style="fill:none;stroke:#00AEEF;stroke-width:0.5;opacity:1.0;" x1="1508.39" x2="1508.39" y1="1030.79" y2="1150.12"/>
 </g>
 <g id="Symbols">
  <g id="Black-L" transform="matrix(1 0 0 1 2854.05 1556)">
   <path d="M79.3457 32.9102C116.748 32.9102 147.412 2.29492 147.412-35.1074C147.412-72.5586 116.748-103.174 79.2969-103.174C41.8945-103.174 11.2793-72.5586 11.2793-35.1074C11.2793 2.29492 41.9434 32.9102 79.3457 32.9102ZM65.2344-10.8887C60.8398-10.8887 56.8848-9.375 55.0781-8.1543C53.7109-7.22656 52.7344-6.64062 50.9277-6.64062C48.1445-6.64062 45.8008-8.39844 45.8008-12.4512L45.8008-54.6875C48.584-59.5703 54.7363-63.7695 63.0859-63.7695C68.75-63.7695 73.9258-61.1328 76.4648-57.3242L76.4648-7.22656C76.0742-7.56836 74.9512-8.30078 74.3652-8.64258C72.6562-9.57031 69.6777-10.8887 65.2344-10.8887ZM93.3105-10.8887C88.916-10.8887 85.9863-9.57031 84.3262-8.64258C83.6914-8.25195 82.6172-7.51953 82.1777-7.17773L82.1777-57.3242C84.7656-61.1328 89.8926-63.7695 95.459-63.7695C103.857-63.7695 110.01-59.5703 112.793-54.6875L112.793-12.4512C112.793-8.34961 110.4-6.64062 107.666-6.64062C105.859-6.64062 104.785-7.22656 103.516-8.1543C101.758-9.375 97.7539-10.8887 93.3105-10.8887Z"/>
  </g>
  <g id="Heavy-L" transform="matrix(1 0 0 1 2558.39 1556)">
   <path d="M78.2715 31.8848C115.088 31.8848 145.312 1.66016 145.312-35.1562C145.312-71.9238 115.039-102.148 78.2715-102.148C41.4551-102.148 11.2793-71.9238 11.2793-35.1562C11.2793 1.66016 41.5039 31.8848 78.2715 31.8848ZM63.6719-10.8398C58.6914-10.8398 54.4922-9.08203 52.6855-7.71484C51.4648-6.83594 50.5371-6.34766 48.877-6.34766C46.4355-6.34766 44.3848-7.86133 44.3848-11.377L44.3848-55.2246C46.9238-59.9609 53.418-64.1113 61.7188-64.1113C67.7246-64.1113 73.0957-61.3281 75.5371-57.5195L75.5371-6.83594C75.1465-7.12891 74.0234-7.86133 73.4375-8.20312C71.7285-9.17969 68.5547-10.8398 63.6719-10.8398ZM92.8223-10.8398C87.9395-10.8398 84.7656-9.22852 83.1543-8.20312C82.5195-7.86133 81.4453-7.08008 81.0059-6.78711L81.0059-57.5195C83.5449-61.3281 88.7695-64.1113 94.7754-64.1113C103.076-64.1113 109.521-59.9609 112.061-55.2246L112.061-11.377C112.061-7.8125 110.01-6.34766 107.617-6.34766C105.908-6.34766 104.98-6.83594 103.809-7.71484C102.051-9.08203 97.8516-10.8398 92.8223-10.8398Z"/>
  </g>
  <g id="Bold-L" transform="matrix(1 0 0 1 2262.88 1556)">
   <path d="M77.0996 30.6641C113.232 30.6641 142.92 0.927734 142.92-35.1562C142.92-71.2891 113.184-100.977 77.0508-100.977C40.9668-100.977 11.2793-71.2891 11.2793-35.1562C11.2793 0.927734 41.0156 30.6641 77.0996 30.6641ZM61.9141-10.791C56.25-10.791 51.7578-8.74023 50-7.22656C48.9746-6.44531 48.0957-5.95703 46.6309-5.95703C44.5312-5.95703 42.8223-7.22656 42.8223-10.2051L42.8223-55.9082C45.1172-60.4004 51.9043-64.4531 60.2051-64.4531C66.6016-64.4531 72.1191-61.5723 74.5117-57.7637L74.5117-6.44531C74.1211-6.64062 72.9004-7.42188 72.4121-7.71484C70.7031-8.78906 67.334-10.791 61.9141-10.791ZM92.2363-10.791C86.8652-10.791 83.4473-8.83789 81.7871-7.71484C81.25-7.37305 80.0781-6.54297 79.6875-6.34766L79.6875-57.7637C82.1289-61.5723 87.5977-64.4531 93.9453-64.4531C102.246-64.4531 109.033-60.4004 111.328-55.9082L111.328-10.2051C111.328-7.17773 109.57-5.95703 107.52-5.95703C106.006-5.95703 105.127-6.44531 104.15-7.22656C102.393-8.74023 97.9004-10.791 92.2363-10.791Z"/>
  </g>
  <g id="Semibold-L" transform="matrix(1 0 0 1 1966.97 1556)">
   <path d="M76.2695 29.834C111.914 29.834 141.309 0.439453 141.309-35.1562C141.309-70.8008 111.865-100.195 76.2695-100.195C40.625-100.195 11.2793-70.8008 11.2793-35.1562C11.2793 0.439453 40.6738 29.834 76.2695 29.834ZM60.6934-10.791C54.5898-10.791 49.9023-8.49609 48.1445-6.88477C47.2168-6.15234 46.4355-5.71289 45.0684-5.71289C43.2617-5.71289 41.748-6.78711 41.748-9.375L41.748-56.3477C43.8477-60.6934 50.8789-64.6973 59.1309-64.6973C65.8203-64.6973 71.4844-61.7188 73.8281-57.959L73.8281-6.15234C73.4375-6.29883 72.168-7.08008 71.7285-7.37305C69.9707-8.49609 66.4551-10.791 60.6934-10.791ZM91.8457-10.791C86.084-10.791 82.5684-8.54492 80.8594-7.37305C80.3223-7.03125 79.1992-6.20117 78.7598-6.05469L78.7598-57.959C81.2012-61.7188 86.7676-64.6973 93.4082-64.6973C101.611-64.6973 108.691-60.6934 110.791-56.3477L110.791-9.375C110.791-6.78711 109.277-5.71289 107.422-5.71289C106.055-5.71289 105.273-6.15234 104.395-6.88477C102.588-8.49609 97.9492-10.791 91.8457-10.791Z"/>
  </g>
  <g id="Medium-L" transform="matrix(1 0 0 1 1670.87 1556)">
   <path d="M75.6836 29.1992C110.938 29.1992 140.088 0.0976562 140.088-35.1562C140.088-70.459 110.889-99.5605 75.6348-99.5605C40.3809-99.5605 11.2793-70.459 11.2793-35.1562C11.2793 0.0976562 40.3809 29.1992 75.6836 29.1992ZM59.7656-10.7422C53.3203-10.7422 48.5352-8.34961 46.7285-6.5918C45.8984-5.95703 45.166-5.51758 43.8965-5.51758C42.2363-5.51758 40.918-6.49414 40.918-8.74023L40.918-56.6406C42.8711-60.8887 50.0977-64.8926 58.3008-64.8926C65.1855-64.8926 70.9473-61.8652 73.291-58.0566L73.291-5.95703C72.9004-6.00586 71.6309-6.83594 71.1426-7.12891C69.4336-8.30078 65.8203-10.7422 59.7656-10.7422ZM91.5039-10.7422C85.5469-10.7422 81.8359-8.34961 80.1758-7.12891C79.6875-6.78711 78.4668-5.95703 78.0762-5.85938L78.0762-58.0566C80.4688-61.8652 86.1328-64.8926 92.9688-64.8926C101.172-64.8926 108.398-60.8887 110.4-56.6406L110.4-8.74023C110.4-6.44531 109.033-5.51758 107.373-5.51758C106.104-5.51758 105.371-5.95703 104.541-6.5918C102.783-8.34961 97.998-10.7422 91.5039-10.7422Z"/>
  </g>
  <g id="Regular-L" transform="matrix(1 0 0 1 1374.97 1556)">
   <path d="M74.8535 28.418C109.668 28.418 138.477-0.390625 138.477-35.2051C138.477-69.9707 109.619-98.7793 74.8047-98.7793C40.0391-98.7793 11.2793-69.9707 11.2793-35.2051C11.2793-0.390625 40.0879 28.418 74.8535 28.418ZM58.5449-10.7422C51.709-10.7422 46.6797-8.10547 44.9219-6.25C44.1895-5.66406 43.5059-5.22461 42.334-5.22461C40.9668-5.22461 39.7949-6.05469 39.7949-7.91016L39.7949-57.0801C41.6016-61.2305 49.0723-65.1367 57.2754-65.1367C64.4531-65.1367 70.3125-62.0117 72.5586-58.252L72.5586-5.66406C72.2168-5.66406 70.8984-6.54297 70.459-6.83594C68.7012-8.00781 64.9414-10.7422 58.5449-10.7422ZM91.1133-10.7422C84.7656-10.7422 80.957-8.05664 79.248-6.83594C78.8086-6.49414 77.5879-5.56641 77.1484-5.56641L77.1484-58.252C79.4922-62.0117 85.3027-65.1367 92.4316-65.1367C100.586-65.1367 108.057-61.2305 109.863-57.0801L109.863-7.91016C109.863-6.05469 108.74-5.22461 107.324-5.22461C106.152-5.22461 105.469-5.66406 104.785-6.25C102.979-8.10547 98.0469-10.7422 91.1133-10.7422Z"/>
  </g>
  <g id="Light-L" transform="matrix(1 0 0 1 1079.18 1556)">
   <path d="M73.9258 27.4902C108.301 27.4902 136.621-0.830078 136.621-35.2051C136.621-69.5312 108.252-97.8516 73.9258-97.8516C39.5508-97.8516 11.2793-69.5312 11.2793-35.2051C11.2793-0.830078 39.5996 27.4902 73.9258 27.4902ZM57.4219-10.9375C49.9023-10.9375 44.5312-7.8125 43.0664-5.95703C42.5781-5.46875 41.9922-5.12695 41.0645-5.12695C39.9902-5.12695 39.0625-5.81055 39.0625-7.22656L39.0625-57.5195C40.1855-61.0352 48.0957-65.2344 56.6406-65.2344C63.916-65.2344 69.6289-62.2559 71.875-59.1309L71.875-5.46875C71.582-5.51758 70.752-6.10352 70.459-6.29883C68.7988-7.56836 64.6973-10.9375 57.4219-10.9375ZM90.3809-10.9375C83.1543-10.9375 79.0039-7.61719 77.3926-6.29883C77.0996-6.05469 76.2695-5.41992 75.9766-5.37109L75.9766-59.1309C78.2715-62.2559 83.9355-65.2344 91.2109-65.2344C99.7559-65.2344 107.617-61.0352 108.74-57.5195L108.74-7.22656C108.74-5.81055 107.861-5.12695 106.787-5.12695C105.811-5.12695 105.225-5.46875 104.736-5.95703C103.32-7.8125 97.9492-10.9375 90.3809-10.9375Z"/>
  </g>
  <g id="Thin-L" transform="matrix(1 0 0 1 783.693 1556)">
   <path d="M72.7051 26.2695C106.494 26.2695 134.18-1.41602 134.18-35.2051C134.18-68.9453 106.494-96.6309 72.7051-96.6309C38.9648-96.6309 11.2793-68.9453 11.2793-35.2051C11.2793-1.41602 38.9648 26.2695 72.7051 26.2695ZM55.957-11.1816C47.5098-11.1816 41.6504-7.37305 40.6738-5.56641C40.4297-5.17578 39.9902-4.98047 39.3555-4.98047C38.6719-4.98047 38.1348-5.41992 38.1348-6.25L38.1348-58.0566C38.3301-60.8398 46.7285-65.3809 55.7617-65.3809C63.2812-65.3809 68.75-62.5488 70.9961-60.3027L70.9961-5.17578C70.8008-5.27344 70.5566-5.51758 70.459-5.61523C68.9453-7.03125 64.4043-11.1816 55.957-11.1816ZM89.4043-11.1816C80.957-11.1816 76.416-7.03125 74.9512-5.61523C74.8047-5.51758 74.5605-5.22461 74.3652-5.17578L74.3652-60.3027C76.6602-62.5488 82.0801-65.3809 89.5996-65.3809C98.6328-65.3809 107.031-60.8398 107.275-58.0566L107.275-6.25C107.275-5.41992 106.689-4.98047 106.006-4.98047C105.371-4.98047 104.932-5.17578 104.688-5.56641C103.711-7.37305 97.9004-11.1816 89.4043-11.1816Z"/>
  </g>
  <g id="Ultralight-L" transform="matrix(1 0 0 1 487.616 1556)">
   <path d="M72.1191 25.6348C105.566 25.6348 132.91-1.70898 132.91-35.2051C132.91-68.6523 105.566-95.9961 72.1191-95.9961C38.623-95.9961 11.2793-68.6523 11.2793-35.2051C11.2793-1.70898 38.623 25.6348 72.1191 25.6348ZM55.1758-11.2793C46.2891-11.2793 40.2344-7.17773 39.4531-5.32227C39.3555-5.0293 38.9648-4.93164 38.4766-4.93164C38.0371-4.93164 37.5977-5.27344 37.5977-5.76172L37.5977-58.3008C37.4023-60.6934 46.0449-65.4785 55.3223-65.4785C62.9395-65.4785 68.2617-62.6953 70.5078-60.8887L70.5078-5.0293C70.4102-5.12695 70.459-5.22461 70.4102-5.27344C68.9941-6.73828 64.2578-11.2793 55.1758-11.2793ZM88.916-11.2793C79.8828-11.2793 75.0977-6.73828 73.6816-5.27344C73.6328-5.22461 73.7305-5.12695 73.584-5.07812L73.584-60.8887C75.8301-62.6953 81.1523-65.4785 88.7695-65.4785C98.0469-65.4785 106.689-60.6934 106.494-58.3008L106.494-5.76172C106.494-5.27344 106.104-4.93164 105.615-4.93164C105.127-4.93164 104.785-5.0293 104.688-5.32227C103.906-7.17773 97.8516-11.2793 88.916-11.2793Z"/>
  </g>
  <g id="Black-M" transform="matrix(1 0 0 1 2870.97 1126)">
   <path d="M62.4023 18.5547C91.9922 18.5547 116.113-5.56641 116.113-35.1562C116.113-64.7461 91.9922-88.8184 62.4023-88.8184C32.8125-88.8184 8.74023-64.7461 8.74023-35.1562C8.74023-5.56641 32.8125 18.5547 62.4023 18.5547ZM52.0996-16.5039C49.1211-16.5039 46.1914-15.3809 44.9707-14.6484C43.7988-13.916 43.0176-13.4766 41.5039-13.4766C39.1113-13.4766 37.0605-15.0391 37.0605-18.6523L37.0605-49.7559C39.1602-53.4668 43.7012-56.9824 50.4395-56.9824C54.3945-56.9824 58.1055-55.127 60.1562-52.5391L60.1562-13.916C59.8633-14.3066 59.3262-14.6484 58.8867-14.8926C57.666-15.5762 55.4199-16.5039 52.0996-16.5039ZM72.6562-16.5039C69.3359-16.5039 67.1875-15.5762 66.0156-14.8926C65.5273-14.6484 64.9902-14.3066 64.6484-13.916L64.6484-52.5391C66.748-55.127 70.3613-56.9824 74.3164-56.9824C81.1035-56.9824 85.5957-53.4668 87.7441-49.7559L87.7441-18.6523C87.7441-14.9902 85.6445-13.4766 83.252-13.4766C81.7871-13.4766 80.9082-13.916 79.834-14.6484C78.6621-15.3809 75.6836-16.5039 72.6562-16.5039Z"/>
  </g>
  <g id="Heavy-M" transform="matrix(1 0 0 1 2575.19 1126)">
   <path d="M61.5234 17.627C90.5273 17.627 114.258-6.10352 114.258-35.1562C114.258-64.1602 90.5273-87.8906 61.4746-87.8906C32.4707-87.8906 8.74023-64.1602 8.74023-35.1562C8.74023-6.10352 32.4707 17.627 61.5234 17.627ZM50.6836-16.4062C47.2168-16.4062 44.0918-15.1855 42.8223-14.2578C41.7969-13.5742 41.0156-13.1348 39.6484-13.1348C37.5-13.1348 35.6934-14.502 35.6934-17.6758L35.6934-50.2441C37.6953-53.9551 42.4805-57.3242 49.0723-57.3242C53.418-57.3242 57.3242-55.3223 59.3262-52.5391L59.3262-13.5742C59.0332-13.8672 58.3008-14.3066 57.8613-14.5508C56.5918-15.2832 54.248-16.4062 50.6836-16.4062ZM72.2656-16.4062C68.7012-16.4062 66.4062-15.332 65.1855-14.5508C64.6973-14.3066 64.0137-13.8184 63.6719-13.5254L63.6719-52.5391C65.6738-55.3223 69.5312-57.3242 73.877-57.3242C80.4688-57.3242 85.2539-53.9551 87.2559-50.2441L87.2559-17.6758C87.2559-14.4531 85.4492-13.1348 83.3008-13.1348C81.9336-13.1348 81.1035-13.5742 80.127-14.2578C78.9062-15.1855 75.7324-16.4062 72.2656-16.4062Z"/>
  </g>
  <g id="Bold-M" transform="matrix(1 0 0 1 2279.5 1126)">
   <path d="M60.498 16.5527C88.8672 16.5527 112.207-6.73828 112.207-35.1562C112.207-63.5742 88.8672-86.9141 60.4492-86.9141C32.0312-86.9141 8.74023-63.5742 8.74023-35.1562C8.74023-6.73828 32.0801 16.5527 60.498 16.5527ZM49.0723-16.3086C45.1172-16.3086 41.7969-14.8926 40.3809-13.8184C39.502-13.1836 38.7695-12.7441 37.5488-12.7441C35.6934-12.7441 34.1797-13.916 34.1797-16.5527L34.1797-50.8301C36.084-54.4434 41.1621-57.666 47.6074-57.666C52.2949-57.666 56.4941-55.5176 58.3984-52.5391L58.3984-13.1836C58.0566-13.3789 57.1777-13.9648 56.7383-14.209C55.4199-14.9902 52.9297-16.3086 49.0723-16.3086ZM71.8262-16.3086C68.0176-16.3086 65.5273-14.9902 64.2578-14.209C63.7695-13.916 62.8906-13.3301 62.5488-13.1348L62.5488-52.5391C64.502-55.5176 68.6523-57.666 73.3398-57.666C79.7852-57.666 84.8145-54.4434 86.7676-50.8301L86.7676-16.5527C86.7676-13.8672 85.2051-12.7441 83.3984-12.7441C82.1289-12.7441 81.3965-13.1836 80.5176-13.8184C79.1504-14.8926 75.8301-16.3086 71.8262-16.3086Z"/>
  </g>
  <g id="Semibold-M" transform="matrix(1 0 0 1 1983.5 1126)">
   <path d="M59.7656 15.8691C87.7441 15.8691 110.791-7.22656 110.791-35.1562C110.791-63.1348 87.6953-86.2305 59.7656-86.2305C31.7871-86.2305 8.74023-63.1348 8.74023-35.1562C8.74023-7.22656 31.7871 15.8691 59.7656 15.8691ZM47.9492-16.2598C43.6523-16.2598 40.1855-14.6973 38.7207-13.5254C37.9395-12.8906 37.2559-12.5 36.084-12.5C34.4727-12.5 33.1055-13.4766 33.1055-15.8203L33.1055-51.2695C34.9609-54.834 40.2344-57.9102 46.5332-57.9102C51.5625-57.9102 55.9082-55.6152 57.7637-52.5391L57.7637-12.8906C57.4219-13.0371 56.3965-13.6719 55.957-13.9648C54.6387-14.7461 52.0508-16.2598 47.9492-16.2598ZM71.5332-16.2598C67.4805-16.2598 64.8926-14.7949 63.623-13.9648C63.1348-13.6719 62.1582-12.9883 61.8164-12.8418L61.8164-52.5391C63.7207-55.6152 68.0176-57.9102 72.9492-57.9102C79.2969-57.9102 84.5215-54.834 86.377-51.2695L86.377-15.8203C86.377-13.4766 85.0586-12.5 83.4473-12.5C82.2754-12.5 81.543-12.8906 80.7617-13.5254C79.3457-14.6973 75.9277-16.2598 71.5332-16.2598Z"/>
  </g>
  <g id="Medium-M" transform="matrix(1 0 0 1 1687.3 1126)">
   <path d="M59.2285 15.332C86.9141 15.332 109.766-7.51953 109.766-35.2051C109.766-62.8418 86.8652-85.6934 59.1797-85.6934C31.543-85.6934 8.74023-62.8418 8.74023-35.2051C8.74023-7.51953 31.5918 15.332 59.2285 15.332ZM47.1191-16.2109C42.5293-16.2109 38.9648-14.5996 37.5-13.2812C36.7188-12.6953 36.084-12.3047 34.9609-12.3047C33.4961-12.3047 32.3242-13.1836 32.3242-15.2344L32.3242-51.5625C34.1309-55.0781 39.5508-58.1055 45.752-58.1055C50.9766-58.1055 55.4688-55.7129 57.2754-52.5391L57.2754-12.6953C56.9336-12.793 55.8105-13.5254 55.3711-13.7695C54.0039-14.5996 51.3672-16.2109 47.1191-16.2109ZM71.3379-16.2109C67.1387-16.2109 64.4531-14.6484 63.1348-13.7695C62.6465-13.4766 61.5723-12.6953 61.2305-12.5977L61.2305-52.5391C63.1348-55.7129 67.5293-58.1055 72.6562-58.1055C78.9062-58.1055 84.3262-55.0781 86.1328-51.5625L86.1328-15.2344C86.1328-13.1836 84.9121-12.3047 83.4473-12.3047C82.373-12.3047 81.6895-12.6953 80.957-13.2812C79.4922-14.5996 75.9277-16.2109 71.3379-16.2109Z"/>
  </g>
  <g id="Regular-M" transform="matrix(1 0 0 1 1391.3 1126)">
   <path d="M58.5449 14.5996C85.791 14.5996 108.35-7.95898 108.35-35.2051C108.35-62.4023 85.7422-85.0098 58.4961-85.0098C31.2988-85.0098 8.74023-62.4023 8.74023-35.2051C8.74023-7.95898 31.3477 14.5996 58.5449 14.5996ZM45.9961-16.1621C41.0645-16.1621 37.4023-14.4043 35.8398-12.9883C35.1562-12.4023 34.5703-12.0605 33.5449-12.0605C32.2754-12.0605 31.2988-12.7441 31.2988-14.502L31.2988-51.9531C33.0566-55.4688 38.623-58.3496 44.7266-58.3496C50.1953-58.3496 54.8828-55.8594 56.6406-52.5391L56.6406-12.4023C56.2988-12.4512 55.0293-13.2324 54.5898-13.5254C53.2227-14.4043 50.4395-16.1621 45.9961-16.1621ZM71.0449-16.1621C66.6504-16.1621 63.8672-14.4531 62.5-13.5254C62.0117-13.1836 60.8398-12.3535 60.498-12.3047L60.498-52.5391C62.3047-55.8594 66.8945-58.3496 72.3145-58.3496C78.418-58.3496 84.0332-55.4688 85.791-51.9531L85.791-14.502C85.791-12.7441 84.7656-12.0605 83.4961-12.0605C82.4707-12.0605 81.8848-12.4023 81.2012-12.9883C79.6387-14.4043 76.0254-16.1621 71.0449-16.1621Z"/>
  </g>
  <g id="Light-M" transform="matrix(1 0 0 1 1095.42 1126)">
   <path d="M57.7148 13.7695C84.5215 13.7695 106.689-8.34961 106.689-35.2051C106.689-62.0117 84.5215-84.1797 57.666-84.1797C30.8594-84.1797 8.74023-62.0117 8.74023-35.2051C8.74023-8.34961 30.9082 13.7695 57.7148 13.7695ZM45.0195-16.3086C39.502-16.3086 35.498-14.1113 34.2285-12.6953C33.7402-12.2559 33.252-11.9629 32.4219-11.9629C31.4453-11.9629 30.6152-12.5488 30.6152-13.8184L30.6152-52.2949C31.7871-55.3223 37.7441-58.4473 44.1895-58.4473C49.8047-58.4473 54.2969-56.0547 56.0059-53.3691L56.0059-12.2559C55.7617-12.2559 54.8828-12.8418 54.6387-13.0371C53.3203-14.0137 50.2441-16.3086 45.0195-16.3086ZM70.4102-16.3086C65.1855-16.3086 62.1094-14.0137 60.8398-13.0371C60.498-12.793 59.7168-12.207 59.4238-12.1582L59.4238-53.3691C61.2305-56.0547 65.6738-58.4473 71.2402-58.4473C77.6855-58.4473 83.6426-55.3223 84.7656-52.2949L84.7656-13.8184C84.7656-12.5488 83.9844-11.9629 83.0078-11.9629C82.1777-11.9629 81.6895-12.2559 81.2012-12.6953C79.9316-14.1113 75.9766-16.3086 70.4102-16.3086Z"/>
  </g>
  <g id="Thin-M" transform="matrix(1 0 0 1 799.806 1126)">
   <path d="M56.6406 12.6953C82.9102 12.6953 104.492-8.88672 104.492-35.2051C104.492-61.4746 82.9102-83.0566 56.5918-83.0566C30.3223-83.0566 8.74023-61.4746 8.74023-35.2051C8.74023-8.88672 30.3223 12.6953 56.6406 12.6953ZM43.7012-16.5039C37.3535-16.5039 32.959-13.7695 32.0801-12.3047C31.8359-12.0117 31.4453-11.8164 30.9082-11.8164C30.2734-11.8164 29.7852-12.207 29.7852-12.9883L29.7852-52.7832C30.127-55.127 36.5234-58.5938 43.457-58.5938C49.2188-58.5938 53.5156-56.3477 55.2246-54.3945L55.2246-12.0117C55.0781-12.0605 54.7363-12.3047 54.6387-12.4512C53.418-13.4766 50-16.5039 43.7012-16.5039ZM69.5312-16.5039C63.2324-16.5039 59.8145-13.5254 58.6426-12.4512C58.4961-12.3047 58.2031-12.0117 58.0078-11.9629L58.0078-54.3945C59.7656-56.3477 64.0625-58.5938 69.8242-58.5938C76.709-58.5938 83.1055-55.127 83.4473-52.7832L83.4473-12.9883C83.4473-12.207 82.959-11.8164 82.3242-11.8164C81.7871-11.8164 81.3965-12.0117 81.1523-12.3047C80.3223-13.7695 75.8789-16.5039 69.5312-16.5039Z"/>
  </g>
  <g id="Ultralight-M" transform="matrix(1 0 0 1 503.656 1126)">
   <path d="M56.0547 12.1094C82.0801 12.1094 103.369-9.17969 103.369-35.2051C103.369-61.2305 82.0801-82.5195 56.0547-82.5195C30.0293-82.5195 8.74023-61.2305 8.74023-35.2051C8.74023-9.17969 30.0293 12.1094 56.0547 12.1094ZM43.0176-16.6504C36.2793-16.6504 31.6406-13.5742 30.957-12.1094C30.8594-11.8652 30.5664-11.7676 30.127-11.7676C29.6875-11.7676 29.3457-12.0605 29.3457-12.5488L29.3457-53.0273C29.2969-55.0293 35.9375-58.6426 43.0664-58.6426C48.9258-58.6426 53.0762-56.4453 54.834-54.9316L54.834-11.8652C54.6875-11.9629 54.6875-12.0605 54.6387-12.1094C53.5156-13.2324 49.8535-16.6504 43.0176-16.6504ZM69.0918-16.6504C62.2559-16.6504 58.6426-13.2324 57.5195-12.1094C57.4707-12.0605 57.4219-11.9629 57.3242-11.8652L57.3242-54.9316C59.0332-56.4453 63.2324-58.6426 69.0918-58.6426C76.2207-58.6426 82.8125-55.0293 82.8125-53.0273L82.8125-12.5488C82.8125-12.0605 82.4219-11.7676 82.0312-11.7676C81.5918-11.7676 81.2988-11.8652 81.1523-12.1094C80.5176-13.5742 75.8789-16.6504 69.0918-16.6504Z"/>
  </g>
  <g id="Black-S" transform="matrix(1 0 0 1 2884.57 696)">
   <path d="M48.8281 6.83594C71.9727 6.83594 90.8203-12.0117 90.8203-35.1562C90.8203-58.3008 71.9727-77.1484 48.8281-77.1484C25.6836-77.1484 6.83594-58.3008 6.83594-35.1562C6.83594-12.0117 25.6836 6.83594 48.8281 6.83594ZM40.7227-20.5566C38.3301-20.5566 36.0352-19.6777 35.0586-19.0918C34.1797-18.5059 33.5449-18.1641 32.373-18.1641C30.5176-18.1641 28.9062-19.3848 28.9062-22.168L28.9062-46.6309C30.5664-49.5605 34.1309-52.2949 39.4043-52.2949C42.5293-52.2949 45.459-50.8301 47.0703-48.7793L47.0703-18.5059C46.8262-18.7988 46.3867-19.0918 46.0449-19.2871C45.0684-19.8242 43.3105-20.5566 40.7227-20.5566ZM56.8848-20.5566C54.2969-20.5566 52.5879-19.8242 51.6602-19.2871C51.2695-19.0918 50.8301-18.7988 50.5859-18.5059L50.5859-48.7793C52.1973-50.8301 55.0781-52.2949 58.2031-52.2949C63.4766-52.2949 67.041-49.5605 68.7012-46.6309L68.7012-22.168C68.7012-19.3359 67.0898-18.1641 65.2344-18.1641C64.0625-18.1641 63.3789-18.5059 62.5488-19.0918C61.6211-19.6777 59.2773-20.5566 56.8848-20.5566Z"/>
  </g>
  <g id="Heavy-S" transform="matrix(1 0 0 1 2588.47 696)">
   <path d="M48.2422 6.20117C70.9961 6.20117 89.5996-12.4023 89.5996-35.1562C89.5996-57.9102 70.9961-76.5625 48.1934-76.5625C25.4395-76.5625 6.83594-57.9102 6.83594-35.1562C6.83594-12.4023 25.4395 6.20117 48.2422 6.20117ZM39.7461-20.459C37.0605-20.459 34.668-19.5312 33.5938-18.7988C32.7637-18.2617 32.1777-17.9199 31.0547-17.9199C29.3945-17.9199 27.9297-18.9941 27.9297-21.4844L27.9297-46.9727C29.5898-49.9512 33.3008-52.5391 38.4277-52.5391C41.8457-52.5391 44.9219-50.9277 46.4844-48.6816L46.4844-18.2617C46.2402-18.5059 45.6055-18.8965 45.2637-19.0918C44.2383-19.6289 42.4316-20.459 39.7461-20.459ZM56.6895-20.459C53.9551-20.459 52.1973-19.6777 51.2207-19.0918C50.8301-18.8477 50.1953-18.457 49.9512-18.2129L49.9512-48.6816C51.5137-50.9277 54.5898-52.5391 57.959-52.5391C63.0859-52.5391 66.7969-49.9512 68.457-46.9727L68.457-21.4844C68.457-18.9453 66.9922-17.9199 65.332-17.9199C64.209-17.9199 63.5742-18.2617 62.793-18.7988C61.7676-19.5312 59.3262-20.459 56.6895-20.459Z"/>
  </g>
  <g id="Bold-S" transform="matrix(1 0 0 1 2292.44 696)">
   <path d="M47.5586 5.51758C69.873 5.51758 88.2324-12.8418 88.2324-35.2051C88.2324-57.5195 69.873-75.8789 47.5098-75.8789C25.1953-75.8789 6.83594-57.5195 6.83594-35.2051C6.83594-12.8418 25.1953 5.51758 47.5586 5.51758ZM38.623-20.3613C35.6445-20.3613 33.1055-19.3848 31.9336-18.5059C31.2012-17.9688 30.6152-17.627 29.5898-17.627C28.125-17.627 26.8555-18.5547 26.8555-20.7031L26.8555-47.4121C28.5156-50.3418 32.4219-52.7832 37.3535-52.7832C41.0156-52.7832 44.3848-51.0742 45.8496-48.584L45.8496-17.9688C45.6055-18.1152 44.7754-18.6523 44.4336-18.8477C43.3594-19.4336 41.4551-20.3613 38.623-20.3613ZM56.3965-20.3613C53.6133-20.3613 51.709-19.4824 50.6836-18.8477C50.293-18.6035 49.5117-18.0664 49.2188-17.9199L49.2188-48.584C50.7812-51.0742 54.0527-52.7832 57.666-52.7832C62.6465-52.7832 66.5039-50.3418 68.1641-47.4121L68.1641-20.7031C68.1641-18.5547 66.9434-17.627 65.4297-17.627C64.4043-17.627 63.8184-17.9688 63.0859-18.5059C61.9141-19.3848 59.4238-20.3613 56.3965-20.3613Z"/>
  </g>
  <g id="Semibold-S" transform="matrix(1 0 0 1 1996.2 696)">
   <path d="M47.0703 5.0293C69.0918 5.0293 87.3047-13.1348 87.3047-35.2051C87.3047-57.2266 69.0918-75.4395 47.0215-75.4395C25-75.4395 6.83594-57.2266 6.83594-35.2051C6.83594-13.1348 25.0488 5.0293 47.0703 5.0293ZM37.8418-20.3125C34.668-20.3125 32.0801-19.2383 30.8105-18.3105C30.127-17.7734 29.5898-17.4316 28.6133-17.4316C27.2461-17.4316 26.123-18.2617 26.123-20.2148L26.123-47.6562C27.7832-50.6348 31.7871-52.9785 36.6211-52.9785C40.4785-52.9785 43.9453-51.1719 45.4102-48.5352L45.4102-17.7734C45.1172-17.8711 44.1895-18.5059 43.7988-18.7012C42.7246-19.3359 40.7715-20.3125 37.8418-20.3125ZM56.25-20.3125C53.3203-20.3125 51.416-19.3359 50.3418-18.7012C49.9512-18.457 49.0234-17.8223 48.7305-17.7246L48.7305-48.5352C50.2441-51.1719 53.6621-52.9785 57.4707-52.9785C62.3535-52.9785 66.3086-50.6348 68.0176-47.6562L68.0176-20.2148C68.0176-18.2617 66.8945-17.4316 65.5273-17.4316C64.5508-17.4316 63.9648-17.7734 63.2812-18.3105C62.0605-19.2383 59.4727-20.3125 56.25-20.3125Z"/>
  </g>
  <g id="Medium-S" transform="matrix(1 0 0 1 1699.83 696)">
   <path d="M46.7285 4.6875C68.5547 4.6875 86.6211-13.3789 86.6211-35.2051C86.6211-57.0312 68.5059-75.0977 46.6797-75.0977C24.8535-75.0977 6.83594-57.0312 6.83594-35.2051C6.83594-13.3789 24.9023 4.6875 46.7285 4.6875ZM37.2559-20.2637C33.9355-20.2637 31.25-19.1406 29.9805-18.1152C29.2969-17.627 28.7598-17.334 27.832-17.334C26.5625-17.334 25.5371-18.0176 25.5371-19.8242L25.5371-47.9004C27.1973-50.8789 31.2988-53.125 36.0352-53.125C40.0879-53.125 43.6523-51.2207 45.0684-48.4863L45.0684-17.627C44.7754-17.6758 43.75-18.3594 43.3594-18.6035C42.2363-19.2383 40.2832-20.2637 37.2559-20.2637ZM56.1035-20.2637C53.1738-20.2637 51.1719-19.2383 50.0977-18.6035C49.6582-18.3105 48.6816-17.627 48.3887-17.5781L48.3887-48.4863C49.8535-51.2207 53.3691-53.125 57.3242-53.125C62.1094-53.125 66.2109-50.8789 67.8711-47.9004L67.8711-19.8242C67.8711-18.0176 66.8457-17.334 65.5762-17.334C64.6484-17.334 64.0625-17.627 63.4277-18.1152C62.1582-19.1406 59.5215-20.2637 56.1035-20.2637Z"/>
  </g>
  <g id="Regular-S" transform="matrix(1 0 0 1 1403.58 696)">
   <path d="M46.2402 4.19922C67.7734 4.19922 85.6934-13.6719 85.6934-35.2051C85.6934-56.7383 67.7246-74.6094 46.1914-74.6094C24.707-74.6094 6.83594-56.7383 6.83594-35.2051C6.83594-13.6719 24.7559 4.19922 46.2402 4.19922ZM36.5234-20.2148C32.959-20.2148 30.2246-19.043 28.8574-17.9199C28.2227-17.4316 27.7344-17.1387 26.8066-17.1387C25.6836-17.1387 24.8047-17.7246 24.8047-19.2871L24.8047-48.1445C26.4648-51.1719 30.6641-53.2715 35.3027-53.2715C39.5508-53.2715 43.2617-51.3184 44.6289-48.4375L44.6289-17.4316C44.3359-17.4316 43.1641-18.2129 42.7734-18.457C41.6016-19.0918 39.5996-20.2148 36.5234-20.2148ZM55.957-20.2148C52.8809-20.2148 50.8301-19.1406 49.7559-18.457C49.3164-18.1641 48.1934-17.3828 47.9004-17.3828L47.9004-48.4375C49.3652-51.3184 52.9785-53.2715 57.1777-53.2715C61.8164-53.2715 66.0156-51.1719 67.6758-48.1445L67.6758-19.2871C67.6758-17.7246 66.7969-17.1387 65.625-17.1387C64.7461-17.1387 64.209-17.4316 63.623-17.9199C62.2559-19.043 59.5703-20.2148 55.957-20.2148Z"/>
  </g>
  <g id="Light-S" transform="matrix(1 0 0 1 1107.6 696)">
   <path d="M45.5078 3.4668C66.6992 3.4668 84.2285-14.0137 84.2285-35.2051C84.2285-56.3965 66.6504-73.877 45.5078-73.877C24.3164-73.877 6.83594-56.3965 6.83594-35.2051C6.83594-14.0137 24.3652 3.4668 45.5078 3.4668ZM35.6445-20.3613C31.543-20.3613 28.5156-18.7988 27.3926-17.6758C26.9531-17.2852 26.5137-17.041 25.8301-17.041C24.9512-17.041 24.2188-17.5293 24.2188-18.7012L24.2188-48.4863C25.3906-51.0254 29.8828-53.3691 34.8145-53.3691C39.1602-53.3691 42.7246-51.4648 44.0918-49.1211L44.0918-17.2852C43.8965-17.2852 43.0664-17.8711 42.7734-18.0176C41.6992-18.75 39.4531-20.3613 35.6445-20.3613ZM55.3711-20.3613C51.6113-20.3613 49.3164-18.7988 48.291-18.0176C47.998-17.8223 47.2168-17.2363 46.9238-17.2363L46.9238-49.1211C48.3887-51.4648 51.9043-53.3691 56.2012-53.3691C61.1328-53.3691 65.6738-51.0254 66.7969-48.4863L66.7969-18.7012C66.7969-17.5293 66.0645-17.041 65.1855-17.041C64.502-17.041 64.0625-17.2852 63.623-17.6758C62.5-18.7988 59.5215-20.3613 55.3711-20.3613Z"/>
  </g>
  <g id="Thin-S" transform="matrix(1 0 0 1 811.867 696)">
   <path d="M44.5801 2.53906C65.2832 2.53906 82.2754-14.502 82.2754-35.2051C82.2754-55.9082 65.2344-72.9492 44.5312-72.9492C23.8281-72.9492 6.83594-55.9082 6.83594-35.2051C6.83594-14.502 23.877 2.53906 44.5801 2.53906ZM34.4727-20.5078C29.6387-20.5078 26.2695-18.457 25.5371-17.334C25.293-17.0898 24.9512-16.9434 24.4629-16.9434C23.9258-16.9434 23.4863-17.2852 23.4863-17.9688L23.4863-48.877C23.9258-50.8301 28.8574-53.4668 34.1797-53.4668C38.6719-53.4668 42.041-51.709 43.4082-50.0488L43.4082-17.0898C43.2617-17.1387 42.9199-17.3828 42.7734-17.4805C41.8457-18.3105 39.209-20.5078 34.4727-20.5078ZM54.6387-20.5078C49.9023-20.5078 47.2656-18.3105 46.3379-17.4805C46.1914-17.3828 45.8496-17.0898 45.7031-17.041L45.7031-50.0488C47.1191-51.709 50.4883-53.4668 54.9316-53.4668C60.2539-53.4668 65.1855-50.8301 65.625-48.877L65.625-17.9688C65.625-17.2852 65.1855-16.9434 64.6484-16.9434C64.1602-16.9434 63.8184-17.0898 63.5742-17.334C62.8418-18.457 59.4727-20.5078 54.6387-20.5078Z"/>
  </g>
  <g id="Ultralight-S" transform="matrix(1 0 0 1 515.644 696)">
   <path d="M44.043 2.00195C64.502 2.00195 81.2988-14.7461 81.2988-35.2051C81.2988-55.6641 64.502-72.4121 44.043-72.4121C23.584-72.4121 6.83594-55.6641 6.83594-35.2051C6.83594-14.7461 23.584 2.00195 44.043 2.00195ZM33.8867-20.6543C28.7109-20.6543 25.0977-18.3105 24.5605-17.1875C24.4141-16.9922 24.1699-16.8457 23.7793-16.8457C23.3887-16.8457 23.0957-17.1387 23.0957-17.5781L23.0957-49.1211C23.1934-50.7324 28.3203-53.5645 33.8379-53.5645C38.3789-53.5645 41.6992-51.8066 43.0664-50.5371L43.0664-16.9922C42.9199-16.9922 42.8223-17.1387 42.7734-17.1875C41.8945-18.0664 39.1113-20.6543 33.8867-20.6543ZM54.248-20.6543C49.0234-20.6543 46.2402-18.0664 45.3613-17.1875C45.2637-17.1387 45.166-16.9922 45.0684-16.9434L45.0684-50.5371C46.4355-51.8066 49.707-53.5645 54.2969-53.5645C59.8145-53.5645 64.9414-50.7324 65.0391-49.1211L65.0391-17.5781C65.0391-17.1387 64.6973-16.8457 64.3066-16.8457C63.9648-16.8457 63.7207-16.9922 63.5742-17.1875C62.9883-18.3105 59.4238-20.6543 54.248-20.6543Z"/>
  </g>
 </g>
</svg>
