<?xml version="1.0" encoding="UTF-8"?>
<!--Generator: Apple Native CoreSVG 149-->
<!DOCTYPE svg
PUBLIC "-//W3C//DTD SVG 1.1//EN"
       "http://www.w3.org/Graphics/SVG/1.1/DTD/svg11.dtd">
<svg version="1.1" xmlns="http://www.w3.org/2000/svg" xmlns:xlink="http://www.w3.org/1999/xlink" width="3300" height="2200">
 <!--glyph: "uni1001CC.medium", point size: 100.000000, font version: "Version 16.0d12e3", template writer version: "8"-->
 <g id="Notes">
  <rect height="2200" id="artboard" style="fill:white;opacity:1" width="3300" x="0" y="0"/>
  <line id="" style="fill:none;stroke:black;opacity:1;stroke-width:0.5;" x1="263" x2="3036" y1="292" y2="292"/>
  <text style="stroke:none;fill:black;font-family:-apple-system,&quot;SF Pro Display&quot;,&quot;SF Pro Text&quot;,Helvetica,sans-serif;font-weight:bold;" transform="matrix(1 0 0 1 263 322)">Weight/Scale Variations</text>
  <text style="stroke:none;fill:black;font-family:-apple-system,&quot;SF Pro Display&quot;,&quot;SF Pro Text&quot;,Helvetica,sans-serif;text-anchor:middle;" transform="matrix(1 0 0 1 559.711 322)">Ultralight</text>
  <text style="stroke:none;fill:black;font-family:-apple-system,&quot;SF Pro Display&quot;,&quot;SF Pro Text&quot;,Helvetica,sans-serif;text-anchor:middle;" transform="matrix(1 0 0 1 856.422 322)">Thin</text>
  <text style="stroke:none;fill:black;font-family:-apple-system,&quot;SF Pro Display&quot;,&quot;SF Pro Text&quot;,Helvetica,sans-serif;text-anchor:middle;" transform="matrix(1 0 0 1 1153.13 322)">Light</text>
  <text style="stroke:none;fill:black;font-family:-apple-system,&quot;SF Pro Display&quot;,&quot;SF Pro Text&quot;,Helvetica,sans-serif;text-anchor:middle;" transform="matrix(1 0 0 1 1449.84 322)">Regular</text>
  <text style="stroke:none;fill:black;font-family:-apple-system,&quot;SF Pro Display&quot;,&quot;SF Pro Text&quot;,Helvetica,sans-serif;text-anchor:middle;" transform="matrix(1 0 0 1 1746.56 322)">Medium</text>
  <text style="stroke:none;fill:black;font-family:-apple-system,&quot;SF Pro Display&quot;,&quot;SF Pro Text&quot;,Helvetica,sans-serif;text-anchor:middle;" transform="matrix(1 0 0 1 2043.27 322)">Semibold</text>
  <text style="stroke:none;fill:black;font-family:-apple-system,&quot;SF Pro Display&quot;,&quot;SF Pro Text&quot;,Helvetica,sans-serif;text-anchor:middle;" transform="matrix(1 0 0 1 2339.98 322)">Bold</text>
  <text style="stroke:none;fill:black;font-family:-apple-system,&quot;SF Pro Display&quot;,&quot;SF Pro Text&quot;,Helvetica,sans-serif;text-anchor:middle;" transform="matrix(1 0 0 1 2636.69 322)">Heavy</text>
  <text style="stroke:none;fill:black;font-family:-apple-system,&quot;SF Pro Display&quot;,&quot;SF Pro Text&quot;,Helvetica,sans-serif;text-anchor:middle;" transform="matrix(1 0 0 1 2933.4 322)">Black</text>
  <line id="" style="fill:none;stroke:black;opacity:1;stroke-width:0.5;" x1="263" x2="3036" y1="1903" y2="1903"/>
  <g id="" transform="matrix(1 0 0 1 263 1933)">
   <path d="M9.24805 0.830078C13.5547 0.830078 17.1387-2.74414 17.1387-7.05078C17.1387-11.3574 13.5449-14.9316 9.23828-14.9316C4.94141-14.9316 1.36719-11.3574 1.36719-7.05078C1.36719-2.74414 4.95117 0.830078 9.24805 0.830078ZM9.24805-0.654297C5.70312-0.654297 2.87109-3.49609 2.87109-7.05078C2.87109-10.6055 5.69336-13.4473 9.23828-13.4473C12.793-13.4473 15.6348-10.6055 15.6445-7.05078C15.6543-3.49609 12.8027-0.654297 9.24805-0.654297ZM9.22852-3.62305C9.69727-3.62305 9.9707-3.93555 9.9707-4.45312L9.9707-6.31836L12.002-6.31836C12.5-6.31836 12.832-6.57227 12.832-7.04102C12.832-7.51953 12.5195-7.7832 12.002-7.7832L9.9707-7.7832L9.9707-9.81445C9.9707-10.332 9.69727-10.6543 9.22852-10.6543C8.75977-10.6543 8.50586-10.3125 8.50586-9.81445L8.50586-7.7832L6.49414-7.7832C5.97656-7.7832 5.64453-7.51953 5.64453-7.04102C5.64453-6.57227 5.99609-6.31836 6.49414-6.31836L8.50586-6.31836L8.50586-4.45312C8.50586-3.95508 8.75977-3.62305 9.22852-3.62305Z"/>
  </g>
  <g id="" transform="matrix(1 0 0 1 281.506 1933)">
   <path d="M11.709 2.91016C17.1582 2.91016 21.6699-1.61133 21.6699-7.05078C21.6699-12.5 17.1484-17.0117 11.6992-17.0117C6.25977-17.0117 1.74805-12.5 1.74805-7.05078C1.74805-1.61133 6.26953 2.91016 11.709 2.91016ZM11.709 1.25C7.09961 1.25 3.41797-2.44141 3.41797-7.05078C3.41797-11.6602 7.08984-15.3516 11.6992-15.3516C16.3086-15.3516 20-11.6602 20.0098-7.05078C20.0195-2.44141 16.3184 1.25 11.709 1.25ZM11.6797-2.66602C12.207-2.66602 12.5098-3.01758 12.5098-3.59375L12.5098-6.23047L15.3223-6.23047C15.8691-6.23047 16.25-6.51367 16.25-7.03125C16.25-7.55859 15.8887-7.86133 15.3223-7.86133L12.5098-7.86133L12.5098-10.6836C12.5098-11.25 12.207-11.6113 11.6797-11.6113C11.1621-11.6113 10.8789-11.2305 10.8789-10.6836L10.8789-7.86133L8.07617-7.86133C7.50977-7.86133 7.13867-7.55859 7.13867-7.03125C7.13867-6.51367 7.5293-6.23047 8.07617-6.23047L10.8789-6.23047L10.8789-3.59375C10.8789-3.03711 11.1621-2.66602 11.6797-2.66602Z"/>
  </g>
  <g id="" transform="matrix(1 0 0 1 304.924 1933)">
   <path d="M14.9707 5.66406C21.9336 5.66406 27.6953-0.0976562 27.6953-7.05078C27.6953-14.0137 21.9238-19.7754 14.9609-19.7754C8.00781-19.7754 2.25586-14.0137 2.25586-7.05078C2.25586-0.0976562 8.01758 5.66406 14.9707 5.66406ZM14.9707 3.84766C8.93555 3.84766 4.08203-1.01562 4.08203-7.05078C4.08203-13.0957 8.92578-17.9492 14.9609-17.9492C21.0059-17.9492 25.8594-13.0957 25.8691-7.05078C25.8789-1.01562 21.0156 3.84766 14.9707 3.84766ZM14.9414-1.38672C15.5176-1.38672 15.8594-1.77734 15.8594-2.38281L15.8594-6.13281L19.7754-6.13281C20.3711-6.13281 20.7812-6.46484 20.7812-7.02148C20.7812-7.59766 20.3906-7.93945 19.7754-7.93945L15.8594-7.93945L15.8594-11.8652C15.8594-12.4805 15.5176-12.8711 14.9414-12.8711C14.375-12.8711 14.0527-12.4609 14.0527-11.8652L14.0527-7.93945L10.1465-7.93945C9.53125-7.93945 9.13086-7.59766 9.13086-7.02148C9.13086-6.46484 9.55078-6.13281 10.1465-6.13281L14.0527-6.13281L14.0527-2.38281C14.0527-1.79688 14.375-1.38672 14.9414-1.38672Z"/>
  </g>
  <text style="stroke:none;fill:black;font-family:-apple-system,&quot;SF Pro Display&quot;,&quot;SF Pro Text&quot;,Helvetica,sans-serif;font-weight:bold;" transform="matrix(1 0 0 1 263 1953)">Design Variations</text>
  <text style="stroke:none;fill:black;font-family:-apple-system,&quot;SF Pro Display&quot;,&quot;SF Pro Text&quot;,Helvetica,sans-serif;" transform="matrix(1 0 0 1 263 1971)">Symbols are supported in up to nine weights and three scales.</text>
  <text style="stroke:none;fill:black;font-family:-apple-system,&quot;SF Pro Display&quot;,&quot;SF Pro Text&quot;,Helvetica,sans-serif;" transform="matrix(1 0 0 1 263 1989)">For optimal layout with text and other symbols, vertically align</text>
  <text style="stroke:none;fill:black;font-family:-apple-system,&quot;SF Pro Display&quot;,&quot;SF Pro Text&quot;,Helvetica,sans-serif;" transform="matrix(1 0 0 1 263 2007)">symbols with the adjacent text.</text>
  <line id="" style="fill:none;stroke:#00AEEF;stroke-width:0.5;opacity:1.0;" x1="776" x2="776" y1="1919" y2="1933"/>
  <g id="" transform="matrix(1 0 0 1 776 1933)">
   <path d="M3.31055 0.126953C3.82812 0.126953 4.08203-0.0683594 4.26758-0.605469L5.52734-4.0625L11.2891-4.0625L12.5488-0.605469C12.7344-0.0683594 12.9883 0.126953 13.4961 0.126953C14.0137 0.126953 14.3457-0.185547 14.3457-0.673828C14.3457-0.839844 14.3164-0.986328 14.2383-1.20117L9.6582-13.3887C9.43359-13.9941 9.0332-14.2871 8.4082-14.2871C7.80273-14.2871 7.39258-13.9941 7.17773-13.3984L2.59766-1.19141C2.51953-0.976562 2.49023-0.830078 2.49023-0.664062C2.49023-0.175781 2.80273 0.126953 3.31055 0.126953ZM6.00586-5.53711L8.37891-12.1094L8.42773-12.1094L10.8008-5.53711Z"/>
  </g>
  <line id="" style="fill:none;stroke:#00AEEF;stroke-width:0.5;opacity:1.0;" x1="792.836" x2="792.836" y1="1919" y2="1933"/>
  <text style="stroke:none;fill:black;font-family:-apple-system,&quot;SF Pro Display&quot;,&quot;SF Pro Text&quot;,Helvetica,sans-serif;font-weight:bold;" transform="matrix(1 0 0 1 776 1953)">Margins</text>
  <text style="stroke:none;fill:black;font-family:-apple-system,&quot;SF Pro Display&quot;,&quot;SF Pro Text&quot;,Helvetica,sans-serif;" transform="matrix(1 0 0 1 776 1971)">Leading and trailing margins on the left and right side of each symbol</text>
  <text style="stroke:none;fill:black;font-family:-apple-system,&quot;SF Pro Display&quot;,&quot;SF Pro Text&quot;,Helvetica,sans-serif;" transform="matrix(1 0 0 1 776 1989)">can be adjusted by modifying the x-location of the margin guidelines.</text>
  <text style="stroke:none;fill:black;font-family:-apple-system,&quot;SF Pro Display&quot;,&quot;SF Pro Text&quot;,Helvetica,sans-serif;" transform="matrix(1 0 0 1 776 2007)">Modifications are automatically applied proportionally to all</text>
  <text style="stroke:none;fill:black;font-family:-apple-system,&quot;SF Pro Display&quot;,&quot;SF Pro Text&quot;,Helvetica,sans-serif;" transform="matrix(1 0 0 1 776 2025)">scales and weights.</text>
  <g id="" transform="matrix(1 0 0 1 1289 1933)">
   <path d="M2.8418 1.86523L4.54102 3.57422C5.40039 4.44336 6.38672 4.38477 7.31445 3.35938L17.4902-7.85156C17.7539-7.76367 18.0273-7.7832 18.3398-7.8418L19.4043-8.03711L20.0684-7.36328L20.0293-6.80664C19.9902-6.30859 20.1172-5.92773 20.6055-5.44922L21.3672-4.70703C21.8457-4.22852 22.4609-4.19922 22.9297-4.66797L25.8398-7.58789C26.3086-8.05664 26.2891-8.65234 25.8105-9.13086L25.0391-9.89258C24.5605-10.3711 24.1895-10.5273 23.7109-10.4883L23.1348-10.4395L22.4902-11.0742L22.7344-12.1973C22.8613-12.7637 22.7051-13.2031 22.1191-13.7891L19.9219-15.9766C16.582-19.2969 12.1484-19.2188 9.25781-16.3281C8.83789-15.918 8.80859-15.3418 9.04297-14.9512C9.27734-14.5898 9.73633-14.3555 10.3809-14.5215C11.8457-14.8633 13.3691-14.9219 14.7949-13.9844L14.209-12.5293C14.0137-12.0508 13.9844-11.6504 14.1113-11.2891L3.04688-0.898438C2.06055 0.0195312 1.98242 0.996094 2.8418 1.86523ZM10.752-15.957C13.1836-17.7344 16.4746-17.4316 18.7012-15.2051L21.1328-12.793C21.3672-12.5586 21.4062-12.373 21.3379-12.0312L21.0156-10.5469L22.5195-9.0625L23.5059-9.12109C23.7598-9.13086 23.8379-9.11133 24.0332-8.91602L24.6094-8.33984L22.168-5.89844L21.5918-6.47461C21.3965-6.66992 21.3672-6.74805 21.377-7.01172L21.4453-7.98828L19.9512-9.47266L18.4277-9.21875C18.1055-9.15039 17.959-9.17969 17.7148-9.41406L15.7129-11.416C15.459-11.6504 15.4297-11.8164 15.5859-12.1875L16.4648-14.2773C14.9023-15.7324 12.8711-16.3574 10.8398-15.7617C10.6836-15.7227 10.625-15.8496 10.752-15.957ZM5.27344 2.30469L4.10156 1.14258C3.63281 0.683594 3.74023 0.341797 4.14062-0.0195312L14.9512-10.1953L16.416-8.71094L6.42578 2.27539C6.07422 2.67578 5.74219 2.77344 5.27344 2.30469Z"/>
  </g>
  <text style="stroke:none;fill:black;font-family:-apple-system,&quot;SF Pro Display&quot;,&quot;SF Pro Text&quot;,Helvetica,sans-serif;font-weight:bold;" transform="matrix(1 0 0 1 1289 1953)">Exporting</text>
  <text style="stroke:none;fill:black;font-family:-apple-system,&quot;SF Pro Display&quot;,&quot;SF Pro Text&quot;,Helvetica,sans-serif;" transform="matrix(1 0 0 1 1289 1971)">Symbols should be outlined when exporting to ensure the</text>
  <text style="stroke:none;fill:black;font-family:-apple-system,&quot;SF Pro Display&quot;,&quot;SF Pro Text&quot;,Helvetica,sans-serif;" transform="matrix(1 0 0 1 1289 1989)">design is preserved when submitting to Xcode.</text>
  <text id="template-version" style="stroke:none;fill:black;font-family:-apple-system,&quot;SF Pro Display&quot;,&quot;SF Pro Text&quot;,Helvetica,sans-serif;text-anchor:end;" transform="matrix(1 0 0 1 3036 1933)">Template v.2.0</text>
  <text style="stroke:none;fill:black;font-family:-apple-system,&quot;SF Pro Display&quot;,&quot;SF Pro Text&quot;,Helvetica,sans-serif;text-anchor:end;" transform="matrix(1 0 0 1 3036 1951)">Requires Xcode 12 or greater</text>
  <text style="stroke:none;fill:black;font-family:-apple-system,&quot;SF Pro Display&quot;,&quot;SF Pro Text&quot;,Helvetica,sans-serif;text-anchor:end;" transform="matrix(1 0 0 1 3036 1969)">Generated from cloud.hail</text>
  <text style="stroke:none;fill:black;font-family:-apple-system,&quot;SF Pro Display&quot;,&quot;SF Pro Text&quot;,Helvetica,sans-serif;text-anchor:end;" transform="matrix(1 0 0 1 3036 1987)">Typeset at 100 points</text>
  <text style="stroke:none;fill:black;font-family:-apple-system,&quot;SF Pro Display&quot;,&quot;SF Pro Text&quot;,Helvetica,sans-serif;" transform="matrix(1 0 0 1 263 726)">Small</text>
  <text style="stroke:none;fill:black;font-family:-apple-system,&quot;SF Pro Display&quot;,&quot;SF Pro Text&quot;,Helvetica,sans-serif;" transform="matrix(1 0 0 1 263 1156)">Medium</text>
  <text style="stroke:none;fill:black;font-family:-apple-system,&quot;SF Pro Display&quot;,&quot;SF Pro Text&quot;,Helvetica,sans-serif;" transform="matrix(1 0 0 1 263 1586)">Large</text>
 </g>
 <g id="Guides">
  <g id="H-reference" style="fill:#27AAE1;stroke:none;" transform="matrix(1 0 0 1 339 696)">
   <path d="M0.976562 0L3.66211 0L12.9883-24.4629L45.752-24.4629L55.127 0L57.7637 0L30.6152-70.459L28.125-70.459ZM29.3457-67.1387L29.4434-67.1387L44.873-26.709L13.8672-26.709Z"/>
  </g>
  <line id="Baseline-S" style="fill:none;stroke:#27AAE1;opacity:1;stroke-width:0.5;" x1="263" x2="3036" y1="696" y2="696"/>
  <line id="Capline-S" style="fill:none;stroke:#27AAE1;opacity:1;stroke-width:0.5;" x1="263" x2="3036" y1="625.541" y2="625.541"/>
  <g id="H-reference" style="fill:#27AAE1;stroke:none;" transform="matrix(1 0 0 1 339 1126)">
   <path d="M0.976562 0L3.66211 0L12.9883-24.4629L45.752-24.4629L55.127 0L57.7637 0L30.6152-70.459L28.125-70.459ZM29.3457-67.1387L29.4434-67.1387L44.873-26.709L13.8672-26.709Z"/>
  </g>
  <line id="Baseline-M" style="fill:none;stroke:#27AAE1;opacity:1;stroke-width:0.5;" x1="263" x2="3036" y1="1126" y2="1126"/>
  <line id="Capline-M" style="fill:none;stroke:#27AAE1;opacity:1;stroke-width:0.5;" x1="263" x2="3036" y1="1055.54" y2="1055.54"/>
  <g id="H-reference" style="fill:#27AAE1;stroke:none;" transform="matrix(1 0 0 1 339 1556)">
   <path d="M0.976562 0L3.66211 0L12.9883-24.4629L45.752-24.4629L55.127 0L57.7637 0L30.6152-70.459L28.125-70.459ZM29.3457-67.1387L29.4434-67.1387L44.873-26.709L13.8672-26.709Z"/>
  </g>
  <line id="Baseline-L" style="fill:none;stroke:#27AAE1;opacity:1;stroke-width:0.5;" x1="263" x2="3036" y1="1556" y2="1556"/>
  <line id="Capline-L" style="fill:none;stroke:#27AAE1;opacity:1;stroke-width:0.5;" x1="263" x2="3036" y1="1485.54" y2="1485.54"/>
  <line id="left-margin" style="fill:none;stroke:#00AEEF;stroke-width:0.5;opacity:1.0;" x1="1385.34" x2="1385.34" y1="1030.79" y2="1150.12"/>
  <line id="right-margin" style="fill:none;stroke:#00AEEF;stroke-width:0.5;opacity:1.0;" x1="1514.35" x2="1514.35" y1="1030.79" y2="1150.12"/>
 </g>
 <g id="Symbols">
  <g id="Black-L" transform="matrix(1 0 0 1 2845.61 1556)">
   <path d="M45.1172-1.17188L124.561-1.17188C147.168-1.17188 164.307-18.4082 164.307-40.2832C164.307-62.4512 147.217-79.5898 124.512-79.5898C117.236-93.6523 103.613-104.785 81.543-104.785C55.8105-104.785 35.9375-86.2793 32.5684-62.5977C20.4102-58.3496 11.2793-47.6074 11.2793-33.0566C11.2793-15.0391 24.7559-1.17188 45.1172-1.17188ZM45.6543-19.1895C34.668-19.1895 29.2969-24.8535 29.2969-32.7148C29.2969-39.7461 33.6426-44.9707 43.5547-47.5586C47.8027-48.6328 48.9258-50.5859 49.5605-54.8828C52.5391-75.7812 65.3809-86.7676 81.543-86.7676C93.6035-86.7676 103.809-79.9316 110.742-66.8457C112.598-63.3301 114.6-62.1094 118.994-62.1094C137.842-62.1094 146.289-52.2949 146.289-39.8926C146.289-28.2227 137.549-19.1895 124.219-19.1895ZM55.4688 21.7285L58.252 16.8945C59.7656 14.3066 59.0332 11.1328 56.3965 9.61914C53.7598 8.10547 50.8301 9.0332 49.2676 11.7676L46.4844 16.6504C45.0684 19.0918 45.6055 22.2656 48.291 23.7793C50.9277 25.293 54.0527 24.2188 55.4688 21.7285ZM82.959 31.3477L91.3086 16.9434C92.7246 14.4531 92.0898 11.2305 89.4531 9.7168C86.8164 8.20312 83.8867 9.13086 82.3242 11.8652L73.9746 26.2695C72.5586 28.7598 73.1445 31.9336 75.7812 33.4473C78.418 34.9121 81.543 33.8379 82.959 31.3477ZM121.484 21.9727L124.268 17.1387C125.781 14.5508 125.049 11.377 122.412 9.86328C119.775 8.34961 116.846 9.27734 115.283 12.0117L112.5 16.8457C111.084 19.3359 111.621 22.5098 114.307 24.0234C116.943 25.5371 120.068 24.4629 121.484 21.9727ZM41.2598 43.5059C45.6543 43.5059 49.3164 39.8438 49.3164 35.4004C49.3164 31.0547 45.6543 27.3926 41.2598 27.3926C36.8652 27.3926 33.2031 31.0547 33.2031 35.4004C33.2031 39.8438 36.8652 43.5059 41.2598 43.5059ZM107.275 43.75C111.719 43.75 115.332 40.0879 115.332 35.5957C115.332 31.2988 111.719 27.6367 107.275 27.6367C102.881 27.6367 99.2188 31.2988 99.2188 35.5957C99.2188 40.0879 102.881 43.75 107.275 43.75ZM68.75 53.1738C73.1934 53.1738 76.8066 49.5117 76.8066 45.0195C76.8066 40.7227 73.1934 37.0605 68.75 37.0605C64.3555 37.0605 60.6934 40.7227 60.6934 45.0195C60.6934 49.5117 64.3555 53.1738 68.75 53.1738Z"/>
  </g>
  <g id="Heavy-L" transform="matrix(1 0 0 1 2550.04 1556)">
   <path d="M43.9941-2.19727L123.242-2.19727C145.264-2.19727 162.012-19.043 162.012-40.2832C162.012-61.8164 145.117-78.3691 122.803-78.3691C115.332-92.7734 101.562-103.711 80.3711-103.711C55.1758-103.711 35.4492-85.2051 32.373-61.5723C20.3613-57.5684 11.2793-47.0703 11.2793-32.8125C11.2793-15.625 24.1211-2.19727 43.9941-2.19727ZM44.3848-18.0176C32.8125-18.0176 27.0508-24.1699 27.0508-32.4707C27.0508-39.7949 31.5918-45.5078 41.6992-48.1445C45.7031-49.1699 46.8262-50.9766 47.3633-54.9805C49.9512-75.8789 63.5742-87.9395 80.3711-87.9395C93.0664-87.9395 103.564-80.7617 110.498-67.4316C112.207-64.1113 114.16-62.8906 118.311-62.8906C137.109-62.8906 146.191-52.6855 146.191-39.8926C146.191-27.6367 136.816-18.0176 123.047-18.0176ZM53.7598 20.6543L56.9824 15.0391C58.3496 12.6953 57.7148 9.81445 55.2734 8.39844C52.8809 7.03125 50.1953 7.86133 48.7793 10.3516L45.5078 16.0156C44.1895 18.3105 44.7266 21.1914 47.168 22.5586C49.5605 23.9258 52.4414 22.998 53.7598 20.6543ZM81.25 30.3223L90.0391 15.1367C91.3574 12.793 90.7227 9.91211 88.3301 8.49609C85.9375 7.12891 83.2031 7.95898 81.7871 10.4492L72.998 25.6836C71.6797 27.9785 72.2168 30.8105 74.6582 32.2266C77.0996 33.5938 79.9316 32.6172 81.25 30.3223ZM119.775 20.8984L122.998 15.2832C124.365 12.9395 123.73 10.0586 121.338 8.64258C118.896 7.27539 116.211 8.10547 114.795 10.5957L111.523 16.2598C110.254 18.5547 110.742 21.4355 113.184 22.8027C115.576 24.1699 118.457 23.2422 119.775 20.8984ZM40.4297 41.6016C44.6777 41.6016 48.1445 38.0859 48.1445 33.8379C48.1445 29.6875 44.6777 26.1719 40.4297 26.1719C36.2305 26.1719 32.7637 29.6875 32.7637 33.8379C32.7637 38.0859 36.2305 41.6016 40.4297 41.6016ZM106.494 41.8457C110.693 41.8457 114.16 38.3301 114.16 34.082C114.16 29.9316 110.693 26.416 106.494 26.416C102.246 26.416 98.7793 29.9316 98.7793 34.082C98.7793 38.3301 102.246 41.8457 106.494 41.8457ZM67.9688 51.2207C72.168 51.2207 75.6348 47.7539 75.6348 43.457C75.6348 39.3555 72.168 35.8398 67.9688 35.8398C63.7207 35.8398 60.2539 39.3555 60.2539 43.457C60.2539 47.7539 63.7207 51.2207 67.9688 51.2207Z"/>
  </g>
  <g id="Bold-L" transform="matrix(1 0 0 1 2254.63 1556)">
   <path d="M42.7246-3.36914L121.68-3.36914C143.164-3.36914 159.424-19.7266 159.424-40.2344C159.424-61.1816 142.725-77.002 120.85-77.002C113.232-91.8457 99.2676-102.539 79.0039-102.539C54.4434-102.539 34.8145-83.9844 32.1289-60.4492C20.3125-56.6895 11.2793-46.4355 11.2793-32.5195C11.2793-16.2598 23.3398-3.36914 42.7246-3.36914ZM42.9688-16.6992C30.7129-16.6992 24.5605-23.3887 24.5605-32.2266C24.5605-39.8926 29.2969-46.0938 39.6973-48.8281C43.3594-49.7559 44.4824-51.4648 44.9219-55.1758C47.1191-75.9766 61.5723-89.209 79.0039-89.209C92.5293-89.209 103.369-81.6406 110.205-68.1152C111.816-64.9414 113.672-63.8184 117.529-63.8184C136.23-63.8184 146.094-53.1738 146.094-39.9414C146.094-26.9531 135.938-16.6992 121.777-16.6992ZM51.8066 19.5312L55.5176 13.0371C56.7871 10.8887 56.2012 8.30078 54.0527 7.08008C51.9043 5.85938 49.4629 6.5918 48.1934 8.78906L44.4336 15.3809C43.2617 17.4316 43.75 19.9707 45.9473 21.2402C48.0469 22.4609 50.6348 21.6309 51.8066 19.5312ZM79.2969 29.1504L88.5742 13.0859C89.7949 10.9863 89.2578 8.39844 87.1094 7.12891C84.9609 5.9082 82.5195 6.68945 81.25 8.88672L71.9238 25.0488C70.752 27.0996 71.2402 29.6387 73.4375 30.8594C75.5859 32.0801 78.125 31.25 79.2969 29.1504ZM117.822 19.7754L121.582 13.2812C122.803 11.1328 122.217 8.54492 120.068 7.32422C117.92 6.10352 115.479 6.83594 114.209 9.0332L110.449 15.625C109.277 17.6758 109.766 20.2148 111.963 21.4844C114.111 22.6562 116.65 21.875 117.822 19.7754ZM39.5508 39.4531C43.5059 39.4531 46.8262 36.1328 46.8262 32.0801C46.8262 28.1738 43.5059 24.8535 39.5508 24.8535C35.5469 24.8535 32.2266 28.1738 32.2266 32.0801C32.2266 36.1328 35.5469 39.4531 39.5508 39.4531ZM105.566 39.6973C109.521 39.6973 112.842 36.377 112.842 32.3242C112.842 28.418 109.57 25.0977 105.566 25.0977C101.562 25.0977 98.2422 28.418 98.2422 32.3242C98.2422 36.377 101.562 39.6973 105.566 39.6973ZM67.041 49.0723C70.9961 49.0723 74.3164 45.752 74.3164 41.748C74.3164 37.793 71.0449 34.4727 67.041 34.4727C63.0371 34.4727 59.7168 37.793 59.7168 41.748C59.7168 45.752 63.0371 49.0723 67.041 49.0723Z"/>
  </g>
  <g id="Semibold-L" transform="matrix(1 0 0 1 1958.82 1556)">
   <path d="M41.8457-4.19922L120.654-4.19922C141.699-4.19922 157.617-20.166 157.617-40.2344C157.617-60.6934 141.113-76.0254 119.482-76.0254C111.768-91.2109 97.7051-101.709 78.0762-101.709C53.9062-101.709 34.4238-83.1543 31.9824-59.668C20.2637-56.0547 11.2793-46.0449 11.2793-32.373C11.2793-16.6992 22.8516-4.19922 41.8457-4.19922ZM41.9922-15.7715C29.2969-15.7715 22.8516-22.8516 22.8516-32.0801C22.8516-39.9414 27.6855-46.4844 38.2812-49.2676C41.748-50.1953 42.8711-51.7578 43.2129-55.2734C45.1172-76.0742 60.1562-90.0879 78.0762-90.0879C92.1387-90.0879 103.223-82.2754 110.059-68.5547C111.572-65.5273 113.33-64.4531 116.992-64.4531C135.645-64.4531 146.045-53.4668 146.045-39.9414C146.045-26.5137 135.352-15.7715 120.898-15.7715ZM50.4883 18.75L54.541 11.6211C55.7129 9.66797 55.127 7.27539 53.1738 6.15234C51.2207 5.0293 48.9746 5.71289 47.8027 7.71484L43.7012 14.9414C42.627 16.8457 43.0664 19.1406 45.0684 20.3125C47.0215 21.3867 49.3652 20.6543 50.4883 18.75ZM77.9785 28.3691L87.5977 11.6699C88.7207 9.7168 88.1836 7.37305 86.2305 6.20117C84.2773 5.07812 81.9824 5.76172 80.8594 7.8125L71.1914 24.5605C70.0684 26.4648 70.5566 28.8086 72.5586 29.9316C74.5117 31.0547 76.8555 30.3223 77.9785 28.3691ZM116.504 18.9941L120.557 11.8652C121.729 9.91211 121.191 7.51953 119.238 6.39648C117.236 5.27344 114.99 5.95703 113.818 7.95898L109.717 15.1855C108.643 17.0898 109.082 19.3848 111.084 20.5566C113.037 21.6309 115.381 20.8984 116.504 18.9941ZM38.916 37.9395C42.7246 37.9395 45.8984 34.7656 45.8984 30.9082C45.8984 27.0996 42.7246 23.9258 38.916 23.9258C35.0586 23.9258 31.8848 27.0996 31.8848 30.9082C31.8848 34.7656 35.0586 37.9395 38.916 37.9395ZM104.932 38.1836C108.74 38.1836 111.914 35.0098 111.914 31.1523C111.914 27.3438 108.789 24.1699 104.932 24.1699C101.074 24.1699 97.9004 27.3438 97.9004 31.1523C97.9004 35.0098 101.074 38.1836 104.932 38.1836ZM66.4062 47.6074C70.2148 47.6074 73.3887 44.4336 73.3887 40.5273C73.3887 36.7676 70.2637 33.5449 66.4062 33.5449C62.5488 33.5449 59.375 36.7676 59.375 40.5273C59.375 44.4336 62.5488 47.6074 66.4062 47.6074Z"/>
  </g>
  <g id="Medium-L" transform="matrix(1 0 0 1 1662.79 1556)">
   <path d="M41.2109-4.78516L119.873-4.78516C140.625-4.78516 156.25-20.5566 156.25-40.1855C156.25-60.3516 139.844-75.3418 118.457-75.3418C110.693-90.7227 96.4844-101.074 77.3438-101.074C53.5156-101.074 34.1309-82.5195 31.8359-59.0332C20.2148-55.6152 11.2793-45.7031 11.2793-32.2266C11.2793-16.9922 22.4609-4.78516 41.2109-4.78516ZM41.2109-15.0879C28.2227-15.0879 21.582-22.4609 21.582-31.9336C21.582-39.9902 26.5137-46.7773 37.207-49.6094C40.5273-50.4883 41.6504-52.002 41.9434-55.3223C43.6523-76.123 59.082-90.7715 77.3438-90.7715C91.8457-90.7715 103.076-82.7148 109.912-68.8965C111.328-65.9668 113.086-64.9414 116.602-64.9414C135.205-64.9414 145.947-53.7109 145.947-39.9414C145.947-26.123 134.912-15.0879 120.215-15.0879ZM49.4629 18.1152L53.8086 10.5469C54.8828 8.69141 54.3457 6.49414 52.5391 5.41992C50.6836 4.39453 48.584 5.0293 47.5098 6.93359L43.1152 14.5996C42.1387 16.3574 42.5293 18.5059 44.4336 19.5801C46.2402 20.6055 48.4375 19.9707 49.4629 18.1152ZM76.9531 27.7832L86.8652 10.6445C87.8906 8.74023 87.4023 6.5918 85.5957 5.51758C83.7402 4.44336 81.6406 5.07812 80.5664 6.98242L70.6055 24.2188C69.5801 26.0254 70.0684 28.1738 71.9238 29.248C73.7305 30.2734 75.9277 29.5898 76.9531 27.7832ZM115.479 18.3594L119.824 10.791C120.898 8.93555 120.41 6.73828 118.555 5.66406C116.699 4.63867 114.6 5.27344 113.525 7.12891L109.131 14.8438C108.154 16.6016 108.594 18.75 110.449 19.8242C112.256 20.8496 114.453 20.2148 115.479 18.3594ZM38.4277 36.8164C42.1387 36.8164 45.2148 33.7402 45.2148 29.9805C45.2148 26.3184 42.1387 23.1934 38.4277 23.1934C34.668 23.1934 31.5918 26.3184 31.5918 29.9805C31.5918 33.7402 34.668 36.8164 38.4277 36.8164ZM104.443 37.0605C108.154 37.0605 111.23 33.9844 111.23 30.2246C111.23 26.5625 108.203 23.4375 104.443 23.4375C100.732 23.4375 97.6562 26.5625 97.6562 30.2246C97.6562 33.9844 100.732 37.0605 104.443 37.0605ZM65.918 46.4844C69.6289 46.4844 72.7051 43.3594 72.7051 39.6484C72.7051 35.9863 69.6777 32.8613 65.918 32.8613C62.207 32.8613 59.1309 35.9863 59.1309 39.6484C59.1309 43.3594 62.207 46.4844 65.918 46.4844Z"/>
  </g>
  <g id="Regular-L" transform="matrix(1 0 0 1 1366.96 1556)">
   <path d="M40.3809-5.61523L118.848-5.61523C139.16-5.61523 154.492-20.9961 154.492-40.1855C154.492-59.9121 138.232-74.3652 117.139-74.3652C109.277-90.0879 94.9219-100.244 76.4648-100.244C53.0273-100.244 33.6914-81.6895 31.6895-58.252C20.166-55.0293 11.2793-45.2637 11.2793-32.0312C11.2793-17.4316 21.9238-5.61523 40.3809-5.61523ZM40.2344-14.209C26.8066-14.209 19.873-21.9727 19.873-31.7871C19.873-40.0879 24.9023-47.2168 35.791-50.0977C38.916-50.9277 40.0391-52.3438 40.2832-55.4688C41.6992-76.2207 57.7148-91.6504 76.4648-91.6504C91.4551-91.6504 102.93-83.3496 109.717-69.3359C111.084-66.5527 112.744-65.5762 116.064-65.5762C134.619-65.5762 145.898-54.0039 145.898-39.9414C145.898-25.6836 134.326-14.209 119.336-14.209ZM48.1445 17.334L52.832 9.13086C53.8086 7.4707 53.3203 5.46875 51.709 4.49219C50.0488 3.56445 48.0957 4.15039 47.1191 5.85938L42.3828 14.1113C41.4551 15.7715 41.8945 17.6758 43.5547 18.6523C45.2148 19.5801 47.168 19.043 48.1445 17.334ZM75.6348 27.002L85.8887 9.22852C86.8652 7.4707 86.377 5.56641 84.7656 4.58984C83.1055 3.66211 81.1523 4.19922 80.1758 5.9082L69.873 23.7793C68.9453 25.4395 69.3848 27.3438 71.0938 28.3203C72.7051 29.248 74.707 28.6621 75.6348 27.002ZM114.16 17.5781L118.848 9.375C119.873 7.71484 119.385 5.71289 117.725 4.73633C116.064 3.80859 114.111 4.39453 113.135 6.10352L108.398 14.3555C107.471 16.0156 107.91 17.9199 109.619 18.8965C111.23 19.8242 113.232 19.2871 114.16 17.5781ZM37.793 35.3516C41.3574 35.3516 44.2871 32.373 44.2871 28.8086C44.2871 25.293 41.3574 22.2656 37.793 22.2656C34.2285 22.2656 31.25 25.293 31.25 28.8086C31.25 32.373 34.2285 35.3516 37.793 35.3516ZM103.857 35.5957C107.373 35.5957 110.352 32.6172 110.352 29.0527C110.352 25.5371 107.422 22.5098 103.857 22.5098C100.244 22.5098 97.2656 25.5371 97.2656 29.0527C97.2656 32.6172 100.244 35.5957 103.857 35.5957ZM65.332 45.0195C68.8477 45.0195 71.8262 42.041 71.8262 38.4277C71.8262 34.9121 68.8965 31.9336 65.332 31.9336C61.7188 31.9336 58.7402 34.9121 58.7402 38.4277C58.7402 42.041 61.7188 45.0195 65.332 45.0195Z"/>
  </g>
  <g id="Light-L" transform="matrix(1 0 0 1 1070.71 1556)">
   <path d="M39.5996-6.73828L118.457-6.73828C138.379-6.73828 153.564-21.7773 153.564-40.5762C153.564-59.8633 137.549-74.0234 116.748-74.0234C108.887-89.9414 94.9219-100.244 76.0742-100.244C53.0273-100.244 34.0332-81.6895 32.0312-58.252C20.4102-55.0781 11.2793-45.6055 11.2793-32.4219C11.2793-18.2617 21.6797-6.73828 39.5996-6.73828ZM39.5508-13.2324C25.3906-13.2324 17.8223-21.7285 17.8223-32.2266C17.8223-41.5039 23.7793-49.0723 34.8633-52.002C37.5-52.6855 38.3789-53.8574 38.5742-56.3477C39.8926-77.3926 56.7383-93.75 76.0742-93.75C92.2852-93.75 104.199-84.668 110.986-70.5566C112.109-68.1641 113.525-67.3828 116.357-67.3828C134.766-67.3828 147.021-55.3223 147.021-40.332C147.021-25.3906 134.717-13.2324 118.75-13.2324ZM46.9238 16.6016L52.1973 7.37305C53.0273 5.95703 52.6367 4.39453 51.3184 3.61328C50 2.83203 48.4863 3.32031 47.6074 4.73633L42.2852 14.0137C41.5039 15.4297 41.8457 16.9434 43.2129 17.7246C44.5312 18.5059 46.0938 18.0176 46.9238 16.6016ZM74.4141 26.2207L85.2539 7.4707C86.0352 6.00586 85.6934 4.44336 84.375 3.66211C83.0566 2.92969 81.4941 3.36914 80.6641 4.83398L69.8242 23.6328C68.9941 25.0488 69.3359 26.6113 70.7031 27.3926C72.0215 28.1738 73.584 27.6855 74.4141 26.2207ZM112.939 16.8457L118.213 7.61719C119.092 6.20117 118.701 4.63867 117.334 3.80859C116.016 3.07617 114.502 3.56445 113.623 4.98047L108.35 14.2578C107.568 15.6738 107.861 17.1875 109.229 17.9688C110.547 18.75 112.109 18.2617 112.939 16.8457ZM37.6953 33.5938C41.0156 33.5938 43.75 30.8105 43.75 27.4902C43.75 24.1699 41.0645 21.3867 37.6953 21.3867C34.3262 21.3867 31.543 24.1699 31.543 27.4902C31.543 30.8105 34.3262 33.5938 37.6953 33.5938ZM103.711 33.8379C107.031 33.8379 109.766 31.0547 109.766 27.7344C109.766 24.4141 107.08 21.582 103.711 21.582C100.342 21.582 97.5586 24.4141 97.5586 27.7344C97.5586 31.0547 100.342 33.8379 103.711 33.8379ZM65.1855 43.2617C68.5059 43.2617 71.2402 40.4785 71.2402 37.1094C71.2402 33.8379 68.5547 31.0059 65.1855 31.0059C61.8164 31.0059 59.0332 33.8379 59.0332 37.1094C59.0332 40.4785 61.8164 43.2617 65.1855 43.2617Z"/>
  </g>
  <g id="Thin-L" transform="matrix(1 0 0 1 774.611 1556)">
   <path d="M38.623-8.20312L117.969-8.20312C137.354-8.20312 152.344-22.8027 152.344-41.0645C152.344-59.7656 136.67-73.5352 116.26-73.5352C108.398-89.7461 94.9219-100.244 75.5859-100.244C53.0273-100.244 34.4727-81.6895 32.5195-58.252C20.752-55.1758 11.2793-45.9961 11.2793-32.9102C11.2793-19.3848 21.3379-8.20312 38.623-8.20312ZM38.623-11.9629C23.5352-11.9629 15.0391-21.4355 15.0391-32.8613C15.0391-43.3594 22.2168-51.5625 33.5938-54.541C35.5957-55.0781 36.2305-55.8594 36.3281-57.5684C37.5488-79.0039 55.4688-96.4844 75.5859-96.4844C93.3594-96.4844 105.811-86.4258 112.646-72.168C113.525-70.3125 114.6-69.7266 116.748-69.7266C134.912-69.7266 148.535-57.0312 148.535-40.918C148.535-25 135.156-11.9629 118.018-11.9629ZM45.2637 15.5762L51.3184 5.07812C52.002 3.95508 51.7578 2.92969 50.8301 2.39258C50 1.9043 48.9746 2.19727 48.291 3.32031L42.1875 13.8184C41.6016 14.9414 41.7969 15.9668 42.7246 16.5039C43.6035 17.041 44.6289 16.6992 45.2637 15.5762ZM72.7539 25.2441L84.375 5.17578C85.0098 4.00391 84.8145 2.97852 83.8867 2.44141C83.0566 1.95312 81.9336 2.24609 81.3477 3.36914L69.7266 23.4863C69.0918 24.6094 69.2871 25.6348 70.2148 26.1719C71.1426 26.709 72.168 26.3672 72.7539 25.2441ZM111.279 15.8203L117.334 5.32227C118.066 4.19922 117.773 3.17383 116.846 2.58789C116.016 2.14844 114.99 2.44141 114.307 3.56445L108.252 14.0625C107.617 15.1855 107.812 16.2109 108.74 16.748C109.668 17.2852 110.693 16.9434 111.279 15.8203ZM37.5488 31.2988C40.5273 31.2988 43.0176 28.7109 43.0176 25.7324C43.0176 22.7051 40.625 20.166 37.5488 20.166C34.4238 20.166 31.9336 22.7051 31.9336 25.7324C31.9336 28.7109 34.4238 31.2988 37.5488 31.2988ZM103.564 31.543C106.543 31.543 109.033 28.9551 109.033 25.9766C109.033 22.9492 106.641 20.3613 103.564 20.3613C100.439 20.3613 97.9492 22.9492 97.9492 25.9766C97.9492 28.9551 100.439 31.543 103.564 31.543ZM65.0391 40.918C68.0176 40.918 70.5078 38.3789 70.5078 35.4004C70.5078 32.373 68.1152 29.7852 65.0391 29.7852C61.9141 29.7852 59.4238 32.373 59.4238 35.4004C59.4238 38.3789 61.9141 40.918 65.0391 40.918Z"/>
  </g>
  <g id="Ultralight-L" transform="matrix(1 0 0 1 478.217 1556)">
   <path d="M38.1348-8.93555L117.725-8.93555C136.816-8.93555 151.709-23.291 151.709-41.3574C151.709-59.7168 136.182-73.291 116.016-73.291C108.154-89.6484 94.9219-100.244 75.3418-100.244C53.0273-100.244 34.7168-81.6895 32.8125-58.252C20.9473-55.2246 11.2793-46.2402 11.2793-33.1543C11.2793-19.9219 21.1426-8.93555 38.1348-8.93555ZM38.1348-11.3281C22.5586-11.3281 13.6719-21.2891 13.6719-33.1543C13.6719-44.3359 21.4355-52.832 32.9102-55.8594C34.6191-56.2988 35.1074-56.9336 35.1562-58.1543C36.377-79.834 54.7852-97.8516 75.3418-97.8516C93.8965-97.8516 106.641-87.3535 113.525-72.998C114.258-71.4355 115.137-70.8984 116.943-70.8984C135.01-70.8984 149.316-57.9102 149.316-41.2109C149.316-24.8047 135.4-11.3281 117.676-11.3281ZM44.4336 15.0879L50.8789 3.90625C51.5137 2.92969 51.2695 2.14844 50.5859 1.75781C49.9512 1.41602 49.2188 1.61133 48.6328 2.58789L42.1387 13.7207C41.6504 14.6973 41.748 15.4785 42.4805 15.918C43.1641 16.3086 43.8965 16.0156 44.4336 15.0879ZM71.9238 24.707L83.9355 3.95508C84.4727 3.02734 84.3262 2.24609 83.6426 1.80664C83.0078 1.46484 82.1777 1.70898 81.6895 2.63672L69.6777 23.3887C69.1406 24.3652 69.2871 25.1465 69.9707 25.5371C70.6543 25.9766 71.4355 25.6836 71.9238 24.707ZM110.449 15.332L116.943 4.10156C117.529 3.17383 117.334 2.39258 116.602 2.00195C116.016 1.66016 115.234 1.85547 114.648 2.83203L108.203 13.9648C107.666 14.9414 107.812 15.7227 108.496 16.1621C109.18 16.5527 109.961 16.2598 110.449 15.332ZM37.5 30.0781C40.2832 30.0781 42.627 27.6855 42.627 24.8535C42.627 21.9727 40.3809 19.5312 37.5 19.5312C34.4727 19.5312 32.1289 21.9727 32.1289 24.8535C32.1289 27.6855 34.4727 30.0781 37.5 30.0781ZM103.516 30.3223C106.299 30.3223 108.691 27.9297 108.691 25.0977C108.691 22.168 106.396 19.7754 103.516 19.7754C100.537 19.7754 98.1445 22.168 98.1445 25.0977C98.1445 27.9297 100.537 30.3223 103.516 30.3223ZM64.9902 39.7461C67.8223 39.7461 70.166 37.3047 70.166 34.5215C70.166 31.5918 67.8711 29.1504 64.9902 29.1504C62.0117 29.1504 59.668 31.5918 59.668 34.5215C59.668 37.3047 62.0117 39.7461 64.9902 39.7461Z"/>
  </g>
  <g id="Black-M" transform="matrix(1 0 0 1 2864.04 1126)">
   <path d="M36.084-8.00781L98.1934-8.00781C116.162-8.00781 129.98-21.7773 129.98-39.4043C129.98-57.0801 116.602-71.0938 98.6816-71.0938C93.2129-81.543 83.0566-90.5762 64.6484-90.5762C44.1406-90.5762 28.7598-76.2695 25.7324-57.8125C16.0645-54.248 8.74023-45.752 8.74023-34.0332C8.74023-19.2871 19.9707-8.00781 36.084-8.00781ZM36.7188-23.877C28.5645-23.877 24.6094-27.9785 24.6094-33.7891C24.6094-39.3555 28.2227-43.0664 35.6934-45.0195C39.0625-45.8984 39.8926-47.3633 40.4297-50.7324C43.2129-67.1387 52.5879-74.7559 64.6484-74.7559C73.6328-74.7559 81.3477-69.5312 86.7676-59.6191C88.2812-56.8848 89.8438-55.8594 93.2617-55.8594C107.91-55.8594 114.111-48.6328 114.111-39.0625C114.111-30.4688 107.812-23.877 97.5098-23.877ZM44.6777 9.86328L46.5332 6.68945C47.7539 4.54102 47.2168 1.9043 45.0195 0.683594C42.8223-0.585938 40.4297 0.146484 39.1113 2.49023L37.3047 5.66406C36.084 7.76367 36.5234 10.4004 38.7207 11.6211C40.918 12.8906 43.5059 11.9629 44.6777 9.86328ZM65.9668 17.3828L72.1191 6.73828C73.3398 4.6875 72.8516 2.00195 70.6543 0.732422C68.457-0.537109 66.0645 0.292969 64.7461 2.53906L58.5938 13.1836C57.4219 15.2344 57.8613 17.8711 60.0586 19.1406C62.2559 20.3613 64.7949 19.4336 65.9668 17.3828ZM95.8496 10.0586L97.7051 6.88477C98.9258 4.73633 98.3887 2.09961 96.1914 0.878906C93.9941-0.390625 91.6016 0.341797 90.2832 2.68555L88.4766 5.85938C87.2559 7.95898 87.6953 10.5957 89.8926 11.8164C92.0898 13.0859 94.6289 12.1582 95.8496 10.0586ZM33.0078 27.4414C36.5723 27.4414 39.5508 24.5117 39.5508 20.8984C39.5508 17.3828 36.5723 14.4531 33.0078 14.4531C29.4434 14.4531 26.5137 17.3828 26.5137 20.8984C26.5137 24.5117 29.4434 27.4414 33.0078 27.4414ZM84.1797 27.6367C87.7441 27.6367 90.7227 24.707 90.7227 21.0938C90.7227 17.5781 87.7441 14.6484 84.1797 14.6484C80.6152 14.6484 77.6855 17.5781 77.6855 21.0938C77.6855 24.707 80.6152 27.6367 84.1797 27.6367ZM54.3457 34.9121C57.9102 34.9121 60.8398 31.9824 60.8398 28.3691C60.8398 24.8535 57.9102 21.9238 54.3457 21.9238C50.7812 21.9238 47.8516 24.8535 47.8516 28.3691C47.8516 31.9824 50.7812 34.9121 54.3457 34.9121Z"/>
  </g>
  <g id="Heavy-M" transform="matrix(1 0 0 1 2568.48 1126)">
   <path d="M35.0586-8.88672L96.7773-8.88672C114.307-8.88672 127.686-22.2168 127.686-39.2578C127.686-56.4453 114.453-69.8242 96.875-69.8242C91.2109-80.6641 80.8105-89.4043 63.4277-89.4043C43.4082-89.4043 28.0762-75.0977 25.3906-56.6895C15.918-53.3691 8.74023-45.0684 8.74023-33.6914C8.74023-19.6777 19.2871-8.88672 35.0586-8.88672ZM35.498-22.8516C26.9531-22.8516 22.7051-27.2949 22.7051-33.4473C22.7051-39.0625 26.2695-43.1641 33.9355-45.166C37.1582-45.9961 37.9883-47.4121 38.4766-50.6348C40.8691-66.9434 50.8789-75.4395 63.4277-75.4395C72.9004-75.4395 80.8105-70.0195 86.2305-59.9121C87.6465-57.2754 89.1602-56.2988 92.4316-56.2988C107.08-56.2988 113.721-48.7305 113.721-38.9648C113.721-29.8828 106.885-22.8516 96.3867-22.8516ZM43.1152 8.93555L45.3125 5.12695C46.4355 3.17383 45.8984 0.732422 43.8965-0.390625C41.8945-1.5625 39.6484-0.878906 38.4277 1.26953L36.2305 5.07812C35.1562 6.98242 35.5957 9.375 37.5977 10.5469C39.6484 11.7188 41.9922 10.8887 43.1152 8.93555ZM64.4043 16.4062L70.8984 5.22461C72.0215 3.27148 71.5332 0.830078 69.5312-0.341797C67.4805-1.51367 65.2832-0.78125 64.0625 1.31836L57.5684 12.5488C56.4453 14.4531 56.8848 16.8945 58.9355 18.0176C60.9375 19.1895 63.3301 18.3594 64.4043 16.4062ZM94.2871 9.13086L96.4844 5.32227C97.6074 3.36914 97.0703 0.927734 95.0684-0.244141C93.0664-1.36719 90.8203-0.683594 89.5996 1.41602L87.4023 5.27344C86.3281 7.17773 86.7676 9.57031 88.7695 10.7422C90.7715 11.9141 93.1641 11.0352 94.2871 9.13086ZM32.1777 25.7812C35.5469 25.7812 38.3789 22.998 38.3789 19.5312C38.3789 16.1621 35.5957 13.3789 32.1777 13.3789C28.7598 13.3789 25.9277 16.1621 25.9277 19.5312C25.9277 22.998 28.7598 25.7812 32.1777 25.7812ZM83.3496 25.9766C86.7188 25.9766 89.5508 23.1934 89.5508 19.7266C89.5508 16.3574 86.7188 13.5742 83.3496 13.5742C79.9316 13.5742 77.0996 16.3574 77.0996 19.7266C77.0996 23.1934 79.9316 25.9766 83.3496 25.9766ZM53.4668 33.3008C56.8848 33.3008 59.7168 30.4688 59.7168 27.002C59.7168 23.6816 56.8848 20.8496 53.4668 20.8496C50.0977 20.8496 47.2656 23.6816 47.2656 27.002C47.2656 30.4688 50.0977 33.3008 53.4668 33.3008Z"/>
  </g>
  <g id="Bold-M" transform="matrix(1 0 0 1 2273.06 1126)">
   <path d="M33.8867-9.81445L95.2637-9.81445C112.256-9.81445 125.098-22.7539 125.098-39.1113C125.098-55.7617 112.061-68.457 94.8242-68.457C89.0137-79.6875 78.3203-88.0859 62.0605-88.0859C42.627-88.0859 27.3438-73.7305 25.0488-55.4688C15.7715-52.3926 8.74023-44.2871 8.74023-33.3008C8.74023-20.1172 18.5547-9.81445 33.8867-9.81445ZM34.1309-21.6797C25.0977-21.6797 20.6055-26.5137 20.6055-33.0566C20.6055-38.7695 24.1211-43.2617 31.9824-45.3125C35.0098-46.0938 35.9375-47.5098 36.3281-50.5859C38.2812-66.748 48.9258-76.2695 62.0605-76.2695C72.0215-76.2695 80.2246-70.6543 85.5469-60.3027C86.8652-57.7148 88.3789-56.8359 91.5527-56.8359C106.104-56.8359 113.281-48.8281 113.281-38.8672C113.281-29.248 105.859-21.6797 95.166-21.6797ZM41.3574 7.91016L43.9453 3.41797C44.9707 1.66016 44.4824-0.537109 42.627-1.61133C40.8203-2.68555 38.7695-2.05078 37.6953-0.146484L35.1074 4.39453C34.082 6.10352 34.5215 8.30078 36.377 9.375C38.1836 10.4004 40.332 9.66797 41.3574 7.91016ZM62.6465 15.3809L69.5312 3.4668C70.5566 1.70898 70.0684-0.488281 68.2617-1.5625C66.4062-2.58789 64.3555-1.95312 63.2812-0.0976562L56.3965 11.8652C55.4199 13.623 55.8105 15.7715 57.666 16.8457C59.4727 17.8711 61.6699 17.1387 62.6465 15.3809ZM92.5293 8.10547L95.0684 3.61328C96.1426 1.80664 95.6543-0.390625 93.7988-1.41602C91.9922-2.49023 89.9414-1.85547 88.8672 0.0488281L86.2793 4.58984C85.2539 6.29883 85.6934 8.49609 87.5 9.52148C89.3555 10.5957 91.5039 9.86328 92.5293 8.10547ZM31.2012 23.9746C34.4238 23.9746 37.1094 21.2891 37.1094 18.0176C37.1094 14.8438 34.4238 12.1582 31.2012 12.1582C27.9785 12.1582 25.293 14.8438 25.293 18.0176C25.293 21.2891 27.9785 23.9746 31.2012 23.9746ZM82.373 24.1699C85.5957 24.1699 88.2812 21.4844 88.2812 18.2129C88.2812 15.0391 85.5957 12.3535 82.373 12.3535C79.1504 12.3535 76.4648 15.0391 76.4648 18.2129C76.4648 21.4844 79.1504 24.1699 82.373 24.1699ZM52.5391 31.4453C55.7617 31.4453 58.3984 28.7598 58.3984 25.4883C58.3984 22.3145 55.7617 19.6289 52.5391 19.6289C49.2676 19.6289 46.6309 22.3145 46.6309 25.4883C46.6309 28.7598 49.2676 31.4453 52.5391 31.4453Z"/>
  </g>
  <g id="Semibold-M" transform="matrix(1 0 0 1 1977.23 1126)">
   <path d="M33.1055-10.498L94.1895-10.498C110.791-10.498 123.34-23.1445 123.34-39.0137C123.34-55.2734 110.4-67.4805 93.4082-67.4805C87.5-79.0039 76.5625-87.207 61.084-87.207C42.041-87.207 26.8555-72.8027 24.8047-54.5898C15.6738-51.709 8.74023-43.75 8.74023-33.0078C8.74023-20.459 18.0664-10.498 33.1055-10.498ZM33.2031-20.8984C23.8281-20.8984 19.1406-25.9766 19.1406-32.7637C19.1406-38.5742 22.6074-43.3105 30.6641-45.459C33.5449-46.1914 34.4727-47.5098 34.8145-50.4883C36.4746-66.5527 47.6074-76.8066 61.084-76.8066C71.4355-76.8066 79.7852-71.0449 85.1074-60.5469C86.377-58.0566 87.8418-57.1777 90.918-57.1777C105.42-57.1777 112.939-48.9258 112.939-38.7695C112.939-28.7598 105.176-20.8984 94.2871-20.8984ZM40.1367 7.17773L42.9688 2.24609C43.9453 0.585938 43.457-1.46484 41.7969-2.44141C40.0879-3.41797 38.1348-2.83203 37.1582-1.12305L34.2773 3.90625C33.3984 5.51758 33.7891 7.51953 35.498 8.49609C37.1582 9.47266 39.209 8.83789 40.1367 7.17773ZM61.4746 14.6973L68.6035 2.29492C69.5312 0.634766 69.0918-1.41602 67.3828-2.39258C65.6738-3.36914 63.7695-2.7832 62.793-1.02539L55.6152 11.377C54.6387 12.9883 55.0781 14.9902 56.7871 16.0156C58.4961 16.9434 60.498 16.3086 61.4746 14.6973ZM91.3086 7.37305L94.1406 2.44141C95.1172 0.78125 94.6289-1.26953 92.9688-2.24609C91.2598-3.22266 89.3066-2.63672 88.3301-0.927734L85.4492 4.10156C84.5703 5.71289 84.9609 7.71484 86.6699 8.69141C88.3301 9.66797 90.3809 9.0332 91.3086 7.37305ZM30.5176 22.7051C33.6426 22.7051 36.2305 20.1172 36.2305 16.9434C36.2305 13.916 33.6426 11.3281 30.5176 11.3281C27.4414 11.3281 24.8535 13.916 24.8535 16.9434C24.8535 20.1172 27.4414 22.7051 30.5176 22.7051ZM81.6895 22.9004C84.8145 22.9004 87.3535 20.3125 87.3535 17.1387C87.3535 14.1113 84.8145 11.5234 81.6895 11.5234C78.6133 11.5234 76.0254 14.1113 76.0254 17.1387C76.0254 20.3125 78.6133 22.9004 81.6895 22.9004ZM51.8555 30.1758C54.9316 30.1758 57.5195 27.5879 57.5195 24.4629C57.5195 21.3867 54.9805 18.7988 51.8555 18.7988C48.7305 18.7988 46.1426 21.3867 46.1426 24.4629C46.1426 27.5879 48.7305 30.1758 51.8555 30.1758Z"/>
  </g>
  <g id="Medium-M" transform="matrix(1 0 0 1 1681.17 1126)">
   <path d="M32.4707-10.9863L93.3594-10.9863C109.717-10.9863 122.021-23.4375 122.021-38.9648C122.021-54.8828 109.131-66.748 92.3828-66.748C86.377-78.5156 75.293-86.5234 60.4004-86.5234C41.6504-86.5234 26.4648-72.1191 24.6094-53.9551C15.5762-51.1719 8.74023-43.3594 8.74023-32.8125C8.74023-20.6543 17.6758-10.9863 32.4707-10.9863ZM32.5195-20.2637C22.8516-20.2637 18.0176-25.5859 18.0176-32.5684C18.0176-38.3789 21.4844-43.3594 29.6387-45.5078C32.4707-46.2891 33.3984-47.5586 33.6426-50.4395C35.1074-66.4551 46.582-77.2461 60.4004-77.2461C70.9961-77.2461 79.4922-71.3379 84.7656-60.6934C85.9863-58.252 87.4512-57.4219 90.4297-57.4219C104.932-57.4219 112.744-48.9746 112.744-38.7207C112.744-28.4668 104.639-20.2637 93.6523-20.2637ZM39.209 6.64062L42.2363 1.31836C43.1641-0.244141 42.7246-2.14844 41.1133-3.07617C39.502-4.00391 37.6953-3.41797 36.7676-1.80664L33.6914 3.56445C32.8125 5.07812 33.2031 6.93359 34.8145 7.91016C36.4258 8.78906 38.3301 8.20312 39.209 6.64062ZM60.5469 14.1113L67.8711 1.41602C68.75-0.195312 68.3105-2.09961 66.748-3.02734C65.1367-3.95508 63.2812-3.41797 62.3535-1.75781L54.9805 11.0352C54.1016 12.5488 54.541 14.4531 56.1523 15.3809C57.7148 16.2598 59.6191 15.6738 60.5469 14.1113ZM90.3809 6.83594L93.4082 1.51367C94.3359-0.0488281 93.8965-1.95312 92.2852-2.88086C90.6738-3.80859 88.8672-3.22266 87.9395-1.66016L84.8633 3.75977C83.9844 5.27344 84.375 7.12891 85.9863 8.05664C87.5977 8.98438 89.502 8.39844 90.3809 6.83594ZM30.0293 21.7285C33.0566 21.7285 35.5469 19.2383 35.5469 16.1621C35.5469 13.1836 33.0566 10.6934 30.0293 10.6934C27.002 10.6934 24.5117 13.1836 24.5117 16.1621C24.5117 19.2383 27.002 21.7285 30.0293 21.7285ZM81.2012 21.9238C84.1797 21.9238 86.7188 19.3848 86.7188 16.3574C86.7188 13.3789 84.2285 10.8887 81.2012 10.8887C78.1738 10.8887 75.6836 13.3789 75.6836 16.3574C75.6836 19.3848 78.1738 21.9238 81.2012 21.9238ZM51.3672 29.1992C54.3457 29.1992 56.8359 26.709 56.8359 23.6328C56.8359 20.7031 54.3457 18.1641 51.3672 18.1641C48.3398 18.1641 45.8008 20.7031 45.8008 23.6328C45.8008 26.709 48.3398 29.1992 51.3672 29.1992Z"/>
  </g>
  <g id="Regular-M" transform="matrix(1 0 0 1 1385.34 1126)">
   <path d="M31.6895-11.6211L92.2852-11.6211C108.301-11.6211 120.264-23.7793 120.264-38.8672C120.264-54.3945 107.52-65.7715 90.9668-65.7715C84.8633-77.832 73.5352-85.5957 59.4727-85.5957C41.0645-85.5957 25.9277-71.2402 24.3652-53.0762C15.4785-50.5371 8.74023-42.8223 8.74023-32.5195C8.74023-20.9961 17.1387-11.6211 31.6895-11.6211ZM31.5918-19.4824C21.582-19.4824 16.5527-25.0488 16.5527-32.2754C16.5527-38.1836 19.9707-43.457 28.2715-45.6543C31.0059-46.3379 31.9824-47.6074 32.1777-50.3906C33.3008-66.3086 45.3125-77.7832 59.4727-77.7832C70.4102-77.7832 79.0527-71.7773 84.3262-60.9375C85.498-58.5938 86.9141-57.7637 89.7949-57.7637C104.248-57.7637 112.402-49.0234 112.402-38.623C112.402-27.9785 103.906-19.4824 92.7734-19.4824ZM38.0371 5.95703L41.3086 0.146484C42.1387-1.26953 41.748-3.02734 40.2832-3.90625C38.7695-4.73633 37.0605-4.19922 36.2305-2.7832L32.9102 3.07617C32.1289 4.49219 32.4707 6.20117 33.9844 7.08008C35.4492 7.86133 37.207 7.37305 38.0371 5.95703ZM59.3262 13.4277L66.9434 0.244141C67.7734-1.26953 67.334-2.97852 65.918-3.85742C64.4043-4.6875 62.6953-4.19922 61.8652-2.73438L54.1992 10.5957C53.3691 11.9629 53.8086 13.6719 55.3223 14.5508C56.7383 15.3809 58.4961 14.8438 59.3262 13.4277ZM89.209 6.15234L92.4805 0.341797C93.3105-1.07422 92.9199-2.83203 91.4551-3.71094C89.9414-4.54102 88.2324-4.05273 87.4023-2.58789L84.082 3.27148C83.3008 4.6875 83.6426 6.39648 85.1562 7.27539C86.6211 8.05664 88.3789 7.56836 89.209 6.15234ZM29.3945 20.459C32.2754 20.459 34.668 18.0664 34.668 15.1367C34.668 12.3047 32.2754 9.86328 29.3945 9.86328C26.4648 9.86328 24.0723 12.3047 24.0723 15.1367C24.0723 18.0664 26.4648 20.459 29.3945 20.459ZM80.5664 20.6543C83.3984 20.6543 85.8398 18.2617 85.8398 15.332C85.8398 12.5 83.4473 10.0586 80.5664 10.0586C77.6367 10.0586 75.2441 12.5 75.2441 15.332C75.2441 18.2617 77.6367 20.6543 80.5664 20.6543ZM50.6836 27.9785C53.5645 27.9785 55.957 25.5371 55.957 22.6074C55.957 19.7754 53.5645 17.334 50.6836 17.334C47.8027 17.334 45.3613 19.7754 45.3613 22.6074C45.3613 25.5371 47.8027 27.9785 50.6836 27.9785Z"/>
  </g>
  <g id="Light-M" transform="matrix(1 0 0 1 1089.05 1126)">
   <path d="M31.0547-12.6465L91.9434-12.6465C107.617-12.6465 119.434-24.4629 119.434-39.209C119.434-54.3457 106.885-65.4297 90.6738-65.4297C84.5703-77.7344 73.5352-85.5957 59.1309-85.5957C41.0645-85.5957 26.2207-71.2402 24.6582-53.0762C15.7227-50.5859 8.74023-43.1152 8.74023-32.8613C8.74023-21.7285 16.9434-12.6465 31.0547-12.6465ZM30.957-18.6035C20.3125-18.6035 14.6973-24.8535 14.6973-32.7148C14.6973-39.4531 18.9453-45.1172 27.4414-47.3633C29.6875-47.9492 30.4688-48.9746 30.6641-51.1719C31.7383-67.3828 44.4336-79.6387 59.1309-79.6387C71.1426-79.6387 80.1758-72.9492 85.4492-62.0605C86.4258-60.0098 87.6465-59.3262 90.0391-59.3262C104.346-59.3262 113.428-50.1953 113.428-39.0137C113.428-27.7344 104.248-18.6035 92.2852-18.6035ZM36.9141 5.27344L40.7227-1.41602C41.4551-2.63672 41.1133-4.05273 39.9414-4.73633C38.7695-5.41992 37.4023-4.98047 36.6699-3.75977L32.8125 2.97852C32.1777 4.19922 32.4707 5.56641 33.6426 6.25C34.8145 6.88477 36.2305 6.49414 36.9141 5.27344ZM58.2031 12.7441L66.3574-1.36719C67.041-2.58789 66.748-3.95508 65.5762-4.6875C64.4043-5.32227 62.9883-4.93164 62.3047-3.71094L54.1504 10.4492C53.4668 11.6699 53.7598 13.0371 54.9805 13.7207C56.1523 14.4043 57.5195 13.9648 58.2031 12.7441ZM88.0859 5.46875L91.8945-1.2207C92.627-2.44141 92.2852-3.85742 91.1133-4.54102C89.9414-5.22461 88.5742-4.78516 87.8418-3.56445L83.9844 3.17383C83.3496 4.3457 83.5938 5.71289 84.8145 6.44531C85.9863 7.08008 87.4023 6.68945 88.0859 5.46875ZM29.2969 18.8965C31.9336 18.8965 34.1797 16.6504 34.1797 13.9648C34.1797 11.2793 31.9824 9.0332 29.2969 9.0332C26.5625 9.0332 24.3164 11.2793 24.3164 13.9648C24.3164 16.6504 26.5625 18.8965 29.2969 18.8965ZM80.4199 19.0918C83.1055 19.0918 85.3516 16.8457 85.3516 14.1602C85.3516 11.4746 83.1543 9.22852 80.4199 9.22852C77.7344 9.22852 75.4883 11.4746 75.4883 14.1602C75.4883 16.8457 77.7344 19.0918 80.4199 19.0918ZM50.5859 26.3672C53.2715 26.3672 55.4688 24.1211 55.4688 21.4355C55.4688 18.7988 53.2715 16.5039 50.5859 16.5039C47.8516 16.5039 45.6543 18.7988 45.6543 21.4355C45.6543 24.1211 47.8516 26.3672 50.5859 26.3672Z"/>
  </g>
  <g id="Thin-M" transform="matrix(1 0 0 1 792.897 1126)">
   <path d="M30.1758-13.9648L91.5039-13.9648C106.641-13.9648 118.311-25.3418 118.311-39.6484C118.311-54.248 106.104-64.9902 90.2344-64.9902C84.1309-77.5391 73.5352-85.5957 58.6914-85.5957C41.0645-85.5957 26.6113-71.2402 25.0977-53.0762C16.0156-50.6836 8.74023-43.5059 8.74023-33.3008C8.74023-22.7051 16.6016-13.9648 30.1758-13.9648ZM30.127-17.4805C18.6523-17.4805 12.2559-24.6094 12.2559-33.252C12.2559-41.1133 17.5781-47.3633 26.2695-49.6582C27.9785-50.0977 28.5645-50.7812 28.6133-52.2461C29.5898-68.7988 43.2617-82.0801 58.6914-82.0801C72.1191-82.0801 81.6406-74.5117 86.9629-63.4766C87.6953-61.9629 88.5742-61.4258 90.4297-61.4258C104.541-61.4258 114.795-51.7578 114.795-39.502C114.795-27.3926 104.639-17.4805 91.6504-17.4805ZM35.4492 4.3457L39.9902-3.51562C40.5273-4.44336 40.2832-5.37109 39.502-5.81055C38.7695-6.25 37.8418-6.00586 37.2559-5.0293L32.7148 2.83203C32.2266 3.75977 32.4219 4.6875 33.2031 5.12695C34.0332 5.61523 34.9121 5.32227 35.4492 4.3457ZM56.7383 11.8652L65.5762-3.41797C66.1133-4.39453 65.918-5.27344 65.1367-5.76172C64.3555-6.20117 63.4277-5.95703 62.8906-4.98047L54.0527 10.3027C53.5156 11.2305 53.7109 12.1582 54.541 12.5977C55.3223 13.0859 56.25 12.793 56.7383 11.8652ZM86.6211 4.54102L91.1621-3.32031C91.6992-4.24805 91.4551-5.17578 90.6738-5.61523C89.9414-6.05469 89.0137-5.81055 88.4277-4.88281L83.8867 3.02734C83.3984 3.95508 83.5938 4.83398 84.375 5.32227C85.2051 5.81055 86.084 5.51758 86.6211 4.54102ZM29.1504 16.8457C31.543 16.8457 33.4961 14.7949 33.4961 12.4023C33.4961 9.96094 31.5918 7.95898 29.1504 7.95898C26.6602 7.95898 24.6582 9.96094 24.6582 12.4023C24.6582 14.7949 26.6602 16.8457 29.1504 16.8457ZM80.3223 16.9922C82.666 16.9922 84.668 14.9902 84.668 12.5977C84.668 10.1562 82.7637 8.1543 80.3223 8.1543C77.832 8.1543 75.8301 10.1562 75.8301 12.5977C75.8301 14.9902 77.832 16.9922 80.3223 16.9922ZM50.4395 24.3164C52.832 24.3164 54.834 22.2656 54.834 19.873C54.834 17.4805 52.8809 15.4297 50.4395 15.4297C47.998 15.4297 45.9961 17.4805 45.9961 19.873C45.9961 22.2656 47.998 24.3164 50.4395 24.3164Z"/>
  </g>
  <g id="Ultralight-M" transform="matrix(1 0 0 1 496.454 1126)">
   <path d="M29.6875-14.5996L91.3086-14.5996C106.152-14.5996 117.773-25.8301 117.773-39.8926C117.773-54.1992 105.664-64.7949 89.9902-64.7949C83.8867-77.4414 73.5352-85.5957 58.4473-85.5957C41.0645-85.5957 26.8066-71.2402 25.3418-53.0762C16.1621-50.7324 8.74023-43.7012 8.74023-33.5449C8.74023-23.1934 16.4551-14.5996 29.6875-14.5996ZM29.6875-16.8945C17.7734-16.8945 10.9863-24.4629 10.9863-33.5449C10.9863-41.9922 16.8457-48.4863 25.6836-50.8301C27.0996-51.1719 27.5391-51.709 27.5879-52.832C28.5156-69.5312 42.6758-83.3496 58.4473-83.3496C72.6074-83.3496 82.4219-75.3418 87.6953-64.2578C88.3301-62.9395 89.0625-62.5 90.5762-62.5C104.59-62.5 115.479-52.5391 115.479-39.7461C115.479-27.1973 104.883-16.8945 91.3086-16.8945ZM34.668 3.90625L39.5996-4.54102C40.0879-5.37109 39.8926-6.00586 39.3066-6.39648C38.7207-6.68945 38.0859-6.49414 37.5977-5.71289L32.7148 2.73438C32.2754 3.56445 32.373 4.19922 33.0078 4.58984C33.5938 4.93164 34.2773 4.6875 34.668 3.90625ZM56.0059 11.377L65.1855-4.49219C65.625-5.27344 65.5273-5.95703 64.8926-6.34766C64.3555-6.64062 63.623-6.44531 63.1836-5.66406L54.0039 10.2539C53.5645 11.0352 53.7109 11.7188 54.2969 12.0605C54.9316 12.4023 55.5664 12.1582 56.0059 11.377ZM85.8398 4.10156L90.7715-4.39453C91.2598-5.17578 91.0645-5.85938 90.4297-6.20117C89.8926-6.49414 89.2578-6.29883 88.7695-5.51758L83.8379 2.92969C83.4473 3.75977 83.5449 4.39453 84.1797 4.78516C84.7656 5.12695 85.4492 4.88281 85.8398 4.10156ZM29.0527 15.7715C31.2988 15.7715 33.1543 13.8184 33.1543 11.6211C33.1543 9.32617 31.3477 7.37305 29.0527 7.37305C26.709 7.37305 24.8535 9.32617 24.8535 11.6211C24.8535 13.8184 26.709 15.7715 29.0527 15.7715ZM80.2246 15.9668C82.4707 15.9668 84.3262 14.0137 84.3262 11.7676C84.3262 9.47266 82.5195 7.56836 80.2246 7.56836C77.8809 7.56836 76.0254 9.47266 76.0254 11.7676C76.0254 14.0137 77.8809 15.9668 80.2246 15.9668ZM50.3906 23.2422C52.6367 23.2422 54.4922 21.3379 54.4922 19.0918C54.4922 16.7969 52.6855 14.8438 50.3906 14.8438C48.0469 14.8438 46.1914 16.7969 46.1914 19.0918C46.1914 21.3379 48.0469 23.2422 50.3906 23.2422Z"/>
  </g>
  <g id="Black-S" transform="matrix(1 0 0 1 2879.15 696)">
   <path d="M28.1738-13.9648L76.8066-13.9648C90.8691-13.9648 101.66-24.707 101.66-38.4766C101.66-52.2949 91.1621-63.2324 77.1484-63.2324C72.8516-71.4355 64.8926-78.5156 50.5371-78.5156C34.5215-78.5156 22.4609-67.2852 20.1172-52.832C12.5488-50.0488 6.83594-43.4082 6.83594-34.2773C6.83594-22.7539 15.5762-13.9648 28.1738-13.9648ZM28.6621-26.2695C22.2656-26.2695 19.1406-29.4922 19.1406-34.082C19.1406-38.4277 21.9727-41.3574 27.832-42.8711C30.4688-43.5547 31.1035-44.7266 31.543-47.3633C33.6914-60.2051 41.0645-66.2109 50.5371-66.2109C57.6172-66.2109 63.6719-62.1094 67.9199-54.3457C69.0918-52.1973 70.3125-51.416 72.998-51.416C84.4727-51.416 89.3555-45.7031 89.3555-38.2324C89.3555-31.4453 84.375-26.2695 76.3184-26.2695ZM34.8633 0.0488281L36.3281-2.49023C37.3047-4.15039 36.8652-6.20117 35.1562-7.17773C33.4473-8.1543 31.5918-7.56836 30.5664-5.76172L29.1016-3.22266C28.1738-1.61133 28.5156 0.439453 30.2246 1.41602C31.9336 2.39258 33.9355 1.66016 34.8633 0.0488281ZM51.5625 5.9082L56.3965-2.44141C57.3242-4.05273 56.9336-6.15234 55.2246-7.12891C53.5156-8.10547 51.6602-7.4707 50.6348-5.71289L45.8008 2.63672C44.873 4.24805 45.2148 6.29883 46.9238 7.27539C48.6328 8.25195 50.6348 7.51953 51.5625 5.9082ZM74.9512 0.195312L76.416-2.34375C77.3926-4.00391 76.9531-6.05469 75.2441-7.03125C73.5352-8.00781 71.6797-7.42188 70.6543-5.61523L69.1895-3.07617C68.2617-1.46484 68.6035 0.585938 70.3125 1.5625C72.0215 2.53906 74.0234 1.80664 74.9512 0.195312ZM25.7812 13.7695C28.5645 13.7695 30.8594 11.4746 30.8594 8.64258C30.8594 5.9082 28.5645 3.61328 25.7812 3.61328C22.998 3.61328 20.7031 5.9082 20.7031 8.64258C20.7031 11.4746 22.998 13.7695 25.7812 13.7695ZM65.8691 13.916C68.6523 13.916 70.9473 11.6211 70.9473 8.78906C70.9473 6.05469 68.6523 3.75977 65.8691 3.75977C63.0859 3.75977 60.791 6.05469 60.791 8.78906C60.791 11.6211 63.0859 13.916 65.8691 13.916ZM42.4805 19.6289C45.2637 19.6289 47.5586 17.334 47.5586 14.502C47.5586 11.7676 45.2637 9.47266 42.4805 9.47266C39.6973 9.47266 37.4023 11.7676 37.4023 14.502C37.4023 17.334 39.6973 19.6289 42.4805 19.6289Z"/>
  </g>
  <g id="Heavy-S" transform="matrix(1 0 0 1 2583.27 696)">
   <path d="M27.4414-14.502L75.7812-14.502C89.5508-14.502 100-25 100-38.3301C100-51.8066 89.5996-62.3047 75.7812-62.3047C71.3867-70.8008 63.1836-77.6367 49.6582-77.6367C33.9844-77.6367 21.9238-66.3574 19.8242-52.002C12.4023-49.3652 6.83594-42.8711 6.83594-33.9844C6.83594-22.998 15.0879-14.502 27.4414-14.502ZM27.832-25.5859C21.1426-25.5859 17.9199-29.0039 17.9199-33.7402C17.9199-38.0859 20.6055-41.2109 26.6113-42.7734C29.1504-43.457 29.834-44.6289 30.2246-47.2168C32.0801-59.9121 39.8438-66.5527 49.6582-66.5527C56.9336-66.5527 63.1348-62.4023 67.334-54.4434C68.457-52.3438 69.7266-51.5625 72.3633-51.5625C83.7891-51.5625 88.916-45.6543 88.916-38.0859C88.916-31.0547 83.6426-25.5859 75.5371-25.5859ZM33.7891-0.585938L35.4492-3.51562C36.377-5.0293 35.9375-6.98242 34.3262-7.91016C32.7148-8.83789 30.957-8.25195 29.9805-6.5918L28.3203-3.66211C27.4414-2.14844 27.7832-0.244141 29.3945 0.683594C31.0059 1.61133 32.9102 0.927734 33.7891-0.585938ZM50.4883 5.27344L55.5176-3.4668C56.3965-4.98047 56.0059-6.93359 54.3945-7.86133C52.7832-8.78906 51.0254-8.20312 50.0488-6.54297L45.0195 2.19727C44.1406 3.71094 44.4824 5.61523 46.0938 6.54297C47.7051 7.4707 49.6094 6.78711 50.4883 5.27344ZM73.877-0.439453L75.5371-3.36914C76.4648-4.88281 76.0254-6.83594 74.4141-7.76367C72.8027-8.69141 71.0449-8.10547 70.0684-6.44531L68.4082-3.51562C67.5293-2.00195 67.8711-0.0976562 69.4824 0.830078C71.0938 1.75781 72.998 1.07422 73.877-0.439453ZM25.1465 12.6953C27.832 12.6953 30.0293 10.4492 30.0293 7.71484C30.0293 5.07812 27.832 2.88086 25.1465 2.88086C22.4609 2.88086 20.2148 5.07812 20.2148 7.71484C20.2148 10.4492 22.4609 12.6953 25.1465 12.6953ZM65.2344 12.8418C67.9199 12.8418 70.1172 10.5957 70.1172 7.86133C70.1172 5.22461 67.9199 3.02734 65.2344 3.02734C62.5488 3.02734 60.3027 5.22461 60.3027 7.86133C60.3027 10.5957 62.5488 12.8418 65.2344 12.8418ZM41.8457 18.5547C44.5312 18.5547 46.7285 16.3086 46.7285 13.5742C46.7285 10.9375 44.5312 8.74023 41.8457 8.74023C39.1602 8.74023 36.9141 10.9375 36.9141 13.5742C36.9141 16.3086 39.1602 18.5547 41.8457 18.5547Z"/>
  </g>
  <g id="Bold-S" transform="matrix(1 0 0 1 2287.49 696)">
   <path d="M26.6602-15.1367L74.6094-15.1367C88.0371-15.1367 98.1445-25.3418 98.1445-38.1836C98.1445-51.2695 87.8418-61.2793 74.2676-61.2793C69.7266-70.0684 61.2793-76.6113 48.6328-76.6113C33.3496-76.6113 21.2891-65.3809 19.5312-51.0254C12.2559-48.6328 6.83594-42.2363 6.83594-33.6426C6.83594-23.2422 14.5508-15.1367 26.6602-15.1367ZM26.8555-24.8047C19.873-24.8047 16.5039-28.418 16.5039-33.3984C16.5039-37.6953 19.043-41.1133 25.1953-42.7246C27.6855-43.3594 28.418-44.4824 28.7598-47.0215C30.2734-59.6191 38.4766-66.9434 48.6328-66.9434C56.2012-66.9434 62.5488-62.6953 66.6992-54.5898C67.8223-52.4902 69.043-51.7578 71.582-51.7578C83.0566-51.7578 88.4766-45.6055 88.4766-37.9883C88.4766-30.5664 82.8125-24.8047 74.6094-24.8047ZM32.5684-1.31836L34.4727-4.63867C35.3027-6.05469 34.9121-7.86133 33.3984-8.74023C31.8848-9.61914 30.2246-9.08203 29.3457-7.56836L27.4414-4.19922C26.6602-2.7832 26.9531-1.02539 28.4668-0.146484C29.9805 0.683594 31.7383 0.146484 32.5684-1.31836ZM49.2676 4.54102L54.541-4.58984C55.3711-6.00586 54.9805-7.8125 53.4668-8.69141C51.9531-9.57031 50.293-9.0332 49.4141-7.51953L44.1406 1.66016C43.3105 3.07617 43.6523 4.83398 45.166 5.71289C46.6797 6.54297 48.4375 6.00586 49.2676 4.54102ZM72.6562-1.17188L74.5605-4.49219C75.3906-5.9082 75-7.71484 73.4863-8.59375C71.9727-9.47266 70.3125-8.93555 69.4336-7.42188L67.5293-4.05273C66.748-2.63672 67.041-0.878906 68.5547 0C70.0684 0.830078 71.8262 0.292969 72.6562-1.17188ZM24.4141 11.4746C27.002 11.4746 29.1016 9.32617 29.1016 6.73828C29.1016 4.19922 27.002 2.05078 24.4141 2.05078C21.8262 2.05078 19.6777 4.19922 19.6777 6.73828C19.6777 9.32617 21.8262 11.4746 24.4141 11.4746ZM64.502 11.6211C67.0898 11.6211 69.1895 9.47266 69.1895 6.88477C69.1895 4.3457 67.0898 2.19727 64.502 2.19727C61.9141 2.19727 59.7656 4.3457 59.7656 6.88477C59.7656 9.47266 61.9141 11.6211 64.502 11.6211ZM41.1133 17.334C43.7012 17.334 45.8008 15.1855 45.8008 12.5977C45.8008 10.0586 43.7012 7.91016 41.1133 7.91016C38.5254 7.91016 36.377 10.0586 36.377 12.5977C36.377 15.1855 38.5254 17.334 41.1133 17.334Z"/>
  </g>
  <g id="Semibold-S" transform="matrix(1 0 0 1 1991.44 696)">
   <path d="M26.123-15.5273L73.8281-15.5273C87.0117-15.5273 96.8262-25.5371 96.8262-38.0859C96.8262-50.9277 86.6211-60.5469 73.2422-60.5469C68.6035-69.5801 59.9121-75.9277 47.9492-75.9277C32.9102-75.9277 20.8984-64.6484 19.2871-50.3906C12.1582-48.0957 6.83594-41.7969 6.83594-33.3984C6.83594-23.3887 14.209-15.5273 26.123-15.5273ZM26.2207-24.2676C19.043-24.2676 15.5273-28.0273 15.5273-33.1543C15.5273-37.4023 18.0176-41.0156 24.2676-42.6758C26.6602-43.3105 27.4414-44.3848 27.7344-46.9238C29.0039-59.4238 37.5488-67.1875 47.9492-67.1875C55.7129-67.1875 62.1094-62.8906 66.2598-54.6875C67.334-52.6367 68.5547-51.9043 71.0938-51.9043C82.5195-51.9043 88.1348-45.5566 88.1348-37.8906C88.1348-30.2734 82.2266-24.2676 74.0234-24.2676ZM31.7383-1.80664L33.7891-5.37109C34.6191-6.73828 34.1797-8.44727 32.8125-9.27734C31.3477-10.1074 29.7363-9.61914 28.9062-8.20312L26.8066-4.54102C26.0742-3.22266 26.416-1.51367 27.8809-0.683594C29.248 0.0976562 30.957-0.439453 31.7383-1.80664ZM48.4375 4.05273L53.8574-5.32227C54.6387-6.73828 54.248-8.39844 52.8809-9.22852C51.416-10.0586 49.8047-9.57031 48.9746-8.1543L43.5059 1.31836C42.7246 2.63672 43.1152 4.3457 44.5801 5.17578C45.9473 5.95703 47.6562 5.41992 48.4375 4.05273ZM71.8262-1.66016L73.877-5.22461C74.707-6.5918 74.2676-8.30078 72.9004-9.13086C71.4355-9.96094 69.8242-9.47266 68.9941-8.05664L66.8945-4.39453C66.1621-3.07617 66.5039-1.36719 67.9688-0.537109C69.3359 0.244141 71.0449-0.292969 71.8262-1.66016ZM23.9258 10.6445C26.416 10.6445 28.4668 8.54492 28.4668 6.00586C28.4668 3.56445 26.416 1.51367 23.9258 1.51367C21.3867 1.51367 19.3359 3.56445 19.3359 6.00586C19.3359 8.54492 21.3867 10.6445 23.9258 10.6445ZM64.0137 10.791C66.5039 10.791 68.5547 8.69141 68.5547 6.15234C68.5547 3.71094 66.5039 1.66016 64.0137 1.66016C61.4746 1.66016 59.4238 3.71094 59.4238 6.15234C59.4238 8.69141 61.4746 10.791 64.0137 10.791ZM40.625 16.5039C43.1152 16.5039 45.166 14.4043 45.166 11.8652C45.166 9.42383 43.1152 7.37305 40.625 7.37305C38.0859 7.37305 36.0352 9.42383 36.0352 11.8652C36.0352 14.4043 38.0859 16.5039 40.625 16.5039Z"/>
  </g>
  <g id="Medium-S" transform="matrix(1 0 0 1 1695.21 696)">
   <path d="M25.6836-15.8691L73.2422-15.8691C86.2305-15.8691 95.8496-25.7324 95.8496-37.9883C95.8496-50.6348 85.7422-60.0098 72.4609-60.0098C67.7734-69.1895 58.9355-75.3906 47.4121-75.3906C32.6172-75.3906 20.5566-64.1113 19.1406-49.8535C12.1094-47.7051 6.83594-41.5039 6.83594-33.2031C6.83594-23.5352 13.916-15.8691 25.6836-15.8691ZM25.6836-23.8281C18.3594-23.8281 14.8438-27.7344 14.8438-32.959C14.8438-37.207 17.1875-40.918 23.5352-42.627C25.8789-43.2617 26.709-44.3359 26.9531-46.8262C28.0762-59.2773 36.8164-67.4316 47.4121-67.4316C55.3223-67.4316 61.8164-63.0859 65.918-54.7852C66.9922-52.6855 68.2129-52.002 70.7031-52.002C82.1289-52.002 87.8906-45.5078 87.8906-37.793C87.8906-30.0293 81.8359-23.8281 73.5352-23.8281ZM31.1035-2.14844L33.3008-5.95703C34.0332-7.27539 33.6426-8.93555 32.3242-9.7168C30.9082-10.498 29.3457-10.0098 28.5645-8.69141L26.3672-4.78516C25.6348-3.51562 25.9766-1.9043 27.3926-1.12305C28.7109-0.390625 30.3711-0.878906 31.1035-2.14844ZM47.8027 3.71094L53.3691-5.9082C54.1016-7.27539 53.7109-8.88672 52.3926-9.66797C50.9766-10.4492 49.4141-10.0098 48.6328-8.64258L43.0664 1.07422C42.334 2.34375 42.6758 3.95508 44.0918 4.73633C45.4102 5.46875 47.0703 4.98047 47.8027 3.71094ZM71.1914-2.00195L73.3887-5.81055C74.1211-7.12891 73.7305-8.78906 72.4121-9.57031C70.9961-10.3516 69.4336-9.86328 68.6523-8.54492L66.4551-4.63867C65.7227-3.36914 66.0645-1.75781 67.4805-0.976562C68.7988-0.244141 70.459-0.732422 71.1914-2.00195ZM23.5352 10.0098C25.9766 10.0098 27.9785 7.95898 27.9785 5.46875C27.9785 3.07617 25.9766 1.07422 23.5352 1.07422C21.0938 1.07422 19.043 3.07617 19.043 5.46875C19.043 7.95898 21.0938 10.0098 23.5352 10.0098ZM63.623 10.1562C66.0645 10.1562 68.0664 8.10547 68.0664 5.61523C68.0664 3.22266 66.0645 1.2207 63.623 1.2207C61.1816 1.2207 59.1309 3.22266 59.1309 5.61523C59.1309 8.10547 61.1816 10.1562 63.623 10.1562ZM40.2344 15.8691C42.6758 15.8691 44.6777 13.8184 44.6777 11.3281C44.6777 8.93555 42.6758 6.93359 40.2344 6.93359C37.793 6.93359 35.7422 8.93555 35.7422 11.3281C35.7422 13.8184 37.793 15.8691 40.2344 15.8691Z"/>
  </g>
  <g id="Regular-S" transform="matrix(1 0 0 1 1399.14 696)">
   <path d="M25.1465-16.2598L72.4609-16.2598C85.2051-16.2598 94.5801-25.9277 94.5801-37.8906C94.5801-50.293 84.5215-59.3262 71.4355-59.3262C66.6504-68.7012 57.6172-74.707 46.7285-74.707C32.1777-74.707 20.166-63.4277 18.8965-49.2188C12.0117-47.168 6.83594-41.0645 6.83594-32.959C6.83594-23.6816 13.5254-16.2598 25.1465-16.2598ZM25.0488-23.291C17.5293-23.291 13.8672-27.3438 13.8672-32.7148C13.8672-36.9141 16.1621-40.8203 22.5586-42.5293C24.9023-43.1641 25.7324-44.2383 25.9277-46.7285C26.8555-59.0332 35.8887-67.6758 46.7285-67.6758C54.7852-67.6758 61.4258-63.2812 65.5273-54.834C66.5039-52.832 67.7246-52.0996 70.2148-52.0996C81.5918-52.0996 87.5488-45.5078 87.5488-37.6953C87.5488-29.6875 81.25-23.291 72.9004-23.291ZM30.2734-2.63672L32.6172-6.73828C33.3496-7.95898 32.959-9.52148 31.6895-10.3027C30.3711-11.0352 28.8574-10.5469 28.125-9.32617L25.7812-5.12695C25.0977-3.95508 25.4395-2.44141 26.7578-1.70898C28.0273-0.976562 29.5898-1.41602 30.2734-2.63672ZM46.9727 3.22266L52.6855-6.68945C53.418-7.95898 53.0273-9.47266 51.7578-10.2539C50.4395-10.9863 48.9258-10.5469 48.1934-9.27734L42.4805 0.732422C41.748 1.9043 42.1387 3.41797 43.457 4.15039C44.7266 4.88281 46.2891 4.44336 46.9727 3.22266ZM70.3613-2.49023L72.7051-6.5918C73.4375-7.8125 73.0469-9.375 71.7773-10.1562C70.459-10.8887 68.9453-10.4004 68.2129-9.17969L65.8691-4.98047C65.1855-3.80859 65.5273-2.29492 66.8457-1.5625C68.1152-0.830078 69.6777-1.26953 70.3613-2.49023ZM23.0469 9.17969C25.3906 9.17969 27.3438 7.22656 27.3438 4.78516C27.3438 2.49023 25.3906 0.488281 23.0469 0.488281C20.6543 0.488281 18.7012 2.49023 18.7012 4.78516C18.7012 7.22656 20.6543 9.17969 23.0469 9.17969ZM63.1348 9.32617C65.4785 9.32617 67.4316 7.37305 67.4316 4.93164C67.4316 2.63672 65.4785 0.634766 63.1348 0.634766C60.7422 0.634766 58.7891 2.63672 58.7891 4.93164C58.7891 7.37305 60.7422 9.32617 63.1348 9.32617ZM39.7461 15.0391C42.0898 15.0391 44.043 13.0859 44.043 10.6445C44.043 8.34961 42.0898 6.34766 39.7461 6.34766C37.3535 6.34766 35.4004 8.34961 35.4004 10.6445C35.4004 13.0859 37.3535 15.0391 39.7461 15.0391Z"/>
  </g>
  <g id="Light-S" transform="matrix(1 0 0 1 1102.79 696)">
   <path d="M24.5605-17.1387L72.168-17.1387C84.5703-17.1387 93.8477-26.5137 93.8477-38.1836C93.8477-50.2441 83.9844-59.0332 71.1426-59.0332C66.3574-68.5547 57.6172-74.707 46.4355-74.707C32.1777-74.707 20.4102-63.4277 19.1895-49.2188C12.207-47.2168 6.83594-41.3086 6.83594-33.252C6.83594-24.3652 13.3301-17.1387 24.5605-17.1387ZM24.5117-22.5586C16.4062-22.5586 12.207-27.1973 12.207-33.1055C12.207-38.0371 15.2344-42.334 21.8262-44.0918C23.7305-44.5801 24.4629-45.459 24.6094-47.4121C25.4395-60.0098 35.1074-69.3359 46.4355-69.3359C55.4688-69.3359 62.4023-64.3066 66.5039-55.8105C67.334-54.1016 68.3594-53.5156 70.459-53.5156C81.6895-53.5156 88.4766-46.5332 88.4766-38.0371C88.4766-29.4434 81.543-22.5586 72.4609-22.5586ZM29.2969-3.22266L32.1289-8.1543C32.7148-9.17969 32.4219-10.4004 31.3965-11.0352C30.3711-11.6211 29.1504-11.2305 28.5645-10.2051L25.7324-5.22461C25.1465-4.24805 25.3906-3.02734 26.4648-2.44141C27.4902-1.85547 28.7109-2.19727 29.2969-3.22266ZM45.9961 2.63672L52.1973-8.10547C52.7832-9.17969 52.4902-10.3516 51.4648-10.9863C50.4395-11.5723 49.2188-11.2305 48.6328-10.1562L42.4316 0.634766C41.7969 1.61133 42.0898 2.83203 43.1641 3.41797C44.1895 4.00391 45.4102 3.66211 45.9961 2.63672ZM69.3848-3.07617L72.2168-8.00781C72.8027-9.0332 72.5098-10.2539 71.4844-10.8887C70.459-11.4746 69.2383-11.084 68.6523-10.0586L65.8203-5.07812C65.2344-4.10156 65.4785-2.88086 66.5527-2.29492C67.5781-1.70898 68.7988-2.05078 69.3848-3.07617ZM22.9492 7.76367C25.0977 7.76367 26.9043 5.95703 26.9043 3.75977C26.9043 1.61133 25.1465-0.244141 22.9492-0.244141C20.752-0.244141 18.9453 1.61133 18.9453 3.75977C18.9453 5.95703 20.752 7.76367 22.9492 7.76367ZM63.0371 7.91016C65.1855 7.91016 66.9922 6.10352 66.9922 3.90625C66.9922 1.75781 65.2344-0.0976562 63.0371-0.0976562C60.8398-0.0976562 59.0332 1.75781 59.0332 3.90625C59.0332 6.10352 60.8398 7.91016 63.0371 7.91016ZM39.6484 13.623C41.7969 13.623 43.6035 11.8164 43.6035 9.61914C43.6035 7.4707 41.8457 5.61523 39.6484 5.61523C37.4512 5.61523 35.6445 7.4707 35.6445 9.61914C35.6445 11.8164 37.4512 13.623 39.6484 13.623Z"/>
  </g>
  <g id="Thin-S" transform="matrix(1 0 0 1 806.544 696)">
   <path d="M23.7793-18.3105L71.7773-18.3105C83.7402-18.3105 92.9199-27.3438 92.9199-38.623C92.9199-50.1465 83.252-58.6426 70.752-58.6426C65.9668-68.4082 57.6172-74.707 46.0449-74.707C32.1777-74.707 20.752-63.4277 19.5801-49.2188C12.4512-47.3145 6.83594-41.6504 6.83594-33.6426C6.83594-25.2441 13.0859-18.3105 23.7793-18.3105ZM23.7793-21.5332C14.8926-21.5332 10.0586-26.9531 10.0586-33.5938C10.0586-39.5508 14.0137-44.2871 20.8008-46.0938C22.2656-46.4844 22.7051-47.0703 22.8027-48.3887C23.584-61.2793 34.082-71.4844 46.0449-71.4844C56.2988-71.4844 63.6719-65.7227 67.8223-57.0801C68.457-55.8105 69.1895-55.3711 70.752-55.3711C81.8359-55.3711 89.6484-47.8516 89.6484-38.4766C89.6484-29.1504 81.8848-21.5332 71.9238-21.5332ZM28.0273-4.05273L31.4453-9.96094C31.9336-10.7422 31.6895-11.5723 31.0059-11.9629C30.3223-12.3535 29.541-12.1094 29.0527-11.3281L25.6348-5.37109C25.1953-4.58984 25.3906-3.80859 26.0742-3.36914C26.7578-2.97852 27.5879-3.22266 28.0273-4.05273ZM44.7266 1.80664L51.5137-9.91211C51.9531-10.7422 51.7578-11.5234 51.0742-11.9141C50.3906-12.3047 49.5605-12.1094 49.1211-11.2793L42.334 0.488281C41.8945 1.26953 42.0898 2.05078 42.7734 2.49023C43.457 2.88086 44.2871 2.63672 44.7266 1.80664ZM68.1152-3.90625L71.5332-9.81445C72.0215-10.5957 71.7773-11.4258 71.0938-11.8164C70.4102-12.207 69.6289-11.9629 69.1406-11.1816L65.7227-5.22461C65.2832-4.44336 65.4785-3.66211 66.1621-3.22266C66.8457-2.83203 67.6758-3.07617 68.1152-3.90625ZM22.8516 5.95703C24.7559 5.95703 26.3672 4.29688 26.3672 2.39258C26.3672 0.439453 24.8047-1.17188 22.8516-1.17188C20.8496-1.17188 19.2383 0.439453 19.2383 2.39258C19.2383 4.29688 20.8496 5.95703 22.8516 5.95703ZM62.9395 6.10352C64.8438 6.10352 66.4551 4.44336 66.4551 2.53906C66.4551 0.585938 64.8926-1.02539 62.9395-1.02539C60.9375-1.02539 59.3262 0.585938 59.3262 2.53906C59.3262 4.44336 60.9375 6.10352 62.9395 6.10352ZM39.5508 11.8164C41.4551 11.8164 43.0664 10.1562 43.0664 8.25195C43.0664 6.29883 41.5039 4.6875 39.5508 4.6875C37.5488 4.6875 35.9375 6.29883 35.9375 8.25195C35.9375 10.1562 37.5488 11.8164 39.5508 11.8164Z"/>
  </g>
  <g id="Ultralight-S" transform="matrix(1 0 0 1 510.102 696)">
   <path d="M23.3887-18.8965L71.582-18.8965C83.3008-18.8965 92.3828-27.7344 92.3828-38.8184C92.3828-50.0977 82.9102-58.4473 70.5566-58.4473C65.7715-68.3105 57.6172-74.707 45.8496-74.707C32.1777-74.707 20.9473-63.4277 19.7754-49.2188C12.5977-47.3633 6.83594-41.7969 6.83594-33.8379C6.83594-25.6836 12.9395-18.8965 23.3887-18.8965ZM23.3887-20.9961C14.1602-20.9961 8.93555-26.8555 8.93555-33.8379C8.93555-40.2832 13.3789-45.3125 20.2637-47.1191C21.4844-47.4121 21.8262-47.9004 21.875-48.877C22.6074-61.9141 33.5449-72.6074 45.8496-72.6074C56.7383-72.6074 64.3555-66.4551 68.5059-57.7637C68.9941-56.6895 69.6289-56.3477 70.8984-56.3477C81.9336-56.3477 90.2832-48.584 90.2832-38.7207C90.2832-29.0039 82.0801-20.9961 71.582-20.9961ZM27.3438-4.44336L31.1035-10.9375C31.4941-11.5723 31.3477-12.1582 30.8105-12.5C30.3223-12.7441 29.7363-12.5977 29.3457-11.9141L25.5859-5.46875C25.2441-4.78516 25.3418-4.19922 25.8789-3.90625C26.416-3.56445 27.002-3.75977 27.3438-4.44336ZM44.043 1.41602L51.1719-10.8887C51.5137-11.5234 51.416-12.1094 50.8789-12.4512C50.3906-12.6953 49.7559-12.5488 49.4141-11.8652L42.2852 0.390625C41.9434 1.07422 42.041 1.66016 42.5781 1.95312C43.1152 2.29492 43.7012 2.09961 44.043 1.41602ZM67.4316-4.29688L71.1914-10.791C71.582-11.4258 71.4355-12.0117 70.8984-12.3535C70.4102-12.5977 69.8242-12.4512 69.4336-11.7676L65.6738-5.32227C65.332-4.63867 65.4297-4.05273 65.9668-3.75977C66.5039-3.41797 67.0898-3.61328 67.4316-4.29688ZM22.7539 4.98047C24.5605 4.98047 26.0254 3.4668 26.0254 1.66016C26.0254-0.146484 24.6094-1.70898 22.7539-1.70898C20.8984-1.70898 19.3848-0.146484 19.3848 1.66016C19.3848 3.4668 20.8984 4.98047 22.7539 4.98047ZM62.8418 5.12695C64.6484 5.12695 66.1133 3.61328 66.1133 1.80664C66.1133 0 64.6973-1.5625 62.8418-1.5625C60.9863-1.5625 59.4727 0 59.4727 1.80664C59.4727 3.61328 60.9863 5.12695 62.8418 5.12695ZM39.4531 10.8398C41.2598 10.8398 42.7246 9.32617 42.7246 7.51953C42.7246 5.71289 41.3086 4.15039 39.4531 4.15039C37.5977 4.15039 36.084 5.71289 36.084 7.51953C36.084 9.32617 37.5977 10.8398 39.4531 10.8398Z"/>
  </g>
 </g>
</svg>
