<?xml version="1.0" encoding="UTF-8"?>
<!--Generator: Apple Native CoreSVG 149-->
<!DOCTYPE svg
PUBLIC "-//W3C//DTD SVG 1.1//EN"
       "http://www.w3.org/Graphics/SVG/1.1/DTD/svg11.dtd">
<svg version="1.1" xmlns="http://www.w3.org/2000/svg" xmlns:xlink="http://www.w3.org/1999/xlink" width="3300" height="2200">
 <!--glyph: "uni1005A7.medium", point size: 100.000000, font version: "Version 16.0d12e3", template writer version: "8"-->
 <g id="Notes">
  <rect height="2200" id="artboard" style="fill:white;opacity:1" width="3300" x="0" y="0"/>
  <line id="" style="fill:none;stroke:black;opacity:1;stroke-width:0.5;" x1="263" x2="3036" y1="292" y2="292"/>
  <text style="stroke:none;fill:black;font-family:-apple-system,&quot;SF Pro Display&quot;,&quot;SF Pro Text&quot;,Helvetica,sans-serif;font-weight:bold;" transform="matrix(1 0 0 1 263 322)">Weight/Scale Variations</text>
  <text style="stroke:none;fill:black;font-family:-apple-system,&quot;SF Pro Display&quot;,&quot;SF Pro Text&quot;,Helvetica,sans-serif;text-anchor:middle;" transform="matrix(1 0 0 1 559.711 322)">Ultralight</text>
  <text style="stroke:none;fill:black;font-family:-apple-system,&quot;SF Pro Display&quot;,&quot;SF Pro Text&quot;,Helvetica,sans-serif;text-anchor:middle;" transform="matrix(1 0 0 1 856.422 322)">Thin</text>
  <text style="stroke:none;fill:black;font-family:-apple-system,&quot;SF Pro Display&quot;,&quot;SF Pro Text&quot;,Helvetica,sans-serif;text-anchor:middle;" transform="matrix(1 0 0 1 1153.13 322)">Light</text>
  <text style="stroke:none;fill:black;font-family:-apple-system,&quot;SF Pro Display&quot;,&quot;SF Pro Text&quot;,Helvetica,sans-serif;text-anchor:middle;" transform="matrix(1 0 0 1 1449.84 322)">Regular</text>
  <text style="stroke:none;fill:black;font-family:-apple-system,&quot;SF Pro Display&quot;,&quot;SF Pro Text&quot;,Helvetica,sans-serif;text-anchor:middle;" transform="matrix(1 0 0 1 1746.56 322)">Medium</text>
  <text style="stroke:none;fill:black;font-family:-apple-system,&quot;SF Pro Display&quot;,&quot;SF Pro Text&quot;,Helvetica,sans-serif;text-anchor:middle;" transform="matrix(1 0 0 1 2043.27 322)">Semibold</text>
  <text style="stroke:none;fill:black;font-family:-apple-system,&quot;SF Pro Display&quot;,&quot;SF Pro Text&quot;,Helvetica,sans-serif;text-anchor:middle;" transform="matrix(1 0 0 1 2339.98 322)">Bold</text>
  <text style="stroke:none;fill:black;font-family:-apple-system,&quot;SF Pro Display&quot;,&quot;SF Pro Text&quot;,Helvetica,sans-serif;text-anchor:middle;" transform="matrix(1 0 0 1 2636.69 322)">Heavy</text>
  <text style="stroke:none;fill:black;font-family:-apple-system,&quot;SF Pro Display&quot;,&quot;SF Pro Text&quot;,Helvetica,sans-serif;text-anchor:middle;" transform="matrix(1 0 0 1 2933.4 322)">Black</text>
  <line id="" style="fill:none;stroke:black;opacity:1;stroke-width:0.5;" x1="263" x2="3036" y1="1903" y2="1903"/>
  <g id="" transform="matrix(1 0 0 1 263 1933)">
   <path d="M9.24805 0.830078C13.5547 0.830078 17.1387-2.74414 17.1387-7.05078C17.1387-11.3574 13.5449-14.9316 9.23828-14.9316C4.94141-14.9316 1.36719-11.3574 1.36719-7.05078C1.36719-2.74414 4.95117 0.830078 9.24805 0.830078ZM9.24805-0.654297C5.70312-0.654297 2.87109-3.49609 2.87109-7.05078C2.87109-10.6055 5.69336-13.4473 9.23828-13.4473C12.793-13.4473 15.6348-10.6055 15.6445-7.05078C15.6543-3.49609 12.8027-0.654297 9.24805-0.654297ZM9.22852-3.62305C9.69727-3.62305 9.9707-3.93555 9.9707-4.45312L9.9707-6.31836L12.002-6.31836C12.5-6.31836 12.832-6.57227 12.832-7.04102C12.832-7.51953 12.5195-7.7832 12.002-7.7832L9.9707-7.7832L9.9707-9.81445C9.9707-10.332 9.69727-10.6543 9.22852-10.6543C8.75977-10.6543 8.50586-10.3125 8.50586-9.81445L8.50586-7.7832L6.49414-7.7832C5.97656-7.7832 5.64453-7.51953 5.64453-7.04102C5.64453-6.57227 5.99609-6.31836 6.49414-6.31836L8.50586-6.31836L8.50586-4.45312C8.50586-3.95508 8.75977-3.62305 9.22852-3.62305Z"/>
  </g>
  <g id="" transform="matrix(1 0 0 1 281.506 1933)">
   <path d="M11.709 2.91016C17.1582 2.91016 21.6699-1.61133 21.6699-7.05078C21.6699-12.5 17.1484-17.0117 11.6992-17.0117C6.25977-17.0117 1.74805-12.5 1.74805-7.05078C1.74805-1.61133 6.26953 2.91016 11.709 2.91016ZM11.709 1.25C7.09961 1.25 3.41797-2.44141 3.41797-7.05078C3.41797-11.6602 7.08984-15.3516 11.6992-15.3516C16.3086-15.3516 20-11.6602 20.0098-7.05078C20.0195-2.44141 16.3184 1.25 11.709 1.25ZM11.6797-2.66602C12.207-2.66602 12.5098-3.01758 12.5098-3.59375L12.5098-6.23047L15.3223-6.23047C15.8691-6.23047 16.25-6.51367 16.25-7.03125C16.25-7.55859 15.8887-7.86133 15.3223-7.86133L12.5098-7.86133L12.5098-10.6836C12.5098-11.25 12.207-11.6113 11.6797-11.6113C11.1621-11.6113 10.8789-11.2305 10.8789-10.6836L10.8789-7.86133L8.07617-7.86133C7.50977-7.86133 7.13867-7.55859 7.13867-7.03125C7.13867-6.51367 7.5293-6.23047 8.07617-6.23047L10.8789-6.23047L10.8789-3.59375C10.8789-3.03711 11.1621-2.66602 11.6797-2.66602Z"/>
  </g>
  <g id="" transform="matrix(1 0 0 1 304.924 1933)">
   <path d="M14.9707 5.66406C21.9336 5.66406 27.6953-0.0976562 27.6953-7.05078C27.6953-14.0137 21.9238-19.7754 14.9609-19.7754C8.00781-19.7754 2.25586-14.0137 2.25586-7.05078C2.25586-0.0976562 8.01758 5.66406 14.9707 5.66406ZM14.9707 3.84766C8.93555 3.84766 4.08203-1.01562 4.08203-7.05078C4.08203-13.0957 8.92578-17.9492 14.9609-17.9492C21.0059-17.9492 25.8594-13.0957 25.8691-7.05078C25.8789-1.01562 21.0156 3.84766 14.9707 3.84766ZM14.9414-1.38672C15.5176-1.38672 15.8594-1.77734 15.8594-2.38281L15.8594-6.13281L19.7754-6.13281C20.3711-6.13281 20.7812-6.46484 20.7812-7.02148C20.7812-7.59766 20.3906-7.93945 19.7754-7.93945L15.8594-7.93945L15.8594-11.8652C15.8594-12.4805 15.5176-12.8711 14.9414-12.8711C14.375-12.8711 14.0527-12.4609 14.0527-11.8652L14.0527-7.93945L10.1465-7.93945C9.53125-7.93945 9.13086-7.59766 9.13086-7.02148C9.13086-6.46484 9.55078-6.13281 10.1465-6.13281L14.0527-6.13281L14.0527-2.38281C14.0527-1.79688 14.375-1.38672 14.9414-1.38672Z"/>
  </g>
  <text style="stroke:none;fill:black;font-family:-apple-system,&quot;SF Pro Display&quot;,&quot;SF Pro Text&quot;,Helvetica,sans-serif;font-weight:bold;" transform="matrix(1 0 0 1 263 1953)">Design Variations</text>
  <text style="stroke:none;fill:black;font-family:-apple-system,&quot;SF Pro Display&quot;,&quot;SF Pro Text&quot;,Helvetica,sans-serif;" transform="matrix(1 0 0 1 263 1971)">Symbols are supported in up to nine weights and three scales.</text>
  <text style="stroke:none;fill:black;font-family:-apple-system,&quot;SF Pro Display&quot;,&quot;SF Pro Text&quot;,Helvetica,sans-serif;" transform="matrix(1 0 0 1 263 1989)">For optimal layout with text and other symbols, vertically align</text>
  <text style="stroke:none;fill:black;font-family:-apple-system,&quot;SF Pro Display&quot;,&quot;SF Pro Text&quot;,Helvetica,sans-serif;" transform="matrix(1 0 0 1 263 2007)">symbols with the adjacent text.</text>
  <line id="" style="fill:none;stroke:#00AEEF;stroke-width:0.5;opacity:1.0;" x1="776" x2="776" y1="1919" y2="1933"/>
  <g id="" transform="matrix(1 0 0 1 776 1933)">
   <path d="M3.31055 0.126953C3.82812 0.126953 4.08203-0.0683594 4.26758-0.605469L5.52734-4.0625L11.2891-4.0625L12.5488-0.605469C12.7344-0.0683594 12.9883 0.126953 13.4961 0.126953C14.0137 0.126953 14.3457-0.185547 14.3457-0.673828C14.3457-0.839844 14.3164-0.986328 14.2383-1.20117L9.6582-13.3887C9.43359-13.9941 9.0332-14.2871 8.4082-14.2871C7.80273-14.2871 7.39258-13.9941 7.17773-13.3984L2.59766-1.19141C2.51953-0.976562 2.49023-0.830078 2.49023-0.664062C2.49023-0.175781 2.80273 0.126953 3.31055 0.126953ZM6.00586-5.53711L8.37891-12.1094L8.42773-12.1094L10.8008-5.53711Z"/>
  </g>
  <line id="" style="fill:none;stroke:#00AEEF;stroke-width:0.5;opacity:1.0;" x1="792.836" x2="792.836" y1="1919" y2="1933"/>
  <text style="stroke:none;fill:black;font-family:-apple-system,&quot;SF Pro Display&quot;,&quot;SF Pro Text&quot;,Helvetica,sans-serif;font-weight:bold;" transform="matrix(1 0 0 1 776 1953)">Margins</text>
  <text style="stroke:none;fill:black;font-family:-apple-system,&quot;SF Pro Display&quot;,&quot;SF Pro Text&quot;,Helvetica,sans-serif;" transform="matrix(1 0 0 1 776 1971)">Leading and trailing margins on the left and right side of each symbol</text>
  <text style="stroke:none;fill:black;font-family:-apple-system,&quot;SF Pro Display&quot;,&quot;SF Pro Text&quot;,Helvetica,sans-serif;" transform="matrix(1 0 0 1 776 1989)">can be adjusted by modifying the x-location of the margin guidelines.</text>
  <text style="stroke:none;fill:black;font-family:-apple-system,&quot;SF Pro Display&quot;,&quot;SF Pro Text&quot;,Helvetica,sans-serif;" transform="matrix(1 0 0 1 776 2007)">Modifications are automatically applied proportionally to all</text>
  <text style="stroke:none;fill:black;font-family:-apple-system,&quot;SF Pro Display&quot;,&quot;SF Pro Text&quot;,Helvetica,sans-serif;" transform="matrix(1 0 0 1 776 2025)">scales and weights.</text>
  <g id="" transform="matrix(1 0 0 1 1289 1933)">
   <path d="M2.8418 1.86523L4.54102 3.57422C5.40039 4.44336 6.38672 4.38477 7.31445 3.35938L17.4902-7.85156C17.7539-7.76367 18.0273-7.7832 18.3398-7.8418L19.4043-8.03711L20.0684-7.36328L20.0293-6.80664C19.9902-6.30859 20.1172-5.92773 20.6055-5.44922L21.3672-4.70703C21.8457-4.22852 22.4609-4.19922 22.9297-4.66797L25.8398-7.58789C26.3086-8.05664 26.2891-8.65234 25.8105-9.13086L25.0391-9.89258C24.5605-10.3711 24.1895-10.5273 23.7109-10.4883L23.1348-10.4395L22.4902-11.0742L22.7344-12.1973C22.8613-12.7637 22.7051-13.2031 22.1191-13.7891L19.9219-15.9766C16.582-19.2969 12.1484-19.2188 9.25781-16.3281C8.83789-15.918 8.80859-15.3418 9.04297-14.9512C9.27734-14.5898 9.73633-14.3555 10.3809-14.5215C11.8457-14.8633 13.3691-14.9219 14.7949-13.9844L14.209-12.5293C14.0137-12.0508 13.9844-11.6504 14.1113-11.2891L3.04688-0.898438C2.06055 0.0195312 1.98242 0.996094 2.8418 1.86523ZM10.752-15.957C13.1836-17.7344 16.4746-17.4316 18.7012-15.2051L21.1328-12.793C21.3672-12.5586 21.4062-12.373 21.3379-12.0312L21.0156-10.5469L22.5195-9.0625L23.5059-9.12109C23.7598-9.13086 23.8379-9.11133 24.0332-8.91602L24.6094-8.33984L22.168-5.89844L21.5918-6.47461C21.3965-6.66992 21.3672-6.74805 21.377-7.01172L21.4453-7.98828L19.9512-9.47266L18.4277-9.21875C18.1055-9.15039 17.959-9.17969 17.7148-9.41406L15.7129-11.416C15.459-11.6504 15.4297-11.8164 15.5859-12.1875L16.4648-14.2773C14.9023-15.7324 12.8711-16.3574 10.8398-15.7617C10.6836-15.7227 10.625-15.8496 10.752-15.957ZM5.27344 2.30469L4.10156 1.14258C3.63281 0.683594 3.74023 0.341797 4.14062-0.0195312L14.9512-10.1953L16.416-8.71094L6.42578 2.27539C6.07422 2.67578 5.74219 2.77344 5.27344 2.30469Z"/>
  </g>
  <text style="stroke:none;fill:black;font-family:-apple-system,&quot;SF Pro Display&quot;,&quot;SF Pro Text&quot;,Helvetica,sans-serif;font-weight:bold;" transform="matrix(1 0 0 1 1289 1953)">Exporting</text>
  <text style="stroke:none;fill:black;font-family:-apple-system,&quot;SF Pro Display&quot;,&quot;SF Pro Text&quot;,Helvetica,sans-serif;" transform="matrix(1 0 0 1 1289 1971)">Symbols should be outlined when exporting to ensure the</text>
  <text style="stroke:none;fill:black;font-family:-apple-system,&quot;SF Pro Display&quot;,&quot;SF Pro Text&quot;,Helvetica,sans-serif;" transform="matrix(1 0 0 1 1289 1989)">design is preserved when submitting to Xcode.</text>
  <text id="template-version" style="stroke:none;fill:black;font-family:-apple-system,&quot;SF Pro Display&quot;,&quot;SF Pro Text&quot;,Helvetica,sans-serif;text-anchor:end;" transform="matrix(1 0 0 1 3036 1933)">Template v.2.0</text>
  <text style="stroke:none;fill:black;font-family:-apple-system,&quot;SF Pro Display&quot;,&quot;SF Pro Text&quot;,Helvetica,sans-serif;text-anchor:end;" transform="matrix(1 0 0 1 3036 1951)">Requires Xcode 12 or greater</text>
  <text style="stroke:none;fill:black;font-family:-apple-system,&quot;SF Pro Display&quot;,&quot;SF Pro Text&quot;,Helvetica,sans-serif;text-anchor:end;" transform="matrix(1 0 0 1 3036 1969)">Generated from eurosign.circle</text>
  <text style="stroke:none;fill:black;font-family:-apple-system,&quot;SF Pro Display&quot;,&quot;SF Pro Text&quot;,Helvetica,sans-serif;text-anchor:end;" transform="matrix(1 0 0 1 3036 1987)">Typeset at 100 points</text>
  <text style="stroke:none;fill:black;font-family:-apple-system,&quot;SF Pro Display&quot;,&quot;SF Pro Text&quot;,Helvetica,sans-serif;" transform="matrix(1 0 0 1 263 726)">Small</text>
  <text style="stroke:none;fill:black;font-family:-apple-system,&quot;SF Pro Display&quot;,&quot;SF Pro Text&quot;,Helvetica,sans-serif;" transform="matrix(1 0 0 1 263 1156)">Medium</text>
  <text style="stroke:none;fill:black;font-family:-apple-system,&quot;SF Pro Display&quot;,&quot;SF Pro Text&quot;,Helvetica,sans-serif;" transform="matrix(1 0 0 1 263 1586)">Large</text>
 </g>
 <g id="Guides">
  <g id="H-reference" style="fill:#27AAE1;stroke:none;" transform="matrix(1 0 0 1 339 696)">
   <path d="M0.976562 0L3.66211 0L12.9883-24.4629L45.752-24.4629L55.127 0L57.7637 0L30.6152-70.459L28.125-70.459ZM29.3457-67.1387L29.4434-67.1387L44.873-26.709L13.8672-26.709Z"/>
  </g>
  <line id="Baseline-S" style="fill:none;stroke:#27AAE1;opacity:1;stroke-width:0.5;" x1="263" x2="3036" y1="696" y2="696"/>
  <line id="Capline-S" style="fill:none;stroke:#27AAE1;opacity:1;stroke-width:0.5;" x1="263" x2="3036" y1="625.541" y2="625.541"/>
  <g id="H-reference" style="fill:#27AAE1;stroke:none;" transform="matrix(1 0 0 1 339 1126)">
   <path d="M0.976562 0L3.66211 0L12.9883-24.4629L45.752-24.4629L55.127 0L57.7637 0L30.6152-70.459L28.125-70.459ZM29.3457-67.1387L29.4434-67.1387L44.873-26.709L13.8672-26.709Z"/>
  </g>
  <line id="Baseline-M" style="fill:none;stroke:#27AAE1;opacity:1;stroke-width:0.5;" x1="263" x2="3036" y1="1126" y2="1126"/>
  <line id="Capline-M" style="fill:none;stroke:#27AAE1;opacity:1;stroke-width:0.5;" x1="263" x2="3036" y1="1055.54" y2="1055.54"/>
  <g id="H-reference" style="fill:#27AAE1;stroke:none;" transform="matrix(1 0 0 1 339 1556)">
   <path d="M0.976562 0L3.66211 0L12.9883-24.4629L45.752-24.4629L55.127 0L57.7637 0L30.6152-70.459L28.125-70.459ZM29.3457-67.1387L29.4434-67.1387L44.873-26.709L13.8672-26.709Z"/>
  </g>
  <line id="Baseline-L" style="fill:none;stroke:#27AAE1;opacity:1;stroke-width:0.5;" x1="263" x2="3036" y1="1556" y2="1556"/>
  <line id="Capline-L" style="fill:none;stroke:#27AAE1;opacity:1;stroke-width:0.5;" x1="263" x2="3036" y1="1485.54" y2="1485.54"/>
  <line id="left-margin" style="fill:none;stroke:#00AEEF;stroke-width:0.5;opacity:1.0;" x1="1391.3" x2="1391.3" y1="1030.79" y2="1150.12"/>
  <line id="right-margin" style="fill:none;stroke:#00AEEF;stroke-width:0.5;opacity:1.0;" x1="1508.39" x2="1508.39" y1="1030.79" y2="1150.12"/>
 </g>
 <g id="Symbols">
  <g id="Black-L" transform="matrix(1 0 0 1 2854.05 1556)">
   <path d="M79.3457 32.8613C116.748 32.8613 147.412 2.19727 147.412-35.2051C147.412-72.6074 116.748-103.271 79.2969-103.271C41.8945-103.271 11.2793-72.6074 11.2793-35.2051C11.2793 2.19727 41.9434 32.8613 79.3457 32.8613ZM79.3457 12.4023C52.9785 12.4023 31.7383-8.83789 31.7383-35.2051C31.7383-61.5723 52.9297-82.8125 79.2969-82.8125C105.664-82.8125 126.953-61.5723 126.953-35.2051C127.002-8.83789 105.713 12.4023 79.3457 12.4023ZM87.4512-7.03125C91.6016-7.03125 94.2383-7.76367 95.8984-8.98438C97.5586-10.1562 98.3398-11.7676 98.3398-13.6719C98.3398-15.918 97.2656-17.334 95.6055-18.1641C93.9453-19.1406 90.6738-19.1895 87.5488-19.3359C81.0059-19.4824 75.4395-22.1191 73.5352-27.1973L90.8691-27.1973C92.627-27.1973 93.6035-28.2715 93.6035-29.834C93.6035-31.4453 92.627-32.5195 90.8691-32.5195L71.9238-32.5195C71.8262-32.959 71.7773-34.082 71.7773-35.2051C71.7773-36.084 71.7773-36.9141 71.875-37.4512L90.8691-37.4512C92.627-37.4512 93.6035-38.5254 93.6035-40.1367C93.6035-41.748 92.627-42.7734 90.8691-42.7734L73.3398-42.7734C75.1953-48.0469 81.0059-50.7812 87.793-51.0254C90.625-51.123 94.0918-51.0742 95.752-52.1973C97.2168-52.9297 98.1934-54.3945 98.1934-56.6895C98.1934-58.4961 97.5098-60.1562 95.8496-61.377C94.3359-62.6465 91.4551-63.3789 87.5488-63.3789C71.582-63.3789 60.9375-55.7617 58.0078-42.7734L53.6133-42.7734C51.8555-42.7734 50.8789-41.748 50.8789-40.1367C50.8789-38.5254 51.8555-37.4512 53.6133-37.4512L57.2754-37.4512C57.2754-36.8652 57.2754-36.084 57.2754-35.1074C57.2754-34.1797 57.2754-33.2031 57.2754-32.5195L53.6133-32.5195C51.8555-32.5195 50.8789-31.4453 50.8789-29.834C50.8789-28.2715 51.8555-27.1973 53.6133-27.1973L58.1543-27.1973C61.2305-14.502 71.9238-7.03125 87.4512-7.03125Z"/>
  </g>
  <g id="Heavy-L" transform="matrix(1 0 0 1 2558.39 1556)">
   <path d="M78.2715 31.7871C115.088 31.7871 145.312 1.5625 145.312-35.2051C145.312-72.0215 115.039-102.246 78.2715-102.246C41.4551-102.246 11.2793-72.0215 11.2793-35.2051C11.2793 1.5625 41.5039 31.7871 78.2715 31.7871ZM78.2715 14.0137C51.0254 14.0137 29.0527-7.95898 29.0527-35.2051C29.0527-62.5 50.9766-84.4727 78.2715-84.4727C105.518-84.4727 127.49-62.5 127.539-35.2051C127.539-7.95898 105.566 14.0137 78.2715 14.0137ZM86.4746-6.68945C90.2344-6.68945 92.7734-7.32422 94.3848-8.34961C96.0449-9.42383 96.8262-10.8887 96.8262-12.6465C96.8262-14.8438 95.7031-16.2109 93.9941-16.8457C92.3828-17.5781 89.502-17.5293 86.5234-17.627C79.2969-17.7734 73.1934-20.9473 71.0938-27.0996L88.9648-27.0996C90.6738-27.0996 91.6992-28.2227 91.6992-29.7852C91.6992-31.3965 90.6738-32.4707 88.9648-32.4707L69.6289-32.4707C69.5312-33.0078 69.4824-34.1309 69.4824-35.2051C69.4824-36.084 69.4824-36.9629 69.5801-37.5488L88.9648-37.5488C90.6738-37.5488 91.6992-38.6719 91.6992-40.2832C91.6992-41.8945 90.6738-42.9688 88.9648-42.9688L70.9473-42.9688C72.998-49.2676 79.2969-52.4902 86.7188-52.6855C89.4531-52.7832 92.5293-52.6367 94.0918-53.4668C95.6543-54.0527 96.7285-55.4688 96.7285-57.6172C96.7285-59.375 96.0938-60.9375 94.3359-62.0117C92.8223-63.0859 90.1367-63.7207 86.5234-63.7207C71.2891-63.7207 60.4492-56.2012 57.4707-42.9688L52.3926-42.9688C50.6836-42.9688 49.6094-41.8945 49.6094-40.2832C49.6094-38.6719 50.6836-37.5488 52.3926-37.5488L56.7383-37.5488C56.6895-36.9141 56.6895-36.1328 56.6895-35.1074C56.6895-34.1309 56.7383-33.1543 56.7383-32.4707L52.3926-32.4707C50.6836-32.4707 49.6094-31.3965 49.6094-29.7852C49.6094-28.2227 50.6836-27.0996 52.3926-27.0996L57.5684-27.0996C60.6934-14.0625 71.5332-6.68945 86.4746-6.68945Z"/>
  </g>
  <g id="Bold-L" transform="matrix(1 0 0 1 2262.88 1556)">
   <path d="M77.0996 30.5664C113.232 30.5664 142.92 0.878906 142.92-35.2539C142.92-71.3379 113.184-101.074 77.0508-101.074C40.9668-101.074 11.2793-71.3379 11.2793-35.2539C11.2793 0.878906 41.0156 30.5664 77.0996 30.5664ZM77.0996 15.8203C48.8281 15.8203 26.0742-6.98242 26.0742-35.2539C26.0742-63.5254 48.7793-86.2793 77.0508-86.2793C105.371-86.2793 128.125-63.5254 128.174-35.2539C128.174-6.98242 105.371 15.8203 77.0996 15.8203ZM85.4004-6.29883C88.7695-6.29883 91.1133-6.78711 92.6758-7.66602C94.3359-8.59375 95.166-9.91211 95.166-11.5723C95.166-13.6719 93.9453-14.9414 92.1875-15.332C90.625-15.8203 88.1836-15.7227 85.4004-15.7715C77.4414-15.8691 70.6543-19.5801 68.3594-27.002L86.8164-27.002C88.5254-27.002 89.5996-28.1738 89.5996-29.7363C89.5996-31.3477 88.5254-32.4707 86.8164-32.4707L67.041-32.4707C66.9434-33.1055 66.8945-34.1309 66.8945-35.1562C66.8945-36.1328 66.8945-36.9629 66.9922-37.6953L86.8164-37.6953C88.5254-37.6953 89.5996-38.8672 89.5996-40.4297C89.5996-42.041 88.5254-43.1641 86.8164-43.1641L68.3105-43.1641C70.5566-50.6348 77.4414-54.4434 85.498-54.541C88.1348-54.5898 90.7715-54.3945 92.2363-54.9805C93.9453-55.3223 95.1172-56.6406 95.1172-58.7402C95.1172-60.3516 94.4336-61.7676 92.627-62.7441C91.1133-63.623 88.7207-64.0625 85.4004-64.0625C70.9961-64.0625 59.9121-56.7383 56.8848-43.1641L50.9766-43.1641C49.3164-43.1641 48.2422-42.041 48.2422-40.4297C48.2422-38.8672 49.3164-37.6953 50.9766-37.6953L56.1035-37.6953C56.0547-36.9629 56.0547-36.1328 56.0547-35.1562C56.0547-34.1309 56.1035-33.1543 56.1523-32.4707L50.9766-32.4707C49.3164-32.4707 48.2422-31.3477 48.2422-29.7363C48.2422-28.1738 49.3164-27.002 50.9766-27.002L56.9336-27.002C60.1074-13.5742 71.0938-6.29883 85.4004-6.29883Z"/>
  </g>
  <g id="Semibold-L" transform="matrix(1 0 0 1 1966.97 1556)">
   <path d="M76.2695 29.7363C111.914 29.7363 141.309 0.390625 141.309-35.2539C141.309-70.8984 111.865-100.244 76.2695-100.244C40.625-100.244 11.2793-70.8984 11.2793-35.2539C11.2793 0.390625 40.6738 29.7363 76.2695 29.7363ZM76.2695 17.041C47.3145 17.041 24.0234-6.25 24.0234-35.2539C24.0234-64.209 47.2656-87.5488 76.2695-87.5488C105.225-87.5488 128.564-64.209 128.613-35.2539C128.662-6.25 105.273 17.041 76.2695 17.041ZM84.6191-6.05469C87.7441-6.05469 89.9902-6.44531 91.5039-7.22656C93.2129-8.00781 93.9941-9.22852 93.9941-10.8398C93.9941-12.8418 92.7246-14.0625 90.918-14.3066C89.4531-14.6484 87.2559-14.4531 84.5703-14.4531C76.123-14.5508 68.9453-18.6523 66.4551-26.9043L85.3516-26.9043C87.0117-26.9043 88.1348-28.125 88.1348-29.6875C88.1348-31.2988 87.0117-32.4219 85.3516-32.4219L65.2832-32.4219C65.1855-33.1543 65.1367-34.1797 65.1367-35.1562C65.1367-36.1328 65.1367-37.0117 65.2344-37.793L85.3516-37.793C87.0117-37.793 88.1348-38.9648 88.1348-40.5273C88.1348-42.1875 87.0117-43.2617 85.3516-43.2617L66.4551-43.2617C68.8965-51.5625 76.123-55.7617 84.668-55.8105C87.2559-55.8594 89.5508-55.6152 90.9668-55.957C92.7246-56.2012 93.9941-57.4219 93.9941-59.4727C93.9941-61.0352 93.3594-62.3535 91.4551-63.2324C89.9902-63.9648 87.6953-64.3066 84.6191-64.3066C70.752-64.3066 59.5703-57.0801 56.4453-43.2617L50-43.2617C48.3887-43.2617 47.2656-42.1875 47.2656-40.5273C47.2656-38.9648 48.3887-37.793 50-37.793L55.6641-37.793C55.6152-36.9629 55.6152-36.1816 55.6152-35.1562C55.6152-34.1309 55.6641-33.1055 55.7129-32.4219L50-32.4219C48.3887-32.4219 47.2656-31.2988 47.2656-29.6875C47.2656-28.125 48.3887-26.9043 50-26.9043L56.4941-26.9043C59.668-13.2324 70.8008-6.05469 84.6191-6.05469Z"/>
  </g>
  <g id="Medium-L" transform="matrix(1 0 0 1 1670.87 1556)">
   <path d="M75.6836 29.1504C110.938 29.1504 140.088 0 140.088-35.2539C140.088-70.5078 110.889-99.6582 75.6348-99.6582C40.3809-99.6582 11.2793-70.5078 11.2793-35.2539C11.2793 0 40.3809 29.1504 75.6836 29.1504ZM75.6836 18.0176C46.1426 18.0176 22.4609-5.76172 22.4609-35.2539C22.4609-64.7461 46.1426-88.5254 75.6348-88.5254C105.127-88.5254 128.906-64.7461 128.906-35.2539C128.955-5.76172 105.176 18.0176 75.6836 18.0176ZM84.0332-5.81055C86.9629-5.81055 89.1113-6.15234 90.625-6.83594C92.2852-7.56836 93.1641-8.69141 93.1641-10.2539C93.1641-12.2559 91.8457-13.4277 89.9414-13.5742C88.5254-13.7207 86.5723-13.4766 83.9844-13.4766C75.0977-13.5254 67.627-17.9688 65.0391-26.8555L84.2773-26.8555C85.8887-26.8555 87.0117-28.0762 87.0117-29.6387C87.0117-31.2988 85.8887-32.4219 84.2773-32.4219L63.916-32.4219C63.8184-33.2031 63.8184-34.1797 63.8184-35.1562C63.8184-36.1328 63.8184-37.0117 63.8672-37.8418L84.2773-37.8418C85.8887-37.8418 87.0117-39.0625 87.0117-40.625C87.0117-42.2363 85.8887-43.3594 84.2773-43.3594L65.0879-43.3594C67.627-52.2949 75.1465-56.7383 84.0332-56.7871C86.5723-56.8359 88.623-56.543 89.9902-56.7383C91.7969-56.8848 93.1152-58.0566 93.1152-60.0586C93.1152-61.5234 92.4805-62.793 90.5273-63.5742C89.1113-64.209 86.9629-64.502 84.0332-64.502C70.5566-64.502 59.2773-57.373 56.1523-43.3594L49.2676-43.3594C47.7051-43.3594 46.5332-42.2363 46.5332-40.625C46.5332-39.0625 47.7051-37.8418 49.2676-37.8418L55.3711-37.8418C55.2734-37.0117 55.2734-36.1816 55.2734-35.2051C55.2734-34.1309 55.3711-33.1055 55.3711-32.4219L49.2676-32.4219C47.7051-32.4219 46.5332-31.2988 46.5332-29.6387C46.5332-28.0762 47.7051-26.8555 49.2676-26.8555L56.1523-26.8555C59.3262-12.9395 70.6055-5.81055 84.0332-5.81055Z"/>
  </g>
  <g id="Regular-L" transform="matrix(1 0 0 1 1374.97 1556)">
   <path d="M74.8535 28.3203C109.668 28.3203 138.477-0.488281 138.477-35.2539C138.477-70.0684 109.619-98.877 74.8047-98.877C40.0391-98.877 11.2793-70.0684 11.2793-35.2539C11.2793-0.488281 40.0879 28.3203 74.8535 28.3203ZM74.8535 19.2383C44.6777 19.2383 20.4102-5.07812 20.4102-35.2539C20.4102-65.4785 44.6289-89.7461 74.8047-89.7461C105.029-89.7461 129.297-65.4785 129.346-35.2539C129.395-5.07812 105.078 19.2383 74.8535 19.2383ZM83.3008-5.56641C85.9375-5.56641 87.9883-5.81055 89.4531-6.34766C91.1621-6.98242 91.9922-8.05664 91.9922-9.47266C91.9922-11.4258 90.625-12.5488 88.7207-12.5488C87.3535-12.5488 85.6445-12.207 83.2031-12.207C73.8281-12.207 65.918-17.041 63.1836-26.8066L82.8125-26.8066C84.4238-26.8066 85.5469-28.0273 85.5469-29.5898C85.5469-31.25 84.4238-32.373 82.8125-32.373L62.1582-32.373C62.0605-33.252 62.0605-34.1797 62.0605-35.1562C62.0605-36.1328 62.0605-37.0605 62.1094-37.9395L82.8125-37.9395C84.4238-37.9395 85.5469-39.1602 85.5469-40.7227C85.5469-42.3828 84.4238-43.5059 82.8125-43.5059L63.2324-43.5059C65.9668-53.2227 73.877-58.0566 83.2031-58.0566C85.6934-58.0566 87.4512-57.7148 88.7207-57.7148C90.625-57.7148 91.9922-58.8379 91.9922-60.791C91.9922-62.207 91.4062-63.3789 89.3555-64.0625C87.9395-64.5508 85.9863-64.7461 83.3008-64.7461C70.3613-64.7461 58.8867-57.7148 55.7129-43.5059L48.3398-43.5059C46.7773-43.5059 45.6055-42.3828 45.6055-40.7227C45.6055-39.1602 46.7773-37.9395 48.3398-37.9395L54.9316-37.9395C54.834-37.0605 54.834-36.2305 54.834-35.2051C54.834-34.082 54.9316-33.0566 54.9805-32.373L48.3398-32.373C46.7773-32.373 45.6055-31.25 45.6055-29.5898C45.6055-28.0273 46.7773-26.8066 48.3398-26.8066L55.7129-26.8066C58.9355-12.5977 70.3125-5.56641 83.3008-5.56641Z"/>
  </g>
  <g id="Light-L" transform="matrix(1 0 0 1 1079.18 1556)">
   <path d="M73.9258 27.3926C108.301 27.3926 136.621-0.927734 136.621-35.2539C136.621-69.6289 108.252-97.9492 73.9258-97.9492C39.5508-97.9492 11.2793-69.6289 11.2793-35.2539C11.2793-0.927734 39.5996 27.3926 73.9258 27.3926ZM73.9258 20.5078C43.1152 20.5078 18.2129-4.44336 18.2129-35.2539C18.2129-66.1133 43.0664-91.0156 73.9258-91.0156C104.736-91.0156 129.688-66.1133 129.736-35.2539C129.736-4.44336 104.785 20.5078 73.9258 20.5078ZM81.9824-6.49414C84.082-6.49414 85.8398-6.68945 87.207-7.08008C88.7207-7.51953 89.5508-8.39844 89.5508-9.66797C89.5508-11.2793 88.4766-12.1582 86.9141-12.1582C85.5957-12.1582 84.1309-11.8652 81.8848-11.8652C72.3145-11.8652 63.9648-16.9922 61.2793-27.3926L81.0059-27.3926C82.373-27.3926 83.3008-28.418 83.3008-29.7852C83.3008-31.1523 82.373-32.1289 81.0059-32.1289L60.498-32.1289C60.4004-33.1055 60.3516-34.082 60.3516-35.1562C60.3516-36.084 60.3516-37.0605 60.4492-37.9395L81.0059-37.9395C82.373-37.9395 83.3008-38.916 83.3008-40.2832C83.3008-41.6504 82.373-42.627 81.0059-42.627L61.3281-42.627C63.8184-53.1738 72.2656-58.3984 81.8848-58.3984C84.1797-58.3984 85.6934-58.1055 86.9141-58.1055C88.4766-58.1055 89.5508-58.9844 89.5508-60.5469C89.5508-61.8164 88.916-62.7441 87.1582-63.2324C85.8398-63.623 84.082-63.7695 81.9824-63.7695C69.4336-63.7695 58.252-56.7383 55.4199-42.627L47.6074-42.627C46.2891-42.627 45.3125-41.6504 45.3125-40.2832C45.3125-38.916 46.2891-37.9395 47.6074-37.9395L54.7363-37.9395C54.6875-37.0605 54.6875-36.1816 54.6875-35.1562C54.6875-34.0332 54.7363-32.959 54.7852-32.1289L47.6074-32.1289C46.2891-32.1289 45.3125-31.1523 45.3125-29.7852C45.3125-28.418 46.2891-27.3926 47.6074-27.3926L55.4199-27.3926C58.3984-13.4277 69.4336-6.49414 81.9824-6.49414Z"/>
  </g>
  <g id="Thin-L" transform="matrix(1 0 0 1 783.693 1556)">
   <path d="M72.7051 26.1719C106.494 26.1719 134.18-1.51367 134.18-35.2539C134.18-69.043 106.494-96.7285 72.7051-96.7285C38.9648-96.7285 11.2793-69.043 11.2793-35.2539C11.2793-1.51367 38.9648 26.1719 72.7051 26.1719ZM72.7051 22.168C41.0156 22.168 15.2832-3.56445 15.2832-35.2539C15.2832-66.9922 41.0156-92.7246 72.7051-92.7246C104.395-92.7246 130.176-66.9922 130.176-35.2539C130.176-3.56445 104.443 22.168 72.7051 22.168ZM80.2246-7.76367C81.6406-7.76367 83.0078-7.8125 84.1797-8.00781C85.5469-8.20312 86.3281-8.83789 86.3281-9.86328C86.3281-11.0352 85.5957-11.6211 84.5215-11.6211C83.3008-11.6211 82.0801-11.377 80.1758-11.377C70.2637-11.377 61.3281-16.8945 58.7891-28.2227L78.5645-28.2227C79.6387-28.2227 80.3223-28.9551 80.3223-29.9805C80.3223-31.0547 79.6387-31.7383 78.5645-31.7383L58.252-31.7383C58.1543-32.8613 58.1055-33.9355 58.1055-35.1074C58.1055-36.084 58.1055-37.0605 58.1543-37.9395L78.5645-37.9395C79.6387-37.9395 80.3223-38.623 80.3223-39.6973C80.3223-40.7227 79.6387-41.4551 78.5645-41.4551L58.7402-41.4551C61.0352-53.125 70.1172-58.7891 80.1758-58.7891C82.1777-58.7891 83.4473-58.5449 84.5215-58.5449C85.5957-58.5449 86.3281-59.1309 86.3281-60.2539C86.3281-61.2793 85.6445-61.9629 84.1797-62.1582C83.0078-62.4023 81.6406-62.4023 80.2246-62.4023C68.2129-62.4023 57.4219-55.4688 54.9805-41.4551L46.6309-41.4551C45.6055-41.4551 44.9219-40.7227 44.9219-39.6973C44.9219-38.623 45.6055-37.9395 46.6309-37.9395L54.4922-37.9395C54.4434-37.0605 54.4434-36.084 54.4434-35.1074C54.4434-33.9355 54.4922-32.8125 54.5898-31.7383L46.6309-31.7383C45.6055-31.7383 44.9219-31.0547 44.9219-29.9805C44.9219-28.9551 45.6055-28.2227 46.6309-28.2227L55.0293-28.2227C57.666-14.5508 68.3105-7.76367 80.2246-7.76367Z"/>
  </g>
  <g id="Ultralight-L" transform="matrix(1 0 0 1 487.616 1556)">
   <path d="M72.1191 25.5371C105.566 25.5371 132.91-1.80664 132.91-35.2539C132.91-68.75 105.566-96.0938 72.1191-96.0938C38.623-96.0938 11.2793-68.75 11.2793-35.2539C11.2793-1.80664 38.623 25.5371 72.1191 25.5371ZM72.1191 23.0469C39.9414 23.0469 13.7695-3.125 13.7695-35.2539C13.7695-67.4316 39.9414-93.6035 72.1191-93.6035C104.248-93.6035 130.42-67.4316 130.42-35.2539C130.42-3.125 104.248 23.0469 72.1191 23.0469ZM79.3457-8.39844C80.3711-8.39844 81.5918-8.34961 82.666-8.49609C83.8867-8.59375 84.668-9.08203 84.668-10.0098C84.668-10.9375 84.1309-11.3281 83.3008-11.3281C82.0801-11.3281 81.0547-11.084 79.248-11.084C69.2383-11.084 60.0098-16.8457 57.5195-28.6133L77.3438-28.6133C78.2227-28.6133 78.8086-29.1992 78.8086-30.0781C78.8086-30.957 78.2227-31.543 77.3438-31.543L57.1289-31.543C57.0312-32.7148 56.9336-33.8867 56.9336-35.1074C56.9336-36.084 56.9336-37.0605 57.0312-37.9395L77.3438-37.9395C78.2227-37.9395 78.8086-38.4766 78.8086-39.4043C78.8086-40.2832 78.2227-40.8691 77.3438-40.8691L57.4219-40.8691C59.6191-53.125 69.043-59.0332 79.248-59.0332C81.1523-59.0332 82.2754-58.7891 83.3008-58.7891C84.1309-58.7891 84.668-59.1797 84.668-60.1074C84.668-61.0352 83.9355-61.5234 82.666-61.6211C81.5918-61.7188 80.3711-61.7188 79.3457-61.7188C67.5781-61.7188 56.9824-54.834 54.7363-40.8691L46.1426-40.8691C45.2637-40.8691 44.6777-40.2832 44.6777-39.4043C44.6777-38.4766 45.2637-37.9395 46.1426-37.9395L54.3945-37.9395C54.2969-37.0605 54.2969-36.0352 54.2969-35.1074C54.2969-33.8867 54.3945-32.7637 54.4922-31.543L46.1426-31.543C45.2637-31.543 44.6777-30.957 44.6777-30.0781C44.6777-29.1992 45.2637-28.6133 46.1426-28.6133L54.834-28.6133C57.3242-15.1367 67.7734-8.39844 79.3457-8.39844Z"/>
  </g>
  <g id="Black-M" transform="matrix(1 0 0 1 2870.97 1126)">
   <path d="M62.4023 18.457C91.9922 18.457 116.113-5.61523 116.113-35.2051C116.113-64.7949 91.9922-88.8672 62.4023-88.8672C32.8125-88.8672 8.74023-64.7949 8.74023-35.2051C8.74023-5.61523 32.8125 18.457 62.4023 18.457ZM62.4023 0.195312C42.8711 0.195312 27.002-15.625 27.002-35.2051C27.002-54.7363 42.8711-70.6055 62.4023-70.6055C81.9824-70.6055 97.8027-54.7363 97.8027-35.2051C97.8027-15.625 81.9824 0.195312 62.4023 0.195312ZM68.4082-14.3555C71.8262-14.3555 73.877-15.0391 75.1465-16.1133C76.3672-17.0898 76.9043-18.4082 76.9043-19.9219C76.9043-21.582 76.3672-22.6562 75.3418-23.5352C73.9258-24.6094 71.0449-24.8535 68.5547-24.9512C64.2578-25.1465 60.4492-26.6602 59.2773-29.4434L71.9727-29.4434C73.291-29.4434 73.9258-30.127 73.9258-31.2012C73.9258-32.3242 73.291-33.0078 71.9727-33.0078L57.959-33.0078C57.9102-33.252 57.8125-34.2773 57.8125-35.2051C57.8125-35.8887 57.8125-36.5234 57.9102-36.8164L71.9727-36.8164C73.291-36.8164 73.9258-37.5 73.9258-38.5742C73.9258-39.6973 73.291-40.3809 71.9727-40.3809L59.0332-40.3809C60.1074-43.457 64.209-45.1172 68.7988-45.3613C70.9961-45.5078 74.1211-45.5566 75.4395-46.7773C76.3184-47.6074 76.7578-48.7305 76.7578-50.3906C76.7578-51.8555 76.2207-53.2227 75.1953-54.248C73.9746-55.3711 71.6309-56.0547 68.5059-56.0547C55.4199-56.0547 47.5098-50 45.459-40.3809L42.8711-40.3809C41.5527-40.3809 40.9668-39.6973 40.9668-38.5742C40.9668-37.5 41.5527-36.8164 42.8711-36.8164L45.0684-36.8164C45.0684-36.4258 45.0684-35.8398 45.0684-35.0586C45.0684-34.375 45.0684-33.6426 45.0684-33.0078L42.8711-33.0078C41.5527-33.0078 40.9668-32.3242 40.9668-31.2012C40.9668-30.127 41.5527-29.4434 42.8711-29.4434L45.6543-29.4434C47.9004-20.2148 55.7617-14.3555 68.4082-14.3555Z"/>
  </g>
  <g id="Heavy-M" transform="matrix(1 0 0 1 2575.19 1126)">
   <path d="M61.5234 17.5293C90.5273 17.5293 114.258-6.20117 114.258-35.2051C114.258-64.2578 90.5273-87.9883 61.4746-87.9883C32.4707-87.9883 8.74023-64.2578 8.74023-35.2051C8.74023-6.20117 32.4707 17.5293 61.5234 17.5293ZM61.5234 1.61133C41.1133 1.61133 24.6582-14.8438 24.6582-35.2051C24.6582-55.6152 41.1133-72.0703 61.4746-72.0703C81.8848-72.0703 98.3398-55.6152 98.3398-35.2051C98.3398-14.8438 81.8848 1.61133 61.5234 1.61133ZM67.6758-13.7207C70.8008-13.7207 72.8027-14.3066 74.1211-15.2344C75.3418-16.1621 75.9277-17.3828 75.9277-18.7988C75.9277-20.459 75.1953-21.5332 74.0234-22.2168C72.7051-23.0469 70.166-23.1445 67.7734-23.2422C62.793-23.3887 58.4961-25.3906 57.0801-29.1992L70.4102-29.1992C71.7285-29.1992 72.4121-29.9316 72.4121-31.1035C72.4121-32.3242 71.7285-33.0566 70.4102-33.0566L55.8594-33.0566C55.8105-33.3984 55.7617-34.3262 55.7617-35.2051C55.7617-35.8887 55.7617-36.5234 55.8105-36.9141L70.4102-36.9141C71.7285-36.9141 72.4121-37.6953 72.4121-38.8672C72.4121-40.0391 71.7285-40.7715 70.4102-40.7715L56.9336-40.7715C58.252-44.8242 62.7441-46.9238 67.9688-47.1191C70.1172-47.2168 72.8516-47.2168 74.1211-48.1445C75.1465-48.7793 75.8301-49.8535 75.8301-51.5137C75.8301-52.9297 75.293-54.1992 74.0723-55.127C72.9004-56.1035 70.7031-56.6895 67.7246-56.6895C55.3223-56.6895 47.168-50.7324 44.9707-40.7715L41.6992-40.7715C40.3809-40.7715 39.6484-40.0391 39.6484-38.8672C39.6484-37.6953 40.3809-36.9141 41.6992-36.9141L44.4824-36.9141C44.4824-36.4746 44.4824-35.8887 44.4824-35.1074C44.4824-34.375 44.4824-33.6426 44.4824-33.0566L41.6992-33.0566C40.3809-33.0566 39.6484-32.3242 39.6484-31.1035C39.6484-29.9316 40.3809-29.1992 41.6992-29.1992L45.1172-29.1992C47.4609-19.4824 55.6152-13.7207 67.6758-13.7207Z"/>
  </g>
  <g id="Bold-M" transform="matrix(1 0 0 1 2279.5 1126)">
   <path d="M60.498 16.5039C88.8672 16.5039 112.207-6.83594 112.207-35.2051C112.207-63.623 88.8672-86.9629 60.4492-86.9629C32.0312-86.9629 8.74023-63.623 8.74023-35.2051C8.74023-6.83594 32.0801 16.5039 60.498 16.5039ZM60.498 3.22266C39.1602 3.22266 22.0703-13.916 22.0703-35.2051C22.0703-56.543 39.1602-73.6816 60.4492-73.6816C81.7383-73.6816 98.9258-56.543 98.9258-35.2051C98.9746-13.916 81.7871 3.22266 60.498 3.22266ZM66.8457-13.0371C69.7266-13.0371 71.6309-13.4766 72.9004-14.3066C74.1699-15.0879 74.8047-16.2109 74.8047-17.5781C74.8047-19.2383 73.9258-20.2637 72.5586-20.7031C71.3379-21.2402 69.1406-21.2402 66.8945-21.2891C61.1816-21.3867 56.2988-23.9258 54.6387-28.9062L68.6035-28.9062C69.9707-28.9062 70.752-29.7852 70.752-31.0059C70.752-32.2754 69.9707-33.1055 68.6035-33.1055L53.5645-33.1055C53.4668-33.5449 53.418-34.375 53.418-35.2051C53.418-35.8887 53.418-36.5723 53.5156-37.0605L68.6035-37.0605C69.9707-37.0605 70.752-37.9395 70.752-39.1602C70.752-40.4297 69.9707-41.2598 68.6035-41.2598L54.5898-41.2598C56.2012-46.3379 61.1816-48.9258 67.041-49.0723C69.1406-49.1211 71.4355-49.0234 72.6074-49.6094C73.877-50.0488 74.7559-51.123 74.7559-52.7832C74.7559-54.1016 74.2188-55.3223 72.8516-56.1523C71.6797-56.9336 69.6289-57.373 66.8945-57.373C55.2246-57.373 46.7773-51.6113 44.4336-41.2598L40.3809-41.2598C39.0625-41.2598 38.2324-40.4297 38.2324-39.1602C38.2324-37.9395 39.0625-37.0605 40.3809-37.0605L43.8477-37.0605C43.8477-36.5234 43.8477-35.9375 43.8477-35.1562C43.8477-34.375 43.8477-33.6426 43.8965-33.1055L40.3809-33.1055C39.0625-33.1055 38.2324-32.2754 38.2324-31.0059C38.2324-29.7852 39.0625-28.9062 40.3809-28.9062L44.5312-28.9062C46.9238-18.7012 55.3711-13.0371 66.8457-13.0371Z"/>
  </g>
  <g id="Semibold-M" transform="matrix(1 0 0 1 1983.5 1126)">
   <path d="M59.7656 15.8203C87.7441 15.8203 110.791-7.27539 110.791-35.2539C110.791-63.2324 87.6953-86.2793 59.7656-86.2793C31.7871-86.2793 8.74023-63.2324 8.74023-35.2539C8.74023-7.27539 31.7871 15.8203 59.7656 15.8203ZM59.7656 4.3457C37.8418 4.3457 20.2637-13.3301 20.2637-35.2539C20.2637-57.1777 37.793-74.8047 59.7656-74.8047C81.6895-74.8047 99.3164-57.1777 99.3652-35.2539C99.3652-13.3301 81.6895 4.3457 59.7656 4.3457ZM66.3086-12.5488C68.9453-12.5488 70.8496-12.9395 72.0703-13.623C73.3887-14.3066 74.0234-15.3809 74.0234-16.6992C74.0234-18.3594 72.998-19.3848 71.5332-19.6777C70.3613-20.0195 68.457-19.9219 66.3086-19.9219C60.0586-20.0195 54.834-22.9492 52.9785-28.7109L67.3828-28.7109C68.75-28.7109 69.5801-29.6387 69.5801-30.9082C69.5801-32.2266 68.75-33.1543 67.3828-33.1543L51.9531-33.1543C51.8555-33.6426 51.8555-34.4238 51.8555-35.2051C51.8555-35.9375 51.8555-36.5723 51.9043-37.1582L67.3828-37.1582C68.75-37.1582 69.5801-38.0859 69.5801-39.3555C69.5801-40.7227 68.75-41.6016 67.3828-41.6016L52.9297-41.6016C54.7852-47.3633 60.0586-50.3418 66.3574-50.3906C68.457-50.4395 70.459-50.293 71.582-50.6836C72.998-50.9277 73.9746-51.9531 73.9746-53.6621C73.9746-54.9316 73.4863-56.0547 72.0215-56.8359C70.8496-57.5195 68.9453-57.8613 66.3086-57.8613C55.1758-57.8613 46.4844-52.1973 44.043-41.6016L39.4531-41.6016C38.1348-41.6016 37.207-40.7227 37.207-39.3555C37.207-38.0859 38.1348-37.1582 39.4531-37.1582L43.457-37.1582C43.4082-36.5723 43.4082-35.9863 43.4082-35.2051C43.4082-34.375 43.457-33.6426 43.457-33.1543L39.4531-33.1543C38.1348-33.1543 37.207-32.2266 37.207-30.9082C37.207-29.6387 38.1348-28.7109 39.4531-28.7109L44.0918-28.7109C46.582-18.1641 55.2246-12.5488 66.3086-12.5488Z"/>
  </g>
  <g id="Medium-M" transform="matrix(1 0 0 1 1687.3 1126)">
   <path d="M59.2285 15.2344C86.9141 15.2344 109.766-7.61719 109.766-35.2539C109.766-62.8906 86.8652-85.7422 59.1797-85.7422C31.543-85.7422 8.74023-62.8906 8.74023-35.2539C8.74023-7.61719 31.5918 15.2344 59.2285 15.2344ZM59.2285 5.17578C36.8164 5.17578 18.8965-12.8418 18.8965-35.2539C18.8965-57.666 36.8164-75.6348 59.1797-75.6348C81.5918-75.6348 99.6094-57.666 99.6582-35.2539C99.707-12.8418 81.6406 5.17578 59.2285 5.17578ZM65.8691-12.1582C68.4082-12.1582 70.2148-12.5 71.4355-13.1348C72.8027-13.7695 73.4375-14.7461 73.4375-16.0645C73.4375-17.7246 72.3633-18.75 70.8008-18.8965C69.6289-19.0918 67.9199-18.8965 65.8203-18.9453C59.1797-18.9453 53.7109-22.168 51.709-28.5645L66.4551-28.5645C67.8223-28.5645 68.75-29.541 68.75-30.8594C68.75-32.2266 67.8223-33.1543 66.4551-33.1543L50.7324-33.1543C50.6348-33.6914 50.6348-34.4727 50.6348-35.2051C50.6348-35.9375 50.6348-36.6211 50.6836-37.207L66.4551-37.207C67.8223-37.207 68.75-38.2324 68.75-39.5508C68.75-40.918 67.8223-41.8457 66.4551-41.8457L51.709-41.8457C53.7109-48.1445 59.2285-51.3672 65.8691-51.416C67.9199-51.4648 69.7266-51.2207 70.8008-51.4648C72.3145-51.6113 73.4375-52.6367 73.4375-54.2969C73.4375-55.5664 72.9492-56.6406 71.3867-57.373C70.2148-57.959 68.4082-58.2031 65.8691-58.2031C55.127-58.2031 46.2891-52.6367 43.75-41.8457L38.7695-41.8457C37.4512-41.8457 36.4746-40.918 36.4746-39.5508C36.4746-38.2324 37.4512-37.207 38.7695-37.207L43.1152-37.207C43.0664-36.6211 43.0664-35.9863 43.0664-35.2051C43.0664-34.375 43.1152-33.6426 43.1152-33.1543L38.7695-33.1543C37.4512-33.1543 36.4746-32.2266 36.4746-30.8594C36.4746-29.541 37.4512-28.5645 38.7695-28.5645L43.75-28.5645C46.3379-17.7734 55.127-12.1582 65.8691-12.1582Z"/>
  </g>
  <g id="Regular-M" transform="matrix(1 0 0 1 1391.3 1126)">
   <path d="M58.5449 14.5508C85.791 14.5508 108.35-8.05664 108.35-35.2539C108.35-62.5 85.7422-85.0586 58.4961-85.0586C31.2988-85.0586 8.74023-62.5 8.74023-35.2539C8.74023-8.05664 31.3477 14.5508 58.5449 14.5508ZM58.5449 6.25C35.498 6.25 17.0898-12.207 17.0898-35.2539C17.0898-58.3008 35.4492-76.7578 58.4961-76.7578C81.543-76.7578 100-58.3008 100.049-35.2539C100.098-12.207 81.5918 6.25 58.5449 6.25ZM65.2832-11.7188C67.627-11.7188 69.4336-11.9629 70.6543-12.4512C72.0215-13.0371 72.7051-13.9648 72.7051-15.1855C72.7051-16.8945 71.4844-17.8711 69.7754-17.8711C68.7012-17.8711 67.2363-17.5781 65.2344-17.5781C58.1055-17.5781 52.1973-21.1914 50.0488-28.3691L65.2344-28.3691C66.6016-28.3691 67.5781-29.4434 67.5781-30.7617C67.5781-32.1777 66.6016-33.2031 65.2344-33.2031L49.1211-33.2031C49.0723-33.8379 49.0723-34.4727 49.0723-35.2051C49.0723-35.9375 49.0723-36.6211 49.1211-37.3047L65.2344-37.3047C66.6016-37.3047 67.5781-38.3789 67.5781-39.7461C67.5781-41.1621 66.6016-42.1387 65.2344-42.1387L50.0977-42.1387C52.2949-49.1699 58.1543-52.7344 65.2344-52.7344C67.2363-52.7344 68.75-52.4902 69.7754-52.4902C71.4844-52.4902 72.7051-53.4668 72.7051-55.1758C72.7051-56.3477 72.2168-57.373 70.5566-58.0566C69.3848-58.4961 67.6758-58.6914 65.2832-58.6914C55.0293-58.6914 45.9961-53.1738 43.3594-42.1387L37.8418-42.1387C36.5234-42.1387 35.498-41.1621 35.498-39.7461C35.498-38.3789 36.5234-37.3047 37.8418-37.3047L42.6758-37.3047C42.627-36.6211 42.627-36.0352 42.627-35.2539C42.627-34.375 42.6758-33.6426 42.6758-33.2031L37.8418-33.2031C36.5234-33.2031 35.498-32.1777 35.498-30.7617C35.498-29.4434 36.5234-28.3691 37.8418-28.3691L43.3594-28.3691C45.9961-17.2363 54.9805-11.7188 65.2832-11.7188Z"/>
  </g>
  <g id="Light-M" transform="matrix(1 0 0 1 1095.42 1126)">
   <path d="M57.7148 13.7207C84.5215 13.7207 106.689-8.44727 106.689-35.2539C106.689-62.1094 84.5215-84.2285 57.666-84.2285C30.8594-84.2285 8.74023-62.1094 8.74023-35.2539C8.74023-8.44727 30.9082 13.7207 57.7148 13.7207ZM57.7148 7.37305C34.082 7.37305 15.0879-11.6699 15.0879-35.2539C15.0879-58.8867 34.082-77.9297 57.666-77.9297C81.2988-77.9297 100.342-58.8867 100.391-35.2539C100.391-11.6699 81.3477 7.37305 57.7148 7.37305ZM64.1113-12.5488C65.9668-12.5488 67.4805-12.6953 68.6035-13.0859C69.873-13.5254 70.5078-14.2578 70.5078-15.332C70.5078-16.748 69.5312-17.5293 68.1641-17.5293C67.1387-17.5293 65.8691-17.2852 64.0625-17.2852C56.6895-17.2852 50.4395-21.0938 48.3398-28.9062L63.5742-28.9062C64.7461-28.9062 65.5762-29.7852 65.5762-30.9082C65.5762-32.1289 64.7461-32.959 63.5742-32.959L47.6074-32.959C47.5586-33.6426 47.5098-34.375 47.5098-35.1562C47.5098-35.9375 47.5098-36.6211 47.6074-37.3047L63.5742-37.3047C64.7461-37.3047 65.5762-38.1836 65.5762-39.3555C65.5762-40.5273 64.7461-41.3574 63.5742-41.3574L48.3887-41.3574C50.4395-49.1699 56.7383-53.0273 64.0625-53.0273C65.918-53.0273 67.1875-52.7832 68.1641-52.7832C69.5312-52.7832 70.5078-53.5645 70.5078-54.9805C70.5078-56.0059 70.0195-56.8359 68.5059-57.3242C67.4805-57.666 66.0156-57.7637 64.1113-57.7637C54.1992-57.7637 45.459-52.3438 43.0664-41.3574L37.207-41.3574C36.084-41.3574 35.2539-40.5273 35.2539-39.3555C35.2539-38.1836 36.084-37.3047 37.207-37.3047L42.5293-37.3047C42.4316-36.6211 42.4316-35.9863 42.4316-35.2051C42.4316-34.3262 42.5293-33.5449 42.5293-32.959L37.207-32.959C36.084-32.959 35.2539-32.1289 35.2539-30.9082C35.2539-29.7852 36.084-28.9062 37.207-28.9062L43.0664-28.9062C45.5078-17.9688 54.1992-12.5488 64.1113-12.5488Z"/>
  </g>
  <g id="Thin-M" transform="matrix(1 0 0 1 799.806 1126)">
   <path d="M56.6406 12.5977C82.9102 12.5977 104.492-8.98438 104.492-35.2539C104.492-61.5723 82.9102-83.1543 56.5918-83.1543C30.3223-83.1543 8.74023-61.5723 8.74023-35.2539C8.74023-8.98438 30.3223 12.5977 56.6406 12.5977ZM56.6406 8.88672C32.2266 8.88672 12.4512-10.8887 12.4512-35.2539C12.4512-59.6191 32.2266-79.4434 56.5918-79.4434C81.0059-79.4434 100.781-59.6191 100.781-35.2539C100.781-10.8887 81.0059 8.88672 56.6406 8.88672ZM62.5488-13.6719C63.7695-13.6719 64.9414-13.7207 65.918-13.916C66.9922-14.1602 67.627-14.6973 67.627-15.5273C67.627-16.5527 66.9434-17.041 66.0156-17.041C65.0391-17.041 64.0625-16.8457 62.5-16.8457C54.8828-16.8457 48.0957-21.0449 46.0938-29.6387L61.4258-29.6387C62.3047-29.6387 62.8906-30.2246 62.8906-31.1035C62.8906-32.0312 62.3047-32.6172 61.4258-32.6172L45.6055-32.6172C45.5566-33.4473 45.5078-34.2773 45.5078-35.1562C45.5078-35.8887 45.5078-36.6211 45.5566-37.3047L61.4258-37.3047C62.3047-37.3047 62.8906-37.9395 62.8906-38.8184C62.8906-39.6973 62.3047-40.2832 61.4258-40.2832L46.0938-40.2832C47.9004-49.1211 54.7852-53.418 62.5-53.418C64.1113-53.418 65.1367-53.2227 66.0156-53.2227C66.9434-53.2227 67.627-53.7109 67.627-54.6875C67.627-55.5664 67.0898-56.1035 65.8691-56.3477C64.9414-56.543 63.8184-56.5918 62.5488-56.5918C53.125-56.5918 44.6777-51.1719 42.6758-40.2832L36.377-40.2832C35.498-40.2832 34.8633-39.6973 34.8633-38.8184C34.8633-37.9395 35.498-37.3047 36.377-37.3047L42.2852-37.3047C42.2363-36.6211 42.2363-35.9375 42.2363-35.1562C42.2363-34.2285 42.2852-33.3984 42.334-32.6172L36.377-32.6172C35.498-32.6172 34.8633-32.0312 34.8633-31.1035C34.8633-30.2246 35.498-29.6387 36.377-29.6387L42.7246-29.6387C44.873-18.9453 53.2227-13.6719 62.5488-13.6719Z"/>
  </g>
  <g id="Ultralight-M" transform="matrix(1 0 0 1 503.656 1126)">
   <path d="M56.0547 12.0605C82.0801 12.0605 103.369-9.22852 103.369-35.2539C103.369-61.2793 82.0801-82.5684 56.0547-82.5684C30.0293-82.5684 8.74023-61.2793 8.74023-35.2539C8.74023-9.22852 30.0293 12.0605 56.0547 12.0605ZM56.0547 9.66797C31.2988 9.66797 11.1328-10.498 11.1328-35.2539C11.1328-60.0586 31.2988-80.1758 56.0547-80.1758C80.8594-80.1758 100.977-60.0586 100.977-35.2539C100.977-10.498 80.8594 9.66797 56.0547 9.66797ZM61.7676-14.2578C62.6465-14.2578 63.6719-14.2578 64.502-14.3555C65.5273-14.4531 66.1133-14.8926 66.1133-15.625C66.1133-16.4062 65.625-16.7969 64.8926-16.7969C63.9648-16.7969 63.1348-16.6016 61.7188-16.6016C53.9551-16.6016 46.875-20.9961 44.9707-29.9805L60.3027-29.9805C61.0352-29.9805 61.5234-30.4688 61.5234-31.2012C61.5234-31.9336 61.0352-32.4219 60.3027-32.4219L44.5801-32.4219C44.5312-33.3008 44.4824-34.1797 44.4824-35.1562C44.4824-35.8887 44.4824-36.6211 44.5312-37.3047L60.3027-37.3047C61.0352-37.3047 61.5234-37.793 61.5234-38.5254C61.5234-39.2578 61.0352-39.7461 60.3027-39.7461L44.9219-39.7461C46.6309-49.0723 53.8086-53.6133 61.7188-53.6133C63.1836-53.6133 64.1113-53.418 64.8926-53.418C65.625-53.418 66.1133-53.7598 66.1133-54.5898C66.1133-55.3223 65.5762-55.7129 64.502-55.8594C63.6719-55.957 62.6465-55.957 61.7676-55.957C52.5391-55.957 44.2871-50.5859 42.4805-39.7461L35.9375-39.7461C35.2051-39.7461 34.7168-39.2578 34.7168-38.5254C34.7168-37.793 35.2051-37.3047 35.9375-37.3047L42.1875-37.3047C42.1387-36.6211 42.1387-35.8887 42.1387-35.1562C42.1387-34.1797 42.1875-33.3008 42.2363-32.4219L35.9375-32.4219C35.2051-32.4219 34.7168-31.9336 34.7168-31.2012C34.7168-30.4688 35.2051-29.9805 35.9375-29.9805L42.5293-29.9805C44.5312-19.4824 52.6855-14.2578 61.7676-14.2578Z"/>
  </g>
  <g id="Black-S" transform="matrix(1 0 0 1 2884.57 696)">
   <path d="M48.8281 6.78711C71.9727 6.78711 90.8203-12.0605 90.8203-35.2051C90.8203-58.3496 71.9727-77.1973 48.8281-77.1973C25.6836-77.1973 6.83594-58.3496 6.83594-35.2051C6.83594-12.0605 25.6836 6.78711 48.8281 6.78711ZM48.8281-7.37305C33.4473-7.37305 20.9961-19.8242 20.9961-35.2051C20.9961-50.5859 33.4473-63.0371 48.8281-63.0371C64.209-63.0371 76.6602-50.5859 76.6602-35.2051C76.6602-19.8242 64.209-7.37305 48.8281-7.37305ZM53.5645-18.7988C56.2012-18.7988 57.8125-19.3359 58.8379-20.166C59.7656-20.9473 60.2051-21.9727 60.2051-23.1445C60.2051-24.4629 59.7656-25.293 58.9355-25.9766C57.8613-26.8066 55.6152-26.9531 53.6621-27.0508C50.2441-27.1973 47.2168-28.418 46.2891-30.6641L56.2988-30.6641C57.3242-30.6641 57.8125-31.2012 57.8125-32.0801C57.8125-32.959 57.3242-33.4961 56.2988-33.4961L45.2637-33.4961C45.2148-33.6914 45.166-34.4727 45.166-35.2051C45.166-35.7422 45.166-36.2305 45.2148-36.4746L56.2988-36.4746C57.3242-36.4746 57.8125-37.0117 57.8125-37.8906C57.8125-38.7695 57.3242-39.3066 56.2988-39.3066L46.0938-39.3066C46.9727-41.7969 50.1953-43.1152 53.8574-43.3105C55.5664-43.4082 58.0078-43.457 59.0332-44.3848C59.7168-45.0195 60.1074-45.8984 60.1074-47.2168C60.1074-48.3398 59.668-49.4141 58.8379-50.1953C57.9102-51.0742 56.0547-51.6113 53.6133-51.6113C43.4082-51.6113 37.207-46.875 35.5957-39.3066L33.4961-39.3066C32.4707-39.3066 31.9824-38.7695 31.9824-37.8906C31.9824-37.0117 32.4707-36.4746 33.4961-36.4746L35.2539-36.4746L35.2539-33.4961L33.4961-33.4961C32.4707-33.4961 31.9824-32.959 31.9824-32.0801C31.9824-31.2012 32.4707-30.6641 33.4961-30.6641L35.7422-30.6641C37.5-23.3887 43.7012-18.7988 53.5645-18.7988Z"/>
  </g>
  <g id="Heavy-S" transform="matrix(1 0 0 1 2588.47 696)">
   <path d="M48.2422 6.15234C70.9961 6.15234 89.5996-12.4512 89.5996-35.2051C89.5996-57.959 70.9961-76.6113 48.1934-76.6113C25.4395-76.6113 6.83594-57.959 6.83594-35.2051C6.83594-12.4512 25.4395 6.15234 48.2422 6.15234ZM48.2422-6.39648C32.2754-6.39648 19.4336-19.2871 19.4336-35.2051C19.4336-51.1719 32.2754-64.0137 48.1934-64.0137C64.1602-64.0137 77.002-51.1719 77.0508-35.2051C77.0508-19.2871 64.1602-6.39648 48.2422-6.39648ZM53.125-18.2129C55.6152-18.2129 57.2266-18.7012 58.252-19.4336C59.2285-20.166 59.668-21.1426 59.668-22.2656C59.668-23.6328 59.082-24.4629 58.1055-25C57.0801-25.6348 55.0781-25.6836 53.1738-25.7812C49.2676-25.8789 45.9473-27.4414 44.8242-30.4199L55.2734-30.4199C56.2988-30.4199 56.8848-31.0547 56.8848-31.9824C56.8848-32.959 56.2988-33.5449 55.2734-33.5449L43.8477-33.5449C43.7988-33.7891 43.75-34.5215 43.75-35.2051C43.75-35.7422 43.75-36.2305 43.7988-36.5723L55.2734-36.5723C56.2988-36.5723 56.8848-37.207 56.8848-38.1348C56.8848-39.1113 56.2988-39.6973 55.2734-39.6973L44.6777-39.6973C45.752-42.8223 49.2676-44.4824 53.3203-44.6289C55.0293-44.6777 57.2266-44.6777 58.2031-45.3613C59.082-45.8496 59.6191-46.7285 59.6191-48.0957C59.6191-49.1699 59.1797-50.2441 58.2031-50.9766C57.2754-51.7578 55.5176-52.1973 53.1738-52.1973C43.457-52.1973 37.0117-47.5586 35.2539-39.6973L32.666-39.6973C31.5918-39.6973 31.0059-39.1113 31.0059-38.1348C31.0059-37.207 31.5918-36.5723 32.666-36.5723L34.8633-36.5723C34.8145-36.2305 34.8145-35.7422 34.8145-35.1562C34.8145-34.5703 34.8633-33.9844 34.8633-33.5449L32.666-33.5449C31.5918-33.5449 31.0059-32.959 31.0059-31.9824C31.0059-31.0547 31.5918-30.4199 32.666-30.4199L35.3516-30.4199C37.207-22.7539 43.6523-18.2129 53.125-18.2129Z"/>
  </g>
  <g id="Bold-S" transform="matrix(1 0 0 1 2292.44 696)">
   <path d="M47.5586 5.46875C69.873 5.46875 88.2324-12.8906 88.2324-35.2539C88.2324-57.5684 69.873-75.9277 47.5098-75.9277C25.1953-75.9277 6.83594-57.5684 6.83594-35.2539C6.83594-12.8906 25.1953 5.46875 47.5586 5.46875ZM47.5586-5.32227C30.957-5.32227 17.6758-18.6523 17.6758-35.2539C17.6758-51.8066 30.957-65.1367 47.5098-65.1367C64.1113-65.1367 77.4414-51.8066 77.4414-35.2539C77.4414-18.6523 64.1113-5.32227 47.5586-5.32227ZM52.6367-17.5781C54.9805-17.5781 56.543-17.9688 57.5684-18.6523C58.6426-19.2871 59.1309-20.2148 59.1309-21.2891C59.1309-22.7051 58.3496-23.5352 57.1777-23.877C56.25-24.3164 54.4922-24.2676 52.6855-24.3164C48.1934-24.3652 44.4824-26.3184 43.1641-30.127L54.1016-30.127C55.2246-30.127 55.8594-30.8594 55.8594-31.8848C55.8594-32.9102 55.2246-33.6426 54.1016-33.6426L42.2363-33.6426C42.1875-33.9355 42.1875-34.5703 42.1875-35.2051C42.1875-35.7422 42.1875-36.2793 42.2363-36.6699L54.1016-36.6699C55.2246-36.6699 55.8594-37.4023 55.8594-38.4277C55.8594-39.4531 55.2246-40.1855 54.1016-40.1855L43.1152-40.1855C44.4336-43.9941 48.2422-45.9473 52.7832-46.0449C54.4434-46.0938 56.2988-45.9961 57.2266-46.4844C58.3008-46.7773 59.082-47.7051 59.082-49.0723C59.082-50.1465 58.6426-51.123 57.5195-51.8066C56.5918-52.4902 54.9316-52.832 52.6855-52.832C43.457-52.832 36.7676-48.291 34.8633-40.1855L31.7383-40.1855C30.6641-40.1855 29.9805-39.4531 29.9805-38.4277C29.9805-37.4023 30.6641-36.6699 31.7383-36.6699L34.375-36.6699C34.375-36.2305 34.375-35.791 34.375-35.1562C34.375-34.5703 34.375-33.9844 34.375-33.6426L31.7383-33.6426C30.6641-33.6426 29.9805-32.9102 29.9805-31.8848C29.9805-30.8594 30.6641-30.127 31.7383-30.127L34.9121-30.127C36.8652-22.0703 43.5547-17.5781 52.6367-17.5781Z"/>
  </g>
  <g id="Semibold-S" transform="matrix(1 0 0 1 1996.2 696)">
   <path d="M47.0703 4.98047C69.0918 4.98047 87.3047-13.1836 87.3047-35.2539C87.3047-57.2754 69.0918-75.4883 47.0215-75.4883C25-75.4883 6.83594-57.2754 6.83594-35.2539C6.83594-13.1836 25.0488 4.98047 47.0703 4.98047ZM47.0703-4.58984C30.0781-4.58984 16.4551-18.2129 16.4551-35.2539C16.4551-52.2461 30.0293-65.8691 47.0215-65.8691C64.0625-65.8691 77.6855-52.2461 77.7344-35.2539C77.7344-18.2129 64.0625-4.58984 47.0703-4.58984ZM52.2949-17.1387C54.541-17.1387 56.1035-17.4805 57.1289-18.0664C58.2031-18.6523 58.6914-19.5312 58.6914-20.6055C58.6914-22.0703 57.8125-22.9004 56.543-23.1445C55.6152-23.3887 54.0527-23.291 52.2949-23.3398C47.4609-23.3887 43.5059-25.5859 41.9922-29.9316L53.2715-29.9316C54.4434-29.9316 55.1758-30.7617 55.1758-31.7871C55.1758-32.9102 54.4434-33.6914 53.2715-33.6914L41.1621-33.6914C41.1133-34.0332 41.0645-34.6191 41.0645-35.2051C41.0645-35.791 41.0645-36.2793 41.1133-36.7188L53.2715-36.7188C54.4434-36.7188 55.1758-37.5488 55.1758-38.623C55.1758-39.7461 54.4434-40.4785 53.2715-40.4785L41.9922-40.4785C43.5059-44.7754 47.5098-47.0215 52.3438-47.0703C54.0527-47.1191 55.6641-46.9727 56.5918-47.2656C57.8125-47.4609 58.6914-48.3398 58.6914-49.7559C58.6914-50.7812 58.3008-51.7578 57.0801-52.3926C56.1035-52.9785 54.541-53.2715 52.3438-53.2715C43.5059-53.2715 36.6211-48.8281 34.6191-40.4785L31.1035-40.4785C29.9805-40.4785 29.248-39.7461 29.248-38.623C29.248-37.5488 29.9805-36.7188 31.1035-36.7188L34.082-36.7188C34.0332-36.2793 34.0332-35.8398 34.0332-35.2051C34.0332-34.6191 34.082-33.9844 34.082-33.6914L31.1035-33.6914C29.9805-33.6914 29.248-32.9102 29.248-31.7871C29.248-30.7617 29.9805-29.9316 31.1035-29.9316L34.6191-29.9316C36.6699-21.582 43.5059-17.1387 52.2949-17.1387Z"/>
  </g>
  <g id="Medium-S" transform="matrix(1 0 0 1 1699.83 696)">
   <path d="M46.7285 4.63867C68.5547 4.63867 86.6211-13.4277 86.6211-35.2539C86.6211-57.0801 68.5059-75.1465 46.6797-75.1465C24.8535-75.1465 6.83594-57.0801 6.83594-35.2539C6.83594-13.4277 24.9023 4.63867 46.7285 4.63867ZM46.7285-4.00391C29.3945-4.00391 15.5273-17.9199 15.5273-35.2539C15.5273-52.5879 29.3457-66.4551 46.6797-66.4551C64.0137-66.4551 77.8809-52.5879 77.9297-35.2539C77.9785-17.9199 64.0625-4.00391 46.7285-4.00391ZM52.0508-16.8457C54.248-16.8457 55.7617-17.0898 56.7871-17.627C57.9102-18.2129 58.3984-19.043 58.3984-20.1172C58.3984-21.582 57.4219-22.4609 56.1035-22.5586C55.1758-22.7051 53.7598-22.5586 52.0508-22.5586C46.9238-22.6074 42.7246-25 41.1621-29.7852L52.6855-29.7852C53.8574-29.7852 54.6387-30.6641 54.6387-31.7383C54.6387-32.9102 53.8574-33.6914 52.6855-33.6914L40.2832-33.6914C40.2344-34.1309 40.2344-34.668 40.2344-35.2051C40.2344-35.791 40.2344-36.3281 40.2832-36.8164L52.6855-36.8164C53.8574-36.8164 54.6387-37.6465 54.6387-38.7695C54.6387-39.9414 53.8574-40.7227 52.6855-40.7227L41.2109-40.7227C42.8223-45.4102 46.9727-47.8027 52.0508-47.8516C53.7598-47.8516 55.2246-47.6562 56.1035-47.8516C57.4219-47.9492 58.3984-48.8281 58.3984-50.293C58.3984-51.3184 58.0078-52.2461 56.6895-52.8809C55.7617-53.3691 54.248-53.6133 52.0508-53.6133C43.5059-53.6133 36.4746-49.2188 34.375-40.7227L30.6152-40.7227C29.4922-40.7227 28.6621-39.9414 28.6621-38.7695C28.6621-37.6465 29.4922-36.8164 30.6152-36.8164L33.8379-36.8164C33.7891-36.2793 33.7891-35.8398 33.7891-35.2051C33.7891-34.6191 33.8379-34.0332 33.8379-33.6914L30.6152-33.6914C29.4922-33.6914 28.6621-32.9102 28.6621-31.7383C28.6621-30.6641 29.4922-29.7852 30.6152-29.7852L34.375-29.7852C36.4746-21.2402 43.5059-16.8457 52.0508-16.8457Z"/>
  </g>
  <g id="Regular-S" transform="matrix(1 0 0 1 1403.58 696)">
   <path d="M46.2402 4.15039C67.7734 4.15039 85.6934-13.7207 85.6934-35.2539C85.6934-56.7871 67.7246-74.6582 46.1914-74.6582C24.707-74.6582 6.83594-56.7871 6.83594-35.2539C6.83594-13.7207 24.7559 4.15039 46.2402 4.15039ZM46.2402-3.27148C28.5156-3.27148 14.3555-17.4805 14.3555-35.2539C14.3555-53.0273 28.4668-67.2363 46.1914-67.2363C63.9648-67.2363 78.1738-53.0273 78.2227-35.2539C78.2715-17.4805 64.0137-3.27148 46.2402-3.27148ZM51.709-16.4062C53.8086-16.4062 55.3223-16.6016 56.3477-17.0898C57.4707-17.627 58.0078-18.4082 58.0078-19.4336C58.0078-20.9473 56.9336-21.8262 55.4688-21.8262C54.5898-21.8262 53.3691-21.582 51.6602-21.582C46.1914-21.582 41.748-24.2676 40.0391-29.5898L51.9043-29.5898C53.0762-29.5898 53.9551-30.5176 53.9551-31.6406C53.9551-32.9102 53.0762-33.7402 51.9043-33.7402L39.209-33.7402C39.1602-34.1797 39.1602-34.7168 39.1602-35.2051C39.1602-35.791 39.1602-36.3281 39.209-36.8652L51.9043-36.8652C53.0762-36.8652 53.9551-37.793 53.9551-38.9648C53.9551-40.1855 53.0762-41.0156 51.9043-41.0156L40.0879-41.0156C41.8945-46.1914 46.2402-48.8281 51.6602-48.8281C53.3691-48.8281 54.5898-48.584 55.4688-48.584C56.9336-48.584 58.0078-49.4629 58.0078-50.9277C58.0078-51.9531 57.666-52.832 56.25-53.4668C55.2734-53.8574 53.8574-54.0527 51.709-54.0527C43.5059-54.0527 36.3281-49.707 34.1309-41.0156L29.9805-41.0156C28.8574-41.0156 27.9297-40.1855 27.9297-38.9648C27.9297-37.793 28.8574-36.8652 29.9805-36.8652L33.4961-36.8652C33.4473-36.3281 33.4473-35.8887 33.4473-35.2539C33.4473-34.6191 33.4961-34.0332 33.5449-33.7402L29.9805-33.7402C28.8574-33.7402 27.9297-32.9102 27.9297-31.6406C27.9297-30.5176 28.8574-29.5898 29.9805-29.5898L34.082-29.5898C36.2305-20.752 43.457-16.4062 51.709-16.4062Z"/>
  </g>
  <g id="Light-S" transform="matrix(1 0 0 1 1107.6 696)">
   <path d="M45.5078 3.41797C66.6992 3.41797 84.2285-14.0625 84.2285-35.2539C84.2285-56.4453 66.6504-73.9258 45.5078-73.9258C24.3164-73.9258 6.83594-56.4453 6.83594-35.2539C6.83594-14.0625 24.3652 3.41797 45.5078 3.41797ZM45.5078-2.29492C27.2461-2.29492 12.5977-16.9922 12.5977-35.2539C12.5977-53.5156 27.1973-68.2129 45.5078-68.2129C63.7695-68.2129 78.4668-53.5156 78.5156-35.2539C78.5156-16.9922 63.8184-2.29492 45.5078-2.29492ZM50.6836-17.1387C52.3438-17.1387 53.6133-17.2852 54.541-17.627C55.5664-18.0176 56.0547-18.7012 56.0547-19.5801C56.0547-20.8008 55.2246-21.4844 54.0039-21.4844C53.1738-21.4844 52.1484-21.2891 50.6348-21.2891C44.9707-21.2891 40.1855-24.2188 38.5254-30.0781L50.4395-30.0781C51.416-30.0781 52.1484-30.8105 52.1484-31.7871C52.1484-32.8125 51.416-33.5449 50.4395-33.5449L37.8906-33.5449C37.8418-34.0332 37.8418-34.6191 37.8418-35.2051C37.8418-35.791 37.8418-36.3281 37.8906-36.8652L50.4395-36.8652C51.416-36.8652 52.1484-37.6465 52.1484-38.623C52.1484-39.6484 51.416-40.332 50.4395-40.332L38.5742-40.332C40.2344-46.1426 44.9707-49.0723 50.6348-49.0723C52.1484-49.0723 53.2227-48.877 54.0039-48.877C55.2246-48.877 56.0547-49.5605 56.0547-50.7812C56.0547-51.6602 55.7129-52.3438 54.4434-52.7832C53.5645-53.125 52.3438-53.2715 50.6836-53.2715C42.7734-53.2715 35.8398-48.9746 33.8867-40.332L29.3945-40.332C28.418-40.332 27.6855-39.6484 27.6855-38.623C27.6855-37.6465 28.418-36.8652 29.3945-36.8652L33.3496-36.8652C33.3008-36.3281 33.3008-35.8398 33.3008-35.2051C33.3008-34.5703 33.3496-33.9355 33.3984-33.5449L29.3945-33.5449C28.418-33.5449 27.6855-32.8125 27.6855-31.7871C27.6855-30.8105 28.418-30.0781 29.3945-30.0781L33.8379-30.0781C35.8398-21.4355 42.7734-17.1387 50.6836-17.1387Z"/>
  </g>
  <g id="Thin-S" transform="matrix(1 0 0 1 811.867 696)">
   <path d="M44.5801 2.49023C65.2832 2.49023 82.2754-14.5508 82.2754-35.2539C82.2754-55.957 65.2344-72.998 44.5312-72.998C23.8281-72.998 6.83594-55.957 6.83594-35.2539C6.83594-14.5508 23.877 2.49023 44.5801 2.49023ZM44.5801-0.927734C25.5859-0.927734 10.2539-16.3086 10.2539-35.2539C10.2539-54.1992 25.5859-69.5801 44.5312-69.5801C63.5254-69.5801 78.8574-54.1992 78.8574-35.2539C78.8574-16.3086 63.5254-0.927734 44.5801-0.927734ZM49.3164-18.1152C50.3906-18.1152 51.3672-18.1641 52.1484-18.3594C53.0273-18.6035 53.5156-19.043 53.5156-19.7754C53.5156-20.6055 52.9297-21.0938 52.1484-21.0938C51.3672-21.0938 50.5371-20.8984 49.2676-20.8984C43.3594-20.8984 38.1348-24.1211 36.5723-30.7129L48.5352-30.7129C49.2676-30.7129 49.8047-31.25 49.8047-31.9824C49.8047-32.7148 49.2676-33.252 48.5352-33.252L36.1328-33.252C36.084-33.8867 36.0352-34.5215 36.0352-35.1562C36.0352-35.7422 36.0352-36.3281 36.084-36.8652L48.5352-36.8652C49.2676-36.8652 49.8047-37.4023 49.8047-38.1348C49.8047-38.916 49.2676-39.4043 48.5352-39.4043L36.5234-39.4043C38.0371-46.1426 43.3105-49.4141 49.2676-49.4141C50.5859-49.4141 51.416-49.2188 52.1484-49.2188C52.9297-49.2188 53.5156-49.6582 53.5156-50.5371C53.5156-51.2207 53.125-51.709 52.0996-51.9531C51.3672-52.1484 50.3906-52.1973 49.3164-52.1973C41.8457-52.1973 35.1562-47.9492 33.5449-39.4043L28.6621-39.4043C27.9297-39.4043 27.3926-38.916 27.3926-38.1348C27.3926-37.4023 27.9297-36.8652 28.6621-36.8652L33.2031-36.8652C33.1543-36.3281 33.1543-35.791 33.1543-35.2051C33.1543-34.4727 33.2031-33.8379 33.2031-33.252L28.6621-33.252C27.9297-33.252 27.3926-32.7148 27.3926-31.9824C27.3926-31.25 27.9297-30.7129 28.6621-30.7129L33.5449-30.7129C35.2539-22.3145 41.8945-18.1152 49.3164-18.1152Z"/>
  </g>
  <g id="Ultralight-S" transform="matrix(1 0 0 1 515.644 696)">
   <path d="M44.043 1.95312C64.502 1.95312 81.2988-14.7949 81.2988-35.2539C81.2988-55.7129 64.502-72.4609 44.043-72.4609C23.584-72.4609 6.83594-55.7129 6.83594-35.2539C6.83594-14.7949 23.584 1.95312 44.043 1.95312ZM44.043-0.244141C24.7559-0.244141 9.08203-15.9668 9.08203-35.2539C9.08203-54.541 24.7559-70.2637 44.043-70.2637C63.3789-70.2637 79.0527-54.541 79.0527-35.2539C79.0527-15.9668 63.3789-0.244141 44.043-0.244141ZM48.584-18.6523C49.4141-18.6523 50.1953-18.6523 50.9277-18.75C51.709-18.8965 52.1973-19.2383 52.1973-19.873C52.1973-20.5078 51.7578-20.8496 51.1719-20.8496C50.3906-20.8496 49.707-20.7031 48.5352-20.7031C42.5293-20.7031 37.0605-24.0723 35.5469-31.0059L47.5586-31.0059C48.1445-31.0059 48.584-31.4453 48.584-32.0801C48.584-32.666 48.1445-33.1055 47.5586-33.1055L35.2051-33.1055C35.1562-33.7402 35.1074-34.4238 35.1074-35.1562C35.1074-35.7422 35.1074-36.3281 35.1562-36.8652L47.5586-36.8652C48.1445-36.8652 48.584-37.3047 48.584-37.8906C48.584-38.5254 48.1445-38.916 47.5586-38.916L35.498-38.916C36.8652-46.0938 42.4316-49.5605 48.5352-49.5605C49.7559-49.5605 50.4883-49.4141 51.1719-49.4141C51.7578-49.4141 52.1973-49.7559 52.1973-50.4395C52.1973-51.0254 51.7578-51.416 50.9277-51.5137C50.1953-51.6113 49.4141-51.6602 48.584-51.6602C41.3086-51.6602 34.8145-47.4121 33.3496-38.916L28.2715-38.916C27.6367-38.916 27.2461-38.5254 27.2461-37.8906C27.2461-37.3047 27.6367-36.8652 28.2715-36.8652L33.0566-36.8652C33.0078-36.3281 33.0078-35.7422 33.0078-35.1562C33.0078-34.4238 33.0566-33.7402 33.1055-33.1055L28.2715-33.1055C27.6367-33.1055 27.2461-32.666 27.2461-32.0801C27.2461-31.4453 27.6367-31.0059 28.2715-31.0059L33.3984-31.0059C34.9609-22.7539 41.4062-18.6523 48.584-18.6523Z"/>
  </g>
 </g>
</svg>
