<?xml version="1.0" encoding="UTF-8"?>
<!--Generator: Apple Native CoreSVG 149-->
<!DOCTYPE svg
PUBLIC "-//W3C//DTD SVG 1.1//EN"
       "http://www.w3.org/Graphics/SVG/1.1/DTD/svg11.dtd">
<svg version="1.1" xmlns="http://www.w3.org/2000/svg" xmlns:xlink="http://www.w3.org/1999/xlink" width="3300" height="2200">
 <!--glyph: "uni1001C8.medium", point size: 100.000000, font version: "Version 16.0d12e3", template writer version: "8"-->
 <g id="Notes">
  <rect height="2200" id="artboard" style="fill:white;opacity:1" width="3300" x="0" y="0"/>
  <line id="" style="fill:none;stroke:black;opacity:1;stroke-width:0.5;" x1="263" x2="3036" y1="292" y2="292"/>
  <text style="stroke:none;fill:black;font-family:-apple-system,&quot;SF Pro Display&quot;,&quot;SF Pro Text&quot;,Helvetica,sans-serif;font-weight:bold;" transform="matrix(1 0 0 1 263 322)">Weight/Scale Variations</text>
  <text style="stroke:none;fill:black;font-family:-apple-system,&quot;SF Pro Display&quot;,&quot;SF Pro Text&quot;,Helvetica,sans-serif;text-anchor:middle;" transform="matrix(1 0 0 1 559.711 322)">Ultralight</text>
  <text style="stroke:none;fill:black;font-family:-apple-system,&quot;SF Pro Display&quot;,&quot;SF Pro Text&quot;,Helvetica,sans-serif;text-anchor:middle;" transform="matrix(1 0 0 1 856.422 322)">Thin</text>
  <text style="stroke:none;fill:black;font-family:-apple-system,&quot;SF Pro Display&quot;,&quot;SF Pro Text&quot;,Helvetica,sans-serif;text-anchor:middle;" transform="matrix(1 0 0 1 1153.13 322)">Light</text>
  <text style="stroke:none;fill:black;font-family:-apple-system,&quot;SF Pro Display&quot;,&quot;SF Pro Text&quot;,Helvetica,sans-serif;text-anchor:middle;" transform="matrix(1 0 0 1 1449.84 322)">Regular</text>
  <text style="stroke:none;fill:black;font-family:-apple-system,&quot;SF Pro Display&quot;,&quot;SF Pro Text&quot;,Helvetica,sans-serif;text-anchor:middle;" transform="matrix(1 0 0 1 1746.56 322)">Medium</text>
  <text style="stroke:none;fill:black;font-family:-apple-system,&quot;SF Pro Display&quot;,&quot;SF Pro Text&quot;,Helvetica,sans-serif;text-anchor:middle;" transform="matrix(1 0 0 1 2043.27 322)">Semibold</text>
  <text style="stroke:none;fill:black;font-family:-apple-system,&quot;SF Pro Display&quot;,&quot;SF Pro Text&quot;,Helvetica,sans-serif;text-anchor:middle;" transform="matrix(1 0 0 1 2339.98 322)">Bold</text>
  <text style="stroke:none;fill:black;font-family:-apple-system,&quot;SF Pro Display&quot;,&quot;SF Pro Text&quot;,Helvetica,sans-serif;text-anchor:middle;" transform="matrix(1 0 0 1 2636.69 322)">Heavy</text>
  <text style="stroke:none;fill:black;font-family:-apple-system,&quot;SF Pro Display&quot;,&quot;SF Pro Text&quot;,Helvetica,sans-serif;text-anchor:middle;" transform="matrix(1 0 0 1 2933.4 322)">Black</text>
  <line id="" style="fill:none;stroke:black;opacity:1;stroke-width:0.5;" x1="263" x2="3036" y1="1903" y2="1903"/>
  <g id="" transform="matrix(1 0 0 1 263 1933)">
   <path d="M9.24805 0.830078C13.5547 0.830078 17.1387-2.74414 17.1387-7.05078C17.1387-11.3574 13.5449-14.9316 9.23828-14.9316C4.94141-14.9316 1.36719-11.3574 1.36719-7.05078C1.36719-2.74414 4.95117 0.830078 9.24805 0.830078ZM9.24805-0.654297C5.70312-0.654297 2.87109-3.49609 2.87109-7.05078C2.87109-10.6055 5.69336-13.4473 9.23828-13.4473C12.793-13.4473 15.6348-10.6055 15.6445-7.05078C15.6543-3.49609 12.8027-0.654297 9.24805-0.654297ZM9.22852-3.62305C9.69727-3.62305 9.9707-3.93555 9.9707-4.45312L9.9707-6.31836L12.002-6.31836C12.5-6.31836 12.832-6.57227 12.832-7.04102C12.832-7.51953 12.5195-7.7832 12.002-7.7832L9.9707-7.7832L9.9707-9.81445C9.9707-10.332 9.69727-10.6543 9.22852-10.6543C8.75977-10.6543 8.50586-10.3125 8.50586-9.81445L8.50586-7.7832L6.49414-7.7832C5.97656-7.7832 5.64453-7.51953 5.64453-7.04102C5.64453-6.57227 5.99609-6.31836 6.49414-6.31836L8.50586-6.31836L8.50586-4.45312C8.50586-3.95508 8.75977-3.62305 9.22852-3.62305Z"/>
  </g>
  <g id="" transform="matrix(1 0 0 1 281.506 1933)">
   <path d="M11.709 2.91016C17.1582 2.91016 21.6699-1.61133 21.6699-7.05078C21.6699-12.5 17.1484-17.0117 11.6992-17.0117C6.25977-17.0117 1.74805-12.5 1.74805-7.05078C1.74805-1.61133 6.26953 2.91016 11.709 2.91016ZM11.709 1.25C7.09961 1.25 3.41797-2.44141 3.41797-7.05078C3.41797-11.6602 7.08984-15.3516 11.6992-15.3516C16.3086-15.3516 20-11.6602 20.0098-7.05078C20.0195-2.44141 16.3184 1.25 11.709 1.25ZM11.6797-2.66602C12.207-2.66602 12.5098-3.01758 12.5098-3.59375L12.5098-6.23047L15.3223-6.23047C15.8691-6.23047 16.25-6.51367 16.25-7.03125C16.25-7.55859 15.8887-7.86133 15.3223-7.86133L12.5098-7.86133L12.5098-10.6836C12.5098-11.25 12.207-11.6113 11.6797-11.6113C11.1621-11.6113 10.8789-11.2305 10.8789-10.6836L10.8789-7.86133L8.07617-7.86133C7.50977-7.86133 7.13867-7.55859 7.13867-7.03125C7.13867-6.51367 7.5293-6.23047 8.07617-6.23047L10.8789-6.23047L10.8789-3.59375C10.8789-3.03711 11.1621-2.66602 11.6797-2.66602Z"/>
  </g>
  <g id="" transform="matrix(1 0 0 1 304.924 1933)">
   <path d="M14.9707 5.66406C21.9336 5.66406 27.6953-0.0976562 27.6953-7.05078C27.6953-14.0137 21.9238-19.7754 14.9609-19.7754C8.00781-19.7754 2.25586-14.0137 2.25586-7.05078C2.25586-0.0976562 8.01758 5.66406 14.9707 5.66406ZM14.9707 3.84766C8.93555 3.84766 4.08203-1.01562 4.08203-7.05078C4.08203-13.0957 8.92578-17.9492 14.9609-17.9492C21.0059-17.9492 25.8594-13.0957 25.8691-7.05078C25.8789-1.01562 21.0156 3.84766 14.9707 3.84766ZM14.9414-1.38672C15.5176-1.38672 15.8594-1.77734 15.8594-2.38281L15.8594-6.13281L19.7754-6.13281C20.3711-6.13281 20.7812-6.46484 20.7812-7.02148C20.7812-7.59766 20.3906-7.93945 19.7754-7.93945L15.8594-7.93945L15.8594-11.8652C15.8594-12.4805 15.5176-12.8711 14.9414-12.8711C14.375-12.8711 14.0527-12.4609 14.0527-11.8652L14.0527-7.93945L10.1465-7.93945C9.53125-7.93945 9.13086-7.59766 9.13086-7.02148C9.13086-6.46484 9.55078-6.13281 10.1465-6.13281L14.0527-6.13281L14.0527-2.38281C14.0527-1.79688 14.375-1.38672 14.9414-1.38672Z"/>
  </g>
  <text style="stroke:none;fill:black;font-family:-apple-system,&quot;SF Pro Display&quot;,&quot;SF Pro Text&quot;,Helvetica,sans-serif;font-weight:bold;" transform="matrix(1 0 0 1 263 1953)">Design Variations</text>
  <text style="stroke:none;fill:black;font-family:-apple-system,&quot;SF Pro Display&quot;,&quot;SF Pro Text&quot;,Helvetica,sans-serif;" transform="matrix(1 0 0 1 263 1971)">Symbols are supported in up to nine weights and three scales.</text>
  <text style="stroke:none;fill:black;font-family:-apple-system,&quot;SF Pro Display&quot;,&quot;SF Pro Text&quot;,Helvetica,sans-serif;" transform="matrix(1 0 0 1 263 1989)">For optimal layout with text and other symbols, vertically align</text>
  <text style="stroke:none;fill:black;font-family:-apple-system,&quot;SF Pro Display&quot;,&quot;SF Pro Text&quot;,Helvetica,sans-serif;" transform="matrix(1 0 0 1 263 2007)">symbols with the adjacent text.</text>
  <line id="" style="fill:none;stroke:#00AEEF;stroke-width:0.5;opacity:1.0;" x1="776" x2="776" y1="1919" y2="1933"/>
  <g id="" transform="matrix(1 0 0 1 776 1933)">
   <path d="M3.31055 0.126953C3.82812 0.126953 4.08203-0.0683594 4.26758-0.605469L5.52734-4.0625L11.2891-4.0625L12.5488-0.605469C12.7344-0.0683594 12.9883 0.126953 13.4961 0.126953C14.0137 0.126953 14.3457-0.185547 14.3457-0.673828C14.3457-0.839844 14.3164-0.986328 14.2383-1.20117L9.6582-13.3887C9.43359-13.9941 9.0332-14.2871 8.4082-14.2871C7.80273-14.2871 7.39258-13.9941 7.17773-13.3984L2.59766-1.19141C2.51953-0.976562 2.49023-0.830078 2.49023-0.664062C2.49023-0.175781 2.80273 0.126953 3.31055 0.126953ZM6.00586-5.53711L8.37891-12.1094L8.42773-12.1094L10.8008-5.53711Z"/>
  </g>
  <line id="" style="fill:none;stroke:#00AEEF;stroke-width:0.5;opacity:1.0;" x1="792.836" x2="792.836" y1="1919" y2="1933"/>
  <text style="stroke:none;fill:black;font-family:-apple-system,&quot;SF Pro Display&quot;,&quot;SF Pro Text&quot;,Helvetica,sans-serif;font-weight:bold;" transform="matrix(1 0 0 1 776 1953)">Margins</text>
  <text style="stroke:none;fill:black;font-family:-apple-system,&quot;SF Pro Display&quot;,&quot;SF Pro Text&quot;,Helvetica,sans-serif;" transform="matrix(1 0 0 1 776 1971)">Leading and trailing margins on the left and right side of each symbol</text>
  <text style="stroke:none;fill:black;font-family:-apple-system,&quot;SF Pro Display&quot;,&quot;SF Pro Text&quot;,Helvetica,sans-serif;" transform="matrix(1 0 0 1 776 1989)">can be adjusted by modifying the x-location of the margin guidelines.</text>
  <text style="stroke:none;fill:black;font-family:-apple-system,&quot;SF Pro Display&quot;,&quot;SF Pro Text&quot;,Helvetica,sans-serif;" transform="matrix(1 0 0 1 776 2007)">Modifications are automatically applied proportionally to all</text>
  <text style="stroke:none;fill:black;font-family:-apple-system,&quot;SF Pro Display&quot;,&quot;SF Pro Text&quot;,Helvetica,sans-serif;" transform="matrix(1 0 0 1 776 2025)">scales and weights.</text>
  <g id="" transform="matrix(1 0 0 1 1289 1933)">
   <path d="M2.8418 1.86523L4.54102 3.57422C5.40039 4.44336 6.38672 4.38477 7.31445 3.35938L17.4902-7.85156C17.7539-7.76367 18.0273-7.7832 18.3398-7.8418L19.4043-8.03711L20.0684-7.36328L20.0293-6.80664C19.9902-6.30859 20.1172-5.92773 20.6055-5.44922L21.3672-4.70703C21.8457-4.22852 22.4609-4.19922 22.9297-4.66797L25.8398-7.58789C26.3086-8.05664 26.2891-8.65234 25.8105-9.13086L25.0391-9.89258C24.5605-10.3711 24.1895-10.5273 23.7109-10.4883L23.1348-10.4395L22.4902-11.0742L22.7344-12.1973C22.8613-12.7637 22.7051-13.2031 22.1191-13.7891L19.9219-15.9766C16.582-19.2969 12.1484-19.2188 9.25781-16.3281C8.83789-15.918 8.80859-15.3418 9.04297-14.9512C9.27734-14.5898 9.73633-14.3555 10.3809-14.5215C11.8457-14.8633 13.3691-14.9219 14.7949-13.9844L14.209-12.5293C14.0137-12.0508 13.9844-11.6504 14.1113-11.2891L3.04688-0.898438C2.06055 0.0195312 1.98242 0.996094 2.8418 1.86523ZM10.752-15.957C13.1836-17.7344 16.4746-17.4316 18.7012-15.2051L21.1328-12.793C21.3672-12.5586 21.4062-12.373 21.3379-12.0312L21.0156-10.5469L22.5195-9.0625L23.5059-9.12109C23.7598-9.13086 23.8379-9.11133 24.0332-8.91602L24.6094-8.33984L22.168-5.89844L21.5918-6.47461C21.3965-6.66992 21.3672-6.74805 21.377-7.01172L21.4453-7.98828L19.9512-9.47266L18.4277-9.21875C18.1055-9.15039 17.959-9.17969 17.7148-9.41406L15.7129-11.416C15.459-11.6504 15.4297-11.8164 15.5859-12.1875L16.4648-14.2773C14.9023-15.7324 12.8711-16.3574 10.8398-15.7617C10.6836-15.7227 10.625-15.8496 10.752-15.957ZM5.27344 2.30469L4.10156 1.14258C3.63281 0.683594 3.74023 0.341797 4.14062-0.0195312L14.9512-10.1953L16.416-8.71094L6.42578 2.27539C6.07422 2.67578 5.74219 2.77344 5.27344 2.30469Z"/>
  </g>
  <text style="stroke:none;fill:black;font-family:-apple-system,&quot;SF Pro Display&quot;,&quot;SF Pro Text&quot;,Helvetica,sans-serif;font-weight:bold;" transform="matrix(1 0 0 1 1289 1953)">Exporting</text>
  <text style="stroke:none;fill:black;font-family:-apple-system,&quot;SF Pro Display&quot;,&quot;SF Pro Text&quot;,Helvetica,sans-serif;" transform="matrix(1 0 0 1 1289 1971)">Symbols should be outlined when exporting to ensure the</text>
  <text style="stroke:none;fill:black;font-family:-apple-system,&quot;SF Pro Display&quot;,&quot;SF Pro Text&quot;,Helvetica,sans-serif;" transform="matrix(1 0 0 1 1289 1989)">design is preserved when submitting to Xcode.</text>
  <text id="template-version" style="stroke:none;fill:black;font-family:-apple-system,&quot;SF Pro Display&quot;,&quot;SF Pro Text&quot;,Helvetica,sans-serif;text-anchor:end;" transform="matrix(1 0 0 1 3036 1933)">Template v.2.0</text>
  <text style="stroke:none;fill:black;font-family:-apple-system,&quot;SF Pro Display&quot;,&quot;SF Pro Text&quot;,Helvetica,sans-serif;text-anchor:end;" transform="matrix(1 0 0 1 3036 1951)">Requires Xcode 12 or greater</text>
  <text style="stroke:none;fill:black;font-family:-apple-system,&quot;SF Pro Display&quot;,&quot;SF Pro Text&quot;,Helvetica,sans-serif;text-anchor:end;" transform="matrix(1 0 0 1 3036 1969)">Generated from cloud.heavyrain</text>
  <text style="stroke:none;fill:black;font-family:-apple-system,&quot;SF Pro Display&quot;,&quot;SF Pro Text&quot;,Helvetica,sans-serif;text-anchor:end;" transform="matrix(1 0 0 1 3036 1987)">Typeset at 100 points</text>
  <text style="stroke:none;fill:black;font-family:-apple-system,&quot;SF Pro Display&quot;,&quot;SF Pro Text&quot;,Helvetica,sans-serif;" transform="matrix(1 0 0 1 263 726)">Small</text>
  <text style="stroke:none;fill:black;font-family:-apple-system,&quot;SF Pro Display&quot;,&quot;SF Pro Text&quot;,Helvetica,sans-serif;" transform="matrix(1 0 0 1 263 1156)">Medium</text>
  <text style="stroke:none;fill:black;font-family:-apple-system,&quot;SF Pro Display&quot;,&quot;SF Pro Text&quot;,Helvetica,sans-serif;" transform="matrix(1 0 0 1 263 1586)">Large</text>
 </g>
 <g id="Guides">
  <g id="H-reference" style="fill:#27AAE1;stroke:none;" transform="matrix(1 0 0 1 339 696)">
   <path d="M0.976562 0L3.66211 0L12.9883-24.4629L45.752-24.4629L55.127 0L57.7637 0L30.6152-70.459L28.125-70.459ZM29.3457-67.1387L29.4434-67.1387L44.873-26.709L13.8672-26.709Z"/>
  </g>
  <line id="Baseline-S" style="fill:none;stroke:#27AAE1;opacity:1;stroke-width:0.5;" x1="263" x2="3036" y1="696" y2="696"/>
  <line id="Capline-S" style="fill:none;stroke:#27AAE1;opacity:1;stroke-width:0.5;" x1="263" x2="3036" y1="625.541" y2="625.541"/>
  <g id="H-reference" style="fill:#27AAE1;stroke:none;" transform="matrix(1 0 0 1 339 1126)">
   <path d="M0.976562 0L3.66211 0L12.9883-24.4629L45.752-24.4629L55.127 0L57.7637 0L30.6152-70.459L28.125-70.459ZM29.3457-67.1387L29.4434-67.1387L44.873-26.709L13.8672-26.709Z"/>
  </g>
  <line id="Baseline-M" style="fill:none;stroke:#27AAE1;opacity:1;stroke-width:0.5;" x1="263" x2="3036" y1="1126" y2="1126"/>
  <line id="Capline-M" style="fill:none;stroke:#27AAE1;opacity:1;stroke-width:0.5;" x1="263" x2="3036" y1="1055.54" y2="1055.54"/>
  <g id="H-reference" style="fill:#27AAE1;stroke:none;" transform="matrix(1 0 0 1 339 1556)">
   <path d="M0.976562 0L3.66211 0L12.9883-24.4629L45.752-24.4629L55.127 0L57.7637 0L30.6152-70.459L28.125-70.459ZM29.3457-67.1387L29.4434-67.1387L44.873-26.709L13.8672-26.709Z"/>
  </g>
  <line id="Baseline-L" style="fill:none;stroke:#27AAE1;opacity:1;stroke-width:0.5;" x1="263" x2="3036" y1="1556" y2="1556"/>
  <line id="Capline-L" style="fill:none;stroke:#27AAE1;opacity:1;stroke-width:0.5;" x1="263" x2="3036" y1="1485.54" y2="1485.54"/>
  <line id="left-margin" style="fill:none;stroke:#00AEEF;stroke-width:0.5;opacity:1.0;" x1="1385.34" x2="1385.34" y1="1030.79" y2="1150.12"/>
  <line id="right-margin" style="fill:none;stroke:#00AEEF;stroke-width:0.5;opacity:1.0;" x1="1514.35" x2="1514.35" y1="1030.79" y2="1150.12"/>
 </g>
 <g id="Symbols">
  <g id="Black-L" transform="matrix(1 0 0 1 2845.61 1556)">
   <path d="M45.1172-1.17188L124.561-1.17188C147.168-1.17188 164.307-18.4082 164.307-40.2832C164.307-62.4512 147.217-79.5898 124.512-79.5898C117.236-93.6523 103.613-104.785 81.543-104.785C55.8105-104.785 35.9375-86.2793 32.5684-62.5977C20.4102-58.3496 11.2793-47.6074 11.2793-33.0566C11.2793-15.0391 24.7559-1.17188 45.1172-1.17188ZM45.6543-19.1895C34.668-19.1895 29.2969-24.8535 29.2969-32.7148C29.2969-39.7461 33.6426-44.9707 43.5547-47.5586C47.8027-48.6328 48.9258-50.5859 49.5605-54.8828C52.5391-75.7812 65.3809-86.7676 81.543-86.7676C93.6035-86.7676 103.809-79.9316 110.742-66.8457C112.598-63.3301 114.6-62.1094 118.994-62.1094C137.842-62.1094 146.289-52.2949 146.289-39.8926C146.289-28.2227 137.549-19.1895 124.219-19.1895ZM62.1094 49.9512L80.2246 18.7012C81.6406 16.1621 81.0059 12.9883 78.3691 11.4746C75.6836 9.96094 72.7539 10.9375 71.2402 13.5742L53.0762 44.873C51.6602 47.3633 52.2461 50.5371 54.8828 52.0508C57.5195 53.5156 60.6445 52.4414 62.1094 49.9512ZM112.207 50L130.371 18.6523C131.787 16.1621 131.152 12.9395 128.516 11.4746C125.879 9.96094 122.9 10.9375 121.387 13.5742L103.271 44.8242C101.807 47.3633 102.393 50.5371 105.078 52.0508C107.666 53.5156 110.791 52.4414 112.207 50ZM36.8652 50L54.9805 18.7988C56.4453 16.2109 55.8105 13.0371 53.1738 11.5234C50.4883 10.0098 47.5098 10.9863 45.9961 13.6719L27.8809 44.9219C26.4648 47.4121 27.002 50.5859 29.6875 52.0996C32.3242 53.6133 35.4492 52.5391 36.8652 50ZM87.0605 50L105.176 18.7988C106.641 16.2109 105.957 13.0371 103.32 11.5234C100.684 10.0098 97.7051 10.9863 96.1914 13.6719L78.0762 44.9219C76.6602 47.4121 77.1973 50.5859 79.8828 52.0996C82.5195 53.6133 85.6445 52.5391 87.0605 50Z"/>
  </g>
  <g id="Heavy-L" transform="matrix(1 0 0 1 2550.04 1556)">
   <path d="M43.9941-2.19727L123.242-2.19727C145.264-2.19727 162.012-19.043 162.012-40.2832C162.012-61.8164 145.117-78.3691 122.803-78.3691C115.332-92.7734 101.562-103.711 80.3711-103.711C55.1758-103.711 35.4492-85.2051 32.373-61.5723C20.3613-57.5684 11.2793-47.0703 11.2793-32.8125C11.2793-15.625 24.1211-2.19727 43.9941-2.19727ZM44.3848-18.0176C32.8125-18.0176 27.0508-24.1699 27.0508-32.4707C27.0508-39.7949 31.5918-45.5078 41.6992-48.1445C45.7031-49.1699 46.8262-50.9766 47.3633-54.9805C49.9512-75.8789 63.5742-87.9395 80.3711-87.9395C93.0664-87.9395 103.564-80.7617 110.498-67.4316C112.207-64.1113 114.16-62.8906 118.311-62.8906C137.109-62.8906 146.191-52.6855 146.191-39.8926C146.191-27.6367 136.816-18.0176 123.047-18.0176ZM60.2051 48.0957L78.5156 16.5039C79.8828 14.1113 79.248 11.2305 76.8555 9.86328C74.4141 8.44727 71.7285 9.32617 70.3125 11.7676L51.9531 43.457C50.6836 45.752 51.2207 48.584 53.6133 50C56.0547 51.3672 58.8867 50.3906 60.2051 48.0957ZM110.303 48.0957L128.662 16.4062C129.98 14.1113 129.395 11.1816 127.002 9.86328C124.609 8.49609 121.875 9.32617 120.508 11.7676L102.197 43.4082C100.83 45.752 101.367 48.584 103.809 50C106.152 51.3672 109.033 50.3906 110.303 48.0957ZM35.0098 48.1445L53.3203 16.5039C54.6875 14.1602 54.0527 11.2793 51.6602 9.86328C49.2188 8.49609 46.5332 9.375 45.1172 11.8164L26.8066 43.5059C25.4883 45.752 26.0254 48.6328 28.4668 50.0488C30.8594 51.416 33.6914 50.4395 35.0098 48.1445ZM85.2051 48.1445L103.516 16.5039C104.883 14.1602 104.248 11.2793 101.855 9.86328C99.4141 8.49609 96.6797 9.375 95.3125 11.8164L76.9531 43.5059C75.6836 45.752 76.1719 48.6328 78.6133 50.0488C81.0547 51.416 83.8867 50.4395 85.2051 48.1445Z"/>
  </g>
  <g id="Bold-L" transform="matrix(1 0 0 1 2254.63 1556)">
   <path d="M42.7246-3.36914L121.68-3.36914C143.164-3.36914 159.424-19.7266 159.424-40.2344C159.424-61.1816 142.725-77.002 120.85-77.002C113.232-91.8457 99.2676-102.539 79.0039-102.539C54.4434-102.539 34.8145-83.9844 32.1289-60.4492C20.3125-56.6895 11.2793-46.4355 11.2793-32.5195C11.2793-16.2598 23.3398-3.36914 42.7246-3.36914ZM42.9688-16.6992C30.7129-16.6992 24.5605-23.3887 24.5605-32.2266C24.5605-39.8926 29.2969-46.0938 39.6973-48.8281C43.3594-49.7559 44.4824-51.4648 44.9219-55.1758C47.1191-75.9766 61.5723-89.209 79.0039-89.209C92.5293-89.209 103.369-81.6406 110.205-68.1152C111.816-64.9414 113.672-63.8184 117.529-63.8184C136.23-63.8184 146.094-53.1738 146.094-39.9414C146.094-26.9531 135.938-16.6992 121.777-16.6992ZM58.1055 45.9961L76.6113 13.9648C77.8809 11.8164 77.2949 9.27734 75.1465 8.00781C72.9492 6.78711 70.5566 7.51953 69.2871 9.76562L50.7324 41.8457C49.5605 43.8965 50.0488 46.4355 52.1973 47.7051C54.3457 48.9258 56.8848 48.0957 58.1055 45.9961ZM32.959 46.0449L51.4648 14.0137C52.7344 11.8164 52.0996 9.32617 49.9512 8.05664C47.8027 6.83594 45.4102 7.56836 44.0918 9.76562L25.5371 41.8945C24.4141 43.9453 24.9023 46.4844 27.0508 47.7051C29.1992 48.9258 31.7383 48.0957 32.959 46.0449ZM83.1055 46.0449L101.66 14.0137C102.881 11.8164 102.295 9.32617 100.146 8.05664C97.998 6.83594 95.5566 7.56836 94.2871 9.76562L75.7324 41.8945C74.5605 43.9453 75.0488 46.4844 77.2461 47.7051C79.3945 48.9258 81.9336 48.0957 83.1055 46.0449ZM108.203 46.0449L126.758 13.916C127.979 11.8164 127.441 9.22852 125.293 8.00781C123.145 6.88477 120.703 7.51953 119.434 9.7168L100.928 41.7969C99.707 43.8965 100.244 46.4355 102.344 47.7051C104.443 48.9258 107.031 48.0957 108.203 46.0449Z"/>
  </g>
  <g id="Semibold-L" transform="matrix(1 0 0 1 1958.82 1556)">
   <path d="M41.8457-4.19922L120.654-4.19922C141.699-4.19922 157.617-20.166 157.617-40.2344C157.617-60.6934 141.113-76.0254 119.482-76.0254C111.768-91.2109 97.7051-101.709 78.0762-101.709C53.9062-101.709 34.4238-83.1543 31.9824-59.668C20.2637-56.0547 11.2793-46.0449 11.2793-32.373C11.2793-16.6992 22.8516-4.19922 41.8457-4.19922ZM41.9922-15.7715C29.2969-15.7715 22.8516-22.8516 22.8516-32.0801C22.8516-39.9414 27.6855-46.4844 38.2812-49.2676C41.748-50.1953 42.8711-51.7578 43.2129-55.2734C45.1172-76.0742 60.1562-90.0879 78.0762-90.0879C92.1387-90.0879 103.223-82.2754 110.059-68.5547C111.572-65.5273 113.33-64.4531 116.992-64.4531C135.645-64.4531 146.045-53.4668 146.045-39.9414C146.045-26.5137 135.352-15.7715 120.898-15.7715ZM56.6406 44.5312L75.3418 12.2559C76.5137 10.2051 75.9277 7.91016 73.9746 6.78711C71.9727 5.66406 69.7754 6.29883 68.5547 8.34961L49.8535 40.7715C48.7793 42.6758 49.2676 44.9707 51.2695 46.0938C53.2227 47.2168 55.5664 46.4844 56.6406 44.5312ZM31.4941 44.5801L50.1953 12.2559C51.3672 10.2539 50.7812 7.95898 48.8281 6.78711C46.8262 5.66406 44.6289 6.29883 43.4082 8.39844L24.707 40.7715C23.6328 42.6758 24.1211 44.9707 26.0742 46.1426C28.0762 47.2656 30.4199 46.5332 31.4941 44.5801ZM81.6895 44.5801L100.342 12.2559C101.514 10.2539 100.928 7.95898 98.9746 6.78711C97.0215 5.66406 94.7754 6.29883 93.6035 8.39844L74.9023 40.7715C73.8281 42.6758 74.2676 44.9707 76.2695 46.1426C78.2227 47.2656 80.5664 46.5332 81.6895 44.5801ZM106.738 44.5801L125.488 12.1582C126.611 10.2051 126.074 7.86133 124.121 6.78711C122.168 5.71289 119.922 6.29883 118.75 8.30078L100.098 40.6738C98.9258 42.6758 99.4141 44.9707 101.367 46.0938C103.271 47.2168 105.664 46.4844 106.738 44.5801Z"/>
  </g>
  <g id="Medium-L" transform="matrix(1 0 0 1 1662.79 1556)">
   <path d="M41.2109-4.78516L119.873-4.78516C140.625-4.78516 156.25-20.5566 156.25-40.1855C156.25-60.3516 139.844-75.3418 118.457-75.3418C110.693-90.7227 96.4844-101.074 77.3438-101.074C53.5156-101.074 34.1309-82.5195 31.8359-59.0332C20.2148-55.6152 11.2793-45.7031 11.2793-32.2266C11.2793-16.9922 22.4609-4.78516 41.2109-4.78516ZM41.2109-15.0879C28.2227-15.0879 21.582-22.4609 21.582-31.9336C21.582-39.9902 26.5137-46.7773 37.207-49.6094C40.5273-50.4883 41.6504-52.002 41.9434-55.3223C43.6523-76.123 59.082-90.7715 77.3438-90.7715C91.8457-90.7715 103.076-82.7148 109.912-68.8965C111.328-65.9668 113.086-64.9414 116.602-64.9414C135.205-64.9414 145.947-53.7109 145.947-39.9414C145.947-26.123 134.912-15.0879 120.215-15.0879ZM55.5664 43.457L74.3164 10.9375C75.4395 9.0332 74.9023 6.88477 73.0469 5.81055C71.2402 4.78516 69.1406 5.37109 68.0176 7.32422L49.2188 39.8926C48.1934 41.6992 48.6328 43.8477 50.4883 44.9219C52.3438 45.9473 54.4922 45.3125 55.5664 43.457ZM30.4199 43.457L49.2188 10.9375C50.293 9.0332 49.7559 6.93359 47.9492 5.85938C46.0938 4.78516 44.043 5.37109 42.8711 7.32422L24.0723 39.9414C23.0469 41.6992 23.4863 43.8477 25.3906 44.9219C27.1973 45.9473 29.3945 45.3125 30.4199 43.457ZM80.6152 43.457L99.3652 10.9375C100.488 9.0332 99.9512 6.93359 98.0957 5.85938C96.2891 4.78516 94.1895 5.37109 93.0664 7.32422L74.2676 39.9414C73.2422 41.6992 73.6816 43.8477 75.5371 44.9219C77.3926 45.9473 79.541 45.3125 80.6152 43.457ZM105.615 43.5059L124.463 10.8398C125.537 9.0332 125.049 6.83594 123.193 5.81055C121.387 4.88281 119.287 5.37109 118.213 7.27539L99.4141 39.8438C98.3398 41.6992 98.8281 43.8477 100.635 44.9219C102.393 45.9473 104.59 45.3125 105.615 43.5059Z"/>
  </g>
  <g id="Regular-L" transform="matrix(1 0 0 1 1366.96 1556)">
   <path d="M40.3809-5.61523L118.848-5.61523C139.16-5.61523 154.492-20.9961 154.492-40.1855C154.492-59.9121 138.232-74.3652 117.139-74.3652C109.277-90.0879 94.9219-100.244 76.4648-100.244C53.0273-100.244 33.6914-81.6895 31.6895-58.252C20.166-55.0293 11.2793-45.2637 11.2793-32.0312C11.2793-17.4316 21.9238-5.61523 40.3809-5.61523ZM40.2344-14.209C26.8066-14.209 19.873-21.9727 19.873-31.7871C19.873-40.0879 24.9023-47.2168 35.791-50.0977C38.916-50.9277 40.0391-52.3438 40.2832-55.4688C41.6992-76.2207 57.7148-91.6504 76.4648-91.6504C91.4551-91.6504 102.93-83.3496 109.717-69.3359C111.084-66.5527 112.744-65.5762 116.064-65.5762C134.619-65.5762 145.898-54.0039 145.898-39.9414C145.898-25.6836 134.326-14.209 119.336-14.209ZM29.0039 42.041L47.9492 9.22852C48.9746 7.42188 48.4375 5.56641 46.7773 4.58984C45.1172 3.66211 43.2617 4.15039 42.1875 5.9082L23.2422 38.8184C22.3145 40.4785 22.7539 42.3828 24.4141 43.3594C26.0742 44.2871 28.0273 43.7012 29.0039 42.041ZM54.1016 42.041L73.0469 9.22852C74.0723 7.42188 73.5352 5.56641 71.9238 4.58984C70.2637 3.66211 68.3594 4.15039 67.334 5.9082L48.3398 38.8184C47.4609 40.4785 47.8516 42.3828 49.5605 43.3594C51.1719 44.2871 53.1738 43.7012 54.1016 42.041ZM79.1992 42.041L98.0957 9.22852C99.1699 7.42188 98.6328 5.56641 96.9727 4.58984C95.3125 3.66211 93.4082 4.15039 92.3828 5.9082L73.4375 38.8184C72.5098 40.4785 72.9004 42.3828 74.6094 43.3594C76.2695 44.2871 78.2227 43.7012 79.1992 42.041ZM104.15 42.0898L123.193 9.13086C124.17 7.42188 123.682 5.46875 122.021 4.58984C120.41 3.75977 118.506 4.15039 117.529 5.85938L98.584 38.7207C97.5586 40.4785 98.0469 42.3828 99.6582 43.3594C101.221 44.2871 103.223 43.7012 104.15 42.0898Z"/>
  </g>
  <g id="Light-L" transform="matrix(1 0 0 1 1070.71 1556)">
   <path d="M39.5996-6.73828L118.457-6.73828C138.379-6.73828 153.564-21.7773 153.564-40.5762C153.564-59.8633 137.549-74.0234 116.748-74.0234C108.887-89.9414 94.9219-100.244 76.0742-100.244C53.0273-100.244 34.0332-81.6895 32.0312-58.252C20.4102-55.0781 11.2793-45.6055 11.2793-32.4219C11.2793-18.2617 21.6797-6.73828 39.5996-6.73828ZM39.5508-13.2324C25.3906-13.2324 17.8223-21.7285 17.8223-32.2266C17.8223-41.5039 23.7793-49.0723 34.8633-52.002C37.5-52.6855 38.3789-53.8574 38.5742-56.3477C39.8926-77.3926 56.7383-93.75 76.0742-93.75C92.2852-93.75 104.199-84.668 110.986-70.5566C112.109-68.1641 113.525-67.3828 116.357-67.3828C134.766-67.3828 147.021-55.3223 147.021-40.332C147.021-25.3906 134.717-13.2324 118.75-13.2324ZM28.0762 41.2598L47.6074 7.4707C48.4863 5.95703 48.0957 4.44336 46.7285 3.66211C45.4102 2.92969 43.9453 3.32031 43.0176 4.83398L23.4863 38.6719C22.7051 40.0879 23.0469 41.6504 24.3652 42.4316C25.7324 43.2129 27.2949 42.7246 28.0762 41.2598ZM53.2227 41.2598L72.7539 7.4707C73.6328 5.95703 73.1934 4.44336 71.875 3.66211C70.5566 2.92969 69.0918 3.32031 68.1641 4.83398L48.6328 38.6719C47.8516 40.0879 48.1445 41.6504 49.5117 42.4316C50.8789 43.2129 52.4414 42.7246 53.2227 41.2598ZM78.2715 41.2598L97.8027 7.4707C98.6816 5.95703 98.2422 4.44336 96.9238 3.66211C95.6055 2.92969 94.0918 3.32031 93.2129 4.83398L73.6816 38.6719C72.9004 40.0879 73.1934 41.6504 74.5605 42.4316C75.8789 43.2129 77.4414 42.7246 78.2715 41.2598ZM103.32 41.3086L122.9 7.42188C123.779 5.95703 123.389 4.39453 122.021 3.66211C120.752 2.97852 119.238 3.32031 118.359 4.78516L98.8281 38.623C97.998 40.0879 98.3398 41.6504 99.6582 42.4316C100.928 43.2129 102.539 42.7246 103.32 41.3086Z"/>
  </g>
  <g id="Thin-L" transform="matrix(1 0 0 1 774.611 1556)">
   <path d="M38.623-8.20312L117.969-8.20312C137.354-8.20312 152.344-22.8027 152.344-41.0645C152.344-59.7656 136.67-73.5352 116.26-73.5352C108.398-89.7461 94.9219-100.244 75.5859-100.244C53.0273-100.244 34.4727-81.6895 32.5195-58.252C20.752-55.1758 11.2793-45.9961 11.2793-32.9102C11.2793-19.3848 21.3379-8.20312 38.623-8.20312ZM38.623-11.9629C23.5352-11.9629 15.0391-21.4355 15.0391-32.8613C15.0391-43.3594 22.2168-51.5625 33.5938-54.541C35.5957-55.0781 36.2305-55.8594 36.3281-57.5684C37.5488-79.0039 55.4688-96.4844 75.5859-96.4844C93.3594-96.4844 105.811-86.4258 112.646-72.168C113.525-70.3125 114.6-69.7266 116.748-69.7266C134.912-69.7266 148.535-57.0312 148.535-40.918C148.535-25 135.156-11.9629 118.018-11.9629ZM26.9043 40.2832L47.2168 5.17578C47.9004 4.00391 47.6074 2.97852 46.6797 2.44141C45.8496 1.95312 44.8242 2.24609 44.1406 3.36914L23.8281 38.5254C23.2422 39.6484 23.4375 40.6738 24.3164 41.2109C25.2441 41.748 26.2695 41.4062 26.9043 40.2832ZM52.0508 40.2832L72.3633 5.17578C73.0469 4.00391 72.7539 2.97852 71.875 2.44141C70.9961 1.95312 70.0195 2.24609 69.2871 3.36914L49.0234 38.5254C48.3887 39.6484 48.584 40.6738 49.5117 41.2109C50.4395 41.748 51.4648 41.4062 52.0508 40.2832ZM77.0996 40.2832L97.3633 5.17578C98.0957 4.00391 97.8027 2.97852 96.875 2.44141C96.0449 1.95312 95.0195 2.24609 94.3359 3.36914L74.0234 38.5254C73.3887 39.6484 73.584 40.6738 74.5117 41.2109C75.4395 41.748 76.4648 41.4062 77.0996 40.2832ZM102.246 40.2832L122.559 5.12695C123.242 4.00391 122.949 2.97852 122.021 2.44141C121.191 2.00195 120.166 2.24609 119.482 3.36914L99.1699 38.5254C98.584 39.6484 98.7793 40.6738 99.6582 41.2109C100.586 41.748 101.611 41.4062 102.246 40.2832Z"/>
  </g>
  <g id="Ultralight-L" transform="matrix(1 0 0 1 478.217 1556)">
   <path d="M38.1348-8.93555L117.725-8.93555C136.816-8.93555 151.709-23.291 151.709-41.3574C151.709-59.7168 136.182-73.291 116.016-73.291C108.154-89.6484 94.9219-100.244 75.3418-100.244C53.0273-100.244 34.7168-81.6895 32.8125-58.252C20.9473-55.2246 11.2793-46.2402 11.2793-33.1543C11.2793-19.9219 21.1426-8.93555 38.1348-8.93555ZM38.1348-11.3281C22.5586-11.3281 13.6719-21.2891 13.6719-33.1543C13.6719-44.3359 21.4355-52.832 32.9102-55.8594C34.6191-56.2988 35.1074-56.9336 35.1562-58.1543C36.377-79.834 54.7852-97.8516 75.3418-97.8516C93.8965-97.8516 106.641-87.3535 113.525-72.998C114.258-71.4355 115.137-70.8984 116.943-70.8984C135.01-70.8984 149.316-57.9102 149.316-41.2109C149.316-24.8047 135.4-11.3281 117.676-11.3281ZM101.66 39.7461L122.363 3.95508C122.949 3.02734 122.754 2.24609 122.021 1.80664C121.436 1.46484 120.654 1.70898 120.068 2.63672L99.3652 38.4277C98.877 39.4043 98.9746 40.1855 99.6582 40.5762C100.391 41.0156 101.123 40.7227 101.66 39.7461ZM26.2695 39.7461L46.9727 3.95508C47.5586 3.02734 47.3633 2.24609 46.6797 1.80664C46.0449 1.46484 45.3125 1.70898 44.7266 2.63672L24.0234 38.4277C23.4863 39.4043 23.6328 40.1855 24.3164 40.5762C25 41.0156 25.7812 40.7227 26.2695 39.7461ZM51.4648 39.7461L72.168 3.95508C72.7539 3.02734 72.5586 2.24609 71.8262 1.80664C71.2402 1.46484 70.459 1.70898 69.873 2.63672L49.1699 38.4277C48.6816 39.4043 48.7793 40.1855 49.5117 40.5762C50.1953 41.0156 50.9277 40.7227 51.4648 39.7461ZM76.4648 39.7461L97.168 3.95508C97.7539 3.02734 97.5586 2.24609 96.875 1.80664C96.2402 1.46484 95.459 1.70898 94.873 2.63672L74.1699 38.4277C73.6816 39.4043 73.7793 40.1855 74.5117 40.5762C75.1953 41.0156 75.9277 40.7227 76.4648 39.7461Z"/>
  </g>
  <g id="Black-M" transform="matrix(1 0 0 1 2864.04 1126)">
   <path d="M36.084-8.00781L98.1934-8.00781C116.162-8.00781 129.98-21.7773 129.98-39.4043C129.98-57.0801 116.602-71.0938 98.6816-71.0938C93.2129-81.543 83.0566-90.5762 64.6484-90.5762C44.1406-90.5762 28.7598-76.2695 25.7324-57.8125C16.0645-54.248 8.74023-45.752 8.74023-34.0332C8.74023-19.2871 19.9707-8.00781 36.084-8.00781ZM36.7188-23.877C28.5645-23.877 24.6094-27.9785 24.6094-33.7891C24.6094-39.3555 28.2227-43.0664 35.6934-45.0195C39.0625-45.8984 39.8926-47.3633 40.4297-50.7324C43.2129-67.1387 52.5879-74.7559 64.6484-74.7559C73.6328-74.7559 81.3477-69.5312 86.7676-59.6191C88.2812-56.8848 89.8438-55.8594 93.2617-55.8594C107.91-55.8594 114.111-48.6328 114.111-39.0625C114.111-30.4688 107.812-23.877 97.5098-23.877ZM89.0625 32.9102L103.174 8.64258C104.346 6.5918 103.857 3.90625 101.66 2.63672C99.4629 1.36719 97.0215 2.29492 95.8008 4.49219L81.6895 28.7109C80.5176 30.7617 80.957 33.3984 83.1543 34.668C85.3516 35.9375 87.8906 34.9609 89.0625 32.9102ZM50.1953 32.9102L64.2578 8.64258C65.4785 6.5918 64.9902 3.90625 62.793 2.63672C60.5957 1.41602 58.1543 2.29492 56.8848 4.44336L42.8223 28.7109C41.6016 30.7617 42.041 33.3984 44.2383 34.668C46.4355 35.9375 49.0234 34.9609 50.1953 32.9102ZM30.6152 32.959L44.7266 8.74023C45.8984 6.64062 45.4102 3.95508 43.2129 2.73438C41.0156 1.46484 38.5742 2.34375 37.3047 4.54102L23.2422 28.7598C22.0215 30.8594 22.4609 33.4961 24.6582 34.7168C26.8555 35.9863 29.4434 35.0586 30.6152 32.959ZM69.5312 32.959L83.5938 8.74023C84.7656 6.64062 84.2773 3.95508 82.0801 2.73438C79.8828 1.46484 77.4414 2.34375 76.2207 4.54102L62.1094 28.7598C60.9375 30.8594 61.377 33.4961 63.5742 34.7168C65.7715 35.9863 68.3105 35.0586 69.5312 32.959Z"/>
  </g>
  <g id="Heavy-M" transform="matrix(1 0 0 1 2568.48 1126)">
   <path d="M35.0586-8.88672L96.7773-8.88672C114.307-8.88672 127.686-22.2168 127.686-39.2578C127.686-56.4453 114.453-69.8242 96.875-69.8242C91.2109-80.6641 80.8105-89.4043 63.4277-89.4043C43.4082-89.4043 28.0762-75.0977 25.3906-56.6895C15.918-53.3691 8.74023-45.0684 8.74023-33.6914C8.74023-19.6777 19.2871-8.88672 35.0586-8.88672ZM35.498-22.8516C26.9531-22.8516 22.7051-27.2949 22.7051-33.4473C22.7051-39.0625 26.2695-43.1641 33.9355-45.166C37.1582-45.9961 37.9883-47.4121 38.4766-50.6348C40.8691-66.9434 50.8789-75.4395 63.4277-75.4395C72.9004-75.4395 80.8105-70.0195 86.2305-59.9121C87.6465-57.2754 89.1602-56.2988 92.4316-56.2988C107.08-56.2988 113.721-48.7305 113.721-38.9648C113.721-29.8828 106.885-22.8516 96.3867-22.8516ZM48.3887 31.0547L62.5 6.68945C63.623 4.73633 63.1348 2.29492 61.1328 1.12305C59.082-0.0488281 56.8359 0.732422 55.6641 2.7832L41.5039 27.1973C40.4297 29.1016 40.8203 31.4941 42.8711 32.666C44.873 33.8379 47.2656 32.959 48.3887 31.0547ZM87.207 31.0547L101.416 6.64062C102.49 4.73633 102.002 2.24609 100 1.12305C97.998 0 95.7031 0.732422 94.5801 2.7832L80.4199 27.1484C79.2969 29.1016 79.7363 31.4941 81.7383 32.666C83.7402 33.8379 86.1328 32.959 87.207 31.0547ZM28.8086 31.1035L42.9688 6.73828C44.0918 4.78516 43.6035 2.34375 41.5527 1.17188C39.5508 0 37.3047 0.78125 36.1328 2.83203L21.9727 27.2461C20.8496 29.1504 21.2891 31.543 23.3398 32.7148C25.3418 33.8867 27.7344 33.0078 28.8086 31.1035ZM67.7246 31.1035L81.8359 6.73828C82.959 4.78516 82.4707 2.34375 80.4688 1.17188C78.418 0 76.1719 0.78125 75 2.83203L60.8398 27.2461C59.7656 29.1504 60.2051 31.543 62.207 32.7148C64.209 33.8867 66.6016 33.0078 67.7246 31.1035Z"/>
  </g>
  <g id="Bold-M" transform="matrix(1 0 0 1 2273.06 1126)">
   <path d="M33.8867-9.81445L95.2637-9.81445C112.256-9.81445 125.098-22.7539 125.098-39.1113C125.098-55.7617 112.061-68.457 94.8242-68.457C89.0137-79.6875 78.3203-88.0859 62.0605-88.0859C42.627-88.0859 27.3438-73.7305 25.0488-55.4688C15.7715-52.3926 8.74023-44.2871 8.74023-33.3008C8.74023-20.1172 18.5547-9.81445 33.8867-9.81445ZM34.1309-21.6797C25.0977-21.6797 20.6055-26.5137 20.6055-33.0566C20.6055-38.7695 24.1211-43.2617 31.9824-45.3125C35.0098-46.0938 35.9375-47.5098 36.3281-50.5859C38.2812-66.748 48.9258-76.2695 62.0605-76.2695C72.0215-76.2695 80.2246-70.6543 85.5469-60.3027C86.8652-57.7148 88.3789-56.8359 91.5527-56.8359C106.104-56.8359 113.281-48.8281 113.281-38.8672C113.281-29.248 105.859-21.6797 95.166-21.6797ZM46.3379 29.0039L60.5469 4.44336C61.5723 2.63672 61.084 0.439453 59.2773-0.585938C57.4219-1.66016 55.3711-0.976562 54.2969 0.878906L40.0879 25.4883C39.0625 27.1973 39.502 29.3945 41.3086 30.4199C43.1641 31.4453 45.3125 30.7617 46.3379 29.0039ZM85.1562 29.0039L99.4141 4.39453C100.439 2.63672 99.9512 0.390625 98.1445-0.585938C96.2891-1.61133 94.2383-0.976562 93.2129 0.830078L78.9551 25.4395C77.9297 27.1973 78.3691 29.3945 80.1758 30.4199C81.9824 31.4453 84.1797 30.7617 85.1562 29.0039ZM26.8066 29.0039L41.0156 4.49219C42.041 2.68555 41.5527 0.488281 39.7461-0.585938C37.8906-1.61133 35.8398-0.976562 34.7656 0.927734L20.5566 25.4883C19.5801 27.2461 19.9707 29.3945 21.8262 30.4688C23.6328 31.4941 25.7812 30.7617 26.8066 29.0039ZM65.6738 29.0039L79.9316 4.49219C80.957 2.68555 80.4688 0.488281 78.6133-0.585938C76.8066-1.61133 74.7559-0.976562 73.6816 0.927734L59.4238 25.4883C58.4473 27.2461 58.8379 29.3945 60.6934 30.4688C62.5488 31.4941 64.6973 30.7617 65.6738 29.0039Z"/>
  </g>
  <g id="Semibold-M" transform="matrix(1 0 0 1 1977.23 1126)">
   <path d="M33.1055-10.498L94.1895-10.498C110.791-10.498 123.34-23.1445 123.34-39.0137C123.34-55.2734 110.4-67.4805 93.4082-67.4805C87.5-79.0039 76.5625-87.207 61.084-87.207C42.041-87.207 26.8555-72.8027 24.8047-54.5898C15.6738-51.709 8.74023-43.75 8.74023-33.0078C8.74023-20.459 18.0664-10.498 33.1055-10.498ZM33.2031-20.8984C23.8281-20.8984 19.1406-25.9766 19.1406-32.7637C19.1406-38.5742 22.6074-43.3105 30.6641-45.459C33.5449-46.1914 34.4727-47.5098 34.8145-50.4883C36.4746-66.5527 47.6074-76.8066 61.084-76.8066C71.4355-76.8066 79.7852-71.0449 85.1074-60.5469C86.377-58.0566 87.8418-57.1777 90.918-57.1777C105.42-57.1777 112.939-48.9258 112.939-38.7695C112.939-28.7598 105.176-20.8984 94.2871-20.8984ZM44.9219 27.5879L59.1797 2.92969C60.1562 1.2207 59.668-0.78125 57.959-1.75781C56.25-2.73438 54.3457-2.19727 53.3691-0.439453L39.0625 24.3164C38.1348 25.8789 38.5254 27.9297 40.2832 28.9062C41.9434 29.834 43.9941 29.1992 44.9219 27.5879ZM25.4395 27.5879L39.6973 2.92969C40.6738 1.2207 40.1855-0.78125 38.4766-1.75781C36.7676-2.73438 34.8633-2.14844 33.8379-0.390625L19.5801 24.3164C18.6523 25.9277 19.043 27.9297 20.752 28.9062C22.4609 29.8828 24.4629 29.248 25.4395 27.5879ZM64.3066 27.5879L78.5645 2.92969C79.541 1.2207 79.0527-0.78125 77.3926-1.75781C75.6836-2.73438 73.7305-2.14844 72.7539-0.390625L58.4473 24.3164C57.5684 25.9277 57.959 27.9297 59.668 28.9062C61.3281 29.8828 63.3789 29.248 64.3066 27.5879ZM83.6914 27.5879L98.0469 2.83203C98.9746 1.2207 98.5352-0.878906 96.8262-1.75781C95.166-2.68555 93.2129-2.19727 92.2363-0.439453L77.9785 24.2188C77.002 25.8789 77.4414 27.9297 79.1504 28.9062C80.7617 29.834 82.8125 29.1992 83.6914 27.5879Z"/>
  </g>
  <g id="Medium-M" transform="matrix(1 0 0 1 1681.17 1126)">
   <path d="M32.4707-10.9863L93.3594-10.9863C109.717-10.9863 122.021-23.4375 122.021-38.9648C122.021-54.8828 109.131-66.748 92.3828-66.748C86.377-78.5156 75.293-86.5234 60.4004-86.5234C41.6504-86.5234 26.4648-72.1191 24.6094-53.9551C15.5762-51.1719 8.74023-43.3594 8.74023-32.8125C8.74023-20.6543 17.6758-10.9863 32.4707-10.9863ZM32.5195-20.2637C22.8516-20.2637 18.0176-25.5859 18.0176-32.5684C18.0176-38.3789 21.4844-43.3594 29.6387-45.5078C32.4707-46.2891 33.3984-47.5586 33.6426-50.4395C35.1074-66.4551 46.582-77.2461 60.4004-77.2461C70.9961-77.2461 79.4922-71.3379 84.7656-60.6934C85.9863-58.252 87.4512-57.4219 90.4297-57.4219C104.932-57.4219 112.744-48.9746 112.744-38.7207C112.744-28.4668 104.639-20.2637 93.6523-20.2637ZM43.8477 26.4648L58.1543 1.75781C59.082 0.0976562 58.5938-1.75781 57.0312-2.68555C55.3711-3.61328 53.6133-3.07617 52.6367-1.41602L38.3301 23.3887C37.4512 24.9023 37.8418 26.8066 39.4531 27.7344C41.0645 28.6133 42.9688 28.0273 43.8477 26.4648ZM24.3652 26.5137L38.6719 1.75781C39.5996 0.0976562 39.1113-1.70898 37.5488-2.63672C35.9375-3.56445 34.1309-3.07617 33.1543-1.41602L18.8477 23.3887C17.9688 24.9512 18.3594 26.8066 19.9707 27.7344C21.582 28.6133 23.4863 28.0762 24.3652 26.5137ZM63.2812 26.5137L77.5391 1.75781C78.4668 0.0976562 78.0273-1.70898 76.416-2.63672C74.8047-3.56445 72.998-3.07617 72.0703-1.41602L57.7148 23.3887C56.8848 24.9512 57.2266 26.8066 58.8867 27.7344C60.4492 28.6133 62.3535 28.0762 63.2812 26.5137ZM82.6172 26.5137L96.9727 1.66016C97.9004 0.0976562 97.4609-1.80664 95.8496-2.68555C94.2871-3.51562 92.4316-3.07617 91.5527-1.46484L77.2461 23.3398C76.3184 24.9023 76.709 26.8066 78.3203 27.7344C79.834 28.6133 81.7871 28.0273 82.6172 26.5137Z"/>
  </g>
  <g id="Regular-M" transform="matrix(1 0 0 1 1385.34 1126)">
   <path d="M31.6895-11.6211L92.2852-11.6211C108.301-11.6211 120.264-23.7793 120.264-38.8672C120.264-54.3945 107.52-65.7715 90.9668-65.7715C84.8633-77.832 73.5352-85.5957 59.4727-85.5957C41.0645-85.5957 25.9277-71.2402 24.3652-53.0762C15.4785-50.5371 8.74023-42.8223 8.74023-32.5195C8.74023-20.9961 17.1387-11.6211 31.6895-11.6211ZM31.5918-19.4824C21.582-19.4824 16.5527-25.0488 16.5527-32.2754C16.5527-38.1836 19.9707-43.457 28.2715-45.6543C31.0059-46.3379 31.9824-47.6074 32.1777-50.3906C33.3008-66.3086 45.3125-77.7832 59.4727-77.7832C70.4102-77.7832 79.0527-71.7773 84.3262-60.9375C85.498-58.5938 86.9141-57.7637 89.7949-57.7637C104.248-57.7637 112.402-49.0234 112.402-38.623C112.402-27.9785 103.906-19.4824 92.7734-19.4824ZM22.998 25.0977L37.3047 0.244141C38.2324-1.31836 37.7441-2.97852 36.2793-3.85742C34.8145-4.6875 33.1543-4.24805 32.2266-2.73438L17.8711 22.2168C17.0898 23.6328 17.4805 25.3418 18.9453 26.2207C20.4102 27.002 22.168 26.5137 22.998 25.0977ZM42.4316 25.0977L56.7871 0.244141C57.666-1.31836 57.1777-2.97852 55.7617-3.85742C54.248-4.6875 52.5879-4.24805 51.709-2.73438L37.3047 22.2168C36.5234 23.6328 36.9141 25.3418 38.4277 26.2207C39.8926 27.002 41.6504 26.5137 42.4316 25.0977ZM61.8652 25.0977L76.2207 0.244141C77.0996-1.31836 76.6113-2.97852 75.1953-3.85742C73.6816-4.6875 72.0215-4.24805 71.1426-2.73438L56.7383 22.2168C55.957 23.6328 56.3477 25.3418 57.8613 26.2207C59.2773 27.002 61.084 26.5137 61.8652 25.0977ZM81.2012 25.1465L95.6055 0.146484C96.4844-1.31836 96.0449-3.07617 94.5801-3.85742C93.1641-4.58984 91.4551-4.24805 90.5762-2.7832L76.2695 22.1191C75.3906 23.6328 75.7812 25.3418 77.2461 26.2207C78.6133 27.002 80.4199 26.5137 81.2012 25.1465Z"/>
  </g>
  <g id="Light-M" transform="matrix(1 0 0 1 1089.05 1126)">
   <path d="M31.0547-12.6465L91.9434-12.6465C107.617-12.6465 119.434-24.4629 119.434-39.209C119.434-54.3457 106.885-65.4297 90.6738-65.4297C84.5703-77.7344 73.5352-85.5957 59.1309-85.5957C41.0645-85.5957 26.2207-71.2402 24.6582-53.0762C15.7227-50.5859 8.74023-43.1152 8.74023-32.8613C8.74023-21.7285 16.9434-12.6465 31.0547-12.6465ZM30.957-18.6035C20.3125-18.6035 14.6973-24.8535 14.6973-32.7148C14.6973-39.4531 18.9453-45.1172 27.4414-47.3633C29.6875-47.9492 30.4688-48.9746 30.6641-51.1719C31.7383-67.3828 44.4336-79.6387 59.1309-79.6387C71.1426-79.6387 80.1758-72.9492 85.4492-62.0605C86.4258-60.0098 87.6465-59.3262 90.0391-59.3262C104.346-59.3262 113.428-50.1953 113.428-39.0137C113.428-27.7344 104.248-18.6035 92.2852-18.6035ZM22.168 24.4141L37.0605-1.36719C37.793-2.63672 37.4023-3.95508 36.2305-4.6875C35.0586-5.32227 33.7402-4.98047 33.0078-3.71094L18.1152 22.1191C17.4316 23.291 17.7246 24.6582 18.9453 25.3906C20.1172 26.0254 21.4844 25.6348 22.168 24.4141ZM41.6504 24.4141L56.543-1.36719C57.2754-2.63672 56.8848-3.95508 55.7129-4.6875C54.541-5.32227 53.2227-4.98047 52.4902-3.71094L37.5488 22.1191C36.9141 23.291 37.207 24.6582 38.3789 25.3906C39.5508 26.0254 40.9668 25.6348 41.6504 24.4141ZM61.084 24.4141L75.9277-1.36719C76.709-2.63672 76.3184-3.95508 75.1465-4.6875C73.9746-5.32227 72.6562-4.98047 71.875-3.71094L56.9824 22.1191C56.3477 23.291 56.5918 24.6582 57.8125 25.3906C58.9844 26.0254 60.4004 25.6348 61.084 24.4141ZM80.4688 24.4141L95.3613-1.41602C96.0938-2.63672 95.752-4.05273 94.5801-4.6875C93.457-5.27344 92.0898-4.98047 91.3574-3.71094L76.5137 22.0703C75.7812 23.291 76.0742 24.6582 77.2461 25.3906C78.3691 26.0254 79.7852 25.6348 80.4688 24.4141Z"/>
  </g>
  <g id="Thin-M" transform="matrix(1 0 0 1 792.897 1126)">
   <path d="M30.1758-13.9648L91.5039-13.9648C106.641-13.9648 118.311-25.3418 118.311-39.6484C118.311-54.248 106.104-64.9902 90.2344-64.9902C84.1309-77.5391 73.5352-85.5957 58.6914-85.5957C41.0645-85.5957 26.6113-71.2402 25.0977-53.0762C16.0156-50.6836 8.74023-43.5059 8.74023-33.3008C8.74023-22.7051 16.6016-13.9648 30.1758-13.9648ZM30.127-17.4805C18.6523-17.4805 12.2559-24.6094 12.2559-33.252C12.2559-41.1133 17.5781-47.3633 26.2695-49.6582C27.9785-50.0977 28.5645-50.7812 28.6133-52.2461C29.5898-68.7988 43.2617-82.0801 58.6914-82.0801C72.1191-82.0801 81.6406-74.5117 86.9629-63.4766C87.6953-61.9629 88.5742-61.4258 90.4297-61.4258C104.541-61.4258 114.795-51.7578 114.795-39.502C114.795-27.3926 104.639-17.4805 91.6504-17.4805ZM21.0938 23.4863L36.6699-3.41797C37.2559-4.39453 37.0117-5.27344 36.2305-5.76172C35.4492-6.20117 34.5703-5.95703 33.9844-4.98047L18.4082 21.9727C17.9199 22.9004 18.0664 23.7793 18.8965 24.2676C19.6777 24.7559 20.6055 24.4629 21.0938 23.4863ZM40.625 23.4863L56.1523-3.41797C56.7383-4.39453 56.4941-5.27344 55.7129-5.76172C54.9316-6.20117 54.0527-5.95703 53.4668-4.98047L37.8906 21.9727C37.4023 22.9004 37.5488 23.7793 38.3789 24.2676C39.1602 24.7559 40.0879 24.4629 40.625 23.4863ZM60.0098 23.4863L75.5859-3.41797C76.123-4.39453 75.8789-5.27344 75.0977-5.76172C74.3164-6.20117 73.4375-5.95703 72.8516-4.98047L57.2754 21.9727C56.7871 22.9004 56.9824 23.7793 57.7637 24.2676C58.5938 24.7559 59.4727 24.4629 60.0098 23.4863ZM79.4434 23.4863L95.0684-3.4668C95.6055-4.39453 95.3613-5.32227 94.5801-5.76172C93.8477-6.15234 92.9199-5.95703 92.3828-4.98047L76.8066 21.9238C76.2695 22.9004 76.4648 23.7793 77.2461 24.2676C78.0273 24.7559 78.9551 24.4629 79.4434 23.4863Z"/>
  </g>
  <g id="Ultralight-M" transform="matrix(1 0 0 1 496.454 1126)">
   <path d="M29.6875-14.5996L91.3086-14.5996C106.152-14.5996 117.773-25.8301 117.773-39.8926C117.773-54.1992 105.664-64.7949 89.9902-64.7949C83.8867-77.4414 73.5352-85.5957 58.4473-85.5957C41.0645-85.5957 26.8066-71.2402 25.3418-53.0762C16.1621-50.7324 8.74023-43.7012 8.74023-33.5449C8.74023-23.1934 16.4551-14.5996 29.6875-14.5996ZM29.6875-16.8945C17.7734-16.8945 10.9863-24.4629 10.9863-33.5449C10.9863-41.9922 16.8457-48.4863 25.6836-50.8301C27.0996-51.1719 27.5391-51.709 27.5879-52.832C28.5156-69.5312 42.6758-83.3496 58.4473-83.3496C72.6074-83.3496 82.4219-75.3418 87.6953-64.2578C88.3301-62.9395 89.0625-62.5 90.5762-62.5C104.59-62.5 115.479-52.5391 115.479-39.7461C115.479-27.1973 104.883-16.8945 91.3086-16.8945ZM78.9551 23.0469L94.873-4.49219C95.3613-5.27344 95.2148-5.95703 94.5801-6.34766C94.043-6.64062 93.3594-6.44531 92.8711-5.66406L76.9531 21.875C76.5137 22.7051 76.6602 23.3398 77.2461 23.7305C77.8809 24.0723 78.5156 23.8281 78.9551 23.0469ZM20.5566 23.0469L36.4746-4.49219C36.9629-5.27344 36.8164-5.95703 36.1816-6.34766C35.6445-6.64062 34.9609-6.44531 34.4727-5.66406L18.5547 21.875C18.1152 22.7051 18.2617 23.3398 18.8477 23.7305C19.4824 24.0723 20.1172 23.8281 20.5566 23.0469ZM40.0879 23.0469L56.0059-4.49219C56.4941-5.27344 56.2988-5.95703 55.7129-6.34766C55.127-6.64062 54.4922-6.44531 54.0039-5.66406L38.0859 21.875C37.6465 22.7051 37.7441 23.3398 38.3789 23.7305C38.9648 24.0723 39.6484 23.8281 40.0879 23.0469ZM59.4727 23.0469L75.3906-4.49219C75.8789-5.27344 75.6836-5.95703 75.0977-6.34766C74.5117-6.64062 73.877-6.44531 73.3887-5.66406L57.4707 21.875C57.0312 22.7051 57.1289 23.3398 57.7637 23.7305C58.3496 24.0723 59.0332 23.8281 59.4727 23.0469Z"/>
  </g>
  <g id="Black-S" transform="matrix(1 0 0 1 2879.15 696)">
   <path d="M28.1738-13.9648L76.8066-13.9648C90.8691-13.9648 101.66-24.707 101.66-38.4766C101.66-52.2949 91.1621-63.2324 77.1484-63.2324C72.8516-71.4355 64.8926-78.5156 50.5371-78.5156C34.5215-78.5156 22.4609-67.2852 20.1172-52.832C12.5488-50.0488 6.83594-43.4082 6.83594-34.2773C6.83594-22.7539 15.5762-13.9648 28.1738-13.9648ZM28.6621-26.2695C22.2656-26.2695 19.1406-29.4922 19.1406-34.082C19.1406-38.4277 21.9727-41.3574 27.832-42.8711C30.4688-43.5547 31.1035-44.7266 31.543-47.3633C33.6914-60.2051 41.0645-66.2109 50.5371-66.2109C57.6172-66.2109 63.6719-62.1094 67.9199-54.3457C69.0918-52.1973 70.3125-51.416 72.998-51.416C84.4727-51.416 89.3555-45.7031 89.3555-38.2324C89.3555-31.4453 84.375-26.2695 76.3184-26.2695ZM39.1602 18.0176L50.1953-0.976562C51.123-2.58789 50.7324-4.6875 49.0234-5.66406C47.3145-6.64062 45.4102-5.95703 44.4336-4.24805L33.3984 14.7461C32.4707 16.3574 32.8125 18.4082 34.5215 19.3848C36.2305 20.3613 38.2324 19.6289 39.1602 18.0176ZM69.6289 18.0176L80.6641-0.976562C81.5918-2.58789 81.2012-4.6875 79.4922-5.66406C77.7832-6.64062 75.8789-5.95703 74.9023-4.24805L63.8672 14.7461C62.9395 16.3574 63.2812 18.4082 64.9902 19.3848C66.6992 20.3613 68.7012 19.6289 69.6289 18.0176ZM23.8281 18.0664L34.8633-0.927734C35.791-2.53906 35.4004-4.63867 33.6914-5.61523C31.9824-6.5918 30.0781-5.9082 29.1016-4.19922L18.0664 14.7949C17.1387 16.4062 17.4805 18.457 19.1895 19.4336C20.8984 20.4102 22.9004 19.6777 23.8281 18.0664ZM54.2969 18.0664L65.332-0.927734C66.2598-2.53906 65.8691-4.63867 64.1602-5.61523C62.4512-6.5918 60.5469-5.9082 59.5703-4.19922L48.5352 14.7949C47.6074 16.4062 47.9492 18.457 49.6582 19.4336C51.3672 20.4102 53.3691 19.6777 54.2969 18.0664Z"/>
  </g>
  <g id="Heavy-S" transform="matrix(1 0 0 1 2583.27 696)">
   <path d="M27.4414-14.502L75.7812-14.502C89.5508-14.502 100-25 100-38.3301C100-51.8066 89.5996-62.3047 75.7812-62.3047C71.3867-70.8008 63.1836-77.6367 49.6582-77.6367C33.9844-77.6367 21.9238-66.3574 19.8242-52.002C12.4023-49.3652 6.83594-42.8711 6.83594-33.9844C6.83594-22.998 15.0879-14.502 27.4414-14.502ZM27.832-25.5859C21.1426-25.5859 17.9199-29.0039 17.9199-33.7402C17.9199-38.0859 20.6055-41.2109 26.6113-42.7734C29.1504-43.457 29.834-44.6289 30.2246-47.2168C32.0801-59.9121 39.8438-66.5527 49.6582-66.5527C56.9336-66.5527 63.1348-62.4023 67.334-54.4434C68.457-52.3438 69.7266-51.5625 72.3633-51.5625C83.7891-51.5625 88.916-45.6543 88.916-38.0859C88.916-31.0547 83.6426-25.5859 75.5371-25.5859ZM37.8418 16.6992L48.877-2.34375C49.7559-3.85742 49.3652-5.81055 47.7539-6.73828C46.1426-7.66602 44.3359-7.03125 43.4082-5.41992L32.373 13.5742C31.4941 15.0879 31.8359 17.041 33.4961 17.9688C35.0586 18.8477 36.9629 18.2129 37.8418 16.6992ZM68.3105 16.6992L79.3457-2.34375C80.2246-3.85742 79.834-5.85938 78.2227-6.73828C76.6113-7.66602 74.8047-7.03125 73.877-5.46875L62.8418 13.5742C61.9629 15.0879 62.3047 17.041 63.916 17.9688C65.5273 18.8477 67.4316 18.2129 68.3105 16.6992ZM22.5586 16.6992L33.5449-2.29492C34.4727-3.80859 34.0332-5.76172 32.4219-6.68945C30.8105-7.61719 29.0527-7.03125 28.125-5.41992L17.0898 13.623C16.2109 15.1367 16.5527 17.041 18.1641 17.9688C19.7754 18.8965 21.6797 18.2617 22.5586 16.6992ZM53.0273 16.6992L64.0137-2.29492C64.9414-3.80859 64.502-5.76172 62.8906-6.68945C61.2793-7.61719 59.5215-7.03125 58.5938-5.41992L47.5586 13.623C46.6797 15.1367 47.0215 17.041 48.6328 17.9688C50.2441 18.8965 52.1484 18.2617 53.0273 16.6992Z"/>
  </g>
  <g id="Bold-S" transform="matrix(1 0 0 1 2287.49 696)">
   <path d="M26.6602-15.1367L74.6094-15.1367C88.0371-15.1367 98.1445-25.3418 98.1445-38.1836C98.1445-51.2695 87.8418-61.2793 74.2676-61.2793C69.7266-70.0684 61.2793-76.6113 48.6328-76.6113C33.3496-76.6113 21.2891-65.3809 19.5312-51.0254C12.2559-48.6328 6.83594-42.2363 6.83594-33.6426C6.83594-23.2422 14.5508-15.1367 26.6602-15.1367ZM26.8555-24.8047C19.873-24.8047 16.5039-28.418 16.5039-33.3984C16.5039-37.6953 19.043-41.1133 25.1953-42.7246C27.6855-43.3594 28.418-44.4824 28.7598-47.0215C30.2734-59.6191 38.4766-66.9434 48.6328-66.9434C56.2012-66.9434 62.5488-62.6953 66.6992-54.5898C67.8223-52.4902 69.043-51.7578 71.582-51.7578C83.0566-51.7578 88.4766-45.6055 88.4766-37.9883C88.4766-30.5664 82.8125-24.8047 74.6094-24.8047ZM36.377 15.1855L47.4121-3.85742C48.2422-5.32227 47.8516-7.08008 46.3379-7.95898C44.8242-8.83789 43.1641-8.30078 42.2852-6.78711L31.25 12.3047C30.4688 13.6719 30.7617 15.4785 32.2754 16.3574C33.7891 17.1875 35.5469 16.6016 36.377 15.1855ZM66.7969 15.1855L77.832-3.85742C78.6621-5.32227 78.2715-7.12891 76.8066-7.95898C75.293-8.78906 73.584-8.30078 72.7539-6.78711L61.7188 12.2559C60.8887 13.6719 61.2305 15.4785 62.7441 16.3574C64.209 17.1875 66.0156 16.6016 66.7969 15.1855ZM21.0938 15.1855L32.1289-3.80859C32.959-5.27344 32.5684-7.08008 31.0547-7.91016C29.541-8.78906 27.832-8.25195 27.002-6.73828L15.9668 12.3047C15.1855 13.7207 15.4785 15.4785 16.9922 16.3574C18.5059 17.1875 20.2637 16.6504 21.0938 15.1855ZM51.5625 15.1855L62.5977-3.80859C63.4277-5.27344 63.0371-7.08008 61.5234-7.91016C60.0098-8.78906 58.3008-8.25195 57.4707-6.73828L46.4355 12.3047C45.6543 13.7207 45.9473 15.4785 47.4609 16.3574C48.9746 17.1875 50.7324 16.6504 51.5625 15.1855Z"/>
  </g>
  <g id="Semibold-S" transform="matrix(1 0 0 1 1991.44 696)">
   <path d="M26.123-15.5273L73.8281-15.5273C87.0117-15.5273 96.8262-25.5371 96.8262-38.0859C96.8262-50.9277 86.6211-60.5469 73.2422-60.5469C68.6035-69.5801 59.9121-75.9277 47.9492-75.9277C32.9102-75.9277 20.8984-64.6484 19.2871-50.3906C12.1582-48.0957 6.83594-41.7969 6.83594-33.3984C6.83594-23.3887 14.209-15.5273 26.123-15.5273ZM26.2207-24.2676C19.043-24.2676 15.5273-28.0273 15.5273-33.1543C15.5273-37.4023 18.0176-41.0156 24.2676-42.6758C26.6602-43.3105 27.4414-44.3848 27.7344-46.9238C29.0039-59.4238 37.5488-67.1875 47.9492-67.1875C55.7129-67.1875 62.1094-62.8906 66.2598-54.6875C67.334-52.6367 68.5547-51.9043 71.0938-51.9043C82.5195-51.9043 88.1348-45.5566 88.1348-37.8906C88.1348-30.2734 82.2266-24.2676 74.0234-24.2676ZM35.4004 14.1602L46.3867-4.88281C47.168-6.29883 46.7773-7.95898 45.3613-8.78906C43.8965-9.61914 42.334-9.13086 41.5039-7.66602L30.4688 11.4258C29.7363 12.7441 30.0293 14.4043 31.4941 15.2344C32.9102 16.0156 34.6191 15.5273 35.4004 14.1602ZM20.1172 14.1602L31.1035-4.83398C31.9336-6.29883 31.4941-7.95898 30.0781-8.78906C28.6621-9.57031 27.0508-9.13086 26.2207-7.66602L15.1855 11.4258C14.4531 12.7441 14.7949 14.4043 16.2109 15.2344C17.627 16.0645 19.3359 15.5273 20.1172 14.1602ZM50.5859 14.1602L61.5723-4.83398C62.4023-6.29883 61.9629-7.95898 60.5469-8.78906C59.1309-9.57031 57.5195-9.13086 56.6895-7.66602L45.6543 11.4258C44.9219 12.7441 45.2637 14.4043 46.6797 15.2344C48.0957 16.0645 49.8047 15.5273 50.5859 14.1602ZM65.7715 14.1602L76.8066-4.93164C77.5879-6.29883 77.1973-8.00781 75.7812-8.78906C74.3652-9.52148 72.7539-9.13086 71.9727-7.71484L60.9375 11.3281C60.1562 12.7441 60.498 14.4043 61.9141 15.2344C63.2812 16.0156 64.9902 15.5273 65.7715 14.1602Z"/>
  </g>
  <g id="Medium-S" transform="matrix(1 0 0 1 1695.21 696)">
   <path d="M25.6836-15.8691L73.2422-15.8691C86.2305-15.8691 95.8496-25.7324 95.8496-37.9883C95.8496-50.6348 85.7422-60.0098 72.4609-60.0098C67.7734-69.1895 58.9355-75.3906 47.4121-75.3906C32.6172-75.3906 20.5566-64.1113 19.1406-49.8535C12.1094-47.7051 6.83594-41.5039 6.83594-33.2031C6.83594-23.5352 13.916-15.8691 25.6836-15.8691ZM25.6836-23.8281C18.3594-23.8281 14.8438-27.7344 14.8438-32.959C14.8438-37.207 17.1875-40.918 23.5352-42.627C25.8789-43.2617 26.709-44.3359 26.9531-46.8262C28.0762-59.2773 36.8164-67.4316 47.4121-67.4316C55.3223-67.4316 61.8164-63.0859 65.918-54.7852C66.9922-52.6855 68.2129-52.002 70.7031-52.002C82.1289-52.002 87.8906-45.5078 87.8906-37.793C87.8906-30.0293 81.8359-23.8281 73.5352-23.8281ZM34.6191 13.3789L45.6055-5.66406C46.3867-7.03125 45.9473-8.59375 44.6289-9.42383C43.2129-10.2051 41.6992-9.76562 40.8691-8.39844L29.8828 10.7422C29.1504 12.0117 29.4922 13.623 30.8594 14.4043C32.2266 15.1367 33.8867 14.6484 34.6191 13.3789ZM19.3848 13.3789L30.3223-5.66406C31.1523-7.03125 30.7129-8.59375 29.3457-9.42383C27.9785-10.2051 26.416-9.76562 25.6348-8.34961L14.5996 10.7422C13.916 12.0117 14.209 13.623 15.625 14.4043C16.9922 15.1367 18.6035 14.6973 19.3848 13.3789ZM49.8535 13.3789L60.791-5.66406C61.6211-7.03125 61.1816-8.59375 59.8145-9.42383C58.4473-10.2051 56.8848-9.76562 56.1035-8.34961L45.0684 10.7422C44.3848 12.0117 44.6777 13.623 46.0938 14.4043C47.4609 15.1367 49.0723 14.6973 49.8535 13.3789ZM64.9902 13.4277L76.0254-5.71289C76.7578-7.03125 76.416-8.69141 75.0488-9.42383C73.6816-10.1074 72.1191-9.76562 71.3379-8.39844L60.3516 10.6445C59.5703 12.0117 59.9609 13.623 61.3281 14.4043C62.5977 15.1367 64.2578 14.6484 64.9902 13.4277Z"/>
  </g>
  <g id="Regular-S" transform="matrix(1 0 0 1 1399.14 696)">
   <path d="M25.1465-16.2598L72.4609-16.2598C85.2051-16.2598 94.5801-25.9277 94.5801-37.8906C94.5801-50.293 84.5215-59.3262 71.4355-59.3262C66.6504-68.7012 57.6172-74.707 46.7285-74.707C32.1777-74.707 20.166-63.4277 18.8965-49.2188C12.0117-47.168 6.83594-41.0645 6.83594-32.959C6.83594-23.6816 13.5254-16.2598 25.1465-16.2598ZM25.0488-23.291C17.5293-23.291 13.8672-27.3438 13.8672-32.7148C13.8672-36.9141 16.1621-40.8203 22.5586-42.5293C24.9023-43.1641 25.7324-44.2383 25.9277-46.7285C26.8555-59.0332 35.8887-67.6758 46.7285-67.6758C54.7852-67.6758 61.4258-63.2812 65.5273-54.834C66.5039-52.832 67.7246-52.0996 70.2148-52.0996C81.5918-52.0996 87.5488-45.5078 87.5488-37.6953C87.5488-29.6875 81.25-23.291 72.9004-23.291ZM18.3594 12.3535L29.3457-6.68945C30.127-8.00781 29.6875-9.47266 28.418-10.2539C27.0996-10.9863 25.6348-10.5957 24.8535-9.27734L13.8672 9.86328C13.1836 11.0352 13.5254 12.5488 14.8438 13.2812C16.1133 14.0137 17.6758 13.5742 18.3594 12.3535ZM33.5938 12.3535L44.5801-6.68945C45.3613-8.00781 44.9219-9.47266 43.6523-10.2539C42.334-10.9863 40.8691-10.5957 40.0879-9.27734L29.1016 9.86328C28.418 11.0352 28.7598 12.5488 30.0781 13.2812C31.3477 14.0137 32.9102 13.5742 33.5938 12.3535ZM48.8281 12.3535L59.8145-6.68945C60.5957-8.00781 60.1562-9.47266 58.8867-10.2539C57.5684-10.9863 56.1035-10.5957 55.3223-9.27734L44.3359 9.86328C43.6523 11.0352 43.9941 12.5488 45.3125 13.2812C46.582 14.0137 48.1445 13.5742 48.8281 12.3535ZM63.9648 12.4023L75-6.78711C75.7324-8.00781 75.3418-9.57031 74.0723-10.2539C72.8027-10.8887 71.2891-10.5957 70.5566-9.32617L59.6191 9.76562C58.8379 11.0352 59.2285 12.5488 60.498 13.2812C61.6699 14.0137 63.2812 13.5742 63.9648 12.4023Z"/>
  </g>
  <g id="Light-S" transform="matrix(1 0 0 1 1102.79 696)">
   <path d="M24.5605-17.1387L72.168-17.1387C84.5703-17.1387 93.8477-26.5137 93.8477-38.1836C93.8477-50.2441 83.9844-59.0332 71.1426-59.0332C66.3574-68.5547 57.6172-74.707 46.4355-74.707C32.1777-74.707 20.4102-63.4277 19.1895-49.2188C12.207-47.2168 6.83594-41.3086 6.83594-33.252C6.83594-24.3652 13.3301-17.1387 24.5605-17.1387ZM24.5117-22.5586C16.4062-22.5586 12.207-27.1973 12.207-33.1055C12.207-38.0371 15.2344-42.334 21.8262-44.0918C23.7305-44.5801 24.4629-45.459 24.6094-47.4121C25.4395-60.0098 35.1074-69.3359 46.4355-69.3359C55.4688-69.3359 62.4023-64.3066 66.5039-55.8105C67.334-54.1016 68.3594-53.5156 70.459-53.5156C81.6895-53.5156 88.4766-46.5332 88.4766-38.0371C88.4766-29.4434 81.543-22.5586 72.4609-22.5586ZM17.6758 11.7676L29.1016-8.10547C29.7363-9.17969 29.3945-10.3516 28.3691-10.9863C27.3438-11.5723 26.1719-11.2793 25.5371-10.1562L14.0625 9.76562C13.4766 10.7422 13.7695 11.9629 14.7949 12.5488C15.8203 13.1348 17.0898 12.793 17.6758 11.7676ZM32.9102 11.7676L44.3359-8.10547C45.0195-9.17969 44.6777-10.3516 43.6523-10.9863C42.5781-11.5723 41.4062-11.2793 40.7715-10.1562L29.2969 9.76562C28.7598 10.7422 29.0039 11.9629 30.0781 12.5488C31.1035 13.1348 32.3242 12.793 32.9102 11.7676ZM48.1445 11.7676L59.5703-8.10547C60.2051-9.17969 59.8633-10.3516 58.8379-10.9863C57.8125-11.5723 56.6406-11.2793 56.0059-10.1562L44.5312 9.76562C43.9453 10.7422 44.2383 11.9629 45.2637 12.5488C46.2891 13.1348 47.5586 12.793 48.1445 11.7676ZM63.2812 11.7676L74.8047-8.1543C75.3906-9.17969 75.0977-10.4004 74.0723-10.9863C73.0469-11.4746 71.875-11.2793 71.2402-10.1562L59.8145 9.66797C59.1797 10.7422 59.4727 11.9629 60.498 12.5488C61.4746 13.1348 62.7441 12.793 63.2812 11.7676Z"/>
  </g>
  <g id="Thin-S" transform="matrix(1 0 0 1 806.544 696)">
   <path d="M23.7793-18.3105L71.7773-18.3105C83.7402-18.3105 92.9199-27.3438 92.9199-38.623C92.9199-50.1465 83.252-58.6426 70.752-58.6426C65.9668-68.4082 57.6172-74.707 46.0449-74.707C32.1777-74.707 20.752-63.4277 19.5801-49.2188C12.4512-47.3145 6.83594-41.6504 6.83594-33.6426C6.83594-25.2441 13.0859-18.3105 23.7793-18.3105ZM23.7793-21.5332C14.8926-21.5332 10.0586-26.9531 10.0586-33.5938C10.0586-39.5508 14.0137-44.2871 20.8008-46.0938C22.2656-46.4844 22.7051-47.0703 22.8027-48.3887C23.584-61.2793 34.082-71.4844 46.0449-71.4844C56.2988-71.4844 63.6719-65.7227 67.8223-57.0801C68.457-55.8105 69.1895-55.3711 70.752-55.3711C81.8359-55.3711 89.6484-47.8516 89.6484-38.4766C89.6484-29.1504 81.8848-21.5332 71.9238-21.5332ZM16.6992 10.9375L28.7598-9.91211C29.248-10.7422 29.0527-11.5234 28.3691-11.9141C27.6855-12.3047 26.9043-12.1094 26.416-11.2793L14.3066 9.61914C13.916 10.4004 14.0625 11.1816 14.7949 11.6211C15.4785 12.0117 16.2598 11.7676 16.6992 10.9375ZM31.9824 10.9375L44.043-9.91211C44.5312-10.7422 44.3359-11.5234 43.6035-11.9141C42.9199-12.3047 42.1387-12.1094 41.6504-11.2793L29.5898 9.61914C29.1504 10.4004 29.3457 11.1816 30.0293 11.6211C30.7617 12.0117 31.543 11.7676 31.9824 10.9375ZM47.168 10.9375L59.2285-9.91211C59.7168-10.7422 59.5215-11.5234 58.8379-11.9141C58.1543-12.3047 57.373-12.1094 56.8848-11.2793L44.7754 9.61914C44.3848 10.4004 44.5312 11.1816 45.2637 11.6211C45.9473 12.0117 46.7285 11.7676 47.168 10.9375ZM62.4023 10.9863L74.5117-9.96094C75-10.7422 74.7559-11.5234 74.0723-11.9141C73.3887-12.3047 72.6074-12.1094 72.1191-11.2793L60.0586 9.57031C59.6191 10.4004 59.8145 11.1816 60.498 11.6211C61.1816 12.0117 62.0117 11.7676 62.4023 10.9863Z"/>
  </g>
  <g id="Ultralight-S" transform="matrix(1 0 0 1 510.102 696)">
   <path d="M23.3887-18.8965L71.582-18.8965C83.3008-18.8965 92.3828-27.7344 92.3828-38.8184C92.3828-50.0977 82.9102-58.4473 70.5566-58.4473C65.7715-68.3105 57.6172-74.707 45.8496-74.707C32.1777-74.707 20.9473-63.4277 19.7754-49.2188C12.5977-47.3633 6.83594-41.7969 6.83594-33.8379C6.83594-25.6836 12.9395-18.8965 23.3887-18.8965ZM23.3887-20.9961C14.1602-20.9961 8.93555-26.8555 8.93555-33.8379C8.93555-40.2832 13.3789-45.3125 20.2637-47.1191C21.4844-47.4121 21.8262-47.9004 21.875-48.877C22.6074-61.9141 33.5449-72.6074 45.8496-72.6074C56.7383-72.6074 64.3555-66.4551 68.5059-57.7637C68.9941-56.6895 69.6289-56.3477 70.8984-56.3477C81.9336-56.3477 90.2832-48.584 90.2832-38.7207C90.2832-29.0039 82.0801-20.9961 71.582-20.9961ZM16.2109 10.5469L28.6133-10.8887C29.0039-11.5234 28.8574-12.1094 28.3203-12.4512C27.832-12.6953 27.2461-12.5488 26.8555-11.8652L14.4531 9.52148C14.1113 10.2051 14.209 10.791 14.7461 11.084C15.2832 11.4258 15.8691 11.2305 16.2109 10.5469ZM31.4941 10.5469L43.8965-10.8887C44.2871-11.5234 44.1406-12.1094 43.6035-12.4512C43.1152-12.6953 42.5293-12.5488 42.1387-11.8652L29.7363 9.52148C29.3945 10.2051 29.4922 10.791 30.0293 11.084C30.5664 11.4258 31.1523 11.2305 31.4941 10.5469ZM46.6797 10.5469L59.082-10.8887C59.4727-11.5234 59.3262-12.1094 58.7891-12.4512C58.3008-12.6953 57.7148-12.5488 57.3242-11.8652L44.9219 9.52148C44.5801 10.2051 44.6777 10.791 45.2148 11.084C45.752 11.4258 46.3379 11.2305 46.6797 10.5469ZM61.9629 10.5469L74.3652-10.8887C74.7559-11.5234 74.6094-12.1094 74.0723-12.4512C73.584-12.6953 72.998-12.5488 72.6074-11.8652L60.2051 9.52148C59.8633 10.2051 59.9609 10.791 60.498 11.084C61.0352 11.4258 61.6211 11.2305 61.9629 10.5469Z"/>
  </g>
 </g>
</svg>
