<?xml version="1.0" encoding="UTF-8"?>
<!--Generator: Apple Native CoreSVG 149-->
<!DOCTYPE svg
PUBLIC "-//W3C//DTD SVG 1.1//EN"
       "http://www.w3.org/Graphics/SVG/1.1/DTD/svg11.dtd">
<svg version="1.1" xmlns="http://www.w3.org/2000/svg" xmlns:xlink="http://www.w3.org/1999/xlink" width="3300" height="2200">
 <!--glyph: "uni1001CA.medium", point size: 100.000000, font version: "Version 16.0d12e3", template writer version: "8"-->
 <g id="Notes">
  <rect height="2200" id="artboard" style="fill:white;opacity:1" width="3300" x="0" y="0"/>
  <line id="" style="fill:none;stroke:black;opacity:1;stroke-width:0.5;" x1="263" x2="3036" y1="292" y2="292"/>
  <text style="stroke:none;fill:black;font-family:-apple-system,&quot;SF Pro Display&quot;,&quot;SF Pro Text&quot;,Helvetica,sans-serif;font-weight:bold;" transform="matrix(1 0 0 1 263 322)">Weight/Scale Variations</text>
  <text style="stroke:none;fill:black;font-family:-apple-system,&quot;SF Pro Display&quot;,&quot;SF Pro Text&quot;,Helvetica,sans-serif;text-anchor:middle;" transform="matrix(1 0 0 1 559.711 322)">Ultralight</text>
  <text style="stroke:none;fill:black;font-family:-apple-system,&quot;SF Pro Display&quot;,&quot;SF Pro Text&quot;,Helvetica,sans-serif;text-anchor:middle;" transform="matrix(1 0 0 1 856.422 322)">Thin</text>
  <text style="stroke:none;fill:black;font-family:-apple-system,&quot;SF Pro Display&quot;,&quot;SF Pro Text&quot;,Helvetica,sans-serif;text-anchor:middle;" transform="matrix(1 0 0 1 1153.13 322)">Light</text>
  <text style="stroke:none;fill:black;font-family:-apple-system,&quot;SF Pro Display&quot;,&quot;SF Pro Text&quot;,Helvetica,sans-serif;text-anchor:middle;" transform="matrix(1 0 0 1 1449.84 322)">Regular</text>
  <text style="stroke:none;fill:black;font-family:-apple-system,&quot;SF Pro Display&quot;,&quot;SF Pro Text&quot;,Helvetica,sans-serif;text-anchor:middle;" transform="matrix(1 0 0 1 1746.56 322)">Medium</text>
  <text style="stroke:none;fill:black;font-family:-apple-system,&quot;SF Pro Display&quot;,&quot;SF Pro Text&quot;,Helvetica,sans-serif;text-anchor:middle;" transform="matrix(1 0 0 1 2043.27 322)">Semibold</text>
  <text style="stroke:none;fill:black;font-family:-apple-system,&quot;SF Pro Display&quot;,&quot;SF Pro Text&quot;,Helvetica,sans-serif;text-anchor:middle;" transform="matrix(1 0 0 1 2339.98 322)">Bold</text>
  <text style="stroke:none;fill:black;font-family:-apple-system,&quot;SF Pro Display&quot;,&quot;SF Pro Text&quot;,Helvetica,sans-serif;text-anchor:middle;" transform="matrix(1 0 0 1 2636.69 322)">Heavy</text>
  <text style="stroke:none;fill:black;font-family:-apple-system,&quot;SF Pro Display&quot;,&quot;SF Pro Text&quot;,Helvetica,sans-serif;text-anchor:middle;" transform="matrix(1 0 0 1 2933.4 322)">Black</text>
  <line id="" style="fill:none;stroke:black;opacity:1;stroke-width:0.5;" x1="263" x2="3036" y1="1903" y2="1903"/>
  <g id="" transform="matrix(1 0 0 1 263 1933)">
   <path d="M9.24805 0.830078C13.5547 0.830078 17.1387-2.74414 17.1387-7.05078C17.1387-11.3574 13.5449-14.9316 9.23828-14.9316C4.94141-14.9316 1.36719-11.3574 1.36719-7.05078C1.36719-2.74414 4.95117 0.830078 9.24805 0.830078ZM9.24805-0.654297C5.70312-0.654297 2.87109-3.49609 2.87109-7.05078C2.87109-10.6055 5.69336-13.4473 9.23828-13.4473C12.793-13.4473 15.6348-10.6055 15.6445-7.05078C15.6543-3.49609 12.8027-0.654297 9.24805-0.654297ZM9.22852-3.62305C9.69727-3.62305 9.9707-3.93555 9.9707-4.45312L9.9707-6.31836L12.002-6.31836C12.5-6.31836 12.832-6.57227 12.832-7.04102C12.832-7.51953 12.5195-7.7832 12.002-7.7832L9.9707-7.7832L9.9707-9.81445C9.9707-10.332 9.69727-10.6543 9.22852-10.6543C8.75977-10.6543 8.50586-10.3125 8.50586-9.81445L8.50586-7.7832L6.49414-7.7832C5.97656-7.7832 5.64453-7.51953 5.64453-7.04102C5.64453-6.57227 5.99609-6.31836 6.49414-6.31836L8.50586-6.31836L8.50586-4.45312C8.50586-3.95508 8.75977-3.62305 9.22852-3.62305Z"/>
  </g>
  <g id="" transform="matrix(1 0 0 1 281.506 1933)">
   <path d="M11.709 2.91016C17.1582 2.91016 21.6699-1.61133 21.6699-7.05078C21.6699-12.5 17.1484-17.0117 11.6992-17.0117C6.25977-17.0117 1.74805-12.5 1.74805-7.05078C1.74805-1.61133 6.26953 2.91016 11.709 2.91016ZM11.709 1.25C7.09961 1.25 3.41797-2.44141 3.41797-7.05078C3.41797-11.6602 7.08984-15.3516 11.6992-15.3516C16.3086-15.3516 20-11.6602 20.0098-7.05078C20.0195-2.44141 16.3184 1.25 11.709 1.25ZM11.6797-2.66602C12.207-2.66602 12.5098-3.01758 12.5098-3.59375L12.5098-6.23047L15.3223-6.23047C15.8691-6.23047 16.25-6.51367 16.25-7.03125C16.25-7.55859 15.8887-7.86133 15.3223-7.86133L12.5098-7.86133L12.5098-10.6836C12.5098-11.25 12.207-11.6113 11.6797-11.6113C11.1621-11.6113 10.8789-11.2305 10.8789-10.6836L10.8789-7.86133L8.07617-7.86133C7.50977-7.86133 7.13867-7.55859 7.13867-7.03125C7.13867-6.51367 7.5293-6.23047 8.07617-6.23047L10.8789-6.23047L10.8789-3.59375C10.8789-3.03711 11.1621-2.66602 11.6797-2.66602Z"/>
  </g>
  <g id="" transform="matrix(1 0 0 1 304.924 1933)">
   <path d="M14.9707 5.66406C21.9336 5.66406 27.6953-0.0976562 27.6953-7.05078C27.6953-14.0137 21.9238-19.7754 14.9609-19.7754C8.00781-19.7754 2.25586-14.0137 2.25586-7.05078C2.25586-0.0976562 8.01758 5.66406 14.9707 5.66406ZM14.9707 3.84766C8.93555 3.84766 4.08203-1.01562 4.08203-7.05078C4.08203-13.0957 8.92578-17.9492 14.9609-17.9492C21.0059-17.9492 25.8594-13.0957 25.8691-7.05078C25.8789-1.01562 21.0156 3.84766 14.9707 3.84766ZM14.9414-1.38672C15.5176-1.38672 15.8594-1.77734 15.8594-2.38281L15.8594-6.13281L19.7754-6.13281C20.3711-6.13281 20.7812-6.46484 20.7812-7.02148C20.7812-7.59766 20.3906-7.93945 19.7754-7.93945L15.8594-7.93945L15.8594-11.8652C15.8594-12.4805 15.5176-12.8711 14.9414-12.8711C14.375-12.8711 14.0527-12.4609 14.0527-11.8652L14.0527-7.93945L10.1465-7.93945C9.53125-7.93945 9.13086-7.59766 9.13086-7.02148C9.13086-6.46484 9.55078-6.13281 10.1465-6.13281L14.0527-6.13281L14.0527-2.38281C14.0527-1.79688 14.375-1.38672 14.9414-1.38672Z"/>
  </g>
  <text style="stroke:none;fill:black;font-family:-apple-system,&quot;SF Pro Display&quot;,&quot;SF Pro Text&quot;,Helvetica,sans-serif;font-weight:bold;" transform="matrix(1 0 0 1 263 1953)">Design Variations</text>
  <text style="stroke:none;fill:black;font-family:-apple-system,&quot;SF Pro Display&quot;,&quot;SF Pro Text&quot;,Helvetica,sans-serif;" transform="matrix(1 0 0 1 263 1971)">Symbols are supported in up to nine weights and three scales.</text>
  <text style="stroke:none;fill:black;font-family:-apple-system,&quot;SF Pro Display&quot;,&quot;SF Pro Text&quot;,Helvetica,sans-serif;" transform="matrix(1 0 0 1 263 1989)">For optimal layout with text and other symbols, vertically align</text>
  <text style="stroke:none;fill:black;font-family:-apple-system,&quot;SF Pro Display&quot;,&quot;SF Pro Text&quot;,Helvetica,sans-serif;" transform="matrix(1 0 0 1 263 2007)">symbols with the adjacent text.</text>
  <line id="" style="fill:none;stroke:#00AEEF;stroke-width:0.5;opacity:1.0;" x1="776" x2="776" y1="1919" y2="1933"/>
  <g id="" transform="matrix(1 0 0 1 776 1933)">
   <path d="M3.31055 0.126953C3.82812 0.126953 4.08203-0.0683594 4.26758-0.605469L5.52734-4.0625L11.2891-4.0625L12.5488-0.605469C12.7344-0.0683594 12.9883 0.126953 13.4961 0.126953C14.0137 0.126953 14.3457-0.185547 14.3457-0.673828C14.3457-0.839844 14.3164-0.986328 14.2383-1.20117L9.6582-13.3887C9.43359-13.9941 9.0332-14.2871 8.4082-14.2871C7.80273-14.2871 7.39258-13.9941 7.17773-13.3984L2.59766-1.19141C2.51953-0.976562 2.49023-0.830078 2.49023-0.664062C2.49023-0.175781 2.80273 0.126953 3.31055 0.126953ZM6.00586-5.53711L8.37891-12.1094L8.42773-12.1094L10.8008-5.53711Z"/>
  </g>
  <line id="" style="fill:none;stroke:#00AEEF;stroke-width:0.5;opacity:1.0;" x1="792.836" x2="792.836" y1="1919" y2="1933"/>
  <text style="stroke:none;fill:black;font-family:-apple-system,&quot;SF Pro Display&quot;,&quot;SF Pro Text&quot;,Helvetica,sans-serif;font-weight:bold;" transform="matrix(1 0 0 1 776 1953)">Margins</text>
  <text style="stroke:none;fill:black;font-family:-apple-system,&quot;SF Pro Display&quot;,&quot;SF Pro Text&quot;,Helvetica,sans-serif;" transform="matrix(1 0 0 1 776 1971)">Leading and trailing margins on the left and right side of each symbol</text>
  <text style="stroke:none;fill:black;font-family:-apple-system,&quot;SF Pro Display&quot;,&quot;SF Pro Text&quot;,Helvetica,sans-serif;" transform="matrix(1 0 0 1 776 1989)">can be adjusted by modifying the x-location of the margin guidelines.</text>
  <text style="stroke:none;fill:black;font-family:-apple-system,&quot;SF Pro Display&quot;,&quot;SF Pro Text&quot;,Helvetica,sans-serif;" transform="matrix(1 0 0 1 776 2007)">Modifications are automatically applied proportionally to all</text>
  <text style="stroke:none;fill:black;font-family:-apple-system,&quot;SF Pro Display&quot;,&quot;SF Pro Text&quot;,Helvetica,sans-serif;" transform="matrix(1 0 0 1 776 2025)">scales and weights.</text>
  <g id="" transform="matrix(1 0 0 1 1289 1933)">
   <path d="M2.8418 1.86523L4.54102 3.57422C5.40039 4.44336 6.38672 4.38477 7.31445 3.35938L17.4902-7.85156C17.7539-7.76367 18.0273-7.7832 18.3398-7.8418L19.4043-8.03711L20.0684-7.36328L20.0293-6.80664C19.9902-6.30859 20.1172-5.92773 20.6055-5.44922L21.3672-4.70703C21.8457-4.22852 22.4609-4.19922 22.9297-4.66797L25.8398-7.58789C26.3086-8.05664 26.2891-8.65234 25.8105-9.13086L25.0391-9.89258C24.5605-10.3711 24.1895-10.5273 23.7109-10.4883L23.1348-10.4395L22.4902-11.0742L22.7344-12.1973C22.8613-12.7637 22.7051-13.2031 22.1191-13.7891L19.9219-15.9766C16.582-19.2969 12.1484-19.2188 9.25781-16.3281C8.83789-15.918 8.80859-15.3418 9.04297-14.9512C9.27734-14.5898 9.73633-14.3555 10.3809-14.5215C11.8457-14.8633 13.3691-14.9219 14.7949-13.9844L14.209-12.5293C14.0137-12.0508 13.9844-11.6504 14.1113-11.2891L3.04688-0.898438C2.06055 0.0195312 1.98242 0.996094 2.8418 1.86523ZM10.752-15.957C13.1836-17.7344 16.4746-17.4316 18.7012-15.2051L21.1328-12.793C21.3672-12.5586 21.4062-12.373 21.3379-12.0312L21.0156-10.5469L22.5195-9.0625L23.5059-9.12109C23.7598-9.13086 23.8379-9.11133 24.0332-8.91602L24.6094-8.33984L22.168-5.89844L21.5918-6.47461C21.3965-6.66992 21.3672-6.74805 21.377-7.01172L21.4453-7.98828L19.9512-9.47266L18.4277-9.21875C18.1055-9.15039 17.959-9.17969 17.7148-9.41406L15.7129-11.416C15.459-11.6504 15.4297-11.8164 15.5859-12.1875L16.4648-14.2773C14.9023-15.7324 12.8711-16.3574 10.8398-15.7617C10.6836-15.7227 10.625-15.8496 10.752-15.957ZM5.27344 2.30469L4.10156 1.14258C3.63281 0.683594 3.74023 0.341797 4.14062-0.0195312L14.9512-10.1953L16.416-8.71094L6.42578 2.27539C6.07422 2.67578 5.74219 2.77344 5.27344 2.30469Z"/>
  </g>
  <text style="stroke:none;fill:black;font-family:-apple-system,&quot;SF Pro Display&quot;,&quot;SF Pro Text&quot;,Helvetica,sans-serif;font-weight:bold;" transform="matrix(1 0 0 1 1289 1953)">Exporting</text>
  <text style="stroke:none;fill:black;font-family:-apple-system,&quot;SF Pro Display&quot;,&quot;SF Pro Text&quot;,Helvetica,sans-serif;" transform="matrix(1 0 0 1 1289 1971)">Symbols should be outlined when exporting to ensure the</text>
  <text style="stroke:none;fill:black;font-family:-apple-system,&quot;SF Pro Display&quot;,&quot;SF Pro Text&quot;,Helvetica,sans-serif;" transform="matrix(1 0 0 1 1289 1989)">design is preserved when submitting to Xcode.</text>
  <text id="template-version" style="stroke:none;fill:black;font-family:-apple-system,&quot;SF Pro Display&quot;,&quot;SF Pro Text&quot;,Helvetica,sans-serif;text-anchor:end;" transform="matrix(1 0 0 1 3036 1933)">Template v.2.0</text>
  <text style="stroke:none;fill:black;font-family:-apple-system,&quot;SF Pro Display&quot;,&quot;SF Pro Text&quot;,Helvetica,sans-serif;text-anchor:end;" transform="matrix(1 0 0 1 3036 1951)">Requires Xcode 12 or greater</text>
  <text style="stroke:none;fill:black;font-family:-apple-system,&quot;SF Pro Display&quot;,&quot;SF Pro Text&quot;,Helvetica,sans-serif;text-anchor:end;" transform="matrix(1 0 0 1 3036 1969)">Generated from cloud.fog</text>
  <text style="stroke:none;fill:black;font-family:-apple-system,&quot;SF Pro Display&quot;,&quot;SF Pro Text&quot;,Helvetica,sans-serif;text-anchor:end;" transform="matrix(1 0 0 1 3036 1987)">Typeset at 100 points</text>
  <text style="stroke:none;fill:black;font-family:-apple-system,&quot;SF Pro Display&quot;,&quot;SF Pro Text&quot;,Helvetica,sans-serif;" transform="matrix(1 0 0 1 263 726)">Small</text>
  <text style="stroke:none;fill:black;font-family:-apple-system,&quot;SF Pro Display&quot;,&quot;SF Pro Text&quot;,Helvetica,sans-serif;" transform="matrix(1 0 0 1 263 1156)">Medium</text>
  <text style="stroke:none;fill:black;font-family:-apple-system,&quot;SF Pro Display&quot;,&quot;SF Pro Text&quot;,Helvetica,sans-serif;" transform="matrix(1 0 0 1 263 1586)">Large</text>
 </g>
 <g id="Guides">
  <g id="H-reference" style="fill:#27AAE1;stroke:none;" transform="matrix(1 0 0 1 339 696)">
   <path d="M0.976562 0L3.66211 0L12.9883-24.4629L45.752-24.4629L55.127 0L57.7637 0L30.6152-70.459L28.125-70.459ZM29.3457-67.1387L29.4434-67.1387L44.873-26.709L13.8672-26.709Z"/>
  </g>
  <line id="Baseline-S" style="fill:none;stroke:#27AAE1;opacity:1;stroke-width:0.5;" x1="263" x2="3036" y1="696" y2="696"/>
  <line id="Capline-S" style="fill:none;stroke:#27AAE1;opacity:1;stroke-width:0.5;" x1="263" x2="3036" y1="625.541" y2="625.541"/>
  <g id="H-reference" style="fill:#27AAE1;stroke:none;" transform="matrix(1 0 0 1 339 1126)">
   <path d="M0.976562 0L3.66211 0L12.9883-24.4629L45.752-24.4629L55.127 0L57.7637 0L30.6152-70.459L28.125-70.459ZM29.3457-67.1387L29.4434-67.1387L44.873-26.709L13.8672-26.709Z"/>
  </g>
  <line id="Baseline-M" style="fill:none;stroke:#27AAE1;opacity:1;stroke-width:0.5;" x1="263" x2="3036" y1="1126" y2="1126"/>
  <line id="Capline-M" style="fill:none;stroke:#27AAE1;opacity:1;stroke-width:0.5;" x1="263" x2="3036" y1="1055.54" y2="1055.54"/>
  <g id="H-reference" style="fill:#27AAE1;stroke:none;" transform="matrix(1 0 0 1 339 1556)">
   <path d="M0.976562 0L3.66211 0L12.9883-24.4629L45.752-24.4629L55.127 0L57.7637 0L30.6152-70.459L28.125-70.459ZM29.3457-67.1387L29.4434-67.1387L44.873-26.709L13.8672-26.709Z"/>
  </g>
  <line id="Baseline-L" style="fill:none;stroke:#27AAE1;opacity:1;stroke-width:0.5;" x1="263" x2="3036" y1="1556" y2="1556"/>
  <line id="Capline-L" style="fill:none;stroke:#27AAE1;opacity:1;stroke-width:0.5;" x1="263" x2="3036" y1="1485.54" y2="1485.54"/>
  <line id="left-margin" style="fill:none;stroke:#00AEEF;stroke-width:0.5;opacity:1.0;" x1="1385.34" x2="1385.34" y1="1030.79" y2="1150.12"/>
  <line id="right-margin" style="fill:none;stroke:#00AEEF;stroke-width:0.5;opacity:1.0;" x1="1514.35" x2="1514.35" y1="1030.79" y2="1150.12"/>
 </g>
 <g id="Symbols">
  <g id="Black-L" transform="matrix(1 0 0 1 2845.61 1556)">
   <path d="M45.1172-1.17188L124.561-1.17188C147.168-1.17188 164.307-18.4082 164.307-40.2832C164.307-62.4512 147.217-79.5898 124.512-79.5898C117.236-93.6523 103.613-104.785 81.543-104.785C55.8105-104.785 35.9375-86.2793 32.5684-62.5977C20.4102-58.3496 11.2793-47.6074 11.2793-33.0566C11.2793-15.0391 24.7559-1.17188 45.1172-1.17188ZM45.6543-19.1895C34.668-19.1895 29.2969-24.8535 29.2969-32.7148C29.2969-39.7461 33.6426-44.9707 43.5547-47.5586C47.8027-48.6328 48.9258-50.5859 49.5605-54.8828C52.5391-75.7812 65.3809-86.7676 81.543-86.7676C93.6035-86.7676 103.809-79.9316 110.742-66.8457C112.598-63.3301 114.6-62.1094 118.994-62.1094C137.842-62.1094 146.289-52.2949 146.289-39.8926C146.289-28.2227 137.549-19.1895 124.219-19.1895ZM127.832 13.7207L49.0723 13.7207C45.9473 13.7207 43.5059 15.9668 43.5059 18.9941C43.5059 21.9727 45.9473 24.2188 49.0723 24.2188L127.832 24.2188C131.006 24.2188 133.398 21.9727 133.398 18.9941C133.398 15.9668 131.006 13.7207 127.832 13.7207ZM127.832 35.1074L49.0723 35.1074C45.9473 35.1074 43.5059 37.3535 43.5059 40.3809C43.5059 43.3594 45.9473 45.6055 49.0723 45.6055L127.832 45.6055C131.006 45.6055 133.398 43.3594 133.398 40.3809C133.398 37.3535 131.006 35.1074 127.832 35.1074Z"/>
  </g>
  <g id="Heavy-L" transform="matrix(1 0 0 1 2550.04 1556)">
   <path d="M43.9941-2.19727L123.242-2.19727C145.264-2.19727 162.012-19.043 162.012-40.2832C162.012-61.8164 145.117-78.3691 122.803-78.3691C115.332-92.7734 101.562-103.711 80.3711-103.711C55.1758-103.711 35.4492-85.2051 32.373-61.5723C20.3613-57.5684 11.2793-47.0703 11.2793-32.8125C11.2793-15.625 24.1211-2.19727 43.9941-2.19727ZM44.3848-18.0176C32.8125-18.0176 27.0508-24.1699 27.0508-32.4707C27.0508-39.7949 31.5918-45.5078 41.6992-48.1445C45.7031-49.1699 46.8262-50.9766 47.3633-54.9805C49.9512-75.8789 63.5742-87.9395 80.3711-87.9395C93.0664-87.9395 103.564-80.7617 110.498-67.4316C112.207-64.1113 114.16-62.8906 118.311-62.8906C137.109-62.8906 146.191-52.6855 146.191-39.8926C146.191-27.6367 136.816-18.0176 123.047-18.0176ZM127.197 12.7441L47.4609 12.7441C44.5801 12.7441 42.334 14.7949 42.334 17.5781C42.334 20.3125 44.5801 22.3633 47.4609 22.3633L127.197 22.3633C130.029 22.3633 132.275 20.3125 132.275 17.5781C132.275 14.7949 130.029 12.7441 127.197 12.7441ZM127.197 34.1309L47.4609 34.1309C44.5801 34.1309 42.334 36.1816 42.334 38.9648C42.334 41.6992 44.5801 43.7988 47.4609 43.7988L127.197 43.7988C130.029 43.7988 132.275 41.6992 132.275 38.9648C132.275 36.1816 130.029 34.1309 127.197 34.1309Z"/>
  </g>
  <g id="Bold-L" transform="matrix(1 0 0 1 2254.63 1556)">
   <path d="M42.7246-3.36914L121.68-3.36914C143.164-3.36914 159.424-19.7266 159.424-40.2344C159.424-61.1816 142.725-77.002 120.85-77.002C113.232-91.8457 99.2676-102.539 79.0039-102.539C54.4434-102.539 34.8145-83.9844 32.1289-60.4492C20.3125-56.6895 11.2793-46.4355 11.2793-32.5195C11.2793-16.2598 23.3398-3.36914 42.7246-3.36914ZM42.9688-16.6992C30.7129-16.6992 24.5605-23.3887 24.5605-32.2266C24.5605-39.8926 29.2969-46.0938 39.6973-48.8281C43.3594-49.7559 44.4824-51.4648 44.9219-55.1758C47.1191-75.9766 61.5723-89.209 79.0039-89.209C92.5293-89.209 103.369-81.6406 110.205-68.1152C111.816-64.9414 113.672-63.8184 117.529-63.8184C136.23-63.8184 146.094-53.1738 146.094-39.9414C146.094-26.9531 135.938-16.6992 121.777-16.6992ZM126.416 11.6211L45.6055 11.6211C43.0176 11.6211 41.0645 13.4766 41.0645 15.9668C41.0645 18.457 43.0176 20.3125 45.6055 20.3125L126.416 20.3125C128.955 20.3125 130.957 18.457 130.957 15.9668C130.957 13.4766 128.955 11.6211 126.416 11.6211ZM126.416 33.0078L45.6055 33.0078C43.0176 33.0078 41.0645 34.8633 41.0645 37.3535C41.0645 39.8438 43.0176 41.6992 45.6055 41.6992L126.416 41.6992C128.955 41.6992 130.957 39.8438 130.957 37.3535C130.957 34.8633 128.955 33.0078 126.416 33.0078Z"/>
  </g>
  <g id="Semibold-L" transform="matrix(1 0 0 1 1958.82 1556)">
   <path d="M41.8457-4.19922L120.654-4.19922C141.699-4.19922 157.617-20.166 157.617-40.2344C157.617-60.6934 141.113-76.0254 119.482-76.0254C111.768-91.2109 97.7051-101.709 78.0762-101.709C53.9062-101.709 34.4238-83.1543 31.9824-59.668C20.2637-56.0547 11.2793-46.0449 11.2793-32.373C11.2793-16.6992 22.8516-4.19922 41.8457-4.19922ZM41.9922-15.7715C29.2969-15.7715 22.8516-22.8516 22.8516-32.0801C22.8516-39.9414 27.6855-46.4844 38.2812-49.2676C41.748-50.1953 42.8711-51.7578 43.2129-55.2734C45.1172-76.0742 60.1562-90.0879 78.0762-90.0879C92.1387-90.0879 103.223-82.2754 110.059-68.5547C111.572-65.5273 113.33-64.4531 116.992-64.4531C135.645-64.4531 146.045-53.4668 146.045-39.9414C146.045-26.5137 135.352-15.7715 120.898-15.7715ZM125.928 10.8398L44.3359 10.8398C41.9922 10.8398 40.1367 12.5977 40.1367 14.8926C40.1367 17.1875 41.9922 18.8965 44.3359 18.8965L125.928 18.8965C128.223 18.8965 130.078 17.1875 130.078 14.8926C130.078 12.5977 128.223 10.8398 125.928 10.8398ZM125.928 32.2266L44.3359 32.2266C41.9922 32.2266 40.1367 33.9844 40.1367 36.2793C40.1367 38.5742 41.9922 40.2832 44.3359 40.2832L125.928 40.2832C128.223 40.2832 130.078 38.5742 130.078 36.2793C130.078 33.9844 128.223 32.2266 125.928 32.2266Z"/>
  </g>
  <g id="Medium-L" transform="matrix(1 0 0 1 1662.79 1556)">
   <path d="M41.2109-4.78516L119.873-4.78516C140.625-4.78516 156.25-20.5566 156.25-40.1855C156.25-60.3516 139.844-75.3418 118.457-75.3418C110.693-90.7227 96.4844-101.074 77.3438-101.074C53.5156-101.074 34.1309-82.5195 31.8359-59.0332C20.2148-55.6152 11.2793-45.7031 11.2793-32.2266C11.2793-16.9922 22.4609-4.78516 41.2109-4.78516ZM41.2109-15.0879C28.2227-15.0879 21.582-22.4609 21.582-31.9336C21.582-39.9902 26.5137-46.7773 37.207-49.6094C40.5273-50.4883 41.6504-52.002 41.9434-55.3223C43.6523-76.123 59.082-90.7715 77.3438-90.7715C91.8457-90.7715 103.076-82.7148 109.912-68.8965C111.328-65.9668 113.086-64.9414 116.602-64.9414C135.205-64.9414 145.947-53.7109 145.947-39.9414C145.947-26.123 134.912-15.0879 120.215-15.0879ZM125.537 10.2539L43.3594 10.2539C41.1621 10.2539 39.4531 11.9141 39.4531 14.0625C39.4531 16.2109 41.1621 17.8223 43.3594 17.8223L125.537 17.8223C127.686 17.8223 129.395 16.2109 129.395 14.0625C129.395 11.9141 127.686 10.2539 125.537 10.2539ZM125.537 31.6895L43.3594 31.6895C41.1621 31.6895 39.4531 33.3008 39.4531 35.4492C39.4531 37.5977 41.1621 39.209 43.3594 39.209L125.537 39.209C127.686 39.209 129.395 37.5977 129.395 35.4492C129.395 33.3008 127.686 31.6895 125.537 31.6895Z"/>
  </g>
  <g id="Regular-L" transform="matrix(1 0 0 1 1366.96 1556)">
   <path d="M40.3809-5.61523L118.848-5.61523C139.16-5.61523 154.492-20.9961 154.492-40.1855C154.492-59.9121 138.232-74.3652 117.139-74.3652C109.277-90.0879 94.9219-100.244 76.4648-100.244C53.0273-100.244 33.6914-81.6895 31.6895-58.252C20.166-55.0293 11.2793-45.2637 11.2793-32.0312C11.2793-17.4316 21.9238-5.61523 40.3809-5.61523ZM40.2344-14.209C26.8066-14.209 19.873-21.9727 19.873-31.7871C19.873-40.0879 24.9023-47.2168 35.791-50.0977C38.916-50.9277 40.0391-52.3438 40.2832-55.4688C41.6992-76.2207 57.7148-91.6504 76.4648-91.6504C91.4551-91.6504 102.93-83.3496 109.717-69.3359C111.084-66.5527 112.744-65.5762 116.064-65.5762C134.619-65.5762 145.898-54.0039 145.898-39.9414C145.898-25.6836 134.326-14.209 119.336-14.209ZM125 9.52148L42.0898 9.52148C40.1367 9.52148 38.5742 10.9863 38.5742 12.9883C38.5742 14.9414 40.1367 16.4062 42.0898 16.4062L125 16.4062C126.953 16.4062 128.516 14.9414 128.516 12.9883C128.516 10.9863 126.953 9.52148 125 9.52148ZM125 30.9082L42.0898 30.9082C40.1367 30.9082 38.5742 32.373 38.5742 34.375C38.5742 36.3281 40.1367 37.793 42.0898 37.793L125 37.793C126.953 37.793 128.516 36.3281 128.516 34.375C128.516 32.373 126.953 30.9082 125 30.9082Z"/>
  </g>
  <g id="Light-L" transform="matrix(1 0 0 1 1070.71 1556)">
   <path d="M39.5996-6.73828L118.457-6.73828C138.379-6.73828 153.564-21.7773 153.564-40.5762C153.564-59.8633 137.549-74.0234 116.748-74.0234C108.887-89.9414 94.9219-100.244 76.0742-100.244C53.0273-100.244 34.0332-81.6895 32.0312-58.252C20.4102-55.0781 11.2793-45.6055 11.2793-32.4219C11.2793-18.2617 21.6797-6.73828 39.5996-6.73828ZM39.5508-13.2324C25.3906-13.2324 17.8223-21.7285 17.8223-32.2266C17.8223-41.5039 23.7793-49.0723 34.8633-52.002C37.5-52.6855 38.3789-53.8574 38.5742-56.3477C39.8926-77.3926 56.7383-93.75 76.0742-93.75C92.2852-93.75 104.199-84.668 110.986-70.5566C112.109-68.1641 113.525-67.3828 116.357-67.3828C134.766-67.3828 147.021-55.3223 147.021-40.332C147.021-25.3906 134.717-13.2324 118.75-13.2324ZM125.195 9.13086L40.9668 9.13086C39.4043 9.13086 38.1348 10.3027 38.1348 11.8652C38.1348 13.4277 39.4043 14.5996 40.9668 14.5996L125.195 14.5996C126.758 14.5996 128.027 13.4277 128.027 11.8652C128.027 10.3027 126.758 9.13086 125.195 9.13086ZM125.195 30.5176L40.9668 30.5176C39.4043 30.5176 38.1348 31.6895 38.1348 33.252C38.1348 34.8145 39.4043 35.9863 40.9668 35.9863L125.195 35.9863C126.758 35.9863 128.027 34.8145 128.027 33.252C128.027 31.6895 126.758 30.5176 125.195 30.5176Z"/>
  </g>
  <g id="Thin-L" transform="matrix(1 0 0 1 774.611 1556)">
   <path d="M38.623-8.20312L117.969-8.20312C137.354-8.20312 152.344-22.8027 152.344-41.0645C152.344-59.7656 136.67-73.5352 116.26-73.5352C108.398-89.7461 94.9219-100.244 75.5859-100.244C53.0273-100.244 34.4727-81.6895 32.5195-58.252C20.752-55.1758 11.2793-45.9961 11.2793-32.9102C11.2793-19.3848 21.3379-8.20312 38.623-8.20312ZM38.623-11.9629C23.5352-11.9629 15.0391-21.4355 15.0391-32.8613C15.0391-43.3594 22.2168-51.5625 33.5938-54.541C35.5957-55.0781 36.2305-55.8594 36.3281-57.5684C37.5488-79.0039 55.4688-96.4844 75.5859-96.4844C93.3594-96.4844 105.811-86.4258 112.646-72.168C113.525-70.3125 114.6-69.7266 116.748-69.7266C134.912-69.7266 148.535-57.0312 148.535-40.918C148.535-25 135.156-11.9629 118.018-11.9629ZM125.439 8.59375L39.502 8.59375C38.4277 8.59375 37.5 9.375 37.5 10.4004C37.5 11.4258 38.4277 12.1582 39.502 12.1582L125.439 12.1582C126.514 12.1582 127.441 11.4258 127.441 10.4004C127.441 9.375 126.514 8.59375 125.439 8.59375ZM125.439 30.0293L39.502 30.0293C38.4277 30.0293 37.5 30.7617 37.5 31.7871C37.5 32.8125 38.4277 33.5449 39.502 33.5449L125.439 33.5449C126.514 33.5449 127.441 32.8125 127.441 31.7871C127.441 30.7617 126.514 30.0293 125.439 30.0293Z"/>
  </g>
  <g id="Ultralight-L" transform="matrix(1 0 0 1 478.217 1556)">
   <path d="M38.1348-8.93555L117.725-8.93555C136.816-8.93555 151.709-23.291 151.709-41.3574C151.709-59.7168 136.182-73.291 116.016-73.291C108.154-89.6484 94.9219-100.244 75.3418-100.244C53.0273-100.244 34.7168-81.6895 32.8125-58.252C20.9473-55.2246 11.2793-46.2402 11.2793-33.1543C11.2793-19.9219 21.1426-8.93555 38.1348-8.93555ZM38.1348-11.3281C22.5586-11.3281 13.6719-21.2891 13.6719-33.1543C13.6719-44.3359 21.4355-52.832 32.9102-55.8594C34.6191-56.2988 35.1074-56.9336 35.1562-58.1543C36.377-79.834 54.7852-97.8516 75.3418-97.8516C93.8965-97.8516 106.641-87.3535 113.525-72.998C114.258-71.4355 115.137-70.8984 116.943-70.8984C135.01-70.8984 149.316-57.9102 149.316-41.2109C149.316-24.8047 135.4-11.3281 117.676-11.3281ZM125.537 8.34961L38.7695 8.34961C37.9395 8.34961 37.207 8.88672 37.207 9.66797C37.207 10.4004 37.9395 10.9375 38.7695 10.9375L125.537 10.9375C126.416 10.9375 127.1 10.4004 127.1 9.66797C127.1 8.88672 126.416 8.34961 125.537 8.34961ZM125.537 29.7363L38.7695 29.7363C37.9395 29.7363 37.207 30.2734 37.207 31.0547C37.207 31.7871 37.9395 32.3242 38.7695 32.3242L125.537 32.3242C126.416 32.3242 127.1 31.7871 127.1 31.0547C127.1 30.2734 126.416 29.7363 125.537 29.7363Z"/>
  </g>
  <g id="Black-M" transform="matrix(1 0 0 1 2864.04 1126)">
   <path d="M36.084-8.00781L98.1934-8.00781C116.162-8.00781 129.98-21.7773 129.98-39.4043C129.98-57.0801 116.602-71.0938 98.6816-71.0938C93.2129-81.543 83.0566-90.5762 64.6484-90.5762C44.1406-90.5762 28.7598-76.2695 25.7324-57.8125C16.0645-54.248 8.74023-45.752 8.74023-34.0332C8.74023-19.2871 19.9707-8.00781 36.084-8.00781ZM36.7188-23.877C28.5645-23.877 24.6094-27.9785 24.6094-33.7891C24.6094-39.3555 28.2227-43.0664 35.6934-45.0195C39.0625-45.8984 39.8926-47.3633 40.4297-50.7324C43.2129-67.1387 52.5879-74.7559 64.6484-74.7559C73.6328-74.7559 81.3477-69.5312 86.7676-59.6191C88.2812-56.8848 89.8438-55.8594 93.2617-55.8594C107.91-55.8594 114.111-48.6328 114.111-39.0625C114.111-30.4688 107.812-23.877 97.5098-23.877ZM100.098 3.85742L39.6973 3.85742C37.0605 3.85742 35.0586 5.66406 35.0586 8.10547C35.0586 10.5469 37.0605 12.3535 39.6973 12.3535L100.098 12.3535C102.734 12.3535 104.736 10.5469 104.736 8.10547C104.736 5.66406 102.734 3.85742 100.098 3.85742ZM100.098 20.4102L39.6973 20.4102C37.0605 20.4102 35.0586 22.2168 35.0586 24.6582C35.0586 27.0996 37.0605 28.9551 39.6973 28.9551L100.098 28.9551C102.734 28.9551 104.736 27.0996 104.736 24.6582C104.736 22.2168 102.734 20.4102 100.098 20.4102Z"/>
  </g>
  <g id="Heavy-M" transform="matrix(1 0 0 1 2568.48 1126)">
   <path d="M35.0586-8.88672L96.7773-8.88672C114.307-8.88672 127.686-22.2168 127.686-39.2578C127.686-56.4453 114.453-69.8242 96.875-69.8242C91.2109-80.6641 80.8105-89.4043 63.4277-89.4043C43.4082-89.4043 28.0762-75.0977 25.3906-56.6895C15.918-53.3691 8.74023-45.0684 8.74023-33.6914C8.74023-19.6777 19.2871-8.88672 35.0586-8.88672ZM35.498-22.8516C26.9531-22.8516 22.7051-27.2949 22.7051-33.4473C22.7051-39.0625 26.2695-43.1641 33.9355-45.166C37.1582-45.9961 37.9883-47.4121 38.4766-50.6348C40.8691-66.9434 50.8789-75.4395 63.4277-75.4395C72.9004-75.4395 80.8105-70.0195 86.2305-59.9121C87.6465-57.2754 89.1602-56.2988 92.4316-56.2988C107.08-56.2988 113.721-48.7305 113.721-38.9648C113.721-29.8828 106.885-22.8516 96.3867-22.8516ZM99.3164 2.88086L38.1836 2.88086C35.7422 2.88086 33.8867 4.54102 33.8867 6.83594C33.8867 9.13086 35.7422 10.8398 38.1836 10.8398L99.3164 10.8398C101.709 10.8398 103.564 9.13086 103.564 6.83594C103.564 4.54102 101.709 2.88086 99.3164 2.88086ZM99.3164 19.4336L38.1836 19.4336C35.7422 19.4336 33.8867 21.1426 33.8867 23.4375C33.8867 25.6836 35.7422 27.3926 38.1836 27.3926L99.3164 27.3926C101.709 27.3926 103.564 25.6836 103.564 23.4375C103.564 21.1426 101.709 19.4336 99.3164 19.4336Z"/>
  </g>
  <g id="Bold-M" transform="matrix(1 0 0 1 2273.06 1126)">
   <path d="M33.8867-9.81445L95.2637-9.81445C112.256-9.81445 125.098-22.7539 125.098-39.1113C125.098-55.7617 112.061-68.457 94.8242-68.457C89.0137-79.6875 78.3203-88.0859 62.0605-88.0859C42.627-88.0859 27.3438-73.7305 25.0488-55.4688C15.7715-52.3926 8.74023-44.2871 8.74023-33.3008C8.74023-20.1172 18.5547-9.81445 33.8867-9.81445ZM34.1309-21.6797C25.0977-21.6797 20.6055-26.5137 20.6055-33.0566C20.6055-38.7695 24.1211-43.2617 31.9824-45.3125C35.0098-46.0938 35.9375-47.5098 36.3281-50.5859C38.2812-66.748 48.9258-76.2695 62.0605-76.2695C72.0215-76.2695 80.2246-70.6543 85.5469-60.3027C86.8652-57.7148 88.3789-56.8359 91.5527-56.8359C106.104-56.8359 113.281-48.8281 113.281-38.8672C113.281-29.248 105.859-21.6797 95.166-21.6797ZM98.4375 1.75781L36.4746 1.75781C34.2773 1.75781 32.6172 3.32031 32.6172 5.41992C32.6172 7.51953 34.2773 9.08203 36.4746 9.08203L98.4375 9.08203C100.635 9.08203 102.295 7.51953 102.295 5.41992C102.295 3.32031 100.635 1.75781 98.4375 1.75781ZM98.4375 18.3594L36.4746 18.3594C34.2773 18.3594 32.6172 19.9219 32.6172 22.0215C32.6172 24.1211 34.2773 25.6836 36.4746 25.6836L98.4375 25.6836C100.635 25.6836 102.295 24.1211 102.295 22.0215C102.295 19.9219 100.635 18.3594 98.4375 18.3594Z"/>
  </g>
  <g id="Semibold-M" transform="matrix(1 0 0 1 1977.23 1126)">
   <path d="M33.1055-10.498L94.1895-10.498C110.791-10.498 123.34-23.1445 123.34-39.0137C123.34-55.2734 110.4-67.4805 93.4082-67.4805C87.5-79.0039 76.5625-87.207 61.084-87.207C42.041-87.207 26.8555-72.8027 24.8047-54.5898C15.6738-51.709 8.74023-43.75 8.74023-33.0078C8.74023-20.459 18.0664-10.498 33.1055-10.498ZM33.2031-20.8984C23.8281-20.8984 19.1406-25.9766 19.1406-32.7637C19.1406-38.5742 22.6074-43.3105 30.6641-45.459C33.5449-46.1914 34.4727-47.5098 34.8145-50.4883C36.4746-66.5527 47.6074-76.8066 61.084-76.8066C71.4355-76.8066 79.7852-71.0449 85.1074-60.5469C86.377-58.0566 87.8418-57.1777 90.918-57.1777C105.42-57.1777 112.939-48.9258 112.939-38.7695C112.939-28.7598 105.176-20.8984 94.2871-20.8984ZM97.8516 0.976562L35.3027 0.976562C33.3008 0.976562 31.7383 2.49023 31.7383 4.44336C31.7383 6.44531 33.3008 7.91016 35.3027 7.91016L97.8516 7.91016C99.8535 7.91016 101.416 6.44531 101.416 4.44336C101.416 2.49023 99.8535 0.976562 97.8516 0.976562ZM97.8516 17.5781L35.3027 17.5781C33.3008 17.5781 31.7383 19.043 31.7383 21.0449C31.7383 22.998 33.3008 24.5117 35.3027 24.5117L97.8516 24.5117C99.8535 24.5117 101.416 22.998 101.416 21.0449C101.416 19.043 99.8535 17.5781 97.8516 17.5781Z"/>
  </g>
  <g id="Medium-M" transform="matrix(1 0 0 1 1681.17 1126)">
   <path d="M32.4707-10.9863L93.3594-10.9863C109.717-10.9863 122.021-23.4375 122.021-38.9648C122.021-54.8828 109.131-66.748 92.3828-66.748C86.377-78.5156 75.293-86.5234 60.4004-86.5234C41.6504-86.5234 26.4648-72.1191 24.6094-53.9551C15.5762-51.1719 8.74023-43.3594 8.74023-32.8125C8.74023-20.6543 17.6758-10.9863 32.4707-10.9863ZM32.5195-20.2637C22.8516-20.2637 18.0176-25.5859 18.0176-32.5684C18.0176-38.3789 21.4844-43.3594 29.6387-45.5078C32.4707-46.2891 33.3984-47.5586 33.6426-50.4395C35.1074-66.4551 46.582-77.2461 60.4004-77.2461C70.9961-77.2461 79.4922-71.3379 84.7656-60.6934C85.9863-58.252 87.4512-57.4219 90.4297-57.4219C104.932-57.4219 112.744-48.9746 112.744-38.7207C112.744-28.4668 104.639-20.2637 93.6523-20.2637ZM97.3633 0.439453L34.4238 0.439453C32.5195 0.439453 31.0547 1.85547 31.0547 3.71094C31.0547 5.61523 32.5195 7.03125 34.4238 7.03125L97.3633 7.03125C99.2676 7.03125 100.732 5.61523 100.732 3.71094C100.732 1.85547 99.2676 0.439453 97.3633 0.439453ZM97.3633 16.9922L34.4238 16.9922C32.5195 16.9922 31.0547 18.4082 31.0547 20.3125C31.0547 22.168 32.5195 23.584 34.4238 23.584L97.3633 23.584C99.2676 23.584 100.732 22.168 100.732 20.3125C100.732 18.4082 99.2676 16.9922 97.3633 16.9922Z"/>
  </g>
  <g id="Regular-M" transform="matrix(1 0 0 1 1385.34 1126)">
   <path d="M31.6895-11.6211L92.2852-11.6211C108.301-11.6211 120.264-23.7793 120.264-38.8672C120.264-54.3945 107.52-65.7715 90.9668-65.7715C84.8633-77.832 73.5352-85.5957 59.4727-85.5957C41.0645-85.5957 25.9277-71.2402 24.3652-53.0762C15.4785-50.5371 8.74023-42.8223 8.74023-32.5195C8.74023-20.9961 17.1387-11.6211 31.6895-11.6211ZM31.5918-19.4824C21.582-19.4824 16.5527-25.0488 16.5527-32.2754C16.5527-38.1836 19.9707-43.457 28.2715-45.6543C31.0059-46.3379 31.9824-47.6074 32.1777-50.3906C33.3008-66.3086 45.3125-77.7832 59.4727-77.7832C70.4102-77.7832 79.0527-71.7773 84.3262-60.9375C85.498-58.5938 86.9141-57.7637 89.7949-57.7637C104.248-57.7637 112.402-49.0234 112.402-38.623C112.402-27.9785 103.906-19.4824 92.7734-19.4824ZM96.7773-0.341797L33.252-0.341797C31.543-0.341797 30.1758 0.976562 30.1758 2.73438C30.1758 4.49219 31.543 5.85938 33.252 5.85938L96.7773 5.85938C98.4863 5.85938 99.8535 4.49219 99.8535 2.73438C99.8535 0.976562 98.4863-0.341797 96.7773-0.341797ZM96.7773 16.2598L33.252 16.2598C31.543 16.2598 30.1758 17.5781 30.1758 19.3359C30.1758 21.0938 31.543 22.4121 33.252 22.4121L96.7773 22.4121C98.4863 22.4121 99.8535 21.0938 99.8535 19.3359C99.8535 17.5781 98.4863 16.2598 96.7773 16.2598Z"/>
  </g>
  <g id="Light-M" transform="matrix(1 0 0 1 1089.05 1126)">
   <path d="M31.0547-12.6465L91.9434-12.6465C107.617-12.6465 119.434-24.4629 119.434-39.209C119.434-54.3457 106.885-65.4297 90.6738-65.4297C84.5703-77.7344 73.5352-85.5957 59.1309-85.5957C41.0645-85.5957 26.2207-71.2402 24.6582-53.0762C15.7227-50.5859 8.74023-43.1152 8.74023-32.8613C8.74023-21.7285 16.9434-12.6465 31.0547-12.6465ZM30.957-18.6035C20.3125-18.6035 14.6973-24.8535 14.6973-32.7148C14.6973-39.4531 18.9453-45.1172 27.4414-47.3633C29.6875-47.9492 30.4688-48.9746 30.6641-51.1719C31.7383-67.3828 44.4336-79.6387 59.1309-79.6387C71.1426-79.6387 80.1758-72.9492 85.4492-62.0605C86.4258-60.0098 87.6465-59.3262 90.0391-59.3262C104.346-59.3262 113.428-50.1953 113.428-39.0137C113.428-27.7344 104.248-18.6035 92.2852-18.6035ZM96.9238-0.683594L32.2754-0.683594C30.8594-0.683594 29.7852 0.390625 29.7852 1.75781C29.7852 3.17383 30.8594 4.19922 32.2754 4.19922L96.9238 4.19922C98.3398 4.19922 99.4629 3.17383 99.4629 1.75781C99.4629 0.390625 98.3398-0.683594 96.9238-0.683594ZM96.9238 15.918L32.2754 15.918C30.8594 15.918 29.7852 16.9434 29.7852 18.3594C29.7852 19.7266 30.8594 20.8008 32.2754 20.8008L96.9238 20.8008C98.3398 20.8008 99.4629 19.7266 99.4629 18.3594C99.4629 16.9434 98.3398 15.918 96.9238 15.918Z"/>
  </g>
  <g id="Thin-M" transform="matrix(1 0 0 1 792.897 1126)">
   <path d="M30.1758-13.9648L91.5039-13.9648C106.641-13.9648 118.311-25.3418 118.311-39.6484C118.311-54.248 106.104-64.9902 90.2344-64.9902C84.1309-77.5391 73.5352-85.5957 58.6914-85.5957C41.0645-85.5957 26.6113-71.2402 25.0977-53.0762C16.0156-50.6836 8.74023-43.5059 8.74023-33.3008C8.74023-22.7051 16.6016-13.9648 30.1758-13.9648ZM30.127-17.4805C18.6523-17.4805 12.2559-24.6094 12.2559-33.252C12.2559-41.1133 17.5781-47.3633 26.2695-49.6582C27.9785-50.0977 28.5645-50.7812 28.6133-52.2461C29.5898-68.7988 43.2617-82.0801 58.6914-82.0801C72.1191-82.0801 81.6406-74.5117 86.9629-63.4766C87.6953-61.9629 88.5742-61.4258 90.4297-61.4258C104.541-61.4258 114.795-51.7578 114.795-39.502C114.795-27.3926 104.639-17.4805 91.6504-17.4805ZM97.168-1.12305L30.957-1.12305C29.9805-1.12305 29.1992-0.488281 29.1992 0.439453C29.1992 1.36719 29.9805 2.05078 30.957 2.05078L97.168 2.05078C98.0957 2.05078 98.877 1.36719 98.877 0.439453C98.877-0.488281 98.0957-1.12305 97.168-1.12305ZM97.168 15.4297L30.957 15.4297C29.9805 15.4297 29.1992 16.1133 29.1992 17.041C29.1992 17.9199 29.9805 18.6035 30.957 18.6035L97.168 18.6035C98.0957 18.6035 98.877 17.9199 98.877 17.041C98.877 16.1133 98.0957 15.4297 97.168 15.4297Z"/>
  </g>
  <g id="Ultralight-M" transform="matrix(1 0 0 1 496.454 1126)">
   <path d="M29.6875-14.5996L91.3086-14.5996C106.152-14.5996 117.773-25.8301 117.773-39.8926C117.773-54.1992 105.664-64.7949 89.9902-64.7949C83.8867-77.4414 73.5352-85.5957 58.4473-85.5957C41.0645-85.5957 26.8066-71.2402 25.3418-53.0762C16.1621-50.7324 8.74023-43.7012 8.74023-33.5449C8.74023-23.1934 16.4551-14.5996 29.6875-14.5996ZM29.6875-16.8945C17.7734-16.8945 10.9863-24.4629 10.9863-33.5449C10.9863-41.9922 16.8457-48.4863 25.6836-50.8301C27.0996-51.1719 27.5391-51.709 27.5879-52.832C28.5156-69.5312 42.6758-83.3496 58.4473-83.3496C72.6074-83.3496 82.4219-75.3418 87.6953-64.2578C88.3301-62.9395 89.0625-62.5 90.5762-62.5C104.59-62.5 115.479-52.5391 115.479-39.7461C115.479-27.1973 104.883-16.8945 91.3086-16.8945ZM97.2656-1.36719L30.2734-1.36719C29.541-1.36719 28.9551-0.878906 28.9551-0.244141C28.9551 0.439453 29.541 0.927734 30.2734 0.927734L97.2656 0.927734C97.998 0.927734 98.6328 0.439453 98.6328-0.244141C98.6328-0.878906 97.998-1.36719 97.2656-1.36719ZM97.2656 15.1855L30.2734 15.1855C29.541 15.1855 28.9551 15.6738 28.9551 16.3574C28.9551 17.041 29.541 17.4805 30.2734 17.4805L97.2656 17.4805C97.998 17.4805 98.6328 17.041 98.6328 16.3574C98.6328 15.6738 97.998 15.1855 97.2656 15.1855Z"/>
  </g>
  <g id="Black-S" transform="matrix(1 0 0 1 2879.15 696)">
   <path d="M28.1738-13.9648L76.8066-13.9648C90.8691-13.9648 101.66-24.707 101.66-38.4766C101.66-52.2949 91.1621-63.2324 77.1484-63.2324C72.8516-71.4355 64.8926-78.5156 50.5371-78.5156C34.5215-78.5156 22.4609-67.2852 20.1172-52.832C12.5488-50.0488 6.83594-43.4082 6.83594-34.2773C6.83594-22.7539 15.5762-13.9648 28.1738-13.9648ZM28.6621-26.2695C22.2656-26.2695 19.1406-29.4922 19.1406-34.082C19.1406-38.4277 21.9727-41.3574 27.832-42.8711C30.4688-43.5547 31.1035-44.7266 31.543-47.3633C33.6914-60.2051 41.0645-66.2109 50.5371-66.2109C57.6172-66.2109 63.6719-62.1094 67.9199-54.3457C69.0918-52.1973 70.3125-51.416 72.998-51.416C84.4727-51.416 89.3555-45.7031 89.3555-38.2324C89.3555-31.4453 84.375-26.2695 76.3184-26.2695ZM78.3203-4.6875L30.957-4.6875C28.9062-4.6875 27.3438-3.27148 27.3438-1.36719C27.3438 0.537109 28.9062 1.95312 30.957 1.95312L78.3203 1.95312C80.3711 1.95312 81.9336 0.537109 81.9336-1.36719C81.9336-3.27148 80.3711-4.6875 78.3203-4.6875ZM78.3203 8.30078L30.957 8.30078C28.9062 8.30078 27.3438 9.7168 27.3438 11.6211C27.3438 13.5254 28.9062 14.9414 30.957 14.9414L78.3203 14.9414C80.3711 14.9414 81.9336 13.5254 81.9336 11.6211C81.9336 9.7168 80.3711 8.30078 78.3203 8.30078Z"/>
  </g>
  <g id="Heavy-S" transform="matrix(1 0 0 1 2583.27 696)">
   <path d="M27.4414-14.502L75.7812-14.502C89.5508-14.502 100-25 100-38.3301C100-51.8066 89.5996-62.3047 75.7812-62.3047C71.3867-70.8008 63.1836-77.6367 49.6582-77.6367C33.9844-77.6367 21.9238-66.3574 19.8242-52.002C12.4023-49.3652 6.83594-42.8711 6.83594-33.9844C6.83594-22.998 15.0879-14.502 27.4414-14.502ZM27.832-25.5859C21.1426-25.5859 17.9199-29.0039 17.9199-33.7402C17.9199-38.0859 20.6055-41.2109 26.6113-42.7734C29.1504-43.457 29.834-44.6289 30.2246-47.2168C32.0801-59.9121 39.8438-66.5527 49.6582-66.5527C56.9336-66.5527 63.1348-62.4023 67.334-54.4434C68.457-52.3438 69.7266-51.5625 72.3633-51.5625C83.7891-51.5625 88.916-45.6543 88.916-38.0859C88.916-31.0547 83.6426-25.5859 75.5371-25.5859ZM77.6855-5.41992L29.8828-5.41992C27.9785-5.41992 26.5137-4.05273 26.5137-2.24609C26.5137-0.390625 27.9785 0.976562 29.8828 0.976562L77.6855 0.976562C79.6387 0.976562 81.1035-0.390625 81.1035-2.24609C81.1035-4.05273 79.6387-5.41992 77.6855-5.41992ZM77.6855 7.56836L29.8828 7.56836C27.9785 7.56836 26.5137 8.93555 26.5137 10.7422C26.5137 12.5977 27.9785 13.9648 29.8828 13.9648L77.6855 13.9648C79.6387 13.9648 81.1035 12.5977 81.1035 10.7422C81.1035 8.93555 79.6387 7.56836 77.6855 7.56836Z"/>
  </g>
  <g id="Bold-S" transform="matrix(1 0 0 1 2287.49 696)">
   <path d="M26.6602-15.1367L74.6094-15.1367C88.0371-15.1367 98.1445-25.3418 98.1445-38.1836C98.1445-51.2695 87.8418-61.2793 74.2676-61.2793C69.7266-70.0684 61.2793-76.6113 48.6328-76.6113C33.3496-76.6113 21.2891-65.3809 19.5312-51.0254C12.2559-48.6328 6.83594-42.2363 6.83594-33.6426C6.83594-23.2422 14.5508-15.1367 26.6602-15.1367ZM26.8555-24.8047C19.873-24.8047 16.5039-28.418 16.5039-33.3984C16.5039-37.6953 19.043-41.1133 25.1953-42.7246C27.6855-43.3594 28.418-44.4824 28.7598-47.0215C30.2734-59.6191 38.4766-66.9434 48.6328-66.9434C56.2012-66.9434 62.5488-62.6953 66.6992-54.5898C67.8223-52.4902 69.043-51.7578 71.582-51.7578C83.0566-51.7578 88.4766-45.6055 88.4766-37.9883C88.4766-30.5664 82.8125-24.8047 74.6094-24.8047ZM77.002-6.20117L28.7109-6.20117C26.9531-6.20117 25.5859-4.93164 25.5859-3.17383C25.5859-1.46484 26.9531-0.146484 28.7109-0.146484L77.002-0.146484C78.8086-0.146484 80.1758-1.46484 80.1758-3.17383C80.1758-4.93164 78.8086-6.20117 77.002-6.20117ZM77.002 6.78711L28.7109 6.78711C26.9531 6.78711 25.5859 8.05664 25.5859 9.81445C25.5859 11.5234 26.9531 12.8418 28.7109 12.8418L77.002 12.8418C78.8086 12.8418 80.1758 11.5234 80.1758 9.81445C80.1758 8.05664 78.8086 6.78711 77.002 6.78711Z"/>
  </g>
  <g id="Semibold-S" transform="matrix(1 0 0 1 1991.44 696)">
   <path d="M26.123-15.5273L73.8281-15.5273C87.0117-15.5273 96.8262-25.5371 96.8262-38.0859C96.8262-50.9277 86.6211-60.5469 73.2422-60.5469C68.6035-69.5801 59.9121-75.9277 47.9492-75.9277C32.9102-75.9277 20.8984-64.6484 19.2871-50.3906C12.1582-48.0957 6.83594-41.7969 6.83594-33.3984C6.83594-23.3887 14.209-15.5273 26.123-15.5273ZM26.2207-24.2676C19.043-24.2676 15.5273-28.0273 15.5273-33.1543C15.5273-37.4023 18.0176-41.0156 24.2676-42.6758C26.6602-43.3105 27.4414-44.3848 27.7344-46.9238C29.0039-59.4238 37.5488-67.1875 47.9492-67.1875C55.7129-67.1875 62.1094-62.8906 66.2598-54.6875C67.334-52.6367 68.5547-51.9043 71.0938-51.9043C82.5195-51.9043 88.1348-45.5566 88.1348-37.8906C88.1348-30.2734 82.2266-24.2676 74.0234-24.2676ZM76.5625-6.73828L27.9297-6.73828C26.2207-6.73828 24.9512-5.51758 24.9512-3.85742C24.9512-2.14844 26.2207-0.927734 27.9297-0.927734L76.5625-0.927734C78.2227-0.927734 79.541-2.14844 79.541-3.85742C79.541-5.51758 78.2227-6.73828 76.5625-6.73828ZM76.5625 6.25L27.9297 6.25C26.2207 6.25 24.9512 7.4707 24.9512 9.13086C24.9512 10.8398 26.2207 12.0605 27.9297 12.0605L76.5625 12.0605C78.2227 12.0605 79.541 10.8398 79.541 9.13086C79.541 7.4707 78.2227 6.25 76.5625 6.25Z"/>
  </g>
  <g id="Medium-S" transform="matrix(1 0 0 1 1695.21 696)">
   <path d="M25.6836-15.8691L73.2422-15.8691C86.2305-15.8691 95.8496-25.7324 95.8496-37.9883C95.8496-50.6348 85.7422-60.0098 72.4609-60.0098C67.7734-69.1895 58.9355-75.3906 47.4121-75.3906C32.6172-75.3906 20.5566-64.1113 19.1406-49.8535C12.1094-47.7051 6.83594-41.5039 6.83594-33.2031C6.83594-23.5352 13.916-15.8691 25.6836-15.8691ZM25.6836-23.8281C18.3594-23.8281 14.8438-27.7344 14.8438-32.959C14.8438-37.207 17.1875-40.918 23.5352-42.627C25.8789-43.2617 26.709-44.3359 26.9531-46.8262C28.0762-59.2773 36.8164-67.4316 47.4121-67.4316C55.3223-67.4316 61.8164-63.0859 65.918-54.7852C66.9922-52.6855 68.2129-52.002 70.7031-52.002C82.1289-52.002 87.8906-45.5078 87.8906-37.793C87.8906-30.0293 81.8359-23.8281 73.5352-23.8281ZM76.1719-7.17773L27.2949-7.17773C25.6836-7.17773 24.4629-5.95703 24.4629-4.3457C24.4629-2.73438 25.6836-1.51367 27.2949-1.51367L76.1719-1.51367C77.7832-1.51367 79.0527-2.73438 79.0527-4.3457C79.0527-5.95703 77.7832-7.17773 76.1719-7.17773ZM76.1719 5.81055L27.2949 5.81055C25.6836 5.81055 24.4629 7.03125 24.4629 8.64258C24.4629 10.2539 25.6836 11.4746 27.2949 11.4746L76.1719 11.4746C77.7832 11.4746 79.0527 10.2539 79.0527 8.64258C79.0527 7.03125 77.7832 5.81055 76.1719 5.81055Z"/>
  </g>
  <g id="Regular-S" transform="matrix(1 0 0 1 1399.14 696)">
   <path d="M25.1465-16.2598L72.4609-16.2598C85.2051-16.2598 94.5801-25.9277 94.5801-37.8906C94.5801-50.293 84.5215-59.3262 71.4355-59.3262C66.6504-68.7012 57.6172-74.707 46.7285-74.707C32.1777-74.707 20.166-63.4277 18.8965-49.2188C12.0117-47.168 6.83594-41.0645 6.83594-32.959C6.83594-23.6816 13.5254-16.2598 25.1465-16.2598ZM25.0488-23.291C17.5293-23.291 13.8672-27.3438 13.8672-32.7148C13.8672-36.9141 16.1621-40.8203 22.5586-42.5293C24.9023-43.1641 25.7324-44.2383 25.9277-46.7285C26.8555-59.0332 35.8887-67.6758 46.7285-67.6758C54.7852-67.6758 61.4258-63.2812 65.5273-54.834C66.5039-52.832 67.7246-52.0996 70.2148-52.0996C81.5918-52.0996 87.5488-45.5078 87.5488-37.6953C87.5488-29.6875 81.25-23.291 72.9004-23.291ZM75.7324-7.71484L26.5137-7.71484C25-7.71484 23.8281-6.54297 23.8281-4.98047C23.8281-3.41797 25-2.24609 26.5137-2.24609L75.7324-2.24609C77.1973-2.24609 78.418-3.41797 78.418-4.98047C78.418-6.54297 77.1973-7.71484 75.7324-7.71484ZM75.7324 5.27344L26.5137 5.27344C25 5.27344 23.8281 6.44531 23.8281 8.00781C23.8281 9.57031 25 10.7422 26.5137 10.7422L75.7324 10.7422C77.1973 10.7422 78.418 9.57031 78.418 8.00781C78.418 6.44531 77.1973 5.27344 75.7324 5.27344Z"/>
  </g>
  <g id="Light-S" transform="matrix(1 0 0 1 1102.79 696)">
   <path d="M24.5605-17.1387L72.168-17.1387C84.5703-17.1387 93.8477-26.5137 93.8477-38.1836C93.8477-50.2441 83.9844-59.0332 71.1426-59.0332C66.3574-68.5547 57.6172-74.707 46.4355-74.707C32.1777-74.707 20.4102-63.4277 19.1895-49.2188C12.207-47.2168 6.83594-41.3086 6.83594-33.252C6.83594-24.3652 13.3301-17.1387 24.5605-17.1387ZM24.5117-22.5586C16.4062-22.5586 12.207-27.1973 12.207-33.1055C12.207-38.0371 15.2344-42.334 21.8262-44.0918C23.7305-44.5801 24.4629-45.459 24.6094-47.4121C25.4395-60.0098 35.1074-69.3359 46.4355-69.3359C55.4688-69.3359 62.4023-64.3066 66.5039-55.8105C67.334-54.1016 68.3594-53.5156 70.459-53.5156C81.6895-53.5156 88.4766-46.5332 88.4766-38.0371C88.4766-29.4434 81.543-22.5586 72.4609-22.5586ZM75.8789-8.00781L25.6348-8.00781C24.4141-8.00781 23.4375-7.08008 23.4375-5.85938C23.4375-4.63867 24.4141-3.71094 25.6348-3.71094L75.8789-3.71094C77.0508-3.71094 78.0273-4.63867 78.0273-5.85938C78.0273-7.08008 77.0508-8.00781 75.8789-8.00781ZM75.8789 4.98047L25.6348 4.98047C24.4141 4.98047 23.4375 5.9082 23.4375 7.12891C23.4375 8.34961 24.4141 9.27734 25.6348 9.27734L75.8789 9.27734C77.0508 9.27734 78.0273 8.34961 78.0273 7.12891C78.0273 5.9082 77.0508 4.98047 75.8789 4.98047Z"/>
  </g>
  <g id="Thin-S" transform="matrix(1 0 0 1 806.544 696)">
   <path d="M23.7793-18.3105L71.7773-18.3105C83.7402-18.3105 92.9199-27.3438 92.9199-38.623C92.9199-50.1465 83.252-58.6426 70.752-58.6426C65.9668-68.4082 57.6172-74.707 46.0449-74.707C32.1777-74.707 20.752-63.4277 19.5801-49.2188C12.4512-47.3145 6.83594-41.6504 6.83594-33.6426C6.83594-25.2441 13.0859-18.3105 23.7793-18.3105ZM23.7793-21.5332C14.8926-21.5332 10.0586-26.9531 10.0586-33.5938C10.0586-39.5508 14.0137-44.2871 20.8008-46.0938C22.2656-46.4844 22.7051-47.0703 22.8027-48.3887C23.584-61.2793 34.082-71.4844 46.0449-71.4844C56.2988-71.4844 63.6719-65.7227 67.8223-57.0801C68.457-55.8105 69.1895-55.3711 70.752-55.3711C81.8359-55.3711 89.6484-47.8516 89.6484-38.4766C89.6484-29.1504 81.8848-21.5332 71.9238-21.5332ZM76.0254-8.44727L24.4629-8.44727C23.6328-8.44727 22.9492-7.8125 22.9492-7.03125C22.9492-6.20117 23.6328-5.61523 24.4629-5.61523L76.0254-5.61523C76.9043-5.61523 77.5391-6.20117 77.5391-7.03125C77.5391-7.8125 76.9043-8.44727 76.0254-8.44727ZM76.0254 4.54102L24.4629 4.54102C23.6328 4.54102 22.9492 5.17578 22.9492 5.95703C22.9492 6.78711 23.6328 7.37305 24.4629 7.37305L76.0254 7.37305C76.9043 7.37305 77.5391 6.78711 77.5391 5.95703C77.5391 5.17578 76.9043 4.54102 76.0254 4.54102Z"/>
  </g>
  <g id="Ultralight-S" transform="matrix(1 0 0 1 510.102 696)">
   <path d="M23.3887-18.8965L71.582-18.8965C83.3008-18.8965 92.3828-27.7344 92.3828-38.8184C92.3828-50.0977 82.9102-58.4473 70.5566-58.4473C65.7715-68.3105 57.6172-74.707 45.8496-74.707C32.1777-74.707 20.9473-63.4277 19.7754-49.2188C12.5977-47.3633 6.83594-41.7969 6.83594-33.8379C6.83594-25.6836 12.9395-18.8965 23.3887-18.8965ZM23.3887-20.9961C14.1602-20.9961 8.93555-26.8555 8.93555-33.8379C8.93555-40.2832 13.3789-45.3125 20.2637-47.1191C21.4844-47.4121 21.8262-47.9004 21.875-48.877C22.6074-61.9141 33.5449-72.6074 45.8496-72.6074C56.7383-72.6074 64.3555-66.4551 68.5059-57.7637C68.9941-56.6895 69.6289-56.3477 70.8984-56.3477C81.9336-56.3477 90.2832-48.584 90.2832-38.7207C90.2832-29.0039 82.0801-20.9961 71.582-20.9961ZM76.1719-8.64258L23.877-8.64258C23.2422-8.64258 22.7051-8.20312 22.7051-7.61719C22.7051-7.03125 23.2422-6.5918 23.877-6.5918L76.1719-6.5918C76.7578-6.5918 77.2949-7.03125 77.2949-7.61719C77.2949-8.20312 76.7578-8.64258 76.1719-8.64258ZM76.1719 4.3457L23.877 4.3457C23.2422 4.3457 22.7051 4.78516 22.7051 5.37109C22.7051 5.95703 23.2422 6.39648 23.877 6.39648L76.1719 6.39648C76.7578 6.39648 77.2949 5.95703 77.2949 5.37109C77.2949 4.78516 76.7578 4.3457 76.1719 4.3457Z"/>
  </g>
 </g>
</svg>
