<?xml version="1.0" encoding="UTF-8"?>
<!--Generator: Apple Native CoreSVG 149-->
<!DOCTYPE svg
PUBLIC "-//W3C//DTD SVG 1.1//EN"
       "http://www.w3.org/Graphics/SVG/1.1/DTD/svg11.dtd">
<svg version="1.1" xmlns="http://www.w3.org/2000/svg" xmlns:xlink="http://www.w3.org/1999/xlink" width="3300" height="2200">
 <!--glyph: "uni1001D8.medium", point size: 100.000000, font version: "Version 16.0d12e3", template writer version: "8"-->
 <g id="Notes">
  <rect height="2200" id="artboard" style="fill:white;opacity:1" width="3300" x="0" y="0"/>
  <line id="" style="fill:none;stroke:black;opacity:1;stroke-width:0.5;" x1="263" x2="3036" y1="292" y2="292"/>
  <text style="stroke:none;fill:black;font-family:-apple-system,&quot;SF Pro Display&quot;,&quot;SF Pro Text&quot;,Helvetica,sans-serif;font-weight:bold;" transform="matrix(1 0 0 1 263 322)">Weight/Scale Variations</text>
  <text style="stroke:none;fill:black;font-family:-apple-system,&quot;SF Pro Display&quot;,&quot;SF Pro Text&quot;,Helvetica,sans-serif;text-anchor:middle;" transform="matrix(1 0 0 1 559.711 322)">Ultralight</text>
  <text style="stroke:none;fill:black;font-family:-apple-system,&quot;SF Pro Display&quot;,&quot;SF Pro Text&quot;,Helvetica,sans-serif;text-anchor:middle;" transform="matrix(1 0 0 1 856.422 322)">Thin</text>
  <text style="stroke:none;fill:black;font-family:-apple-system,&quot;SF Pro Display&quot;,&quot;SF Pro Text&quot;,Helvetica,sans-serif;text-anchor:middle;" transform="matrix(1 0 0 1 1153.13 322)">Light</text>
  <text style="stroke:none;fill:black;font-family:-apple-system,&quot;SF Pro Display&quot;,&quot;SF Pro Text&quot;,Helvetica,sans-serif;text-anchor:middle;" transform="matrix(1 0 0 1 1449.84 322)">Regular</text>
  <text style="stroke:none;fill:black;font-family:-apple-system,&quot;SF Pro Display&quot;,&quot;SF Pro Text&quot;,Helvetica,sans-serif;text-anchor:middle;" transform="matrix(1 0 0 1 1746.56 322)">Medium</text>
  <text style="stroke:none;fill:black;font-family:-apple-system,&quot;SF Pro Display&quot;,&quot;SF Pro Text&quot;,Helvetica,sans-serif;text-anchor:middle;" transform="matrix(1 0 0 1 2043.27 322)">Semibold</text>
  <text style="stroke:none;fill:black;font-family:-apple-system,&quot;SF Pro Display&quot;,&quot;SF Pro Text&quot;,Helvetica,sans-serif;text-anchor:middle;" transform="matrix(1 0 0 1 2339.98 322)">Bold</text>
  <text style="stroke:none;fill:black;font-family:-apple-system,&quot;SF Pro Display&quot;,&quot;SF Pro Text&quot;,Helvetica,sans-serif;text-anchor:middle;" transform="matrix(1 0 0 1 2636.69 322)">Heavy</text>
  <text style="stroke:none;fill:black;font-family:-apple-system,&quot;SF Pro Display&quot;,&quot;SF Pro Text&quot;,Helvetica,sans-serif;text-anchor:middle;" transform="matrix(1 0 0 1 2933.4 322)">Black</text>
  <line id="" style="fill:none;stroke:black;opacity:1;stroke-width:0.5;" x1="263" x2="3036" y1="1903" y2="1903"/>
  <g id="" transform="matrix(1 0 0 1 263 1933)">
   <path d="M9.24805 0.830078C13.5547 0.830078 17.1387-2.74414 17.1387-7.05078C17.1387-11.3574 13.5449-14.9316 9.23828-14.9316C4.94141-14.9316 1.36719-11.3574 1.36719-7.05078C1.36719-2.74414 4.95117 0.830078 9.24805 0.830078ZM9.24805-0.654297C5.70312-0.654297 2.87109-3.49609 2.87109-7.05078C2.87109-10.6055 5.69336-13.4473 9.23828-13.4473C12.793-13.4473 15.6348-10.6055 15.6445-7.05078C15.6543-3.49609 12.8027-0.654297 9.24805-0.654297ZM9.22852-3.62305C9.69727-3.62305 9.9707-3.93555 9.9707-4.45312L9.9707-6.31836L12.002-6.31836C12.5-6.31836 12.832-6.57227 12.832-7.04102C12.832-7.51953 12.5195-7.7832 12.002-7.7832L9.9707-7.7832L9.9707-9.81445C9.9707-10.332 9.69727-10.6543 9.22852-10.6543C8.75977-10.6543 8.50586-10.3125 8.50586-9.81445L8.50586-7.7832L6.49414-7.7832C5.97656-7.7832 5.64453-7.51953 5.64453-7.04102C5.64453-6.57227 5.99609-6.31836 6.49414-6.31836L8.50586-6.31836L8.50586-4.45312C8.50586-3.95508 8.75977-3.62305 9.22852-3.62305Z"/>
  </g>
  <g id="" transform="matrix(1 0 0 1 281.506 1933)">
   <path d="M11.709 2.91016C17.1582 2.91016 21.6699-1.61133 21.6699-7.05078C21.6699-12.5 17.1484-17.0117 11.6992-17.0117C6.25977-17.0117 1.74805-12.5 1.74805-7.05078C1.74805-1.61133 6.26953 2.91016 11.709 2.91016ZM11.709 1.25C7.09961 1.25 3.41797-2.44141 3.41797-7.05078C3.41797-11.6602 7.08984-15.3516 11.6992-15.3516C16.3086-15.3516 20-11.6602 20.0098-7.05078C20.0195-2.44141 16.3184 1.25 11.709 1.25ZM11.6797-2.66602C12.207-2.66602 12.5098-3.01758 12.5098-3.59375L12.5098-6.23047L15.3223-6.23047C15.8691-6.23047 16.25-6.51367 16.25-7.03125C16.25-7.55859 15.8887-7.86133 15.3223-7.86133L12.5098-7.86133L12.5098-10.6836C12.5098-11.25 12.207-11.6113 11.6797-11.6113C11.1621-11.6113 10.8789-11.2305 10.8789-10.6836L10.8789-7.86133L8.07617-7.86133C7.50977-7.86133 7.13867-7.55859 7.13867-7.03125C7.13867-6.51367 7.5293-6.23047 8.07617-6.23047L10.8789-6.23047L10.8789-3.59375C10.8789-3.03711 11.1621-2.66602 11.6797-2.66602Z"/>
  </g>
  <g id="" transform="matrix(1 0 0 1 304.924 1933)">
   <path d="M14.9707 5.66406C21.9336 5.66406 27.6953-0.0976562 27.6953-7.05078C27.6953-14.0137 21.9238-19.7754 14.9609-19.7754C8.00781-19.7754 2.25586-14.0137 2.25586-7.05078C2.25586-0.0976562 8.01758 5.66406 14.9707 5.66406ZM14.9707 3.84766C8.93555 3.84766 4.08203-1.01562 4.08203-7.05078C4.08203-13.0957 8.92578-17.9492 14.9609-17.9492C21.0059-17.9492 25.8594-13.0957 25.8691-7.05078C25.8789-1.01562 21.0156 3.84766 14.9707 3.84766ZM14.9414-1.38672C15.5176-1.38672 15.8594-1.77734 15.8594-2.38281L15.8594-6.13281L19.7754-6.13281C20.3711-6.13281 20.7812-6.46484 20.7812-7.02148C20.7812-7.59766 20.3906-7.93945 19.7754-7.93945L15.8594-7.93945L15.8594-11.8652C15.8594-12.4805 15.5176-12.8711 14.9414-12.8711C14.375-12.8711 14.0527-12.4609 14.0527-11.8652L14.0527-7.93945L10.1465-7.93945C9.53125-7.93945 9.13086-7.59766 9.13086-7.02148C9.13086-6.46484 9.55078-6.13281 10.1465-6.13281L14.0527-6.13281L14.0527-2.38281C14.0527-1.79688 14.375-1.38672 14.9414-1.38672Z"/>
  </g>
  <text style="stroke:none;fill:black;font-family:-apple-system,&quot;SF Pro Display&quot;,&quot;SF Pro Text&quot;,Helvetica,sans-serif;font-weight:bold;" transform="matrix(1 0 0 1 263 1953)">Design Variations</text>
  <text style="stroke:none;fill:black;font-family:-apple-system,&quot;SF Pro Display&quot;,&quot;SF Pro Text&quot;,Helvetica,sans-serif;" transform="matrix(1 0 0 1 263 1971)">Symbols are supported in up to nine weights and three scales.</text>
  <text style="stroke:none;fill:black;font-family:-apple-system,&quot;SF Pro Display&quot;,&quot;SF Pro Text&quot;,Helvetica,sans-serif;" transform="matrix(1 0 0 1 263 1989)">For optimal layout with text and other symbols, vertically align</text>
  <text style="stroke:none;fill:black;font-family:-apple-system,&quot;SF Pro Display&quot;,&quot;SF Pro Text&quot;,Helvetica,sans-serif;" transform="matrix(1 0 0 1 263 2007)">symbols with the adjacent text.</text>
  <line id="" style="fill:none;stroke:#00AEEF;stroke-width:0.5;opacity:1.0;" x1="776" x2="776" y1="1919" y2="1933"/>
  <g id="" transform="matrix(1 0 0 1 776 1933)">
   <path d="M3.31055 0.126953C3.82812 0.126953 4.08203-0.0683594 4.26758-0.605469L5.52734-4.0625L11.2891-4.0625L12.5488-0.605469C12.7344-0.0683594 12.9883 0.126953 13.4961 0.126953C14.0137 0.126953 14.3457-0.185547 14.3457-0.673828C14.3457-0.839844 14.3164-0.986328 14.2383-1.20117L9.6582-13.3887C9.43359-13.9941 9.0332-14.2871 8.4082-14.2871C7.80273-14.2871 7.39258-13.9941 7.17773-13.3984L2.59766-1.19141C2.51953-0.976562 2.49023-0.830078 2.49023-0.664062C2.49023-0.175781 2.80273 0.126953 3.31055 0.126953ZM6.00586-5.53711L8.37891-12.1094L8.42773-12.1094L10.8008-5.53711Z"/>
  </g>
  <line id="" style="fill:none;stroke:#00AEEF;stroke-width:0.5;opacity:1.0;" x1="792.836" x2="792.836" y1="1919" y2="1933"/>
  <text style="stroke:none;fill:black;font-family:-apple-system,&quot;SF Pro Display&quot;,&quot;SF Pro Text&quot;,Helvetica,sans-serif;font-weight:bold;" transform="matrix(1 0 0 1 776 1953)">Margins</text>
  <text style="stroke:none;fill:black;font-family:-apple-system,&quot;SF Pro Display&quot;,&quot;SF Pro Text&quot;,Helvetica,sans-serif;" transform="matrix(1 0 0 1 776 1971)">Leading and trailing margins on the left and right side of each symbol</text>
  <text style="stroke:none;fill:black;font-family:-apple-system,&quot;SF Pro Display&quot;,&quot;SF Pro Text&quot;,Helvetica,sans-serif;" transform="matrix(1 0 0 1 776 1989)">can be adjusted by modifying the x-location of the margin guidelines.</text>
  <text style="stroke:none;fill:black;font-family:-apple-system,&quot;SF Pro Display&quot;,&quot;SF Pro Text&quot;,Helvetica,sans-serif;" transform="matrix(1 0 0 1 776 2007)">Modifications are automatically applied proportionally to all</text>
  <text style="stroke:none;fill:black;font-family:-apple-system,&quot;SF Pro Display&quot;,&quot;SF Pro Text&quot;,Helvetica,sans-serif;" transform="matrix(1 0 0 1 776 2025)">scales and weights.</text>
  <g id="" transform="matrix(1 0 0 1 1289 1933)">
   <path d="M2.8418 1.86523L4.54102 3.57422C5.40039 4.44336 6.38672 4.38477 7.31445 3.35938L17.4902-7.85156C17.7539-7.76367 18.0273-7.7832 18.3398-7.8418L19.4043-8.03711L20.0684-7.36328L20.0293-6.80664C19.9902-6.30859 20.1172-5.92773 20.6055-5.44922L21.3672-4.70703C21.8457-4.22852 22.4609-4.19922 22.9297-4.66797L25.8398-7.58789C26.3086-8.05664 26.2891-8.65234 25.8105-9.13086L25.0391-9.89258C24.5605-10.3711 24.1895-10.5273 23.7109-10.4883L23.1348-10.4395L22.4902-11.0742L22.7344-12.1973C22.8613-12.7637 22.7051-13.2031 22.1191-13.7891L19.9219-15.9766C16.582-19.2969 12.1484-19.2188 9.25781-16.3281C8.83789-15.918 8.80859-15.3418 9.04297-14.9512C9.27734-14.5898 9.73633-14.3555 10.3809-14.5215C11.8457-14.8633 13.3691-14.9219 14.7949-13.9844L14.209-12.5293C14.0137-12.0508 13.9844-11.6504 14.1113-11.2891L3.04688-0.898438C2.06055 0.0195312 1.98242 0.996094 2.8418 1.86523ZM10.752-15.957C13.1836-17.7344 16.4746-17.4316 18.7012-15.2051L21.1328-12.793C21.3672-12.5586 21.4062-12.373 21.3379-12.0312L21.0156-10.5469L22.5195-9.0625L23.5059-9.12109C23.7598-9.13086 23.8379-9.11133 24.0332-8.91602L24.6094-8.33984L22.168-5.89844L21.5918-6.47461C21.3965-6.66992 21.3672-6.74805 21.377-7.01172L21.4453-7.98828L19.9512-9.47266L18.4277-9.21875C18.1055-9.15039 17.959-9.17969 17.7148-9.41406L15.7129-11.416C15.459-11.6504 15.4297-11.8164 15.5859-12.1875L16.4648-14.2773C14.9023-15.7324 12.8711-16.3574 10.8398-15.7617C10.6836-15.7227 10.625-15.8496 10.752-15.957ZM5.27344 2.30469L4.10156 1.14258C3.63281 0.683594 3.74023 0.341797 4.14062-0.0195312L14.9512-10.1953L16.416-8.71094L6.42578 2.27539C6.07422 2.67578 5.74219 2.77344 5.27344 2.30469Z"/>
  </g>
  <text style="stroke:none;fill:black;font-family:-apple-system,&quot;SF Pro Display&quot;,&quot;SF Pro Text&quot;,Helvetica,sans-serif;font-weight:bold;" transform="matrix(1 0 0 1 1289 1953)">Exporting</text>
  <text style="stroke:none;fill:black;font-family:-apple-system,&quot;SF Pro Display&quot;,&quot;SF Pro Text&quot;,Helvetica,sans-serif;" transform="matrix(1 0 0 1 1289 1971)">Symbols should be outlined when exporting to ensure the</text>
  <text style="stroke:none;fill:black;font-family:-apple-system,&quot;SF Pro Display&quot;,&quot;SF Pro Text&quot;,Helvetica,sans-serif;" transform="matrix(1 0 0 1 1289 1989)">design is preserved when submitting to Xcode.</text>
  <text id="template-version" style="stroke:none;fill:black;font-family:-apple-system,&quot;SF Pro Display&quot;,&quot;SF Pro Text&quot;,Helvetica,sans-serif;text-anchor:end;" transform="matrix(1 0 0 1 3036 1933)">Template v.2.0</text>
  <text style="stroke:none;fill:black;font-family:-apple-system,&quot;SF Pro Display&quot;,&quot;SF Pro Text&quot;,Helvetica,sans-serif;text-anchor:end;" transform="matrix(1 0 0 1 3036 1951)">Requires Xcode 12 or greater</text>
  <text style="stroke:none;fill:black;font-family:-apple-system,&quot;SF Pro Display&quot;,&quot;SF Pro Text&quot;,Helvetica,sans-serif;text-anchor:end;" transform="matrix(1 0 0 1 3036 1969)">Generated from cloud.sun.bolt</text>
  <text style="stroke:none;fill:black;font-family:-apple-system,&quot;SF Pro Display&quot;,&quot;SF Pro Text&quot;,Helvetica,sans-serif;text-anchor:end;" transform="matrix(1 0 0 1 3036 1987)">Typeset at 100 points</text>
  <text style="stroke:none;fill:black;font-family:-apple-system,&quot;SF Pro Display&quot;,&quot;SF Pro Text&quot;,Helvetica,sans-serif;" transform="matrix(1 0 0 1 263 726)">Small</text>
  <text style="stroke:none;fill:black;font-family:-apple-system,&quot;SF Pro Display&quot;,&quot;SF Pro Text&quot;,Helvetica,sans-serif;" transform="matrix(1 0 0 1 263 1156)">Medium</text>
  <text style="stroke:none;fill:black;font-family:-apple-system,&quot;SF Pro Display&quot;,&quot;SF Pro Text&quot;,Helvetica,sans-serif;" transform="matrix(1 0 0 1 263 1586)">Large</text>
 </g>
 <g id="Guides">
  <g id="H-reference" style="fill:#27AAE1;stroke:none;" transform="matrix(1 0 0 1 339 696)">
   <path d="M0.976562 0L3.66211 0L12.9883-24.4629L45.752-24.4629L55.127 0L57.7637 0L30.6152-70.459L28.125-70.459ZM29.3457-67.1387L29.4434-67.1387L44.873-26.709L13.8672-26.709Z"/>
  </g>
  <line id="Baseline-S" style="fill:none;stroke:#27AAE1;opacity:1;stroke-width:0.5;" x1="263" x2="3036" y1="696" y2="696"/>
  <line id="Capline-S" style="fill:none;stroke:#27AAE1;opacity:1;stroke-width:0.5;" x1="263" x2="3036" y1="625.541" y2="625.541"/>
  <g id="H-reference" style="fill:#27AAE1;stroke:none;" transform="matrix(1 0 0 1 339 1126)">
   <path d="M0.976562 0L3.66211 0L12.9883-24.4629L45.752-24.4629L55.127 0L57.7637 0L30.6152-70.459L28.125-70.459ZM29.3457-67.1387L29.4434-67.1387L44.873-26.709L13.8672-26.709Z"/>
  </g>
  <line id="Baseline-M" style="fill:none;stroke:#27AAE1;opacity:1;stroke-width:0.5;" x1="263" x2="3036" y1="1126" y2="1126"/>
  <line id="Capline-M" style="fill:none;stroke:#27AAE1;opacity:1;stroke-width:0.5;" x1="263" x2="3036" y1="1055.54" y2="1055.54"/>
  <g id="H-reference" style="fill:#27AAE1;stroke:none;" transform="matrix(1 0 0 1 339 1556)">
   <path d="M0.976562 0L3.66211 0L12.9883-24.4629L45.752-24.4629L55.127 0L57.7637 0L30.6152-70.459L28.125-70.459ZM29.3457-67.1387L29.4434-67.1387L44.873-26.709L13.8672-26.709Z"/>
  </g>
  <line id="Baseline-L" style="fill:none;stroke:#27AAE1;opacity:1;stroke-width:0.5;" x1="263" x2="3036" y1="1556" y2="1556"/>
  <line id="Capline-L" style="fill:none;stroke:#27AAE1;opacity:1;stroke-width:0.5;" x1="263" x2="3036" y1="1485.54" y2="1485.54"/>
  <line id="left-margin" style="fill:none;stroke:#00AEEF;stroke-width:0.5;opacity:1.0;" x1="1382.24" x2="1382.24" y1="1030.79" y2="1150.12"/>
  <line id="right-margin" style="fill:none;stroke:#FF3B30;stroke-width:0.5;opacity:1.0;" x1="1517.45" x2="1517.45" y1="1030.79" y2="1150.12"/>
 </g>
 <g id="Symbols">
  <g id="Black-L" transform="matrix(1 0 0 1 2841.6 1556)">
   <path d="M138.623-104.785C142.725-104.785 146.045-108.301 146.045-112.354L146.045-123.193C146.045-127.344 142.725-130.713 138.623-130.713C134.521-130.713 131.152-127.344 131.152-123.193L131.152-112.354C131.152-108.301 134.521-104.785 138.623-104.785ZM97.998-92.4805C100.977-89.502 105.762-89.502 108.594-92.3828C111.475-95.2637 111.377-99.9512 108.496-102.93L100.928-110.693C98.0957-113.672 93.1641-113.574 90.2832-110.693C87.4023-107.812 87.5-103.027 90.3809-100.195ZM168.652-92.2852C171.533-89.4043 176.367-89.502 179.297-92.4316L186.963-100.049C189.893-102.93 189.893-107.764 187.012-110.645C184.131-113.525 179.346-113.477 176.416-110.547L168.701-102.93C165.771-100.049 165.771-95.166 168.652-92.2852ZM42.2852 8.59375L111.621 8.59375C131.934 8.59375 147.705-6.93359 147.705-26.9531C147.705-28.3691 147.656-29.7852 147.51-31.1523C161.328-34.8145 171.436-47.1191 171.436-62.3047C171.436-80.5664 156.934-95.1172 138.77-95.1172C123.34-95.1172 110.596-84.8633 106.934-70.752C98.9746-79.834 87.6465-84.7168 74.0234-84.7168C51.9043-84.7168 33.5938-68.9941 30.0293-47.0703C18.5547-43.3105 11.2793-33.1543 11.2793-20.6055C11.2793-3.66211 24.3164 8.59375 42.2852 8.59375ZM121.436-62.5488C121.436-72.1191 129.102-79.834 138.721-79.834C148.291-79.834 155.957-72.1191 155.957-62.5488C155.957-54.2969 150.195-47.4121 142.578-45.8008C137.939-53.4668 130.469-59.082 121.484-61.4746C121.436-61.8652 121.436-62.207 121.436-62.5488ZM188.525-54.9805L199.316-54.9805C203.467-54.9805 206.885-58.252 206.885-62.3535C206.885-66.4551 203.467-69.873 199.316-69.873L188.525-69.873C184.424-69.873 180.957-66.4551 180.957-62.3535C180.957-58.252 184.424-54.9805 188.525-54.9805ZM42.7246-8.74023C33.3008-8.74023 28.6133-13.5742 28.6133-20.4102C28.6133-26.4648 32.4219-31.1035 41.0156-33.3008C44.7266-34.2773 45.7031-35.9375 46.2891-39.6973C48.9746-57.8613 60.0098-67.4805 74.0234-67.4805C84.5215-67.4805 93.3105-61.4258 99.3652-50.1953C101.025-47.1191 102.734-45.9961 106.494-45.9961C122.998-45.9961 130.42-37.5 130.42-26.709C130.42-16.5527 122.754-8.74023 111.133-8.74023ZM176.367-14.1113C179.297-11.1816 184.082-11.1328 186.963-14.0137C189.844-16.8945 189.697-21.6309 186.816-24.6094L179.248-32.373C176.416-35.3027 171.484-35.2539 168.604-32.373C165.723-29.4922 165.82-24.707 168.701-21.8262ZM97.8027 29.7363L83.1055 29.7363L88.2324 19.873C88.9648 18.5059 88.3789 17.4316 86.9629 17.4316L68.6035 17.4316C66.7969 17.4316 66.1621 18.0664 65.625 19.3848L56.8848 39.2578C56.25 40.7715 56.7871 41.7969 58.4473 41.7969L70.459 41.7969L61.8164 62.7441C61.4258 63.5742 61.6699 64.3066 62.207 64.5508C62.793 64.7461 63.4766 64.5996 64.1602 63.9648L98.7305 32.959C100.195 31.6895 99.707 29.7363 97.8027 29.7363Z"/>
  </g>
  <g id="Heavy-L" transform="matrix(1 0 0 1 2546.04 1556)">
   <path d="M136.182-103.662C139.893-103.662 142.92-106.787 142.92-110.498L142.92-122.217C142.92-125.977 139.893-129.053 136.182-129.053C132.471-129.053 129.443-125.977 129.443-122.217L129.443-110.498C129.443-106.787 132.471-103.662 136.182-103.662ZM96.7773-91.4062C99.4629-88.7207 103.809-88.7207 106.396-91.3086C108.936-93.8965 108.887-98.1445 106.299-100.83L97.998-109.229C95.459-111.914 91.0156-111.865 88.4277-109.229C85.8398-106.641 85.8887-102.344 88.5254-99.707ZM165.967-91.2598C168.555-88.6719 172.949-88.7207 175.586-91.3574L183.887-99.6582C186.572-102.246 186.523-106.592 183.936-109.229C181.348-111.816 177.051-111.768 174.414-109.131L166.016-100.83C163.379-98.2422 163.428-93.8477 165.967-91.2598ZM41.1133 7.27539L110.254 7.27539C129.98 7.27539 145.361-7.76367 145.361-27.1973C145.361-28.3691 145.312-29.541 145.166-30.7129C158.691-34.4727 168.506-46.6309 168.506-61.4746C168.506-79.4434 154.199-93.7988 136.279-93.7988C121.191-93.7988 108.691-83.7891 104.98-69.9707C97.1191-78.9062 86.0352-83.8379 72.8516-83.8379C51.0254-83.8379 33.0078-68.0176 29.7852-46.3867C18.5547-42.7734 11.2793-32.9102 11.2793-20.6543C11.2793-4.44336 23.6816 7.27539 41.1133 7.27539ZM117.627-61.6699C117.627-72.0215 125.879-80.2246 136.23-80.2246C146.582-80.2246 154.785-72.0215 154.785-61.6699C154.785-53.0762 149.072-45.8984 141.211-43.75C136.523-52.5391 128.027-58.8379 117.676-60.9863C117.627-61.1816 117.627-61.4258 117.627-61.6699ZM41.4062-7.95898C31.543-7.95898 26.5625-13.2324 26.5625-20.459C26.5625-26.7578 30.5176-31.7383 39.3066-34.082C42.7734-34.9609 43.75-36.5234 44.2383-40.0391C46.6309-58.1543 58.3008-68.6035 72.8516-68.6035C83.8867-68.6035 92.9199-62.3047 98.9258-50.9277C100.488-47.998 102.148-46.9727 105.713-46.9727C122.119-46.9727 130.078-38.0371 130.078-26.9043C130.078-16.2598 121.875-7.95898 109.912-7.95898ZM185.059-54.834L196.777-54.834C200.488-54.834 203.564-57.8125 203.564-61.5234C203.564-65.2344 200.488-68.3105 196.777-68.3105L185.059-68.3105C181.348-68.3105 178.223-65.2344 178.223-61.5234C178.223-57.8125 181.348-54.834 185.059-54.834ZM174.365-13.8184C177.002-11.1816 181.299-11.1816 183.887-13.7695C186.475-16.3574 186.426-20.6543 183.789-23.3398L175.537-31.6895C172.998-34.3262 168.555-34.3262 165.967-31.6895C163.33-29.1016 163.428-24.7559 166.016-22.168ZM95.5078 28.8086L81.4453 28.8086L86.8164 18.6035C87.5488 17.2363 86.9629 16.1621 85.5469 16.1621L68.8965 16.1621C67.0898 16.1621 66.4551 16.7969 65.918 18.1152L57.373 37.5977C56.7383 39.1113 57.3242 40.0879 58.9844 40.0879L70.5078 40.0879L62.0117 60.5957C61.6211 61.4746 61.8652 62.1582 62.4023 62.4023C62.9883 62.6465 63.6719 62.5 64.3555 61.8164L96.4844 31.9824C97.9004 30.7129 97.4121 28.8086 95.5078 28.8086Z"/>
  </g>
  <g id="Bold-L" transform="matrix(1 0 0 1 2250.62 1556)">
   <path d="M133.447-102.393C136.719-102.393 139.355-105.176 139.355-108.398L139.355-121.143C139.355-124.463 136.719-127.148 133.447-127.148C130.176-127.148 127.49-124.463 127.49-121.143L127.49-108.398C127.49-105.176 130.176-102.393 133.447-102.393ZM95.4102-90.1855C97.8027-87.793 101.611-87.8418 103.906-90.0879C106.152-92.3828 106.104-96.1426 103.809-98.4863L94.7754-107.617C92.5293-109.961 88.6719-109.912 86.377-107.617C84.082-105.322 84.1309-101.514 86.4258-99.2188ZM162.988-90.0879C165.283-87.793 169.141-87.793 171.484-90.1367L180.469-99.1699C182.812-101.465 182.812-105.273 180.518-107.568C178.223-109.863 174.463-109.863 172.119-107.52L163.037-98.4863C160.742-96.1914 160.742-92.3828 162.988-90.0879ZM39.7949 5.81055L108.691 5.81055C127.832 5.81055 142.676-8.74023 142.676-27.3926C142.676-28.3691 142.676-29.2969 142.578-30.2246C155.713-34.082 165.234-46.0938 165.234-60.5469C165.234-78.2227 151.123-92.334 133.496-92.334C118.75-92.334 106.494-82.5684 102.832-69.0918C95.0684-77.8809 84.2773-82.8613 71.4844-82.8613C50.0977-82.8613 32.373-66.8945 29.541-45.6543C18.6035-42.1875 11.2793-32.666 11.2793-20.6543C11.2793-5.32227 22.9492 5.81055 39.7949 5.81055ZM113.428-60.6445C113.428-71.875 122.266-80.7129 133.496-80.7129C144.678-80.7129 153.516-71.875 153.516-60.6445C153.516-51.709 147.705-44.0918 139.648-41.4551C134.961-51.4648 125.342-58.5449 113.428-60.2539C113.428-60.3516 113.428-60.498 113.428-60.6445ZM39.9414-7.12891C29.5898-7.12891 24.2188-12.8418 24.2188-20.459C24.2188-27.0996 28.3691-32.5195 37.3535-34.9121C40.5762-35.7422 41.5527-37.1582 41.9434-40.4297C43.9941-58.4961 56.3477-69.9219 71.4844-69.9219C83.2031-69.9219 92.5293-63.2324 98.4863-51.709C99.9023-48.9746 101.465-47.998 104.785-47.998C121.143-47.998 129.736-38.6719 129.736-27.1484C129.736-15.9668 120.898-7.12891 108.545-7.12891ZM181.152-54.6387L193.945-54.6387C197.217-54.6387 199.854-57.2754 199.902-60.5469C199.902-63.8184 197.217-66.5039 193.945-66.5039L181.152-66.5039C177.93-66.5039 175.195-63.8184 175.195-60.5469C175.195-57.2754 177.93-54.6387 181.152-54.6387ZM172.119-13.5254C174.463-11.1816 178.223-11.1816 180.469-13.4766C182.764-15.7715 182.715-19.5312 180.42-21.875L171.387-30.957C169.141-33.252 165.283-33.252 162.988-30.957C160.693-28.6621 160.742-24.8535 163.037-22.5586ZM92.9688 27.7832L79.6387 27.7832L85.2539 17.1875C85.9863 15.8203 85.4004 14.7461 83.9844 14.7461L69.1895 14.7461C67.4316 14.7461 66.7969 15.3809 66.2598 16.6992L57.9102 35.6934C57.2754 37.207 57.9102 38.1836 59.5703 38.1836L70.5566 38.1836L62.207 58.252C61.8652 59.1309 62.0605 59.8145 62.6465 60.0586C63.2324 60.3027 63.916 60.1074 64.5996 59.4238L93.9941 30.9082C95.3125 29.5898 94.8242 27.7832 92.9688 27.7832Z"/>
  </g>
  <g id="Semibold-L" transform="matrix(1 0 0 1 1954.81 1556)">
   <path d="M131.543-101.514C134.521-101.514 136.963-104.053 136.963-106.934L136.963-120.41C136.963-123.389 134.521-125.83 131.543-125.83C128.564-125.83 126.172-123.389 126.172-120.41L126.172-106.934C126.172-104.053 128.564-101.514 131.543-101.514ZM94.4824-89.3066C96.6309-87.207 100.146-87.207 102.148-89.3066C104.199-91.3574 104.199-94.7754 102.1-96.875L92.5781-106.494C90.4785-108.594 87.0117-108.545 84.9609-106.494C82.8613-104.395 82.9102-100.977 85.0098-98.877ZM160.938-89.2578C162.988-87.207 166.504-87.207 168.604-89.3066L178.125-98.8281C180.273-100.928 180.225-104.395 178.174-106.494C176.074-108.545 172.705-108.545 170.557-106.445L160.986-96.875C158.887-94.8242 158.936-91.3574 160.938-89.2578ZM38.916 4.83398L107.666 4.83398C126.318 4.83398 140.869-9.375 140.869-27.5879C140.869-28.3203 140.82-29.0527 140.771-29.7852C153.711-33.8379 162.939-45.752 162.939-59.8633C162.939-77.3438 149.023-91.3574 131.592-91.3574C117.09-91.3574 105.029-81.7383 101.318-68.457C93.6523-77.1973 83.0566-82.1777 70.5078-82.1777C49.4141-82.1777 31.8848-66.1621 29.3945-45.1172C18.6035-41.748 11.2793-32.5195 11.2793-20.7031C11.2793-5.95703 22.4609 4.83398 38.916 4.83398ZM110.498-59.9609C110.498-71.7773 119.775-81.0547 131.543-81.0547C143.359-81.0547 152.637-71.7773 152.637-59.9609C152.637-50.7324 146.777-42.8223 138.477-39.8438C133.984-50.7324 123.535-58.3496 110.498-59.6191C110.498-59.7168 110.498-59.8633 110.498-59.9609ZM38.916-6.54297C28.2715-6.54297 22.6074-12.5977 22.6074-20.5078C22.6074-27.3438 26.8555-33.0078 36.0352-35.498C39.0625-36.2793 40.0391-37.6465 40.3809-40.7227C42.1875-58.6914 55.0293-70.8496 70.5078-70.8496C82.7148-70.8496 92.2363-63.916 98.1445-52.2949C99.5117-49.6582 101.025-48.7305 104.199-48.7305C120.459-48.7305 129.492-39.1113 129.492-27.3438C129.492-15.7227 120.215-6.54297 107.617-6.54297ZM178.467-54.541L191.943-54.541C194.922-54.541 197.314-56.9336 197.363-59.9121C197.363-62.8418 194.922-65.2832 191.943-65.2832L178.467-65.2832C175.586-65.2832 173.096-62.8418 173.096-59.9121C173.096-56.9336 175.586-54.541 178.467-54.541ZM170.557-13.2812C172.656-11.1816 176.074-11.2305 178.125-13.2812C180.225-15.3809 180.176-18.7988 178.125-20.8496L168.555-30.4688C166.504-32.5195 163.037-32.5195 160.938-30.4688C158.887-28.3691 158.887-24.9023 160.986-22.8516ZM91.2109 27.0996L78.418 27.0996L84.1797 16.2109C84.9121 14.8438 84.3262 13.7695 82.9102 13.7695L69.4336 13.7695C67.6758 13.7695 67.041 14.4531 66.5039 15.7227L58.3008 34.375C57.666 35.8887 58.3496 36.8652 59.9609 36.8652L70.5566 36.8652L62.3535 56.6406C62.0117 57.5195 62.207 58.1543 62.793 58.3984C63.3789 58.6426 64.1113 58.4961 64.7461 57.7637L92.2363 30.1758C93.5547 28.8574 93.0176 27.0996 91.2109 27.0996Z"/>
  </g>
  <g id="Medium-L" transform="matrix(1 0 0 1 1658.79 1556)">
   <path d="M130.127-100.879C132.861-100.879 135.107-103.174 135.107-105.859L135.107-119.824C135.107-122.607 132.861-124.805 130.127-124.805C127.393-124.805 125.146-122.607 125.146-119.824L125.146-105.859C125.146-103.174 127.393-100.879 130.127-100.879ZM93.7988-88.6719C95.752-86.7188 98.9746-86.7676 100.83-88.6719C102.734-90.5762 102.734-93.7012 100.83-95.6543L90.8691-105.615C88.9648-107.568 85.791-107.568 83.8867-105.615C81.9824-103.711 81.9824-100.537 83.8867-98.6328ZM159.424-88.6719C161.279-86.7676 164.502-86.7188 166.455-88.6719L176.367-98.584C178.32-100.537 178.271-103.711 176.367-105.615C174.463-107.52 171.338-107.568 169.385-105.615L159.424-95.6543C157.471-93.75 157.52-90.5762 159.424-88.6719ZM38.2324 4.05273L106.836 4.05273C125.195 4.05273 139.453-9.86328 139.453-27.6855C139.453-28.3203 139.453-28.9062 139.404-29.4922C152.148-33.5938 161.23-45.459 161.23-59.375C161.23-76.709 147.412-90.5762 130.127-90.5762C115.82-90.5762 103.906-81.1035 100.195-68.0176C92.627-76.6602 82.1289-81.6406 69.8242-81.6406C48.9258-81.6406 31.543-65.5762 29.248-44.7266C18.6035-41.4551 11.2793-32.373 11.2793-20.7031C11.2793-6.44531 22.0703 4.05273 38.2324 4.05273ZM108.301-59.4238C108.301-71.6797 117.871-81.2988 130.127-81.2988C142.334-81.2988 151.953-71.6797 151.953-59.4238C151.953-49.9512 146.045-41.7969 137.549-38.623C133.252-50.1465 122.168-58.252 108.301-59.1309C108.301-59.2285 108.301-59.3262 108.301-59.4238ZM38.1836-6.10352C27.2461-6.10352 21.3867-12.4023 21.3867-20.5078C21.3867-27.5391 25.7324-33.3984 35.0098-35.9375C37.9395-36.6699 38.916-37.9883 39.209-40.918C40.8203-58.8867 54.0039-71.5332 69.8242-71.5332C82.373-71.5332 91.9922-64.4043 97.9004-52.7344C99.2188-50.1953 100.684-49.3164 103.711-49.3164C119.922-49.3164 129.346-39.4531 129.346-27.4414C129.346-15.5762 119.678-6.10352 106.885-6.10352ZM176.465-54.4434L190.479-54.4434C193.213-54.4434 195.41-56.6406 195.41-59.375C195.459-62.1094 193.213-64.3555 190.479-64.3555L176.465-64.3555C173.779-64.3555 171.484-62.1094 171.484-59.375C171.484-56.6406 173.779-54.4434 176.465-54.4434ZM169.385-13.1348C171.338-11.1816 174.463-11.2305 176.367-13.1348C178.271-15.0391 178.271-18.2129 176.318-20.1172L166.406-30.0781C164.502-31.9336 161.279-31.9824 159.375-30.0781C157.471-28.125 157.52-24.9512 159.424-23.0469ZM89.8926 26.5625L77.4414 26.5625L83.3496 15.4785C84.082 14.1113 83.4961 13.0371 82.0801 13.0371L69.5801 13.0371C67.8223 13.0371 67.2363 13.6719 66.6504 14.9902L58.5938 33.3496C57.959 34.9121 58.6426 35.8398 60.2539 35.8398L70.6055 35.8398L62.5 55.4199C62.1094 56.25 62.3047 56.9336 62.9395 57.1777C63.5254 57.4219 64.209 57.2266 64.8438 56.543L90.918 29.5898C92.1875 28.2715 91.6992 26.5625 89.8926 26.5625Z"/>
  </g>
  <g id="Regular-L" transform="matrix(1 0 0 1 1362.95 1556)">
   <path d="M128.271-100C130.713-100 132.715-102.051 132.715-104.395L132.715-119.141C132.715-121.533 130.713-123.535 128.271-123.535C125.83-123.535 123.828-121.533 123.828-119.141L123.828-104.395C123.828-102.051 125.83-100 128.271-100ZM92.8711-87.8418C94.6289-86.084 97.5098-86.1328 99.1699-87.8418C100.781-89.5508 100.83-92.334 99.1699-94.043L88.6719-104.541C86.9629-106.25 84.1797-106.201 82.4707-104.541C80.7617-102.832 80.7617-100 82.4707-98.291ZM157.373-87.8418C159.033-86.1328 161.914-86.084 163.672-87.8418L174.023-98.291C175.781-100 175.732-102.832 174.023-104.541C172.314-106.201 169.58-106.25 167.822-104.541L157.373-94.043C155.664-92.334 155.713-89.5508 157.373-87.8418ZM37.3535 3.07617L105.811 3.07617C123.73 3.07617 137.646-10.498 137.646-27.8809C137.646-28.2715 137.646-28.6621 137.646-29.0527C150.146-33.3008 158.984-45.0684 158.984-58.7402C158.984-75.8789 145.312-89.5996 128.223-89.5996C114.16-89.5996 102.393-80.2734 98.6816-67.4316C91.2109-75.9277 80.9082-80.957 68.8965-80.957C48.291-80.957 31.1035-64.8438 29.1016-44.1895C18.6523-41.0645 11.2793-32.1777 11.2793-20.7031C11.2793-7.03125 21.582 3.07617 37.3535 3.07617ZM105.42-58.7402C105.42-71.582 115.43-81.6406 128.223-81.6406C141.016-81.6406 151.074-71.582 151.074-58.7402C151.074-48.9746 145.02-40.4785 136.279-36.9629C132.373-49.4141 120.41-58.0566 105.42-58.4473C105.42-58.5449 105.42-58.6426 105.42-58.7402ZM37.1582-5.51758C25.8789-5.51758 19.8242-12.1094 19.8242-20.5078C19.8242-27.7832 24.2676-33.8867 33.6914-36.4746C36.4258-37.207 37.4023-38.4277 37.6465-41.2109C39.0625-59.082 52.6855-72.4121 68.8965-72.4121C81.8848-72.4121 91.6992-65.0391 97.6074-53.2715C98.8281-50.8301 100.195-50.0488 103.076-50.0488C119.287-50.0488 129.102-39.8926 129.102-27.6367C129.102-15.3809 119.043-5.51758 105.957-5.51758ZM173.828-54.3457L188.525-54.3457C190.918-54.3457 192.871-56.2988 192.92-58.7402C192.92-61.1816 190.918-63.1348 188.525-63.1348L173.828-63.1348C171.436-63.1348 169.385-61.1816 169.385-58.7402C169.385-56.2988 171.436-54.3457 173.828-54.3457ZM167.822-12.8906C169.58-11.1816 172.314-11.2305 174.023-12.9395C175.732-14.6484 175.781-17.4316 174.023-19.1406L163.574-29.541C161.865-31.2012 159.082-31.25 157.373-29.541C155.664-27.832 155.664-25 157.373-23.291ZM88.1836 25.8789L76.2207 25.8789L82.2754 14.502C83.0078 13.1348 82.4219 12.1094 81.0547 12.1094L69.8242 12.1094C68.0664 12.1094 67.4805 12.7441 66.8945 14.0137L58.9844 32.0801C58.3008 33.5938 59.082 34.5703 60.6445 34.5703L70.6543 34.5703L62.6465 53.8086C62.3047 54.6387 62.5 55.3223 63.0859 55.5664C63.6719 55.8105 64.3555 55.6152 64.9902 54.8828L89.209 28.8574C90.4297 27.5391 89.9414 25.8789 88.1836 25.8789Z"/>
  </g>
  <g id="Light-L" transform="matrix(1 0 0 1 1066.71 1556)">
   <path d="M127.832-99.6094C129.639-99.6094 131.201-101.172 131.201-102.93L131.201-119.092C131.201-120.898 129.639-122.412 127.832-122.412C126.025-122.412 124.463-120.898 124.463-119.092L124.463-102.93C124.463-101.172 126.025-99.6094 127.832-99.6094ZM93.9941-87.4512C95.3125-86.1816 97.4609-86.1816 98.7305-87.4512C99.9512-88.7207 100-90.8691 98.7305-92.1387L87.2559-103.613C85.8887-104.932 83.8379-104.883 82.5684-103.613C81.2988-102.344 81.25-100.244 82.5684-98.9258ZM156.934-87.4512C158.203-86.1816 160.352-86.1816 161.67-87.4512L173.096-98.9258C174.414-100.244 174.365-102.344 173.096-103.613C171.826-104.883 169.775-104.932 168.457-103.613L156.934-92.1387C155.664-90.8691 155.713-88.7207 156.934-87.4512ZM36.5234 3.02734L105.322 3.02734C122.852 3.02734 136.475-10.2051 136.475-27.0508C136.475-27.6367 136.475-28.2227 136.426-28.8086C149.072-33.0078 158.008-44.8242 158.008-58.3496C158.008-75.1953 144.58-88.623 127.783-88.623C113.477-88.623 101.611-78.8574 98.4375-65.5273C91.0156-74.3164 80.7617-79.6387 68.4082-79.6387C48.1445-79.6387 31.3477-63.5254 29.4434-42.9199C18.9941-39.9414 11.2793-31.4453 11.2793-19.9219C11.2793-6.93359 21.0449 3.02734 36.5234 3.02734ZM104.248-56.7871C104.053-57.0801 103.906-57.373 103.76-57.666C103.711-57.9102 103.711-58.1055 103.711-58.3496C103.711-71.875 114.307-82.5195 127.783-82.5195C141.26-82.5195 151.855-71.875 151.855-58.3496C151.855-47.8516 145.166-38.5742 135.449-34.9121C131.885-47.7051 119.629-56.6406 104.248-56.7871ZM36.4258-3.41797C24.3652-3.41797 17.7246-10.6934 17.7246-19.7754C17.7246-27.8809 22.998-34.2773 32.5684-37.0117C34.9121-37.6465 35.6934-38.623 35.8398-40.8203C37.207-59.0332 51.6113-73.1445 68.4082-73.1445C82.4707-73.1445 92.7246-64.9902 98.6328-53.1738C99.6582-51.123 100.83-50.4395 103.271-50.4395C119.336-50.4395 130.029-39.8926 130.029-26.8555C130.029-13.916 119.287-3.41797 105.371-3.41797ZM172.266-55.0293L188.428-55.0293C190.283-55.0293 191.699-56.543 191.748-58.3496C191.797-60.2051 190.283-61.6699 188.428-61.6699L172.266-61.6699C170.459-61.6699 168.945-60.2051 168.945-58.3496C168.945-56.543 170.459-55.0293 172.266-55.0293ZM168.457-13.0371C169.775-11.7188 171.826-11.7676 173.096-13.0371C174.365-14.3066 174.414-16.4062 173.096-17.7246L161.621-29.1504C160.352-30.4199 158.203-30.4199 156.934-29.1504C155.664-27.8809 155.664-25.7324 156.934-24.4629ZM85.4492 26.6113L74.3164 26.6113L80.7129 14.5996C81.4453 13.2324 80.9082 12.207 79.4922 12.207L70.9473 12.207C69.1406 12.207 68.5059 12.8418 67.9688 14.1113L60.2051 31.8359C59.5215 33.4473 60.3516 34.375 61.9141 34.375L71.1914 34.375L63.2812 53.2227C62.9395 54.1504 63.1348 54.834 63.7695 55.0781C64.3555 55.3223 65.0879 55.127 65.7227 54.2969L86.6699 29.5898C87.7441 28.1738 87.207 26.6113 85.4492 26.6113Z"/>
  </g>
  <g id="Thin-L" transform="matrix(1 0 0 1 770.607 1556)">
   <path d="M127.295-99.1211C128.271-99.1211 129.199-100 129.199-100.928L129.199-119.092C129.199-120.068 128.271-120.898 127.295-120.898C126.27-120.898 125.391-120.068 125.391-119.092L125.391-100.928C125.391-100 126.27-99.1211 127.295-99.1211ZM156.396-86.9629C157.08-86.2305 158.301-86.2305 159.033-86.9629L171.826-99.8047C172.656-100.586 172.559-101.709 171.826-102.393C171.143-103.125 170.02-103.223 169.238-102.393L156.396-89.5996C155.664-88.8672 155.664-87.6465 156.396-86.9629ZM95.5078-86.9629C96.2402-86.2305 97.4609-86.2305 98.1445-86.9629C98.877-87.6465 98.877-88.8672 98.1445-89.5996L85.3516-102.393C84.5703-103.223 83.3984-103.125 82.7148-102.393C81.9824-101.709 81.9336-100.586 82.7148-99.8047ZM35.4492 3.02734L104.639 3.02734C121.68 3.02734 134.961-9.81445 134.961-25.9766C134.961-26.8066 134.912-27.6367 134.863-28.4668C147.656-32.6172 156.689-44.4336 156.689-57.8613C156.689-74.2676 143.555-87.4023 127.197-87.4023C112.549-87.4023 100.488-76.8555 98.1445-62.793C90.8691-72.1191 80.7129-77.8809 67.7246-77.8809C47.998-77.8809 31.6895-61.7188 29.8828-41.2109C19.4824-38.4766 11.2793-30.3711 11.2793-18.8477C11.2793-6.83594 20.3613 3.02734 35.4492 3.02734ZM103.418-54.5898C102.783-55.7617 102.148-56.8848 101.514-57.959C101.514-72.2656 112.793-83.6426 127.197-83.6426C141.602-83.6426 152.93-72.2656 152.93-57.8613C152.93-46.3867 145.312-36.084 134.277-32.2266C131.299-45.2637 118.994-54.4922 103.418-54.5898ZM35.4004-0.683594C22.3145-0.683594 14.9902-8.83789 14.9902-18.7988C14.9902-27.9785 21.2891-34.8145 31.1035-37.7441C32.8613-38.2324 33.3984-38.916 33.4961-40.3809C34.7656-58.9844 50.1465-74.1699 67.7246-74.1699C83.252-74.1699 94.043-64.8926 100-53.0762C100.781-51.5137 101.66-50.9766 103.516-50.9766C119.385-50.9766 131.25-39.8438 131.25-25.8301C131.25-11.9629 119.58-0.683594 104.639-0.683594ZM170.215-56.0059L188.33-56.0059C189.453-56.0059 190.186-56.8359 190.234-57.8613C190.332-58.8379 189.453-59.668 188.33-59.668L170.215-59.668C169.189-59.668 168.359-58.8379 168.359-57.8613C168.359-56.8359 169.189-56.0059 170.215-56.0059ZM169.238-13.1836C170.02-12.4023 171.143-12.5 171.826-13.1836C172.559-13.916 172.656-15.0391 171.826-15.8203L159.033-28.6621C158.301-29.3457 157.08-29.3457 156.396-28.6621C155.664-27.9297 155.664-26.709 156.396-26.0254ZM81.8359 27.5879L71.8262 27.5879L78.7109 14.7949C79.4434 13.4277 78.8574 12.3047 77.4414 12.3047L72.4121 12.3047C70.5566 12.3047 69.9219 12.9395 69.3359 14.3066L61.8164 31.543C61.084 33.2031 62.1094 34.1309 63.623 34.1309L71.875 34.1309L64.1602 52.4902C63.7695 53.4668 64.0137 54.1504 64.6484 54.3945C65.2832 54.6387 66.0645 54.4434 66.6504 53.5645L83.252 30.5176C84.2285 29.0527 83.6426 27.5879 81.8359 27.5879Z"/>
  </g>
  <g id="Ultralight-L" transform="matrix(1 0 0 1 474.213 1556)">
   <path d="M127.002-98.8281C127.588-98.8281 128.174-99.4141 128.174-99.9023L128.174-119.043C128.174-119.678 127.588-120.166 127.002-120.166C126.367-120.166 125.83-119.678 125.83-119.043L125.83-99.9023C125.83-99.4141 126.367-98.8281 127.002-98.8281ZM96.2891-86.6699C96.7285-86.2793 97.4609-86.2793 97.9004-86.6699C98.291-87.1094 98.291-87.8418 97.9004-88.2812L84.375-101.807C83.8379-102.295 83.2031-102.246 82.7637-101.807C82.3242-101.367 82.2754-100.732 82.7637-100.195ZM156.104-86.6699C156.543-86.2793 157.275-86.2793 157.666-86.6699L171.191-100.195C171.729-100.732 171.631-101.367 171.191-101.807C170.801-102.246 170.117-102.295 169.629-101.807L156.104-88.2812C155.664-87.8418 155.664-87.1094 156.104-86.6699ZM34.8633 3.02734L104.297 3.02734C121.045 3.02734 134.18-9.61914 134.18-25.4395C134.18-26.416 134.131-27.3438 134.033-28.2715C146.924-32.4219 156.006-44.2871 156.006-57.5684C156.006-73.8281 143.066-86.7676 126.904-86.7676C112.012-86.7676 99.8535-75.7812 98.0469-61.3281C90.8203-70.8984 80.7129-76.9531 67.3828-76.9531C47.9004-76.9531 31.8359-60.791 30.127-40.332C19.7266-37.7441 11.2793-29.8828 11.2793-18.2617C11.2793-6.78711 20.0195 3.02734 34.8633 3.02734ZM102.979-53.4668C102.148-55.0293 101.27-56.543 100.391-58.0078C100.586-72.6562 112.207-84.1797 126.904-84.1797C141.748-84.1797 153.467-72.4121 153.467-57.5684C153.467-45.6055 145.361-34.7656 133.643-30.8105C130.957-43.9941 118.652-53.418 102.979-53.4668ZM34.9121 0.732422C21.2891 0.732422 13.5742-7.86133 13.5742-18.3105C13.5742-28.0762 20.4102-35.0586 30.3711-38.0859C31.8359-38.5742 32.2266-39.0137 32.3242-40.1367C33.4961-58.9844 49.4141-74.6582 67.3828-74.6582C81.3477-74.6582 91.4551-67.4805 97.8027-57.959C97.8027-57.9102 97.8027-57.8125 97.8027-57.7148L97.998-57.7148C98.9746-56.2012 99.9023-54.6387 100.684-53.0273C101.367-51.709 102.1-51.2695 103.662-51.2695C119.434-51.2695 131.885-39.8438 131.885-25.293C131.885-10.9863 119.727 0.732422 104.297 0.732422ZM169.141-56.4941L188.281-56.4941C189.014-56.4941 189.404-56.9824 189.502-57.5684C189.551-58.2031 189.014-58.6426 188.281-58.6426L169.141-58.6426C168.555-58.6426 168.066-58.2031 168.066-57.5684C168.066-56.9824 168.555-56.4941 169.141-56.4941ZM97.8027-57.5684C97.8027-57.666 97.8027-57.6172 97.8027-57.7148ZM169.629-13.2812C170.117-12.7441 170.801-12.8418 171.191-13.2812C171.631-13.6719 171.729-14.3555 171.191-14.8438L157.715-28.3691C157.275-28.8086 156.543-28.8086 156.104-28.3691C155.664-27.9785 155.664-27.2461 156.104-26.8066ZM80.0293 28.125L70.5078 28.125L77.6855 14.8926C78.3691 13.5254 77.832 12.3535 76.3672 12.3535L73.1445 12.3535C71.2891 12.3535 70.6543 12.9883 70.0684 14.4043L62.6465 31.3965C61.9141 33.1055 62.9883 33.9844 64.502 33.9844L72.2168 33.9844L64.6484 52.1484C64.209 53.125 64.4531 53.8574 65.1367 54.0527C65.7715 54.2969 66.6016 54.0527 67.1387 53.1738L81.4941 31.0059C82.4219 29.541 81.7871 28.125 80.0293 28.125Z"/>
  </g>
  <g id="Black-M" transform="matrix(1 0 0 1 2860.94 1126)">
   <path d="M110.498-90.4785C113.867-90.4785 116.65-93.3594 116.65-96.7285L116.65-104.688C116.65-108.105 113.867-110.938 110.498-110.938C107.129-110.938 104.346-108.105 104.346-104.688L104.346-96.7285C104.346-93.3594 107.129-90.4785 110.498-90.4785ZM78.2227-80.8594C80.6641-78.418 84.5703-78.3691 86.9629-80.7129C89.3555-83.1055 89.209-87.0117 86.8652-89.502L81.3477-95.2148C79.0039-97.6562 74.8535-97.6074 72.5098-95.2148C70.1172-92.8223 70.2148-88.8672 72.6074-86.5234ZM134.082-80.6641C136.475-78.2715 140.479-78.418 142.822-80.8105L148.486-86.377C150.928-88.7695 150.928-92.7734 148.535-95.166C146.191-97.5098 142.236-97.4609 139.795-95.0195L134.131-89.502C131.689-87.1094 131.689-83.0566 134.082-80.6641ZM33.8867 0.488281L88.0859 0.488281C104.395 0.488281 117.09-12.0117 117.09-28.0762C117.09-29.5898 116.943-31.0547 116.748-32.5195C128.027-35.1562 136.328-44.9219 136.328-57.1289C136.328-71.4844 124.902-82.9102 110.693-82.9102C98.1445-82.9102 87.8906-74.3652 85.4004-62.7441C79.1016-70.2148 70.0684-74.0723 58.7402-74.0723C41.3086-74.0723 26.9531-61.9629 23.7305-44.6289C14.5508-41.6504 8.74023-33.4961 8.74023-23.4375C8.74023-9.61914 19.4336 0.488281 33.8867 0.488281ZM98.291-57.4219C98.291-64.1602 103.809-69.6289 110.596-69.6289C117.334-69.6289 122.852-64.1602 122.852-57.4219C122.852-51.0254 118.018-45.752 111.816-45.1172C108.545-49.7559 103.955-53.3203 98.4863-55.3223C98.3887-56.0547 98.291-56.7871 98.291-57.4219ZM149.951-51.123L157.861-51.123C161.328-51.123 164.16-53.8086 164.16-57.2266C164.16-60.5957 161.328-63.4277 157.861-63.4277L149.951-63.4277C146.582-63.4277 143.701-60.5957 143.701-57.2266C143.701-53.8086 146.582-51.123 149.951-51.123ZM34.4727-14.6484C27.3438-14.6484 23.877-18.1641 23.877-23.3398C23.877-28.0762 27.002-31.3477 33.5449-33.0078C36.4746-33.7891 37.1582-35.0586 37.6465-37.9883C40.1367-52.3438 48.2422-59.0332 58.7402-59.0332C66.6504-59.0332 73.3887-54.3457 78.125-45.752C79.4434-43.4082 80.7617-42.5293 83.7402-42.5293C96.5332-42.5293 101.953-36.1816 101.953-27.9297C101.953-20.3125 96.4844-14.6484 87.5-14.6484ZM139.697-19.3359C142.139-16.8945 146.094-16.8457 148.486-19.2383C150.879-21.582 150.732-25.4883 148.34-27.9785L142.822-33.6914C140.527-36.1328 136.377-36.084 134.033-33.6914C131.641-31.2988 131.738-27.3926 134.131-25ZM77.3926 16.748L65.5762 16.748L69.4336 9.27734C70.0195 8.20312 69.5801 7.32422 68.457 7.32422L53.3691 7.32422C51.9531 7.32422 51.416 7.8125 50.9766 8.88672L44.043 24.707C43.5547 25.8789 43.9941 26.6602 45.3125 26.6602L54.834 26.6602L47.998 43.2129C47.7051 43.8965 47.8516 44.4824 48.291 44.6777C48.7305 44.873 49.3164 44.7266 49.8535 44.2383L78.1738 19.2871C79.3457 18.3105 78.9062 16.748 77.3926 16.748Z"/>
  </g>
  <g id="Heavy-M" transform="matrix(1 0 0 1 2565.38 1126)">
   <path d="M107.91-89.3066C111.035-89.3066 113.574-91.9922 113.574-95.0684L113.574-103.613C113.574-106.787 111.035-109.375 107.91-109.375C104.785-109.375 102.295-106.787 102.295-103.613L102.295-95.0684C102.295-91.9922 104.785-89.3066 107.91-89.3066ZM76.5625-79.7852C78.8086-77.5391 82.4707-77.4902 84.6191-79.6875C86.8164-81.8359 86.7188-85.4492 84.5215-87.6953L78.5156-93.8477C76.416-96.0938 72.6562-96.0449 70.459-93.8477C68.2617-91.6504 68.3594-88.0371 70.5566-85.8398ZM131.25-79.6387C133.447-77.4414 137.109-77.5391 139.307-79.7363L145.41-85.7422C147.607-87.9395 147.607-91.6016 145.459-93.7988C143.262-95.9961 139.648-95.9473 137.402-93.7012L131.299-87.6953C129.053-85.5469 129.102-81.7871 131.25-79.6387ZM32.8125-0.927734L86.7188-0.927734C102.49-0.927734 114.795-13.0371 114.795-28.5645C114.795-29.7852 114.697-30.957 114.551-32.1289C125.391-34.9121 133.35-44.4824 133.35-56.3477C133.35-70.459 122.119-81.7383 108.057-81.7383C95.9473-81.7383 85.9863-73.584 83.3008-62.4023C77.0996-69.5801 68.3105-73.4375 57.5684-73.4375C40.3809-73.4375 26.2207-61.2793 23.3887-44.2383C14.4531-41.3086 8.74023-33.4473 8.74023-23.6816C8.74023-10.498 18.8477-0.927734 32.8125-0.927734ZM94.5801-56.543C94.5801-63.916 100.586-69.9219 108.008-69.9219C115.43-69.9219 121.387-63.916 121.387-56.543C121.387-50 116.748-44.5801 110.645-43.4082C107.08-49.1699 101.465-53.418 94.6777-55.3223C94.6289-55.7129 94.5801-56.1523 94.5801-56.543ZM146.533-50.7812L155.127-50.7812C158.252-50.7812 160.84-53.2715 160.84-56.3965C160.84-59.4727 158.252-62.0605 155.127-62.0605L146.533-62.0605C143.457-62.0605 140.82-59.4727 140.82-56.3965C140.82-53.2715 143.457-50.7812 146.533-50.7812ZM33.2031-14.3066C25.8301-14.3066 22.168-18.1641 22.168-23.5352C22.168-28.3691 25.2441-31.9824 31.9336-33.6914C34.7656-34.4238 35.4492-35.6934 35.8887-38.4766C38.0371-52.6855 46.6309-60.1074 57.5684-60.1074C65.8203-60.1074 72.7051-55.3223 77.3926-46.582C78.6621-44.2871 79.9316-43.457 82.8125-43.457C95.5566-43.457 101.416-36.8164 101.416-28.3691C101.416-20.4102 95.4102-14.3066 86.2793-14.3066ZM137.354-18.9941C139.6-16.748 143.213-16.6992 145.41-18.8965C147.559-21.0938 147.461-24.6582 145.312-26.9531L139.307-33.0566C137.158-35.3027 133.398-35.2539 131.201-33.0566C129.004-30.9082 129.102-27.2461 131.299-25.0488ZM75.6348 15.5273L64.3066 15.5273L68.3105 7.8125C68.8965 6.78711 68.457 5.9082 67.334 5.9082L53.3691 5.9082C52.002 5.9082 51.5137 6.44531 51.0742 7.4707L44.2871 22.9004C43.7988 24.0723 44.2383 24.8535 45.5566 24.8535L54.7363 24.8535L48.0469 41.0645C47.7539 41.748 47.9004 42.2852 48.3398 42.4805C48.7793 42.6758 49.3652 42.5293 49.9023 42.041L76.3672 18.0664C77.5391 17.041 77.0996 15.5273 75.6348 15.5273Z"/>
  </g>
  <g id="Bold-M" transform="matrix(1 0 0 1 2269.96 1126)">
   <path d="M105.029-88.0371C107.861-88.0371 110.156-90.4297 110.156-93.2129L110.156-102.441C110.156-105.322 107.861-107.617 105.029-107.617C102.246-107.617 99.9512-105.322 99.9512-102.441L99.9512-93.2129C99.9512-90.4297 102.246-88.0371 105.029-88.0371ZM74.7559-78.5645C76.7578-76.5137 80.0781-76.5137 81.9824-78.4668C83.9355-80.4688 83.8867-83.6914 81.9336-85.6934L75.3906-92.334C73.4863-94.3359 70.1172-94.2871 68.1641-92.334C66.2109-90.3809 66.2598-87.1094 68.2129-85.1074ZM128.125-78.4668C130.078-76.4648 133.398-76.5137 135.4-78.5156L141.943-85.0586C143.945-87.0117 143.945-90.332 141.943-92.2852C139.99-94.2871 136.768-94.2383 134.717-92.2363L128.125-85.6934C126.123-83.7402 126.172-80.4199 128.125-78.4668ZM31.6406-2.53906L85.1562-2.53906C100.391-2.53906 112.207-14.1113 112.207-29.0527C112.207-29.9316 112.158-30.8105 112.109-31.6406C122.461-34.6191 130.029-43.9941 130.029-55.4199C130.029-69.2871 118.945-80.4199 105.127-80.4199C93.5059-80.4199 83.8379-72.6562 80.957-62.0605C74.9023-68.9453 66.3574-72.7539 56.2012-72.7539C39.4043-72.7539 25.4395-60.4492 23.0469-43.75C14.4043-41.0156 8.74023-33.3984 8.74023-23.9258C8.74023-11.5234 18.2129-2.53906 31.6406-2.53906ZM90.4297-55.5176C90.4297-63.7207 96.9238-70.166 105.078-70.166C113.232-70.166 119.727-63.7207 119.727-55.5176C119.727-48.8281 115.283-43.2129 109.18-41.5039C105.518-48.4863 98.7793-53.5156 90.4785-55.0781C90.4785-55.2246 90.4297-55.3711 90.4297-55.5176ZM31.8359-14.0137C24.1699-14.0137 20.2148-18.1641 20.2148-23.7793C20.2148-28.7109 23.291-32.666 30.127-34.4727C32.8125-35.1562 33.5449-36.3281 33.9355-39.0137C35.6934-53.0762 44.873-61.3281 56.2012-61.3281C64.8926-61.3281 71.9238-56.3965 76.5625-47.5098C77.7832-45.3125 79.0039-44.4824 81.7383-44.4824C94.4824-44.4824 100.732-37.5488 100.732-28.8574C100.732-20.5078 94.2871-14.0137 84.9609-14.0137ZM142.725-50.3906L152.002-50.3906C154.834-50.3906 157.129-52.6367 157.129-55.4199C157.129-58.252 154.834-60.5469 152.002-60.5469L142.725-60.5469C139.941-60.5469 137.598-58.252 137.598-55.4199C137.598-52.6367 139.941-50.3906 142.725-50.3906ZM134.717-18.6035C136.719-16.6016 139.941-16.6016 141.943-18.5547C143.896-20.5078 143.848-23.7793 141.846-25.7812L135.352-32.373C133.398-34.375 130.029-34.3262 128.076-32.373C126.123-30.4199 126.172-27.1484 128.125-25.1465ZM73.6328 14.209L62.8418 14.209L67.041 6.25C67.627 5.17578 67.1875 4.3457 66.0645 4.3457L53.418 4.3457C52.0508 4.3457 51.5625 4.83398 51.123 5.85938L44.5312 20.8496C44.043 22.0215 44.5312 22.8027 45.8008 22.8027L54.6387 22.8027L48.0957 38.6719C47.8027 39.3066 47.9492 39.8438 48.3887 40.0391C48.8281 40.2344 49.3652 40.0879 49.9023 39.5996L74.3652 16.6504C75.4883 15.6738 75.0977 14.209 73.6328 14.209Z"/>
  </g>
  <g id="Semibold-M" transform="matrix(1 0 0 1 1974.13 1126)">
   <path d="M103.076-87.1582C105.664-87.1582 107.764-89.3555 107.764-91.9434L107.764-101.66C107.764-104.297 105.664-106.396 103.076-106.396C100.439-106.396 98.3398-104.297 98.3398-101.66L98.3398-91.9434C98.3398-89.3555 100.439-87.1582 103.076-87.1582ZM73.4863-77.6855C75.3418-75.8301 78.418-75.8301 80.1758-77.6855C81.9824-79.4922 81.9824-82.4707 80.1758-84.3262L73.2422-91.2598C71.4355-93.1152 68.4082-93.1152 66.6016-91.2598C64.7461-89.4531 64.7949-86.4258 66.6016-84.6191ZM125.928-77.6367C127.734-75.8301 130.811-75.8301 132.666-77.6855L139.551-84.5703C141.406-86.377 141.357-89.4531 139.551-91.2598C137.744-93.0664 134.766-93.0664 132.91-91.2109L125.977-84.3262C124.121-82.5195 124.17-79.4434 125.928-77.6367ZM30.8594-3.61328L84.1309-3.61328C98.9258-3.61328 110.449-14.8926 110.449-29.3945C110.449-30.0293 110.4-30.6641 110.352-31.2988C120.459-34.375 127.734-43.6523 127.734-54.7852C127.734-68.5059 116.797-79.4922 103.125-79.4922C91.7969-79.4922 82.373-72.0703 79.3945-61.7676C73.3887-68.5059 65.0391-72.2656 55.2734-72.2656C38.6719-72.2656 24.9023-59.9121 22.8027-43.457C14.3066-40.7715 8.74023-33.3984 8.74023-24.1211C8.74023-12.207 17.7734-3.61328 30.8594-3.61328ZM87.5977-54.8828C87.5977-63.5254 94.4336-70.3613 103.076-70.3613C111.719-70.3613 118.555-63.5254 118.555-54.8828C118.555-48.0469 114.209-42.2363 108.105-40.1367C104.492-47.998 96.9727-53.5645 87.5977-54.834ZM30.9082-13.7695C22.998-13.7695 18.8965-18.1641 18.8965-23.9746C18.8965-29.0039 21.9238-33.1543 28.9062-35.0098C31.4453-35.6445 32.2754-36.8164 32.5684-39.4043C34.1309-53.3203 43.6035-62.1582 55.2734-62.1582C64.2578-62.1582 71.3867-57.1289 76.0254-48.1445C77.1484-45.9961 78.418-45.2148 81.0547-45.2148C93.7012-45.2148 100.293-38.0371 100.293-29.1992C100.293-20.5566 93.5059-13.7695 84.0332-13.7695ZM140.137-50.0977L149.854-50.0977C152.441-50.0977 154.59-52.1973 154.59-54.7852C154.59-57.4219 152.441-59.5215 149.854-59.5215L140.137-59.5215C137.549-59.5215 135.352-57.4219 135.352-54.7852C135.352-52.1973 137.549-50.0977 140.137-50.0977ZM132.861-18.3105C134.717-16.4551 137.695-16.5039 139.551-18.3105C141.357-20.1172 141.309-23.1445 139.502-24.9512L132.617-31.8848C130.811-33.6914 127.734-33.6914 125.928-31.8848C124.121-30.0781 124.17-27.0508 125.977-25.2441ZM72.2656 13.3301L61.8652 13.3301L66.1621 5.12695C66.748 4.10156 66.3086 3.27148 65.1855 3.27148L53.418 3.27148C52.0508 3.27148 51.6113 3.75977 51.1719 4.78516L44.7266 19.4824C44.1895 20.6543 44.6777 21.3867 45.9473 21.3867L54.541 21.3867L48.0957 36.9629C47.8516 37.6465 47.998 38.1836 48.4375 38.3789C48.877 38.5254 49.4141 38.4277 49.9023 37.8906L72.998 15.7227C74.0723 14.6973 73.6816 13.3301 72.2656 13.3301Z"/>
  </g>
  <g id="Medium-M" transform="matrix(1 0 0 1 1678.07 1126)">
   <path d="M101.562-86.5234C104.004-86.5234 106.006-88.5742 106.006-90.9668L106.006-101.025C106.006-103.516 104.004-105.518 101.562-105.518C99.1211-105.518 97.1191-103.516 97.1191-101.025L97.1191-90.9668C97.1191-88.5742 99.1211-86.5234 101.562-86.5234ZM72.5098-77.0508C74.2676-75.293 77.1484-75.3418 78.8086-77.0508C80.4688-78.7598 80.5176-81.543 78.8086-83.252L71.6309-90.4785C69.9219-92.1875 67.0898-92.1875 65.3809-90.4785C63.6719-88.7695 63.6719-85.9375 65.4297-84.2285ZM124.316-77.0508C125.977-75.3418 128.857-75.293 130.615-77.0508L137.744-84.1797C139.453-85.9375 139.453-88.7695 137.744-90.4785C136.035-92.1875 133.252-92.1875 131.494-90.4297L124.316-83.252C122.607-81.5918 122.656-78.7598 124.316-77.0508ZM30.2246-4.44336L83.3008-4.44336C97.8516-4.44336 109.082-15.4785 109.082-29.6387C109.082-30.127 109.082-30.5664 109.082-31.0059C118.945-34.1797 125.977-43.4082 125.977-54.2969C125.977-67.9199 115.137-78.8086 101.562-78.8086C90.5273-78.8086 81.25-71.582 78.1738-61.5723C72.2656-68.1641 64.0625-71.9238 54.5898-71.9238C38.1836-71.9238 24.5117-59.5215 22.6074-43.2129C14.3066-40.5762 8.74023-33.3496 8.74023-24.2676C8.74023-12.7441 17.4316-4.44336 30.2246-4.44336ZM101.562-70.5078C110.596-70.5078 117.725-63.4277 117.725-54.3457C117.725-47.3633 113.379-41.4551 107.275-39.1113C103.76-47.6074 95.6055-53.5645 85.4492-54.541C85.4004-63.4277 92.5293-70.5078 101.562-70.5078ZM30.1758-13.5742C22.1191-13.5742 17.8711-18.1641 17.8711-24.0723C17.8711-29.1504 20.8984-33.4961 27.9785-35.4004C30.4199-36.0352 31.25-37.1582 31.543-39.6973C32.9102-53.5156 42.6758-62.793 54.5898-62.793C63.7695-62.793 70.9961-57.666 75.5859-48.6328C76.709-46.4844 77.9297-45.752 80.5176-45.752C93.1641-45.752 99.9512-38.3789 99.9512-29.4434C99.9512-20.6055 92.8711-13.5742 83.3496-13.5742ZM138.135-49.9023L148.242-49.9023C150.635-49.9023 152.637-51.8555 152.637-54.2969C152.637-56.7383 150.635-58.7402 148.242-58.7402L138.135-58.7402C135.742-58.7402 133.691-56.7383 133.691-54.2969C133.691-51.8555 135.742-49.9023 138.135-49.9023ZM131.494-18.1152C133.252-16.4062 136.035-16.4062 137.744-18.1152C139.453-19.8242 139.404-22.6562 137.695-24.3652L130.518-31.543C128.857-33.2031 125.977-33.252 124.268-31.543C122.607-29.834 122.607-26.9531 124.316-25.293ZM71.2402 12.5977L61.1328 12.5977L65.4785 4.29688C66.0645 3.27148 65.625 2.44141 64.5508 2.44141L53.4668 2.44141C52.0996 2.44141 51.6602 2.97852 51.2207 3.95508L44.8242 18.4082C44.3359 19.5801 44.8242 20.3613 46.0938 20.3613L54.4922 20.3613L48.1445 35.7422C47.8516 36.377 47.998 36.9141 48.4375 37.1094C48.9258 37.2559 49.4141 37.1582 49.9512 36.6211L71.9727 14.9902C72.998 13.9648 72.6074 12.5977 71.2402 12.5977Z"/>
  </g>
  <g id="Regular-M" transform="matrix(1 0 0 1 1382.24 1126)">
   <path d="M99.6094-85.6445C101.807-85.6445 103.662-87.5488 103.662-89.6973L103.662-100.244C103.662-102.49 101.807-104.297 99.6094-104.297C97.3633-104.297 95.5566-102.49 95.5566-100.244L95.5566-89.6973C95.5566-87.5488 97.3633-85.6445 99.6094-85.6445ZM71.2891-76.2207C72.8516-74.6094 75.5371-74.6582 77.0508-76.2207C78.5645-77.7832 78.6133-80.3711 77.0508-81.8848L69.4824-89.4531C67.9199-91.0156 65.3809-91.0156 63.8184-89.4531C62.2559-87.8906 62.2559-85.3027 63.8184-83.7402ZM122.168-76.2207C123.682-74.6582 126.318-74.6094 127.93-76.2207L135.352-83.7402C136.914-85.3027 136.914-87.8906 135.352-89.4531C133.789-91.0156 131.25-91.0156 129.688-89.4531L122.168-81.8848C120.605-80.3711 120.654-77.7832 122.168-76.2207ZM29.4434-5.56641L82.2754-5.56641C96.3867-5.56641 107.324-16.2109 107.324-29.9805C107.324-30.1758 107.324-30.4199 107.324-30.6152C116.943-33.9355 123.73-43.0176 123.73-53.6621C123.73-67.0898 112.988-77.8809 99.5605-77.8809C88.8184-77.8809 79.7852-70.9473 76.6113-61.2793C70.8008-67.7246 62.7441-71.4355 53.6621-71.4355C37.5-71.4355 23.9746-58.9355 22.3633-42.9199C14.209-40.3809 8.74023-33.3008 8.74023-24.4629C8.74023-13.4277 16.9922-5.56641 29.4434-5.56641ZM99.5605-70.7031C109.131-70.7031 116.553-63.2812 116.553-53.6621C116.553-46.5332 112.305-40.3809 106.055-37.7441C102.881-47.1191 93.8965-53.6133 82.6172-54.1504C82.8613-63.5254 90.1855-70.7031 99.5605-70.7031ZM29.248-13.3789C20.9473-13.3789 16.5527-18.1152 16.5527-24.2676C16.5527-29.3945 19.5801-33.9844 26.7578-35.8887C29.1016-36.5234 29.9805-37.5977 30.1758-40.0391C31.2988-53.7598 41.4551-63.623 53.6621-63.623C63.1348-63.623 70.5078-58.3984 75.0488-49.2676C76.0742-47.168 77.2949-46.4844 79.7852-46.4844C92.3828-46.4844 99.5117-38.8672 99.5117-29.7852C99.5117-20.6543 92.0898-13.3789 82.4219-13.3789ZM135.547-49.6094L146.094-49.6094C148.291-49.6094 150.098-51.416 150.098-53.6621C150.146-55.9082 148.291-57.7148 146.094-57.7148L135.547-57.7148C133.35-57.7148 131.494-55.9082 131.494-53.6621C131.494-51.416 133.35-49.6094 135.547-49.6094ZM129.688-17.8223C131.25-16.2598 133.789-16.3086 135.352-17.8711C136.914-19.4336 136.914-22.0215 135.352-23.584L127.832-31.0547C126.27-32.5684 123.73-32.6172 122.168-31.0547C120.605-29.4922 120.605-26.9043 122.168-25.3418ZM69.873 11.7188L60.1562 11.7188L64.6484 3.22266C65.1855 2.14844 64.7461 1.36719 63.6719 1.36719L53.4668 1.36719C52.1484 1.36719 51.709 1.9043 51.2695 2.83203L45.0195 17.041C44.4824 18.2129 45.0195 18.9453 46.2402 18.9453L54.4434 18.9453L48.1445 34.082C47.9004 34.7168 48.0469 35.2539 48.4863 35.4004C48.9258 35.5957 49.4629 35.4492 49.9512 34.9121L70.6055 14.0625C71.582 13.0371 71.2402 11.7188 69.873 11.7188Z"/>
  </g>
  <g id="Light-M" transform="matrix(1 0 0 1 1085.95 1126)">
   <path d="M99.2188-85.3027C100.928-85.3027 102.295-86.7188 102.295-88.3301L102.295-100.244C102.295-101.904 100.928-103.271 99.2188-103.271C97.5586-103.271 96.1426-101.904 96.1426-100.244L96.1426-88.3301C96.1426-86.7188 97.5586-85.3027 99.2188-85.3027ZM72.3145-75.8789C73.5352-74.6582 75.5371-74.707 76.6602-75.8789C77.832-77.0508 77.832-79.0039 76.6602-80.1758L68.2129-88.623C66.9922-89.8438 65.0879-89.7949 63.916-88.623C62.7441-87.4512 62.6953-85.498 63.916-84.3262ZM121.777-75.8789C122.949-74.707 124.951-74.6582 126.172-75.8789L134.521-84.3262C135.742-85.498 135.693-87.4512 134.521-88.623C133.35-89.7949 131.445-89.8438 130.225-88.623L121.777-80.1758C120.605-79.0039 120.654-77.0508 121.777-75.8789ZM28.6621-5.56641L81.8359-5.56641C95.6055-5.56641 106.299-15.9668 106.299-29.248C106.299-29.6387 106.299-30.0293 106.25-30.3711C115.967-33.6426 122.852-42.7734 122.852-53.3203C122.852-66.5039 112.354-77.0508 99.2188-77.0508C88.2324-77.0508 79.1016-69.6777 76.3672-59.5703C70.6055-66.2598 62.6465-70.2148 53.2227-70.2148C37.3535-70.2148 24.2188-57.7637 22.6562-41.748C14.5508-39.3555 8.74023-32.6172 8.74023-23.7305C8.74023-13.3789 16.5527-5.56641 28.6621-5.56641ZM81.1035-53.3203C81.1035-63.5254 89.0625-71.4844 99.2188-71.4844C109.375-71.4844 117.285-63.5254 117.285-53.3203C117.285-45.5078 112.451-38.6719 105.322-35.8887C102.393-45.7031 92.9688-52.5391 81.1523-52.6855C81.1035-52.8809 81.1035-53.125 81.1035-53.3203ZM28.5645-11.5234C19.5801-11.5234 14.6973-16.8457 14.6973-23.584C14.6973-29.4922 18.4082-34.3262 25.7324-36.377C27.7344-36.9141 28.418-37.793 28.5645-39.7461C29.6387-53.7109 40.4785-64.3066 53.2227-64.3066C63.6719-64.3066 71.3867-58.3008 75.9766-49.2188C76.8555-47.4121 77.8809-46.8262 79.9316-46.8262C92.4316-46.8262 100.342-38.8672 100.342-29.0527C100.342-19.3359 92.334-11.5234 81.9336-11.5234ZM134.18-50.293L146.045-50.293C147.754-50.293 149.072-51.6602 149.121-53.3203C149.121-55.0293 147.754-56.3965 146.045-56.3965L134.18-56.3965C132.52-56.3965 131.104-55.0293 131.104-53.3203C131.104-51.6602 132.52-50.293 134.18-50.293ZM130.225-17.9688C131.445-16.748 133.35-16.7969 134.521-17.9688C135.693-19.1895 135.742-21.0938 134.521-22.2656L126.074-30.7129C124.902-31.8359 122.949-31.8848 121.777-30.7129C120.605-29.541 120.605-27.5391 121.777-26.3672ZM67.4316 12.3535L58.4473 12.3535L63.2324 3.32031C63.8184 2.29492 63.3789 1.46484 62.3047 1.46484L54.4922 1.46484C53.125 1.46484 52.6367 1.95312 52.1973 2.97852L46.0938 16.8457C45.6055 18.0664 46.1914 18.7988 47.4121 18.7988L54.9316 18.7988L48.7793 33.5938C48.4863 34.2773 48.6328 34.7656 49.1211 34.9609C49.5605 35.1562 50.1465 35.0098 50.5859 34.4238L68.3105 14.6973C69.1895 13.623 68.7988 12.3535 67.4316 12.3535Z"/>
  </g>
  <g id="Thin-M" transform="matrix(1 0 0 1 789.796 1126)">
   <path d="M98.7305-84.8145C99.707-84.8145 100.537-85.6934 100.537-86.5723L100.537-100.195C100.537-101.172 99.707-101.953 98.7305-101.953C97.8027-101.953 96.9727-101.172 96.9727-100.195L96.9727-86.5723C96.9727-85.6934 97.8027-84.8145 98.7305-84.8145ZM73.6816-75.4395C74.3652-74.7559 75.5371-74.7559 76.1719-75.4395C76.8555-76.123 76.8555-77.2461 76.1719-77.8809L66.5527-87.5488C65.8203-88.2812 64.7461-88.2324 64.0625-87.5488C63.3789-86.8652 63.3301-85.791 64.0625-85.0586ZM121.289-75.4395C121.973-74.7559 123.145-74.7559 123.828-75.4395L133.447-85.0586C134.18-85.791 134.131-86.8652 133.447-87.5488C132.764-88.2324 131.689-88.2812 130.957-87.5488L121.289-77.8809C120.654-77.2461 120.654-76.123 121.289-75.4395ZM27.6855-5.56641L81.25-5.56641C94.5312-5.56641 104.932-15.625 104.932-28.3203C104.932-28.9062 104.883-29.4922 104.834-30.0781C114.746-33.3008 121.68-42.4805 121.68-52.8809C121.68-65.6738 111.475-75.9277 98.6816-75.9277C87.4023-75.9277 78.125-67.9199 76.123-57.2266C70.459-64.3066 62.5488-68.6523 52.6367-68.6523C37.207-68.6523 24.4629-56.1523 23.0469-40.2344C14.9902-38.0371 8.74023-31.6895 8.74023-22.7539C8.74023-13.2324 15.918-5.56641 27.6855-5.56641ZM80.3223-50.7324C79.9316-51.416 79.541-52.1484 79.1504-52.832L79.1504-52.8809C79.1504-63.8184 87.7441-72.5098 98.6816-72.5098C109.668-72.5098 118.262-63.8184 118.262-52.8809C118.262-44.1895 112.549-36.4258 104.297-33.4961C101.855-43.5547 92.334-50.6348 80.3223-50.7324ZM27.6367-9.0332C17.7246-9.0332 12.207-15.1855 12.207-22.7051C12.207-29.5898 16.8457-34.8145 24.4141-37.0117C25.9277-37.4512 26.3672-38.0371 26.4648-39.3066C27.4414-53.6621 39.209-65.1855 52.6367-65.1855C64.3555-65.1855 72.6074-58.252 77.1973-49.0723C77.8809-47.7539 78.6133-47.3145 80.1758-47.3145C92.5293-47.3145 101.465-38.8184 101.465-28.1738C101.465-17.627 92.627-9.0332 81.25-9.0332ZM132.373-51.123L145.996-51.123C146.973-51.123 147.705-51.9043 147.754-52.8809C147.803-53.8086 146.973-54.5898 145.996-54.5898L132.373-54.5898C131.396-54.5898 130.615-53.8086 130.615-52.8809C130.615-51.9043 131.396-51.123 132.373-51.123ZM130.957-18.1152C131.689-17.3828 132.764-17.4316 133.447-18.1152C134.131-18.7988 134.18-19.873 133.447-20.6055L123.779-30.2246C123.096-30.9082 121.973-30.9082 121.289-30.2246C120.654-29.5898 120.654-28.418 121.289-27.7344ZM64.209 13.2324L56.2012 13.2324L61.4258 3.51562C62.0117 2.44141 61.5723 1.5625 60.4492 1.5625L55.7617 1.5625C54.3945 1.5625 53.9062 2.09961 53.4668 3.125L47.5586 16.6016C47.0215 17.8711 47.7539 18.5547 48.9746 18.5547L55.5664 18.5547L49.5605 32.9102C49.2676 33.6426 49.4141 34.1797 49.9023 34.375C50.3906 34.5703 51.0254 34.375 51.4648 33.7402L65.2344 15.5273C66.0645 14.4043 65.5762 13.2324 64.209 13.2324Z"/>
  </g>
  <g id="Ultralight-M" transform="matrix(1 0 0 1 493.354 1126)">
   <path d="M98.4863-84.6191C99.1211-84.6191 99.6582-85.1562 99.6582-85.6934L99.6582-100.195C99.6582-100.781 99.1211-101.27 98.4863-101.27C97.9004-101.27 97.3633-100.781 97.3633-100.195L97.3633-85.6934C97.3633-85.1562 97.9004-84.6191 98.4863-84.6191ZM74.4141-75.1953C74.8047-74.7559 75.5371-74.7559 75.9277-75.1953C76.3672-75.5859 76.3672-76.3184 75.9277-76.7578L65.6738-87.0117C65.1855-87.5 64.5508-87.4023 64.1113-87.0117C63.7207-86.5723 63.6719-85.9375 64.1113-85.4492ZM121.045-75.1953C121.484-74.7559 122.217-74.7559 122.607-75.1953L132.861-85.4492C133.35-85.9375 133.301-86.5723 132.861-87.0117C132.471-87.4023 131.836-87.5 131.348-87.0117L121.045-76.7578C120.654-76.3184 120.654-75.5859 121.045-75.1953ZM27.1973-5.61523L80.957-5.61523C93.9941-5.61523 104.199-15.4297 104.199-27.7832C104.199-28.5156 104.199-29.1992 104.102-29.8828C114.062-33.1055 121.094-42.2852 121.094-52.6367C121.094-65.2832 111.035-75.3418 98.4375-75.3418C86.9629-75.3418 77.5879-66.9922 76.0254-55.9082C70.4102-63.2324 62.5488-67.8711 52.3438-67.8711C37.1582-67.8711 24.6094-55.3223 23.2422-39.4531C15.2344-37.4023 8.74023-31.25 8.74023-22.2656C8.74023-13.1836 15.625-5.61523 27.1973-5.61523ZM79.9316-49.707C79.3457-50.7812 78.7598-51.8555 78.125-52.8809C78.125-64.0137 87.0605-72.998 98.4375-72.998C109.814-72.998 118.75-64.0137 118.75-52.6367C118.75-43.5059 112.646-35.2539 103.76-32.2266C101.611-42.4316 92.041-49.6582 79.9316-49.707ZM27.1973-7.8125C16.7969-7.8125 10.9375-14.3066 10.9375-22.2656C10.9375-29.6387 16.0645-35.0098 23.7305-37.3535C25-37.6953 25.3418-38.1348 25.3906-39.1113C26.3184-53.6621 38.5254-65.6738 52.3438-65.6738C64.7461-65.6738 73.2422-58.2031 77.832-49.0234C78.3691-47.9492 79.0039-47.5586 80.2734-47.5586C92.5781-47.5586 102.002-38.8184 102.002-27.6855C102.002-16.748 92.7734-7.8125 80.9082-7.8125ZM131.396-51.5625L145.947-51.5625C146.631-51.5625 147.021-52.0508 147.07-52.6367C147.168-53.2227 146.631-53.7109 145.947-53.7109L131.396-53.7109C130.811-53.7109 130.371-53.2227 130.371-52.6367C130.371-52.0508 130.811-51.5625 131.396-51.5625ZM131.348-18.2129C131.836-17.7246 132.471-17.7734 132.861-18.2129C133.301-18.6035 133.35-19.2383 132.861-19.7266L122.607-30.0293C122.217-30.4199 121.484-30.4199 121.045-30.0293C120.654-29.5898 120.654-28.8574 121.045-28.4668ZM62.5488 13.7207L55.0293 13.7207L60.498 3.56445C61.084 2.49023 60.6445 1.66016 59.5215 1.66016L56.4453 1.66016C55.0293 1.66016 54.541 2.14844 54.1016 3.22266L48.291 16.4551C47.7539 17.7734 48.5352 18.457 49.7559 18.457L55.8594 18.457L49.9512 32.5684C49.6582 33.3496 49.8535 33.8867 50.3418 34.082C50.8301 34.2773 51.4648 34.082 51.9043 33.3984L63.6719 15.918C64.4531 14.7949 63.916 13.7207 62.5488 13.7207Z"/>
  </g>
  <g id="Black-S" transform="matrix(1 0 0 1 2876.71 696)">
   <path d="M86.377-78.418C89.0137-78.418 91.1621-80.6641 91.1621-83.3008L91.1621-89.5508C91.1621-92.2363 89.0137-94.4336 86.377-94.4336C83.7402-94.4336 81.5918-92.2363 81.5918-89.5508L81.5918-83.3008C81.5918-80.6641 83.7402-78.418 86.377-78.418ZM61.1328-70.8984C63.0371-68.9941 66.1133-68.9453 67.9688-70.8008C69.8242-72.6562 69.7266-75.6836 67.8711-77.6367L63.5254-82.1289C61.7188-84.0332 58.4961-83.9844 56.6406-82.1289C54.7852-80.2734 54.8828-77.1973 56.7383-75.3418ZM104.834-70.752C106.689-68.8965 109.814-68.9941 111.67-70.8496L116.113-75.2441C118.018-77.0996 118.018-80.2246 116.162-82.0801C114.307-83.9355 111.23-83.8867 109.326-81.9824L104.883-77.6367C102.979-75.7812 102.979-72.6074 104.834-70.752ZM26.4648-7.37305L68.8965-7.37305C81.6406-7.37305 91.5527-17.1387 91.5527-29.6875C91.5527-30.8594 91.4551-31.9824 91.3086-33.0566C100.098-35.1562 106.592-42.7734 106.592-52.3438C106.592-63.5742 97.6562-72.5098 86.5234-72.5098C76.709-72.5098 68.7012-65.8203 66.6992-56.7871C61.8164-62.5977 54.7363-65.625 45.9473-65.625C32.2754-65.625 21.0449-56.1523 18.5547-42.5781C11.377-40.2344 6.83594-33.8867 6.83594-26.0254C6.83594-15.2344 15.1855-7.37305 26.4648-7.37305ZM76.7578-52.5391C76.7578-57.8613 81.1035-62.207 86.4746-62.207C91.7969-62.207 96.1426-57.8613 96.1426-52.5391C96.1426-47.5098 92.334-43.4082 87.5-42.8711C84.9121-46.582 81.25-49.4629 76.8555-50.9766C76.7578-51.5625 76.7578-52.0996 76.7578-52.5391ZM117.236-47.6562L123.486-47.6562C126.172-47.6562 128.369-49.7559 128.369-52.3926C128.369-55.0293 126.172-57.2266 123.486-57.2266L117.236-57.2266C114.6-57.2266 112.354-55.0293 112.354-52.3926C112.354-49.7559 114.6-47.6562 117.236-47.6562ZM26.9043-19.0918C21.3379-19.0918 18.6035-21.875 18.6035-25.9277C18.6035-29.6387 21.0449-32.2266 26.1719-33.5449C28.4668-34.1309 29.0039-35.1562 29.3945-37.4512C31.2988-48.6816 37.6953-53.9551 45.9473-53.9551C52.1484-53.9551 57.4219-50.293 61.1328-43.5547C62.1582-41.6992 63.1836-41.0156 65.5273-41.0156C75.5371-41.0156 79.834-36.0352 79.834-29.541C79.834-23.584 75.4883-19.0918 68.457-19.0918ZM109.277-22.7539C111.182-20.8496 114.258-20.8008 116.113-22.6562C117.969-24.5117 117.871-27.5391 116.016-29.4922L111.67-33.9844C109.863-35.8887 106.641-35.8398 104.785-33.9844C102.93-32.1289 103.027-29.0527 104.883-27.1973ZM60.5469 5.37109L51.2695 5.37109L54.3457-0.488281C54.7852-1.31836 54.4434-2.00195 53.5645-2.00195L41.7969-2.00195C40.6738-2.00195 40.2832-1.61133 39.9414-0.78125L34.5215 11.5723C34.1309 12.5 34.4727 13.1348 35.498 13.1348L42.9199 13.1348L37.5977 26.0742C37.3535 26.6113 37.5 27.0508 37.8418 27.1973C38.1836 27.3438 38.623 27.2461 39.0625 26.8555L61.1328 7.37305C62.0605 6.5918 61.7188 5.37109 60.5469 5.37109Z"/>
  </g>
  <g id="Heavy-S" transform="matrix(1 0 0 1 2580.83 696)">
   <path d="M84.4238-77.5879C86.9141-77.5879 88.9648-79.6875 88.9648-82.1777L88.9648-88.7695C88.9648-91.2598 86.9141-93.3594 84.4238-93.3594C81.9336-93.3594 79.9316-91.2598 79.9316-88.7695L79.9316-82.1777C79.9316-79.6875 81.9336-77.5879 84.4238-77.5879ZM59.7656-70.1172C61.5723-68.3105 64.4531-68.2617 66.2109-70.0195C67.9199-71.7773 67.8711-74.6094 66.1133-76.4648L61.5234-81.2012C59.8145-82.959 56.7871-82.9102 55.0293-81.2012C53.3203-79.4434 53.3691-76.5137 55.127-74.7559ZM102.734-69.9707C104.443-68.2617 107.422-68.3105 109.18-70.0684L113.818-74.707C115.625-76.4648 115.625-79.3945 113.867-81.1523C112.109-82.9102 109.229-82.8613 107.422-81.0547L102.734-76.4648C100.977-74.707 100.977-71.7285 102.734-69.9707ZM25.7324-8.44727L67.9199-8.44727C80.2734-8.44727 89.8926-17.9199 89.8926-30.127C89.8926-31.0059 89.8438-31.9336 89.7461-32.8125C98.1934-35.0098 104.395-42.4805 104.395-51.7578C104.395-62.8418 95.5566-71.6797 84.5703-71.6797C75.0977-71.6797 67.334-65.3809 65.1367-56.7383C60.3027-62.3047 53.418-65.2832 45.0684-65.2832C31.5918-65.2832 20.5078-55.7617 18.2617-42.3828C11.2793-40.1367 6.83594-33.9355 6.83594-26.2695C6.83594-15.918 14.7949-8.44727 25.7324-8.44727ZM74.0723-51.9043C74.0723-57.666 78.7109-62.3047 84.5215-62.3047C90.2832-62.3047 94.9219-57.666 94.9219-51.9043C94.9219-46.875 91.3574-42.6758 86.6699-41.748C83.8867-46.2891 79.4434-49.6582 74.1211-51.123C74.0723-51.3672 74.0723-51.6602 74.0723-51.9043ZM114.795-47.3145L121.338-47.3145C123.877-47.3145 125.928-49.3164 125.928-51.8066C125.928-54.2969 123.877-56.3477 121.338-56.3477L114.795-56.3477C112.305-56.3477 110.205-54.2969 110.205-51.8066C110.205-49.3164 112.305-47.3145 114.795-47.3145ZM26.0254-19.0918C20.3125-19.0918 17.4805-22.0215 17.4805-26.1719C17.4805-29.8828 19.8242-32.666 25.0488-34.0332C27.2949-34.5703 27.8809-35.5957 28.2227-37.8418C29.8828-48.9258 36.5723-54.6875 45.0684-54.6875C51.4648-54.6875 56.7871-51.0254 60.498-44.1895C61.4746-42.334 62.5-41.6992 64.7949-41.6992C74.8047-41.6992 79.2969-36.5234 79.2969-29.9316C79.2969-23.7793 74.6582-19.0918 67.5781-19.0918ZM107.373-22.4609C109.18-20.7031 112.061-20.6543 113.818-22.4121C115.576-24.1699 115.479-27.002 113.77-28.8574L109.131-33.5449C107.422-35.3027 104.443-35.3027 102.686-33.5449C100.928-31.7871 100.977-28.9062 102.734-27.1484ZM59.4727 4.39453L50.4883 4.39453L53.6133-1.61133C54.0527-2.44141 53.7109-3.07617 52.8809-3.07617L41.6992-3.07617C40.625-3.07617 40.2344-2.68555 39.8926-1.9043L34.5703 10.2051C34.1797 11.1328 34.5215 11.7676 35.5469 11.7676L42.8223 11.7676L37.5488 24.4629C37.3047 25 37.4512 25.4395 37.793 25.5859C38.1348 25.7324 38.5742 25.6348 39.0137 25.2441L60.0098 6.34766C60.9375 5.56641 60.5957 4.39453 59.4727 4.39453Z"/>
  </g>
  <g id="Bold-S" transform="matrix(1 0 0 1 2285.05 696)">
   <path d="M82.2754-76.6602C84.6191-76.6602 86.5234-78.6133 86.5234-80.9082L86.5234-87.8418C86.5234-90.2344 84.6191-92.1387 82.2754-92.1387C79.9805-92.1387 78.0762-90.2344 78.0762-87.8418L78.0762-80.9082C78.0762-78.6133 79.9805-76.6602 82.2754-76.6602ZM58.252-69.1895C59.9121-67.5293 62.6465-67.5293 64.2578-69.1406C65.8691-70.8008 65.8203-73.4375 64.209-75.1465L59.2773-80.127C57.7148-81.7871 54.9316-81.7383 53.3203-80.127C51.6602-78.4668 51.709-75.7812 53.3691-74.1211ZM100.342-69.1406C101.953-67.5293 104.736-67.5293 106.396-69.1895L111.279-74.0723C112.939-75.7324 112.939-78.4668 111.328-80.0781C109.668-81.7383 106.982-81.6895 105.322-80.0293L100.391-75.1465C98.7305-73.4863 98.7305-70.752 100.342-69.1406ZM24.9512-9.66797L66.7969-9.66797C78.7598-9.66797 88.0859-18.7988 88.0859-30.5664C88.0859-31.2012 88.0371-31.8359 87.9883-32.4707C96.0938-34.7656 102.002-42.1387 102.002-51.0742C102.002-62.0605 93.2617-70.8008 82.373-70.8008C73.3398-70.8008 65.8203-64.8438 63.4277-56.6406C58.6426-61.9629 51.9531-64.8926 44.0918-64.8926C30.8594-64.8926 19.873-55.2734 17.9688-42.1875C11.1816-39.9902 6.83594-33.9844 6.83594-26.5625C6.83594-16.6992 14.3555-9.66797 24.9512-9.66797ZM71.0938-51.1719C71.0938-57.4707 76.0742-62.4512 82.3242-62.4512C88.5742-62.4512 93.5547-57.4707 93.5547-51.1719C93.5547-46.0938 90.2344-41.8457 85.6445-40.5273C82.7637-45.9473 77.5391-49.8047 71.0938-51.123C71.0938-51.0742 71.0938-51.123 71.0938-51.1719ZM25.0488-19.043C19.1895-19.043 16.2598-22.168 16.2598-26.416C16.2598-30.127 18.457-33.1543 23.7793-34.5215C25.9766-35.1074 26.6113-36.084 26.9043-38.3301C28.3203-49.2188 35.3027-55.5664 44.0918-55.5664C50.6836-55.5664 56.1035-51.8555 59.7168-44.9219C60.6934-43.0664 61.7188-42.4316 63.9648-42.4316C73.9746-42.4316 78.7109-37.0605 78.7109-30.4199C78.7109-24.0234 73.7793-19.043 66.6504-19.043ZM112.061-46.9238L118.994-46.9238C121.338-46.9238 123.242-48.7793 123.242-51.123C123.242-53.4668 121.338-55.3711 118.994-55.3711L112.061-55.3711C109.766-55.3711 107.764-53.4668 107.764-51.123C107.764-48.7793 109.766-46.9238 112.061-46.9238ZM105.322-22.168C106.982-20.5078 109.668-20.5078 111.279-22.1191C112.939-23.7793 112.891-26.4648 111.23-28.0762L106.348-33.0566C104.736-34.668 101.953-34.668 100.342-33.0566C98.7305-31.4453 98.7793-28.7109 100.391-27.0996ZM58.252 3.32031L49.6094 3.32031L52.832-2.83203C53.2715-3.66211 52.9297-4.29688 52.0508-4.29688L41.6016-4.29688C40.5273-4.29688 40.1855-3.90625 39.8438-3.125L34.6191 8.69141C34.2285 9.61914 34.5703 10.2051 35.5957 10.2051L42.6758 10.2051L37.5 22.7051C37.3047 23.1934 37.4023 23.6328 37.7441 23.7793C38.1348 23.9258 38.5254 23.8281 38.9648 23.4375L58.7891 5.22461C59.668 4.44336 59.375 3.32031 58.252 3.32031Z"/>
  </g>
  <g id="Semibold-S" transform="matrix(1 0 0 1 1988.99 696)">
   <path d="M80.8105-76.0254C83.0078-76.0254 84.8145-77.8809 84.8145-80.0781L84.8145-87.2559C84.8145-89.502 83.0078-91.3086 80.8105-91.3086C78.6133-91.3086 76.8066-89.502 76.8066-87.2559L76.8066-80.0781C76.8066-77.8809 78.6133-76.0254 80.8105-76.0254ZM57.1777-68.6035C58.7891-66.9922 61.377-67.041 62.8906-68.5547C64.4043-70.1172 64.4043-72.6562 62.8906-74.2188L57.7637-79.3945C56.25-80.957 53.6621-80.9082 52.0996-79.3945C50.5371-77.832 50.5859-75.2441 52.1484-73.6816ZM98.7305-68.5547C100.244-66.9922 102.881-66.9922 104.443-68.6035L109.521-73.6816C111.084-75.2441 111.084-77.832 109.57-79.3457C108.008-80.9082 105.469-80.9082 103.906-79.3457L98.7793-74.2188C97.2168-72.6562 97.2168-70.1172 98.7305-68.5547ZM24.3652-10.498L66.0156-10.498C77.7344-10.498 86.8164-19.3848 86.8164-30.9082C86.8164-31.3477 86.8164-31.7871 86.7676-32.1777C94.6289-34.6191 100.293-41.8945 100.293-50.6348C100.293-61.4746 91.6504-70.166 80.8594-70.166C72.0703-70.166 64.7461-64.4531 62.2559-56.543C57.5195-61.7676 50.9766-64.6484 43.457-64.6484C30.3223-64.6484 19.4336-54.9805 17.7734-42.041C11.1328-39.8926 6.83594-34.0332 6.83594-26.7578C6.83594-17.2363 14.0625-10.498 24.3652-10.498ZM80.8594-62.5C87.4512-62.5 92.627-57.3242 92.627-50.6836C92.627-45.5566 89.4043-41.2109 84.9121-39.6484C82.0312-45.6543 76.2207-49.9512 69.043-51.0254C69.2383-57.4707 74.3652-62.5 80.8594-62.5ZM24.4141-19.043C18.4082-19.043 15.3809-22.2656 15.3809-26.6113C15.3809-30.3223 17.5293-33.4961 22.9492-34.9121C25.0488-35.4492 25.7324-36.4258 25.9766-38.623C27.2461-49.4141 34.4727-56.1035 43.457-56.1035C50.1465-56.1035 55.6152-52.4414 59.2285-45.4102C60.1562-43.6035 61.2305-42.9688 63.4277-42.9688C73.3887-42.9688 78.2715-37.4512 78.2715-30.7129C78.2715-24.1699 73.1445-19.043 65.9668-19.043ZM110.156-46.6797L117.383-46.6797C119.58-46.6797 121.387-48.4375 121.387-50.6348C121.387-52.8809 119.58-54.6875 117.383-54.6875L110.156-54.6875C108.008-54.6875 106.104-52.8809 106.104-50.6348C106.104-48.4375 108.008-46.6797 110.156-46.6797ZM103.857-21.9238C105.469-20.3613 108.008-20.3613 109.521-21.9238C111.084-23.4863 111.035-26.0254 109.521-27.5879L104.395-32.7148C102.881-34.2285 100.293-34.2773 98.7305-32.7148C97.168-31.1523 97.2168-28.6133 98.7793-27.0508ZM57.373 2.53906L49.0234 2.53906L52.2461-3.66211C52.6855-4.49219 52.3438-5.12695 51.5137-5.12695L41.5527-5.12695C40.4785-5.12695 40.1367-4.73633 39.7949-3.95508L34.668 7.66602C34.2773 8.54492 34.6191 9.13086 35.6445 9.13086L42.5781 9.13086L37.5 21.4355C37.3047 21.9727 37.4023 22.3633 37.7441 22.5098C38.0859 22.6562 38.4766 22.5586 38.916 22.168L57.9102 4.44336C58.7891 3.66211 58.4961 2.53906 57.373 2.53906Z"/>
  </g>
  <g id="Medium-S" transform="matrix(1 0 0 1 1692.77 696)">
   <path d="M79.6875-75.5371C81.8359-75.5371 83.5449-77.3438 83.5449-79.3945L83.5449-86.7676C83.5449-88.916 81.8359-90.6738 79.6875-90.6738C77.5879-90.6738 75.8301-88.916 75.8301-86.7676L75.8301-79.3945C75.8301-77.3438 77.5879-75.5371 79.6875-75.5371ZM56.3965-68.1152C57.9102-66.6016 60.4492-66.6504 61.9141-68.1152C63.3301-69.5801 63.3789-72.0215 61.8652-73.5352L56.5918-78.8086C55.127-80.3223 52.6855-80.3223 51.1719-78.8086C49.707-77.3438 49.707-74.8535 51.2207-73.3887ZM97.5098-68.1152C98.9746-66.6016 101.465-66.6016 103.027-68.1152L108.203-73.3398C109.717-74.8535 109.717-77.3438 108.203-78.8086C106.738-80.3223 104.297-80.2734 102.783-78.8086L97.5098-73.5352C96.0449-72.0703 96.0449-69.5801 97.5098-68.1152ZM23.9746-11.1328L65.4297-11.1328C76.9531-11.1328 85.8398-19.873 85.8398-31.1523C85.8398-31.4453 85.8398-31.7383 85.8398-31.9824C93.5547-34.5215 99.0234-41.6992 99.0234-50.293C99.0234-61.0352 90.4785-69.6777 79.7363-69.6777C71.1426-69.6777 63.916-64.209 61.377-56.4941C56.6895-61.5723 50.2441-64.4531 42.9199-64.4531C29.9316-64.4531 19.0918-54.7363 17.5781-41.9434C11.0352-39.8438 6.83594-34.0332 6.83594-26.9531C6.83594-17.6758 13.8672-11.1328 23.9746-11.1328ZM79.7363-62.5977C86.5723-62.5977 91.9434-57.2266 91.9434-50.3418C91.9434-45.1172 88.7695-40.7227 84.2773-38.9648C81.4941-45.459 75.293-50.0488 67.5293-50.9277C67.8223-57.5195 73.0469-62.5977 79.7363-62.5977ZM23.877-18.9941C17.8223-18.9941 14.7461-22.3633 14.7461-26.7578C14.7461-30.4688 16.7969-33.7402 22.2656-35.1562C24.3652-35.6934 25.0977-36.6699 25.293-38.8672C26.416-49.5605 33.7891-56.543 42.9199-56.543C49.7559-56.543 55.2734-52.832 58.8379-45.8008C59.7656-43.9941 60.791-43.3594 62.9883-43.3594C72.9492-43.3594 77.9785-37.6953 77.9785-30.957C77.9785-24.3164 72.6562-18.9941 65.4785-18.9941ZM108.74-46.4355L116.113-46.4355C118.213-46.4355 119.971-48.1934 119.971-50.293C119.971-52.4414 118.213-54.1504 116.113-54.1504L108.74-54.1504C106.641-54.1504 104.883-52.4414 104.883-50.293C104.883-48.1934 106.641-46.4355 108.74-46.4355ZM102.783-21.7773C104.297-20.2637 106.738-20.3125 108.203-21.7773C109.717-23.291 109.668-25.7324 108.203-27.1973L102.93-32.4707C101.465-33.9355 98.9746-33.9355 97.5098-32.4707C95.9961-30.957 96.0449-28.5156 97.5098-27.002ZM56.7383 1.95312L48.5352 1.95312L51.8555-4.29688C52.2949-5.12695 51.9531-5.76172 51.123-5.76172L41.5039-5.76172C40.4297-5.76172 40.0879-5.37109 39.7461-4.58984L34.7168 6.88477C34.3262 7.76367 34.668 8.34961 35.6445 8.34961L42.5293 8.34961L37.4512 20.5078C37.2559 21.0449 37.3535 21.4355 37.6953 21.582C38.0859 21.7285 38.4766 21.6309 38.8672 21.2402L57.2754 3.85742C58.1055 3.07617 57.8613 1.95312 56.7383 1.95312Z"/>
  </g>
  <g id="Regular-S" transform="matrix(1 0 0 1 1396.7 696)">
   <path d="M78.2227-74.9023C80.2734-74.9023 81.8848-76.5625 81.8848-78.5645L81.8848-86.1816C81.8848-88.1836 80.2734-89.8438 78.2227-89.8438C76.2207-89.8438 74.5605-88.1836 74.5605-86.1816L74.5605-78.5645C74.5605-76.5625 76.2207-74.9023 78.2227-74.9023ZM95.8984-67.5293C97.2656-66.1133 99.6582-66.0645 101.123-67.5293L106.494-72.9492C107.91-74.3652 107.91-76.709 106.494-78.0762C105.078-79.4922 102.783-79.4922 101.367-78.0762L95.8984-72.6562C94.5312-71.2402 94.5312-68.9453 95.8984-67.5293ZM55.3711-67.5293C56.8359-66.0645 59.1797-66.1133 60.5469-67.5293C61.9141-68.9453 61.9629-71.2402 60.5469-72.6562L55.0781-78.0762C53.7109-79.4922 51.416-79.4922 50-78.0762C48.584-76.709 48.584-74.3652 50-72.9492ZM23.4375-11.9629L64.6973-11.9629C75.8789-11.9629 84.6191-20.459 84.6191-31.4941L84.6191-31.6895C92.0898-34.3262 97.4121-41.4551 97.4121-49.8535C97.4121-60.498 88.8672-69.043 78.2227-69.043C69.873-69.043 62.8418-63.8184 60.2051-56.3965C55.5664-61.3281 49.2676-64.1602 42.2852-64.1602C29.4434-64.1602 18.7012-54.3945 17.3828-41.7969C10.9863-39.7461 6.83594-34.082 6.83594-27.1484C6.83594-18.2129 13.5742-11.9629 23.4375-11.9629ZM78.2227-62.6465C85.4004-62.6465 91.0156-57.0801 91.0156-49.8535C91.0156-44.5312 87.9395-40.0391 83.4473-38.0859C80.8594-45.2148 74.0234-50.1465 65.4785-50.7324C65.918-57.5195 71.3379-62.6465 78.2227-62.6465ZM23.2422-18.9941C17.0898-18.9941 13.8672-22.4609 13.8672-26.9531C13.8672-30.6152 15.8691-34.082 21.4355-35.5469C23.4863-36.0352 24.2188-37.0117 24.4141-39.1602C25.3418-49.7559 32.959-57.1289 42.2852-57.1289C49.2188-57.1289 54.7852-53.418 58.3496-46.2891C59.2285-44.4824 60.3027-43.8477 62.4512-43.8477C72.3633-43.8477 77.5879-38.0859 77.5879-31.2988C77.5879-24.4629 72.0703-18.9941 64.7949-18.9941ZM106.885-46.1914L114.502-46.1914C116.504-46.1914 118.115-47.8516 118.115-49.8535C118.115-51.8555 116.504-53.5156 114.502-53.5156L106.885-53.5156C104.932-53.5156 103.223-51.8555 103.223-49.8535C103.223-47.8516 104.932-46.1914 106.885-46.1914ZM101.367-21.5332C102.783-20.166 105.078-20.2148 106.494-21.582C107.91-22.998 107.91-25.3418 106.494-26.709L101.025-32.1289C99.6094-33.4961 97.3145-33.5449 95.8984-32.1289C94.5312-30.7129 94.5312-28.3691 95.8984-26.9531ZM55.9082 1.2207L47.9492 1.2207L51.3184-5.17578C51.7578-6.00586 51.416-6.5918 50.5859-6.5918L41.4062-6.5918C40.3809-6.5918 40.0391-6.20117 39.6973-5.46875L34.7168 5.81055C34.3262 6.73828 34.7168 7.27539 35.6934 7.27539L42.4316 7.27539L37.4512 19.2871C37.2559 19.8242 37.3535 20.2148 37.6953 20.3613C38.0371 20.5078 38.4277 20.4102 38.8184 19.9707L56.4453 3.07617C57.2266 2.29492 56.9824 1.2207 55.9082 1.2207Z"/>
  </g>
  <g id="Light-S" transform="matrix(1 0 0 1 1100.35 696)">
   <path d="M77.8809-74.6094C79.4434-74.6094 80.7129-75.8789 80.7129-77.3438L80.7129-86.1816C80.7129-87.6953 79.4434-88.916 77.8809-88.916C76.3672-88.916 75.0977-87.6953 75.0977-86.1816L75.0977-77.3438C75.0977-75.8789 76.3672-74.6094 77.8809-74.6094ZM56.25-67.2363C57.373-66.1133 59.1797-66.1621 60.2051-67.2363C61.2793-68.2617 61.2793-70.0195 60.2051-71.0938L53.9551-77.3926C52.8809-78.4668 51.123-78.4668 50.0488-77.3926C48.9746-76.3184 48.9746-74.5605 50.0488-73.4375ZM95.5566-67.2363C96.6309-66.1621 98.4375-66.1133 99.5117-67.2363L105.762-73.4375C106.836-74.5605 106.787-76.3184 105.762-77.3926C104.688-78.4668 102.93-78.4668 101.855-77.3926L95.5566-71.0938C94.5312-70.0195 94.5312-68.2617 95.5566-67.2363ZM22.7539-11.9629L64.2578-11.9629C75.1953-11.9629 83.6914-20.2148 83.6914-30.8105C83.6914-31.0547 83.6914-31.2988 83.6914-31.4941C91.2598-34.082 96.582-41.2598 96.582-49.5605C96.582-59.9609 88.2812-68.3105 77.8809-68.3105C69.3848-68.3105 62.2559-62.6953 59.9609-54.9316C55.3711-60.1074 49.1211-63.1348 41.8457-63.1348C29.3457-63.1348 18.8965-53.3203 17.627-40.7715C11.2793-38.8672 6.83594-33.4473 6.83594-26.4648C6.83594-18.1152 13.1348-11.9629 22.7539-11.9629ZM64.1113-49.5605C64.1113-57.2754 70.166-63.3301 77.8809-63.3301C85.5957-63.3301 91.6504-57.2754 91.6504-49.5605C91.6504-43.6523 88.0371-38.5742 82.8125-36.4746C80.4199-43.9941 73.1934-49.2188 64.1113-49.4629C64.1113-49.4629 64.1113-49.5117 64.1113-49.5605ZM22.6562-17.334C15.8691-17.334 12.207-21.3379 12.207-26.3672C12.207-30.7129 14.8438-34.375 20.5566-35.9375C22.2656-36.377 22.8516-37.1582 22.998-38.8672C23.877-49.707 32.0801-57.7148 41.8457-57.7148C49.6582-57.7148 55.5664-53.3691 59.1797-46.1914C59.9121-44.6777 60.791-44.1895 62.5977-44.1895C72.4121-44.1895 78.3203-38.0859 78.3203-30.6641C78.3203-23.291 72.2656-17.334 64.3555-17.334ZM105.664-46.7773L114.453-46.7773C115.967-46.7773 117.188-47.998 117.236-49.5605C117.236-51.0742 115.967-52.2949 114.453-52.2949L105.664-52.2949C104.15-52.2949 102.881-51.0742 102.881-49.5605C102.881-47.998 104.15-46.7773 105.664-46.7773ZM101.855-21.6309C102.93-20.5566 104.688-20.6055 105.762-21.6797C106.787-22.7539 106.836-24.5117 105.762-25.5859L99.4629-31.8359C98.3887-32.8613 96.6309-32.8613 95.5566-31.8359C94.5312-30.7617 94.5312-28.9551 95.5566-27.8809ZM53.7598 1.80664L46.4355 1.80664L50.0977-5.07812C50.5371-5.9082 50.1953-6.49414 49.3164-6.49414L42.2852-6.49414C41.2109-6.49414 40.8691-6.10352 40.5273-5.37109L35.6934 5.66406C35.3027 6.5918 35.7422 7.12891 36.7188 7.12891L42.8223 7.12891L37.9883 18.8477C37.7441 19.3848 37.8906 19.7754 38.2324 19.9219C38.5742 20.0684 39.0137 19.9707 39.4043 19.5312L54.3945 3.61328C55.127 2.83203 54.834 1.80664 53.7598 1.80664Z"/>
  </g>
  <g id="Thin-S" transform="matrix(1 0 0 1 804.103 696)">
   <path d="M77.4414-74.1699C78.3691-74.1699 79.1016-74.9512 79.1016-75.7812L79.1016-86.1328C79.1016-87.0605 78.3691-87.7441 77.4414-87.7441C76.5625-87.7441 75.8301-87.0605 75.8301-86.1328L75.8301-75.7812C75.8301-74.9512 76.5625-74.1699 77.4414-74.1699ZM95.1172-66.7969C95.752-66.1621 96.8262-66.1621 97.4609-66.7969L104.736-74.1211C105.42-74.8047 105.371-75.8301 104.736-76.416C104.15-77.0508 103.125-77.0996 102.49-76.416L95.1172-69.0918C94.5312-68.457 94.5312-67.4316 95.1172-66.7969ZM57.4707-66.7969C58.1055-66.1621 59.1797-66.1621 59.7656-66.7969C60.4004-67.4316 60.4004-68.457 59.7656-69.0918L52.4414-76.416C51.8066-77.0996 50.7812-77.0508 50.1465-76.416C49.5605-75.8301 49.5117-74.8047 50.1465-74.1211ZM21.875-12.0117L63.7695-12.0117C74.2676-12.0117 82.4707-19.9219 82.4707-29.9805C82.4707-30.4199 82.4219-30.8105 82.4219-31.25C90.1367-33.7891 95.5566-40.9668 95.5566-49.1211C95.5566-59.2285 87.5-67.334 77.4414-67.334C68.6523-67.334 61.377-61.1816 59.668-52.9297C55.2246-58.3984 49.0234-61.7188 41.3574-61.7188C29.1992-61.7188 19.1406-51.9043 17.9688-39.4531C11.6699-37.6953 6.83594-32.666 6.83594-25.6348C6.83594-18.0176 12.5977-12.0117 21.875-12.0117ZM63.0859-47.7539C62.8418-48.1445 62.5977-48.584 62.3535-48.9746C62.3535-49.0234 62.3535-49.0723 62.3535-49.1211C62.3535-57.5684 68.9941-64.209 77.4414-64.209C85.8398-64.209 92.4805-57.5684 92.4805-49.1211C92.4805-42.4805 88.1836-36.6211 81.9336-34.3262C79.8828-42.1387 72.4609-47.6562 63.0859-47.7539ZM21.8262-15.1855C14.2578-15.1855 10.0098-19.8242 10.0098-25.5859C10.0098-30.8105 13.5254-34.8145 19.3848-36.5234C20.6543-36.8652 21.0449-37.3535 21.1426-38.5254C21.9238-49.707 30.957-58.5449 41.3574-58.5449C50.293-58.5449 56.6406-53.2715 60.2539-46.0938C60.791-44.9707 61.4258-44.5801 62.7441-44.5801C72.4609-44.5801 79.248-38.0371 79.248-29.8828C79.248-21.7773 72.5098-15.1855 63.8184-15.1855ZM104.053-47.5098L114.404-47.5098C115.283-47.5098 115.967-48.2422 116.016-49.1211C116.064-50.0488 115.283-50.7324 114.404-50.7324L104.053-50.7324C103.174-50.7324 102.441-50.0488 102.441-49.1211C102.441-48.2422 103.174-47.5098 104.053-47.5098ZM102.49-21.7773C103.125-21.1426 104.15-21.1914 104.736-21.7773C105.371-22.4121 105.42-23.4375 104.736-24.0723L97.4121-31.3965C96.7773-32.0312 95.752-32.0312 95.1172-31.3965C94.5312-30.7617 94.5312-29.7363 95.1172-29.1016ZM50.9277 2.58789L44.4336 2.58789L48.4863-4.93164C48.9258-5.76172 48.584-6.39648 47.7051-6.39648L43.457-6.39648C42.334-6.39648 41.9922-6.00586 41.6504-5.22461L36.9629 5.41992C36.5723 6.39648 37.1094 6.98242 38.0371 6.98242L43.4082 6.98242L38.6719 18.3105C38.4277 18.8477 38.5742 19.2871 38.9648 19.4336C39.3066 19.5801 39.7949 19.4336 40.1367 18.9453L51.709 4.3457C52.3438 3.51562 52.002 2.58789 50.9277 2.58789Z"/>
  </g>
  <g id="Ultralight-S" transform="matrix(1 0 0 1 507.66 696)">
   <path d="M77.2461-73.9746C77.7832-73.9746 78.2715-74.4629 78.2715-75L78.2715-86.1328C78.2715-86.7188 77.7832-87.1582 77.2461-87.1582C76.6602-87.1582 76.1719-86.7188 76.1719-86.1328L76.1719-75C76.1719-74.4629 76.6602-73.9746 77.2461-73.9746ZM58.1055-66.6016C58.4961-66.2109 59.1797-66.2109 59.5703-66.6016C59.9609-66.9922 59.9609-67.6758 59.5703-68.0664L51.6602-75.9277C51.2207-76.3672 50.5859-76.3184 50.1953-75.9277C49.8047-75.5371 49.7559-74.9023 50.1953-74.4629ZM94.9219-66.6016C95.3125-66.2109 95.9961-66.2109 96.3867-66.6016L104.248-74.4629C104.688-74.9023 104.639-75.5371 104.248-75.9277C103.857-76.3184 103.223-76.3672 102.783-75.9277L94.9219-68.0664C94.5312-67.6758 94.5312-66.9922 94.9219-66.6016ZM21.4355-12.0117L63.4766-12.0117C73.7793-12.0117 81.8359-19.7754 81.8359-29.541C81.8359-30.0781 81.7871-30.5664 81.7871-31.1035C89.5508-33.6426 95.0195-40.8203 95.0195-48.9258C95.0195-58.8867 87.1094-66.7969 77.1973-66.7969C68.2617-66.7969 60.9375-60.3516 59.5703-51.8066C55.1758-57.4707 48.9746-60.9863 41.0645-60.9863C29.1016-60.9863 19.2383-51.1719 18.1641-38.7207C11.8652-37.1094 6.83594-32.2266 6.83594-25.1953C6.83594-17.9688 12.3047-12.0117 21.4355-12.0117ZM62.7441-46.8262C62.3047-47.6074 61.9141-48.3398 61.4746-49.0723C61.4746-57.7148 68.3594-64.6973 77.1973-64.6973C85.9863-64.6973 92.9199-57.7148 92.9199-48.9258C92.9199-41.8945 88.2324-35.5957 81.4453-33.2031C79.6875-41.1621 72.2168-46.7773 62.7441-46.8262ZM21.4355-14.0625C13.4277-14.0625 8.88672-19.0918 8.88672-25.1953C8.88672-30.8594 12.793-35.0098 18.7988-36.8164C19.8242-37.1094 20.1172-37.4512 20.166-38.3301C20.9473-49.6582 30.3711-58.9355 41.0645-58.9355C50.6348-58.9355 57.1777-53.2227 60.791-46.0449C61.2793-45.1172 61.7676-44.8242 62.8906-44.8242C72.5098-44.8242 79.7852-38.0371 79.7852-29.4434C79.7852-20.9961 72.6074-14.0625 63.4766-14.0625ZM103.223-47.9004L114.355-47.9004C114.941-47.9004 115.381-48.3398 115.43-48.9258C115.43-49.5117 114.941-49.9512 114.355-49.9512L103.223-49.9512C102.637-49.9512 102.197-49.5117 102.197-48.9258C102.197-48.3398 102.637-47.9004 103.223-47.9004ZM102.783-21.875C103.223-21.4355 103.857-21.4844 104.248-21.875C104.639-22.2656 104.688-22.9004 104.248-23.3398L96.3867-31.2012C95.9961-31.5918 95.3125-31.5918 94.9219-31.2012C94.5312-30.8105 94.5312-30.127 94.9219-29.7363ZM49.4629 2.97852L43.457 2.97852L47.6562-4.83398C48.0957-5.66406 47.7539-6.34766 46.875-6.34766L44.043-6.34766C42.9199-6.34766 42.5293-5.95703 42.1875-5.12695L37.6465 5.32227C37.207 6.29883 37.8418 6.83594 38.7695 6.83594L43.7012 6.83594L39.0137 17.9688C38.7695 18.5547 38.916 18.9941 39.3066 19.1406C39.6973 19.2871 40.1855 19.1406 40.5273 18.6035L50.293 4.73633C50.9277 3.85742 50.5371 2.97852 49.4629 2.97852Z"/>
  </g>
 </g>
</svg>
